<svg width="150" height="150" viewBox="0 0 150 150" fill="none" xmlns="http://www.w3.org/2000/svg">
<path d="M97.3486 57.0001L86.9495 92.1017H80.4374L73.0672 65.5356L65.2426 92.1017L58.781 92.1522L48.8362 57.0001H54.9444L62.2137 85.5864L70.0888 57.0001H76.5504L83.8701 85.4349L91.1899 57.0001H97.3486Z" fill="#FD4525"/>
<path d="M95.0046 57.7584C98.8761 71 100.116 78.5176 100.934 92.0263C102.994 81.1658 106.564 58.9597 117.28 58.9597C132.516 58.9597 134.687 86.5534 125.627 90.1414C119.468 92.5808 115.777 87.5836 118.738 82.871C121.699 78.1585 136.44 76.5887 136.44 92.0263" stroke="#FD4525" stroke-width="4.82045"/>
<path d="M37.8518 75.4921C40.1224 80.707 37.8136 92.7112 27.1387 90.1649C16.7132 87.6781 12.2959 77.9105 15.6522 68.7031C18.5465 60.763 30.501 55.379 39.9997 61.463C46.7095 65.7608 51.6808 78.3987 41.3837 87.4048C34.3697 93.5394 28.7668 86.9665 26.7302 81.8288" stroke="#FD4525" stroke-width="4.06898"/>
<ellipse cx="25.1864" cy="74.7355" rx="2.15808" ry="2.15914" fill="#FD4525"/>
<ellipse cx="34.2977" cy="70.4176" rx="2.15808" ry="2.15914" fill="#FD4525"/>
</svg>
