<svg width="150" height="150" viewBox="0 0 150 150" fill="none" xmlns="http://www.w3.org/2000/svg">
<path d="M97.544 57.4434L87.3671 91.778H80.9942L73.7815 65.7923L66.1241 91.778L59.8006 91.8274L50.0684 57.4434H56.046L63.16 85.4051L70.8667 57.4434H77.1902L84.3536 85.2569L91.5169 57.4434H97.544Z" fill="#FD4525"/>
<path d="M32.5378 92.125C29.3431 92.125 26.3955 91.384 23.6948 89.9019C21.0271 88.3869 18.9028 86.2956 17.3219 83.6278C15.774 80.9272 15 77.8972 15 74.5378C15 71.1785 15.774 68.1649 17.3219 65.4972C18.9028 62.8295 21.0271 60.7546 23.6948 59.2725C26.3955 57.7575 29.3431 57 32.5378 57C35.7654 57 38.7131 57.7575 41.3808 59.2725C44.0815 60.7546 46.2058 62.8295 47.7537 65.4972C49.3017 68.1649 50.0756 71.1785 50.0756 74.5378C50.0756 77.8972 49.3017 80.9272 47.7537 83.6278C46.2058 86.2956 44.0815 88.3869 41.3808 89.9019C38.7131 91.384 35.7654 92.125 32.5378 92.125ZM32.5378 87.2342C34.8103 87.2342 36.8358 86.7237 38.6143 85.7027C40.3928 84.6488 41.776 83.1668 42.7641 81.2565C43.7851 79.3134 44.2956 77.0738 44.2956 74.5378C44.2956 72.0018 43.7851 69.7787 42.7641 67.8685C41.776 65.9583 40.3928 64.4927 38.6143 63.4717C36.8358 62.4507 34.8103 61.9402 32.5378 61.9402C30.2653 61.9402 28.2398 62.4507 26.4613 63.4717C24.6828 64.4927 23.2831 65.9583 22.2621 67.8685C21.2741 69.7787 20.7801 72.0018 20.7801 74.5378C20.7801 77.0738 21.2741 79.3134 22.2621 81.2565C23.2831 83.1668 24.6828 84.6488 26.4613 85.7027C28.2398 86.7237 30.2653 87.2342 32.5378 87.2342Z" fill="#FD4525"/>
<path d="M95.2559 58.1865C99.0446 71.1387 100.258 78.492 101.058 91.7056C103.075 81.0824 106.568 59.3616 117.055 59.3616C131.966 59.3616 134.09 86.3523 125.224 89.8619C119.196 92.2479 115.584 87.3599 118.482 82.7504C121.379 78.1408 135.805 76.6053 135.805 91.7056" stroke="#FD4525" stroke-width="4.67414"/>
</svg>
