<svg width="150" height="150" viewBox="0 0 150 150" fill="none" xmlns="http://www.w3.org/2000/svg">
<path d="M90.1735 68.1114L85.6391 83.4093H82.7997L79.586 71.8313L76.1742 83.4093L73.3568 83.4313L69.0205 68.1114H71.6839L74.8535 80.5699L78.2873 68.1114H81.1048L84.2964 80.5038L87.4881 68.1114H90.1735Z" fill="#FD4525"/>
<path d="M61.2105 83.5623C59.7871 83.5623 58.4738 83.2321 57.2705 82.5718C56.0819 81.8968 55.1354 80.965 54.431 79.7763C53.7413 78.573 53.3965 77.223 53.3965 75.7262C53.3965 74.2295 53.7413 72.8868 54.431 71.6981C55.1354 70.5095 56.0819 69.585 57.2705 68.9247C58.4738 68.2497 59.7871 67.9122 61.2105 67.9122C62.6486 67.9122 63.962 68.2497 65.1506 68.9247C66.3539 69.585 67.3004 70.5095 67.9901 71.6981C68.6798 72.8868 69.0246 74.2295 69.0246 75.7262C69.0246 77.223 68.6798 78.573 67.9901 79.7763C67.3004 80.965 66.3539 81.8968 65.1506 82.5718C63.962 83.2321 62.6486 83.5623 61.2105 83.5623ZM61.2105 81.3832C62.2231 81.3832 63.1255 81.1557 63.918 80.7008C64.7104 80.2312 65.3267 79.5709 65.7669 78.7198C66.2218 77.854 66.4493 76.8562 66.4493 75.7262C66.4493 74.5963 66.2218 73.6058 65.7669 72.7547C65.3267 71.9036 64.7104 71.2506 63.918 70.7957C63.1255 70.3408 62.2231 70.1133 61.2105 70.1133C60.198 70.1133 59.2956 70.3408 58.5031 70.7957C57.7107 71.2506 57.0871 71.9036 56.6322 72.7547C56.1919 73.6058 55.9718 74.5963 55.9718 75.7262C55.9718 76.8562 56.1919 77.854 56.6322 78.7198C57.0871 79.5709 57.7107 80.2312 58.5031 80.7008C59.2956 81.1557 60.198 81.3832 61.2105 81.3832Z" fill="#FD4525"/>
<path d="M89.7852 68.8135C91.4732 74.5845 92.014 77.8608 92.3705 83.7481C93.2689 79.0149 94.8252 69.3371 99.4979 69.3371C106.142 69.3371 107.088 81.3629 103.138 82.9267C100.452 83.9898 98.8426 81.8119 100.134 79.7581C101.425 77.7043 107.852 77.0201 107.852 83.7481" stroke="#FD4525" stroke-width="2.08259"/>
<path d="M12.042 88.4781C22.4544 73.9986 45.7635 53.67 75.6958 51.4136C117.439 48.2669 136.359 68.5477 137.364 79.8174C138.697 94.7669 82.2275 105.955 63.373 104.551C44.5186 103.146 26.4048 97.359 26.3851 77.0787C26.3654 56.7984 64.8184 33.6345 102.756 51.3875C140.694 69.1405 138.384 92.5587 118.578 100.658C103.921 106.651 61.7106 100.409 49.496 97.3375C39.3502 94.3116 21.6906 84.7042 23.2283 73.1993C27.8196 38.8473 101.087 44.3655 122.032 51.3687" stroke="#FD4525" stroke-width="2.07016" stroke-linecap="round"/>
</svg>
