<svg width="150" height="150" viewBox="0 0 150 150" fill="none" xmlns="http://www.w3.org/2000/svg">
<path fill-rule="evenodd" clip-rule="evenodd" d="M67.1217 48.2403C60.6489 52.8244 58.3022 60.4418 60.2152 67.5931C59.0628 66.9187 57.7214 66.5322 56.2898 66.5322C53.1557 66.5322 50.4543 68.3844 49.2204 71.0539L44 74.3167L49.2211 77.5798C50.4553 80.2485 53.1563 82.1 56.2898 82.1C57.8463 82.1 59.2961 81.6431 60.5124 80.8562C58.0912 88.289 60.3454 96.4124 67.1217 101.211C75.8748 107.41 89.2508 106.546 96.0308 100.354L79.4593 79.4615L105.453 89.4744V59.1582L80.3949 68.8107L96.0308 49.0979C89.2508 42.9054 75.8748 42.0414 67.1217 48.2403Z" fill="#FD4525"/>
</svg>
