<svg width="150" height="150" viewBox="0 0 150 150" fill="none" xmlns="http://www.w3.org/2000/svg">
<path d="M78 44.5L80.5 44L83.5 46L100.5 63L104.5 74L101 77H97.5L92.5 75.5L91 73L88 74.5L80 71L77.5 71.5H74.5L60 117.5H59L57 117L71.5 70.5L70 69.5L67.5 67.5L57.5 63L52.5 63.5L48.5 62L46.5 60L44.5 57.5L50.5 49.5L78 44.5Z" fill="#FAF4F4"/>
<path d="M98.5 88L94.5 88.5L93.5 87L91 83L90 82L88.5 85L87.5 89.5L83 90.5L80.5 91.5L80 92L81 93.5L86.5 96.5L85.5 101.5L86 104.5H86.5L88.5 103.5L92.5 100L95 101L99.5 102.5L100.5 102L100 100L97.5 95L98 94.5L101.5 90.5L102.5 88.5L98.5 88Z" fill="#FAF4F4"/>
<path d="M71.7024 70.3408L57.1924 116.713" stroke="#FD4525" stroke-width="0.608006" stroke-linecap="round" stroke-linejoin="round"/>
<path d="M74.2669 71.1436L59.7568 117.516" stroke="#FD4525" stroke-width="0.608006" stroke-linecap="round" stroke-linejoin="round"/>
<path d="M79.9723 70.6055C79.6075 71.7729 76.461 71.8245 72.9468 70.724C69.4325 69.6236 66.8789 67.7874 67.2437 66.623" stroke="#FD4525" stroke-width="0.608006" stroke-linecap="round" stroke-linejoin="round"/>
<path d="M67.1816 66.6777C66.7651 67.8269 63.8801 67.8603 60.7337 66.7507C57.5872 65.6411 55.3741 63.811 55.7906 62.6618C59.2927 56.6578 71.9179 45.9447 81.0867 44.2119C75.8092 47.6623 69.6288 60.5399 67.1785 66.6777H67.1816Z" fill="#FD4525" stroke="#FD4525" stroke-width="0.608006" stroke-linecap="round" stroke-linejoin="round"/>
<path d="M46.0615 58.5635C45.5659 59.6822 47.3413 61.5062 50.0257 62.6402C52.71 63.7741 55.288 63.7862 55.7835 62.6675" stroke="#FD4525" stroke-width="0.608006" stroke-linecap="round" stroke-linejoin="round"/>
<path d="M46.0611 58.5637C45.2343 59.4848 43.2917 59.2173 41.72 57.9648C40.1483 56.7123 39.5433 54.9491 40.3702 54.0249C50.8887 46.8474 75.0144 43.0321 81.0884 44.2117C69.2231 44.6069 51.3082 52.742 46.0611 58.5637Z" fill="#FD4525" stroke="#FD4525" stroke-width="0.608006" stroke-linecap="round" stroke-linejoin="round"/>
<path d="M47.7871 117.558C47.9786 117.111 49.0031 115.746 52.2316 115.54C55.5696 115.324 57.0592 117.455 60.5735 117.567C62.4674 117.628 63.7989 117.239 63.8962 116.984" stroke="#FD4525" stroke-width="0.608006" stroke-linecap="round" stroke-linejoin="round"/>
<path d="M79.9936 70.6174C79.6926 71.8 82.0608 73.4507 85.2862 74.2989C88.5117 75.147 91.3724 74.8765 91.6733 73.6939C92.1476 66.7596 87.7213 50.8055 81.1092 44.2178C83.5382 50.0364 81.4133 64.1634 79.9936 70.6174Z" fill="#FD4525" stroke="#FD4525" stroke-width="0.608006" stroke-linecap="round" stroke-linejoin="round"/>
<path d="M102.019 75.7674C101.8 76.9713 99.3072 77.482 96.4496 76.9135C93.592 76.342 91.4518 74.904 91.6707 73.7002" stroke="#FD4525" stroke-width="0.608006" stroke-linecap="round" stroke-linejoin="round"/>
<path d="M102.023 75.7702C102.187 76.9984 103.947 77.8679 105.951 77.7128C107.954 77.5578 109.444 76.439 109.279 75.2139C104.613 63.3639 86.7953 46.6528 81.1074 44.2178C90.6987 51.2098 100.953 68.006 102.02 75.7702H102.023Z" fill="#FD4525" stroke="#FD4525" stroke-width="0.608006" stroke-linecap="round" stroke-linejoin="round"/>
<path d="M89.9547 82.0962C90.9427 81.9473 94.4843 88.6019 94.4843 88.6019C94.4843 88.6019 101.92 87.5652 102.413 88.5593C102.905 89.5504 97.6247 94.8795 97.6247 94.8795C97.6247 94.8795 101.145 101.534 100.117 102.407C99.0899 103.279 92.6268 99.8074 92.6268 99.8074C92.6268 99.8074 87.4618 104.82 86.2397 104.504C85.0177 104.188 86.3978 96.5789 86.3978 96.5789C86.3978 96.5789 79.8253 93.1072 79.959 91.955C80.0928 90.8029 87.547 89.6568 87.547 89.6568C87.547 89.6568 88.9666 82.2513 89.9547 82.1023V82.0962Z" stroke="#FD4525" stroke-width="0.608006" stroke-linecap="round" stroke-linejoin="round"/>
<path d="M91.73 93.8998L91.0977 89.7197" stroke="#FD4525" stroke-width="0.608006" stroke-linecap="round" stroke-linejoin="round"/>
<path d="M91.7305 93.8992L87.5596 93.2061" stroke="#FD4525" stroke-width="0.608006" stroke-linecap="round" stroke-linejoin="round"/>
<path d="M91.7347 93.8994L89.7891 97.6508" stroke="#FD4525" stroke-width="0.608006" stroke-linecap="round" stroke-linejoin="round"/>
<path d="M91.7295 93.8994L94.6966 96.909" stroke="#FD4525" stroke-width="0.608006" stroke-linecap="round" stroke-linejoin="round"/>
<path d="M91.7295 93.8998L95.5113 92.0059" stroke="#FD4525" stroke-width="0.608006" stroke-linecap="round" stroke-linejoin="round"/>
<path d="M72.6034 76.6182C72.5061 76.9738 71.9893 77.3599 71.3022 77.5484C70.4693 77.7795 69.7062 77.6366 69.5938 77.2292" stroke="#FD4525" stroke-width="0.608006" stroke-miterlimit="10" stroke-linecap="round"/>
<path d="M70.1405 84.4551C70.0432 84.8108 69.5264 85.1968 68.8394 85.3853C68.0064 85.6164 67.2433 85.4735 67.1309 85.0661" stroke="#FD4525" stroke-width="0.608006" stroke-miterlimit="10" stroke-linecap="round"/>
<path d="M67.6776 92.29C67.5803 92.6457 67.0635 93.0318 66.3765 93.2203C65.5435 93.4513 64.7804 93.3084 64.668 92.9011" stroke="#FD4525" stroke-width="0.608006" stroke-miterlimit="10" stroke-linecap="round"/>
<path d="M65.2176 100.127C65.1204 100.483 64.6036 100.869 63.9165 101.057C63.0835 101.288 62.3205 101.145 62.208 100.738" stroke="#FD4525" stroke-width="0.608006" stroke-miterlimit="10" stroke-linecap="round"/>
<path d="M62.7508 107.961C62.6536 108.317 62.1368 108.703 61.4497 108.891C60.6167 109.122 59.8537 108.979 59.7412 108.572" stroke="#FD4525" stroke-width="0.608006" stroke-miterlimit="10" stroke-linecap="round"/>
</svg>
