<svg width="200" height="200" viewBox="0 0 200 200" fill="none" xmlns="http://www.w3.org/2000/svg">
<ellipse cx="105.5" cy="158.5" rx="9.5" ry="2.5" fill="#FAF4F4"/>
<ellipse cx="67" cy="91.5" rx="7" ry="2.5" fill="#FAF4F4"/>
<path d="M66.3456 78.7523C65.851 78.6074 65.3404 78.5348 64.8431 78.5387C64.3458 78.5426 63.8714 78.6228 63.4471 78.7749C63.0228 78.9269 62.6569 79.1478 62.3701 79.4249C62.0834 79.702 61.8816 80.0299 61.7761 80.3899C61.6707 80.7498 61.6637 81.1348 61.7556 81.5228C61.8474 81.9108 62.0363 82.2942 62.3115 82.6512C62.5867 83.0082 62.9427 83.3318 63.3594 83.6034C63.776 83.875 64.245 84.0894 64.7396 84.2343L65.5426 81.4933L66.3456 78.7523Z" fill="#FAF4F4"/>
<circle cx="64" cy="43" r="11" fill="#FAF4F4"/>
<path d="M134.382 105.181C137.697 105.181 140.385 104.349 140.385 103.323C140.385 102.297 137.697 101.465 134.382 101.465C131.066 101.465 128.378 102.297 128.378 103.323C128.378 104.349 131.066 105.181 134.382 105.181Z" fill="#FAF4F4" stroke="#FD4525" stroke-width="0.635395" stroke-miterlimit="10"/>
<path d="M129.672 55.1016C129.747 55.6875 129.857 56.5308 129.995 57.589M134.285 105.204C134.752 101.118 134.587 90.1697 133.959 85.9837C133.866 85.3633 133.773 84.7421 133.681 84.1211M133.224 81.0122C133.207 80.8911 133.189 80.77 133.172 80.6491M133.063 79.9008C133.05 79.8087 133.036 79.7166 133.023 79.6246M132.587 76.5827C132.568 76.4524 132.55 76.3224 132.532 76.1926M132.423 75.4247C132.411 75.3383 132.398 75.252 132.386 75.1657M131.956 72.0994C131.939 71.9775 131.922 71.856 131.905 71.7348M131.8 70.9771C131.787 70.8848 131.774 70.7927 131.762 70.7009M131.338 67.6179C131.321 67.4993 131.305 67.3813 131.289 67.2637M131.186 66.5076C131.174 66.4145 131.161 66.3218 131.148 66.2295M130.734 63.1582C130.718 63.0404 130.702 62.9234 130.687 62.8074M130.585 62.0478C130.573 61.9602 130.562 61.8733 130.55 61.7869M130.144 58.724C130.127 58.5919 130.11 58.4622 130.093 58.335" stroke="#FD4525" stroke-width="0.635395" stroke-miterlimit="10" stroke-linecap="round"/>
<path d="M143.155 145.77C143.155 140.219 141.77 134.114 140.384 131.46V103.323C140.384 104.35 137.697 105.182 134.381 105.182C131.064 105.182 128.377 104.35 128.377 103.326V131.46C126.992 134.114 125.606 140.219 125.606 145.77V182.489C125.606 183.747 129.534 184.769 134.381 184.769C139.228 184.769 143.155 183.747 143.155 182.489V145.77Z" fill="#FD4525" stroke="#FD4525" stroke-width="0.635395" stroke-miterlimit="10"/>
<path d="M112.137 136.814C111.924 136.711 111.732 136.583 111.559 136.438L113.151 131.368C113.651 131.325 114.168 131.409 114.652 131.645C116.08 132.34 116.674 134.059 115.979 135.487C115.284 136.915 113.564 137.509 112.137 136.814Z" fill="#FAF4F4" stroke="#FD4525" stroke-width="0.635395" stroke-miterlimit="10"/>
<path d="M117.574 99.425C118.06 99.5679 118.587 99.5874 119.112 99.4488C120.648 99.0433 121.563 97.4709 121.157 95.9356C120.752 94.4002 119.18 93.4848 117.644 93.8903C117.363 93.9646 117.103 94.079 116.867 94.2246C116.885 95.4751 117.045 97.2312 117.574 99.4275L117.574 99.425Z" fill="#FD4525" stroke="#FD4525" stroke-width="0.635395" stroke-miterlimit="10"/>
<path d="M61.5054 80.8981C61.6685 79.3185 63.0803 78.1709 64.6599 78.334C65.174 78.3871 65.6386 78.5746 66.0312 78.8559C65.659 80.5222 64.9147 83.8866 64.9147 84.0145C64.6427 84.0674 64.359 84.0825 64.0694 84.0526C62.4898 83.8895 61.3422 82.4777 61.5054 80.8981Z" stroke="#FD4525" stroke-width="0.635395" stroke-miterlimit="10"/>
<path d="M105.38 159.912C110.397 159.912 114.464 159.066 114.464 158.022C114.464 156.979 110.397 156.133 105.38 156.133C100.364 156.133 96.2969 156.979 96.2969 158.022C96.2969 159.066 100.364 159.912 105.38 159.912Z" stroke="#FD4525" stroke-width="0.635395" stroke-miterlimit="10"/>
<path d="M109.154 159.7C108.742 133.017 116.2 128.111 117.848 115.294C119.844 99.768 112.897 84.6853 111.873 71.9658C111.103 62.4017 113.74 51.1873 116.425 45.3506" stroke="#FD4525" stroke-width="0.635395" stroke-miterlimit="10" stroke-linecap="round"/>
<path d="M103.222 78.6562C103.222 78.6562 107.45 85.094 107.029 95.4459C106.608 105.798 103.279 108.394 103.661 121.761C104.043 135.128 107.559 146.037 107.029 157.32C106.991 158.143 106.932 158.983 106.858 159.833" stroke="#FD4525" stroke-width="0.635395" stroke-miterlimit="10" stroke-linecap="round"/>
<path d="M107.03 69.5848C106.955 67.0482 105.564 64.8624 103.534 63.6539C103.274 59.8463 100.049 56.8938 96.1998 57.0082C95.0043 57.0446 93.8893 57.372 92.9147 57.9204C91.9089 57.4318 90.7757 57.1693 89.5801 57.2031C85.7388 57.3175 82.698 60.4441 82.6512 64.2516C80.6759 65.5745 79.4024 67.8513 79.4778 70.4009C79.5532 72.9505 81.0216 75.2507 83.1502 76.4332C83.4621 80.1888 86.6641 83.0867 90.4768 82.9749C91.6438 82.9411 92.7379 82.6267 93.697 82.0991C94.6846 82.5669 95.7944 82.8164 96.9613 82.7826C100.81 82.6682 103.854 79.5312 103.89 75.7133C105.847 74.3878 107.105 72.124 107.03 69.5874V69.5848Z" fill="#FAF4F4" stroke="#FD4525" stroke-width="0.635395" stroke-miterlimit="10"/>
<path d="M92.3245 65.7974C91.8958 65.0552 91.5882 63.7512 91.5441 62.2589C91.4751 59.9202 92.0798 58.0049 92.8948 57.9808C93.7097 57.9568 94.4263 59.8332 94.4953 62.1718C94.539 63.6522 94.3127 64.963 93.934 65.7318" stroke="#FD4525" stroke-width="0.635395" stroke-miterlimit="10"/>
<path d="M89.9213 67.2938C89.4508 66.5774 88.4218 65.7165 87.1055 65.0075C85.0456 63.8979 83.0623 63.5803 82.6757 64.2981C82.289 65.0159 83.6454 66.4972 85.7053 67.6068C87.0387 68.3251 88.3399 68.7115 89.1969 68.7" stroke="#FD4525" stroke-width="0.635395" stroke-miterlimit="10"/>
<path d="M89.2796 71.5339C88.4235 71.5715 87.1449 72.0342 85.8538 72.8313C83.8629 74.0604 82.5962 75.6191 83.0245 76.3129C83.4528 77.0066 85.4139 76.5726 87.4048 75.3435C88.6691 74.563 89.6414 73.6494 90.0729 72.9089" stroke="#FD4525" stroke-width="0.635395" stroke-miterlimit="10"/>
<path d="M94.1815 74.2139C94.6044 74.9593 94.9071 76.2537 94.9508 77.7331C95.0198 80.0718 94.4151 81.9871 93.6001 82.0112C92.7852 82.0352 92.0686 80.1588 91.9996 77.8202C91.9557 76.3317 92.1847 75.0147 92.5671 74.2476" stroke="#FD4525" stroke-width="0.635395" stroke-miterlimit="10"/>
<path d="M97.4201 71.2973C98.2763 71.3158 99.5284 71.6996 100.81 72.39C102.87 73.4996 104.226 74.981 103.84 75.6987C103.453 76.4165 101.47 76.0989 99.4098 74.9893C98.1188 74.2939 97.1042 73.4525 96.6217 72.7445" stroke="#FD4525" stroke-width="0.635395" stroke-miterlimit="10"/>
<path d="M97.3086 68.4566C98.1632 68.3943 99.4017 67.936 100.652 67.1641C102.643 65.935 103.91 64.3762 103.481 63.6825C103.053 62.9887 101.092 63.4227 99.1011 64.6518C97.8533 65.4222 96.89 66.322 96.4502 67.0572" stroke="#FD4525" stroke-width="0.635395" stroke-miterlimit="10"/>
<path d="M93.2937 74.2936C95.6688 74.2936 97.5943 72.3682 97.5943 69.993C97.5943 67.6179 95.6688 65.6925 93.2937 65.6925C90.9186 65.6925 88.9932 67.6179 88.9932 69.993C88.9932 72.3682 90.9186 74.2936 93.2937 74.2936Z" fill="#FD4525" stroke="#FD4525" stroke-width="0.635395" stroke-miterlimit="10"/>
<path d="M131.533 22.535C132.703 20.7908 134.085 19.5301 135.357 18.6357" stroke="#FD4525" stroke-width="0.635395" stroke-miterlimit="10" stroke-linecap="round"/>
<path d="M115.31 43.0163C115.31 44.6096 116.602 45.9012 118.195 45.9012C119.361 45.9012 120.365 45.2096 120.82 44.2143C118.675 43.393 117.423 42.697 116.023 41.1172C115.579 41.6247 115.31 42.2891 115.31 43.0163Z" fill="#FD4525" stroke="#FD4525" stroke-width="0.635395" stroke-miterlimit="10"/>
<path d="M137.535 19.9277C138.896 19.9277 139.999 18.8246 139.999 17.4639C139.999 16.1031 138.896 15 137.535 15C136.175 15 135.072 16.1031 135.072 17.4639C135.072 18.8246 136.175 19.9277 137.535 19.9277Z" fill="#FAF4F4" stroke="#FD4525" stroke-width="0.635395" stroke-miterlimit="10"/>
<path d="M131.4 22.7653C132.595 21.9726 134.194 21.9128 135.472 22.7471V22.7445C136.539 23.4395 137.129 24.5898 137.155 25.7722L134.844 25.3335L132.389 25.4627L130.452 26.1086L128.256 27.5296L128.643 25.9794V23.5251L127.997 21.329L127.222 19.7789L126.336 18.7096C127.426 18.2602 128.711 18.3379 129.773 19.0305C131.051 19.8648 131.644 21.3514 131.4 22.7653Z" fill="#FD4525" stroke="#FD4525" stroke-width="0.258356" stroke-miterlimit="10"/>
<path d="M140.301 27.0904C140.301 27.0904 133.328 22.7552 128.293 27.527C130.627 20.9957 123.846 16.3643 123.846 16.3643L115.187 29.6504H115.192C112.416 34.1727 113.729 40.1036 118.196 43.0171C122.664 45.9306 128.621 44.7351 131.633 40.3739H131.638L140.298 27.093L140.301 27.0904Z" fill="#FAF4F4" stroke="#FD4525" stroke-width="0.635395" stroke-miterlimit="10"/>
<path d="M90.0205 111.614C90.4545 111.877 90.9587 112.03 91.5019 112.03C93.0899 112.03 94.3765 110.744 94.3765 109.156C94.3765 107.568 93.0899 106.281 91.5019 106.281C91.2109 106.281 90.9302 106.325 90.6651 106.406C90.3636 107.62 90.0699 109.358 90.0205 111.617V111.614Z" fill="#FD4525" stroke="#FD4525" stroke-width="0.635395" stroke-miterlimit="10"/>
<path d="M91.3681 104.309C91.3681 104.309 89.7385 107.524 90.0556 113.894C90.3727 120.264 101.603 144.157 103.22 150.857C103.926 153.785 105.006 156.366 105.322 159.832" stroke="#FD4525" stroke-width="0.635395" stroke-miterlimit="10" stroke-linecap="round"/>
<path d="M99.9817 90.3778C99.9817 88.885 98.7715 87.6748 97.2787 87.6748C95.886 87.6748 94.7393 88.7282 94.5918 90.0817L99.8723 91.1414C99.9435 90.8992 99.9817 90.643 99.9817 90.3778Z" fill="#FAF4F4" stroke="#FD4525" stroke-width="0.635395" stroke-miterlimit="10"/>
<path d="M95.8011 105.681C100.14 105.681 103.658 102.164 103.658 97.8246C103.658 93.4854 100.14 89.9678 95.8011 89.9678C91.4619 89.9678 87.9443 93.4854 87.9443 97.8246C87.9443 102.164 91.4619 105.681 95.8011 105.681Z" fill="#FAF4F4" stroke="#FD4525" stroke-width="0.635395" stroke-miterlimit="10"/>
<path d="M114.413 157.82C114.447 157.885 114.465 157.953 114.465 158.02C114.465 159.062 110.397 159.91 105.381 159.91C100.365 159.91 96.2978 159.065 96.2978 158.02C96.2978 157.953 96.316 157.885 96.3498 157.82C94.1433 160.689 90.0576 169.739 90.0576 181.011C90.0576 182.96 96.0561 185.489 105.381 185.489C114.707 185.489 120.705 182.96 120.705 181.011C120.705 169.539 116.62 160.681 114.413 157.817V157.82Z" fill="#FD4525" stroke="#FD4525" stroke-width="0.635395" stroke-miterlimit="10"/>
<path d="M108.168 86.532C107.678 86.7658 107.157 86.8444 106.652 86.7943L104.992 81.8156C105.197 81.6288 105.431 81.4681 105.694 81.3428C107.127 80.6593 108.842 81.2668 109.526 82.7002C110.209 84.1335 109.602 85.8485 108.168 86.532Z" fill="#FAF4F4"/>
<path d="M106.652 86.7943C107.157 86.8444 107.678 86.7658 108.168 86.532C109.602 85.8485 110.209 84.1335 109.526 82.7002C108.842 81.2668 107.127 80.6593 105.694 81.3428C105.431 81.4681 105.197 81.6288 104.992 81.8156L106.652 86.7943ZM106.652 86.7943L106.653 86.7967" stroke="#FD4525" stroke-width="0.635395" stroke-miterlimit="10"/>
<path d="M66.5212 92.8113C70.058 92.8113 72.9251 91.9793 72.9251 90.953C72.9251 89.9267 70.058 89.0947 66.5212 89.0947C62.9843 89.0947 60.1172 89.9267 60.1172 90.953C60.1172 91.9793 62.9843 92.8113 66.5212 92.8113Z" stroke="#FD4525" stroke-width="0.635395" stroke-miterlimit="10"/>
<path fill-rule="evenodd" clip-rule="evenodd" d="M49.0684 105.817C49.0684 96.1769 56.881 88.3643 66.5208 88.3643C76.1605 88.3643 83.9731 96.1769 83.9731 105.817C83.9731 112.419 80.3082 118.164 74.9013 121.129C80.3079 124.095 83.9731 129.84 83.9731 136.442C83.9731 143.043 80.3085 148.788 74.9027 151.753C80.3085 154.719 83.9731 160.464 83.9731 167.065C83.9731 176.703 76.1595 184.517 66.5208 184.517C56.8821 184.517 49.0684 176.703 49.0684 167.065C49.0684 160.464 52.7331 154.719 58.1389 151.753C52.7331 148.788 49.0684 143.043 49.0684 136.442C49.0684 129.84 52.7337 124.095 58.1402 121.129C52.7334 118.164 49.0684 112.419 49.0684 105.817ZM60.1168 90.9503C60.1168 91.9769 62.9835 92.8086 66.5208 92.8086C70.058 92.8086 72.9247 91.9769 72.9247 90.9503C72.9247 89.9237 70.058 89.092 66.5208 89.092C62.9835 89.092 60.1168 89.9237 60.1168 90.9503Z" fill="#FD4525"/>
<path d="M74.9013 121.129L74.7486 121.408L74.2407 121.129L74.7486 120.851L74.9013 121.129ZM74.9027 151.753L74.7499 152.032L74.2421 151.753L74.7499 151.475L74.9027 151.753ZM58.1389 151.753L58.2917 151.475L58.7994 151.753L58.2917 152.032L58.1389 151.753ZM58.1402 121.129L58.293 120.851L58.8009 121.129L58.293 121.408L58.1402 121.129ZM66.5208 88.682C57.0565 88.682 49.3861 96.3523 49.3861 105.817H48.7507C48.7507 96.0014 56.7056 88.0466 66.5208 88.0466V88.682ZM83.6554 105.817C83.6554 96.3523 75.9851 88.682 66.5208 88.682V88.0466C76.336 88.0466 84.2908 96.0014 84.2908 105.817H83.6554ZM74.7486 120.851C80.0578 117.939 83.6554 112.298 83.6554 105.817H84.2908C84.2908 112.54 80.5586 118.389 75.0541 121.408L74.7486 120.851ZM83.6554 136.442C83.6554 129.961 80.0575 124.32 74.7486 121.408L75.0541 120.851C80.5583 123.87 84.2908 129.72 84.2908 136.442H83.6554ZM74.7499 151.475C80.0581 148.563 83.6554 142.922 83.6554 136.442H84.2908C84.2908 143.163 80.5589 149.013 75.0555 152.032L74.7499 151.475ZM83.6554 167.065C83.6554 160.584 80.0581 154.944 74.7499 152.032L75.0555 151.475C80.5589 154.494 84.2908 160.343 84.2908 167.065H83.6554ZM66.5208 184.199C75.984 184.199 83.6554 176.528 83.6554 167.065H84.2908C84.2908 176.879 76.3349 184.835 66.5208 184.835V184.199ZM49.3861 167.065C49.3861 176.528 57.0576 184.199 66.5208 184.199V184.835C56.7066 184.835 48.7507 176.879 48.7507 167.065H49.3861ZM58.2917 152.032C52.9835 154.944 49.3861 160.584 49.3861 167.065H48.7507C48.7507 160.343 52.4827 154.494 57.9861 151.475L58.2917 152.032ZM49.3861 136.442C49.3861 142.922 52.9835 148.563 58.2917 151.475L57.9861 152.032C52.4827 149.013 48.7507 143.163 48.7507 136.442H49.3861ZM58.293 121.408C52.9841 124.32 49.3861 129.961 49.3861 136.442H48.7507C48.7507 129.72 52.4833 123.87 57.9874 120.851L58.293 121.408ZM49.3861 105.817C49.3861 112.298 52.9838 117.939 58.293 120.851L57.9874 121.408C52.483 118.389 48.7507 112.54 48.7507 105.817H49.3861ZM66.5208 93.1263C64.7309 93.1263 63.0987 92.9162 61.9038 92.5695C61.3084 92.3968 60.8035 92.185 60.4403 91.9357C60.0871 91.6933 59.7991 91.3658 59.7991 90.9503H60.4345C60.4345 91.0481 60.5049 91.2095 60.7997 91.4118C61.0845 91.6072 61.5174 91.7958 62.0809 91.9593C63.2036 92.2851 64.7734 92.4909 66.5208 92.4909V93.1263ZM73.2424 90.9503C73.2424 91.3658 72.9545 91.6933 72.6013 91.9357C72.238 92.185 71.7331 92.3968 71.1378 92.5695C69.9428 92.9162 68.3106 93.1263 66.5208 93.1263V92.4909C68.2682 92.4909 69.838 92.2851 70.9607 91.9593C71.5242 91.7958 71.957 91.6072 72.2418 91.4118C72.5367 91.2095 72.607 91.0481 72.607 90.9503H73.2424ZM66.5208 88.7743C68.3106 88.7743 69.9428 88.9843 71.1378 89.331C71.7331 89.5038 72.238 89.7156 72.6013 89.9649C72.9545 90.2072 73.2424 90.5347 73.2424 90.9503H72.607C72.607 90.8525 72.5367 90.6911 72.2418 90.4888C71.957 90.2934 71.5242 90.1048 70.9607 89.9413C69.838 89.6155 68.2682 89.4097 66.5208 89.4097V88.7743ZM59.7991 90.9503C59.7991 90.5347 60.0871 90.2072 60.4403 89.9649C60.8035 89.7156 61.3084 89.5038 61.9038 89.331C63.0987 88.9843 64.7309 88.7743 66.5208 88.7743V89.4097C64.7734 89.4097 63.2036 89.6155 62.0809 89.9413C61.5174 90.1048 61.0845 90.2934 60.7997 90.4888C60.5049 90.6911 60.4345 90.8525 60.4345 90.9503H59.7991Z" fill="#FD4525"/>
<path d="M64.4717 92.6756C64.4717 85.8013 65.5482 81.1666 66.3467 78.3857C67.6758 73.7568 69.4721 70.0871 71.291 66.2996M72.5336 50.2529C74.318 52.9295 74.6712 57.2898 73.3788 61.4751" stroke="#FD4525" stroke-width="0.635395" stroke-miterlimit="10" stroke-linecap="round"/>
<path d="M72.2414 66.4828C73.6929 66.4828 74.8695 65.3062 74.8695 63.8547C74.8695 62.4032 73.6929 61.2266 72.2414 61.2266C70.7899 61.2266 69.6133 62.4032 69.6133 63.8547C69.6133 65.3062 70.7899 66.4828 72.2414 66.4828Z" fill="#FD4525" stroke="#FD4525" stroke-width="0.635395" stroke-miterlimit="10"/>
<path d="M63.9695 54.1383C70.0068 54.1383 74.901 49.2441 74.901 43.2068C74.901 37.1696 70.0068 32.2754 63.9695 32.2754C57.9323 32.2754 53.0381 37.1696 53.0381 43.2068C53.0381 49.2441 57.9323 54.1383 63.9695 54.1383Z" stroke="#FD4525" stroke-width="0.635395" stroke-miterlimit="10"/>
<path d="M64.0672 38.2061C63.2225 37.98 62.163 37.6047 61.3989 37.2902C60.7361 38.1765 59.9642 39.0419 59.0884 39.8606C58.8754 40.0595 58.66 40.2521 58.4426 40.4383" stroke="#FD4525" stroke-width="0.635395" stroke-miterlimit="10"/>
<path d="M74.9017 43.2042C74.9017 37.7306 70.881 33.198 65.631 32.3975V32.4001C65.6154 32.4157 65.5998 32.4312 65.5842 32.4468C63.6476 34.5979 63.5034 37.8934 64.8773 41.1132" stroke="#FD4525" stroke-width="0.635395" stroke-miterlimit="10"/>
<path d="M130.566 61.7518C129.732 61.8836 128.949 61.3147 128.817 60.481C128.686 59.6473 129.255 58.8647 130.088 58.7328C130.922 58.601 131.705 59.17 131.836 60.0036C131.968 60.8373 131.399 61.6199 130.566 61.7518Z" fill="#FD4525"/>
<path d="M131.182 66.2137C130.348 66.3455 129.565 65.7766 129.434 64.9429C129.302 64.1093 129.871 63.3266 130.704 63.1948C131.538 63.0629 132.321 63.6319 132.453 64.4655C132.584 65.2992 132.015 66.0819 131.182 66.2137Z" fill="#FD4525"/>
<path d="M131.8 70.6785C130.966 70.8104 130.184 70.2414 130.052 69.4078C129.92 68.5741 130.489 67.7914 131.323 67.6596C132.156 67.5278 132.939 68.0967 133.071 68.9304C133.203 69.764 132.634 70.5467 131.8 70.6785Z" fill="#FD4525"/>
<path d="M132.418 75.1414C131.584 75.2732 130.802 74.7043 130.67 73.8706C130.538 73.037 131.107 72.2543 131.941 72.1225C132.774 71.9907 133.557 72.5596 133.689 73.3933C133.821 74.2269 133.252 75.0096 132.418 75.1414Z" fill="#FD4525"/>
<path d="M133.036 79.6043C132.203 79.7361 131.42 79.1672 131.288 78.3335C131.156 77.4999 131.725 76.7172 132.559 76.5854C133.393 76.4535 134.175 77.0225 134.307 77.8561C134.439 78.6898 133.87 79.4725 133.036 79.6043Z" fill="#FD4525"/>
<path d="M133.655 84.0682C132.822 84.2 132.039 83.6311 131.907 82.7974C131.775 81.9638 132.344 81.1811 133.178 81.0492C134.012 80.9174 134.794 81.4864 134.926 82.32C135.058 83.1537 134.489 83.9363 133.655 84.0682Z" fill="#FD4525"/>
<path d="M135.645 59.0241L133.464 59.3691C132.769 59.479 131.989 58.5596 131.629 58.0757L128.498 58.5707C128.305 59.1421 127.847 60.2573 127.152 60.3672L124.97 60.7122C123.945 60.8743 122.982 60.1738 122.82 59.1489C122.658 58.124 123.358 57.1603 124.383 56.9982L126.565 56.6532C127.222 56.5493 127.957 57.3666 128.34 57.8651L131.564 57.3552C131.772 56.7632 132.219 55.759 132.879 55.6547L135.061 55.3097C136.086 55.1477 137.049 55.8482 137.211 56.8731C137.373 57.898 136.673 58.8616 135.648 59.0237L135.645 59.0241Z" fill="#FAF4F4" stroke="#FD4525" stroke-width="0.635394" stroke-miterlimit="10"/>
<path d="M136.265 63.487L134.083 63.832C133.388 63.9419 132.608 63.0225 132.248 62.5386L129.117 63.0336C128.924 63.605 128.466 64.7202 127.771 64.8301L125.589 65.1751C124.565 65.3372 123.601 64.6367 123.439 63.6118C123.277 62.5869 123.977 61.6232 125.002 61.4611L127.184 61.1161C127.841 61.0122 128.576 61.8295 128.959 62.328L132.183 61.8181C132.391 61.2261 132.838 60.2219 133.498 60.1176L135.68 59.7726C136.705 59.6106 137.668 60.3111 137.83 61.336C137.992 62.3609 137.292 63.3245 136.267 63.4866L136.265 63.487Z" fill="#FAF4F4" stroke="#FD4525" stroke-width="0.635394" stroke-miterlimit="10"/>
<path d="M136.883 67.9509L134.701 68.2959C134.006 68.4058 133.226 67.4864 132.866 67.0024L129.736 67.4975C129.543 68.0689 129.084 69.184 128.389 69.294L126.208 69.639C125.183 69.801 124.219 69.1005 124.057 68.0756C123.895 67.0507 124.595 66.0871 125.62 65.925L127.802 65.58C128.459 65.4761 129.194 66.2934 129.577 66.7918L132.802 66.282C133.01 65.69 133.457 64.6858 134.116 64.5815L136.298 64.2365C137.323 64.0744 138.287 64.7749 138.449 65.7998C138.611 66.8247 137.91 67.7884 136.885 67.9505L136.883 67.9509Z" fill="#FAF4F4" stroke="#FD4525" stroke-width="0.635394" stroke-miterlimit="10"/>
<path d="M138.737 81.3386L136.555 81.6836C135.86 81.7935 135.081 80.8741 134.721 80.3901L131.59 80.8852C131.397 81.4566 130.939 82.5717 130.244 82.6817L128.062 83.0267C127.037 83.1887 126.073 82.4882 125.911 81.4633C125.749 80.4384 126.45 79.4748 127.475 79.3127L129.656 78.9677C130.314 78.8638 131.049 79.681 131.432 80.1795L134.656 79.6697C134.864 79.0777 135.311 78.0735 135.971 77.9692L138.152 77.6242C139.177 77.4621 140.141 78.1626 140.303 79.1875C140.465 80.2124 139.765 81.1761 138.74 81.3382L138.737 81.3386Z" fill="#FAF4F4" stroke="#FD4525" stroke-width="0.635394" stroke-miterlimit="10"/>
<path d="M138.119 76.8766L135.937 77.2216C135.242 77.3316 134.462 76.4122 134.102 75.9282L130.972 76.4233C130.779 76.9947 130.321 78.1098 129.626 78.2197L127.444 78.5647C126.419 78.7268 125.455 78.0263 125.293 77.0014C125.131 75.9765 125.832 75.0128 126.857 74.8508L129.038 74.5058C129.695 74.4019 130.43 75.2191 130.814 75.7176L134.038 75.2077C134.246 74.6158 134.693 73.6116 135.353 73.5073L137.534 73.1623C138.559 73.0002 139.523 73.7007 139.685 74.7256C139.847 75.7505 139.146 76.7142 138.122 76.8762L138.119 76.8766Z" fill="#FAF4F4" stroke="#FD4525" stroke-width="0.635394" stroke-miterlimit="10"/>
<path d="M137.502 72.4138L135.32 72.7588C134.625 72.8687 133.845 71.9493 133.485 71.4653L130.355 71.9604C130.162 72.5318 129.704 73.6469 129.008 73.7569L126.827 74.1019C125.802 74.2639 124.838 73.5634 124.676 72.5385C124.514 71.5136 125.215 70.55 126.239 70.3879L128.421 70.0429C129.078 69.939 129.813 70.7562 130.196 71.2547L133.421 70.7449C133.629 70.1529 134.076 69.1487 134.735 69.0444L136.917 68.6994C137.942 68.5373 138.906 69.2378 139.068 70.2627C139.23 71.2876 138.529 72.2513 137.504 72.4134L137.502 72.4138Z" fill="#FAF4F4" stroke="#FD4525" stroke-width="0.635394" stroke-miterlimit="10"/>
<path d="M128.636 48.5066C129.808 48.3213 130.909 49.1217 131.094 50.2936L131.489 52.7863C131.659 53.8605 129.681 55.1162 129.681 55.1162C129.681 55.1162 127.413 54.5319 127.243 53.4577L126.849 50.9649C126.664 49.7931 127.464 48.6919 128.636 48.5066Z" fill="#FAF4F4" stroke="#FD4525" stroke-width="0.635395" stroke-miterlimit="10"/>
<path d="M59.835 47.1957C59.8307 42.1546 57.8841 37.9926 55.0625 36.9463" stroke="#FD4525" stroke-width="0.635395" stroke-miterlimit="10"/>
<path d="M74.8984 43.2059V43.2085C74.8984 42.9434 74.8854 42.6809 74.8672 42.4184C70.5061 39.6973 65.5472 39.6011 62.9586 42.4756C61.8227 43.7377 61.3038 45.3933 61.3461 47.1962" stroke="#FD4525" stroke-width="0.635395" stroke-miterlimit="10"/>
<path d="M68.8756 52.9755C66.2481 49.0961 62.7378 46.7803 59.917 47.1657" stroke="#FD4525" stroke-width="0.635395" stroke-miterlimit="10"/>
<path fill-rule="evenodd" clip-rule="evenodd" d="M61.4676 37.4775L58.7549 40.4486L59.7883 44.0656L59.5299 45.7449V47.5534L60.305 47.4242L61.2093 47.1659L61.4676 45.099L61.7644 44.4312L61.0779 44.2362C60.9467 44.3435 60.779 44.4078 60.5962 44.4078C60.1757 44.4078 59.8347 44.0669 59.8347 43.6463C59.8347 43.2257 60.1757 42.8848 60.5962 42.8848C61.0168 42.8848 61.3578 43.2257 61.3578 43.6463L61.3577 43.6551L62.0251 43.8447L62.3509 43.1117L60.7483 42.2365C60.6087 42.3969 60.403 42.4984 60.1736 42.4984C59.753 42.4984 59.4121 42.1574 59.4121 41.7369C59.4121 41.3163 59.753 40.9753 60.1736 40.9753C60.5505 40.9753 60.8634 41.2491 60.9244 41.6086L62.7308 42.5951L64.274 41.3948L63.9125 41.5713L63.112 39.9313L63.1592 39.9083C63.1353 39.9105 63.1112 39.9117 63.0867 39.9117C62.6661 39.9117 62.3252 39.5708 62.3252 39.1502C62.3252 38.7296 62.6661 38.3887 63.0867 38.3887C63.5073 38.3887 63.8482 38.7296 63.8482 39.1502C63.8482 39.353 63.7689 39.5373 63.6397 39.6738L63.683 39.6526L64.462 41.2486L64.8262 40.9653L63.922 38.1234L61.4676 37.4775ZM61.8443 39.5242C61.8443 39.6371 61.8197 39.7443 61.7756 39.8407L63.5264 41.9429L63.0382 42.3495L61.2946 40.2559C61.2273 40.2753 61.1563 40.2857 61.0828 40.2857C60.6622 40.2857 60.3213 39.9448 60.3213 39.5242C60.3213 39.1036 60.6622 38.7627 61.0828 38.7627C61.5034 38.7627 61.8443 39.1036 61.8443 39.5242Z" fill="#FD4525"/>
</svg>
