<svg width="150" height="150" viewBox="0 0 150 150" fill="none" xmlns="http://www.w3.org/2000/svg">
<path d="M46.5 66.5L48.5 61.5L60.5 55.5L59 49L58 48L57.5 45.5C57.2597 44.0028 57.7484 43.4091 59 42.5C59.8012 41.7026 60 41 61.5 41C61.6199 39.6076 61.698 39.3357 62.5 38.5C63.5995 37.2463 64.2468 36.901 65.5 37C66.9584 36.6954 67.4786 37.0443 68.5 37.5L69.5 37C70.3864 36.2177 70.9408 36.0293 72 36L75 37L76 40L94.5 54.5L99 58.5C100.686 60.5444 101.589 61.7266 103 64C103.46 65.918 103.505 66.864 103.5 68.5L104 71.5L103.5 74L98 99L97 101.5L95.5 104L94 106.5L90 110L83.5 112L78 113.5H72.5L66.5 112L64 111.5L58.5 108.5C56.8929 107.304 56.1417 106.405 55 104.5C53.4186 103.184 53.1092 102.211 52.5 100.5L46.5 75C45.8558 71.6804 45.9651 69.8195 46.5 66.5Z" fill="#FAF4F4"/>
<path d="M75.0554 83.9078C89.1854 83.9078 100.64 76.9216 100.64 68.3036C100.64 59.6857 89.1854 52.6995 75.0554 52.6995C60.9253 52.6995 49.4707 59.6857 49.4707 68.3036C49.4707 76.9216 60.9253 83.9078 75.0554 83.9078Z" fill="#FD4525" stroke="#FD4525" stroke-width="0.670282" stroke-linecap="round" stroke-linejoin="round"/>
<path d="M81.0982 71.1153C85.5238 71.1153 89.1114 67.5277 89.1114 63.1021C89.1114 58.6765 85.5238 55.0889 81.0982 55.0889C76.6726 55.0889 73.085 58.6765 73.085 63.1021C73.085 67.5277 76.6726 71.1153 81.0982 71.1153Z" fill="#FAF4F4" stroke="#FD4525" stroke-width="0.670282" stroke-miterlimit="10"/>
<path d="M103.81 68.7223C104.886 73.8835 102.992 77.0271 99.1316 78.914C96.8493 83.3043 92.3751 85.9117 85.1294 86.1899C78.6578 89.0654 71.8678 89.0888 64.7796 86.1664C58.5594 85.9285 53.9478 83.4786 50.8712 78.914C47.2383 77.2416 45.3682 74.0779 46.1927 68.7223C46.1927 58.4201 59.0889 50.0684 75.0014 50.0684C90.9139 50.0684 103.81 58.4201 103.81 68.7223Z" stroke="#FD4525" stroke-width="0.670282" stroke-linecap="round" stroke-linejoin="round"/>
<path d="M98.392 97.7289C97.7754 101.137 96.4616 103.269 94.863 104.888C92.6444 108.892 88.5825 111.091 83.371 112.163C77.6636 114.275 72.0969 114.255 66.6676 112.14C61.2282 110.903 57.1864 108.671 55.2527 104.888C53.6105 103.534 52.4006 101.221 51.7236 97.7256" stroke="#FD4525" stroke-width="0.670282" stroke-linecap="round" stroke-linejoin="round"/>
<path d="M100.504 88.3549C99.8307 91.7633 98.3963 93.8948 96.6569 95.5135C94.2372 99.5185 89.8066 101.717 84.1226 102.789C77.8957 104.901 71.823 104.881 65.9044 102.766C64.1315 102.397 62.496 101.938 61.0146 101.375C57.5426 100.055 54.9318 98.1645 53.4539 95.5135C51.6609 94.1596 50.3438 91.8471 49.6064 88.3516" stroke="#FD4525" stroke-width="0.670282" stroke-linecap="round" stroke-linejoin="round"/>
<path d="M98.3926 97.7294L103.983 72.9893" stroke="#FD4525" stroke-width="0.670282" stroke-linecap="round" stroke-linejoin="round"/>
<path d="M99.1344 78.9141L94.8613 104.888" stroke="#FD4525" stroke-width="0.670282" stroke-linecap="round" stroke-linejoin="round"/>
<path d="M80.4634 58.0811C84.889 58.0811 88.4767 54.4935 88.4767 50.0679C88.4767 45.6423 84.889 42.0547 80.4634 42.0547C76.0378 42.0547 72.4502 45.6423 72.4502 50.0679C72.4502 54.4935 76.0378 58.0811 80.4634 58.0811Z" fill="#FAF4F4" stroke="#FD4525" stroke-width="0.670282" stroke-miterlimit="10"/>
<path d="M56.6939 68.1192C61.1195 68.1192 64.7071 64.5316 64.7071 60.106C64.7071 55.6804 61.1195 52.0928 56.6939 52.0928C52.2683 52.0928 48.6807 55.6804 48.6807 60.106C48.6807 64.5316 52.2683 68.1192 56.6939 68.1192Z" fill="#FAF4F4" stroke="#FD4525" stroke-width="0.670282" stroke-miterlimit="10"/>
<path d="M70.3968 75.4991C74.8224 75.4991 78.41 71.9115 78.41 67.4859C78.41 63.0603 74.8224 59.4727 70.3968 59.4727C65.9712 59.4727 62.3835 63.0603 62.3835 67.4859C62.3835 71.9115 65.9712 75.4991 70.3968 75.4991Z" fill="#FAF4F4" stroke="#FD4525" stroke-width="0.670282" stroke-miterlimit="10"/>
<path d="M89.1197 63.1026C93.5453 63.1026 97.1329 59.515 97.1329 55.0894C97.1329 50.6638 93.5453 47.0762 89.1197 47.0762C84.6941 47.0762 81.1064 50.6638 81.1064 55.0894C81.1064 59.515 84.6941 63.1026 89.1197 63.1026Z" fill="#FAF4F4" stroke="#FD4525" stroke-width="0.670282" stroke-miterlimit="10"/>
<path d="M64.7822 86.167L65.9887 102.797L66.6657 112.14" stroke="#FD4525" stroke-width="0.670282" stroke-linecap="round" stroke-linejoin="round"/>
<path d="M85.133 86.1904L83.3701 112.164" stroke="#FD4525" stroke-width="0.670282" stroke-linecap="round" stroke-linejoin="round"/>
<path d="M50.873 78.9141L53.7553 96.0197L55.25 104.888" stroke="#FD4525" stroke-width="0.670282" stroke-linecap="round" stroke-linejoin="round"/>
<path d="M51.7215 97.7294L46.1582 72.9893" stroke="#FD4525" stroke-width="0.670282" stroke-linecap="round" stroke-linejoin="round"/>
<path d="M62.2935 79.6181C66.7191 79.6181 70.3067 76.0304 70.3067 71.6048C70.3067 67.1793 66.7191 63.5916 62.2935 63.5916C57.8679 63.5916 54.2803 67.1793 54.2803 71.6048C54.2803 76.0304 57.8679 79.6181 62.2935 79.6181Z" fill="#FAF4F4" stroke="#FD4525" stroke-width="0.670282" stroke-miterlimit="10"/>
<path d="M90.8264 74.9393C95.252 74.9393 98.8397 71.3516 98.8397 66.9261C98.8397 62.5005 95.252 58.9128 90.8264 58.9128C86.4009 58.9128 82.8132 62.5005 82.8132 66.9261C82.8132 71.3516 86.4009 74.9393 90.8264 74.9393Z" fill="#FAF4F4" stroke="#FD4525" stroke-width="0.670282" stroke-miterlimit="10"/>
<path d="M59.3494 66.3633C57.0805 68.0289 56.0986 70.1604 56.3968 72.7611" stroke="#FD4525" stroke-width="0.670282" stroke-linecap="round" stroke-linejoin="round"/>
<path d="M53.5965 54.8848C51.3276 56.5504 50.3456 58.6819 50.6439 61.2826" stroke="#FD4525" stroke-width="0.670282" stroke-linecap="round" stroke-linejoin="round"/>
<path d="M87.7098 61.4434C85.4409 63.109 84.4589 65.2405 84.7572 67.8412" stroke="#FD4525" stroke-width="0.670282" stroke-linecap="round" stroke-linejoin="round"/>
<path d="M85.8221 50.0684C83.5532 51.734 82.5712 53.8655 82.8695 56.4662" stroke="#FD4525" stroke-width="0.670282" stroke-linecap="round" stroke-linejoin="round"/>
<path d="M75.0557 104.361V113.738" stroke="#FD4525" stroke-width="0.670282" stroke-linecap="round" stroke-linejoin="round"/>
<path d="M73.127 104.395L73.2644 113.648" stroke="#FD4525" stroke-width="0.670282" stroke-linecap="round" stroke-linejoin="round"/>
<path d="M71.1484 104.233L71.4199 113.45" stroke="#FD4525" stroke-width="0.670282" stroke-linecap="round" stroke-linejoin="round"/>
<path d="M69.2761 103.865L69.685 113.098" stroke="#FD4525" stroke-width="0.670282" stroke-linecap="round" stroke-linejoin="round"/>
<path d="M67.4746 103.279L68.098 112.65" stroke="#FD4525" stroke-width="0.670282" stroke-linecap="round" stroke-linejoin="round"/>
<path d="M64.4404 102.432L65.3688 111.836" stroke="#FD4525" stroke-width="0.670282" stroke-linecap="round" stroke-linejoin="round"/>
<path d="M62.8232 101.985L63.8689 111.399" stroke="#FD4525" stroke-width="0.670282" stroke-linecap="round" stroke-linejoin="round"/>
<path d="M61.0674 101.396L62.1599 110.739" stroke="#FD4525" stroke-width="0.670282" stroke-linecap="round" stroke-linejoin="round"/>
<path d="M59.4209 100.701L60.6576 110.042" stroke="#FD4525" stroke-width="0.670282" stroke-linecap="round" stroke-linejoin="round"/>
<path d="M57.5889 99.7197L58.8959 108.98" stroke="#FD4525" stroke-width="0.670282" stroke-linecap="round" stroke-linejoin="round"/>
<path d="M55.7656 98.3525L57.2168 107.579" stroke="#FD4525" stroke-width="0.670282" stroke-linecap="round" stroke-linejoin="round"/>
<path d="M52.0918 94.1826L53.8647 103.422" stroke="#FD4525" stroke-width="0.670282" stroke-linecap="round" stroke-linejoin="round"/>
<path d="M76.987 104.395L76.8496 113.648" stroke="#FD4525" stroke-width="0.670282" stroke-linecap="round" stroke-linejoin="round"/>
<path d="M78.9672 104.234L78.6924 113.451" stroke="#FD4525" stroke-width="0.670282" stroke-linecap="round" stroke-linejoin="round"/>
<path d="M80.8346 103.865L80.4258 113.098" stroke="#FD4525" stroke-width="0.670282" stroke-linecap="round" stroke-linejoin="round"/>
<path d="M82.6361 103.279L82.0127 112.65" stroke="#FD4525" stroke-width="0.670282" stroke-linecap="round" stroke-linejoin="round"/>
<path d="M85.6744 102.432L84.7461 111.836" stroke="#FD4525" stroke-width="0.670282" stroke-linecap="round" stroke-linejoin="round"/>
<path d="M87.2878 101.985L86.2422 111.399" stroke="#FD4525" stroke-width="0.670282" stroke-linecap="round" stroke-linejoin="round"/>
<path d="M89.0457 101.396L87.9531 110.739" stroke="#FD4525" stroke-width="0.670282" stroke-linecap="round" stroke-linejoin="round"/>
<path d="M90.6941 100.701L89.4541 110.042" stroke="#FD4525" stroke-width="0.670282" stroke-linecap="round" stroke-linejoin="round"/>
<path d="M92.5215 99.7197L91.2178 108.98" stroke="#FD4525" stroke-width="0.670282" stroke-linecap="round" stroke-linejoin="round"/>
<path d="M94.3457 98.3525L92.8945 107.579" stroke="#FD4525" stroke-width="0.670282" stroke-linecap="round" stroke-linejoin="round"/>
<path d="M98.0219 94.1826L96.249 103.422" stroke="#FD4525" stroke-width="0.670282" stroke-linecap="round" stroke-linejoin="round"/>
<path d="M80.4634 80.7735C84.889 80.7735 88.4767 77.1859 88.4767 72.7603C88.4767 68.3347 84.889 64.7471 80.4634 64.7471C76.0378 64.7471 72.4502 68.3347 72.4502 72.7603C72.4502 77.1859 76.0378 80.7735 80.4634 80.7735Z" fill="#FAF4F4" stroke="#FD4525" stroke-width="0.670282" stroke-miterlimit="10"/>
<path d="M77.1395 67.4863C74.8706 69.152 73.8886 71.2835 74.1869 73.8842" stroke="#FD4525" stroke-width="0.670282" stroke-linecap="round" stroke-linejoin="round"/>
<path d="M66.9512 43.3056C66.9512 43.3056 67.1087 41.3919 69.4647 40.2122C72.8094 38.5365 78.0276 39.552 81.1343 45.7521C85.4711 54.4021 81.4728 63.1359 77.8097 64.9691C74.1467 66.8057 64.7593 64.7848 60.4226 56.1348C57.3159 49.9347 59.6216 45.1455 62.9663 43.4698C65.3224 42.2901 66.9512 43.3056 66.9512 43.3056Z" fill="#FAF4F4" stroke="#FD4525" stroke-width="0.670282" stroke-miterlimit="10"/>
<path d="M76.234 40.4097C76.2407 39.7394 76.0932 39.0557 75.7715 38.4123C74.689 36.254 72.0648 35.3826 69.9065 36.4651C69.3468 36.7466 68.8743 37.1354 68.4989 37.5878C67.212 36.5857 65.4123 36.3444 63.8572 37.1253C62.3022 37.9062 61.4174 39.4914 61.4509 41.1236C60.8611 41.1537 60.2678 41.2978 59.7082 41.5794C57.5499 42.6619 56.6785 45.286 57.761 47.4443C58.0827 48.0844 58.5419 48.614 59.0815 49.0094" stroke="#FD4525" stroke-width="0.670282" stroke-linecap="round" stroke-linejoin="round"/>
<path d="M69.9902 49.3661C70.288 49.2168 70.1535 48.3459 69.6897 47.421C69.226 46.4961 68.6086 45.8674 68.3107 46.0167C68.0129 46.1661 68.1474 47.0369 68.6112 47.9618C69.075 48.8867 69.6924 49.5155 69.9902 49.3661Z" stroke="#FD4525" stroke-width="0.670282" stroke-linecap="round" stroke-linejoin="round"/>
<path d="M73.6904 56.7421C73.9882 56.5928 73.8537 55.7219 73.3899 54.797C72.9262 53.8721 72.3088 53.2434 72.0109 53.3927C71.7131 53.542 71.8476 54.4129 72.3114 55.3378C72.7752 56.2627 73.3926 56.8914 73.6904 56.7421Z" stroke="#FD4525" stroke-width="0.670282" stroke-linecap="round" stroke-linejoin="round"/>
<path d="M66.1132 55.8632C66.4111 55.7139 66.2765 54.843 65.8128 53.9181C65.349 52.9932 64.7316 52.3645 64.4338 52.5138C64.136 52.6631 64.2705 53.534 64.7343 54.4589C65.198 55.3838 65.8154 56.0125 66.1132 55.8632Z" stroke="#FD4525" stroke-width="0.670282" stroke-linecap="round" stroke-linejoin="round"/>
<path d="M72.0252 61.7349C72.2999 61.5463 72.0478 60.702 71.4622 59.8489C70.8766 58.9959 70.1792 58.4573 69.9046 58.6459C69.6299 58.8344 69.8819 59.6788 70.4675 60.5318C71.0531 61.3848 71.7505 61.9235 72.0252 61.7349Z" stroke="#FD4525" stroke-width="0.670282" stroke-linecap="round" stroke-linejoin="round"/>
<path d="M78.6832 58.3841C78.9987 58.2768 78.9842 57.3958 78.6509 56.4162C78.3176 55.4367 77.7918 54.7296 77.4764 54.8369C77.161 54.9443 77.1754 55.8253 77.5087 56.8048C77.842 57.7844 78.3678 58.4914 78.6832 58.3841Z" stroke="#FD4525" stroke-width="0.670282" stroke-linecap="round" stroke-linejoin="round"/>
<path d="M77.5224 50.1415C77.8202 49.9922 77.6857 49.1213 77.222 48.1964C76.7582 47.2715 76.1408 46.6428 75.843 46.7921C75.5451 46.9414 75.6797 47.8123 76.1434 48.7372C76.6072 49.6621 77.2246 50.2909 77.5224 50.1415Z" stroke="#FD4525" stroke-width="0.670282" stroke-linecap="round" stroke-linejoin="round"/>
<path d="M51.5088 63.2861C51.73 63.6648 51.8506 63.8358 52.1489 64.1173" stroke="#FD4525" stroke-width="0.670282" stroke-linecap="round" stroke-linejoin="round"/>
<path d="M57.2061 75.0869C57.4272 75.4656 57.5479 75.6365 57.8462 75.9181" stroke="#FD4525" stroke-width="0.670282" stroke-linecap="round" stroke-linejoin="round"/>
<path d="M74.7363 75.9141C74.9575 76.2928 75.0782 76.4637 75.3765 76.7452" stroke="#FD4525" stroke-width="0.670282" stroke-linecap="round" stroke-linejoin="round"/>
<path d="M83.6777 58.4971C83.8989 58.8758 84.0196 59.0467 84.3178 59.3282" stroke="#FD4525" stroke-width="0.670282" stroke-linecap="round" stroke-linejoin="round"/>
</svg>
