<svg width="150" height="150" viewBox="0 0 150 150" fill="none" xmlns="http://www.w3.org/2000/svg">
<path d="M124 68L123.5 60L123 59.5L114.5 58.5L114 58L113.5 56L63 51L39.5 59.5L36.5 60.5V64.5L27 69.5L27.5 78.5L28.5 79L38 80.5V81L33.5 85.5L34.5 97.5L69 98L114 98.5L121.5 71L124 68Z" fill="#FAF4F4"/>
<path d="M121.529 70.5908L114.189 98.4632L34.5478 97.3642L33.5088 85.279L38.5461 80.538" stroke="#FD4525" stroke-width="0.750164" stroke-linecap="round" stroke-linejoin="round"/>
<path d="M36.8984 64.3791L27 69.1839L27.8514 79.1011L102.275 89.1083L123.94 68.28L123.299 59.3605L114.064 58.6104" stroke="#FD4525" stroke-width="0.750164" stroke-linecap="round" stroke-linejoin="round"/>
<path d="M27 69.1839L101.278 77.4845L123.299 59.3605" stroke="#FD4525" stroke-width="0.750164" stroke-linecap="round" stroke-linejoin="round"/>
<path d="M101.273 77.4844L102.271 89.1082" stroke="#FD4525" stroke-width="0.750164" stroke-linecap="round" stroke-linejoin="round"/>
<path d="M113.856 56.1873L114.388 62.3912L90.5255 75.5153L37.1101 66.9071L36.5587 60.4595L89.9141 67.271L113.856 56.1873Z" stroke="#FD4525" stroke-width="0.750164" stroke-linecap="round" stroke-linejoin="round"/>
<path d="M89.9131 67.2715L90.5245 75.5158" stroke="#FD4525" stroke-width="0.750164" stroke-linecap="round" stroke-linejoin="round"/>
<path d="M36.5586 60.4594L62.7131 51.2324L113.856 56.1873" stroke="#FD4525" stroke-width="0.750164" stroke-linecap="round" stroke-linejoin="round"/>
<path d="M105.586 85.9199L113.114 85.9875L114.187 98.4627" stroke="#FD4525" stroke-width="0.750164" stroke-linecap="round" stroke-linejoin="round"/>
<path d="M76.6507 85.6619L33.5088 85.2793L65.8371 97.7995" stroke="#FD4525" stroke-width="0.750164" stroke-linecap="round" stroke-linejoin="round"/>
<path d="M113.118 85.9883L117.038 74.9121" stroke="#FD4525" stroke-width="0.750164" stroke-linecap="round" stroke-linejoin="round"/>
<path d="M90.2178 67.3945L102.063 69.1687" stroke="#FD4525" stroke-width="0.750164" stroke-miterlimit="10" stroke-linecap="round"/>
<path d="M113.565 56.3223L107.598 66.1232" stroke="#FD4525" stroke-width="0.750164" stroke-miterlimit="10" stroke-linecap="round"/>
<path d="M114.686 62.1289L115.083 66.1235L101.28 77.4848L90.5303 75.9057L114.686 62.1289Z" fill="#FD4525"/>
<path d="M36.6151 65.6172L36.4463 66.7274L37.7478 70.4708L91.6696 76.0745L36.9489 67.2038L36.6151 65.6172Z" fill="#FD4525"/>
<path d="M27 69.1846L55.0824 82.7625" stroke="#FD4525" stroke-width="0.750164" stroke-miterlimit="10"/>
<path d="M101.278 77.4844L72.1045 85.2823" stroke="#FD4525" stroke-width="0.750164" stroke-miterlimit="10"/>
<path d="M116.772 75.2981L105.771 85.7479H113.118L116.772 75.2981Z" fill="#FD4525"/>
<path d="M38.4274 80.6504L72.7662 85.4027H47.3656L35.5205 83.3848L38.4274 80.6504Z" fill="#FD4525"/>
<path d="M113.119 85.9881L83.6864 98.0432" stroke="#FD4525" stroke-width="0.750164" stroke-miterlimit="10"/>
<path d="M114.421 82.3115L113.607 91.6773" stroke="#FD4525" stroke-width="0.562623" stroke-miterlimit="10" stroke-linecap="round"/>
<path d="M115.762 78.1826L114.551 97.0905" stroke="#FD4525" stroke-width="0.562623" stroke-miterlimit="10" stroke-linecap="round"/>
<path d="M117.034 74.9121L116.209 90.7893" stroke="#FD4525" stroke-width="0.562623" stroke-miterlimit="10" stroke-linecap="round"/>
<path d="M118.238 73.8613L117.664 85.2826" stroke="#FD4525" stroke-width="0.562623" stroke-miterlimit="10" stroke-linecap="round"/>
<path d="M119.543 72.5078L119.101 79.9194" stroke="#FD4525" stroke-width="0.562623" stroke-miterlimit="10" stroke-linecap="round"/>
<path d="M64.3626 89.4977L64.4678 90.1152L66.6567 89.7423L66.5515 89.1248L64.3626 89.4977Z" fill="#FD4525"/>
<path d="M37.2844 95.4186L37.3896 96.0361L39.5786 95.6631L39.4734 95.0456L37.2844 95.4186Z" fill="#FD4525"/>
<path d="M62.5011 93.5468L61.9072 93.7461L62.6136 95.8512L63.2075 95.6519L62.5011 93.5468Z" fill="#FD4525"/>
<path d="M101.063 95.5491L101.006 96.1729L103.217 96.3768L103.275 95.7531L101.063 95.5491Z" fill="#FD4525"/>
<path d="M48.3741 95.2569L48.3994 95.8828L50.6181 95.7929L50.5927 95.167L48.3741 95.2569Z" fill="#FD4525"/>
<path d="M96.6488 90.9681L96.0314 90.8624L95.6569 93.0511L96.2743 93.1567L96.6488 90.9681Z" fill="#FD4525"/>
<path d="M86.1255 89.3657L85.6826 89.8086L87.2527 91.3787L87.6957 90.9358L86.1255 89.3657Z" fill="#FD4525"/>
<path d="M55.1825 89.2861L55.6797 89.6671L57.0305 87.9048L56.5334 87.5237L55.1825 89.2861Z" fill="#FD4525"/>
<path d="M78.7263 88.536L78.1025 88.4785L77.8986 90.6896L78.5223 90.7471L78.7263 88.536Z" fill="#FD4525"/>
<path d="M73.5446 95.4798L73.6953 96.0878L75.8506 95.5536L75.6999 94.9456L73.5446 95.4798Z" fill="#FD4525"/>
<path d="M41.7841 90.9774L41.541 91.5547L43.5875 92.4163L43.8306 91.839L41.7841 90.9774Z" fill="#FD4525"/>
<path d="M83.7742 94.4369L83.1484 94.4092L83.05 96.6275L83.6758 96.6552L83.7742 94.4369Z" fill="#FD4525"/>
<path d="M106.799 92.652L107.274 93.0596L108.719 91.3734L108.243 90.9658L106.799 92.652Z" fill="#FD4525"/>
<path d="M111.773 96.5315L111.547 95.9473L109.476 96.7484L109.702 97.3326L111.773 96.5315Z" fill="#FD4525"/>
<path d="M56.5424 82.931C56.2385 78.6551 59.4417 75.9132 64.1828 76.5284C69.6027 77.2298 71.5156 81.3369 71.6057 84.859L56.5424 82.931Z" fill="#FD4525"/>
<path d="M57.9489 82.9836C57.7013 79.5066 60.3081 77.2786 64.164 77.7737C68.5749 78.3439 70.1278 81.6821 70.2028 84.5515" stroke="#FAF4F4" stroke-width="0.375082" stroke-miterlimit="10" stroke-linecap="round"/>
<path d="M71.4844 82.9498C76.7243 81.2844 77.2531 74.9643 75.7453 69.897C73.446 62.174 77.8533 57.8156 77.8533 57.8156C77.8533 57.8156 81.169 55.2575 89.0907 55.1637C95.4296 55.0887 95.3058 56.4728 101.322 56.5815C105.257 56.6528 108.085 54.001 108.085 54.001" stroke="#FD4525" stroke-width="0.750164" stroke-linecap="round" stroke-linejoin="round"/>
<path d="M77.8545 57.8154C77.8545 57.8154 77.8133 51.424 80.2288 47.5006C82.6443 43.5773 85.1349 42.7221 87.0253 43.0709C88.9157 43.4197 91.2675 46.9343 84.5497 51.5515C80.3338 54.4471 77.8545 57.8154 77.8545 57.8154Z" stroke="#FD4525" stroke-width="0.750164" stroke-linecap="round" stroke-linejoin="round"/>
<path d="M77.8535 57.8152C77.8535 57.8152 74.6578 57.7852 71.342 55.5685C68.3414 53.5618 63.5253 51.8515 59.5082 53.7494C56.8826 54.9909 56.6088 59.1393 62.0288 59.8895C69.4104 60.9097 77.8535 57.8115 77.8535 57.8115V57.8152Z" stroke="#FD4525" stroke-width="0.750164" stroke-linecap="round" stroke-linejoin="round"/>
<path d="M72.8697 98.0505C72.8697 98.0505 71.5719 98.7782 70.4242 98.3056C69.599 97.9642 69.0551 95.9988 69.0251 91.5166C69.0101 89.3074 68.1624 82.2033 67.5135 78.0286C66.8646 73.854 65.7957 67.3801 65.5143 65.1933C65.233 63.0066 69.7603 61.6976 77.2319 58.3706C83.2482 55.6925 88.2781 53.7646 89.032 53.6145C90.311 53.3557 91.2525 53.7233 91.17 53.9896" stroke="#FD4525" stroke-width="0.750164" stroke-linecap="round" stroke-linejoin="round"/>
<path d="M47.749 56.5103C47.749 56.5103 47.8803 55.1263 49.4969 54.7399C51.9612 54.1548 67.0207 57.8119 77.2267 58.367C85.0134 58.7908 101.772 58.8696 103.602 61.6452C104.405 62.8642 104.848 65.0922 104.225 68.0854C103.674 70.7447 115.163 63.2243 114.757 72.035C114.401 79.7992 117.946 71.3861 118.655 81.4983" stroke="#FD4525" stroke-width="0.750164" stroke-miterlimit="10" stroke-linecap="round"/>
</svg>
