<svg width="150" height="150" viewBox="0 0 150 150" fill="none" xmlns="http://www.w3.org/2000/svg">
<path fill-rule="evenodd" clip-rule="evenodd" d="M99.9137 48.5557H81.9002C81.5977 44.8848 78.5227 42 74.7738 42C71.025 42 67.9499 44.8848 67.6475 48.5557H49.6365C49.0396 48.5557 48.5557 49.0396 48.5557 49.6365V67.6486C44.8848 67.951 42 71.0261 42 74.7749C42 78.5238 44.8848 81.5988 48.5557 81.9013V99.9137C48.5557 100.511 49.0396 100.995 49.6365 100.995H67.6476C67.9508 104.665 71.0255 107.549 74.7738 107.549C78.5221 107.549 81.5968 104.665 81.9 100.995H99.9137C100.511 100.995 100.995 100.511 100.995 99.9137V81.9012C104.666 81.5989 107.551 78.5238 107.551 74.7748C107.551 71.0258 104.666 67.9507 100.995 67.6484V49.6365C100.995 49.0396 100.511 48.5557 99.9137 48.5557Z" fill="#FD4525"/>
</svg>
