<svg width="150" height="150" viewBox="0 0 150 150" fill="none" xmlns="http://www.w3.org/2000/svg">
<path d="M28.8105 67.0811C29.8851 69.3218 32.2141 70.8062 32.2141 70.8062L49.081 80.5444C50.3385 81.2409 52.0025 81.6632 53.2599 81.6632V53.8321L29.1571 39.915C28.4669 41.1 28.0383 42.5087 28.0383 44.094V61.1121C28.0383 61.1121 27.7389 64.8404 28.8136 67.078L28.8105 67.0811Z" fill="#FAF4F4" stroke="#FD4525" stroke-width="0.630304" stroke-linecap="round" stroke-linejoin="round"/>
<path d="M78.4764 44.0944V63.5677C78.4764 66.5521 76.8849 69.3129 74.2975 70.8035L57.4305 80.5417C54.8463 82.0356 51.6601 82.0356 49.0759 80.5417L32.2089 70.8035C29.6247 69.3097 28.03 66.5521 28.03 63.5677V44.0944C28.03 41.1099 29.6215 38.3492 32.2089 36.8586L49.079 27.1204C51.6633 25.6265 54.8494 25.6265 57.4337 27.1204L74.3006 36.8586C76.8848 38.3524 78.4795 41.1099 78.4795 44.0944H78.4764Z" fill="#FAF4F4" stroke="#FD4525" stroke-width="0.630304" stroke-linecap="round" stroke-linejoin="round"/>
<path d="M77.7036 67.0817C76.629 69.3224 74.3 70.8067 74.3 70.8067L57.4331 80.5449C56.1756 81.2414 54.5116 81.6637 53.2542 81.6637V53.8327L77.357 39.9187C78.0471 41.1037 78.4757 42.5124 78.4757 44.0976V61.1158C78.4757 61.1158 78.7751 64.8441 77.7005 67.0817H77.7036Z" fill="#FD4525" stroke="#FD4525" stroke-width="0.630304" stroke-linecap="round" stroke-linejoin="round"/>
<path d="M53.2579 81.6637V53.8327L29.1582 39.9187" stroke="#FD4525" stroke-width="0.630304" stroke-linecap="round" stroke-linejoin="round"/>
<path d="M53.443 33.9972C55.3019 33.9972 56.8088 33.1054 56.8088 32.0054C56.8088 30.9054 55.3019 30.0137 53.443 30.0137C51.5841 30.0137 50.0771 30.9054 50.0771 32.0054C50.0771 33.1054 51.5841 33.9972 53.443 33.9972Z" fill="#FD4525" stroke="#FD4525" stroke-width="0.630304" stroke-linecap="round" stroke-linejoin="round"/>
<path d="M53.443 41.2609C55.3019 41.2609 56.8088 40.3691 56.8088 39.2691C56.8088 38.1691 55.3019 37.2773 53.443 37.2773C51.5841 37.2773 50.0771 38.1691 50.0771 39.2691C50.0771 40.3691 51.5841 41.2609 53.443 41.2609Z" fill="#FD4525" stroke="#FD4525" stroke-width="0.630304" stroke-linecap="round" stroke-linejoin="round"/>
<path d="M40.65 41.2611C42.5089 41.2611 44.0158 40.3694 44.0158 39.2693C44.0158 38.1693 42.5089 37.2776 40.65 37.2776C38.7911 37.2776 37.2842 38.1693 37.2842 39.2693C37.2842 40.3694 38.7911 41.2611 40.65 41.2611Z" fill="#FD4525" stroke="#FD4525" stroke-width="0.630304" stroke-linecap="round" stroke-linejoin="round"/>
<path d="M65.0133 41.2609C66.8722 41.2609 68.3791 40.3691 68.3791 39.2691C68.3791 38.1691 66.8722 37.2773 65.0133 37.2773C63.1544 37.2773 61.6475 38.1691 61.6475 39.2691C61.6475 40.3691 63.1544 41.2609 65.0133 41.2609Z" fill="#FD4525" stroke="#FD4525" stroke-width="0.630304" stroke-linecap="round" stroke-linejoin="round"/>
<path d="M35.745 53.4794C36.6977 52.9294 36.7165 51.1785 35.787 49.5686C34.8576 47.9588 33.3319 47.0996 32.3792 47.6496C31.4266 48.1996 31.4078 49.9505 32.3372 51.5604C33.2667 53.1702 34.7924 54.0294 35.745 53.4794Z" fill="#FD4525" stroke="#FD4525" stroke-width="0.630304" stroke-linecap="round" stroke-linejoin="round"/>
<path d="M47.9247 74.58C48.8774 74.03 48.8962 72.2791 47.9667 70.6692C47.0373 69.0594 45.5115 68.2002 44.5589 68.7502C43.6063 69.3002 43.5874 71.0511 44.5169 72.661C45.4463 74.2708 46.9721 75.13 47.9247 74.58Z" fill="#FD4525" stroke="#FD4525" stroke-width="0.630304" stroke-linecap="round" stroke-linejoin="round"/>
<path d="M53.443 48.5255C55.3019 48.5255 56.8088 47.6338 56.8088 46.5338C56.8088 45.4337 55.3019 44.542 53.443 44.542C51.5841 44.542 50.0771 45.4337 50.0771 46.5338C50.0771 47.6338 51.5841 48.5255 53.443 48.5255Z" fill="#FD4525" stroke="#FD4525" stroke-width="0.630304" stroke-linecap="round" stroke-linejoin="round"/>
<path d="M53.5344 71.8146C52.9388 74.2255 53.7865 76.8539 53.7865 76.8539L60.5907 95.1012C61.117 96.4406 62.1317 97.8241 63.0993 98.6246L80.8234 77.1659L71.101 51.0871C69.812 51.563 68.5861 52.3729 67.5776 53.5957L56.7395 66.7186C56.7395 66.7186 54.1332 69.4006 53.5376 71.8115L53.5344 71.8146Z" fill="#FAF4F4" stroke="#FD4525" stroke-width="0.630304" stroke-linecap="round" stroke-linejoin="round"/>
<path d="M106.465 85.7222L94.0639 100.736C92.1636 103.037 89.1791 104.149 86.2356 103.654L67.0302 100.421C64.0867 99.9261 61.6317 97.8965 60.5885 95.1011L53.7844 76.8538C52.7412 74.0553 53.2707 70.9163 55.171 68.6126L67.5723 53.5988C69.4726 51.2981 72.4571 50.1857 75.4006 50.6805L94.606 53.9139C97.5495 54.4087 100.005 56.4383 101.048 59.2337L107.852 77.481C108.895 80.2795 108.366 83.4184 106.465 85.7222Z" fill="#FAF4F4" stroke="#FD4525" stroke-width="0.630304" stroke-linecap="round" stroke-linejoin="round"/>
<path d="M91.2283 102.949C88.9718 103.989 86.2332 103.655 86.2332 103.655L67.0278 100.421C65.6128 100.157 64.0622 99.4222 63.0947 98.6249L80.8189 77.1662L108.262 81.7863C108.039 83.1415 107.474 84.4998 106.466 85.7194L95.6278 98.8423C95.6278 98.8423 93.4848 101.909 91.2315 102.949H91.2283Z" fill="#FD4525" stroke="#FD4525" stroke-width="0.630304" stroke-linecap="round" stroke-linejoin="round"/>
<path d="M63.0948 98.6245L80.819 77.1658L71.0965 51.0901" stroke="#FD4525" stroke-width="0.630304" stroke-linecap="round" stroke-linejoin="round"/>
<path d="M92.826 68.1961C93.5264 67.3479 92.9323 65.7008 91.499 64.5171C90.0656 63.3335 88.3359 63.0615 87.6354 63.9097C86.935 64.7579 87.5291 66.405 88.9625 67.5887C90.3958 68.7723 92.1256 69.0443 92.826 68.1961Z" fill="#FD4525" stroke="#FD4525" stroke-width="0.630304" stroke-linecap="round" stroke-linejoin="round"/>
<path d="M61.7152 73.2052C62.0237 71.3721 61.3943 69.7381 60.3095 69.5556C59.2247 69.3731 58.0953 70.7112 57.7869 72.5443C57.4785 74.3774 58.1079 76.0114 59.1927 76.1939C60.2774 76.3764 61.4068 75.0383 61.7152 73.2052Z" fill="#FD4525" stroke="#FD4525" stroke-width="0.630304" stroke-linecap="round" stroke-linejoin="round"/>
<path d="M66.7506 87.0275C67.059 85.1944 66.4297 83.5604 65.3449 83.3779C64.2601 83.1954 63.1307 84.5335 62.8223 86.3666C62.5139 88.1997 63.1433 89.8337 64.2281 90.0162C65.3128 90.1987 66.4422 88.8606 66.7506 87.0275Z" fill="#FD4525" stroke="#FD4525" stroke-width="0.630304" stroke-linecap="round" stroke-linejoin="round"/>
<path d="M70.7963 63.003C71.1047 61.1699 70.4753 59.5359 69.3906 59.3534C68.3058 59.1709 67.1764 60.509 66.868 62.3421C66.5596 64.1753 67.189 65.8093 68.2737 65.9918C69.3585 66.1743 70.4879 64.8362 70.7963 63.003Z" fill="#FD4525" stroke="#FD4525" stroke-width="0.630304" stroke-linecap="round" stroke-linejoin="round"/>
<path d="M76.0385 75.6163C76.3469 73.7832 75.7175 72.1492 74.6327 71.9667C73.548 71.7842 72.4186 73.1223 72.1102 74.9554C71.8018 76.7885 72.4311 78.4225 73.5159 78.605C74.6007 78.7875 75.7301 77.4494 76.0385 75.6163Z" fill="#FD4525" stroke="#FD4525" stroke-width="0.630304" stroke-linecap="round" stroke-linejoin="round"/>
</svg>
