<svg width="150" height="150" viewBox="0 0 150 150" fill="none" xmlns="http://www.w3.org/2000/svg">
<path d="M79.5 44L78.5 46.5L79.5 47L80.5 48C80.5597 49.1239 80.298 49.5282 79.5 50L79 51L79.5 52L81 54C80.7346 54.6567 80.5405 54.9996 80 55.5L78 56.5L77.5 58L78 59.5L76.5 61L75 60.5L73 61L72.5 63L71 63.5L69.5 62.5L68.5 61.5L67 62L66 63L64.5 62.5L63.5 61.5L62.5 62.5L59.5 64.5L55.5 65.5L51 66L47.5 65.5C45.5 65 43.977 64.5507 42 63.5L43.5 60.5L45.5 56.5L49 52.5L53 50C54.7349 49.0462 55.7194 48.7421 57.5 48.5H59.5L59 47V46L60 45L61.5 45.5L62.5 44.5L62 43V41L63 38.5L64.5 36.5L66.5 34.5L69.5 32.5L73.5 31L78 30L79 33.5L80 37.5V40.5L79.5 44Z" fill="#FAF4F4"/>
<path d="M57.5 87L61 84L59 70.5C58.6369 69.7535 58.7356 69.3059 59 68.5L60 67.5L61.5 67L65.5 65.5C68.0235 64.7935 69.4474 64.6066 72 64.5L77 64L78.5 62L81.5 60.5L84.5 61L85 60L83 58.5L81.5 56.5V55L82 52.5L84.5 50.5L83.5 49.5L82.5 46.5C83.0401 45.245 83.4286 44.5712 84.5 43.5C85.9117 42.763 86.7578 42.4055 88.5 42C90.387 41.9374 91.3857 42.0207 93 42.5L98.5 44L103.5 48L108.5 54.5L103 58.5L98 60.5L99.5 64L100.5 70L99.5 77L97 83.5L93.5 83L93 84L95 85.5L98 88L100 91L101 103.5L99.5 106L97 109L94 111.5L91.5 113L88 114.5L84.5 115.5L80 116.5H75.5L71 116L66 114.5L60.5 112L57.5 109.5L54 105L52.5 96.5L54.5 90.5L57.5 87Z" fill="#FAF4F4"/>
<path d="M59.6395 48.6783C58.04 48.2763 55.8849 48.494 53.4061 49.6413C46.7372 52.7315 43.767 58.4737 42 63.7384" stroke="#FD4525" stroke-width="0.5583" stroke-linecap="round" stroke-linejoin="round"/>
<path d="M42 63.7379C47.1615 65.7925 53.4647 67.2385 60.1308 64.1483C61.7303 63.4057 62.9474 62.518 63.8044 61.5801" stroke="#FD4525" stroke-width="0.5583" stroke-linecap="round" stroke-linejoin="round"/>
<path d="M59.9355 55.1152C54.3274 56.8906 48.7416 59.7491 44.7051 62.3787" stroke="#FD4525" stroke-width="0.5583" stroke-linecap="round" stroke-linejoin="round"/>
<path d="M78.306 46.7267C81.4548 41.1241 80.0227 35.0973 77.957 30" stroke="#FD4525" stroke-width="0.5583" stroke-linecap="round" stroke-linejoin="round"/>
<path d="M77.9569 30C72.4381 30.7202 66.4029 32.4761 63.1033 38.1344C61.6127 40.6914 61.5652 43.0419 62.3748 44.7084" stroke="#FD4525" stroke-width="0.5583" stroke-linecap="round" stroke-linejoin="round"/>
<path d="M70.8838 40.0744C72.3717 36.8893 74.5267 33.7404 76.3858 32.0851" stroke="#FD4525" stroke-width="0.5583" stroke-linecap="round" stroke-linejoin="round"/>
<path d="M77.4771 72.5511C75.844 69.5698 75.7017 66.8146 76.4861 64.707C67.1122 64.8019 59.6143 67.0184 59.6143 69.7401C59.6143 72.4618 67.4472 74.776 77.1114 74.776C77.7143 74.776 78.3117 74.7676 78.8979 74.7508C78.3843 74.0697 77.907 73.3411 77.4743 72.5511H77.4771Z" fill="#FD4525"/>
<path d="M61.0234 84.0576C55.5241 87.4381 52.0264 92.5215 52.0264 98.2022C52.0264 104.196 55.9177 109.519 61.9418 112.885L63.6725 113.77C67.5583 115.585 72.1698 116.637 77.1136 116.637C82.0573 116.637 86.6298 115.596 90.5044 113.795" stroke="#FD4525" stroke-width="0.5583" stroke-linecap="round" stroke-linejoin="round"/>
<path d="M92.6546 85.6768C90.1255 87.7481 84.121 89.2052 77.1144 89.2052C70.1077 89.2052 64.1004 87.7481 61.5713 85.6768" stroke="#FD4525" stroke-width="0.5583" stroke-linecap="round" stroke-linejoin="round"/>
<path d="M75.015 75.3975C68.1172 75.1574 62.3695 73.7477 59.9102 71.8271" stroke="#FD4525" stroke-width="0.5583" stroke-linecap="round" stroke-linejoin="round"/>
<path d="M58.6318 69.7399C58.6318 66.6302 66.7216 64.1039 76.771 64.048" stroke="#FD4525" stroke-width="0.5583" stroke-linecap="round" stroke-linejoin="round"/>
<path d="M58.6318 69.7393L61.0242 84.0597" stroke="#FD4525" stroke-width="0.5583" stroke-linecap="round" stroke-linejoin="round"/>
<path d="M97.9834 60.7119C102.07 59.4808 105.582 57.0941 108.583 54.5957" stroke="#FD4525" stroke-width="0.5583" stroke-linecap="round" stroke-linejoin="round"/>
<path d="M108.583 54.5935C105.116 49.0663 100.203 43.394 92.0432 42.0903C83.8139 40.7755 80.1877 46.6433 84.3359 50.7217C80.104 52.8209 80.3803 57.639 85.0449 60.076" stroke="#FD4525" stroke-width="0.5583" stroke-linecap="round" stroke-linejoin="round"/>
<path d="M75.4619 60.648C74.3816 59.9976 72.9942 60.715 72.9021 61.974C72.7792 63.6935 70.4595 64.1458 69.7002 62.5965C69.1447 61.4631 67.587 61.318 66.8305 62.3285C65.7977 63.7075 63.6036 62.8337 63.799 61.1226C63.9441 59.8692 62.7131 58.9061 61.5295 59.3472C59.9132 59.9501 58.5398 58.0268 59.6313 56.6925C60.4296 55.7154 59.916 54.2415 58.6822 53.9707C56.9961 53.6023 56.8816 51.2434 58.5202 50.7131C59.7206 50.3222 60.0863 48.8037 59.193 47.9104C57.9731 46.6905 59.1511 44.6443 60.8177 45.0826C62.0375 45.4036 63.1653 44.3233 62.9001 43.0895C62.5344 41.4034 64.6308 40.3175 65.7977 41.5876C66.6519 42.5172 68.1844 42.2185 68.6255 41.0377C69.2284 39.4214 71.5789 39.642 71.8748 41.342C72.0897 42.5842 73.5413 43.162 74.5518 42.4083C75.9336 41.3755 77.7928 42.8327 77.12 44.421C76.6287 45.5823 77.5387 46.8552 78.7949 46.7659C80.5145 46.643 81.2905 48.8735 79.8668 49.8477C78.8256 50.5595 78.9038 52.12 80.0092 52.7257C81.5222 53.552 80.9695 55.8494 79.2471 55.8969C77.9854 55.9332 77.2065 57.287 77.8123 58.3953C78.6386 59.9083 76.933 61.5413 75.4563 60.6508L75.4619 60.648Z" stroke="#FD4525" stroke-width="0.5583" stroke-miterlimit="10"/>
<path d="M71.7318 49.0798C72.4579 49.0798 73.0466 48.4911 73.0466 47.765C73.0466 47.0388 72.4579 46.4502 71.7318 46.4502C71.0056 46.4502 70.417 47.0388 70.417 47.765C70.417 48.4911 71.0056 49.0798 71.7318 49.0798Z" fill="#FD4525"/>
<path d="M67.7015 49.0798C68.4277 49.0798 69.0163 48.4911 69.0163 47.765C69.0163 47.0388 68.4277 46.4502 67.7015 46.4502C66.9754 46.4502 66.3867 47.0388 66.3867 47.765C66.3867 48.4911 66.9754 49.0798 67.7015 49.0798Z" fill="#FD4525"/>
<path d="M65.6856 52.9713C66.4118 52.9713 67.0004 52.3827 67.0004 51.6565C67.0004 50.9304 66.4118 50.3417 65.6856 50.3417C64.9595 50.3417 64.3708 50.9304 64.3708 51.6565C64.3708 52.3827 64.9595 52.9713 65.6856 52.9713Z" fill="#FD4525"/>
<path d="M73.0026 70.4184C73.9755 70.4184 74.7641 69.6298 74.7641 68.6569C74.7641 67.6841 73.9755 66.8955 73.0026 66.8955C72.0298 66.8955 71.2412 67.6841 71.2412 68.6569C71.2412 69.6298 72.0298 70.4184 73.0026 70.4184Z" fill="#FAF4F4"/>
<path d="M68.9079 73.391C69.8807 73.391 70.6694 72.6024 70.6694 71.6296C70.6694 70.6568 69.8807 69.8682 68.9079 69.8682C67.9351 69.8682 67.1465 70.6568 67.1465 71.6296C67.1465 72.6024 67.9351 73.391 68.9079 73.391Z" fill="#FAF4F4"/>
<path d="M63.3326 67.9141C64.4272 67.9141 65.3145 67.0268 65.3145 65.9322C65.3145 64.8376 64.4272 63.9502 63.3326 63.9502C62.2379 63.9502 61.3506 64.8376 61.3506 65.9322C61.3506 67.0268 62.2379 67.9141 63.3326 67.9141Z" fill="#FAF4F4" stroke="#FD4525" stroke-width="0.5583" stroke-linecap="round" stroke-linejoin="round"/>
<path d="M73.3871 50.1465C73.1694 52.7454 70.9892 54.7888 68.3317 54.7888C67.726 54.7888 67.1481 54.6827 66.6094 54.4901" stroke="#FD4525" stroke-width="0.5583" stroke-linecap="round" stroke-linejoin="round"/>
<path d="M96.9869 83.5217C100.085 76.7439 102.369 68.6932 98.2486 61.1701C94.0949 53.5856 85.98 54.8893 84.7461 61.1701C78.7891 58.8308 73.3261 64.9638 77.4799 72.5483C81.6001 80.0714 89.6089 82.4804 96.9869 83.5189" stroke="#FD4525" stroke-width="0.5583" stroke-linecap="round" stroke-linejoin="round"/>
<path d="M85.8545 63.0186C89.7877 68.2415 93.0901 74.4916 95.6666 80.8367" stroke="#FD4525" stroke-width="0.5583" stroke-linecap="round" stroke-linejoin="round"/>
<path d="M86.625 50.7943C93.2911 50.7133 101.247 52.8014 105.666 54.0855" stroke="#FD4525" stroke-width="0.5583" stroke-linecap="round" stroke-linejoin="round"/>
<path d="M65.2561 51.6564C67.2129 51.9188 69.1028 53.1024 70.1468 54.4535" stroke="#FD4525" stroke-width="0.5583" stroke-linecap="round" stroke-linejoin="round"/>
<path d="M67.4141 47.1035C68.0449 48.8594 69.7924 52.2455 71.2663 53.8562" stroke="#FD4525" stroke-width="0.5583" stroke-linecap="round" stroke-linejoin="round"/>
<path d="M71.8471 47.9043C71.4731 48.9483 71.4563 50.8047 72.0369 53.183" stroke="#FD4525" stroke-width="0.5583" stroke-linecap="round" stroke-linejoin="round"/>
<path d="M77.0421 113.63C81.584 113.63 85.2659 109.547 85.2659 104.51C85.2659 99.4737 81.584 95.3906 77.0421 95.3906C72.5003 95.3906 68.8184 99.4737 68.8184 104.51C68.8184 109.547 72.5003 113.63 77.0421 113.63Z" fill="#FD4525"/>
<path d="M90.9013 111.49C94.7232 111.49 97.8215 107.641 97.8215 102.895C97.8215 98.1477 94.7232 94.2996 90.9013 94.2996C87.0794 94.2996 83.9812 98.1477 83.9812 102.895C83.9812 107.641 87.0794 111.49 90.9013 111.49Z" fill="#FD4525"/>
<path d="M99.2924 104.926C100.9 104.926 102.204 101.767 102.204 97.8694C102.204 93.972 100.9 90.8125 99.2924 90.8125C97.6844 90.8125 96.3809 93.972 96.3809 97.8694C96.3809 101.767 97.6844 104.926 99.2924 104.926Z" fill="#FD4525"/>
<path d="M54.7875 104.926C56.3955 104.926 57.699 101.767 57.699 97.8694C57.699 93.972 56.3955 90.8125 54.7875 90.8125C53.1795 90.8125 51.876 93.972 51.876 97.8694C51.876 101.767 53.1795 104.926 54.7875 104.926Z" fill="#FD4525"/>
<path d="M63.3798 111.49C67.2017 111.49 70.3 107.641 70.3 102.895C70.3 98.1477 67.2017 94.2996 63.3798 94.2996C59.558 94.2996 56.4597 98.1477 56.4597 102.895C56.4597 107.641 59.558 111.49 63.3798 111.49Z" fill="#FD4525"/>
<path d="M90.5049 113.796L92.2859 112.888C98.3127 109.522 102.201 104.196 102.201 98.2051C102.201 92.5244 98.7035 87.4411 93.2043 84.0605" stroke="#FD4525" stroke-width="0.5583" stroke-linecap="round" stroke-linejoin="round"/>
<path d="M74.5 60.5C75.2686 62.3615 75.478 63.3441 75.5 65" stroke="#FD4525" stroke-width="0.8"/>
<path d="M79 51.5C80.9054 50.7242 81.9955 50.4812 84 50.5" stroke="#FD4525" stroke-width="0.8"/>
</svg>
