<svg width="150" height="150" viewBox="0 0 150 150" fill="none" xmlns="http://www.w3.org/2000/svg">
<path d="M73.8556 42.4281C74.1651 41.8573 74.9779 41.8573 75.2874 42.4281L86.2853 62.7103C86.3602 62.8484 86.4728 62.962 86.6097 63.0375L106.719 74.1302C107.284 74.4424 107.284 75.2622 106.719 75.5744L86.6097 86.6671C86.4728 86.7426 86.3602 86.8562 86.2853 86.9943L75.2874 107.276C74.9779 107.847 74.1651 107.847 73.8556 107.276L62.8577 86.9943C62.7828 86.8562 62.6702 86.7426 62.5333 86.6671L42.4244 75.5744C41.8585 75.2622 41.8585 74.4424 42.4245 74.1302L62.5333 63.0375C62.6702 62.962 62.7828 62.8484 62.8577 62.7103L73.8556 42.4281Z" fill="#FD4525"/>
</svg>
