<svg width="150" height="150" viewBox="0 0 150 150" fill="none" xmlns="http://www.w3.org/2000/svg">
<path d="M119 88.5L120 75L101.5 71.5L31.5 77L26 80.5L25.5 81.5L98.5 94L97 108.5L119 88.5Z" fill="#FAF4F4"/>
<path d="M61.813 83.7714C81.5845 83.7714 97.6124 78.8977 97.6124 72.8857C97.6124 66.8737 81.5845 62 61.813 62C42.0416 62 26.0137 66.8737 26.0137 72.8857C26.0137 78.8977 42.0416 83.7714 61.813 83.7714Z" fill="#FD4525" stroke="#FD4525" stroke-width="0.448895" stroke-linecap="round" stroke-linejoin="round"/>
<path d="M71.9639 63.6924C81.5321 64.5296 89.161 66.6035 92.4851 69.2475C93.6567 70.1789 94.2942 71.1822 94.2942 72.2259" stroke="#FAF4F4" stroke-width="0.448895" stroke-linecap="round" stroke-linejoin="round"/>
<path d="M47.8618 80.6717C37.6763 79.132 30.7207 76.0391 30.7207 72.4726C30.7207 69.2854 36.2803 66.4754 44.7352 64.8145" stroke="#FAF4F4" stroke-width="0.448895" stroke-linecap="round" stroke-linejoin="round"/>
<path d="M96.3222 80.2021C90.4776 83.4275 78.0903 85.6517 63.7549 85.6517" stroke="#FD4525" stroke-width="0.448895" stroke-linecap="round" stroke-linejoin="round"/>
<path d="M93.0223 72.6073C89.3975 77.4621 76.0541 81.5044 59.9949 82.1912" stroke="#FAF4F4" stroke-width="0.448895" stroke-linecap="round" stroke-linejoin="round"/>
<path d="M52.0273 63.4473L119.862 74.6988L119.234 88.3452" stroke="#FD4525" stroke-width="0.448895" stroke-linecap="round" stroke-linejoin="round"/>
<path d="M20.6885 83.9964L32.1465 76.7041" stroke="#FD4525" stroke-width="0.448895" stroke-linecap="round" stroke-linejoin="round"/>
<path d="M94.4395 109.004L119.232 86.1572" stroke="#FD4525" stroke-width="0.448895" stroke-linecap="round" stroke-linejoin="round"/>
<path d="M94.4395 106.76L119.232 83.9131" stroke="#FD4525" stroke-width="0.448895" stroke-linecap="round" stroke-linejoin="round"/>
<path d="M94.4395 104.515L119.234 81.417" stroke="#FD4525" stroke-width="0.448895" stroke-linecap="round" stroke-linejoin="round"/>
<path d="M95.3606 101.42L119.679 78.9481" stroke="#FD4525" stroke-width="0.448895" stroke-linecap="round" stroke-linejoin="round"/>
<path d="M94.9922 99.3733L119.681 76.7041" stroke="#FD4525" stroke-width="0.448895" stroke-linecap="round" stroke-linejoin="round"/>
<path d="M94.9922 97.5767L119.679 74.71" stroke="#FD4525" stroke-width="0.448895" stroke-linecap="round" stroke-linejoin="round"/>
<path d="M95.8542 96.4545L20.7002 83.8854L25.6807 80.7432L100.155 92.4144L95.8542 96.4545Z" fill="#FD4525"/>
<path d="M99.131 107.229L94.541 111.269L95.3064 96.2306L100.152 92.415L99.131 107.229Z" fill="#FD4525"/>
<path d="M61.812 77.5589C70.2982 77.5589 77.1776 75.4667 77.1776 72.8859C77.1776 70.3051 70.2982 68.2129 61.812 68.2129C53.3257 68.2129 46.4463 70.3051 46.4463 72.8859C46.4463 75.4667 53.3257 77.5589 61.812 77.5589Z" fill="#FAF4F4"/>
<path d="M61.8137 73.238C62.4546 73.238 62.9741 73.0802 62.9741 72.8856C62.9741 72.691 62.4546 72.5332 61.8137 72.5332C61.1728 72.5332 60.6533 72.691 60.6533 72.8856C60.6533 73.0802 61.1728 73.238 61.8137 73.238Z" fill="#FD4525"/>
<path d="M100.937 82.7633C100.937 80.9655 102.445 79.5088 104.303 79.5088C106.162 79.5088 107.67 80.9655 107.67 82.7633H100.937Z" fill="#FAF4F4" stroke="#FD4525" stroke-width="0.448895" stroke-linecap="round" stroke-linejoin="round"/>
<path d="M100.266 83.5493C100.885 83.5493 101.388 81.5897 101.388 79.1725C101.388 76.7553 100.885 74.7958 100.266 74.7958C99.6458 74.7958 99.1433 76.7553 99.1433 79.1725C99.1433 81.5897 99.6458 83.5493 100.266 83.5493Z" fill="#FD4525" stroke="#FD4525" stroke-width="0.448895" stroke-linecap="round" stroke-linejoin="round"/>
<path d="M103.182 76.8156H100.264V83.549H103.182V76.8156Z" fill="#FAF4F4" stroke="#FD4525" stroke-width="0.448895" stroke-linecap="round" stroke-linejoin="round"/>
<path d="M103.181 76.8162H100.264L101.161 75.2451H104.079L103.181 76.8162Z" fill="#FAF4F4" stroke="#FD4525" stroke-width="0.448895" stroke-linecap="round" stroke-linejoin="round"/>
<path d="M103.858 81.9781C104.354 81.9781 104.756 80.3703 104.756 78.387C104.756 76.4036 104.354 74.7958 103.858 74.7958C103.362 74.7958 102.96 76.4036 102.96 78.387C102.96 80.3703 103.362 81.9781 103.858 81.9781Z" fill="#FD4525" stroke="#FD4525" stroke-width="0.448895" stroke-linecap="round" stroke-linejoin="round"/>
<path d="M100.489 83.6617C100.489 81.8639 101.998 80.4072 103.856 80.4072C105.714 80.4072 107.223 81.8639 107.223 83.6617H100.489Z" fill="#FAF4F4" stroke="#FD4525" stroke-width="0.448895" stroke-linecap="round" stroke-linejoin="round"/>
<path d="M110.519 72.1024V79.1725L112.902 77.4891L113.284 70.5312L110.519 72.1024Z" fill="#FD4525" stroke="#FD4525" stroke-width="0.448895" stroke-linecap="round" stroke-linejoin="round"/>
<path d="M106.833 71.377L110.518 72.1019V79.172L106.833 77.8882V71.377Z" stroke="#FD4525" stroke-width="0.448895" stroke-linecap="round" stroke-linejoin="round"/>
<path d="M75.5771 77.4893L113.509 65.3691L117.549 66.7158L113.284 70.5314L86.5751 76.1426L85.6773 77.4893L82.535 79.2849H77.7004L75.5771 77.4893Z" fill="#FAF4F4" stroke="#FD4525" stroke-width="0.448895" stroke-linecap="round" stroke-linejoin="round"/>
<path d="M110.367 68.9603L103.634 70.307L85.9022 75.6937L85.6777 77.4893L103.634 72.327L110.367 73.6737L117.549 71.4292V66.7158L110.367 68.9603Z" fill="#FAF4F4" stroke="#FD4525" stroke-width="0.448895" stroke-linecap="round" stroke-linejoin="round"/>
<path d="M76.9238 80.856L75.5771 80.4071V77.4893L76.9238 77.9382V80.856Z" fill="#FAF4F4" stroke="#FD4525" stroke-width="0.448895" stroke-linecap="round" stroke-linejoin="round"/>
<path d="M82.5311 79.2849L76.9199 80.8561V77.9383L82.5311 76.3671V79.2849Z" fill="#FAF4F4" stroke="#FD4525" stroke-width="0.448895" stroke-linecap="round" stroke-linejoin="round"/>
<path d="M85.9009 75.6936L82.5342 76.3669" stroke="#FD4525" stroke-width="0.448895" stroke-linecap="round" stroke-linejoin="round"/>
<path d="M94.4358 111.316L20 98.969L20.6891 83.9961L95.1248 96.343L94.4358 111.316Z" fill="#FAF4F4" stroke="#FD4525" stroke-width="0.448895" stroke-linecap="round" stroke-linejoin="round"/>
<path d="M26.5601 97.5285C28.9017 97.5285 30.7999 95.6302 30.7999 93.2886C30.7999 90.9471 28.9017 89.0488 26.5601 89.0488C24.2185 89.0488 22.3203 90.9471 22.3203 93.2886C22.3203 95.6302 24.2185 97.5285 26.5601 97.5285Z" fill="#FD4525" stroke="#FD4525" stroke-width="0.448895" stroke-linecap="round" stroke-linejoin="round"/>
<path d="M27.2554 97.5802C29.597 97.5802 31.4953 95.682 31.4953 93.3404C31.4953 90.9988 29.597 89.1006 27.2554 89.1006C24.9139 89.1006 23.0156 90.9988 23.0156 93.3404C23.0156 95.682 24.9139 97.5802 27.2554 97.5802Z" stroke="#FD4525" stroke-width="0.448895" stroke-linecap="round" stroke-linejoin="round"/>
<path d="M84.8482 106.865C87.1898 106.865 89.088 104.967 89.088 102.626C89.088 100.284 87.1898 98.3857 84.8482 98.3857C82.5066 98.3857 80.6084 100.284 80.6084 102.626C80.6084 104.967 82.5066 106.865 84.8482 106.865Z" fill="#FD4525" stroke="#FD4525" stroke-width="0.448895" stroke-linecap="round" stroke-linejoin="round"/>
<path d="M85.5435 106.917C87.8851 106.917 89.7833 105.019 89.7833 102.677C89.7833 100.336 87.8851 98.4375 85.5435 98.4375C83.2019 98.4375 81.3037 100.336 81.3037 102.677C81.3037 105.019 83.2019 106.917 85.5435 106.917Z" stroke="#FD4525" stroke-width="0.448895" stroke-linecap="round" stroke-linejoin="round"/>
<path d="M62.9613 102.439L48.168 99.9229L48.4957 92.8281L63.289 95.3442L62.9613 102.439Z" fill="#FD4525" stroke="#FD4525" stroke-width="0.448895" stroke-linecap="round" stroke-linejoin="round"/>
<path d="M44.2643 92.191L39.6475 91.4593L39.7395 89.4617L44.3564 90.1911L44.2643 92.191Z" fill="#FD4525" stroke="#FD4525" stroke-width="0.448895" stroke-linecap="round" stroke-linejoin="round"/>
<path d="M38.4323 91.2927L33.8154 90.561L33.9075 88.5634L38.5243 89.2929L38.4323 91.2927Z" fill="#FD4525" stroke="#FD4525" stroke-width="0.448895" stroke-linecap="round" stroke-linejoin="round"/>
<path d="M94.4395 111.249L119.232 88.4023" stroke="#FD4525" stroke-width="0.448895" stroke-linecap="round" stroke-linejoin="round"/>
</svg>
