<svg width="150" height="150" viewBox="0 0 150 150" fill="none" xmlns="http://www.w3.org/2000/svg">
<path d="M78 48L59.5 47.5C55.6667 47.3333 47.2 46.9 44 46.5C40.8 46.1 39.8855 50.5 40.3855 52V77L27.5 89.5L28.5 101.5L29 103.5L22 111L65.5 116.5L68 113.5V114L78.5273 114.915C79.0682 114.962 79.5479 114.569 79.6078 114.03L80 110.5L94 91.5L98 86.5L105.5 75L98 68L104.5 61.5L107 59.5L107.5 52.5L104.5 49L97 48.5L86 51L81.5 52L78.5 48H78Z" fill="#FAF4F4"/>
<path d="M79.9819 96.2184L27.4863 89.4073L40.278 77.4463L90.9461 84.2574L79.9819 96.2184Z" stroke="#FD4525" stroke-width="0.33225" stroke-linecap="round" stroke-linejoin="round"/>
<path d="M79.8107 102.559L27.9863 95.2217" stroke="#FD4525" stroke-width="0.33225" stroke-linecap="round" stroke-linejoin="round"/>
<path d="M30.4795 99.042L77.9913 105.521" stroke="#FD4525" stroke-width="0.33225" stroke-linecap="round" stroke-linejoin="round"/>
<path d="M43.1025 46.7129L88.7604 53.0605C91.337 53.4227 93.2591 55.6205 93.2723 58.2237L93.4318 87.8621" stroke="#FD4525" stroke-width="0.33225" stroke-linecap="round" stroke-linejoin="round"/>
<path d="M40.7793 48.8721L60.3821 51.5301" stroke="#FD4525" stroke-width="0.33225" stroke-linecap="round" stroke-linejoin="round"/>
<path d="M76.9541 49.703L93.766 52.0636C96.3426 52.4258 98.2646 54.6236 98.2779 57.2268L97.9158 83.2603L105.391 74.9025L105.18 85.4066C105.106 86.1658 104.77 86.8768 104.232 87.4184L80.0756 114.389C79.6038 114.864 78.916 115.058 78.2648 114.899L67.8455 113.827" stroke="#FD4525" stroke-width="0.33225" stroke-linecap="round" stroke-linejoin="round"/>
<path d="M40.4177 77.4456L40.2865 50.5765C40.2798 49.5598 40.6088 48.5597 41.2616 47.7806C41.7118 47.244 42.3481 46.7539 43.2352 46.5612L49.6227 46.1542C50.5663 46.0944 51.5149 46.1293 52.4518 46.2622L55.658 46.7124" stroke="#FD4525" stroke-width="0.33225" stroke-linecap="round" stroke-linejoin="round"/>
<path d="M79.9826 96.2178L79.3181 114.658" stroke="#FD4525" stroke-width="0.33225" stroke-linecap="round" stroke-linejoin="round"/>
<path d="M27.4863 89.4072L28.8153 103.528" stroke="#FD4525" stroke-width="0.33225" stroke-linecap="round" stroke-linejoin="round"/>
<path d="M79.9834 102.531L105.394 74.9043" stroke="#FD4525" stroke-width="0.33225" stroke-linecap="round" stroke-linejoin="round"/>
<path d="M85.9668 50.8656L96.039 48.9469C96.3014 48.8971 96.5673 48.8788 96.8347 48.8937L102.75 49.2044C104.518 49.2974 105.903 50.7577 105.903 52.5269V58.4924C105.903 59.4975 105.448 60.4494 104.666 61.0807L98.089 68.0912L105.398 74.9023" stroke="#FD4525" stroke-width="0.33225" stroke-linecap="round" stroke-linejoin="round"/>
<path d="M93.4639 49.4352L94.1167 48.7109C95.1567 47.558 96.6767 46.9583 98.2234 47.0929L105.839 47.7524C108.465 47.98 110.453 50.226 110.362 52.8607L110.221 56.8843C110.128 59.5506 107.938 61.6654 105.27 61.6654H104.186" stroke="#FD4525" stroke-width="0.33225" stroke-linecap="round" stroke-linejoin="round"/>
<path d="M55.6584 46.711C55.7947 46.6163 57.436 46.3572 58.8115 46.1545C60.0525 45.9701 61.3134 45.9518 62.5593 46.0997L78.4193 47.9736C78.6319 47.9985 78.7116 48.2676 78.5455 48.4038L76.959 49.7013" stroke="#FD4525" stroke-width="0.33225" stroke-linecap="round" stroke-linejoin="round"/>
<path d="M78.6562 48.2078L80.0201 50.1332" stroke="#FD4525" stroke-width="0.33225" stroke-linecap="round" stroke-linejoin="round"/>
<path d="M63.1275 74.1951C67.2995 72.9578 69.4884 67.9315 68.0164 62.9688C66.5445 58.006 61.9692 54.986 57.7972 56.2234C53.6252 57.4608 51.4364 62.487 52.9083 67.4497C54.3802 72.4125 58.9555 75.4325 63.1275 74.1951Z" stroke="#FD4525" stroke-width="0.33225" stroke-linecap="round" stroke-linejoin="round"/>
<path d="M63.7434 76.2621C68.8759 74.7399 71.5689 68.5571 69.7584 62.4526C67.9478 56.3481 62.3194 52.6335 57.1868 54.1558C52.0543 55.6781 49.3613 61.8608 51.1718 67.9653C52.9824 74.0698 58.6109 77.7844 63.7434 76.2621Z" stroke="#FD4525" stroke-width="0.33225" stroke-linecap="round" stroke-linejoin="round"/>
<path d="M53.0713 56.8461C55.0116 54.5469 57.6497 52.6963 60.713 52.6963C66.5856 52.6963 71.3451 57.9758 71.3451 64.4895C71.3451 67.6908 70.3882 70.6694 68.5209 72.7941" stroke="#FD4525" stroke-width="0.33225" stroke-linecap="round" stroke-linejoin="round"/>
<path d="M54.0674 55.8496C56.237 53.2448 59.2372 51.3643 62.7557 51.3643C69.2977 51.3643 74.6005 57.0374 74.6005 64.0346C74.6005 71.0318 69.0818 76.6153 62.5414 76.6153" stroke="#FD4525" stroke-width="0.33225" stroke-linecap="round" stroke-linejoin="round"/>
<path d="M63.7882 57.1982C62.3263 58.288 61.3777 60.0323 61.3777 61.9959C61.3777 65.2984 64.0556 67.9764 67.3582 67.9764C67.6605 67.9764 67.9579 67.9548 68.247 67.9099C68.247 67.9099 69.3268 64.5243 67.1788 60.9343C65.3647 58.0089 63.7865 57.1982 63.7865 57.1982H63.7882Z" fill="#FD4525" stroke="#FD4525" stroke-width="0.33225" stroke-linecap="round" stroke-linejoin="round"/>
<path d="M62.7927 61.83C63.3891 61.83 63.8725 61.1978 63.8725 60.4179C63.8725 59.6381 63.3891 59.0059 62.7927 59.0059C62.1963 59.0059 61.7129 59.6381 61.7129 60.4179C61.7129 61.1978 62.1963 61.83 62.7927 61.83Z" fill="#FAF4F4" stroke="#FD4525" stroke-width="0.33225" stroke-linecap="round" stroke-linejoin="round"/>
<path d="M63.8521 64.6988C64.2526 64.5985 64.471 64.093 64.34 63.5697C64.2089 63.0464 63.778 62.7034 63.3775 62.8037C62.977 62.904 62.7586 63.4096 62.8896 63.9329C63.0207 64.4562 63.4516 64.7991 63.8521 64.6988Z" fill="#FAF4F4" stroke="#FD4525" stroke-width="0.33225" stroke-linecap="round" stroke-linejoin="round"/>
<path d="M68.0527 52.6631L88.8317 55.2447C89.5111 55.3294 90.1308 55.6799 90.5378 56.2298C91.0561 56.9308 91.5976 58.0572 91.4897 59.6254C91.2803 62.6605 90.9481 84.2568 90.9481 84.2568" stroke="#FD4525" stroke-width="0.33225" stroke-linecap="round" stroke-linejoin="round"/>
<path d="M47.5894 73.3761C49.6996 73.3761 51.4103 71.6655 51.4103 69.5553C51.4103 67.445 49.6996 65.7344 47.5894 65.7344C45.4792 65.7344 43.7686 67.445 43.7686 69.5553C43.7686 71.6655 45.4792 73.3761 47.5894 73.3761Z" fill="#FD4525" stroke="#FD4525" stroke-width="0.33225" stroke-linecap="round" stroke-linejoin="round"/>
<path d="M79.2882 80.7091C81.4542 80.3131 82.849 78.0167 82.4036 75.5798C81.9581 73.143 79.841 71.4886 77.6749 71.8846C75.5089 72.2806 74.1141 74.577 74.5595 77.0138C75.005 79.4506 77.1221 81.1051 79.2882 80.7091Z" stroke="#FD4525" stroke-width="0.33225" stroke-linecap="round" stroke-linejoin="round"/>
<path d="M75.832 72.7946C76.4234 72.1052 77.5913 71.1035 78.505 70.9373C80.859 70.5071 83.1698 72.3494 83.6632 75.0539C84.1582 77.7584 82.6498 80.2985 80.2958 80.7288C80.123 80.7603 79.4918 80.762 79.3207 80.7686" stroke="#FD4525" stroke-width="0.33225" stroke-linecap="round" stroke-linejoin="round"/>
<path d="M78.0635 80.1987C79.6429 79.9097 80.6354 78.1024 80.2803 76.1621C79.9252 74.2217 78.357 72.883 76.7777 73.172C75.1983 73.461 74.2058 75.2683 74.5609 77.2087C74.916 79.149 76.4841 80.4877 78.0635 80.1987Z" fill="#FD4525" stroke="#FD4525" stroke-width="0.33225" stroke-linecap="round" stroke-linejoin="round"/>
<path d="M52.5733 71.1615C51.8623 72.9922 50.0848 74.2897 48.0032 74.2897C45.2971 74.2897 43.1025 72.0952 43.1025 69.389C43.1025 66.6828 45.2971 64.4883 48.0032 64.4883C48.9684 64.4883 49.8688 64.7674 50.628 65.2491" stroke="#FD4525" stroke-width="0.33225" stroke-linecap="round" stroke-linejoin="round"/>
<path d="M42.1062 61.8298V56.5138L52.2398 58.1751" stroke="#FD4525" stroke-width="0.33225" stroke-linecap="round" stroke-linejoin="round"/>
<path d="M42.1062 61.9963L50.5786 63.3851" stroke="#FD4525" stroke-width="0.33225" stroke-linecap="round" stroke-linejoin="round"/>
<path d="M79.123 71.9023L79.9836 70.957" stroke="#FD4525" stroke-width="0.33225" stroke-linecap="round" stroke-linejoin="round"/>
<path d="M81.292 73.2248L82.3137 72.3145" stroke="#FD4525" stroke-width="0.33225" stroke-linecap="round" stroke-linejoin="round"/>
<path d="M82.4766 75.2856L83.4733 74.6211" stroke="#FD4525" stroke-width="0.33225" stroke-linecap="round" stroke-linejoin="round"/>
<path d="M82.4766 77.2L83.7474 76.3877" stroke="#FD4525" stroke-width="0.33225" stroke-linecap="round" stroke-linejoin="round"/>
<path d="M81.416 79.4678H82.3147" stroke="#FD4525" stroke-width="0.33225" stroke-linecap="round" stroke-linejoin="round"/>
<path d="M33 99.5L22 110.954L65.1925 116.602L75.4989 105.189" stroke="#FD4525" stroke-width="0.33225" stroke-miterlimit="10"/>
<path d="M36.1464 99.9248L31.1377 105.472L67.5191 109.957L72.0111 104.857" stroke="#FD4525" stroke-width="0.33225" stroke-miterlimit="10"/>
<path d="M58.3262 56.0955C55.944 57.8714 54.4023 60.7105 54.4023 63.9084C54.4023 69.2875 58.7631 73.6466 64.1406 73.6466" stroke="#FD4525" stroke-width="0.33225" stroke-linecap="round" stroke-linejoin="round"/>
<path d="M104.484 87.0013L79.7932 114.57C79.632 114.751 79.3313 114.63 79.3413 114.387L79.8114 102.481L105.395 74.9041L105.087 85.5079C105.071 86.0611 104.856 86.591 104.484 87.0013Z" fill="#FD4525"/>
<path d="M93.461 90.2242L93.2733 58.2218C93.2733 58.2218 92.8946 53.4756 88.7614 53.0587C84.6282 52.6417 43.1035 46.711 43.1035 46.711L50.5791 46L55.6559 46.7094L60.4586 46L69.2749 46.711L78.5413 48.0666C78.759 48.0982 78.8271 48.3806 78.646 48.5068L76.9548 49.6996L94.4296 52.1981C94.4296 52.1981 99.5877 53.572 98.2538 59.0043L97.8434 86.8302L93.461 90.2225V90.2242Z" fill="#FD4525"/>
<path d="M54.7753 66.5898C54.7753 66.5898 53.2851 59.0494 58.3254 56.0957C58.3254 56.0957 52.9977 56.5658 52.4512 64.4883C52.4512 64.4883 52.9529 71.8444 58.3254 73.8728C58.3254 73.8728 61.9236 75.2167 64.1397 73.6485C64.1397 73.6485 56.8153 74.2249 54.7753 66.5915V66.5898Z" fill="#FD4525"/>
<path d="M67.5201 109.957L31.1387 105.471L36.1224 99.9893L72.0055 104.807L67.5201 109.957Z" fill="#FD4525"/>
<path d="M57.0546 93.1779L43.9307 91.3505L56.5562 79.3895L67.6866 81.0507L57.0546 93.1779Z" fill="#FD4525"/>
<path d="M57.0546 99.3245L44.0968 97.4972L43.9307 91.3505L57.0546 93.1779V99.3245Z" fill="#FD4525"/>
<path d="M44.0098 91.5996L57.1337 93.2609" stroke="#FAF4F4" stroke-width="0.33225" stroke-miterlimit="10"/>
<path d="M93.6584 49.1178L95.931 47.3004L98.9544 47.1525L106.345 47.8503C106.345 47.8503 110.155 48.3686 110.351 53.1629C110.547 57.9573 109.623 58.9956 109.586 59.1401C109.55 59.2847 107.556 62.1088 104.327 61.6619C104.327 61.6619 104.392 61.4675 104.564 61.2782C104.875 60.9376 105.593 60.3728 105.893 59.1185C106.094 58.2796 105.993 57.0785 105.893 55.6299C105.692 52.7161 106.048 52.1629 105.727 51.3106C105.337 50.274 104.221 49.2789 103.402 49.151C101.91 48.9168 96.2582 48.8188 96.2582 48.8188L93.7896 49.3537C93.6501 49.3886 93.5554 49.2158 93.66 49.1161L93.6584 49.1178Z" fill="#FD4525"/>
</svg>
