<svg width="200" height="200" viewBox="0 0 200 200" fill="none" xmlns="http://www.w3.org/2000/svg">
<ellipse cx="101" cy="93.5" rx="13" ry="2.5" fill="#FAF4F4"/>
<path fill-rule="evenodd" clip-rule="evenodd" d="M114.926 38.6698C114.975 38.1215 115 37.5644 115 37C115 28.7157 109.627 22 103 22C99.6776 22 96.6706 23.6877 94.4977 26.4147C93.7457 26.5737 93.0141 26.7764 92.3069 27.0196C90.9785 26.9376 89.628 27.1047 88.3107 27.5518C82.3767 29.5659 79.3648 36.4981 81.5836 43.0354C82.5838 45.9821 84.4759 48.3456 86.7963 49.8685C89.785 52.4202 93.9251 54 98.5 54C107.613 54 115 47.732 115 40C115 39.5513 114.975 39.1076 114.926 38.6698Z" fill="#FAF4F4"/>
<path fill-rule="evenodd" clip-rule="evenodd" d="M90.8594 36.5012C91.6632 36.8938 92.4419 37.3655 93.1836 37.9115C93.2361 37.8842 93.2889 37.8572 93.3419 37.8306C95.5133 36.7432 97.8866 36.4052 100.22 36.7175C100.74 34.9013 101.539 33.2448 102.548 31.8005C100.824 30.7987 98.726 30.437 96.637 30.9484C93.7553 31.6538 91.6254 33.841 90.8594 36.5012Z" fill="#FD4525"/>
<path d="M105.474 56.1539C105.474 56.1539 108.727 65.0243 105.158 75.3003C101.589 85.5764 94.8808 94.3619 99.9152 116.099C104.949 137.836 99.1427 148.763 99.1427 148.763" stroke="#FD4525" stroke-width="0.653436" stroke-miterlimit="10" stroke-linecap="round"/>
<path d="M80.928 127.902C80.928 127.763 80.9387 127.62 80.9387 127.485C81.2022 122.004 85.0021 117.236 90.5933 114.547C87.5769 103.984 86.9857 93.5 86.9857 93.5H86.9928C87.1353 94.8818 93.3924 95.9964 101.099 95.9964C108.806 95.9964 115.063 94.8818 115.205 93.5H115.212C115.212 93.5 114.625 103.984 111.605 114.547C117.196 117.236 120.996 122.004 121.259 127.485C121.259 127.485 121.259 127.492 121.259 127.496C121.27 127.695 121.273 127.895 121.273 128.094C121.273 128.411 121.259 128.724 121.234 129.038C120.928 140.872 119.29 162.022 111.238 178.414C111.238 178.414 105.921 179.921 101.103 179.921C96.2841 179.921 90.9423 178.414 90.9423 178.414C82.7336 161.705 81.1097 140.053 80.9316 128.361C80.9316 128.272 80.9245 128.183 80.9245 128.094C80.9245 128.03 80.9245 127.966 80.928 127.902Z" fill="#FD4525"/>
<path fill-rule="evenodd" clip-rule="evenodd" d="M101.059 54.2556C101.061 54.2658 101.063 54.276 101.066 54.2862C101.493 56.0298 103.252 57.0973 104.996 56.6705C106.74 56.2436 107.807 54.4841 107.38 52.7404C107.311 52.4566 107.206 52.1907 107.072 51.9463C106.176 52.4983 105.217 52.9763 104.2 53.3689C103.163 53.7687 102.112 54.0625 101.059 54.2556Z" fill="#FD4525"/>
<path d="M93.4323 29.0027C94.1865 30.6657 94.947 31.9421 95.7098 33.0067" stroke="#FD4525" stroke-width="0.653436" stroke-miterlimit="10" stroke-linecap="round"/>
<path d="M101.968 29.8613C101.624 30.6929 101.216 31.4829 100.778 32.2557" stroke="#FD4525" stroke-width="0.653436" stroke-miterlimit="10" stroke-linecap="round"/>
<path d="M98.1484 27.7168C98.1572 29.3566 98.1639 30.874 98.1722 32.2933" stroke="#FD4525" stroke-width="0.653436" stroke-miterlimit="10" stroke-linecap="round"/>
<path d="M90.0027 30.7179C91.1398 32.0389 92.5879 33.2016 94.1921 34.2872" stroke="#FD4525" stroke-width="0.653436" stroke-miterlimit="10" stroke-linecap="round"/>
<path d="M88.7162 34.148C90.1248 34.6566 91.6476 35.2065 93.3231 35.81" stroke="#FD4525" stroke-width="0.653436" stroke-miterlimit="10" stroke-linecap="round"/>
<path d="M102.885 29.9032C102.242 30.0607 101.592 29.6668 101.435 29.0234C101.277 28.38 101.671 27.7308 102.315 27.5733C102.958 27.4158 103.607 27.8097 103.765 28.453C103.922 29.0964 103.528 29.7457 102.885 29.9032Z" fill="#FD4525"/>
<path d="M93.4533 29.9032C92.8099 30.0607 92.1606 29.6668 92.0031 29.0234C91.8456 28.38 92.2395 27.7308 92.8829 27.5733C93.5263 27.4158 94.1755 27.8097 94.333 28.453C94.4905 29.0964 94.0966 29.7457 93.4533 29.9032Z" fill="#FD4525"/>
<path d="M98.1693 28.617C97.5259 28.7745 96.8767 28.3806 96.7192 27.7372C96.5617 27.0938 96.9556 26.4446 97.599 26.2871C98.2423 26.1296 98.8916 26.5235 99.0491 27.1669C99.2066 27.8102 98.8127 28.4595 98.1693 28.617Z" fill="#FD4525"/>
<path d="M90.0236 31.619C89.3802 31.7765 88.7309 31.3826 88.5734 30.7392C88.4159 30.0958 88.8098 29.4466 89.4532 29.2891C90.0966 29.1316 90.7458 29.5255 90.9033 30.1689C91.0608 30.8123 90.667 31.4615 90.0236 31.619Z" fill="#FD4525"/>
<path d="M88.3077 35.0477C87.6644 35.2052 87.0151 34.8113 86.8576 34.1679C86.7001 33.5246 87.094 32.8753 87.7374 32.7178C88.3808 32.5603 89.03 32.9542 89.1875 33.5976C89.345 34.241 88.9511 34.8902 88.3077 35.0477Z" fill="#FD4525"/>
<path d="M100.004 38.2051C101.314 31.8262 105.992 27.1347 111.372 26.1522C111.966 26.8741 112.509 27.6482 112.987 28.4743C113.461 29.3699 113.91 30.3648 114.354 31.456C117.362 40.0561 113.193 49.529 104.834 53.1251C100.841 49.9286 98.7821 44.1652 100.004 38.2051Z" stroke="#FD4525" stroke-width="0.96" stroke-miterlimit="10"/>
<path d="M87.471 93.4536C87.4745 93.467 87.4942 93.5181 87.5947 93.6068C87.7283 93.7245 87.9532 93.8605 88.288 94.0033C88.9537 94.2872 89.9464 94.5539 91.2095 94.7818C93.7277 95.2361 97.2261 95.5199 101.104 95.5199C104.982 95.5199 108.48 95.2361 110.998 94.7818C112.261 94.5539 113.254 94.2872 113.92 94.0033C114.254 93.8605 114.479 93.7245 114.613 93.6068C114.713 93.5181 114.733 93.467 114.737 93.4536C114.733 93.4403 114.713 93.3891 114.613 93.3005C114.479 93.1828 114.254 93.0468 113.92 92.904C113.254 92.6201 112.261 92.3534 110.998 92.1255C108.48 91.6712 104.982 91.3873 101.104 91.3873C97.2261 91.3873 93.7277 91.6712 91.2095 92.1255C89.9464 92.3534 88.9537 92.6201 88.288 92.904C87.9532 93.0468 87.7283 93.1828 87.5947 93.3005C87.4942 93.3891 87.4745 93.4403 87.471 93.4536ZM114.737 93.4501C114.737 93.4501 114.737 93.4506 114.737 93.4515L114.737 93.4501ZM114.737 93.4572C114.737 93.4572 114.737 93.4567 114.737 93.4558L114.737 93.4572ZM87.4705 93.4558C87.4703 93.4567 87.4703 93.4571 87.4703 93.4572L87.4705 93.4558ZM87.4703 93.4501C87.4703 93.4501 87.4703 93.4506 87.4705 93.4515L87.4703 93.4501Z" stroke="#FD4525" stroke-width="0.96" stroke-miterlimit="10"/>
<path d="M105.474 56.1538C105.474 56.1538 108.727 65.0242 105.158 75.3003C103.117 81.1779 100.048 86.5679 98.7376 94.1726" stroke="#FD4525" stroke-width="0.96" stroke-miterlimit="10" stroke-linecap="round"/>
<path d="M104.206 53.3655C95.5343 56.7128 85.8262 52.6317 82.0928 44.2319C79.9742 38.2187 79.8141 33.6029 84.2006 29.7643C86.963 27.3462 90.4624 26.0499 94.0652 27.0106C96.0879 23.878 99.5869 22.4741 103.258 22.4101C105.663 22.3673 107.526 22.841 109.058 23.8143C110.602 25.0963 111.938 26.6573 112.981 28.4597C113.455 29.3553 113.904 30.3502 114.347 31.4414C117.43 40.2515 112.978 49.9802 104.207 53.365L104.206 53.3655Z" stroke="#FD4525" stroke-width="0.96" stroke-miterlimit="10"/>
<path fill-rule="evenodd" clip-rule="evenodd" d="M80.659 35.8788C84.8515 34.1683 89.634 35.0462 93.4406 37.8449L93.5354 37.9147C93.5165 37.9241 93.4975 37.9335 93.4786 37.943C93.3036 38.0306 93.1318 38.1222 92.963 38.2176L93.0362 38.0812C89.3924 35.4695 84.8906 34.6687 80.941 36.2276C80.7354 38.5332 81.2925 41.1137 82.3286 44.0543L82.3333 44.0676C83.3681 46.3848 84.8638 48.3678 86.6691 49.9499L86.7248 49.846C86.7259 49.9987 86.7292 50.1518 86.7348 50.3052C86.7874 50.35 86.8403 50.3944 86.8935 50.4384L86.795 50.6221L86.5928 50.4503C84.642 48.7935 83.0288 46.6884 81.9288 44.2131L81.8246 43.9788L81.8463 43.9735C80.8333 41.0478 80.2848 38.4275 80.5267 36.0555L80.5398 35.9274L80.659 35.8788Z" fill="#FD4525"/>
<path d="M93.4406 37.8449L93.5887 37.6435L93.5886 37.6435L93.4406 37.8449ZM80.659 35.8788L80.7535 36.1103L80.7535 36.1103L80.659 35.8788ZM93.5354 37.9147L93.6462 38.1388L94.0147 37.9568L93.6835 37.7133L93.5354 37.9147ZM93.4786 37.943L93.5905 38.1665L93.5906 38.1665L93.4786 37.943ZM92.963 38.2176L92.7427 38.0994L92.3346 38.8601L93.0861 38.4352L92.963 38.2176ZM93.0362 38.0812L93.2565 38.1994L93.3603 38.0059L93.1818 37.878L93.0362 38.0812ZM80.941 36.2276L80.8492 35.9951L80.7057 36.0517L80.692 36.2054L80.941 36.2276ZM82.3286 44.0543L82.0929 44.1374L82.0929 44.1374L82.3286 44.0543ZM82.3333 44.0676L82.0975 44.1507L82.1009 44.1603L82.105 44.1695L82.3333 44.0676ZM86.6691 49.9499L86.5043 50.1379L86.7407 50.3451L86.8894 50.0681L86.6691 49.9499ZM86.7248 49.846L86.9748 49.8442L86.9679 48.8641L86.5045 49.7278L86.7248 49.846ZM86.7348 50.3052L86.4849 50.3143L86.4889 50.4244L86.5729 50.4958L86.7348 50.3052ZM86.8935 50.4384L87.1138 50.5566L87.2105 50.3765L87.0531 50.246L86.8935 50.4384ZM86.795 50.6221L86.6332 50.8126L86.869 51.0129L87.0153 50.7403L86.795 50.6221ZM86.5928 50.4503L86.4309 50.6409L86.5928 50.4503ZM81.9288 44.2131L81.7003 44.3146L81.9288 44.2131ZM81.8246 43.9788L81.7652 43.7359L81.4747 43.807L81.5962 44.0803L81.8246 43.9788ZM81.8463 43.9735L81.9057 44.2163L82.1723 44.1511L82.0825 43.8917L81.8463 43.9735ZM80.5267 36.0555L80.7755 36.0809L80.7755 36.0809L80.5267 36.0555ZM80.5398 35.9274L80.4454 35.696L80.3063 35.7527L80.2911 35.9021L80.5398 35.9274ZM93.5886 37.6435C89.7239 34.8019 84.8504 33.8987 80.5646 35.6473L80.7535 36.1103C84.8526 34.4378 89.5442 35.2904 93.2925 38.0463L93.5886 37.6435ZM93.6835 37.7133L93.5887 37.6435L93.2925 38.0463L93.3874 38.1161L93.6835 37.7133ZM93.5906 38.1665C93.6091 38.1572 93.6276 38.148 93.6462 38.1388L93.4247 37.6905C93.4054 37.7001 93.386 37.7097 93.3667 37.7194L93.5906 38.1665ZM93.0861 38.4352C93.2512 38.3418 93.4193 38.2522 93.5905 38.1665L93.3667 37.7194C93.1879 37.8089 93.0124 37.9025 92.84 37.9999L93.0861 38.4352ZM92.8159 37.963L92.7427 38.0994L93.1833 38.3357L93.2565 38.1994L92.8159 37.963ZM81.0328 36.4602C84.8912 34.9373 89.3044 35.7141 92.8906 38.2844L93.1818 37.878C89.4803 35.225 84.8899 34.4002 80.8492 35.9951L81.0328 36.4602ZM82.5644 43.9713C81.5325 41.0424 80.9891 38.5022 81.19 36.2498L80.692 36.2054C80.4816 38.5641 81.0525 41.1849 82.0929 44.1374L82.5644 43.9713ZM82.5691 43.9845L82.5644 43.9713L82.0929 44.1374L82.0975 44.1507L82.5691 43.9845ZM86.8338 49.7619C85.0551 48.203 83.5813 46.2491 82.5616 43.9657L82.105 44.1695C83.1549 46.5204 84.6726 48.5325 86.5043 50.1379L86.8338 49.7619ZM86.5045 49.7278L86.4488 49.8317L86.8894 50.0681L86.9451 49.9642L86.5045 49.7278ZM86.9846 50.2962C86.9791 50.1452 86.9759 49.9945 86.9748 49.8442L86.4748 49.8478C86.4759 50.0029 86.4793 50.1585 86.4849 50.3143L86.9846 50.2962ZM87.0531 50.246C87.0007 50.2025 86.9485 50.1588 86.8966 50.1147L86.5729 50.4958C86.6264 50.5412 86.68 50.5862 86.734 50.6309L87.0531 50.246ZM87.0153 50.7403L87.1138 50.5566L86.6732 50.3203L86.5747 50.5039L87.0153 50.7403ZM86.4309 50.6409L86.6332 50.8126L86.9568 50.4315L86.7546 50.2598L86.4309 50.6409ZM81.7003 44.3146C82.816 46.8251 84.4522 48.9603 86.4309 50.6409L86.7546 50.2598C84.8317 48.6267 83.2417 46.5518 82.1572 44.1116L81.7003 44.3146ZM81.5962 44.0803L81.7003 44.3146L82.1572 44.1116L82.0531 43.8772L81.5962 44.0803ZM81.7868 43.7307L81.7652 43.7359L81.8841 44.2216L81.9057 44.2163L81.7868 43.7307ZM80.278 36.0302C80.0306 38.4559 80.5927 41.117 81.61 44.0553L82.0825 43.8917C81.0739 40.9785 80.539 38.3992 80.7755 36.0809L80.278 36.0302ZM80.2911 35.9021L80.278 36.0302L80.7755 36.0809L80.7885 35.9528L80.2911 35.9021ZM80.5646 35.6473L80.4454 35.696L80.6343 36.1589L80.7535 36.1103L80.5646 35.6473Z" fill="#FD4525"/>
<path fill-rule="evenodd" clip-rule="evenodd" d="M104.254 52.5833L104.349 52.935C104.249 52.9755 104.149 53.0152 104.048 53.0541C98.0106 55.384 91.4631 54.0681 86.8336 50.1802C86.6784 45.0409 89.082 40.3051 93.4624 38.1119L93.4624 38.1119C95.5492 37.0668 97.8272 36.7263 100.076 37.0015L100.133 37.2138C100.187 37.0068 100.244 36.8018 100.305 36.5988L100.274 36.5947C97.9005 36.2768 95.4832 36.6204 93.2704 37.7285C88.6863 40.0237 86.2156 44.9788 86.4083 50.2902L86.4117 50.3847L86.4838 50.4459C91.2321 54.4786 97.9812 55.8549 104.203 53.4541C104.366 53.3911 104.527 53.326 104.687 53.2588L104.86 53.1864L104.811 53.0057L104.807 52.989C104.791 52.996 104.775 53.003 104.759 53.0099C104.587 52.8724 104.419 52.7301 104.254 52.5833Z" fill="#FD4525"/>
<path d="M104.254 52.5833L104.421 52.3968L103.796 51.839L104.013 52.6481L104.254 52.5833ZM104.349 52.935L104.443 53.1665L104.647 53.0833L104.59 52.8702L104.349 52.935ZM104.048 53.0541L104.138 53.2873L104.138 53.2873L104.048 53.0541ZM86.8336 50.1802L86.5837 50.1877L86.5871 50.2996L86.6728 50.3716L86.8336 50.1802ZM93.4624 38.1119L93.3506 37.8883L93.3504 37.8883L93.4624 38.1119ZM93.4624 38.1119L93.5742 38.3355L93.5743 38.3354L93.4624 38.1119ZM100.076 37.0015L100.317 36.9368L100.274 36.7739L100.106 36.7534L100.076 37.0015ZM100.133 37.2138L99.8913 37.2785L100.137 38.193L100.375 37.2767L100.133 37.2138ZM100.305 36.5988L100.544 36.6706L100.629 36.3899L100.338 36.351L100.305 36.5988ZM100.274 36.5947L100.307 36.3469L100.274 36.5947ZM93.2704 37.7285L93.3823 37.9521L93.3823 37.9521L93.2704 37.7285ZM86.4083 50.2902L86.1585 50.2993H86.1585L86.4083 50.2902ZM86.4117 50.3847L86.1619 50.3938L86.1659 50.5039L86.2499 50.5752L86.4117 50.3847ZM86.4838 50.4459L86.6456 50.2553L86.6456 50.2553L86.4838 50.4459ZM104.203 53.4541L104.293 53.6873L104.293 53.6873L104.203 53.4541ZM104.687 53.2588L104.591 53.0283H104.591L104.687 53.2588ZM104.86 53.1864L104.957 53.4169L105.158 53.3324L105.101 53.1216L104.86 53.1864ZM104.811 53.0057L104.57 53.0704L104.57 53.0704L104.811 53.0057ZM104.807 52.989L105.048 52.9243L104.973 52.6444L104.707 52.7597L104.807 52.989ZM104.759 53.0099L104.602 53.2051L104.719 53.2989L104.857 53.2396L104.759 53.0099ZM104.013 52.6481L104.107 52.9997L104.59 52.8702L104.496 52.5186L104.013 52.6481ZM104.254 52.7035C104.156 52.7434 104.057 52.7825 103.958 52.8209L104.138 53.2873C104.24 53.2479 104.342 53.2076 104.443 53.1665L104.254 52.7035ZM103.958 52.8208C98.009 55.1167 91.5569 53.8204 86.9944 49.9887L86.6728 50.3716C91.3692 54.3157 98.0123 55.6513 104.138 53.2873L103.958 52.8208ZM87.0835 50.1726C86.9307 45.1123 89.2963 40.4774 93.5743 38.3354L93.3504 37.8883C88.8676 40.1329 86.4261 44.9696 86.5837 50.1877L87.0835 50.1726ZM93.5742 38.3355L93.5742 38.3355L93.3506 37.8883L93.3506 37.8883L93.5742 38.3355ZM93.5743 38.3354C95.6143 37.3138 97.8423 36.9801 100.045 37.2497L100.106 36.7534C97.8121 36.4726 95.4842 36.8198 93.3504 37.8883L93.5743 38.3354ZM99.8344 37.0663L99.8913 37.2785L100.374 37.149L100.317 36.9368L99.8344 37.0663ZM100.375 37.2767C100.428 37.0727 100.484 36.8706 100.544 36.6706L100.065 36.527C100.004 36.7329 99.9454 36.9409 99.8908 37.1509L100.375 37.2767ZM100.338 36.351L100.307 36.3469L100.241 36.8425L100.272 36.8466L100.338 36.351ZM100.307 36.3469C97.8875 36.0228 95.4192 36.3728 93.1585 37.505L93.3823 37.9521C95.5472 36.8679 97.9135 36.5308 100.241 36.8425L100.307 36.3469ZM93.1585 37.505C88.4713 39.8518 85.9629 44.9087 86.1585 50.2993L86.6581 50.2812C86.4683 45.0489 88.9014 40.1956 93.3823 37.9521L93.1585 37.505ZM86.1585 50.2993L86.1619 50.3938L86.6616 50.3756L86.6581 50.2812L86.1585 50.2993ZM86.2499 50.5752L86.3219 50.6364L86.6456 50.2553L86.5736 50.1941L86.2499 50.5752ZM86.3219 50.6364C91.1372 54.726 97.9824 56.1224 104.293 53.6873L104.113 53.2208C97.98 55.5874 91.3269 54.2312 86.6456 50.2553L86.3219 50.6364ZM104.293 53.6873C104.458 53.6235 104.622 53.5575 104.784 53.4893L104.591 53.0283C104.433 53.0946 104.273 53.1588 104.113 53.2208L104.293 53.6873ZM104.784 53.4893L104.957 53.4169L104.763 52.9559L104.591 53.0283L104.784 53.4893ZM105.101 53.1216L105.053 52.9409L104.57 53.0704L104.618 53.2511L105.101 53.1216ZM105.053 52.9409L105.048 52.9243L104.565 53.0538L104.57 53.0704L105.053 52.9409ZM104.707 52.7597C104.692 52.7666 104.676 52.7734 104.66 52.7803L104.857 53.2396C104.874 53.2325 104.89 53.2255 104.906 53.2184L104.707 52.7597ZM104.915 52.8148C104.747 52.6801 104.582 52.5407 104.421 52.3968L104.088 52.7698C104.256 52.9196 104.427 53.0647 104.602 53.2051L104.915 52.8148Z" fill="#FD4525"/>
</svg>
