<svg width="150" height="150" viewBox="0 0 150 150" fill="none" xmlns="http://www.w3.org/2000/svg">
<path d="M60 51L59 55L50.5 58.5L51 56L52 49L54 43.5L59.5 35L66 30L72.3044 28H77.5L77 29L71.5 32L68.5 35L65.5 38C64.8333 39.1667 63.5 41.6 63.5 42C63.5 42.4 62.1667 44.8333 61.5 46L60 51Z" fill="#FAF4F4"/>
<path d="M77.2682 78.6563C79.267 67.525 72.6833 57.028 62.5629 55.2107C52.4426 53.3934 42.6181 60.944 40.6192 72.0753C38.6204 83.2067 45.2042 93.7037 55.3245 95.521C65.4448 97.3383 75.2694 89.7877 77.2682 78.6563Z" fill="#FAF4F4" stroke="#FD4525" stroke-width="0.615865" stroke-miterlimit="10" stroke-linecap="round"/>
<path d="M66.6533 83.4438C65.6218 84.189 64.4793 84.5246 63.3492 84.3214C60.35 83.7825 58.5855 79.6408 59.4046 75.0711C60.2237 70.5014 63.3215 67.2311 66.3208 67.77C67.4447 67.9732 68.3962 68.6815 69.1014 69.7285" stroke="#FD4525" stroke-width="0.615865" stroke-miterlimit="10" stroke-linecap="round"/>
<path d="M64.3022 67.9601C66.1406 69.5121 67.0551 72.7916 66.4208 76.3298C65.7864 79.8679 63.788 82.627 61.5247 83.4399" stroke="#FD4525" stroke-width="0.615865" stroke-miterlimit="10" stroke-linecap="round"/>
<path d="M49.917 73.7344C50.4651 66.0731 55.9648 58.6088 62.0095 57.8574" stroke="#FD4525" stroke-width="0.615865" stroke-miterlimit="10" stroke-linecap="round"/>
<path d="M60.2897 92.977C56.419 92.4412 51.8585 88.2102 50.71 83.4403" stroke="#FD4525" stroke-width="0.615865" stroke-miterlimit="10" stroke-linecap="round"/>
<path d="M59.2041 54.9318C61.1502 41.5583 68.7839 31.1132 78.3852 28.8438" stroke="#FD4525" stroke-width="0.615865" stroke-miterlimit="10" stroke-linecap="round"/>
<path d="M85.9157 99.0894C83.1566 98.9139 80.4468 98.0948 77.9834 96.5798C69.2258 91.194 66.9286 79.0153 72.8563 69.3832C78.7809 59.7511 90.6856 56.3084 99.4432 61.6941C108.201 67.0798 110.498 79.2586 104.57 88.8907C101.165 94.4273 95.7819 97.9223 90.159 98.8646" fill="#FAF4F4"/>
<path d="M85.9157 99.0894C83.1566 98.9139 80.4468 98.0948 77.9834 96.5798C69.2258 91.194 66.9286 79.0153 72.8563 69.3832C78.7809 59.7511 90.6856 56.3084 99.4432 61.6941C108.201 67.0798 110.498 79.2586 104.57 88.8907C101.165 94.4273 95.7819 97.9223 90.159 98.8646" stroke="#FD4525" stroke-width="0.615865" stroke-miterlimit="10"/>
<path d="M104.119 89.6134C108.706 82.1565 106.93 72.7307 100.151 68.5602C93.3719 64.3898 84.1576 67.0539 79.5701 74.5108C74.9826 81.9677 76.7591 91.3935 83.5381 95.564C90.3171 99.7344 99.5315 97.0703 104.119 89.6134Z" stroke="#FD4525" stroke-width="0.615865" stroke-miterlimit="10" stroke-linecap="round"/>
<path d="M50.1572 57.5798C51.7277 41.3518 61.5938 28.8467 73.5293 28.8467C86.5579 28.8467 97.1169 43.7445 97.1169 62.1188C97.1169 66.359 96.5534 70.4145 95.531 74.1435" stroke="#FD4525" stroke-width="0.615865" stroke-miterlimit="10" stroke-linecap="round"/>
<path d="M50.1572 56.7332C51.7277 40.5051 61.5938 28 73.5293 28C86.5579 28 97.1169 42.8978 97.1169 61.2721C97.1169 65.5123 96.5534 69.5678 95.531 73.2968" stroke="#FD4525" stroke-width="0.615865" stroke-miterlimit="10" stroke-linecap="round"/>
<path d="M51.0752 57.0505C52.6457 40.8225 62.5118 28.3174 74.4473 28.3174C87.4759 28.3174 98.0349 43.2152 98.0349 61.5895C98.0349 65.8297 97.4714 69.8852 96.449 73.6142" stroke="#FD4525" stroke-width="0.615865" stroke-miterlimit="10" stroke-linecap="round"/>
<path d="M95.924 73.7366C96.9494 70.0075 97.5099 65.9521 97.5099 61.7118C97.5099 43.3344 86.6614 28.0518 73.6328 28.0518H81.9901C95.0187 28.0518 105.578 43.0604 105.578 61.5763C105.578 67.1068 104.58 72.3047 102.966 76.9237C105.159 79.9291 105.27 84.4619 102.929 88.2679C99.9579 93.0994 94.1657 94.9316 89.9902 92.3665C85.8146 89.8014 84.8415 83.7998 87.81 78.9714C89.7315 75.8459 92.8385 73.9737 95.9209 73.7397" fill="#FD4525"/>
<path d="M95.924 73.7366C96.9494 70.0075 97.5099 65.9521 97.5099 61.7118C97.5099 43.3344 86.6614 28.0518 73.6328 28.0518H81.9901C95.0187 28.0518 105.578 43.0604 105.578 61.5763C105.578 67.1068 104.58 72.3047 102.966 76.9237C105.159 79.9291 105.27 84.4619 102.929 88.2679C99.9579 93.0994 94.1657 94.9316 89.9902 92.3665C85.8146 89.8014 84.8415 83.7998 87.81 78.9714C89.7315 75.8459 92.8385 73.9737 95.921 73.7397" stroke="#FD4525" stroke-width="0.615865" stroke-linecap="round" stroke-linejoin="round"/>
<path d="M99.7123 85.9184C101.18 83.5328 100.801 80.6337 98.8658 79.4431C96.9306 78.2526 94.172 79.2214 92.7043 81.6071C91.2367 83.9928 91.6157 86.8919 93.5509 88.0824C95.4861 89.273 98.2446 88.3041 99.7123 85.9184Z" stroke="#FAF4F4" stroke-width="0.615865" stroke-miterlimit="10" stroke-linecap="round"/>
<path d="M90.6979 97.5192C90.5347 98.8987 89.3615 99.9672 87.9388 99.9672C86.4022 99.9672 85.1582 98.7232 85.1582 97.1866C85.1582 96.9279 85.1921 96.6785 85.2598 96.4414" stroke="#FD4525" stroke-width="0.615865" stroke-miterlimit="10" stroke-linecap="round"/>
<path d="M87.4639 99.9668C87.4639 99.9668 87.8612 106.045 78.1921 107.406C70.8633 108.438 59.9933 105.953 54.6353 113.063C51.0756 117.79 54.9216 122.227 54.9216 122.227" stroke="#FD4525" stroke-width="0.615865" stroke-miterlimit="10" stroke-linecap="round"/>
<path d="M51.752 93.1367C53.8428 93.537 54.9729 93.6725 56.5557 93.6294" stroke="#FD4525" stroke-width="0.615865" stroke-miterlimit="10" stroke-linecap="round"/>
<path d="M46.1221 88.5186C47.9758 88.9866 49.8942 89.1591 51.748 89.1036" stroke="#FD4525" stroke-width="0.615865" stroke-miterlimit="10" stroke-linecap="round"/>
<path d="M43.0996 81.8047C44.9133 82.0634 46.5669 82.0849 48.4576 82.2142" stroke="#FD4525" stroke-width="0.615865" stroke-miterlimit="10" stroke-linecap="round"/>
<path d="M42.5088 73.7344C44.03 73.7344 46.0377 73.9469 47.9007 74.2948" stroke="#FD4525" stroke-width="0.615865" stroke-miterlimit="10" stroke-linecap="round"/>
<path d="M44.9454 65.5089C46.87 65.5582 48.3173 65.7583 50.1033 66.0847" stroke="#FD4525" stroke-width="0.615865" stroke-miterlimit="10" stroke-linecap="round"/>
<path d="M49.665 59.7112C51.6266 59.6958 52.6212 59.8251 54.3579 60.2377" stroke="#FD4525" stroke-width="0.615865" stroke-miterlimit="10" stroke-linecap="round"/>
<path d="M55.0833 56.6933C56.937 56.6317 57.8885 56.7457 59.7423 57.1891" stroke="#FD4525" stroke-width="0.615865" stroke-miterlimit="10" stroke-linecap="round"/>
<path d="M50.5 57.5L51 53.5L52.5 48.5L54 44" stroke="#FD4525" stroke-width="0.8"/>
<path d="M60 34.5L62 32.5L64 31L66 30L68 29" stroke="#FD4525" stroke-width="0.8"/>
<path d="M75 28.5H77L78.5 29L80 29.5L82.5 31L84.5 32L87 34.5" stroke="#FD4525" stroke-width="0.8"/>
</svg>
