<svg width="150" height="150" viewBox="0 0 150 150" fill="none" xmlns="http://www.w3.org/2000/svg">
<path d="M120.637 76.1003L113.968 83.1012C113.202 82.5404 112.348 82.0234 111.441 81.5737L119.853 72.7432C119.853 72.7432 117.051 69.539 114.643 67.7378L114.598 67.7597C112.851 65.8861 110.108 63.5144 106.161 61.5975C98.2658 57.7674 89.7898 60.9729 89.7898 60.9729C89.7898 60.9729 89.9133 53.1537 85.3929 45.3459C80.873 37.5417 73.3986 36.9643 73.3986 36.9643L43.3997 68.4573C49.0193 70.7604 53.3059 74.8425 56.8534 81.1847C60.9999 88.5944 59.3294 92.9976 59.3294 92.9976C60.0726 92.2177 61.849 91.7564 64.2789 91.7335L60.2297 93.6624C61.9713 92.7524 70.2769 93.9318 77.355 97.7116C85.1398 101.87 87.9944 106.188 87.9944 106.188L108.364 84.8022C109.3 85.2694 110.169 85.7841 110.916 86.3034L88.842 109.479C80.9356 101.212 67.9045 95.1458 59.8072 94.9228L57.8936 93.0942C56.9319 88.0964 52.9567 84.8988 47.1084 81.997C40.8633 78.9002 31.1587 79.4106 31.1587 79.4106L31.2606 80.7865C43.8252 80.31 50.3781 84.7313 53.8717 88.0576C57.3653 91.384 56.7872 93.4964 56.7872 93.4964L59.5492 96.1273C68.3854 96.7676 80.4861 102.466 88.5352 111.187L111.688 86.878C112.188 87.2818 112.606 87.6802 112.905 88.0497L115.932 84.8736C115.579 84.4685 115.173 84.0755 114.72 83.6936L120.253 77.8825L120.633 76.0972L120.637 76.1003Z" fill="#FAF4F4"/>
<path d="M120.635 76.1C120.236 75.318 119.432 74.6083 118.636 74.0155L120.635 76.1Z" fill="#FAF4F4"/>
<path d="M56.5 51.5L58 51H59L73.5 36L79 38C81.4904 39.7814 82.7129 40.8671 84.5 43L88 50L90 60.5L98.5 59.5C101.731 59.9334 103.023 59.5887 108 62C111.059 63.9645 112.844 64.8634 115.5 68C115.5 68 117.5 70.5 118 70.5C118.5 70.5 119.265 71.27 120.5 73L119 74.5C119.436 74.4461 119.676 74.452 120 75L121.5 76.5L121 77L88.5 111L84.5 107.5L76.5 101.5L65.5 97L58.5 96L57 94.5L56 91.5L52 86L40 80.5L31 80L30 79L56.5 51.5Z" fill="#FAF4F4"/>
<path d="M58.7084 96.7003L58.9761 95.4631C67.3082 95.7329 80.6787 102.04 88.7702 110.584L121.642 76.4123L121.243 78.2469L88.4465 112.342C80.2143 103.33 67.7916 97.4079 58.7052 96.7046" fill="#FD4525"/>
<path d="M58.7084 96.7003L58.9761 95.4631C67.3082 95.7329 80.6787 102.04 88.7702 110.584L121.642 76.4123L121.243 78.2469L88.4465 112.342C80.2143 103.33 67.7916 97.4079 58.7052 96.7046" stroke="#FD4525" stroke-width="0.720039" stroke-linecap="round" stroke-linejoin="round"/>
<path d="M119.595 74.2578C120.41 74.8679 121.235 75.6057 121.64 76.4122" stroke="#FD4525" stroke-width="0.720039" stroke-linecap="round" stroke-linejoin="round"/>
<path d="M58.9714 95.4624L57.0121 93.5718C56.0482 88.4257 51.975 85.1163 45.9737 82.1017C39.5651 78.8845 29.5796 79.3605 29.5796 79.3605L29.6774 80.7765C42.6048 80.3497 49.3233 84.931 52.9003 88.3704C56.4773 91.8098 55.872 93.9799 55.872 93.9799L58.7 96.7001L58.9677 95.463L58.9714 95.4624Z" fill="#FD4525" stroke="#FD4525" stroke-width="0.720039" stroke-linecap="round" stroke-linejoin="round"/>
<path d="M59.4198 94.1676C61.216 93.2403 69.7538 94.4955 77.0158 98.4194C85.0029 102.736 87.9176 107.193 87.9176 107.193L120.855 72.9502C120.855 72.9502 117.989 69.6399 115.521 67.7749" stroke="#FD4525" stroke-width="0.720039" stroke-linecap="round" stroke-linejoin="round"/>
<path d="M58.4959 93.4793C58.4959 93.4793 60.2371 88.962 56.0085 81.3151C52.3913 74.7731 48.0024 70.5522 42.2332 68.1546L73.2517 35.9099C73.2517 35.9099 80.9376 36.5416 85.5477 44.5925C90.1577 52.6434 89.9918 60.6899 89.9918 60.6899" stroke="#FD4525" stroke-width="0.720039" stroke-linecap="round" stroke-linejoin="round"/>
<path d="M29.5847 79.3606L56.5222 51.354C57.2925 51.0829 57.8825 50.9953 58.8342 50.8897" stroke="#FD4525" stroke-width="0.720039" stroke-linecap="round" stroke-linejoin="round"/>
<path d="M75.4523 72.3903C76.4277 64.4234 70.6974 54.09 63.1669 50.8833L74.0055 39.6162C82.3794 42.0431 87.6787 52.5344 86.781 60.6107L75.4486 72.3909L75.4523 72.3903Z" fill="#FD4525"/>
<path d="M59.6826 54.5059C67.0556 58.1659 72.358 65.859 71.8538 76.133" stroke="#FD4525" stroke-width="0.720039" stroke-linecap="round" stroke-linejoin="round"/>
<path d="M56.873 57.4268C64.2004 61.1356 69.5385 68.789 69.1679 78.9209" stroke="#FD4525" stroke-width="0.720039" stroke-linecap="round" stroke-linejoin="round"/>
<path d="M54.1133 60.2949C61.437 64.0043 66.7793 71.6609 66.4181 81.7799" stroke="#FD4525" stroke-width="0.720039" stroke-linecap="round" stroke-linejoin="round"/>
<path d="M51.3008 63.2207C58.5789 66.9789 63.9531 74.5964 63.7429 84.563" stroke="#FD4525" stroke-width="0.720039" stroke-linecap="round" stroke-linejoin="round"/>
<path d="M48.3525 66.2891C55.4702 70.2126 60.9656 77.705 61.2559 87.1537" stroke="#FD4525" stroke-width="0.720039" stroke-linecap="round" stroke-linejoin="round"/>
<path d="M96.2241 89.5383C93.222 84.1005 83.7472 78.5112 74.1845 80.6147" stroke="#FD4525" stroke-width="0.720039" stroke-linecap="round" stroke-linejoin="round"/>
<path d="M111.002 74.1731C108 68.7353 98.5247 63.146 88.962 65.2495" stroke="#FD4525" stroke-width="0.720039" stroke-linecap="round" stroke-linejoin="round"/>
<path d="M113.687 71.3845C110.168 65.2105 101.21 60.3574 91.6471 62.4609" stroke="#FD4525" stroke-width="0.720039" stroke-linecap="round" stroke-linejoin="round"/>
<path d="M93.4723 92.3987C90.1775 87.0556 80.7239 81.6528 71.1612 83.7563" stroke="#FD4525" stroke-width="0.720039" stroke-linecap="round" stroke-linejoin="round"/>
<path d="M90.5804 95.3999C87.1992 90.4308 77.812 84.6722 68.2499 86.7795" stroke="#FD4525" stroke-width="0.720039" stroke-linecap="round" stroke-linejoin="round"/>
<path d="M87.8599 98.2325C84.5764 93.404 74.6995 87.9149 65.1368 90.0184" stroke="#FD4525" stroke-width="0.720039" stroke-linecap="round" stroke-linejoin="round"/>
<path d="M98.6591 87.0017C95.0245 80.3712 85.7341 76.4388 77.2244 77.4492L86.4969 67.8101C95.9162 65.4669 104.455 68.8591 108.749 76.5147L98.6597 87.0054L98.6591 87.0017Z" stroke="#FD4525" stroke-width="0.720039" stroke-linecap="round" stroke-linejoin="round"/>
<path d="M94.1337 62.5685L92.4665 64.3034" stroke="#FD4525" stroke-width="0.720039" stroke-linecap="round" stroke-linejoin="round"/>
<path d="M101.12 63.3322L99.4528 65.067" stroke="#FD4525" stroke-width="0.720039" stroke-linecap="round" stroke-linejoin="round"/>
<path d="M104.59 68.0107C107.206 69.4618 109.437 71.6331 110.535 73.7254L113.219 70.9334C111.987 68.6644 109.954 66.6144 107.385 65.1029L104.59 68.007" fill="#FD4525"/>
<path d="M113.636 88.6645C112.316 87.0014 108.786 84.8491 105.378 83.8509L108.508 80.599C111.72 81.4377 114.956 83.3128 116.765 85.4127L113.636 88.6645Z" fill="#FD4525" stroke="#FAF4F4" stroke-width="0.36002" stroke-linecap="round" stroke-linejoin="round"/>
<path d="M58.5021 93.479C60.2973 91.6142 67.861 91.5551 76.3143 94.9111C84.7676 98.2672 87.2633 103.009 87.2633 103.009L117.987 71.068C117.987 71.068 114.815 65.3378 106.832 61.4191C98.7301 57.4392 89.9948 60.6939 89.9948 60.6939L58.4984 93.4795" stroke="#FD4525" stroke-width="0.720039" stroke-linecap="round" stroke-linejoin="round"/>
<path d="M38.3838 74.6836C46.0193 74.2299 53.7663 78.2951 57.5727 84.6864" stroke="#FD4525" stroke-width="0.720039" stroke-linecap="round" stroke-linejoin="round"/>
</svg>
