<svg width="150" height="150" viewBox="0 0 150 150" fill="none" xmlns="http://www.w3.org/2000/svg">
<path d="M12.5 75.5L12 69.5L13 68L79 44.5L80.5 44L82 44.5L107.5 71V71.5V76.5L107 77.5L97.5 81L96.5 82.5L48 102H46L36.5 106H35.5L34 105.5L12.5 75.5Z" fill="#FAF4F4"/>
<path d="M97.4275 76.0023V81.0722L97.1436 81.4981C96.667 82.2104 95.9876 82.7656 95.1917 83.085L47.8541 102.191C47.5575 102.31 47.2355 102.092 47.2355 101.773V96.2794L45.7146 97.0399L45.9833 102.11L37.0172 105.976C35.7345 106.528 34.2389 106.107 33.4327 104.967L12.4637 75.285C12.3268 75.0898 12.2482 74.8616 12.2355 74.6233L11.9998 69.665" stroke="#FD4525" stroke-width="0.50699" stroke-linecap="round" stroke-linejoin="round"/>
<path d="M44.7 87.1563C44.193 87.4098 43.4325 87.6633 43.6303 89.1665L45.714 97.0426L36.54 101.121C35.2446 101.697 33.7211 101.271 32.9125 100.107L12.2425 70.3471C11.7355 69.617 12.0575 68.6056 12.8915 68.3014L79.5302 44.161C80.5442 43.7935 81.6798 44.0673 82.415 44.8582L106.994 70.5093C107.638 71.2013 107.387 72.3243 106.512 72.6792L98.0378 76.109C97.6804 76.2535 97.5638 76.1673 97.3712 76.0228L89.7283 70.3445C89.1579 69.9212 88.405 69.8198 87.7434 70.0834L44.7456 87.0879C44.2995 87.2653 44.0739 87.7672 44.2412 88.2184L47.2349 96.2796L95.0948 77.085C95.6296 76.8695 96.1138 76.5501 96.5219 76.142L96.9199 75.744" stroke="#FD4525" stroke-width="0.50699" stroke-linecap="round" stroke-linejoin="round"/>
<path d="M97.4258 81.0727L106.445 77.6023C106.972 77.3995 107.327 76.9052 107.353 76.3424L107.31 71.6934" stroke="#FD4525" stroke-width="0.50699" stroke-linecap="round" stroke-linejoin="round"/>
<path d="M43.0521 79.0443C45.9221 79.0443 48.2488 77.3419 48.2488 75.2419C48.2488 73.1419 45.9221 71.4395 43.0521 71.4395C40.1821 71.4395 37.8555 73.1419 37.8555 75.2419C37.8555 77.3419 40.1821 79.0443 43.0521 79.0443Z" stroke="#FD4525" stroke-width="0.50699" stroke-linecap="round" stroke-linejoin="round"/>
<path d="M73.473 67.6371C76.343 67.6371 78.6697 65.9347 78.6697 63.8346C78.6697 61.7346 76.343 60.0322 73.473 60.0322C70.603 60.0322 68.2764 61.7346 68.2764 63.8346C68.2764 65.9347 70.603 67.6371 73.473 67.6371Z" stroke="#FD4525" stroke-width="0.50699" stroke-linecap="round" stroke-linejoin="round"/>
<path d="M68.2778 81.2706C69.1178 81.2706 69.7988 80.7724 69.7988 80.1578C69.7988 79.5431 69.1178 79.0449 68.2778 79.0449C67.4378 79.0449 66.7568 79.5431 66.7568 80.1578C66.7568 80.7724 67.4378 81.2706 68.2778 81.2706Z" stroke="#FD4525" stroke-width="0.50699" stroke-linecap="round" stroke-linejoin="round"/>
<path d="M81.2094 80.1349C82.0495 80.1349 82.7304 79.6366 82.7304 79.022C82.7304 78.4074 82.0495 77.9092 81.2094 77.9092C80.3694 77.9092 79.6885 78.4074 79.6885 79.022C79.6885 79.6366 80.3694 80.1349 81.2094 80.1349Z" stroke="#FD4525" stroke-width="0.50699" stroke-linecap="round" stroke-linejoin="round"/>
<path d="M89.0652 77.5997C89.9052 77.5997 90.5861 77.1015 90.5861 76.4869C90.5861 75.8723 89.9052 75.3741 89.0652 75.3741C88.2252 75.3741 87.5442 75.8723 87.5442 76.4869C87.5442 77.1015 88.2252 77.5997 89.0652 77.5997Z" stroke="#FD4525" stroke-width="0.50699" stroke-linecap="round" stroke-linejoin="round"/>
<path d="M60.1714 87.9923C61.0114 87.9923 61.6923 87.4941 61.6923 86.8794C61.6923 86.2648 61.0114 85.7666 60.1714 85.7666C59.3314 85.7666 58.6504 86.2648 58.6504 86.8794C58.6504 87.4941 59.3314 87.9923 60.1714 87.9923Z" stroke="#FD4525" stroke-width="0.50699" stroke-linecap="round" stroke-linejoin="round"/>
<path d="M53.0718 91.795C53.9118 91.795 54.5927 91.2968 54.5927 90.6822C54.5927 90.0675 53.9118 89.5693 53.0718 89.5693C52.2317 89.5693 51.5508 90.0675 51.5508 90.6822C51.5508 91.2968 52.2317 91.795 53.0718 91.795Z" stroke="#FD4525" stroke-width="0.50699" stroke-linecap="round" stroke-linejoin="round"/>
<path d="M98.8235 74.7346C100.669 74.7346 102.165 73.6314 102.165 72.2706C102.165 70.9098 100.669 69.8066 98.8235 69.8066C96.9783 69.8066 95.4824 70.9098 95.4824 72.2706C95.4824 73.6314 96.9783 74.7346 98.8235 74.7346Z" fill="#FD4525"/>
<path d="M39.7591 98.3709C41.6491 98.3709 43.1813 97.2405 43.1813 95.8461C43.1813 94.4517 41.6491 93.3213 39.7591 93.3213C37.8691 93.3213 36.3369 94.4517 36.3369 95.8461C36.3369 97.2405 37.8691 98.3709 39.7591 98.3709Z" fill="#FD4525"/>
<path d="M19.3491 68.6508L77.3994 47.8643L80.4413 48.3712L96.665 65.3554L31.9529 90.682L17.8281 71.4393L19.3491 68.6508Z" stroke="#FD4525" stroke-width="0.50699" stroke-linecap="round" stroke-linejoin="round"/>
<path d="M81.9529 54.3261L24.7442 75.6146C24.3335 75.7667 23.8696 75.6146 23.6314 75.2471L20.8885 71.0416C20.5565 70.5321 20.7871 69.8476 21.36 69.6448L78.442 49.2233C78.807 49.0915 79.2177 49.2005 79.4712 49.4945L82.3382 52.833C82.7641 53.3299 82.5664 54.098 81.9529 54.3261Z" fill="#FD4525" stroke="#FD4525" stroke-width="0.50699" stroke-linecap="round" stroke-linejoin="round"/>
<path d="M69.4147 69.2849L52.684 75.6223L48.1211 69.2849L64.3448 63.201L69.4147 69.2849Z" stroke="#FD4525" stroke-width="0.50699" stroke-linecap="round" stroke-linejoin="round"/>
<path d="M42.6891 79.0419C45.0593 79.0419 46.9808 77.7571 46.9808 76.1723C46.9808 74.5875 45.0593 73.3027 42.6891 73.3027C40.3189 73.3027 38.3975 74.5875 38.3975 76.1723C38.3975 77.7571 40.3189 79.0419 42.6891 79.0419Z" stroke="#FD4525" stroke-width="0.50699" stroke-linecap="round" stroke-linejoin="round"/>
<path d="M73.5983 67.5535C75.9685 67.5535 77.89 66.2688 77.89 64.684C77.89 63.0992 75.9685 61.8144 73.5983 61.8144C71.2281 61.8144 69.3066 63.0992 69.3066 64.684C69.3066 66.2688 71.2281 67.5535 73.5983 67.5535Z" stroke="#FD4525" stroke-width="0.50699" stroke-linecap="round" stroke-linejoin="round"/>
<path d="M57.4742 65.8633C57.4742 65.8633 56.8202 71.0346 61.5352 72.2716" stroke="#FD4525" stroke-width="0.50699" stroke-linecap="round" stroke-linejoin="round"/>
<path d="M60.9796 64.4639C60.9796 64.4639 60.351 69.8785 65.4563 70.786" stroke="#FD4525" stroke-width="0.50699" stroke-linecap="round" stroke-linejoin="round"/>
<path d="M62.1807 64.0127C62.1807 64.0127 62.2263 70.0509 66.8982 70.2385" stroke="#FD4525" stroke-width="0.50699" stroke-linecap="round" stroke-linejoin="round"/>
<path d="M64.346 63.2012C64.346 63.2012 63.2053 68.1443 69.4159 69.285" stroke="#FD4525" stroke-width="0.50699" stroke-linecap="round" stroke-linejoin="round"/>
<path d="M53.8818 67.1249C53.8818 67.1249 55.347 72.6333 58.7692 73.3026" stroke="#FD4525" stroke-width="0.50699" stroke-linecap="round" stroke-linejoin="round"/>
<path d="M50.2725 72.2713L53.573 70.9328L53.6211 67.2217" stroke="#FD4525" stroke-width="0.50699" stroke-linecap="round" stroke-linejoin="round"/>
<path d="M53.5703 70.9326C53.5703 70.9326 54.9823 73.5385 56.9393 74.01" stroke="#FD4525" stroke-width="0.50699" stroke-linecap="round" stroke-linejoin="round"/>
<path d="M46 102H47.5" stroke="#FD4525" stroke-width="0.51"/>
</svg>
