<svg width="150" height="150" viewBox="0 0 150 150" fill="none" xmlns="http://www.w3.org/2000/svg">
<path fill-rule="evenodd" clip-rule="evenodd" d="M45.0014 46.3686C44.9668 45.6134 45.5911 45 46.3571 45L103.456 45C104.222 45 104.846 45.6134 104.812 46.3687C104.471 53.8024 101.365 60.862 96.0748 66.1471C90.5117 71.7046 82.9846 74.849 75.1232 74.9058C82.9848 74.9624 90.5121 78.1068 96.0752 83.6644C101.366 88.9495 104.471 96.0091 104.812 103.443C104.847 104.198 104.222 104.812 103.456 104.812L46.3575 104.811C45.5915 104.811 44.9672 104.198 45.0018 103.443C45.3424 96.0091 48.4482 88.9495 53.7386 83.6644C59.3017 78.1069 66.8288 74.9625 74.6902 74.9058C66.8287 74.8491 59.3014 71.7047 53.7382 66.1471C48.4478 60.862 45.342 53.8024 45.0014 46.3686Z" fill="#FD4525"/>
</svg>
