<svg width="200" height="200" viewBox="0 0 200 200" fill="none" xmlns="http://www.w3.org/2000/svg">
<path d="M98.9999 178.5L109 176.5L113.5 167.5L114 160.5L112 156L109 149.597V142.5L114 134C114.257 131.091 114.104 129.447 113.5 126.5L111.5 122L109 116.5V109C111.306 105.741 112.527 103.861 114 100C114.133 97.2022 114.384 95.1775 113 92C111.983 88.1718 110.977 87.5561 109 86C109 86 105.182 83.9546 96.9999 83.5C88.8178 83.0454 85.5 85.5 85.5 85.5C85.5 85.5 81.9999 86.5 80.4999 90.5C78.9999 94.5 79.4999 95.5 79.4999 95.5L85.4999 102V108L79.4999 114V119.5L85.4999 126.5L85 132L79.9999 137L79.5 143L85.5 149.5L86 153.5L83.9999 157L79.9999 161L79.5 166.5L83.9999 172L86.4999 176.5L98.9999 178.5Z" fill="#FAF4F4"/>
<path d="M84 30L82 32.5L79.5 34.5L78 39.5L79.5 47.5L84.5 54.5L88 56.5L92 57.5L95.5 55L99.5 54L102 51V43.5L100 38L96.5 33L93.5 30.5L90.5 29L87.5 30H84Z" fill="#FAF4F4"/>
<path d="M83.4416 86.499C82.1847 87.587 79.4727 89.7645 79.4727 93.3143C79.4727 99.2249 85.5898 99.2287 85.5898 105.139C85.5898 111.054 79.4727 111.054 79.4727 116.968C79.4727 122.883 85.5898 122.883 85.5898 128.797C85.5898 134.712 79.4727 134.712 79.4727 140.626C79.4727 146.541 85.5898 146.541 85.5898 152.455C85.5898 158.37 79.4727 158.37 79.4727 164.284C79.4727 169.854 84.8984 170.179 85.53 175.138" stroke="#FD4525" stroke-width="0.955799" stroke-linecap="round" stroke-linejoin="round"/>
<path d="M110.439 86.9121C111.814 89.116 114.23 91.6971 114.23 97.0226C114.23 105.307 108.878 105.307 108.878 113.596C108.878 121.885 114.23 121.885 114.23 130.17C114.23 138.458 108.878 138.458 108.878 146.743C108.878 155.028 114.23 155.028 114.23 163.313C114.23 169.619 111.13 171.125 109.648 175.138" stroke="#FD4525" stroke-width="0.955799" stroke-linecap="round" stroke-linejoin="round"/>
<path d="M83.293 86.6801C85.0555 84.8985 90.4156 83.5986 96.7506 83.5986C103.625 83.5986 109.352 85.1279 110.579 87.1466" stroke="#FD4525" stroke-width="0.955799" stroke-linecap="round" stroke-linejoin="round"/>
<path d="M110.067 174.148C109.222 176.27 104.007 177.898 97.7026 177.898C91.3981 177.898 86.1336 176.25 85.3269 174.117" stroke="#FD4525" stroke-width="0.19116" stroke-linecap="round" stroke-linejoin="round"/>
<path d="M109.856 174.946C109.887 175.068 109.903 175.19 109.903 175.316C109.903 177.647 104.426 179.534 97.6688 179.534C90.9119 179.534 85.4346 177.647 85.4346 175.316C85.4346 175.19 85.4502 175.068 85.4814 174.946C89.3748 178.783 105.21 179.305 109.856 174.946Z" fill="#FD4525" stroke="#FD4525" stroke-width="0.38232" stroke-miterlimit="10"/>
<path d="M96.9002 91.2261C103.708 91.2261 109.226 89.7626 109.226 87.9573C109.226 86.152 103.708 84.6885 96.9002 84.6885C90.0927 84.6885 84.5742 86.152 84.5742 87.9573C84.5742 89.7626 90.0927 91.2261 96.9002 91.2261Z" fill="#FD4525" stroke="#FD4525" stroke-width="0.38232" stroke-miterlimit="10"/>
<path d="M93.5009 42.1398C96.6971 49.1936 97.6567 54.8672 93.2103 56.882C89.4598 58.5833 82.9565 54.9895 79.9209 48.2951C76.8853 41.6007 77.4664 34.7954 81.217 33.0979C84.9675 31.4004 90.4691 35.4454 93.5009 42.1398Z" stroke="#FD4525" stroke-width="0.955799" stroke-linecap="round" stroke-linejoin="round"/>
<path d="M86.7363 33.8782C86.9466 31.7295 87.7342 30.1429 89.0991 29.5236C92.2456 28.0975 97.2539 32.368 100.29 39.0624C103.325 45.7569 102.488 52.6768 99.3452 54.1029C98.0033 54.7108 96.8525 54.7987 95.7858 54.3705" stroke="#FD4525" stroke-width="0.955799" stroke-linecap="round" stroke-linejoin="round"/>
<path d="M81.1953 33.0901C81.6885 31.8513 82.6443 30.7923 83.9557 30.1997C85.3588 29.5613 86.8957 29.5842 88.2147 30.1309" stroke="#FD4525" stroke-width="0.955799" stroke-linecap="round" stroke-linejoin="round"/>
<path d="M76.0586 26.1171C77.7478 26.1171 79.1171 24.7478 79.1171 23.0586C79.1171 21.3694 77.7478 20 76.0586 20C74.3694 20 73 21.3694 73 23.0586C73 24.7478 74.3694 26.1171 76.0586 26.1171Z" fill="#FD4525" stroke="#FD4525" stroke-width="0.38232" stroke-miterlimit="10"/>
<path d="M78.7998 24.416C81.2964 25.8382 83.0627 27.7346 83.9573 30.2005" stroke="#FD4525" stroke-width="0.955799" stroke-linecap="round" stroke-linejoin="round"/>
<path d="M98.0059 81.4889C98.0059 81.4889 98.9081 69.7594 109.005 62.2735C119.102 54.7877 125.518 56.9364 126.038 57.6513C126.557 58.3662 118.556 66.502 112.763 70.9254C106.971 75.3489 98.0059 81.4851 98.0059 81.4851V81.4889Z" fill="#FD4525" stroke="#FD4525" stroke-width="0.38232" stroke-miterlimit="10"/>
<path d="M95.6221 54.6385C99.0515 63.5809 98.9024 75.9146 96.899 89.9992" stroke="#FD4525" stroke-width="0.955799" stroke-linecap="round" stroke-linejoin="round"/>
<path d="M99.8154 78.2046C105.084 69.3042 117.173 59.5933 123.764 58.2246" stroke="#FAF4F4" stroke-width="0.573479" stroke-linecap="round" stroke-linejoin="round"/>
<path d="M106.438 95.5846C106.672 95.5846 106.862 95.3501 106.862 95.0608C106.862 94.7715 106.672 94.537 106.438 94.537C106.204 94.537 106.014 94.7715 106.014 95.0608C106.014 95.3501 106.204 95.5846 106.438 95.5846Z" fill="#FD4525" stroke="#FD4525" stroke-width="0.19116" stroke-miterlimit="10"/>
<path d="M112.032 96.112C112.266 96.112 112.456 95.8775 112.456 95.5882C112.456 95.2989 112.266 95.0644 112.032 95.0644C111.798 95.0644 111.608 95.2989 111.608 95.5882C111.608 95.8775 111.798 96.112 112.032 96.112Z" fill="#FD4525" stroke="#FD4525" stroke-width="0.19116" stroke-miterlimit="10"/>
<path d="M112.032 100.554C112.266 100.554 112.456 100.32 112.456 100.031C112.456 99.7413 112.266 99.5068 112.032 99.5068C111.797 99.5068 111.607 99.7413 111.607 100.031C111.607 100.32 111.797 100.554 112.032 100.554Z" fill="#FD4525" stroke="#FD4525" stroke-width="0.19116" stroke-miterlimit="10"/>
<path d="M104.798 100.031C105.033 100.031 105.223 99.7964 105.223 99.5072C105.223 99.2179 105.033 98.9834 104.798 98.9834C104.564 98.9834 104.374 99.2179 104.374 99.5072C104.374 99.7964 104.564 100.031 104.798 100.031Z" fill="#FD4525" stroke="#FD4525" stroke-width="0.19116" stroke-miterlimit="10"/>
<path d="M109.231 103.597C109.465 103.597 109.655 103.363 109.655 103.074C109.655 102.784 109.465 102.55 109.231 102.55C108.997 102.55 108.807 102.784 108.807 103.074C108.807 103.363 108.997 103.597 109.231 103.597Z" fill="#FD4525" stroke="#FD4525" stroke-width="0.19116" stroke-miterlimit="10"/>
<path d="M101.109 97.3435C101.343 97.3435 101.533 97.1089 101.533 96.8197C101.533 96.5304 101.343 96.2959 101.109 96.2959C100.875 96.2959 100.685 96.5304 100.685 96.8197C100.685 97.1089 100.875 97.3435 101.109 97.3435Z" fill="#FD4525" stroke="#FD4525" stroke-width="0.19116" stroke-miterlimit="10"/>
<path d="M109.73 92.2741C109.964 92.2741 110.154 92.0396 110.154 91.7504C110.154 91.4611 109.964 91.2266 109.73 91.2266C109.496 91.2266 109.306 91.4611 109.306 91.7504C109.306 92.0396 109.496 92.2741 109.73 92.2741Z" fill="#FD4525" stroke="#FD4525" stroke-width="0.19116" stroke-miterlimit="10"/>
<path d="M105.219 109.799C105.454 109.799 105.644 109.565 105.644 109.276C105.644 108.986 105.454 108.752 105.219 108.752C104.985 108.752 104.795 108.986 104.795 109.276C104.795 109.565 104.985 109.799 105.219 109.799Z" fill="#FD4525" stroke="#FD4525" stroke-width="0.19116" stroke-miterlimit="10"/>
<path d="M96.0465 103.597C96.2808 103.597 96.4708 103.363 96.4708 103.074C96.4708 102.784 96.2808 102.55 96.0465 102.55C95.8121 102.55 95.6221 102.784 95.6221 103.074C95.6221 103.363 95.8121 103.597 96.0465 103.597Z" fill="#FD4525" stroke="#FD4525" stroke-width="0.19116" stroke-miterlimit="10"/>
<path d="M100.688 101.606C100.922 101.606 101.112 101.372 101.112 101.082C101.112 100.793 100.922 100.559 100.688 100.559C100.454 100.559 100.264 100.793 100.264 101.082C100.264 101.372 100.454 101.606 100.688 101.606Z" fill="#FD4525" stroke="#FD4525" stroke-width="0.19116" stroke-miterlimit="10"/>
<path d="M104.798 106.03C105.033 106.03 105.223 105.795 105.223 105.506C105.223 105.217 105.033 104.982 104.798 104.982C104.564 104.982 104.374 105.217 104.374 105.506C104.374 105.795 104.564 106.03 104.798 106.03Z" fill="#FD4525" stroke="#FD4525" stroke-width="0.19116" stroke-miterlimit="10"/>
<path d="M97.8716 109.39C98.106 109.39 98.296 109.156 98.296 108.867C98.296 108.577 98.106 108.343 97.8716 108.343C97.6373 108.343 97.4473 108.577 97.4473 108.867C97.4473 109.156 97.6373 109.39 97.8716 109.39Z" fill="#FD4525" stroke="#FD4525" stroke-width="0.19116" stroke-miterlimit="10"/>
<path d="M103.462 114.36C103.697 114.36 103.887 114.126 103.887 113.836C103.887 113.547 103.697 113.312 103.462 113.312C103.228 113.312 103.038 113.547 103.038 113.836C103.038 114.126 103.228 114.36 103.462 114.36Z" fill="#FD4525" stroke="#FD4525" stroke-width="0.19116" stroke-miterlimit="10"/>
<path d="M96.232 113.833C96.4664 113.833 96.6564 113.598 96.6564 113.309C96.6564 113.02 96.4664 112.785 96.232 112.785C95.9976 112.785 95.8076 113.02 95.8076 113.309C95.8076 113.598 95.9976 113.833 96.232 113.833Z" fill="#FD4525" stroke="#FD4525" stroke-width="0.19116" stroke-miterlimit="10"/>
<path d="M100.662 117.399C100.896 117.399 101.086 117.165 101.086 116.875C101.086 116.586 100.896 116.352 100.662 116.352C100.427 116.352 100.237 116.586 100.237 116.875C100.237 117.165 100.427 117.399 100.662 117.399Z" fill="#FD4525" stroke="#FD4525" stroke-width="0.19116" stroke-miterlimit="10"/>
<path d="M92.5396 111.145C92.774 111.145 92.964 110.911 92.964 110.621C92.964 110.332 92.774 110.098 92.5396 110.098C92.3052 110.098 92.1152 110.332 92.1152 110.621C92.1152 110.911 92.3052 111.145 92.5396 111.145Z" fill="#FD4525" stroke="#FD4525" stroke-width="0.19116" stroke-miterlimit="10"/>
<path d="M96.65 123.605C96.8843 123.605 97.0743 123.371 97.0743 123.081C97.0743 122.792 96.8843 122.558 96.65 122.558C96.4156 122.558 96.2256 122.792 96.2256 123.081C96.2256 123.371 96.4156 123.605 96.65 123.605Z" fill="#FD4525" stroke="#FD4525" stroke-width="0.19116" stroke-miterlimit="10"/>
<path d="M96.232 119.836C96.4664 119.836 96.6564 119.601 96.6564 119.312C96.6564 119.023 96.4664 118.788 96.232 118.788C95.9976 118.788 95.8076 119.023 95.8076 119.312C95.8076 119.601 95.9976 119.836 96.232 119.836Z" fill="#FD4525" stroke="#FD4525" stroke-width="0.19116" stroke-miterlimit="10"/>
<path d="M96.9456 136.145C97.18 136.145 97.37 135.911 97.37 135.621C97.37 135.332 97.18 135.097 96.9456 135.097C96.7112 135.097 96.5212 135.332 96.5212 135.621C96.5212 135.911 96.7112 136.145 96.9456 136.145Z" fill="#FD4525" stroke="#FD4525" stroke-width="0.19116" stroke-miterlimit="10"/>
<path d="M102.534 141.115C102.768 141.115 102.958 140.881 102.958 140.591C102.958 140.302 102.768 140.068 102.534 140.068C102.3 140.068 102.11 140.302 102.11 140.591C102.11 140.881 102.3 141.115 102.534 141.115Z" fill="#FD4525" stroke="#FD4525" stroke-width="0.19116" stroke-miterlimit="10"/>
<path d="M95.3033 140.588C95.5377 140.588 95.7277 140.353 95.7277 140.064C95.7277 139.775 95.5377 139.54 95.3033 139.54C95.0689 139.54 94.8789 139.775 94.8789 140.064C94.8789 140.353 95.0689 140.588 95.3033 140.588Z" fill="#FD4525" stroke="#FD4525" stroke-width="0.19116" stroke-miterlimit="10"/>
<path d="M99.732 144.154C99.9664 144.154 100.156 143.919 100.156 143.63C100.156 143.341 99.9664 143.106 99.732 143.106C99.4976 143.106 99.3076 143.341 99.3076 143.63C99.3076 143.919 99.4976 144.154 99.732 144.154Z" fill="#FD4525" stroke="#FD4525" stroke-width="0.19116" stroke-miterlimit="10"/>
<path d="M91.617 137.904C91.8514 137.904 92.0414 137.669 92.0414 137.38C92.0414 137.091 91.8514 136.856 91.617 136.856C91.3826 136.856 91.1926 137.091 91.1926 137.38C91.1926 137.669 91.3826 137.904 91.617 137.904Z" fill="#FD4525" stroke="#FD4525" stroke-width="0.19116" stroke-miterlimit="10"/>
<path d="M95.7271 150.36C95.9615 150.36 96.1515 150.126 96.1515 149.836C96.1515 149.547 95.9615 149.312 95.7271 149.312C95.4927 149.312 95.3027 149.547 95.3027 149.836C95.3027 150.126 95.4927 150.36 95.7271 150.36Z" fill="#FD4525" stroke="#FD4525" stroke-width="0.19116" stroke-miterlimit="10"/>
<path d="M95.3033 146.591C95.5377 146.591 95.7277 146.356 95.7277 146.067C95.7277 145.777 95.5377 145.543 95.3033 145.543C95.0689 145.543 94.8789 145.777 94.8789 146.067C94.8789 146.356 95.0689 146.591 95.3033 146.591Z" fill="#FD4525" stroke="#FD4525" stroke-width="0.19116" stroke-miterlimit="10"/>
<path d="M88.4927 108.339C88.7271 108.339 88.9171 108.104 88.9171 107.815C88.9171 107.526 88.7271 107.291 88.4927 107.291C88.2584 107.291 88.0684 107.526 88.0684 107.815C88.0684 108.104 88.2584 108.339 88.4927 108.339Z" fill="#FD4525" stroke="#FD4525" stroke-width="0.19116" stroke-miterlimit="10"/>
<path d="M92.4087 102.547C92.6431 102.547 92.8331 102.312 92.8331 102.023C92.8331 101.734 92.6431 101.499 92.4087 101.499C92.1744 101.499 91.9844 101.734 91.9844 102.023C91.9844 102.312 92.1744 102.547 92.4087 102.547Z" fill="#FD4525" stroke="#FD4525" stroke-width="0.19116" stroke-miterlimit="10"/>
<path d="M88.4927 102.547C88.7271 102.547 88.9171 102.312 88.9171 102.023C88.9171 101.734 88.7271 101.499 88.4927 101.499C88.2584 101.499 88.0684 101.734 88.0684 102.023C88.0684 102.312 88.2584 102.547 88.4927 102.547Z" fill="#FD4525" stroke="#FD4525" stroke-width="0.19116" stroke-miterlimit="10"/>
<path d="M95.8082 98.3942C96.0425 98.3942 96.2325 98.1597 96.2325 97.8705C96.2325 97.5812 96.0425 97.3467 95.8082 97.3467C95.5738 97.3467 95.3838 97.5812 95.3838 97.8705C95.3838 98.1597 95.5738 98.3942 95.8082 98.3942Z" fill="#FD4525" stroke="#FD4525" stroke-width="0.19116" stroke-miterlimit="10"/>
<path d="M88.9166 96.8843C89.1509 96.8843 89.3409 96.6498 89.3409 96.3605C89.3409 96.0712 89.1509 95.8367 88.9166 95.8367C88.6822 95.8367 88.4922 96.0712 88.4922 96.3605C88.4922 96.6498 88.6822 96.8843 88.9166 96.8843Z" fill="#FD4525" stroke="#FD4525" stroke-width="0.19116" stroke-miterlimit="10"/>
<path d="M86.3782 93.7341C86.6126 93.7341 86.8026 93.4996 86.8026 93.2103C86.8026 92.921 86.6126 92.6865 86.3782 92.6865C86.1439 92.6865 85.9539 92.921 85.9539 93.2103C85.9539 93.4996 86.1439 93.7341 86.3782 93.7341Z" fill="#FD4525" stroke="#FD4525" stroke-width="0.19116" stroke-miterlimit="10"/>
<path d="M82.6509 96.778C82.8853 96.778 83.0753 96.5435 83.0753 96.2543C83.0753 95.965 82.8853 95.7305 82.6509 95.7305C82.4166 95.7305 82.2266 95.965 82.2266 96.2543C82.2266 96.5435 82.4166 96.778 82.6509 96.778Z" fill="#FD4525" stroke="#FD4525" stroke-width="0.19116" stroke-miterlimit="10"/>
<path d="M94.775 94.7858C95.0093 94.7858 95.1993 94.5513 95.1993 94.2621C95.1993 93.9728 95.0093 93.7383 94.775 93.7383C94.5406 93.7383 94.3506 93.9728 94.3506 94.2621C94.3506 94.5513 94.5406 94.7858 94.775 94.7858Z" fill="#FD4525" stroke="#FD4525" stroke-width="0.19116" stroke-miterlimit="10"/>
<path d="M82.4683 91.0466C82.7027 91.0466 82.8927 90.8121 82.8927 90.5228C82.8927 90.2335 82.7027 89.999 82.4683 89.999C82.2339 89.999 82.0439 90.2335 82.0439 90.5228C82.0439 90.8121 82.2339 91.0466 82.4683 91.0466Z" fill="#FD4525" stroke="#FD4525" stroke-width="0.19116" stroke-miterlimit="10"/>
<path d="M90.4429 119.471C90.6773 119.471 90.8673 119.237 90.8673 118.948C90.8673 118.658 90.6773 118.424 90.4429 118.424C90.2086 118.424 90.0186 118.658 90.0186 118.948C90.0186 119.237 90.2086 119.471 90.4429 119.471Z" fill="#FD4525" stroke="#FD4525" stroke-width="0.19116" stroke-miterlimit="10"/>
<path d="M86.73 116.428C86.9644 116.428 87.1544 116.194 87.1544 115.905C87.1544 115.615 86.9644 115.381 86.73 115.381C86.4957 115.381 86.3057 115.615 86.3057 115.905C86.3057 116.194 86.4957 116.428 86.73 116.428Z" fill="#FD4525" stroke="#FD4525" stroke-width="0.19116" stroke-miterlimit="10"/>
<path d="M82.8922 118.421C83.1265 118.421 83.3165 118.186 83.3165 117.897C83.3165 117.608 83.1265 117.373 82.8922 117.373C82.6578 117.373 82.4678 117.608 82.4678 117.897C82.4678 118.186 82.6578 118.421 82.8922 118.421Z" fill="#FD4525" stroke="#FD4525" stroke-width="0.19116" stroke-miterlimit="10"/>
<path d="M87.5826 113.745C87.8169 113.745 88.007 113.51 88.007 113.221C88.007 112.932 87.8169 112.697 87.5826 112.697C87.3482 112.697 87.1582 112.932 87.1582 113.221C87.1582 113.51 87.3482 113.745 87.5826 113.745Z" fill="#FD4525" stroke="#FD4525" stroke-width="0.19116" stroke-miterlimit="10"/>
<path d="M83.3169 113.308C83.5513 113.308 83.7413 113.074 83.7413 112.785C83.7413 112.495 83.5513 112.261 83.3169 112.261C83.0826 112.261 82.8926 112.495 82.8926 112.785C82.8926 113.074 83.0826 113.308 83.3169 113.308Z" fill="#FD4525" stroke="#FD4525" stroke-width="0.19116" stroke-miterlimit="10"/>
<path d="M105.592 122.595C105.827 122.595 106.017 122.361 106.017 122.072C106.017 121.782 105.827 121.548 105.592 121.548C105.358 121.548 105.168 121.782 105.168 122.072C105.168 122.361 105.358 122.595 105.592 122.595Z" fill="#FD4525" stroke="#FD4525" stroke-width="0.19116" stroke-miterlimit="10"/>
<path d="M111.184 127.566C111.419 127.566 111.609 127.331 111.609 127.042C111.609 126.753 111.419 126.518 111.184 126.518C110.95 126.518 110.76 126.753 110.76 127.042C110.76 127.331 110.95 127.566 111.184 127.566Z" fill="#FD4525" stroke="#FD4525" stroke-width="0.19116" stroke-miterlimit="10"/>
<path d="M103.95 127.038C104.184 127.038 104.374 126.803 104.374 126.514C104.374 126.225 104.184 125.99 103.95 125.99C103.715 125.99 103.525 126.225 103.525 126.514C103.525 126.803 103.715 127.038 103.95 127.038Z" fill="#FD4525" stroke="#FD4525" stroke-width="0.19116" stroke-miterlimit="10"/>
<path d="M108.379 130.605C108.614 130.605 108.804 130.371 108.804 130.081C108.804 129.792 108.614 129.558 108.379 129.558C108.145 129.558 107.955 129.792 107.955 130.081C107.955 130.371 108.145 130.605 108.379 130.605Z" fill="#FD4525" stroke="#FD4525" stroke-width="0.19116" stroke-miterlimit="10"/>
<path d="M100.263 124.35C100.498 124.35 100.688 124.116 100.688 123.827C100.688 123.537 100.498 123.303 100.263 123.303C100.029 123.303 99.8389 123.537 99.8389 123.827C99.8389 124.116 100.029 124.35 100.263 124.35Z" fill="#FD4525" stroke="#FD4525" stroke-width="0.19116" stroke-miterlimit="10"/>
<path d="M104.375 136.81C104.609 136.81 104.799 136.576 104.799 136.286C104.799 135.997 104.609 135.763 104.375 135.763C104.14 135.763 103.95 135.997 103.95 136.286C103.95 136.576 104.14 136.81 104.375 136.81Z" fill="#FD4525" stroke="#FD4525" stroke-width="0.19116" stroke-miterlimit="10"/>
<path d="M95.1986 130.605C95.4329 130.605 95.6229 130.371 95.6229 130.081C95.6229 129.792 95.4329 129.558 95.1986 129.558C94.9642 129.558 94.7742 129.792 94.7742 130.081C94.7742 130.371 94.9642 130.605 95.1986 130.605Z" fill="#FD4525" stroke="#FD4525" stroke-width="0.19116" stroke-miterlimit="10"/>
<path d="M99.8404 128.614C100.075 128.614 100.265 128.379 100.265 128.09C100.265 127.801 100.075 127.566 99.8404 127.566C99.606 127.566 99.416 127.801 99.416 128.09C99.416 128.379 99.606 128.614 99.8404 128.614Z" fill="#FD4525" stroke="#FD4525" stroke-width="0.19116" stroke-miterlimit="10"/>
<path d="M103.95 133.041C104.184 133.041 104.374 132.806 104.374 132.517C104.374 132.228 104.184 131.993 103.95 131.993C103.715 131.993 103.525 132.228 103.525 132.517C103.525 132.806 103.715 133.041 103.95 133.041Z" fill="#FD4525" stroke="#FD4525" stroke-width="0.19116" stroke-miterlimit="10"/>
<path d="M87.647 135.346C87.8814 135.346 88.0714 135.112 88.0714 134.823C88.0714 134.533 87.8814 134.299 87.647 134.299C87.4127 134.299 87.2227 134.533 87.2227 134.823C87.2227 135.112 87.4127 135.346 87.647 135.346Z" fill="#FD4525" stroke="#FD4525" stroke-width="0.19116" stroke-miterlimit="10"/>
<path d="M91.4856 127.566C91.72 127.566 91.91 127.331 91.91 127.042C91.91 126.753 91.72 126.518 91.4856 126.518C91.2513 126.518 91.0613 126.753 91.0613 127.042C91.0613 127.331 91.2513 127.566 91.4856 127.566Z" fill="#FD4525" stroke="#FD4525" stroke-width="0.19116" stroke-miterlimit="10"/>
<path d="M87.647 129.553C87.8814 129.553 88.0714 129.319 88.0714 129.03C88.0714 128.74 87.8814 128.506 87.647 128.506C87.4127 128.506 87.2227 128.74 87.2227 129.03C87.2227 129.319 87.4127 129.553 87.647 129.553Z" fill="#FD4525" stroke="#FD4525" stroke-width="0.19116" stroke-miterlimit="10"/>
<path d="M92.3394 124.879C92.5738 124.879 92.7638 124.644 92.7638 124.355C92.7638 124.066 92.5738 123.831 92.3394 123.831C92.105 123.831 91.915 124.066 91.915 124.355C91.915 124.644 92.105 124.879 92.3394 124.879Z" fill="#FD4525" stroke="#FD4525" stroke-width="0.19116" stroke-miterlimit="10"/>
<path d="M90.4283 152.221C90.6627 152.221 90.8527 151.987 90.8527 151.698C90.8527 151.408 90.6627 151.174 90.4283 151.174C90.1939 151.174 90.0039 151.408 90.0039 151.698C90.0039 151.987 90.1939 152.221 90.4283 152.221Z" fill="#FD4525" stroke="#FD4525" stroke-width="0.19116" stroke-miterlimit="10"/>
<path d="M88.6812 146.685C88.9156 146.685 89.1056 146.451 89.1056 146.161C89.1056 145.872 88.9156 145.638 88.6812 145.638C88.4468 145.638 88.2568 145.872 88.2568 146.161C88.2568 146.451 88.4468 146.685 88.6812 146.685Z" fill="#FD4525" stroke="#FD4525" stroke-width="0.19116" stroke-miterlimit="10"/>
<path d="M93.3228 144.693C93.5572 144.693 93.7472 144.459 93.7472 144.169C93.7472 143.88 93.5572 143.646 93.3228 143.646C93.0884 143.646 92.8984 143.88 92.8984 144.169C92.8984 144.459 93.0884 144.693 93.3228 144.693Z" fill="#FD4525" stroke="#FD4525" stroke-width="0.19116" stroke-miterlimit="10"/>
<path d="M82.5308 138.951C82.7652 138.951 82.9552 138.716 82.9552 138.427C82.9552 138.138 82.7652 137.903 82.5308 137.903C82.2965 137.903 82.1064 138.138 82.1064 138.427C82.1064 138.716 82.2965 138.951 82.5308 138.951Z" fill="#FD4525" stroke="#FD4525" stroke-width="0.19116" stroke-miterlimit="10"/>
<path d="M84.9683 143.642C85.2027 143.642 85.3927 143.408 85.3927 143.119C85.3927 142.829 85.2027 142.595 84.9683 142.595C84.7339 142.595 84.5439 142.829 84.5439 143.119C84.5439 143.408 84.7339 143.642 84.9683 143.642Z" fill="#FD4525" stroke="#FD4525" stroke-width="0.19116" stroke-miterlimit="10"/>
<path d="M82.9527 164.574C83.1871 164.574 83.3771 164.339 83.3771 164.05C83.3771 163.761 83.1871 163.526 82.9527 163.526C82.7183 163.526 82.5283 163.761 82.5283 164.05C82.5283 164.339 82.7183 164.574 82.9527 164.574Z" fill="#FD4525" stroke="#FD4525" stroke-width="0.19116" stroke-miterlimit="10"/>
<path d="M85.8199 140.955C86.0543 140.955 86.2443 140.72 86.2443 140.431C86.2443 140.142 86.0543 139.907 85.8199 139.907C85.5855 139.907 85.3955 140.142 85.3955 140.431C85.3955 140.72 85.5855 140.955 85.8199 140.955Z" fill="#FD4525" stroke="#FD4525" stroke-width="0.19116" stroke-miterlimit="10"/>
<path d="M106.875 151.698C107.109 151.698 107.299 151.463 107.299 151.174C107.299 150.885 107.109 150.65 106.875 150.65C106.64 150.65 106.45 150.885 106.45 151.174C106.45 151.463 106.64 151.698 106.875 151.698Z" fill="#FD4525" stroke="#FD4525" stroke-width="0.19116" stroke-miterlimit="10"/>
<path d="M109.73 136.144C109.964 136.144 110.154 135.91 110.154 135.62C110.154 135.331 109.964 135.097 109.73 135.097C109.496 135.097 109.306 135.331 109.306 135.62C109.306 135.91 109.496 136.144 109.73 136.144Z" fill="#FD4525" stroke="#FD4525" stroke-width="0.19116" stroke-miterlimit="10"/>
<path d="M95.3033 155.391C95.5377 155.391 95.7277 155.157 95.7277 154.868C95.7277 154.578 95.5377 154.344 95.3033 154.344C95.0689 154.344 94.8789 154.578 94.8789 154.868C94.8789 155.157 95.0689 155.391 95.3033 155.391Z" fill="#FD4525" stroke="#FD4525" stroke-width="0.19116" stroke-miterlimit="10"/>
<path d="M102.602 153.659C102.836 153.659 103.026 153.424 103.026 153.135C103.026 152.846 102.836 152.611 102.602 152.611C102.368 152.611 102.178 152.846 102.178 153.135C102.178 153.424 102.368 153.659 102.602 153.659Z" fill="#FD4525" stroke="#FD4525" stroke-width="0.19116" stroke-miterlimit="10"/>
<path d="M106.444 145.876C106.678 145.876 106.868 145.641 106.868 145.352C106.868 145.063 106.678 144.828 106.444 144.828C106.21 144.828 106.02 145.063 106.02 145.352C106.02 145.641 106.21 145.876 106.444 145.876Z" fill="#FD4525" stroke="#FD4525" stroke-width="0.19116" stroke-miterlimit="10"/>
<path d="M102.602 147.867C102.836 147.867 103.026 147.632 103.026 147.343C103.026 147.054 102.836 146.819 102.602 146.819C102.368 146.819 102.178 147.054 102.178 147.343C102.178 147.632 102.368 147.867 102.602 147.867Z" fill="#FD4525" stroke="#FD4525" stroke-width="0.19116" stroke-miterlimit="10"/>
<path d="M107.294 143.191C107.529 143.191 107.719 142.957 107.719 142.667C107.719 142.378 107.529 142.144 107.294 142.144C107.06 142.144 106.87 142.378 106.87 142.667C106.87 142.957 107.06 143.191 107.294 143.191Z" fill="#FD4525" stroke="#FD4525" stroke-width="0.19116" stroke-miterlimit="10"/>
<path d="M86.7996 123.827C87.034 123.827 87.224 123.592 87.224 123.303C87.224 123.014 87.034 122.779 86.7996 122.779C86.5652 122.779 86.3752 123.014 86.3752 123.303C86.3752 123.592 86.5652 123.827 86.7996 123.827Z" fill="#FD4525" stroke="#FD4525" stroke-width="0.19116" stroke-miterlimit="10"/>
<path d="M105.489 157.616C105.723 157.616 105.913 157.381 105.913 157.092C105.913 156.803 105.723 156.568 105.489 156.568C105.254 156.568 105.064 156.803 105.064 157.092C105.064 157.381 105.254 157.616 105.489 157.616Z" fill="#FD4525" stroke="#FD4525" stroke-width="0.19116" stroke-miterlimit="10"/>
<path d="M111.08 162.583C111.314 162.583 111.504 162.348 111.504 162.059C111.504 161.77 111.314 161.535 111.08 161.535C110.845 161.535 110.655 161.77 110.655 162.059C110.655 162.348 110.845 162.583 111.08 162.583Z" fill="#FD4525" stroke="#FD4525" stroke-width="0.19116" stroke-miterlimit="10"/>
<path d="M103.845 162.058C104.08 162.058 104.27 161.824 104.27 161.535C104.27 161.245 104.08 161.011 103.845 161.011C103.611 161.011 103.421 161.245 103.421 161.535C103.421 161.824 103.611 162.058 103.845 162.058Z" fill="#FD4525" stroke="#FD4525" stroke-width="0.19116" stroke-miterlimit="10"/>
<path d="M108.278 165.626C108.512 165.626 108.702 165.391 108.702 165.102C108.702 164.813 108.512 164.578 108.278 164.578C108.044 164.578 107.854 164.813 107.854 165.102C107.854 165.391 108.044 165.626 108.278 165.626Z" fill="#FD4525" stroke="#FD4525" stroke-width="0.19116" stroke-miterlimit="10"/>
<path d="M109.257 171.349C109.492 171.349 109.682 171.115 109.682 170.826C109.682 170.536 109.492 170.302 109.257 170.302C109.023 170.302 108.833 170.536 108.833 170.826C108.833 171.115 109.023 171.349 109.257 171.349Z" fill="#FD4525" stroke="#FD4525" stroke-width="0.19116" stroke-miterlimit="10"/>
<path d="M106.453 174.388C106.687 174.388 106.877 174.154 106.877 173.865C106.877 173.575 106.687 173.341 106.453 173.341C106.218 173.341 106.028 173.575 106.028 173.865C106.028 174.154 106.218 174.388 106.453 174.388Z" fill="#FD4525" stroke="#FD4525" stroke-width="0.19116" stroke-miterlimit="10"/>
<path d="M100.157 159.371C100.391 159.371 100.581 159.136 100.581 158.847C100.581 158.558 100.391 158.323 100.157 158.323C99.9224 158.323 99.7324 158.558 99.7324 158.847C99.7324 159.136 99.9224 159.371 100.157 159.371Z" fill="#FD4525" stroke="#FD4525" stroke-width="0.19116" stroke-miterlimit="10"/>
<path d="M102.534 174.641C102.768 174.641 102.958 174.406 102.958 174.117C102.958 173.827 102.768 173.593 102.534 173.593C102.3 173.593 102.11 173.827 102.11 174.117C102.11 174.406 102.3 174.641 102.534 174.641Z" fill="#FD4525" stroke="#FD4525" stroke-width="0.19116" stroke-miterlimit="10"/>
<path d="M95.0933 165.626C95.3277 165.626 95.5177 165.391 95.5177 165.102C95.5177 164.813 95.3277 164.578 95.0933 164.578C94.8589 164.578 94.6689 164.813 94.6689 165.102C94.6689 165.391 94.8589 165.626 95.0933 165.626Z" fill="#FD4525" stroke="#FD4525" stroke-width="0.19116" stroke-miterlimit="10"/>
<path d="M99.8404 166.677C100.075 166.677 100.265 166.443 100.265 166.154C100.265 165.864 100.075 165.63 99.8404 165.63C99.606 165.63 99.416 165.864 99.416 166.154C99.416 166.443 99.606 166.677 99.8404 166.677Z" fill="#FD4525" stroke="#FD4525" stroke-width="0.19116" stroke-miterlimit="10"/>
<path d="M103.845 168.057C104.08 168.057 104.27 167.823 104.27 167.533C104.27 167.244 104.08 167.01 103.845 167.01C103.611 167.01 103.421 167.244 103.421 167.533C103.421 167.823 103.611 168.057 103.845 168.057Z" fill="#FD4525" stroke="#FD4525" stroke-width="0.19116" stroke-miterlimit="10"/>
<path d="M101.297 171.016C101.532 171.016 101.722 170.782 101.722 170.493C101.722 170.203 101.532 169.969 101.297 169.969C101.063 169.969 100.873 170.203 100.873 170.493C100.873 170.782 101.063 171.016 101.297 171.016Z" fill="#FD4525" stroke="#FD4525" stroke-width="0.19116" stroke-miterlimit="10"/>
<path d="M109.73 159.371C109.964 159.371 110.154 159.136 110.154 158.847C110.154 158.558 109.964 158.323 109.73 158.323C109.496 158.323 109.306 158.558 109.306 158.847C109.306 159.136 109.496 159.371 109.73 159.371Z" fill="#FD4525" stroke="#FD4525" stroke-width="0.19116" stroke-miterlimit="10"/>
<path d="M95.7984 172.342C96.0328 172.342 96.2228 172.108 96.2228 171.819C96.2228 171.529 96.0328 171.295 95.7984 171.295C95.564 171.295 95.374 171.529 95.374 171.819C95.374 172.108 95.564 172.342 95.7984 172.342Z" fill="#FD4525" stroke="#FD4525" stroke-width="0.19116" stroke-miterlimit="10"/>
<path d="M92.1129 169.655C92.3472 169.655 92.5372 169.42 92.5372 169.131C92.5372 168.842 92.3472 168.607 92.1129 168.607C91.8785 168.607 91.6885 168.842 91.6885 169.131C91.6885 169.42 91.8785 169.655 92.1129 169.655Z" fill="#FD4525" stroke="#FD4525" stroke-width="0.19116" stroke-miterlimit="10"/>
<path d="M91.689 173.918C91.9234 173.918 92.1134 173.683 92.1134 173.394C92.1134 173.105 91.9234 172.87 91.689 172.87C91.4546 172.87 91.2646 173.105 91.2646 173.394C91.2646 173.683 91.4546 173.918 91.689 173.918Z" fill="#FD4525" stroke="#FD4525" stroke-width="0.19116" stroke-miterlimit="10"/>
<path d="M97.3697 176.633C97.6041 176.633 97.7941 176.398 97.7941 176.109C97.7941 175.819 97.6041 175.585 97.3697 175.585C97.1353 175.585 96.9453 175.819 96.9453 176.109C96.9453 176.398 97.1353 176.633 97.3697 176.633Z" fill="#FD4525" stroke="#FD4525" stroke-width="0.19116" stroke-miterlimit="10"/>
<path d="M87.5435 170.367C87.7779 170.367 87.9679 170.132 87.9679 169.843C87.9679 169.554 87.7779 169.319 87.5435 169.319C87.3091 169.319 87.1191 169.554 87.1191 169.843C87.1191 170.132 87.3091 170.367 87.5435 170.367Z" fill="#FD4525" stroke="#FD4525" stroke-width="0.19116" stroke-miterlimit="10"/>
<path d="M96.0465 162.058C96.2808 162.058 96.4708 161.824 96.4708 161.535C96.4708 161.245 96.2808 161.011 96.0465 161.011C95.8121 161.011 95.6221 161.245 95.6221 161.535C95.6221 161.824 95.8121 162.058 96.0465 162.058Z" fill="#FD4525" stroke="#FD4525" stroke-width="0.19116" stroke-miterlimit="10"/>
<path d="M87.5435 164.574C87.7779 164.574 87.9679 164.339 87.9679 164.05C87.9679 163.761 87.7779 163.526 87.5435 163.526C87.3091 163.526 87.1191 163.761 87.1191 164.05C87.1191 164.339 87.3091 164.574 87.5435 164.574Z" fill="#FD4525" stroke="#FD4525" stroke-width="0.19116" stroke-miterlimit="10"/>
<path d="M92.2359 159.898C92.4703 159.898 92.6603 159.664 92.6603 159.374C92.6603 159.085 92.4703 158.851 92.2359 158.851C92.0015 158.851 91.8115 159.085 91.8115 159.374C91.8115 159.664 92.0015 159.898 92.2359 159.898Z" fill="#FD4525" stroke="#FD4525" stroke-width="0.19116" stroke-miterlimit="10"/>
<path d="M86.6946 158.847C86.929 158.847 87.119 158.613 87.119 158.323C87.119 158.034 86.929 157.8 86.6946 157.8C86.4603 157.8 86.2703 158.034 86.2703 158.323C86.2703 158.613 86.4603 158.847 86.6946 158.847Z" fill="#FD4525" stroke="#FD4525" stroke-width="0.19116" stroke-miterlimit="10"/>
</svg>
