<svg width="150" height="150" viewBox="0 0 150 150" fill="none" xmlns="http://www.w3.org/2000/svg">
<path d="M52 51.5L46.5 53L53 109.5C55 111.9 60.5 112.167 63 112L104 101.5V44C96.8 43.6 93.8333 41.5 93.5 40.5L53.5 50.5L52 51.5Z" fill="#FAF4F4"/>
<path d="M52.3523 108.851C52.3523 108.851 52.2409 112.081 62.3788 111.97" stroke="#FD4525" stroke-width="0.506328" stroke-linecap="round" stroke-linejoin="round"/>
<path d="M104.045 101.697L62.3796 111.971V54.0625L104.045 43.791V101.697Z" stroke="#FD4525" stroke-width="0.506328" stroke-linecap="round" stroke-linejoin="round"/>
<path d="M52.3523 108.851V50.9432L94.0176 40.6717" stroke="#FD4525" stroke-width="0.506328" stroke-linecap="round" stroke-linejoin="round"/>
<path d="M104.043 43.7912C93.2372 43.0114 94.017 40.6719 94.017 40.6719" stroke="#FD4525" stroke-width="0.506328" stroke-linecap="round" stroke-linejoin="round"/>
<path d="M52.3523 50.9424C52.3523 50.9424 53.3549 54.1976 62.3787 54.0617" stroke="#FD4525" stroke-width="0.506328" stroke-linecap="round" stroke-linejoin="round"/>
<path d="M55.1384 51.4779L69.3982 48.1357" stroke="#FD4525" stroke-width="0.506328" stroke-linecap="round" stroke-linejoin="round"/>
<path d="M59.1464 52.814L95.7985 43.3446" stroke="#FD4525" stroke-width="0.506328" stroke-linecap="round" stroke-linejoin="round"/>
<path d="M60.9304 53.4831L97.5825 44.0137" stroke="#FD4525" stroke-width="0.506328" stroke-linecap="round" stroke-linejoin="round"/>
<path d="M87.6655 44.3474L85.2146 45.0158L86.3286 39H88.5567L87.6655 44.3474Z" fill="black"/>
<path d="M86.1069 44.7932L83.656 45.4616L84.3244 41.6738H86.5525L86.1069 44.7932Z" fill="#FD4525"/>
<path d="M57.366 52.1452L94.0181 42.6758" stroke="#FD4525" stroke-width="0.506328" stroke-linecap="round" stroke-linejoin="round"/>
<path d="M52.5994 54.0664C52.5994 54.0664 55.3644 56.524 62.3829 56.1162" stroke="#FD4525" stroke-width="0.506328" stroke-linecap="round" stroke-linejoin="round"/>
<path d="M52.5994 55.1816C52.5994 55.1816 55.3644 57.6392 62.3829 57.2315" stroke="#FD4525" stroke-width="0.506328" stroke-linecap="round" stroke-linejoin="round"/>
<path d="M52.5994 60.751C52.5994 60.751 55.3644 63.2086 62.3829 62.8008" stroke="#FD4525" stroke-width="0.506328" stroke-linecap="round" stroke-linejoin="round"/>
<path d="M52.5994 61.8652C52.5994 61.8652 55.3644 64.3228 62.3829 63.9151" stroke="#FD4525" stroke-width="0.506328" stroke-linecap="round" stroke-linejoin="round"/>
<path d="M64.1619 72.8899L102.262 63.0596" stroke="#FD4525" stroke-width="0.506328" stroke-linecap="round" stroke-linejoin="round"/>
<path d="M64.1619 82.6926L102.262 72.8623" stroke="#FD4525" stroke-width="0.506328" stroke-linecap="round" stroke-linejoin="round"/>
<path d="M52.4653 109.408C50.3508 109.297 47.2738 108.207 46.0038 106.511L46.1419 52.9258L46.5296 53.318C48.0514 54.8554 50.1035 55.7488 52.2647 55.8201H52.3516" stroke="#FD4525" stroke-width="0.506328" stroke-linecap="round" stroke-linejoin="round"/>
<path d="M46.1434 52.926L52.4668 51.2549" stroke="#FD4525" stroke-width="0.506328" stroke-linecap="round" stroke-linejoin="round"/>
<path d="M48.4432 53.5009L52.3535 52.4805" stroke="#FD4525" stroke-width="0.506328" stroke-linecap="round" stroke-linejoin="round"/>
<path d="M49.3339 54.1687L52.3529 53.3711" stroke="#FD4525" stroke-width="0.506328" stroke-linecap="round" stroke-linejoin="round"/>
<path d="M50.4481 54.8374L52.3531 54.4854" stroke="#FD4525" stroke-width="0.506328" stroke-linecap="round" stroke-linejoin="round"/>
<path d="M46.1381 53.3719C46.1381 53.3719 51.9535 56.4845 52.2632 55.8206L52.4615 109.408C52.4615 109.408 47.0026 108.851 46 106.512L46.1359 53.3719H46.1381Z" fill="#FD4525"/>
</svg>
