<svg width="150" height="150" viewBox="0 0 150 150" fill="none" xmlns="http://www.w3.org/2000/svg">
<path d="M74.5989 87C74.9098 85.4094 74.7618 83.6806 74.9062 82.0637C75.0841 80.072 75.2913 78.0391 75.2078 76.0368C75.184 75.4665 72.9524 75.8582 72.4822 75.855C71.3495 75.8473 70.2284 75.5831 69.1363 75.3097C67.117 74.8041 64.5939 74.3605 63.0137 72.8785C60.9785 70.9697 59.2575 67.8941 59.0078 65.0906C58.816 62.9359 62.2017 62.3372 63.7819 62.0743C67.854 61.3968 71.3684 65.5001 73.4154 68.4136C73.6451 68.7406 74.1402 69.8601 74.5989 70.0098C74.9425 70.122 75.3709 69.3652 75.4012 69.3282C76.2903 68.2443 76.5198 67.8727 77.6432 66.8458C79.5524 65.1006 82.0924 63.3716 84.8128 63.7671C88.3793 64.2856 92.572 67.869 90.4062 71.6742C89.7258 72.8698 88.2698 73.6905 87.0376 74.202C85.1391 74.9901 83.071 75.1467 81.0459 75.3381C79.2307 75.5096 77.4443 75.5483 75.6231 75.5483" stroke="#FD4525" stroke-width="2" stroke-linecap="round"/>
</svg>
