<svg width="150" height="150" viewBox="0 0 150 150" fill="none" xmlns="http://www.w3.org/2000/svg">
<path d="M61.6911 97.3078C61.6911 97.3078 64.6085 90.2931 61.6911 86.6243C58.2924 82.351 46.0065 81.3766 48.2782 70.0651C50.7084 57.9612 64.8315 58.9474 67.5376 59.8983C69.3866 60.5499 72.3099 62.6102 71.1828 65.3457C70.185 67.7817 65.8646 69.0907 61.9905 66.3025C56.8542 62.5985 54.8819 48.8452 70.4374 48.0351C84.8247 47.2837 88.7223 58.8006 87.2255 62.9272C86.8028 64.0954 85.3236 66.5431 82.2008 65.4572C79.7882 64.6178 79.6063 60.9197 81.6608 58.9885C85.4762 55.4019 101.689 57.3273 102.511 69.6894C103.268 81.0654 93.9701 82.9791 88.646 82.2042C81.6079 81.1828 81.5962 79.4806 81.8251 78.6059C82.2771 76.8802 87.519 76.9565 90.3659 77.7841C93.2129 78.6118 99.4351 81.5292 97.4862 87.2994C95.5374 93.0695 84.1496 90.745 81.6021 90.522C79.0545 90.2989 73.66 89.0251 71.6348 90.3694C69.6097 91.7136 63.2619 97.3078 60.3269 102.297" stroke="#FD4525" stroke-width="1.174" stroke-linecap="round" stroke-linejoin="round"/>
<circle cx="59.4469" cy="72.9479" r="0.880496" fill="#FD4525"/>
<circle cx="64.7291" cy="77.0563" r="0.880496" fill="#FD4525"/>
<path d="M56.2995 74.8575C53.7844 76.5289 56.1067 79.8779 61.4192 80.0457" stroke="#FD4525" stroke-width="1.174" stroke-linecap="round" stroke-linejoin="round"/>
</svg>
