<svg width="150" height="150" viewBox="0 0 150 150" fill="none" xmlns="http://www.w3.org/2000/svg">
<path d="M68.75 70.7502C68.0605 69.2708 67.8495 67.4783 67.5704 65.8916C67.3755 64.7832 67.4253 63.4263 67.5659 62.3175C67.6772 61.4393 67.7457 60.4554 68.3934 59.7846C69.287 58.8591 70.7237 57.7517 72.1332 58.0494C74.7313 58.5982 75.5878 61.0094 75.8958 63.3452C76.0547 64.5502 76.0741 65.7233 76.0741 66.9327C76.0741 67.7627 75.8503 68.5517 75.8272 69.371C75.8193 69.6517 75.4322 70.1079 75.4523 70.0832C76.1498 69.2289 76.5881 68.2518 77.1485 67.3068C78.2552 65.4406 79.5057 63.6631 81.0483 62.1147C81.617 61.544 82.1566 61.2569 82.9685 61.0691C83.6201 60.9184 84.6929 60.7127 85.3733 60.9294C87.2332 61.5218 88.0547 63.4984 88.0021 65.2877C87.9382 67.4619 86.8957 69.6435 84.9801 70.8313C84.5117 71.1218 84.0501 71.5302 83.6268 71.886C82.9548 72.4507 82.2093 72.9329 81.5146 73.4724C81.197 73.7191 81.9411 73.4574 82.0404 73.4229C82.6836 73.1991 83.4128 73.0441 84.0932 72.9767C84.9955 72.8872 85.9126 72.8738 86.818 72.8234C87.4061 72.7907 88.0332 72.7197 88.6193 72.8234C89.3323 72.9496 90.0906 73.3997 90.6675 73.815C91.1604 74.1697 91.4533 74.9174 91.6276 75.4645C91.9566 76.4972 92.1424 77.6016 91.8653 78.66C91.6982 79.2985 90.8695 79.9181 90.3795 80.3321C89.543 81.0389 88.7207 81.4323 87.6318 81.6392C86.1548 81.9197 84.5303 82.1414 83.0234 81.9456C82.1002 81.8257 81.0932 81.817 80.2162 81.4904C79.9648 81.3968 79.3992 81.0244 79.1281 81.1073C79.0718 81.1246 79.6484 81.9342 79.695 82.0087C80.1212 82.6905 80.1903 83.6531 80.4311 84.4245C80.8658 85.8173 80.1058 87.2998 79.5762 88.5529C78.9891 89.942 77.4072 90.8658 75.9507 90.9822C75.0192 91.0567 74.2643 90.9019 73.4544 90.4279C72.8348 90.0652 72.1135 89.6557 71.7766 89.0036C70.7965 87.1072 71.0666 84.7349 71.1319 82.6758C71.1517 82.0517 71.1954 81.4629 71.3422 80.8549C71.3471 80.835 71.3895 80.542 71.3834 80.6927C71.3574 81.3334 71.2435 81.9882 71.0999 82.6127C70.8195 83.8324 70.5158 85.1186 69.6461 86.0831C68.2378 87.645 66.3832 88.5169 64.2787 88.5169C62.5613 88.5169 60.8201 87.332 60.4749 85.6504C60.0432 83.5474 60.5802 81.9546 61.851 80.278C62.3993 79.5547 63.0302 78.951 63.7301 78.3761C64.3166 77.8943 64.8025 77.29 65.5222 76.9969C65.9083 76.8397 66.278 76.5541 66.7018 76.5102C66.9542 76.484 66.2808 76.8039 66.0389 76.8797C64.4594 77.3752 62.6124 76.707 61.2567 75.9333C60.244 75.3553 59.271 74.5353 58.7102 73.5085C58.0544 72.3079 57.7285 70.7156 58.2804 69.4251C58.6456 68.5712 59.3544 67.9087 60.0589 67.3158C61.5394 66.0699 63.4754 66.8218 65.0285 67.5412C66.4336 68.1921 67.6268 69.336 68.9146 70.1823" stroke="#FD4525" stroke-width="2" stroke-linecap="round"/>
</svg>
