<svg width="150" height="150" viewBox="0 0 150 150" fill="none" xmlns="http://www.w3.org/2000/svg">
<path d="M64.208 69.1962C64.9109 69.6827 67.9762 71.4256 69.4209 72.2363C68.103 72.7888 65.2021 74.0042 64.1414 74.4458C62.8156 74.9977 57.4425 77.9182 58.0473 79.276C58.652 80.6338 62.9212 79.4709 63.8674 79.276C64.6243 79.1201 68.2345 77.8403 69.9449 77.2199C69.5077 78.3725 68.5424 80.972 68.1784 82.1492C67.7234 83.6207 66.3584 89.2144 67.9375 89.9288C69.5167 90.6433 72.0326 85.7744 72.6749 84.4249C73.1888 83.3453 74.873 79.1717 75.6508 77.2199C76.1554 78.5789 77.2481 81.426 77.5822 81.942C77.9998 82.5871 79.6441 86.5867 81.2884 86.2255C82.9327 85.8642 81.8454 81.813 81.4711 80.6776C81.1716 79.7694 79.7977 77.0479 79.1482 75.8007C80.2618 75.8093 82.8178 75.8213 84.1333 75.8007C85.7776 75.7749 91.9234 75.351 91.9984 74.2762C92.0734 73.2013 89.5053 72.4229 87.6684 72.1635C86.1988 71.9559 83.1741 71.8546 81.8454 71.8299C82.4563 71.2511 83.8968 69.8823 84.7724 69.0368C85.8668 67.9799 90.1426 63.4506 89.5572 62.8467C88.9718 62.2428 85.7395 64.4571 84.7724 65.212C83.9986 65.8159 80.1615 69.0278 78.3397 70.5583C79.44 66.9185 81.2485 59.5162 79.6799 59.0255C78.1113 58.5347 74.7252 65.2539 73.2282 68.6748C72.086 67.8448 69.3917 65.959 67.7516 65.0556C65.7016 63.9264 61.6893 62.3629 60.5765 63.8974C59.4636 65.432 63.3294 68.588 64.208 69.1962Z" fill="#FD4525"/>
</svg>
