<svg width="150" height="150" viewBox="0 0 150 150" fill="none" xmlns="http://www.w3.org/2000/svg">
<path d="M78.6409 45.027C84.6833 44.9995 96.4853 46.758 95.3537 54.012C93.9391 63.0796 77.9504 61.904 76.5463 61.9249C75.1423 61.9458 64.2153 60.8128 64.7427 57.0232C65.2702 53.2337 80.2806 56.2679 82.8081 57.8018C85.3356 59.3356 93.6323 64.0644 89.8759 70.2593C86.1195 76.4542 71.4674 76.3737 69.7621 76.4313C68.0567 76.4889 58.4018 74.7452 59.9258 70.7596C61.4497 66.7741 75.9943 71.3596 77.5879 72.7741C79.1815 74.1886 84.5755 78.3419 79.165 81.9014C73.7545 85.461 61.6922 84.3107 61.7735 82.3297C61.8549 80.3487 72.9454 80.8604 75.9002 82.2513C78.855 83.6421 82.7689 89.0617 76.7913 91.589C70.8138 94.1163 59.7185 93.8699 60.3729 90.1951C61.0273 86.5203 74.1257 90.843 74.0941 94.9764C74.0612 99.2842 70.4624 103.033 62.5631 102.89" stroke="#FD4525" stroke-width="1.174" stroke-linecap="round"/>
</svg>
