<svg width="150" height="150" viewBox="0 0 150 150" fill="none" xmlns="http://www.w3.org/2000/svg">
<path d="M51 73C51.4912 72.1662 52.2722 71.4381 52.9227 70.7169C53.8246 69.7169 55.1244 68.9634 56.3445 68.3927C57.4818 67.8607 59.4943 67.2817 60.6658 68.0685C61.2984 68.4934 62.0186 68.8987 62.717 69.2192C63.1504 69.418 63.5653 69.7934 63.9829 70.0411C64.7103 70.4725 65.8271 70.6164 66.6575 70.6164C68.8886 70.6164 70.9096 69.0138 72.635 67.8219C73.373 67.3121 73.8363 67.2184 74.7814 67.1233C75.5843 67.0425 76.3617 67 77.1657 67C78.095 67 79.1859 67.7273 79.9212 68.1781C80.8649 68.7565 81.9195 69.0818 82.8005 69.758C83.5845 70.3598 84.572 70.5342 85.5608 70.5342C85.8644 70.5342 86.2026 70.5712 86.5031 70.5251C87.085 70.4358 87.5494 69.8164 87.9642 69.4703C88.7337 68.8283 89.6804 68.2682 90.5579 67.7717C91.4355 67.2751 92.3638 67.2466 93.3372 67.2466C93.7828 67.2466 94.2667 67.1971 94.7078 67.2648C95.2638 67.3502 95.8597 67.491 96.3831 67.6895C96.5556 67.7549 96.6771 67.8892 96.8685 67.9041C97.5211 67.9549 98.0218 68.6675 98.3533 69.1553C98.6599 69.6063 99.1135 69.907 99.4003 70.3699C99.6021 70.6954 99.9127 70.7729 100 71.1918" stroke="#FD4525" stroke-width="2" stroke-linecap="round"/>
<path d="M100 80.6244C99.0751 78.8967 97.1351 77.4942 95.1241 77.0917C94.0464 76.876 92.7002 77.0425 91.7508 77.5745C91.5187 77.7046 91.3187 77.8993 91.1111 78.0608C90.8782 78.2421 90.4181 78.5464 90.2966 78.8112C90.1164 79.2039 89.704 79.5826 89.3519 79.8498C88.9588 80.1481 88.5291 80.528 88.0539 80.7182C87.4977 80.9408 86.864 81.0604 86.2464 81.1212C85.8209 81.163 85.2584 81.1914 84.8703 81.0135C84.2367 80.723 83.6321 80.381 82.9809 80.1242C81.6351 79.5935 80.5089 78.6948 79.2989 77.9636C78.4971 77.479 77.3451 77.4981 76.4314 77.4981C75.9259 77.4981 75.5959 77.6159 75.1446 77.8142C74.7303 77.9963 74.2754 78.113 73.8763 78.3248C73.6771 78.4306 73.49 78.5869 73.2924 78.6792C72.688 78.9614 72.1801 79.4462 71.5779 79.7491C71.06 80.0095 70.48 80.2948 70.0828 80.7008C69.4719 81.3251 68.4644 81.6109 67.6058 81.4963C66.8865 81.4004 66.5362 80.8407 66.0065 80.4646C65.7688 80.2959 65.4338 80.0644 65.2404 79.8463C64.9468 79.5154 64.3248 78.9534 63.8568 78.8876C62.6252 78.7142 61.4637 78.1859 60.2083 78.1859C59.2489 78.1859 57.8404 77.8376 56.9726 78.3144C55.9932 78.8525 54.9485 79.2794 53.9935 79.8741C53.5772 80.1333 53.2062 80.4428 52.9224 80.8189C52.6283 81.2085 52.3613 81.6626 52 82" stroke="#FD4525" stroke-width="2" stroke-linecap="round"/>
</svg>
