<svg width="300" height="150" viewBox="0 0 300 150" fill="none" xmlns="http://www.w3.org/2000/svg">
<mask id="path-1-outside-1_686_357" maskUnits="userSpaceOnUse" x="50" y="36" width="201" height="78" fill="black">
<rect fill="white" x="50" y="36" width="201" height="78"/>
<path d="M98.6687 36.878V38.802H93.7287V55H91.3627V38.802H86.3967V36.878H98.6687ZM109.797 55.182C108.116 55.182 106.582 54.792 105.195 54.012C103.808 53.2147 102.708 52.114 101.893 50.71C101.096 49.2887 100.697 47.694 100.697 45.926C100.697 44.158 101.096 42.572 101.893 41.168C102.708 39.7467 103.808 38.646 105.195 37.866C106.582 37.0687 108.116 36.67 109.797 36.67C111.496 36.67 113.038 37.0687 114.425 37.866C115.812 38.646 116.904 39.738 117.701 41.142C118.498 42.546 118.897 44.1407 118.897 45.926C118.897 47.7113 118.498 49.306 117.701 50.71C116.904 52.114 115.812 53.2147 114.425 54.012C113.038 54.792 111.496 55.182 109.797 55.182ZM109.797 53.128C111.062 53.128 112.198 52.8333 113.203 52.244C114.226 51.6547 115.023 50.814 115.595 49.722C116.184 48.63 116.479 47.3647 116.479 45.926C116.479 44.47 116.184 43.2047 115.595 42.13C115.023 41.038 114.234 40.1973 113.229 39.608C112.224 39.0187 111.08 38.724 109.797 38.724C108.514 38.724 107.37 39.0187 106.365 39.608C105.36 40.1973 104.562 41.038 103.973 42.13C103.401 43.2047 103.115 44.47 103.115 45.926C103.115 47.3647 103.401 48.63 103.973 49.722C104.562 50.814 105.36 51.6547 106.365 52.244C107.388 52.8333 108.532 53.128 109.797 53.128ZM137.168 55.182C135.487 55.182 133.953 54.792 132.566 54.012C131.18 53.2147 130.079 52.114 129.264 50.71C128.467 49.2887 128.068 47.694 128.068 45.926C128.068 44.158 128.467 42.572 129.264 41.168C130.079 39.7467 131.18 38.646 132.566 37.866C133.953 37.0687 135.487 36.67 137.168 36.67C138.867 36.67 140.41 37.0687 141.796 37.866C143.183 38.646 144.275 39.738 145.072 41.142C145.87 42.546 146.268 44.1407 146.268 45.926C146.268 47.7113 145.87 49.306 145.072 50.71C144.275 52.114 143.183 53.2147 141.796 54.012C140.41 54.792 138.867 55.182 137.168 55.182ZM137.168 53.128C138.434 53.128 139.569 52.8333 140.574 52.244C141.597 51.6547 142.394 50.814 142.966 49.722C143.556 48.63 143.85 47.3647 143.85 45.926C143.85 44.47 143.556 43.2047 142.966 42.13C142.394 41.038 141.606 40.1973 140.6 39.608C139.595 39.0187 138.451 38.724 137.168 38.724C135.886 38.724 134.742 39.0187 133.736 39.608C132.731 40.1973 131.934 41.038 131.344 42.13C130.772 43.2047 130.486 44.47 130.486 45.926C130.486 47.3647 130.772 48.63 131.344 49.722C131.934 50.814 132.731 51.6547 133.736 52.244C134.759 52.8333 135.903 53.128 137.168 53.128ZM172.168 36.878L166.916 55H164.264L160.052 40.414L155.684 55L153.058 55.026L147.988 36.878H150.51L154.462 52.244L158.83 36.878H161.482L165.642 52.192L169.62 36.878H172.168ZM189.005 55H186.639L177.123 40.57V55H174.757V36.852H177.123L186.639 51.256V36.852H189.005V55ZM210.682 50.97H202.778L201.322 55H198.826L205.378 36.982H208.108L214.634 55H212.138L210.682 50.97ZM210.006 49.046L206.73 39.894L203.454 49.046H210.006ZM60.3817 74.666C61.0403 74.77 61.6383 75.0387 62.1757 75.472C62.7303 75.9053 63.1637 76.4427 63.4757 77.084C63.805 77.7253 63.9697 78.41 63.9697 79.138C63.9697 80.0567 63.7357 80.8887 63.2677 81.634C62.7997 82.362 62.115 82.9427 61.2137 83.376C60.3297 83.792 59.281 84 58.0677 84H51.3077V65.878H57.8077C59.0383 65.878 60.087 66.086 60.9537 66.502C61.8203 66.9007 62.4703 67.4467 62.9037 68.14C63.337 68.8333 63.5537 69.6133 63.5537 70.48C63.5537 71.5547 63.259 72.4473 62.6697 73.158C62.0977 73.8513 61.335 74.354 60.3817 74.666ZM53.6737 73.704H57.6517C58.761 73.704 59.619 73.444 60.2257 72.924C60.8323 72.404 61.1357 71.6847 61.1357 70.766C61.1357 69.8473 60.8323 69.128 60.2257 68.608C59.619 68.088 58.7437 67.828 57.5997 67.828H53.6737V73.704ZM57.8597 82.05C59.0383 82.05 59.957 81.7727 60.6157 81.218C61.2743 80.6633 61.6037 79.892 61.6037 78.904C61.6037 77.8987 61.257 77.11 60.5637 76.538C59.8703 75.9487 58.943 75.654 57.7817 75.654H53.6737V82.05H57.8597ZM76.795 84L72.479 76.59H69.619V84H67.253V65.878H73.103C74.4723 65.878 75.625 66.112 76.561 66.58C77.5143 67.048 78.225 67.6807 78.693 68.478C79.161 69.2753 79.395 70.1853 79.395 71.208C79.395 72.456 79.031 73.5567 78.303 74.51C77.5923 75.4633 76.5176 76.096 75.079 76.408L79.629 84H76.795ZM69.619 74.692H73.103C74.3856 74.692 75.3476 74.38 75.989 73.756C76.6303 73.1147 76.951 72.2653 76.951 71.208C76.951 70.1333 76.6303 69.3013 75.989 68.712C75.365 68.1227 74.403 67.828 73.103 67.828H69.619V74.692ZM85.4373 67.802V73.86H92.0413V75.81H85.4373V82.05H92.8213V84H83.0713V65.852H92.8213V67.802H85.4373ZM107.113 79.97H99.2094L97.7534 84H95.2574L101.809 65.982H104.539L111.065 84H108.569L107.113 79.97ZM106.437 78.046L103.161 68.894L99.8854 78.046H106.437ZM123.749 84L116.287 75.732V84H113.921V65.878H116.287V74.276L123.775 65.878H126.765L118.549 74.952L126.843 84H123.749ZM147.129 79.97H139.225L137.769 84H135.273L141.825 65.982H144.555L151.081 84H148.585L147.129 79.97ZM146.453 78.046L143.177 68.894L139.901 78.046H146.453ZM168.185 84H165.819L156.303 69.57V84H153.937V65.852H156.303L165.819 80.256V65.852H168.185V84ZM177.86 65.878C179.836 65.878 181.543 66.2507 182.982 66.996C184.438 67.724 185.547 68.7727 186.31 70.142C187.09 71.5113 187.48 73.1233 187.48 74.978C187.48 76.8327 187.09 78.4447 186.31 79.814C185.547 81.166 184.438 82.206 182.982 82.934C181.543 83.6447 179.836 84 177.86 84H172.218V65.878H177.86ZM177.86 82.05C180.2 82.05 181.985 81.4347 183.216 80.204C184.446 78.956 185.062 77.214 185.062 74.978C185.062 72.7247 184.438 70.9653 183.19 69.7C181.959 68.4347 180.182 67.802 177.86 67.802H174.584V82.05H177.86ZM207.776 65.878V67.802H199.898V73.912H206.294V75.836H199.898V84H197.532V65.878H207.776ZM213 65.878V84H210.634V65.878H213ZM231.28 84H228.914L219.398 69.57V84H217.032V65.852H219.398L228.914 80.256V65.852H231.28V84ZM240.956 65.878C242.932 65.878 244.639 66.2507 246.078 66.996C247.534 67.724 248.643 68.7727 249.406 70.142C250.186 71.5113 250.576 73.1233 250.576 74.978C250.576 76.8327 250.186 78.4447 249.406 79.814C248.643 81.166 247.534 82.206 246.078 82.934C244.639 83.6447 242.932 84 240.956 84H235.314V65.878H240.956ZM240.956 82.05C243.296 82.05 245.081 81.4347 246.312 80.204C247.542 78.956 248.158 77.214 248.158 74.978C248.158 72.7247 247.534 70.9653 246.286 69.7C245.055 68.4347 243.278 67.802 240.956 67.802H237.68V82.05H240.956ZM86.7732 94.878V96.802H81.8332V113H79.4672V96.802H74.5012V94.878H86.7732ZM103.648 94.878V113H101.282V104.784H92.0516V113H89.6856V94.878H92.0516V102.834H101.282V94.878H103.648ZM110.054 96.802V102.86H116.658V104.81H110.054V111.05H117.438V113H107.688V94.852H117.438V96.802H110.054ZM139.4 95.008V113H137.034V99.584L131.054 113H129.39L123.384 99.558V113H121.018V95.008H123.566L130.222 109.88L136.878 95.008H139.4ZM149.158 113.182C147.962 113.182 146.887 112.974 145.934 112.558C144.998 112.125 144.261 111.535 143.724 110.79C143.187 110.027 142.909 109.152 142.892 108.164H145.414C145.501 109.013 145.847 109.733 146.454 110.322C147.078 110.894 147.979 111.18 149.158 111.18C150.285 111.18 151.169 110.903 151.81 110.348C152.469 109.776 152.798 109.048 152.798 108.164C152.798 107.471 152.607 106.907 152.226 106.474C151.845 106.041 151.368 105.711 150.796 105.486C150.224 105.261 149.453 105.018 148.482 104.758C147.286 104.446 146.324 104.134 145.596 103.822C144.885 103.51 144.27 103.025 143.75 102.366C143.247 101.69 142.996 100.789 142.996 99.662C142.996 98.674 143.247 97.7987 143.75 97.036C144.253 96.2733 144.955 95.684 145.856 95.268C146.775 94.852 147.823 94.644 149.002 94.644C150.701 94.644 152.087 95.0687 153.162 95.918C154.254 96.7673 154.869 97.894 155.008 99.298H152.408C152.321 98.6047 151.957 97.998 151.316 97.478C150.675 96.9407 149.825 96.672 148.768 96.672C147.78 96.672 146.974 96.932 146.35 97.452C145.726 97.9547 145.414 98.6653 145.414 99.584C145.414 100.243 145.596 100.78 145.96 101.196C146.341 101.612 146.801 101.933 147.338 102.158C147.893 102.366 148.664 102.609 149.652 102.886C150.848 103.215 151.81 103.545 152.538 103.874C153.266 104.186 153.89 104.68 154.41 105.356C154.93 106.015 155.19 106.916 155.19 108.06C155.19 108.944 154.956 109.776 154.488 110.556C154.02 111.336 153.327 111.969 152.408 112.454C151.489 112.939 150.406 113.182 149.158 113.182ZM161.038 96.802V102.86H167.642V104.81H161.038V111.05H168.422V113H158.672V94.852H168.422V96.802H161.038ZM174.368 111.076H180.712V113H172.002V94.878H174.368V111.076ZM198.201 94.878L191.363 113H188.633L181.795 94.878H184.317L190.011 110.504L195.705 94.878H198.201ZM203.161 96.802V102.86H209.765V104.81H203.161V111.05H210.545V113H200.795V94.852H210.545V96.802H203.161ZM219.871 113.182C218.675 113.182 217.6 112.974 216.647 112.558C215.711 112.125 214.974 111.535 214.437 110.79C213.9 110.027 213.622 109.152 213.605 108.164H216.127C216.214 109.013 216.56 109.733 217.167 110.322C217.791 110.894 218.692 111.18 219.871 111.18C220.998 111.18 221.882 110.903 222.523 110.348C223.182 109.776 223.511 109.048 223.511 108.164C223.511 107.471 223.32 106.907 222.939 106.474C222.558 106.041 222.081 105.711 221.509 105.486C220.937 105.261 220.166 105.018 219.195 104.758C217.999 104.446 217.037 104.134 216.309 103.822C215.598 103.51 214.983 103.025 214.463 102.366C213.96 101.69 213.709 100.789 213.709 99.662C213.709 98.674 213.96 97.7987 214.463 97.036C214.966 96.2733 215.668 95.684 216.569 95.268C217.488 94.852 218.536 94.644 219.715 94.644C221.414 94.644 222.8 95.0687 223.875 95.918C224.967 96.7673 225.582 97.894 225.721 99.298H223.121C223.034 98.6047 222.67 97.998 222.029 97.478C221.388 96.9407 220.538 96.672 219.481 96.672C218.493 96.672 217.687 96.932 217.063 97.452C216.439 97.9547 216.127 98.6653 216.127 99.584C216.127 100.243 216.309 100.78 216.673 101.196C217.054 101.612 217.514 101.933 218.051 102.158C218.606 102.366 219.377 102.609 220.365 102.886C221.561 103.215 222.523 103.545 223.251 103.874C223.979 104.186 224.603 104.68 225.123 105.356C225.643 106.015 225.903 106.916 225.903 108.06C225.903 108.944 225.669 109.776 225.201 110.556C224.733 111.336 224.04 111.969 223.121 112.454C222.202 112.939 221.119 113.182 219.871 113.182Z"/>
</mask>
<path d="M98.6687 36.878V38.802H93.7287V55H91.3627V38.802H86.3967V36.878H98.6687ZM109.797 55.182C108.116 55.182 106.582 54.792 105.195 54.012C103.808 53.2147 102.708 52.114 101.893 50.71C101.096 49.2887 100.697 47.694 100.697 45.926C100.697 44.158 101.096 42.572 101.893 41.168C102.708 39.7467 103.808 38.646 105.195 37.866C106.582 37.0687 108.116 36.67 109.797 36.67C111.496 36.67 113.038 37.0687 114.425 37.866C115.812 38.646 116.904 39.738 117.701 41.142C118.498 42.546 118.897 44.1407 118.897 45.926C118.897 47.7113 118.498 49.306 117.701 50.71C116.904 52.114 115.812 53.2147 114.425 54.012C113.038 54.792 111.496 55.182 109.797 55.182ZM109.797 53.128C111.062 53.128 112.198 52.8333 113.203 52.244C114.226 51.6547 115.023 50.814 115.595 49.722C116.184 48.63 116.479 47.3647 116.479 45.926C116.479 44.47 116.184 43.2047 115.595 42.13C115.023 41.038 114.234 40.1973 113.229 39.608C112.224 39.0187 111.08 38.724 109.797 38.724C108.514 38.724 107.37 39.0187 106.365 39.608C105.36 40.1973 104.562 41.038 103.973 42.13C103.401 43.2047 103.115 44.47 103.115 45.926C103.115 47.3647 103.401 48.63 103.973 49.722C104.562 50.814 105.36 51.6547 106.365 52.244C107.388 52.8333 108.532 53.128 109.797 53.128ZM137.168 55.182C135.487 55.182 133.953 54.792 132.566 54.012C131.18 53.2147 130.079 52.114 129.264 50.71C128.467 49.2887 128.068 47.694 128.068 45.926C128.068 44.158 128.467 42.572 129.264 41.168C130.079 39.7467 131.18 38.646 132.566 37.866C133.953 37.0687 135.487 36.67 137.168 36.67C138.867 36.67 140.41 37.0687 141.796 37.866C143.183 38.646 144.275 39.738 145.072 41.142C145.87 42.546 146.268 44.1407 146.268 45.926C146.268 47.7113 145.87 49.306 145.072 50.71C144.275 52.114 143.183 53.2147 141.796 54.012C140.41 54.792 138.867 55.182 137.168 55.182ZM137.168 53.128C138.434 53.128 139.569 52.8333 140.574 52.244C141.597 51.6547 142.394 50.814 142.966 49.722C143.556 48.63 143.85 47.3647 143.85 45.926C143.85 44.47 143.556 43.2047 142.966 42.13C142.394 41.038 141.606 40.1973 140.6 39.608C139.595 39.0187 138.451 38.724 137.168 38.724C135.886 38.724 134.742 39.0187 133.736 39.608C132.731 40.1973 131.934 41.038 131.344 42.13C130.772 43.2047 130.486 44.47 130.486 45.926C130.486 47.3647 130.772 48.63 131.344 49.722C131.934 50.814 132.731 51.6547 133.736 52.244C134.759 52.8333 135.903 53.128 137.168 53.128ZM172.168 36.878L166.916 55H164.264L160.052 40.414L155.684 55L153.058 55.026L147.988 36.878H150.51L154.462 52.244L158.83 36.878H161.482L165.642 52.192L169.62 36.878H172.168ZM189.005 55H186.639L177.123 40.57V55H174.757V36.852H177.123L186.639 51.256V36.852H189.005V55ZM210.682 50.97H202.778L201.322 55H198.826L205.378 36.982H208.108L214.634 55H212.138L210.682 50.97ZM210.006 49.046L206.73 39.894L203.454 49.046H210.006ZM60.3817 74.666C61.0403 74.77 61.6383 75.0387 62.1757 75.472C62.7303 75.9053 63.1637 76.4427 63.4757 77.084C63.805 77.7253 63.9697 78.41 63.9697 79.138C63.9697 80.0567 63.7357 80.8887 63.2677 81.634C62.7997 82.362 62.115 82.9427 61.2137 83.376C60.3297 83.792 59.281 84 58.0677 84H51.3077V65.878H57.8077C59.0383 65.878 60.087 66.086 60.9537 66.502C61.8203 66.9007 62.4703 67.4467 62.9037 68.14C63.337 68.8333 63.5537 69.6133 63.5537 70.48C63.5537 71.5547 63.259 72.4473 62.6697 73.158C62.0977 73.8513 61.335 74.354 60.3817 74.666ZM53.6737 73.704H57.6517C58.761 73.704 59.619 73.444 60.2257 72.924C60.8323 72.404 61.1357 71.6847 61.1357 70.766C61.1357 69.8473 60.8323 69.128 60.2257 68.608C59.619 68.088 58.7437 67.828 57.5997 67.828H53.6737V73.704ZM57.8597 82.05C59.0383 82.05 59.957 81.7727 60.6157 81.218C61.2743 80.6633 61.6037 79.892 61.6037 78.904C61.6037 77.8987 61.257 77.11 60.5637 76.538C59.8703 75.9487 58.943 75.654 57.7817 75.654H53.6737V82.05H57.8597ZM76.795 84L72.479 76.59H69.619V84H67.253V65.878H73.103C74.4723 65.878 75.625 66.112 76.561 66.58C77.5143 67.048 78.225 67.6807 78.693 68.478C79.161 69.2753 79.395 70.1853 79.395 71.208C79.395 72.456 79.031 73.5567 78.303 74.51C77.5923 75.4633 76.5176 76.096 75.079 76.408L79.629 84H76.795ZM69.619 74.692H73.103C74.3856 74.692 75.3476 74.38 75.989 73.756C76.6303 73.1147 76.951 72.2653 76.951 71.208C76.951 70.1333 76.6303 69.3013 75.989 68.712C75.365 68.1227 74.403 67.828 73.103 67.828H69.619V74.692ZM85.4373 67.802V73.86H92.0413V75.81H85.4373V82.05H92.8213V84H83.0713V65.852H92.8213V67.802H85.4373ZM107.113 79.97H99.2094L97.7534 84H95.2574L101.809 65.982H104.539L111.065 84H108.569L107.113 79.97ZM106.437 78.046L103.161 68.894L99.8854 78.046H106.437ZM123.749 84L116.287 75.732V84H113.921V65.878H116.287V74.276L123.775 65.878H126.765L118.549 74.952L126.843 84H123.749ZM147.129 79.97H139.225L137.769 84H135.273L141.825 65.982H144.555L151.081 84H148.585L147.129 79.97ZM146.453 78.046L143.177 68.894L139.901 78.046H146.453ZM168.185 84H165.819L156.303 69.57V84H153.937V65.852H156.303L165.819 80.256V65.852H168.185V84ZM177.86 65.878C179.836 65.878 181.543 66.2507 182.982 66.996C184.438 67.724 185.547 68.7727 186.31 70.142C187.09 71.5113 187.48 73.1233 187.48 74.978C187.48 76.8327 187.09 78.4447 186.31 79.814C185.547 81.166 184.438 82.206 182.982 82.934C181.543 83.6447 179.836 84 177.86 84H172.218V65.878H177.86ZM177.86 82.05C180.2 82.05 181.985 81.4347 183.216 80.204C184.446 78.956 185.062 77.214 185.062 74.978C185.062 72.7247 184.438 70.9653 183.19 69.7C181.959 68.4347 180.182 67.802 177.86 67.802H174.584V82.05H177.86ZM207.776 65.878V67.802H199.898V73.912H206.294V75.836H199.898V84H197.532V65.878H207.776ZM213 65.878V84H210.634V65.878H213ZM231.28 84H228.914L219.398 69.57V84H217.032V65.852H219.398L228.914 80.256V65.852H231.28V84ZM240.956 65.878C242.932 65.878 244.639 66.2507 246.078 66.996C247.534 67.724 248.643 68.7727 249.406 70.142C250.186 71.5113 250.576 73.1233 250.576 74.978C250.576 76.8327 250.186 78.4447 249.406 79.814C248.643 81.166 247.534 82.206 246.078 82.934C244.639 83.6447 242.932 84 240.956 84H235.314V65.878H240.956ZM240.956 82.05C243.296 82.05 245.081 81.4347 246.312 80.204C247.542 78.956 248.158 77.214 248.158 74.978C248.158 72.7247 247.534 70.9653 246.286 69.7C245.055 68.4347 243.278 67.802 240.956 67.802H237.68V82.05H240.956ZM86.7732 94.878V96.802H81.8332V113H79.4672V96.802H74.5012V94.878H86.7732ZM103.648 94.878V113H101.282V104.784H92.0516V113H89.6856V94.878H92.0516V102.834H101.282V94.878H103.648ZM110.054 96.802V102.86H116.658V104.81H110.054V111.05H117.438V113H107.688V94.852H117.438V96.802H110.054ZM139.4 95.008V113H137.034V99.584L131.054 113H129.39L123.384 99.558V113H121.018V95.008H123.566L130.222 109.88L136.878 95.008H139.4ZM149.158 113.182C147.962 113.182 146.887 112.974 145.934 112.558C144.998 112.125 144.261 111.535 143.724 110.79C143.187 110.027 142.909 109.152 142.892 108.164H145.414C145.501 109.013 145.847 109.733 146.454 110.322C147.078 110.894 147.979 111.18 149.158 111.18C150.285 111.18 151.169 110.903 151.81 110.348C152.469 109.776 152.798 109.048 152.798 108.164C152.798 107.471 152.607 106.907 152.226 106.474C151.845 106.041 151.368 105.711 150.796 105.486C150.224 105.261 149.453 105.018 148.482 104.758C147.286 104.446 146.324 104.134 145.596 103.822C144.885 103.51 144.27 103.025 143.75 102.366C143.247 101.69 142.996 100.789 142.996 99.662C142.996 98.674 143.247 97.7987 143.75 97.036C144.253 96.2733 144.955 95.684 145.856 95.268C146.775 94.852 147.823 94.644 149.002 94.644C150.701 94.644 152.087 95.0687 153.162 95.918C154.254 96.7673 154.869 97.894 155.008 99.298H152.408C152.321 98.6047 151.957 97.998 151.316 97.478C150.675 96.9407 149.825 96.672 148.768 96.672C147.78 96.672 146.974 96.932 146.35 97.452C145.726 97.9547 145.414 98.6653 145.414 99.584C145.414 100.243 145.596 100.78 145.96 101.196C146.341 101.612 146.801 101.933 147.338 102.158C147.893 102.366 148.664 102.609 149.652 102.886C150.848 103.215 151.81 103.545 152.538 103.874C153.266 104.186 153.89 104.68 154.41 105.356C154.93 106.015 155.19 106.916 155.19 108.06C155.19 108.944 154.956 109.776 154.488 110.556C154.02 111.336 153.327 111.969 152.408 112.454C151.489 112.939 150.406 113.182 149.158 113.182ZM161.038 96.802V102.86H167.642V104.81H161.038V111.05H168.422V113H158.672V94.852H168.422V96.802H161.038ZM174.368 111.076H180.712V113H172.002V94.878H174.368V111.076ZM198.201 94.878L191.363 113H188.633L181.795 94.878H184.317L190.011 110.504L195.705 94.878H198.201ZM203.161 96.802V102.86H209.765V104.81H203.161V111.05H210.545V113H200.795V94.852H210.545V96.802H203.161ZM219.871 113.182C218.675 113.182 217.6 112.974 216.647 112.558C215.711 112.125 214.974 111.535 214.437 110.79C213.9 110.027 213.622 109.152 213.605 108.164H216.127C216.214 109.013 216.56 109.733 217.167 110.322C217.791 110.894 218.692 111.18 219.871 111.18C220.998 111.18 221.882 110.903 222.523 110.348C223.182 109.776 223.511 109.048 223.511 108.164C223.511 107.471 223.32 106.907 222.939 106.474C222.558 106.041 222.081 105.711 221.509 105.486C220.937 105.261 220.166 105.018 219.195 104.758C217.999 104.446 217.037 104.134 216.309 103.822C215.598 103.51 214.983 103.025 214.463 102.366C213.96 101.69 213.709 100.789 213.709 99.662C213.709 98.674 213.96 97.7987 214.463 97.036C214.966 96.2733 215.668 95.684 216.569 95.268C217.488 94.852 218.536 94.644 219.715 94.644C221.414 94.644 222.8 95.0687 223.875 95.918C224.967 96.7673 225.582 97.894 225.721 99.298H223.121C223.034 98.6047 222.67 97.998 222.029 97.478C221.388 96.9407 220.538 96.672 219.481 96.672C218.493 96.672 217.687 96.932 217.063 97.452C216.439 97.9547 216.127 98.6653 216.127 99.584C216.127 100.243 216.309 100.78 216.673 101.196C217.054 101.612 217.514 101.933 218.051 102.158C218.606 102.366 219.377 102.609 220.365 102.886C221.561 103.215 222.523 103.545 223.251 103.874C223.979 104.186 224.603 104.68 225.123 105.356C225.643 106.015 225.903 106.916 225.903 108.06C225.903 108.944 225.669 109.776 225.201 110.556C224.733 111.336 224.04 111.969 223.121 112.454C222.202 112.939 221.119 113.182 219.871 113.182Z" fill="#FD4525"/>
<path d="M98.6687 36.878H99.0458V36.5009H98.6687V36.878ZM98.6687 38.802V39.1791H99.0458V38.802H98.6687ZM93.7287 38.802V38.4249H93.3516V38.802H93.7287ZM93.7287 55V55.3771H94.1058V55H93.7287ZM91.3627 55H90.9856V55.3771H91.3627V55ZM91.3627 38.802H91.7398V38.4249H91.3627V38.802ZM86.3967 38.802H86.0196V39.1791H86.3967V38.802ZM86.3967 36.878V36.5009H86.0196V36.878H86.3967ZM98.2916 36.878V38.802H99.0458V36.878H98.2916ZM98.6687 38.4249H93.7287V39.1791H98.6687V38.4249ZM93.3516 38.802V55H94.1058V38.802H93.3516ZM93.7287 54.6229H91.3627V55.3771H93.7287V54.6229ZM91.7398 55V38.802H90.9856V55H91.7398ZM91.3627 38.4249H86.3967V39.1791H91.3627V38.4249ZM86.7738 38.802V36.878H86.0196V38.802H86.7738ZM86.3967 37.2551H98.6687V36.5009H86.3967V37.2551ZM105.195 54.012L105.007 54.339L105.01 54.3407L105.195 54.012ZM101.893 50.71L101.564 50.8945L101.567 50.8993L101.893 50.71ZM101.893 41.168L101.566 40.9805L101.565 40.9818L101.893 41.168ZM105.195 37.866L105.38 38.1947L105.383 38.1929L105.195 37.866ZM114.425 37.866L114.237 38.193L114.24 38.1947L114.425 37.866ZM117.701 41.142L118.029 40.9558L117.701 41.142ZM117.701 50.71L117.373 50.5238L117.701 50.71ZM114.425 54.012L114.61 54.3407L114.613 54.3389L114.425 54.012ZM113.203 52.244L113.015 51.9172L113.012 51.9186L113.203 52.244ZM115.595 49.722L115.263 49.5429L115.261 49.547L115.595 49.722ZM115.595 42.13L115.261 42.305L115.264 42.3113L115.595 42.13ZM113.229 39.608L113.038 39.9334L113.229 39.608ZM106.365 39.608L106.556 39.9334L106.365 39.608ZM103.973 42.13L103.641 41.9509L103.64 41.9528L103.973 42.13ZM103.973 49.722L103.639 49.897L103.641 49.9011L103.973 49.722ZM106.365 52.244L106.174 52.5694L106.177 52.5708L106.365 52.244ZM109.797 54.8049C108.177 54.8049 106.707 54.4297 105.38 53.6833L105.01 54.3407C106.457 55.1543 108.055 55.5591 109.797 55.5591V54.8049ZM105.383 53.6851C104.055 52.9212 103.001 51.8684 102.219 50.5207L101.567 50.8993C102.414 52.3596 103.562 53.5081 105.007 54.3389L105.383 53.6851ZM102.222 50.5255C101.459 49.1652 101.074 47.635 101.074 45.926H100.32C100.32 47.753 100.733 49.4121 101.564 50.8945L102.222 50.5255ZM101.074 45.926C101.074 44.2169 101.459 42.6962 102.221 41.3542L101.565 40.9818C100.733 42.4478 100.32 44.0991 100.32 45.926H101.074ZM102.22 41.3555C103.002 39.9914 104.054 38.9403 105.38 38.1947L105.01 37.5373C103.562 38.3517 102.413 39.5019 101.566 40.9805L102.22 41.3555ZM105.383 38.1929C106.71 37.4302 108.178 37.0471 109.797 37.0471V36.2929C108.053 36.2929 106.454 36.7071 105.007 37.5391L105.383 38.1929ZM109.797 37.0471C111.434 37.0471 112.911 37.4306 114.237 38.1929L114.613 37.5391C113.166 36.7068 111.558 36.2929 109.797 36.2929V37.0471ZM114.24 38.1947C115.566 38.9406 116.609 39.9829 117.373 41.3282L118.029 40.9558C117.198 39.4931 116.057 38.3514 114.61 37.5373L114.24 38.1947ZM117.373 41.3282C118.135 42.6696 118.52 44.1989 118.52 45.926H119.274C119.274 44.0824 118.862 42.4224 118.029 40.9558L117.373 41.3282ZM118.52 45.926C118.52 47.6531 118.135 49.1824 117.373 50.5238L118.029 50.8962C118.862 49.4296 119.274 47.7696 119.274 45.926H118.52ZM117.373 50.5238C116.609 51.8698 115.565 52.9216 114.237 53.6851L114.613 54.3389C116.059 53.5077 117.199 52.3582 118.029 50.8962L117.373 50.5238ZM114.24 53.6833C112.914 54.4294 111.436 54.8049 109.797 54.8049V55.5591C111.556 55.5591 113.163 55.1546 114.61 54.3407L114.24 53.6833ZM109.797 53.5051C111.124 53.5051 112.326 53.1955 113.394 52.5694L113.012 51.9186C112.07 52.4712 111.001 52.7509 109.797 52.7509V53.5051ZM113.391 52.5708C114.479 51.9441 115.326 51.0494 115.929 49.897L115.261 49.547C114.721 50.5786 113.973 51.3653 113.015 51.9172L113.391 52.5708ZM115.927 49.9011C116.55 48.7459 116.856 47.4172 116.856 45.926H116.102C116.102 47.3122 115.818 48.5141 115.263 49.5429L115.927 49.9011ZM116.856 45.926C116.856 44.4185 116.551 43.0885 115.926 41.9487L115.264 42.3113C115.818 43.3208 116.102 44.5215 116.102 45.926H116.856ZM115.929 41.955C115.326 40.8042 114.49 39.9098 113.42 39.2826L113.038 39.9334C113.979 40.4849 114.72 41.2718 115.261 42.305L115.929 41.955ZM113.42 39.2826C112.351 38.6561 111.14 38.3469 109.797 38.3469V39.1011C111.02 39.1011 112.097 39.3813 113.038 39.9334L113.42 39.2826ZM109.797 38.3469C108.454 38.3469 107.243 38.6561 106.174 39.2826L106.556 39.9334C107.498 39.3813 108.575 39.1011 109.797 39.1011V38.3469ZM106.174 39.2826C105.106 39.9092 104.261 40.8022 103.641 41.9509L104.305 42.3091C104.864 41.2738 105.614 40.4855 106.556 39.9334L106.174 39.2826ZM103.64 41.9528C103.034 43.0918 102.738 44.4203 102.738 45.926H103.492C103.492 44.5197 103.768 43.3176 104.306 42.3072L103.64 41.9528ZM102.738 45.926C102.738 47.4154 103.034 48.7426 103.639 49.897L104.307 49.547C103.768 48.5174 103.492 47.3139 103.492 45.926H102.738ZM103.641 49.9011C104.261 51.0498 105.106 51.9428 106.174 52.5694L106.556 51.9186C105.614 51.3665 104.864 50.5782 104.305 49.5429L103.641 49.9011ZM106.177 52.5708C107.261 53.1955 108.471 53.5051 109.797 53.5051V52.7509C108.593 52.7509 107.515 52.4712 106.553 51.9172L106.177 52.5708ZM132.566 54.012L132.378 54.339L132.381 54.3407L132.566 54.012ZM129.264 50.71L128.935 50.8945L128.938 50.8993L129.264 50.71ZM129.264 41.168L128.937 40.9805L128.936 40.9818L129.264 41.168ZM132.566 37.866L132.751 38.1947L132.754 38.1929L132.566 37.866ZM141.796 37.866L141.608 38.193L141.611 38.1947L141.796 37.866ZM145.072 41.142L145.4 40.9558L145.072 41.142ZM145.072 50.71L144.744 50.5238L145.072 50.71ZM141.796 54.012L141.981 54.3407L141.984 54.3389L141.796 54.012ZM140.574 52.244L140.386 51.9172L140.383 51.9186L140.574 52.244ZM142.966 49.722L142.634 49.5429L142.632 49.547L142.966 49.722ZM142.966 42.13L142.632 42.305L142.636 42.3113L142.966 42.13ZM140.6 39.608L140.409 39.9334L140.6 39.608ZM133.736 39.608L133.927 39.9334L133.736 39.608ZM131.344 42.13L131.012 41.9509L131.011 41.9528L131.344 42.13ZM131.344 49.722L131.01 49.897L131.012 49.9011L131.344 49.722ZM133.736 52.244L133.545 52.5694L133.548 52.5708L133.736 52.244ZM137.168 54.8049C135.548 54.8049 134.078 54.4297 132.751 53.6833L132.381 54.3407C133.828 55.1543 135.426 55.5591 137.168 55.5591V54.8049ZM132.754 53.6851C131.426 52.9212 130.372 51.8684 129.59 50.5207L128.938 50.8993C129.785 52.3596 130.933 53.5081 132.378 54.3389L132.754 53.6851ZM129.593 50.5255C128.83 49.1652 128.445 47.635 128.445 45.926H127.691C127.691 47.753 128.104 49.4121 128.935 50.8945L129.593 50.5255ZM128.445 45.926C128.445 44.2169 128.83 42.6962 129.592 41.3542L128.936 40.9818C128.104 42.4478 127.691 44.0991 127.691 45.926H128.445ZM129.591 41.3555C130.373 39.9914 131.426 38.9403 132.751 38.1947L132.381 37.5373C130.934 38.3517 129.784 39.5019 128.937 40.9805L129.591 41.3555ZM132.754 38.1929C134.081 37.4302 135.549 37.0471 137.168 37.0471V36.2929C135.424 36.2929 133.825 36.7071 132.378 37.5391L132.754 38.1929ZM137.168 37.0471C138.805 37.0471 140.282 37.4306 141.608 38.1929L141.984 37.5391C140.537 36.7068 138.929 36.2929 137.168 36.2929V37.0471ZM141.611 38.1947C142.937 38.9406 143.98 39.9829 144.744 41.3282L145.4 40.9558C144.569 39.4931 143.428 38.3514 141.981 37.5373L141.611 38.1947ZM144.744 41.3282C145.506 42.6696 145.891 44.1989 145.891 45.926H146.645C146.645 44.0824 146.233 42.4224 145.4 40.9558L144.744 41.3282ZM145.891 45.926C145.891 47.6531 145.506 49.1824 144.744 50.5238L145.4 50.8962C146.233 49.4296 146.645 47.7696 146.645 45.926H145.891ZM144.744 50.5238C143.98 51.8698 142.936 52.9216 141.608 53.6851L141.984 54.3389C143.43 53.5077 144.57 52.3582 145.4 50.8962L144.744 50.5238ZM141.611 53.6833C140.285 54.4294 138.807 54.8049 137.168 54.8049V55.5591C138.927 55.5591 140.534 55.1546 141.981 54.3407L141.611 53.6833ZM137.168 53.5051C138.495 53.5051 139.697 53.1955 140.765 52.5694L140.383 51.9186C139.441 52.4712 138.372 52.7509 137.168 52.7509V53.5051ZM140.763 52.5708C141.85 51.9441 142.697 51.0494 143.3 49.897L142.632 49.547C142.092 50.5786 141.344 51.3653 140.386 51.9172L140.763 52.5708ZM143.298 49.9011C143.922 48.7459 144.227 47.4172 144.227 45.926H143.473C143.473 47.3122 143.19 48.5141 142.634 49.5429L143.298 49.9011ZM144.227 45.926C144.227 44.4185 143.922 43.0885 143.297 41.9487L142.636 42.3113C143.189 43.3208 143.473 44.5215 143.473 45.926H144.227ZM143.3 41.955C142.697 40.8042 141.861 39.9098 140.791 39.2826L140.409 39.9334C141.35 40.4849 142.091 41.2718 142.632 42.305L143.3 41.955ZM140.791 39.2826C139.722 38.6561 138.511 38.3469 137.168 38.3469V39.1011C138.391 39.1011 139.468 39.3813 140.409 39.9334L140.791 39.2826ZM137.168 38.3469C135.825 38.3469 134.614 38.6561 133.545 39.2826L133.927 39.9334C134.869 39.3813 135.946 39.1011 137.168 39.1011V38.3469ZM133.545 39.2826C132.477 39.9092 131.632 40.8022 131.012 41.9509L131.676 42.3091C132.235 41.2738 132.985 40.4855 133.927 39.9334L133.545 39.2826ZM131.011 41.9528C130.405 43.0918 130.109 44.4203 130.109 45.926H130.863C130.863 44.5197 131.139 43.3176 131.677 42.3072L131.011 41.9528ZM130.109 45.926C130.109 47.4154 130.405 48.7426 131.01 49.897L131.678 49.547C131.139 48.5174 130.863 47.3139 130.863 45.926H130.109ZM131.012 49.9011C131.632 51.0498 132.477 51.9428 133.545 52.5694L133.927 51.9186C132.985 51.3665 132.235 50.5782 131.676 49.5429L131.012 49.9011ZM133.548 52.5708C134.632 53.1955 135.842 53.5051 137.168 53.5051V52.7509C135.964 52.7509 134.886 52.4712 133.924 51.9172L133.548 52.5708ZM172.168 36.878L172.53 36.983L172.67 36.5009H172.168V36.878ZM166.916 55V55.3771H167.199L167.278 55.105L166.916 55ZM164.264 55L163.901 55.1046L163.98 55.3771H164.264V55ZM160.052 40.414L160.414 40.3094L160.058 39.0774L159.69 40.3058L160.052 40.414ZM155.684 55L155.687 55.3771L155.965 55.3744L156.045 55.1082L155.684 55ZM153.058 55.026L152.694 55.1275L152.772 55.406L153.061 55.4031L153.058 55.026ZM147.988 36.878V36.5009H147.491L147.624 36.9795L147.988 36.878ZM150.51 36.878L150.875 36.7841L150.802 36.5009H150.51V36.878ZM154.462 52.244L154.096 52.3379L154.443 53.6873L154.824 52.3471L154.462 52.244ZM158.83 36.878V36.5009H158.545L158.467 36.7749L158.83 36.878ZM161.482 36.878L161.846 36.7791L161.77 36.5009H161.482V36.878ZM165.642 52.192L165.278 52.2909L165.65 53.6607L166.007 52.2868L165.642 52.192ZM169.62 36.878V36.5009H169.328L169.255 36.7832L169.62 36.878ZM171.805 36.773L166.553 54.895L167.278 55.105L172.53 36.983L171.805 36.773ZM166.916 54.6229H164.264V55.3771H166.916V54.6229ZM164.626 54.8954L160.414 40.3094L159.689 40.5186L163.901 55.1046L164.626 54.8954ZM159.69 40.3058L155.322 54.8918L156.045 55.1082L160.413 40.5222L159.69 40.3058ZM155.68 54.6229L153.054 54.6489L153.061 55.4031L155.687 55.3771L155.68 54.6229ZM153.421 54.9245L148.351 36.7765L147.624 36.9795L152.694 55.1275L153.421 54.9245ZM147.988 37.2551H150.51V36.5009H147.988V37.2551ZM150.144 36.9719L154.096 52.3379L154.827 52.1501L150.875 36.7841L150.144 36.9719ZM154.824 52.3471L159.192 36.9811L158.467 36.7749L154.099 52.1409L154.824 52.3471ZM158.83 37.2551H161.482V36.5009H158.83V37.2551ZM161.118 36.9769L165.278 52.2909L166.006 52.0931L161.846 36.7791L161.118 36.9769ZM166.007 52.2868L169.985 36.9728L169.255 36.7832L165.277 52.0972L166.007 52.2868ZM169.62 37.2551H172.168V36.5009H169.62V37.2551ZM189.005 55V55.3771H189.382V55H189.005ZM186.639 55L186.324 55.2076L186.436 55.3771H186.639V55ZM177.123 40.57L177.438 40.3624L176.746 39.313V40.57H177.123ZM177.123 55V55.3771H177.5V55H177.123ZM174.757 55H174.38V55.3771H174.757V55ZM174.757 36.852V36.4749H174.38V36.852H174.757ZM177.123 36.852L177.438 36.6441L177.326 36.4749H177.123V36.852ZM186.639 51.256L186.324 51.4639L187.016 52.5111V51.256H186.639ZM186.639 36.852V36.4749H186.262V36.852H186.639ZM189.005 36.852H189.382V36.4749H189.005V36.852ZM189.005 54.6229H186.639V55.3771H189.005V54.6229ZM186.954 54.7924L177.438 40.3624L176.808 40.7776L186.324 55.2076L186.954 54.7924ZM176.746 40.57V55H177.5V40.57H176.746ZM177.123 54.6229H174.757V55.3771H177.123V54.6229ZM175.134 55V36.852H174.38V55H175.134ZM174.757 37.2291H177.123V36.4749H174.757V37.2291ZM176.808 37.0599L186.324 51.4639L186.954 51.0481L177.438 36.6441L176.808 37.0599ZM187.016 51.256V36.852H186.262V51.256H187.016ZM186.639 37.2291H189.005V36.4749H186.639V37.2291ZM188.628 36.852V55H189.382V36.852H188.628ZM210.682 50.97L211.036 50.8418L210.947 50.5929H210.682V50.97ZM202.778 50.97V50.5929H202.513L202.423 50.8418L202.778 50.97ZM201.322 55V55.3771H201.587L201.676 55.1282L201.322 55ZM198.826 55L198.471 54.8711L198.287 55.3771H198.826V55ZM205.378 36.982V36.6049H205.114L205.023 36.8531L205.378 36.982ZM208.108 36.982L208.462 36.8536L208.372 36.6049H208.108V36.982ZM214.634 55V55.3771H215.171L214.988 54.8716L214.634 55ZM212.138 55L211.783 55.1282L211.873 55.3771H212.138V55ZM210.006 49.046V49.4231H210.541L210.361 48.9189L210.006 49.046ZM206.73 39.894L207.085 39.7669L206.73 38.7749L206.375 39.7669L206.73 39.894ZM203.454 49.046L203.099 48.9189L202.918 49.4231H203.454V49.046ZM210.682 50.5929H202.778V51.3471H210.682V50.5929ZM202.423 50.8418L200.967 54.8718L201.676 55.1282L203.132 51.0982L202.423 50.8418ZM201.322 54.6229H198.826V55.3771H201.322V54.6229ZM199.18 55.1289L205.732 37.1109L205.023 36.8531L198.471 54.8711L199.18 55.1289ZM205.378 37.3591H208.108V36.6049H205.378V37.3591ZM207.753 37.1104L214.279 55.1284L214.988 54.8716L208.462 36.8536L207.753 37.1104ZM214.634 54.6229H212.138V55.3771H214.634V54.6229ZM212.492 54.8718L211.036 50.8418L210.327 51.0982L211.783 55.1282L212.492 54.8718ZM210.361 48.9189L207.085 39.7669L206.375 40.0211L209.651 49.1731L210.361 48.9189ZM206.375 39.7669L203.099 48.9189L203.809 49.1731L207.085 40.0211L206.375 39.7669ZM203.454 49.4231H210.006V48.6689H203.454V49.4231ZM60.3817 74.666L60.2644 74.3076L60.3228 75.0385L60.3817 74.666ZM62.1757 75.472L61.9389 75.7656L61.9435 75.7692L62.1757 75.472ZM63.4757 77.084L63.1364 77.249L63.1402 77.2563L63.4757 77.084ZM63.2677 81.634L63.5849 81.838L63.5871 81.8346L63.2677 81.634ZM61.2137 83.376L61.3743 83.7173L61.3771 83.7159L61.2137 83.376ZM51.3077 84H50.9305V84.3771H51.3077V84ZM51.3077 65.878V65.5009H50.9305V65.878H51.3077ZM60.9537 66.502L60.7904 66.842L60.7961 66.8446L60.9537 66.502ZM62.9037 68.14L62.5838 68.3399H62.5838L62.9037 68.14ZM62.6697 73.158L62.3794 72.9173L62.3787 72.918L62.6697 73.158ZM53.6737 73.704H53.2965V74.0811H53.6737V73.704ZM60.2257 68.608L59.9802 68.8943H59.9802L60.2257 68.608ZM53.6737 67.828V67.4509H53.2965V67.828H53.6737ZM60.6157 81.218L60.8586 81.5065L60.6157 81.218ZM60.5637 76.538L60.3194 76.8254L60.3237 76.8289L60.5637 76.538ZM53.6737 75.654V75.2769H53.2965V75.654H53.6737ZM53.6737 82.05H53.2965V82.4271H53.6737V82.05ZM60.3228 75.0385C60.914 75.1319 61.4511 75.3722 61.9389 75.7656L62.4124 75.1784C61.8256 74.7052 61.1667 74.4081 60.4405 74.2935L60.3228 75.0385ZM61.9435 75.7692C62.4523 76.1667 62.8493 76.6586 63.1365 77.249L63.8148 76.919C63.478 76.2267 63.0084 75.644 62.4079 75.1748L61.9435 75.7692ZM63.1402 77.2563C63.4419 77.8438 63.5925 78.4693 63.5925 79.138H64.3468C64.3468 78.3507 64.1681 77.6069 63.8112 76.9117L63.1402 77.2563ZM63.5925 79.138C63.5925 79.989 63.3768 80.7509 62.9483 81.4334L63.5871 81.8346C64.0945 81.0264 64.3468 80.1244 64.3468 79.138H63.5925ZM62.9504 81.4301C62.5257 82.0907 61.8987 82.6282 61.0503 83.0361L61.3771 83.7159C62.3313 83.2571 63.0736 82.6333 63.5849 81.8379L62.9504 81.4301ZM61.0531 83.0348C60.2299 83.4221 59.2386 83.6229 58.0677 83.6229V84.3771C59.3234 84.3771 60.4294 84.1619 61.3743 83.7172L61.0531 83.0348ZM58.0677 83.6229H51.3077V84.3771H58.0677V83.6229ZM51.6848 84V65.878H50.9305V84H51.6848ZM51.3077 66.2551H57.8077V65.5009H51.3077V66.2551ZM57.8077 66.2551C58.9971 66.2551 59.9869 66.4563 60.7905 66.842L61.1169 66.162C60.1871 65.7157 59.0795 65.5009 57.8077 65.5009V66.2551ZM60.7961 66.8446C61.6073 67.2178 62.1957 67.7188 62.5838 68.3399L63.2235 67.9401C62.745 67.1746 62.0334 66.5835 61.1113 66.1594L60.7961 66.8446ZM62.5838 68.3399C62.9774 68.9696 63.1765 69.6796 63.1765 70.48H63.9308C63.9308 69.5471 63.6966 68.697 63.2235 67.9401L62.5838 68.3399ZM63.1765 70.48C63.1765 71.4819 62.9036 72.2851 62.3794 72.9173L62.96 73.3987C63.6144 72.6096 63.9308 71.6274 63.9308 70.48H63.1765ZM62.3787 72.918C61.8574 73.5499 61.1579 74.0151 60.2644 74.3076L60.499 75.0244C61.5121 74.6929 62.3379 74.1527 62.9606 73.398L62.3787 72.918ZM53.6737 74.0811H57.6517V73.3269H53.6737V74.0811ZM57.6517 74.0811C58.8162 74.0811 59.7736 73.8082 60.4711 73.2103L59.9802 72.6376C59.4644 73.0798 58.7058 73.3269 57.6517 73.3269V74.0811ZM60.4711 73.2103C61.1744 72.6076 61.5128 71.7764 61.5128 70.766H60.7585C60.7585 71.5929 60.4903 72.2004 59.9802 72.6376L60.4711 73.2103ZM61.5128 70.766C61.5128 69.7556 61.1744 68.9244 60.4711 68.3217L59.9802 68.8943C60.4903 69.3316 60.7585 69.9391 60.7585 70.766H61.5128ZM60.4711 68.3217C59.7718 67.7222 58.7954 67.4509 57.5997 67.4509V68.2051C58.6919 68.2051 59.4662 68.4538 59.9802 68.8943L60.4711 68.3217ZM57.5997 67.4509H53.6737V68.2051H57.5997V67.4509ZM53.2965 67.828V73.704H54.0508V67.828H53.2965ZM57.8597 82.4271C59.0945 82.4271 60.1105 82.1364 60.8586 81.5065L60.3727 80.9295C59.8035 81.4089 58.9822 81.6729 57.8597 81.6729V82.4271ZM60.8586 81.5065C61.6154 80.8691 61.9808 79.9849 61.9808 78.904H61.2265C61.2265 79.7991 60.9332 80.4575 60.3727 80.9295L60.8586 81.5065ZM61.9808 78.904C61.9808 77.8011 61.5948 76.8998 60.8037 76.2471L60.3237 76.8289C60.9192 77.3202 61.2265 77.9962 61.2265 78.904H61.9808ZM60.8079 76.2506C60.0293 75.5888 59.0072 75.2769 57.7817 75.2769V76.0311C58.8788 76.0311 59.7114 76.3085 60.3194 76.8254L60.8079 76.2506ZM57.7817 75.2769H53.6737V76.0311H57.7817V75.2769ZM53.2965 75.654V82.05H54.0508V75.654H53.2965ZM53.6737 82.4271H57.8597V81.6729H53.6737V82.4271ZM76.795 84L76.4691 84.1898L76.5782 84.3771H76.795V84ZM72.479 76.59L72.8049 76.4002L72.6958 76.2129H72.479V76.59ZM69.619 76.59V76.2129H69.2418V76.59H69.619ZM69.619 84V84.3771H69.9961V84H69.619ZM67.253 84H66.8758V84.3771H67.253V84ZM67.253 65.878V65.5009H66.8758V65.878H67.253ZM76.561 66.58L76.3923 66.9173L76.3948 66.9185L76.561 66.58ZM78.303 74.51L78.0032 74.2811L78.0006 74.2846L78.303 74.51ZM75.079 76.408L74.999 76.0394L74.4852 76.1509L74.7555 76.6019L75.079 76.408ZM79.629 84V84.3771H80.2947L79.9525 83.8061L79.629 84ZM69.619 74.692H69.2418V75.0691H69.619V74.692ZM75.989 73.756L76.252 74.0263L76.2557 74.0227L75.989 73.756ZM75.989 68.712L75.73 68.9862L75.7338 68.9897L75.989 68.712ZM69.619 67.828V67.4509H69.2418V67.828H69.619ZM77.1209 83.8102L72.8049 76.4002L72.1531 76.7798L76.4691 84.1898L77.1209 83.8102ZM72.479 76.2129H69.619V76.9671H72.479V76.2129ZM69.2418 76.59V84H69.9961V76.59H69.2418ZM69.619 83.6229H67.253V84.3771H69.619V83.6229ZM67.6301 84V65.878H66.8758V84H67.6301ZM67.253 66.2551H73.103V65.5009H67.253V66.2551ZM73.103 66.2551C74.4311 66.2551 75.5223 66.4823 76.3923 66.9173L76.7296 66.2427C75.7277 65.7417 74.5135 65.5009 73.103 65.5009V66.2551ZM76.3948 66.9185C77.2919 67.359 77.9425 67.9444 78.3677 68.6689L79.0182 68.2871C78.5075 67.4169 77.7367 66.737 76.7272 66.2415L76.3948 66.9185ZM78.3677 68.6689C78.7982 69.4024 79.0178 70.2451 79.0178 71.208H79.7721C79.7721 70.1255 79.5237 69.1483 79.0182 68.2871L78.3677 68.6689ZM79.0178 71.208C79.0178 72.3769 78.6789 73.3963 78.0032 74.2811L78.6027 74.7389C79.3831 73.717 79.7721 72.5351 79.7721 71.208H79.0178ZM78.0006 74.2846C77.3565 75.1487 76.3707 75.742 74.999 76.0394L75.1589 76.7766C76.6646 76.45 77.8282 75.778 78.6054 74.7354L78.0006 74.2846ZM74.7555 76.6019L79.3055 84.1939L79.9525 83.8061L75.4025 76.2141L74.7555 76.6019ZM79.629 83.6229H76.795V84.3771H79.629V83.6229ZM69.619 75.0691H73.103V74.3149H69.619V75.0691ZM73.103 75.0691C74.4412 75.0691 75.5147 74.7437 76.252 74.0263L75.726 73.4857C75.1806 74.0163 74.3301 74.3149 73.103 74.3149V75.0691ZM76.2557 74.0227C76.9794 73.2989 77.3281 72.3475 77.3281 71.208H76.5738C76.5738 72.1832 76.2812 72.9304 75.7223 73.4893L76.2557 74.0227ZM77.3281 71.208C77.3281 70.0543 76.9808 69.1112 76.2442 68.4343L75.7338 68.9897C76.2798 69.4914 76.5738 70.2123 76.5738 71.208H77.3281ZM76.2479 68.4378C75.5253 67.7553 74.4509 67.4509 73.103 67.4509V68.2051C74.355 68.2051 75.2047 68.49 75.73 68.9862L76.2479 68.4378ZM73.103 67.4509H69.619V68.2051H73.103V67.4509ZM69.2418 67.828V74.692H69.9961V67.828H69.2418ZM85.4373 67.802V67.4249H85.0602V67.802H85.4373ZM85.4373 73.86H85.0602V74.2371H85.4373V73.86ZM92.0413 73.86H92.4185V73.4829H92.0413V73.86ZM92.0413 75.81V76.1871H92.4185V75.81H92.0413ZM85.4373 75.81V75.4329H85.0602V75.81H85.4373ZM85.4373 82.05H85.0602V82.4271H85.4373V82.05ZM92.8213 82.05H93.1985V81.6729H92.8213V82.05ZM92.8213 84V84.3771H93.1985V84H92.8213ZM83.0713 84H82.6942V84.3771H83.0713V84ZM83.0713 65.852V65.4749H82.6942V65.852H83.0713ZM92.8213 65.852H93.1985V65.4749H92.8213V65.852ZM92.8213 67.802V68.1791H93.1985V67.802H92.8213ZM85.0602 67.802V73.86H85.8145V67.802H85.0602ZM85.4373 74.2371H92.0413V73.4829H85.4373V74.2371ZM91.6642 73.86V75.81H92.4185V73.86H91.6642ZM92.0413 75.4329H85.4373V76.1871H92.0413V75.4329ZM85.0602 75.81V82.05H85.8145V75.81H85.0602ZM85.4373 82.4271H92.8213V81.6729H85.4373V82.4271ZM92.4442 82.05V84H93.1985V82.05H92.4442ZM92.8213 83.6229H83.0713V84.3771H92.8213V83.6229ZM83.4485 84V65.852H82.6942V84H83.4485ZM83.0713 66.2291H92.8213V65.4749H83.0713V66.2291ZM92.4442 65.852V67.802H93.1985V65.852H92.4442ZM92.8213 67.4249H85.4373V68.1791H92.8213V67.4249ZM107.113 79.97L107.468 79.8419L107.378 79.5929H107.113V79.97ZM99.2094 79.97V79.5929H98.9447L98.8547 79.8419L99.2094 79.97ZM97.7534 84V84.3771H98.0182L98.1081 84.1282L97.7534 84ZM95.2574 84L94.903 83.8711L94.719 84.3771H95.2574V84ZM101.809 65.982V65.6049H101.545L101.455 65.8531L101.809 65.982ZM104.539 65.982L104.894 65.8536L104.804 65.6049H104.539V65.982ZM111.065 84V84.3771H111.603L111.42 83.8716L111.065 84ZM108.569 84L108.215 84.1282L108.305 84.3771H108.569V84ZM106.437 78.046V78.4231H106.973L106.792 77.9189L106.437 78.046ZM103.161 68.894L103.516 68.7669L103.161 67.7749L102.806 68.7669L103.161 68.894ZM99.8854 78.046L99.5303 77.9189L99.3498 78.4231H99.8854V78.046ZM107.113 79.5929H99.2094V80.3471H107.113V79.5929ZM98.8547 79.8419L97.3987 83.8718L98.1081 84.1282L99.5641 80.0982L98.8547 79.8419ZM97.7534 83.6229H95.2574V84.3771H97.7534V83.6229ZM95.6119 84.1289L102.164 66.1109L101.455 65.8531L94.903 83.8711L95.6119 84.1289ZM101.809 66.3591H104.539V65.6049H101.809V66.3591ZM104.185 66.1104L110.711 84.1284L111.42 83.8716L104.894 65.8536L104.185 66.1104ZM111.065 83.6229H108.569V84.3771H111.065V83.6229ZM108.924 83.8718L107.468 79.8419L106.759 80.0982L108.215 84.1282L108.924 83.8718ZM106.792 77.9189L103.516 68.7669L102.806 69.0211L106.082 78.1731L106.792 77.9189ZM102.806 68.7669L99.5303 77.9189L100.24 78.1731L103.516 69.0211L102.806 68.7669ZM99.8854 78.4231H106.437V77.6689H99.8854V78.4231ZM123.749 84L123.469 84.2527L123.581 84.3771H123.749V84ZM116.287 75.732L116.567 75.4793L115.91 74.7512V75.732H116.287ZM116.287 84V84.3771H116.664V84H116.287ZM113.921 84H113.544V84.3771H113.921V84ZM113.921 65.878V65.5009H113.544V65.878H113.921ZM116.287 65.878H116.664V65.5009H116.287V65.878ZM116.287 74.276H115.91V75.2657L116.568 74.527L116.287 74.276ZM123.775 65.878V65.5009H123.606L123.493 65.627L123.775 65.878ZM126.765 65.878L127.045 66.1311L127.615 65.5009H126.765V65.878ZM118.549 74.952L118.269 74.6989L118.039 74.9536L118.271 75.2068L118.549 74.952ZM126.843 84V84.3771H127.7L127.121 83.7452L126.843 84ZM124.029 83.7473L116.567 75.4793L116.007 75.9847L123.469 84.2527L124.029 83.7473ZM115.91 75.732V84H116.664V75.732H115.91ZM116.287 83.6229H113.921V84.3771H116.287V83.6229ZM114.298 84V65.878H113.544V84H114.298ZM113.921 66.2551H116.287V65.5009H113.921V66.2551ZM115.91 65.878V74.276H116.664V65.878H115.91ZM116.568 74.527L124.056 66.129L123.493 65.627L116.005 74.025L116.568 74.527ZM123.775 66.2551H126.765V65.5009H123.775V66.2551ZM126.485 65.6249L118.269 74.6989L118.829 75.2051L127.045 66.1311L126.485 65.6249ZM118.271 75.2068L126.565 84.2548L127.121 83.7452L118.827 74.6972L118.271 75.2068ZM126.843 83.6229H123.749V84.3771H126.843V83.6229ZM147.129 79.97L147.484 79.8419L147.394 79.5929H147.129V79.97ZM139.225 79.97V79.5929H138.96L138.87 79.8419L139.225 79.97ZM137.769 84V84.3771H138.034L138.124 84.1282L137.769 84ZM135.273 84L134.919 83.8711L134.735 84.3771H135.273V84ZM141.825 65.982V65.6049H141.561L141.471 65.8531L141.825 65.982ZM144.555 65.982L144.91 65.8536L144.82 65.6049H144.555V65.982ZM151.081 84V84.3771H151.619L151.436 83.8716L151.081 84ZM148.585 84L148.23 84.1282L148.32 84.3771H148.585V84ZM146.453 78.046V78.4231H146.989L146.808 77.9189L146.453 78.046ZM143.177 68.894L143.532 68.7669L143.177 67.7749L142.822 68.7669L143.177 68.894ZM139.901 78.046L139.546 77.9189L139.365 78.4231H139.901V78.046ZM147.129 79.5929H139.225V80.3471H147.129V79.5929ZM138.87 79.8419L137.414 83.8718L138.124 84.1282L139.58 80.0982L138.87 79.8419ZM137.769 83.6229H135.273V84.3771H137.769V83.6229ZM135.627 84.1289L142.179 66.1109L141.471 65.8531L134.919 83.8711L135.627 84.1289ZM141.825 66.3591H144.555V65.6049H141.825V66.3591ZM144.2 66.1104L150.726 84.1284L151.436 83.8716L144.91 65.8536L144.2 66.1104ZM151.081 83.6229H148.585V84.3771H151.081V83.6229ZM148.94 83.8718L147.484 79.8419L146.774 80.0982L148.23 84.1282L148.94 83.8718ZM146.808 77.9189L143.532 68.7669L142.822 69.0211L146.098 78.1731L146.808 77.9189ZM142.822 68.7669L139.546 77.9189L140.256 78.1731L143.532 69.0211L142.822 68.7669ZM139.901 78.4231H146.453V77.6689H139.901V78.4231ZM168.185 84V84.3771H168.562V84H168.185ZM165.819 84L165.504 84.2076L165.616 84.3771H165.819V84ZM156.303 69.57L156.617 69.3624L155.925 68.313V69.57H156.303ZM156.303 84V84.3771H156.68V84H156.303ZM153.937 84H153.559V84.3771H153.937V84ZM153.937 65.852V65.4749H153.559V65.852H153.937ZM156.303 65.852L156.617 65.6441L156.505 65.4749H156.303V65.852ZM165.819 80.256L165.504 80.4639L166.196 81.5111V80.256H165.819ZM165.819 65.852V65.4749H165.441V65.852H165.819ZM168.185 65.852H168.562V65.4749H168.185V65.852ZM168.185 83.6229H165.819V84.3771H168.185V83.6229ZM166.133 83.7924L156.617 69.3624L155.988 69.7776L165.504 84.2076L166.133 83.7924ZM155.925 69.57V84H156.68V69.57H155.925ZM156.303 83.6229H153.937V84.3771H156.303V83.6229ZM154.314 84V65.852H153.559V84H154.314ZM153.937 66.2291H156.303V65.4749H153.937V66.2291ZM155.988 66.0599L165.504 80.4639L166.133 80.0481L156.617 65.6441L155.988 66.0599ZM166.196 80.256V65.852H165.441V80.256H166.196ZM165.819 66.2291H168.185V65.4749H165.819V66.2291ZM167.807 65.852V84H168.562V65.852H167.807ZM182.982 66.996L182.808 67.3309L182.813 67.3333L182.982 66.996ZM186.31 70.142L185.98 70.3255L185.982 70.3287L186.31 70.142ZM186.31 79.814L185.982 79.6273L185.981 79.6287L186.31 79.814ZM182.982 82.934L183.149 83.2721L183.15 83.2713L182.982 82.934ZM172.218 84H171.841V84.3771H172.218V84ZM172.218 65.878V65.5009H171.841V65.878H172.218ZM183.216 80.204L183.483 80.4707L183.484 80.4688L183.216 80.204ZM183.19 69.7L182.919 69.963L182.921 69.9648L183.19 69.7ZM174.584 67.802V67.4249H174.207V67.802H174.584ZM174.584 82.05H174.207V82.4271H174.584V82.05ZM177.86 66.2551C179.789 66.2551 181.434 66.6188 182.808 67.3309L183.155 66.6611C181.653 65.8826 179.883 65.5009 177.86 65.5009V66.2551ZM182.813 67.3333C184.204 68.0288 185.256 69.0251 185.98 70.3255L186.639 69.9585C185.838 68.5202 184.672 67.4192 183.15 66.6587L182.813 67.3333ZM185.982 70.3287C186.724 71.6318 187.103 73.1771 187.103 74.978H187.857C187.857 73.0695 187.455 71.3909 186.638 69.9553L185.982 70.3287ZM187.103 74.978C187.103 76.7789 186.724 78.3242 185.982 79.6273L186.638 80.0007C187.455 78.5651 187.857 76.8865 187.857 74.978H187.103ZM185.981 79.6287C185.257 80.9119 184.205 81.9006 182.813 82.5967L183.15 83.2713C184.67 82.5114 185.837 81.4201 186.638 79.9993L185.981 79.6287ZM182.815 82.5959C181.439 83.2756 179.791 83.6229 177.86 83.6229V84.3771C179.881 84.3771 181.648 84.0137 183.149 83.2721L182.815 82.5959ZM177.86 83.6229H172.218V84.3771H177.86V83.6229ZM172.595 84V65.878H171.841V84H172.595ZM172.218 66.2551H177.86V65.5009H172.218V66.2551ZM177.86 82.4271C180.264 82.4271 182.159 81.7937 183.482 80.4707L182.949 79.9373C181.811 81.0756 180.135 81.6729 177.86 81.6729V82.4271ZM183.484 80.4688C184.802 79.1322 185.439 77.2845 185.439 74.978H184.685C184.685 77.1435 184.091 78.7798 182.947 79.9392L183.484 80.4688ZM185.439 74.978C185.439 72.6534 184.793 70.7887 183.458 69.4352L182.921 69.9648C184.082 71.142 184.685 72.7959 184.685 74.978H185.439ZM183.46 69.437C182.138 68.0777 180.251 67.4249 177.86 67.4249V68.1791C180.114 68.1791 181.78 68.7916 182.919 69.963L183.46 69.437ZM177.86 67.4249H174.584V68.1791H177.86V67.4249ZM174.207 67.802V82.05H174.961V67.802H174.207ZM174.584 82.4271H177.86V81.6729H174.584V82.4271ZM207.776 65.878H208.153V65.5009H207.776V65.878ZM207.776 67.802V68.1791H208.153V67.802H207.776ZM199.898 67.802V67.4249H199.521V67.802H199.898ZM199.898 73.912H199.521V74.2891H199.898V73.912ZM206.294 73.912H206.671V73.5349H206.294V73.912ZM206.294 75.836V76.2131H206.671V75.836H206.294ZM199.898 75.836V75.4589H199.521V75.836H199.898ZM199.898 84V84.3771H200.275V84H199.898ZM197.532 84H197.155V84.3771H197.532V84ZM197.532 65.878V65.5009H197.155V65.878H197.532ZM207.399 65.878V67.802H208.153V65.878H207.399ZM207.776 67.4249H199.898V68.1791H207.776V67.4249ZM199.521 67.802V73.912H200.275V67.802H199.521ZM199.898 74.2891H206.294V73.5349H199.898V74.2891ZM205.917 73.912V75.836H206.671V73.912H205.917ZM206.294 75.4589H199.898V76.2131H206.294V75.4589ZM199.521 75.836V84H200.275V75.836H199.521ZM199.898 83.6229H197.532V84.3771H199.898V83.6229ZM197.909 84V65.878H197.155V84H197.909ZM197.532 66.2551H207.776V65.5009H197.532V66.2551ZM213 65.878H213.377V65.5009H213V65.878ZM213 84V84.3771H213.377V84H213ZM210.634 84H210.257V84.3771H210.634V84ZM210.634 65.878V65.5009H210.257V65.878H210.634ZM212.623 65.878V84H213.377V65.878H212.623ZM213 83.6229H210.634V84.3771H213V83.6229ZM211.011 84V65.878H210.257V84H211.011ZM210.634 66.2551H213V65.5009H210.634V66.2551ZM231.28 84V84.3771H231.657V84H231.28ZM228.914 84L228.599 84.2076L228.711 84.3771H228.914V84ZM219.398 69.57L219.713 69.3624L219.021 68.313V69.57H219.398ZM219.398 84V84.3771H219.775V84H219.398ZM217.032 84H216.655V84.3771H217.032V84ZM217.032 65.852V65.4749H216.655V65.852H217.032ZM219.398 65.852L219.713 65.6441L219.601 65.4749H219.398V65.852ZM228.914 80.256L228.6 80.4639L229.291 81.5111V80.256H228.914ZM228.914 65.852V65.4749H228.537V65.852H228.914ZM231.28 65.852H231.657V65.4749H231.28V65.852ZM231.28 83.6229H228.914V84.3771H231.28V83.6229ZM229.229 83.7924L219.713 69.3624L219.083 69.7776L228.599 84.2076L229.229 83.7924ZM219.021 69.57V84H219.775V69.57H219.021ZM219.398 83.6229H217.032V84.3771H219.398V83.6229ZM217.409 84V65.852H216.655V84H217.409ZM217.032 66.2291H219.398V65.4749H217.032V66.2291ZM219.084 66.0599L228.6 80.4639L229.229 80.0481L219.713 65.6441L219.084 66.0599ZM229.291 80.256V65.852H228.537V80.256H229.291ZM228.914 66.2291H231.28V65.4749H228.914V66.2291ZM230.903 65.852V84H231.657V65.852H230.903ZM246.078 66.996L245.904 67.3309L245.909 67.3333L246.078 66.996ZM249.406 70.142L249.076 70.3255L249.078 70.3287L249.406 70.142ZM249.406 79.814L249.078 79.6273L249.077 79.6287L249.406 79.814ZM246.078 82.934L246.245 83.2721L246.246 83.2713L246.078 82.934ZM235.314 84H234.936V84.3771H235.314V84ZM235.314 65.878V65.5009H234.936V65.878H235.314ZM246.312 80.204L246.578 80.4707L246.58 80.4688L246.312 80.204ZM246.286 69.7L246.015 69.963L246.017 69.9648L246.286 69.7ZM237.68 67.802V67.4249H237.302V67.802H237.68ZM237.68 82.05H237.302V82.4271H237.68V82.05ZM240.956 66.2551C242.884 66.2551 244.53 66.6188 245.904 67.3309L246.251 66.6611C244.748 65.8826 242.979 65.5009 240.956 65.5009V66.2551ZM245.909 67.3333C247.3 68.0288 248.352 69.0251 249.076 70.3255L249.735 69.9585C248.934 68.5202 247.767 67.4192 246.246 66.6587L245.909 67.3333ZM249.078 70.3287C249.82 71.6318 250.198 73.1771 250.198 74.978H250.953C250.953 73.0695 250.551 71.3909 249.733 69.9553L249.078 70.3287ZM250.198 74.978C250.198 76.7789 249.82 78.3242 249.078 79.6273L249.733 80.0007C250.551 78.5651 250.953 76.8865 250.953 74.978H250.198ZM249.077 79.6287C248.353 80.9119 247.301 81.9006 245.909 82.5967L246.246 83.2713C247.766 82.5114 248.933 81.4201 249.734 79.9993L249.077 79.6287ZM245.91 82.5959C244.534 83.2756 242.887 83.6229 240.956 83.6229V84.3771C242.976 84.3771 244.743 84.0137 246.245 83.2721L245.91 82.5959ZM240.956 83.6229H235.314V84.3771H240.956V83.6229ZM235.691 84V65.878H234.936V84H235.691ZM235.314 66.2551H240.956V65.5009H235.314V66.2551ZM240.956 82.4271C243.36 82.4271 245.255 81.7937 246.578 80.4707L246.045 79.9373C244.907 81.0756 243.231 81.6729 240.956 81.6729V82.4271ZM246.58 80.4688C247.898 79.1322 248.535 77.2845 248.535 74.978H247.78C247.78 77.1435 247.186 78.7798 246.043 79.9392L246.58 80.4688ZM248.535 74.978C248.535 72.6534 247.889 70.7887 246.554 69.4352L246.017 69.9648C247.178 71.142 247.78 72.7959 247.78 74.978H248.535ZM246.556 69.437C245.234 68.0777 243.346 67.4249 240.956 67.4249V68.1791C243.21 68.1791 244.876 68.7916 246.015 69.963L246.556 69.437ZM240.956 67.4249H237.68V68.1791H240.956V67.4249ZM237.302 67.802V82.05H238.057V67.802H237.302ZM237.68 82.4271H240.956V81.6729H237.68V82.4271ZM86.7732 94.878H87.1503V94.5009H86.7732V94.878ZM86.7732 96.802V97.1791H87.1503V96.802H86.7732ZM81.8332 96.802V96.4249H81.456V96.802H81.8332ZM81.8332 113V113.377H82.2103V113H81.8332ZM79.4672 113H79.09V113.377H79.4672V113ZM79.4672 96.802H79.8443V96.4249H79.4672V96.802ZM74.5012 96.802H74.124V97.1791H74.5012V96.802ZM74.5012 94.878V94.5009H74.124V94.878H74.5012ZM86.396 94.878V96.802H87.1503V94.878H86.396ZM86.7732 96.4249H81.8332V97.1791H86.7732V96.4249ZM81.456 96.802V113H82.2103V96.802H81.456ZM81.8332 112.623H79.4672V113.377H81.8332V112.623ZM79.8443 113V96.802H79.09V113H79.8443ZM79.4672 96.4249H74.5012V97.1791H79.4672V96.4249ZM74.8783 96.802V94.878H74.124V96.802H74.8783ZM74.5012 95.2551H86.7732V94.5009H74.5012V95.2551ZM103.648 94.878H104.025V94.5009H103.648V94.878ZM103.648 113V113.377H104.025V113H103.648ZM101.282 113H100.904V113.377H101.282V113ZM101.282 104.784H101.659V104.407H101.282V104.784ZM92.0516 104.784V104.407H91.6744V104.784H92.0516ZM92.0516 113V113.377H92.4287V113H92.0516ZM89.6856 113H89.3085V113.377H89.6856V113ZM89.6856 94.878V94.5009H89.3085V94.878H89.6856ZM92.0516 94.878H92.4287V94.5009H92.0516V94.878ZM92.0516 102.834H91.6744V103.211H92.0516V102.834ZM101.282 102.834V103.211H101.659V102.834H101.282ZM101.282 94.878V94.5009H100.904V94.878H101.282ZM103.27 94.878V113H104.025V94.878H103.27ZM103.648 112.623H101.282V113.377H103.648V112.623ZM101.659 113V104.784H100.904V113H101.659ZM101.282 104.407H92.0516V105.161H101.282V104.407ZM91.6744 104.784V113H92.4287V104.784H91.6744ZM92.0516 112.623H89.6856V113.377H92.0516V112.623ZM90.0627 113V94.878H89.3085V113H90.0627ZM89.6856 95.2551H92.0516V94.5009H89.6856V95.2551ZM91.6744 94.878V102.834H92.4287V94.878H91.6744ZM92.0516 103.211H101.282V102.457H92.0516V103.211ZM101.659 102.834V94.878H100.904V102.834H101.659ZM101.282 95.2551H103.648V94.5009H101.282V95.2551ZM110.054 96.802V96.4249H109.676V96.802H110.054ZM110.054 102.86H109.676V103.237H110.054V102.86ZM116.658 102.86H117.035V102.483H116.658V102.86ZM116.658 104.81V105.187H117.035V104.81H116.658ZM110.054 104.81V104.433H109.676V104.81H110.054ZM110.054 111.05H109.676V111.427H110.054V111.05ZM117.438 111.05H117.815V110.673H117.438V111.05ZM117.438 113V113.377H117.815V113H117.438ZM107.688 113H107.31V113.377H107.688V113ZM107.688 94.852V94.4749H107.31V94.852H107.688ZM117.438 94.852H117.815V94.4749H117.438V94.852ZM117.438 96.802V97.1791H117.815V96.802H117.438ZM109.676 96.802V102.86H110.431V96.802H109.676ZM110.054 103.237H116.658V102.483H110.054V103.237ZM116.28 102.86V104.81H117.035V102.86H116.28ZM116.658 104.433H110.054V105.187H116.658V104.433ZM109.676 104.81V111.05H110.431V104.81H109.676ZM110.054 111.427H117.438V110.673H110.054V111.427ZM117.06 111.05V113H117.815V111.05H117.06ZM117.438 112.623H107.688V113.377H117.438V112.623ZM108.065 113V94.852H107.31V113H108.065ZM107.688 95.2291H117.438V94.4749H107.688V95.2291ZM117.06 94.852V96.802H117.815V94.852H117.06ZM117.438 96.4249H110.054V97.1791H117.438V96.4249ZM139.4 95.008H139.777V94.6309H139.4V95.008ZM139.4 113V113.377H139.777V113H139.4ZM137.034 113H136.656V113.377H137.034V113ZM137.034 99.584H137.411L136.689 99.4305L137.034 99.584ZM131.054 113V113.377H131.298L131.398 113.154L131.054 113ZM129.39 113L129.045 113.154L129.145 113.377H129.39V113ZM123.384 99.558L123.728 99.4041L123.006 99.558H123.384ZM123.384 113V113.377H123.761V113H123.384ZM121.018 113H120.64V113.377H121.018V113ZM121.018 95.008V94.6309H120.64V95.008H121.018ZM123.566 95.008L123.91 94.8539L123.81 94.6309H123.566V95.008ZM130.222 109.88L129.877 110.034L130.222 110.803L130.566 110.034L130.222 109.88ZM136.878 95.008V94.6309H136.633L136.533 94.8539L136.878 95.008ZM139.022 95.008V113H139.777V95.008H139.022ZM139.4 112.623H137.034V113.377H139.4V112.623ZM137.411 113V99.584H136.656V113H137.411ZM136.689 99.4305L130.709 112.846L131.398 113.154L137.378 99.7375L136.689 99.4305ZM131.054 112.623H129.39V113.377H131.054V112.623ZM129.734 112.846L123.728 99.4041L123.039 99.7119L129.045 113.154L129.734 112.846ZM123.006 99.558V113H123.761V99.558H123.006ZM123.384 112.623H121.018V113.377H123.384V112.623ZM121.395 113V95.008H120.64V113H121.395ZM121.018 95.3851H123.566V94.6309H121.018V95.3851ZM123.221 95.1621L129.877 110.034L130.566 109.726L123.91 94.8539L123.221 95.1621ZM130.566 110.034L137.222 95.1621L136.533 94.8539L129.877 109.726L130.566 110.034ZM136.878 95.3851H139.4V94.6309H136.878V95.3851ZM145.934 112.558L145.776 112.9L145.783 112.904L145.934 112.558ZM143.724 110.79L143.416 111.007L143.418 111.011L143.724 110.79ZM142.892 108.164V107.787H142.508L142.515 108.171L142.892 108.164ZM145.414 108.164L145.789 108.126L145.755 107.787H145.414V108.164ZM146.454 110.322L146.191 110.593L146.199 110.6L146.454 110.322ZM151.81 110.348L152.057 110.633L152.057 110.633L151.81 110.348ZM152.226 106.474L151.943 106.723L152.226 106.474ZM150.796 105.486L150.658 105.837L150.796 105.486ZM148.482 104.758L148.58 104.394L148.577 104.393L148.482 104.758ZM145.596 103.822L145.445 104.167L145.448 104.169L145.596 103.822ZM143.75 102.366L143.447 102.591L143.454 102.6L143.75 102.366ZM143.75 97.036L144.065 97.2435L143.75 97.036ZM145.856 95.268L145.701 94.9244L145.698 94.9256L145.856 95.268ZM153.162 95.918L152.928 96.2139L152.931 96.2157L153.162 95.918ZM155.008 99.298V99.6751H155.424L155.383 99.2609L155.008 99.298ZM152.408 99.298L152.034 99.3448L152.075 99.6751H152.408V99.298ZM151.316 97.478L151.074 97.7671L151.079 97.771L151.316 97.478ZM146.35 97.452L146.587 97.7457L146.592 97.7417L146.35 97.452ZM145.96 101.196L145.676 101.444L145.682 101.451L145.96 101.196ZM147.338 102.158L147.192 102.506L147.199 102.509L147.206 102.511L147.338 102.158ZM149.652 102.886L149.55 103.249L149.552 103.25L149.652 102.886ZM152.538 103.874L152.383 104.218L152.39 104.221L152.538 103.874ZM154.41 105.356L154.111 105.586L154.114 105.59L154.41 105.356ZM154.488 110.556L154.812 110.75L154.488 110.556ZM152.408 112.454L152.232 112.121L152.408 112.454ZM149.158 112.805C148.006 112.805 146.984 112.605 146.085 112.212L145.783 112.904C146.791 113.343 147.918 113.559 149.158 113.559V112.805ZM146.093 112.216C145.208 111.806 144.525 111.256 144.03 110.569L143.418 111.011C143.998 111.815 144.788 112.443 145.776 112.9L146.093 112.216ZM144.032 110.573C143.541 109.876 143.285 109.075 143.269 108.157L142.515 108.171C142.534 109.229 142.832 110.179 143.416 111.007L144.032 110.573ZM142.892 108.541H145.414V107.787H142.892V108.541ZM145.039 108.202C145.135 109.139 145.52 109.941 146.191 110.593L146.717 110.051C146.175 109.525 145.867 108.888 145.789 108.126L145.039 108.202ZM146.199 110.6C146.916 111.257 147.922 111.557 149.158 111.557V110.803C148.037 110.803 147.24 110.531 146.709 110.044L146.199 110.6ZM149.158 111.557C150.345 111.557 151.327 111.264 152.057 110.633L151.563 110.063C151.01 110.541 150.224 110.803 149.158 110.803V111.557ZM152.057 110.633C152.8 109.988 153.175 109.156 153.175 108.164H152.421C152.421 108.94 152.138 109.564 151.563 110.063L152.057 110.633ZM153.175 108.164C153.175 107.398 152.963 106.74 152.509 106.225L151.943 106.723C152.252 107.074 152.421 107.543 152.421 108.164H153.175ZM152.509 106.225C152.086 105.744 151.558 105.381 150.934 105.135L150.658 105.837C151.178 106.042 151.604 106.338 151.943 106.723L152.509 106.225ZM150.934 105.135C150.343 104.902 149.557 104.655 148.58 104.394L148.385 105.122C149.349 105.381 150.105 105.619 150.658 105.837L150.934 105.135ZM148.577 104.393C147.391 104.084 146.449 103.777 145.745 103.475L145.448 104.169C146.2 104.491 147.182 104.808 148.387 105.123L148.577 104.393ZM145.748 103.477C145.098 103.191 144.531 102.747 144.046 102.132L143.454 102.6C144.009 103.303 144.673 103.829 145.445 104.167L145.748 103.477ZM144.053 102.141C143.613 101.549 143.373 100.735 143.373 99.662H142.619C142.619 100.843 142.882 101.831 143.448 102.591L144.053 102.141ZM143.373 99.662C143.373 98.7415 143.606 97.9396 144.065 97.2435L143.435 96.8285C142.889 97.6578 142.619 98.6065 142.619 99.662H143.373ZM144.065 97.2435C144.526 96.5447 145.171 95.9996 146.014 95.6104L145.698 94.9256C144.739 95.3684 143.98 96.002 143.435 96.8285L144.065 97.2435ZM146.012 95.6116C146.874 95.2211 147.868 95.0211 149.002 95.0211V94.2669C147.779 94.2669 146.676 94.4829 145.701 94.9244L146.012 95.6116ZM149.002 95.0211C150.637 95.0211 151.935 95.4288 152.928 96.2139L153.396 95.6221C152.24 94.7085 150.765 94.2669 149.002 94.2669V95.0211ZM152.931 96.2157C153.939 97.0001 154.504 98.0317 154.633 99.3351L155.383 99.2609C155.235 97.7563 154.569 96.5345 153.394 95.6203L152.931 96.2157ZM155.008 98.9209H152.408V99.6751H155.008V98.9209ZM152.782 99.2512C152.681 98.444 152.256 97.7545 151.554 97.1851L151.079 97.771C151.659 98.2415 151.961 98.7653 152.034 99.3448L152.782 99.2512ZM151.558 97.1889C150.833 96.581 149.89 96.2949 148.768 96.2949V97.0491C149.761 97.0491 150.517 97.3003 151.074 97.7671L151.558 97.1889ZM148.768 96.2949C147.712 96.2949 146.814 96.5743 146.109 97.1623L146.592 97.7417C147.134 97.2897 147.849 97.0491 148.768 97.0491V96.2949ZM146.114 97.1583C145.387 97.7436 145.037 98.57 145.037 99.584H145.791C145.791 98.7606 146.065 98.1657 146.587 97.7457L146.114 97.1583ZM145.037 99.584C145.037 100.316 145.241 100.947 145.676 101.444L146.244 100.948C145.951 100.613 145.791 100.17 145.791 99.584H145.037ZM145.682 101.451C146.102 101.908 146.606 102.26 147.192 102.506L147.484 101.81C146.995 101.605 146.581 101.316 146.238 100.941L145.682 101.451ZM147.206 102.511C147.775 102.725 148.558 102.971 149.55 103.249L149.754 102.523C148.77 102.247 148.011 102.007 147.471 101.805L147.206 102.511ZM149.552 103.25C150.738 103.576 151.68 103.9 152.383 104.218L152.694 103.53C151.941 103.19 150.958 102.854 149.752 102.522L149.552 103.25ZM152.39 104.221C153.054 104.505 153.627 104.957 154.111 105.586L154.709 105.126C154.153 104.403 153.479 103.867 152.687 103.527L152.39 104.221ZM154.114 105.59C154.565 106.161 154.813 106.97 154.813 108.06H155.567C155.567 106.862 155.295 105.868 154.706 105.122L154.114 105.59ZM154.813 108.06C154.813 108.874 154.599 109.639 154.165 110.362L154.812 110.75C155.314 109.913 155.567 109.014 155.567 108.06H154.813ZM154.165 110.362C153.737 111.075 153.099 111.663 152.232 112.121L152.584 112.787C153.555 112.275 154.303 111.597 154.812 110.75L154.165 110.362ZM152.232 112.121C151.378 112.572 150.357 112.805 149.158 112.805V113.559C150.455 113.559 151.601 113.307 152.584 112.787L152.232 112.121ZM161.038 96.802V96.4249H160.661V96.802H161.038ZM161.038 102.86H160.661V103.237H161.038V102.86ZM167.642 102.86H168.019V102.483H167.642V102.86ZM167.642 104.81V105.187H168.019V104.81H167.642ZM161.038 104.81V104.433H160.661V104.81H161.038ZM161.038 111.05H160.661V111.427H161.038V111.05ZM168.422 111.05H168.799V110.673H168.422V111.05ZM168.422 113V113.377H168.799V113H168.422ZM158.672 113H158.295V113.377H158.672V113ZM158.672 94.852V94.4749H158.295V94.852H158.672ZM168.422 94.852H168.799V94.4749H168.422V94.852ZM168.422 96.802V97.1791H168.799V96.802H168.422ZM160.661 96.802V102.86H161.415V96.802H160.661ZM161.038 103.237H167.642V102.483H161.038V103.237ZM167.265 102.86V104.81H168.019V102.86H167.265ZM167.642 104.433H161.038V105.187H167.642V104.433ZM160.661 104.81V111.05H161.415V104.81H160.661ZM161.038 111.427H168.422V110.673H161.038V111.427ZM168.045 111.05V113H168.799V111.05H168.045ZM168.422 112.623H158.672V113.377H168.422V112.623ZM159.049 113V94.852H158.295V113H159.049ZM158.672 95.2291H168.422V94.4749H158.672V95.2291ZM168.045 94.852V96.802H168.799V94.852H168.045ZM168.422 96.4249H161.038V97.1791H168.422V96.4249ZM174.368 111.076H173.991V111.453H174.368V111.076ZM180.712 111.076H181.089V110.699H180.712V111.076ZM180.712 113V113.377H181.089V113H180.712ZM172.002 113H171.625V113.377H172.002V113ZM172.002 94.878V94.5009H171.625V94.878H172.002ZM174.368 94.878H174.745V94.5009H174.368V94.878ZM174.368 111.453H180.712V110.699H174.368V111.453ZM180.335 111.076V113H181.089V111.076H180.335ZM180.712 112.623H172.002V113.377H180.712V112.623ZM172.379 113V94.878H171.625V113H172.379ZM172.002 95.2551H174.368V94.5009H172.002V95.2551ZM173.991 94.878V111.076H174.745V94.878H173.991ZM198.201 94.878L198.554 95.0111L198.746 94.5009H198.201V94.878ZM191.363 113V113.377H191.623L191.716 113.133L191.363 113ZM188.633 113L188.28 113.133L188.372 113.377H188.633V113ZM181.795 94.878V94.5009H181.249L181.442 95.0111L181.795 94.878ZM184.317 94.878L184.671 94.7489L184.581 94.5009H184.317V94.878ZM190.011 110.504L189.656 110.633L190.011 111.606L190.365 110.633L190.011 110.504ZM195.705 94.878V94.5009H195.441L195.35 94.7489L195.705 94.878ZM197.848 94.7449L191.01 112.867L191.716 113.133L198.554 95.0111L197.848 94.7449ZM191.363 112.623H188.633V113.377H191.363V112.623ZM188.986 112.867L182.148 94.7449L181.442 95.0111L188.28 113.133L188.986 112.867ZM181.795 95.2551H184.317V94.5009H181.795V95.2551ZM183.962 95.0071L189.656 110.633L190.365 110.375L184.671 94.7489L183.962 95.0071ZM190.365 110.633L196.059 95.0071L195.35 94.7489L189.656 110.375L190.365 110.633ZM195.705 95.2551H198.201V94.5009H195.705V95.2551ZM203.161 96.802V96.4249H202.784V96.802H203.161ZM203.161 102.86H202.784V103.237H203.161V102.86ZM209.765 102.86H210.142V102.483H209.765V102.86ZM209.765 104.81V105.187H210.142V104.81H209.765ZM203.161 104.81V104.433H202.784V104.81H203.161ZM203.161 111.05H202.784V111.427H203.161V111.05ZM210.545 111.05H210.922V110.673H210.545V111.05ZM210.545 113V113.377H210.922V113H210.545ZM200.795 113H200.418V113.377H200.795V113ZM200.795 94.852V94.4749H200.418V94.852H200.795ZM210.545 94.852H210.922V94.4749H210.545V94.852ZM210.545 96.802V97.1791H210.922V96.802H210.545ZM202.784 96.802V102.86H203.538V96.802H202.784ZM203.161 103.237H209.765V102.483H203.161V103.237ZM209.388 102.86V104.81H210.142V102.86H209.388ZM209.765 104.433H203.161V105.187H209.765V104.433ZM202.784 104.81V111.05H203.538V104.81H202.784ZM203.161 111.427H210.545V110.673H203.161V111.427ZM210.168 111.05V113H210.922V111.05H210.168ZM210.545 112.623H200.795V113.377H210.545V112.623ZM201.172 113V94.852H200.418V113H201.172ZM200.795 95.2291H210.545V94.4749H200.795V95.2291ZM210.168 94.852V96.802H210.922V94.852H210.168ZM210.545 96.4249H203.161V97.1791H210.545V96.4249ZM216.647 112.558L216.489 112.9L216.496 112.904L216.647 112.558ZM214.437 110.79L214.129 111.007L214.131 111.011L214.437 110.79ZM213.605 108.164V107.787H213.221L213.228 108.171L213.605 108.164ZM216.127 108.164L216.502 108.126L216.468 107.787H216.127V108.164ZM217.167 110.322L216.904 110.593L216.912 110.6L217.167 110.322ZM222.523 110.348L222.77 110.633L222.77 110.633L222.523 110.348ZM222.939 106.474L222.656 106.723L222.939 106.474ZM221.509 105.486L221.371 105.837L221.509 105.486ZM219.195 104.758L219.293 104.394L219.29 104.393L219.195 104.758ZM216.309 103.822L216.157 104.167L216.16 104.169L216.309 103.822ZM214.463 102.366L214.16 102.591L214.167 102.6L214.463 102.366ZM214.463 97.036L214.778 97.2435L214.463 97.036ZM216.569 95.268L216.413 94.9244L216.411 94.9256L216.569 95.268ZM223.875 95.918L223.641 96.2139L223.644 96.2157L223.875 95.918ZM225.721 99.298V99.6751H226.137L226.096 99.2609L225.721 99.298ZM223.121 99.298L222.747 99.3448L222.788 99.6751H223.121V99.298ZM222.029 97.478L221.787 97.7671L221.792 97.771L222.029 97.478ZM217.063 97.452L217.3 97.7457L217.304 97.7417L217.063 97.452ZM216.673 101.196L216.389 101.444L216.395 101.451L216.673 101.196ZM218.051 102.158L217.905 102.506L217.912 102.509L217.919 102.511L218.051 102.158ZM220.365 102.886L220.263 103.249L220.265 103.25L220.365 102.886ZM223.251 103.874L223.096 104.218L223.102 104.221L223.251 103.874ZM225.123 105.356L224.824 105.586L224.827 105.59L225.123 105.356ZM225.201 110.556L225.524 110.75L225.201 110.556ZM223.121 112.454L222.945 112.121L223.121 112.454ZM219.871 112.805C218.719 112.805 217.697 112.605 216.798 112.212L216.496 112.904C217.504 113.343 218.631 113.559 219.871 113.559V112.805ZM216.805 112.216C215.921 111.806 215.238 111.256 214.743 110.569L214.131 111.011C214.711 111.815 215.501 112.443 216.489 112.9L216.805 112.216ZM214.745 110.573C214.254 109.876 213.998 109.075 213.982 108.157L213.228 108.171C213.247 109.229 213.545 110.179 214.129 111.007L214.745 110.573ZM213.605 108.541H216.127V107.787H213.605V108.541ZM215.752 108.202C215.847 109.139 216.233 109.941 216.904 110.593L217.43 110.051C216.887 109.525 216.58 108.888 216.502 108.126L215.752 108.202ZM216.912 110.6C217.629 111.257 218.635 111.557 219.871 111.557V110.803C218.75 110.803 217.953 110.531 217.422 110.044L216.912 110.6ZM219.871 111.557C221.058 111.557 222.04 111.264 222.77 110.633L222.276 110.063C221.723 110.541 220.937 110.803 219.871 110.803V111.557ZM222.77 110.633C223.513 109.988 223.888 109.156 223.888 108.164H223.134C223.134 108.94 222.851 109.564 222.276 110.063L222.77 110.633ZM223.888 108.164C223.888 107.398 223.676 106.74 223.222 106.225L222.656 106.723C222.965 107.074 223.134 107.543 223.134 108.164H223.888ZM223.222 106.225C222.799 105.744 222.271 105.381 221.647 105.135L221.371 105.837C221.891 106.042 222.317 106.338 222.656 106.723L223.222 106.225ZM221.647 105.135C221.056 104.902 220.27 104.655 219.293 104.394L219.097 105.122C220.062 105.381 220.818 105.619 221.371 105.837L221.647 105.135ZM219.29 104.393C218.104 104.084 217.162 103.777 216.458 103.475L216.16 104.169C216.913 104.491 217.895 104.808 219.1 105.123L219.29 104.393ZM216.461 103.477C215.811 103.191 215.244 102.747 214.759 102.132L214.167 102.6C214.722 103.303 215.386 103.829 216.157 104.167L216.461 103.477ZM214.766 102.141C214.325 101.549 214.086 100.735 214.086 99.662H213.332C213.332 100.843 213.595 101.831 214.16 102.591L214.766 102.141ZM214.086 99.662C214.086 98.7415 214.319 97.9396 214.778 97.2435L214.148 96.8285C213.602 97.6578 213.332 98.6065 213.332 99.662H214.086ZM214.778 97.2435C215.239 96.5447 215.884 95.9996 216.727 95.6104L216.411 94.9256C215.452 95.3684 214.693 96.002 214.148 96.8285L214.778 97.2435ZM216.725 95.6116C217.587 95.2211 218.581 95.0211 219.715 95.0211V94.2669C218.492 94.2669 217.389 94.4829 216.413 94.9244L216.725 95.6116ZM219.715 95.0211C221.35 95.0211 222.648 95.4288 223.641 96.2139L224.109 95.6221C222.953 94.7085 221.478 94.2669 219.715 94.2669V95.0211ZM223.644 96.2157C224.652 97.0001 225.217 98.0317 225.346 99.3351L226.096 99.2609C225.948 97.7563 225.282 96.5345 224.107 95.6203L223.644 96.2157ZM225.721 98.9209H223.121V99.6751H225.721V98.9209ZM223.495 99.2512C223.394 98.444 222.969 97.7545 222.267 97.1851L221.792 97.771C222.372 98.2415 222.674 98.7653 222.747 99.3448L223.495 99.2512ZM222.271 97.1889C221.546 96.581 220.603 96.2949 219.481 96.2949V97.0491C220.474 97.0491 221.23 97.3003 221.787 97.7671L222.271 97.1889ZM219.481 96.2949C218.425 96.2949 217.527 96.5743 216.822 97.1623L217.304 97.7417C217.847 97.2897 218.561 97.0491 219.481 97.0491V96.2949ZM216.826 97.1583C216.1 97.7436 215.75 98.57 215.75 99.584H216.504C216.504 98.7606 216.778 98.1657 217.3 97.7457L216.826 97.1583ZM215.75 99.584C215.75 100.316 215.954 100.947 216.389 101.444L216.957 100.948C216.664 100.613 216.504 100.17 216.504 99.584H215.75ZM216.395 101.451C216.814 101.908 217.319 102.26 217.905 102.506L218.197 101.81C217.708 101.605 217.294 101.316 216.951 100.941L216.395 101.451ZM217.919 102.511C218.488 102.725 219.271 102.971 220.263 103.249L220.467 102.523C219.483 102.247 218.723 102.007 218.183 101.805L217.919 102.511ZM220.265 103.25C221.451 103.576 222.392 103.9 223.096 104.218L223.406 103.53C222.654 103.19 221.671 102.854 220.465 102.522L220.265 103.25ZM223.102 104.221C223.767 104.505 224.34 104.957 224.824 105.586L225.422 105.126C224.866 104.403 224.191 103.867 223.4 103.527L223.102 104.221ZM224.827 105.59C225.278 106.161 225.526 106.97 225.526 108.06H226.28C226.28 106.862 226.008 105.868 225.419 105.122L224.827 105.59ZM225.526 108.06C225.526 108.874 225.312 109.639 224.878 110.362L225.524 110.75C226.027 109.913 226.28 109.014 226.28 108.06H225.526ZM224.878 110.362C224.45 111.075 223.811 111.663 222.945 112.121L223.297 112.787C224.268 112.275 225.016 111.597 225.524 110.75L224.878 110.362ZM222.945 112.121C222.09 112.572 221.07 112.805 219.871 112.805V113.559C221.168 113.559 222.314 113.307 223.297 112.787L222.945 112.121Z" fill="#FD4525" mask="url(#path-1-outside-1_686_357)"/>
</svg>
