<svg width="300" height="150" viewBox="0 0 300 150" fill="none" xmlns="http://www.w3.org/2000/svg">
<path d="M57 58.04V60.3H51.18V63.88H55.64V66.1H51.18V72H48.38V58.04H57ZM65.0655 72.14C63.7588 72.14 62.5588 71.8333 61.4655 71.22C60.3721 70.6067 59.5055 69.76 58.8655 68.68C58.2255 67.5867 57.9055 66.3533 57.9055 64.98C57.9055 63.62 58.2255 62.4 58.8655 61.32C59.5055 60.2267 60.3721 59.3733 61.4655 58.76C62.5588 58.1467 63.7588 57.84 65.0655 57.84C66.3855 57.84 67.5855 58.1467 68.6655 58.76C69.7588 59.3733 70.6188 60.2267 71.2455 61.32C71.8855 62.4 72.2055 63.62 72.2055 64.98C72.2055 66.3533 71.8855 67.5867 71.2455 68.68C70.6188 69.76 69.7588 70.6067 68.6655 71.22C67.5721 71.8333 66.3721 72.14 65.0655 72.14ZM65.0655 69.64C65.9055 69.64 66.6455 69.4533 67.2855 69.08C67.9255 68.6933 68.4255 68.1467 68.7855 67.44C69.1455 66.7333 69.3255 65.9133 69.3255 64.98C69.3255 64.0467 69.1455 63.2333 68.7855 62.54C68.4255 61.8333 67.9255 61.2933 67.2855 60.92C66.6455 60.5467 65.9055 60.36 65.0655 60.36C64.2255 60.36 63.4788 60.5467 62.8255 60.92C62.1855 61.2933 61.6855 61.8333 61.3255 62.54C60.9655 63.2333 60.7855 64.0467 60.7855 64.98C60.7855 65.9133 60.9655 66.7333 61.3255 67.44C61.6855 68.1467 62.1855 68.6933 62.8255 69.08C63.4788 69.4533 64.2255 69.64 65.0655 69.64ZM81.0886 72L78.0086 66.56H76.6886V72H73.8886V58.04H79.1286C80.2086 58.04 81.1286 58.2333 81.8886 58.62C82.6486 58.9933 83.2153 59.5067 83.5886 60.16C83.9753 60.8 84.1686 61.52 84.1686 62.32C84.1686 63.24 83.9019 64.0733 83.3686 64.82C82.8353 65.5533 82.0419 66.06 80.9886 66.34L84.3286 72H81.0886ZM76.6886 64.46H79.0286C79.7886 64.46 80.3553 64.28 80.7286 63.92C81.1019 63.5467 81.2886 63.0333 81.2886 62.38C81.2886 61.74 81.1019 61.2467 80.7286 60.9C80.3553 60.54 79.7886 60.36 79.0286 60.36H76.6886V64.46ZM101.767 58.04L97.0467 67.14V72H94.2467V67.14L89.5067 58.04H92.6667L95.6667 64.42L98.6467 58.04H101.767ZM109.462 72.14C108.155 72.14 106.955 71.8333 105.862 71.22C104.768 70.6067 103.902 69.76 103.262 68.68C102.622 67.5867 102.302 66.3533 102.302 64.98C102.302 63.62 102.622 62.4 103.262 61.32C103.902 60.2267 104.768 59.3733 105.862 58.76C106.955 58.1467 108.155 57.84 109.462 57.84C110.782 57.84 111.982 58.1467 113.062 58.76C114.155 59.3733 115.015 60.2267 115.642 61.32C116.282 62.4 116.602 63.62 116.602 64.98C116.602 66.3533 116.282 67.5867 115.642 68.68C115.015 69.76 114.155 70.6067 113.062 71.22C111.968 71.8333 110.768 72.14 109.462 72.14ZM109.462 69.64C110.302 69.64 111.042 69.4533 111.682 69.08C112.322 68.6933 112.822 68.1467 113.182 67.44C113.542 66.7333 113.722 65.9133 113.722 64.98C113.722 64.0467 113.542 63.2333 113.182 62.54C112.822 61.8333 112.322 61.2933 111.682 60.92C111.042 60.5467 110.302 60.36 109.462 60.36C108.622 60.36 107.875 60.5467 107.222 60.92C106.582 61.2933 106.082 61.8333 105.722 62.54C105.362 63.2333 105.182 64.0467 105.182 64.98C105.182 65.9133 105.362 66.7333 105.722 67.44C106.082 68.1467 106.582 68.6933 107.222 69.08C107.875 69.4533 108.622 69.64 109.462 69.64ZM121.045 58.04V66.68C121.045 67.6267 121.291 68.3533 121.785 68.86C122.278 69.3533 122.971 69.6 123.865 69.6C124.771 69.6 125.471 69.3533 125.965 68.86C126.458 68.3533 126.705 67.6267 126.705 66.68V58.04H129.525V66.66C129.525 67.8467 129.265 68.8533 128.745 69.68C128.238 70.4933 127.551 71.1067 126.685 71.52C125.831 71.9333 124.878 72.14 123.825 72.14C122.785 72.14 121.838 71.9333 120.985 71.52C120.145 71.1067 119.478 70.4933 118.985 69.68C118.491 68.8533 118.245 67.8467 118.245 66.66V58.04H121.045ZM139.03 72L135.95 66.56H134.63V72H131.83V58.04H137.07C138.15 58.04 139.07 58.2333 139.83 58.62C140.59 58.9933 141.157 59.5067 141.53 60.16C141.917 60.8 142.11 61.52 142.11 62.32C142.11 63.24 141.843 64.0733 141.31 64.82C140.777 65.5533 139.983 66.06 138.93 66.34L142.27 72H139.03ZM134.63 64.46H136.97C137.73 64.46 138.297 64.28 138.67 63.92C139.043 63.5467 139.23 63.0333 139.23 62.38C139.23 61.74 139.043 61.2467 138.67 60.9C138.297 60.54 137.73 60.36 136.97 60.36H134.63V64.46ZM160.188 58.04V72H157.388V66.06H151.408V72H148.608V58.04H151.408V63.78H157.388V58.04H160.188ZM171.104 69.34H165.544L164.624 72H161.684L166.704 58.02H169.964L174.984 72H172.024L171.104 69.34ZM170.344 67.1L168.324 61.26L166.304 67.1H170.344ZM186.64 62.36C186.64 63.1067 186.46 63.8067 186.1 64.46C185.754 65.1133 185.2 65.64 184.44 66.04C183.694 66.44 182.747 66.64 181.6 66.64H179.26V72H176.46V58.04H181.6C182.68 58.04 183.6 58.2267 184.36 58.6C185.12 58.9733 185.687 59.4867 186.06 60.14C186.447 60.7933 186.64 61.5333 186.64 62.36ZM181.48 64.38C182.254 64.38 182.827 64.2067 183.2 63.86C183.574 63.5 183.76 63 183.76 62.36C183.76 61 183 60.32 181.48 60.32H179.26V64.38H181.48ZM198.408 62.36C198.408 63.1067 198.228 63.8067 197.868 64.46C197.522 65.1133 196.968 65.64 196.208 66.04C195.462 66.44 194.515 66.64 193.368 66.64H191.028V72H188.228V58.04H193.368C194.448 58.04 195.368 58.2267 196.128 58.6C196.888 58.9733 197.455 59.4867 197.828 60.14C198.215 60.7933 198.408 61.5333 198.408 62.36ZM193.248 64.38C194.022 64.38 194.595 64.2067 194.968 63.86C195.342 63.5 195.528 63 195.528 62.36C195.528 61 194.768 60.32 193.248 60.32H191.028V64.38H193.248ZM202.796 58.04V72H199.996V58.04H202.796ZM217.103 72H214.303L207.963 62.42V72H205.163V58.02H207.963L214.303 67.62V58.02H217.103V72ZM222.27 60.3V63.8H226.97V66.02H222.27V69.72H227.57V72H219.47V58.02H227.57V60.3H222.27ZM234.534 72.14C233.561 72.14 232.681 71.9733 231.894 71.64C231.121 71.3067 230.508 70.8267 230.054 70.2C229.601 69.5733 229.368 68.8333 229.354 67.98H232.354C232.394 68.5533 232.594 69.0067 232.954 69.34C233.328 69.6733 233.834 69.84 234.474 69.84C235.128 69.84 235.641 69.6867 236.014 69.38C236.388 69.06 236.574 68.6467 236.574 68.14C236.574 67.7267 236.448 67.3867 236.194 67.12C235.941 66.8533 235.621 66.6467 235.234 66.5C234.861 66.34 234.341 66.1667 233.674 65.98C232.768 65.7133 232.028 65.4533 231.454 65.2C230.894 64.9333 230.408 64.54 229.994 64.02C229.594 63.4867 229.394 62.78 229.394 61.9C229.394 61.0733 229.601 60.3533 230.014 59.74C230.428 59.1267 231.008 58.66 231.754 58.34C232.501 58.0067 233.354 57.84 234.314 57.84C235.754 57.84 236.921 58.1933 237.814 58.9C238.721 59.5933 239.221 60.5667 239.314 61.82H236.234C236.208 61.34 236.001 60.9467 235.614 60.64C235.241 60.32 234.741 60.16 234.114 60.16C233.568 60.16 233.128 60.3 232.794 60.58C232.474 60.86 232.314 61.2667 232.314 61.8C232.314 62.1733 232.434 62.4867 232.674 62.74C232.928 62.98 233.234 63.18 233.594 63.34C233.968 63.4867 234.488 63.66 235.154 63.86C236.061 64.1267 236.801 64.3933 237.374 64.66C237.948 64.9267 238.441 65.3267 238.854 65.86C239.268 66.3933 239.474 67.0933 239.474 67.96C239.474 68.7067 239.281 69.4 238.894 70.04C238.508 70.68 237.941 71.1933 237.194 71.58C236.448 71.9533 235.561 72.14 234.534 72.14ZM246.322 72.14C245.349 72.14 244.469 71.9733 243.682 71.64C242.909 71.3067 242.295 70.8267 241.842 70.2C241.389 69.5733 241.155 68.8333 241.142 67.98H244.142C244.182 68.5533 244.382 69.0067 244.742 69.34C245.115 69.6733 245.622 69.84 246.262 69.84C246.915 69.84 247.429 69.6867 247.802 69.38C248.175 69.06 248.362 68.6467 248.362 68.14C248.362 67.7267 248.235 67.3867 247.982 67.12C247.729 66.8533 247.409 66.6467 247.022 66.5C246.649 66.34 246.129 66.1667 245.462 65.98C244.555 65.7133 243.815 65.4533 243.242 65.2C242.682 64.9333 242.195 64.54 241.782 64.02C241.382 63.4867 241.182 62.78 241.182 61.9C241.182 61.0733 241.389 60.3533 241.802 59.74C242.215 59.1267 242.795 58.66 243.542 58.34C244.289 58.0067 245.142 57.84 246.102 57.84C247.542 57.84 248.709 58.1933 249.602 58.9C250.509 59.5933 251.009 60.5667 251.102 61.82H248.022C247.995 61.34 247.789 60.9467 247.402 60.64C247.029 60.32 246.529 60.16 245.902 60.16C245.355 60.16 244.915 60.3 244.582 60.58C244.262 60.86 244.102 61.2667 244.102 61.8C244.102 62.1733 244.222 62.4867 244.462 62.74C244.715 62.98 245.022 63.18 245.382 63.34C245.755 63.4867 246.275 63.66 246.942 63.86C247.849 64.1267 248.589 64.3933 249.162 64.66C249.735 64.9267 250.229 65.3267 250.642 65.86C251.055 66.3933 251.262 67.0933 251.262 67.96C251.262 68.7067 251.069 69.4 250.682 70.04C250.295 70.68 249.729 71.1933 248.982 71.58C248.235 71.9533 247.349 72.14 246.322 72.14ZM57.88 79.04V81.3H54.16V93H51.36V81.3H47.64V79.04H57.88ZM71.103 79.04V93H68.303V87.06H62.323V93H59.523V79.04H62.323V84.78H68.303V79.04H71.103ZM76.2589 79.04V93H73.4589V79.04H76.2589ZM83.4453 93.14C82.472 93.14 81.592 92.9733 80.8053 92.64C80.032 92.3067 79.4186 91.8267 78.9653 91.2C78.512 90.5733 78.2786 89.8333 78.2653 88.98H81.2653C81.3053 89.5533 81.5053 90.0067 81.8653 90.34C82.2386 90.6733 82.7453 90.84 83.3853 90.84C84.0386 90.84 84.552 90.6867 84.9253 90.38C85.2986 90.06 85.4853 89.6467 85.4853 89.14C85.4853 88.7267 85.3586 88.3867 85.1053 88.12C84.852 87.8533 84.532 87.6467 84.1453 87.5C83.772 87.34 83.252 87.1667 82.5853 86.98C81.6786 86.7133 80.9386 86.4533 80.3653 86.2C79.8053 85.9333 79.3186 85.54 78.9053 85.02C78.5053 84.4867 78.3053 83.78 78.3053 82.9C78.3053 82.0733 78.512 81.3533 78.9253 80.74C79.3386 80.1267 79.9186 79.66 80.6653 79.34C81.412 79.0067 82.2653 78.84 83.2253 78.84C84.6653 78.84 85.832 79.1933 86.7253 79.9C87.632 80.5933 88.132 81.5667 88.2253 82.82H85.1453C85.1186 82.34 84.912 81.9467 84.5253 81.64C84.152 81.32 83.652 81.16 83.0253 81.16C82.4786 81.16 82.0386 81.3 81.7053 81.58C81.3853 81.86 81.2253 82.2667 81.2253 82.8C81.2253 83.1733 81.3453 83.4867 81.5853 83.74C81.8386 83.98 82.1453 84.18 82.5053 84.34C82.8786 84.4867 83.3986 84.66 84.0653 84.86C84.972 85.1267 85.712 85.3933 86.2853 85.66C86.8586 85.9267 87.352 86.3267 87.7653 86.86C88.1786 87.3933 88.3853 88.0933 88.3853 88.96C88.3853 89.7067 88.192 90.4 87.8053 91.04C87.4186 91.68 86.852 92.1933 86.1053 92.58C85.3586 92.9533 84.472 93.14 83.4453 93.14ZM109.998 79.04V93H107.198V83.92L103.458 93H101.338L97.5784 83.92V93H94.7784V79.04H97.9584L102.398 89.42L106.838 79.04H109.998ZM118.847 93.14C117.54 93.14 116.34 92.8333 115.247 92.22C114.153 91.6067 113.287 90.76 112.647 89.68C112.007 88.5867 111.687 87.3533 111.687 85.98C111.687 84.62 112.007 83.4 112.647 82.32C113.287 81.2267 114.153 80.3733 115.247 79.76C116.34 79.1467 117.54 78.84 118.847 78.84C120.167 78.84 121.367 79.1467 122.447 79.76C123.54 80.3733 124.4 81.2267 125.027 82.32C125.667 83.4 125.987 84.62 125.987 85.98C125.987 87.3533 125.667 88.5867 125.027 89.68C124.4 90.76 123.54 91.6067 122.447 92.22C121.353 92.8333 120.153 93.14 118.847 93.14ZM118.847 90.64C119.687 90.64 120.427 90.4533 121.067 90.08C121.707 89.6933 122.207 89.1467 122.567 88.44C122.927 87.7333 123.107 86.9133 123.107 85.98C123.107 85.0467 122.927 84.2333 122.567 83.54C122.207 82.8333 121.707 82.2933 121.067 81.92C120.427 81.5467 119.687 81.36 118.847 81.36C118.007 81.36 117.26 81.5467 116.607 81.92C115.967 82.2933 115.467 82.8333 115.107 83.54C114.747 84.2333 114.567 85.0467 114.567 85.98C114.567 86.9133 114.747 87.7333 115.107 88.44C115.467 89.1467 115.967 89.6933 116.607 90.08C117.26 90.4533 118.007 90.64 118.847 90.64ZM139.61 93H136.81L130.47 83.42V93H127.67V79.02H130.47L136.81 88.62V79.02H139.61V93ZM151.477 79.04V81.3H147.757V93H144.957V81.3H141.237V79.04H151.477ZM164.7 79.04V93H161.9V87.06H155.92V93H153.12V79.04H155.92V84.78H161.9V79.04H164.7Z" fill="#FD4525"/>
</svg>
