<svg width="300" height="150" viewBox="0 0 300 150" fill="none" xmlns="http://www.w3.org/2000/svg">
<path d="M81.3955 100.618L85.915 108.743H86.0928L90.6123 100.618H94.3447L87.667 112.119V119H84.3662V112.119L77.6631 100.618H81.3955ZM111.839 109.809C111.839 111.747 111.475 113.427 110.747 114.849C110.019 116.271 109.016 117.363 107.738 118.124C106.469 118.878 105.026 119.254 103.409 119.254C101.793 119.254 100.345 118.878 99.0674 118.124C97.7979 117.363 96.7992 116.271 96.0713 114.849C95.3434 113.419 94.9795 111.739 94.9795 109.809C94.9795 107.871 95.3434 106.191 96.0713 104.769C96.7992 103.347 97.7979 102.259 99.0674 101.506C100.345 100.744 101.793 100.364 103.409 100.364C105.026 100.364 106.469 100.744 107.738 101.506C109.016 102.259 110.019 103.347 110.747 104.769C111.475 106.191 111.839 107.871 111.839 109.809ZM108.513 109.809C108.513 108.438 108.297 107.27 107.865 106.305C107.442 105.332 106.845 104.595 106.075 104.096C105.305 103.588 104.416 103.334 103.409 103.334C102.402 103.334 101.513 103.588 100.743 104.096C99.973 104.595 99.3721 105.332 98.9404 106.305C98.5173 107.27 98.3057 108.438 98.3057 109.809C98.3057 111.18 98.5173 112.352 98.9404 113.326C99.3721 114.29 99.973 115.027 100.743 115.535C101.513 116.034 102.402 116.284 103.409 116.284C104.416 116.284 105.305 116.034 106.075 115.535C106.845 115.027 107.442 114.29 107.865 113.326C108.297 112.352 108.513 111.18 108.513 109.809ZM129.714 100.618V112.627C129.714 113.931 129.401 115.086 128.774 116.093C128.157 117.1 127.281 117.883 126.146 118.442C125.021 119 123.722 119.28 122.249 119.28C120.768 119.28 119.46 119 118.326 118.442C117.201 117.883 116.329 117.1 115.711 116.093C115.093 115.086 114.784 113.931 114.784 112.627V100.618H118.085V112.348C118.085 113.118 118.254 113.804 118.593 114.405C118.94 115.006 119.426 115.48 120.053 115.827C120.688 116.165 121.42 116.334 122.249 116.334C123.078 116.334 123.806 116.165 124.433 115.827C125.059 115.488 125.541 115.018 125.88 114.417C126.218 113.808 126.388 113.118 126.388 112.348V100.618H129.714ZM133.116 100.618H140.022C141.402 100.618 142.574 100.863 143.539 101.354C144.512 101.836 145.249 102.518 145.748 103.398C146.247 104.278 146.497 105.306 146.497 106.483C146.497 107.735 146.214 108.81 145.646 109.707C145.088 110.605 144.267 111.273 143.184 111.713L147.157 119H143.476L139.87 112.272H136.417V119H133.116V100.618ZM139.515 109.504C141.918 109.504 143.12 108.497 143.12 106.483C143.12 105.484 142.824 104.718 142.231 104.185C141.639 103.652 140.733 103.385 139.515 103.385H136.417V109.504H139.515ZM155.511 100.618H162.417C163.797 100.618 164.969 100.863 165.934 101.354C166.907 101.836 167.643 102.518 168.143 103.398C168.642 104.278 168.892 105.306 168.892 106.483C168.892 107.735 168.608 108.81 168.041 109.707C167.482 110.605 166.661 111.273 165.578 111.713L169.552 119H165.87L162.265 112.272H158.812V119H155.511V100.618ZM161.909 109.504C164.313 109.504 165.515 108.497 165.515 106.483C165.515 105.484 165.218 104.718 164.626 104.185C164.034 103.652 163.128 103.385 161.909 103.385H158.812V109.504H161.909ZM171.735 100.618H183.694V103.385H175.036V108.412H183.06V111.18H175.036V116.207H183.745V119H171.735V100.618ZM196.872 105.67C196.796 104.892 196.445 104.282 195.818 103.842C195.201 103.402 194.392 103.182 193.394 103.182C192.716 103.182 192.124 103.284 191.616 103.487C191.108 103.69 190.719 103.973 190.448 104.337C190.177 104.701 190.042 105.112 190.042 105.569C190.042 106.271 190.334 106.817 190.918 107.206C191.502 107.587 192.259 107.888 193.19 108.108L194.917 108.565C196.5 108.929 197.79 109.534 198.789 110.38C199.796 111.218 200.3 112.373 200.3 113.846C200.3 114.921 200.025 115.869 199.475 116.69C198.924 117.511 198.125 118.15 197.075 118.607C196.034 119.055 194.79 119.28 193.343 119.28C191.912 119.28 190.673 119.06 189.623 118.619C188.574 118.171 187.753 117.523 187.16 116.677C186.576 115.822 186.259 114.794 186.208 113.592H189.458C189.534 114.523 189.924 115.234 190.626 115.725C191.337 116.216 192.234 116.461 193.317 116.461C194.037 116.461 194.676 116.351 195.234 116.131C195.793 115.911 196.225 115.602 196.529 115.204C196.842 114.798 196.999 114.337 196.999 113.821C196.999 113.152 196.72 112.632 196.161 112.259C195.611 111.878 194.782 111.544 193.673 111.256L191.591 110.723C188.324 109.868 186.69 108.218 186.69 105.772C186.69 104.705 186.982 103.766 187.566 102.953C188.15 102.133 188.954 101.498 189.979 101.049C191.011 100.592 192.166 100.364 193.444 100.364C194.731 100.364 195.869 100.592 196.859 101.049C197.858 101.498 198.632 102.124 199.183 102.928C199.741 103.732 200.029 104.646 200.046 105.67H196.872ZM202.229 100.618L216.88 100.618V103.385H211.218V119H207.917V103.385L202.229 103.385V100.618Z" fill="#FD4525"/>
<path d="M85.1963 68.6175H92.1025C93.4736 68.6175 94.6458 68.8757 95.6191 69.392C96.5924 69.9082 97.3288 70.6276 97.8281 71.5502C98.3275 72.4642 98.5771 73.5179 98.5771 74.7113C98.5771 75.8962 98.3232 76.9499 97.8154 77.8724C97.3161 78.7865 96.5755 79.5017 95.5938 80.0179C94.612 80.5257 93.4313 80.7796 92.0518 80.7796H88.4971V87.0004H85.1963V68.6175ZM91.5947 78.0629C92.7965 78.0629 93.6979 77.7624 94.2988 77.1615C94.8997 76.5521 95.2002 75.7354 95.2002 74.7113C95.2002 73.6787 94.8997 72.8662 94.2988 72.2738C93.6979 71.6813 92.7965 71.3851 91.5947 71.3851H88.4971V78.0629H91.5947ZM101.243 68.6175H113.202V71.3851H104.544V76.4125H112.567V79.18H104.544V84.2074H113.253V87.0004H101.243V68.6175ZM115.183 87.0004L121.657 68.6175H125.72L132.22 87.0004H128.69L127.154 82.4554H120.235L118.712 87.0004H115.183ZM126.266 79.7894L123.765 72.3754H123.612L121.124 79.7894H126.266ZM145.931 74.8129C145.804 74.0934 145.537 73.4714 145.131 72.9466C144.725 72.4219 144.208 72.0241 143.582 71.7533C142.964 71.474 142.283 71.3343 141.538 71.3343C140.522 71.3343 139.63 71.5882 138.859 72.0961C138.089 72.5954 137.488 73.3317 137.057 74.305C136.625 75.2783 136.409 76.4463 136.409 77.8089C136.409 79.18 136.625 80.3522 137.057 81.3255C137.488 82.2989 138.089 83.0352 138.859 83.5345C139.638 84.0339 140.531 84.2836 141.538 84.2836C142.266 84.2836 142.935 84.1524 143.544 83.89C144.162 83.6192 144.678 83.2298 145.093 82.722C145.507 82.2142 145.787 81.6091 145.931 80.9066H149.257C149.088 82.0915 148.66 83.1664 147.975 84.1312C147.298 85.0961 146.4 85.8578 145.283 86.4164C144.166 86.975 142.901 87.2543 141.487 87.2543C139.871 87.2543 138.424 86.8776 137.146 86.1244C135.876 85.3627 134.882 84.2709 134.162 82.849C133.443 81.4186 133.083 79.7386 133.083 77.8089C133.083 75.8708 133.443 74.1908 134.162 72.7689C134.89 71.347 135.889 70.2595 137.158 69.5062C138.436 68.7445 139.879 68.3636 141.487 68.3636C142.841 68.3636 144.073 68.6218 145.182 69.138C146.29 69.6459 147.2 70.3864 147.911 71.3597C148.622 72.3246 149.071 73.4756 149.257 74.8129H145.931ZM152.101 68.6175H164.06V71.3851H155.401V76.4125H163.425V79.18H155.401V84.2074H164.11V87.0004H152.101V68.6175ZM167.233 68.6175H179.015V71.3851H170.534V76.4125H178.202V79.18H170.534V87.0004H167.233V68.6175ZM196.737 68.6175V80.6273C196.737 81.9307 196.424 83.086 195.798 84.0931C195.18 85.1003 194.304 85.8832 193.17 86.4418C192.044 87.0004 190.745 87.2796 189.272 87.2796C187.791 87.2796 186.484 87.0004 185.35 86.4418C184.224 85.8832 183.352 85.1003 182.734 84.0931C182.117 83.086 181.808 81.9307 181.808 80.6273V68.6175H185.108V80.348C185.108 81.1182 185.278 81.8037 185.616 82.4046C185.963 83.0056 186.45 83.4795 187.076 83.8265C187.711 84.1651 188.443 84.3343 189.272 84.3343C190.102 84.3343 190.83 84.1651 191.456 83.8265C192.082 83.488 192.565 83.0183 192.903 82.4173C193.242 81.808 193.411 81.1182 193.411 80.348V68.6175H196.737ZM200.14 68.6175H203.44V84.2074L211.565 84.2074V87.0004L200.14 87.0004V68.6175Z" fill="#FD4525"/>
<path d="M92.9072 37.0677H107.558V39.8353H101.896V55.4505H98.5947V39.8353H92.9072V37.0677ZM125.737 46.2591C125.737 48.1973 125.373 49.8773 124.646 51.2992C123.918 52.7211 122.915 53.8129 121.637 54.5746C120.367 55.3278 118.924 55.7045 117.308 55.7045C115.691 55.7045 114.244 55.3278 112.966 54.5746C111.696 53.8129 110.698 52.7211 109.97 51.2992C109.242 49.8688 108.878 48.1888 108.878 46.2591C108.878 44.321 109.242 42.641 109.97 41.2191C110.698 39.7972 111.696 38.7097 112.966 37.9564C114.244 37.1947 115.691 36.8138 117.308 36.8138C118.924 36.8138 120.367 37.1947 121.637 37.9564C122.915 38.7097 123.918 39.7972 124.646 41.2191C125.373 42.641 125.737 44.321 125.737 46.2591ZM122.411 46.2591C122.411 44.888 122.195 43.7201 121.764 42.7552C121.34 41.7819 120.744 41.0456 119.974 40.5462C119.203 40.0384 118.315 39.7845 117.308 39.7845C116.3 39.7845 115.412 40.0384 114.642 40.5462C113.871 41.0456 113.271 41.7819 112.839 42.7552C112.416 43.7201 112.204 44.888 112.204 46.2591C112.204 47.6302 112.416 48.8024 112.839 49.7757C113.271 50.7406 113.871 51.4769 114.642 51.9847C115.412 52.4841 116.3 52.7337 117.308 52.7337C118.315 52.7337 119.203 52.4841 119.974 51.9847C120.744 51.4769 121.34 50.7406 121.764 49.7757C122.195 48.8024 122.411 47.6302 122.411 46.2591Z" fill="#FD4525"/>
<path fill-rule="evenodd" clip-rule="evenodd" d="M147.37 54.6408C145.809 54.6408 144.369 54.2687 143.049 53.5244C141.745 52.7635 140.707 51.7132 139.934 50.3734C139.178 49.0171 138.8 47.4953 138.8 45.8082C138.8 44.1211 139.178 42.6076 139.934 41.2678C140.707 39.928 141.745 38.886 143.049 38.1416C144.369 37.3808 145.809 37.0004 147.37 37.0004C148.948 37.0004 150.388 37.3808 151.692 38.1416C153.011 38.886 154.05 39.928 154.806 41.2678C155.562 42.6076 155.941 44.1211 155.941 45.8082C155.941 47.4953 155.562 49.0171 154.806 50.3734C154.05 51.7132 153.011 52.7635 151.692 53.5244C150.388 54.2687 148.948 54.6408 147.37 54.6408ZM147.37 52.1846C148.481 52.1846 149.471 51.9282 150.34 51.4154C151.209 50.8861 151.885 50.1418 152.368 49.1825C152.867 48.2066 153.116 47.0818 153.116 45.8082C153.116 44.5346 152.867 43.4181 152.368 42.4587C151.885 41.4994 151.209 40.7633 150.34 40.2506C149.471 39.7378 148.481 39.4814 147.37 39.4814C146.26 39.4814 145.27 39.7378 144.401 40.2506C143.532 40.7633 142.848 41.4994 142.349 42.4587C141.866 43.4181 141.624 44.5346 141.624 45.8082C141.624 47.0818 141.866 48.2066 142.349 49.1825C142.848 50.1418 143.532 50.8861 144.401 51.4154C145.27 51.9282 146.26 52.1846 147.37 52.1846ZM177.887 41.5642L174.166 54.4667L171.052 54.4667L167.527 41.4162L163.785 54.4667L160.695 54.4915L155.939 37.2232H158.86L162.336 51.2661L166.102 37.2232H169.193L172.693 51.1917L176.194 37.2232H179.139L179.126 37.2679C180.18 40.9692 180.833 43.7841 181.273 46.7309C181.526 45.77 181.808 44.8153 182.127 43.9058C182.742 42.1543 183.521 40.476 184.542 39.2164C185.575 37.9411 186.939 37.0021 188.672 37.0021C190.888 37.0021 192.627 38.0493 193.864 39.5731C195.08 41.0706 195.82 43.0289 196.16 44.9754C196.347 46.0513 196.417 47.1544 196.367 48.2149C196.835 48.5524 197.267 48.978 197.641 49.5025C198.502 50.7099 198.987 52.3467 198.987 54.4299H196.683C196.683 52.8489 196.344 51.7799 195.893 51.0677C195.422 52.5922 194.544 54.0127 193.088 54.6049C191.292 55.3357 189.546 55.0441 188.509 53.8092C187.484 52.588 187.471 50.8113 188.394 49.3024C188.944 48.4031 189.93 47.7918 190.942 47.4631C191.888 47.1559 192.988 47.0496 194.075 47.2485C194.06 46.6403 194 46.0151 193.891 45.3928C193.602 43.7302 192.987 42.1894 192.095 41.0903C191.223 40.0173 190.1 39.3701 188.672 39.3701C187.843 39.3701 187.072 39.7948 186.313 40.7316C185.541 41.6841 184.871 43.0664 184.295 44.7089C183.261 47.6577 182.626 51.142 182.145 53.7848C182.09 54.085 182.038 54.3743 181.987 54.6507L179.705 54.5015C179.398 49.2907 178.969 45.9437 177.887 41.5642ZM193.871 49.6222L193.881 49.6246C193.851 49.7731 193.818 49.9181 193.781 50.059C193.422 51.428 192.826 52.1646 192.24 52.4031C191.091 52.8707 190.482 52.534 190.253 52.2622C190.014 51.9769 189.852 51.3686 190.345 50.5626C190.503 50.3044 190.929 49.9511 191.637 49.7211C192.318 49.4998 193.121 49.442 193.871 49.6222Z" fill="#FD4525" stroke="#FD4525" stroke-width="0.197823"/>
<path d="M192.388 29.4817C190.675 28.755 189.577 28.5444 184.825 27.8647C180.377 27.2285 175.915 26.8173 171.385 26.7503C167.648 26.695 161.252 27.5014 157.502 28.2705C154.906 28.803 149.997 30.7542 148.1 31.8499C145.352 33.4375 142.271 34.8216 140.552 37.1634C138.877 39.4465 137.815 41.9245 136.733 44.3906C135.845 46.4168 135.489 48.1117 136.256 50.2332C137.366 53.3041 139.39 56.6651 142.148 59.1041C144.286 60.995 147.867 62.0199 151.024 62.47C158.603 63.5508 166.542 63.849 174.234 63.956C176.636 63.9894 179.15 64.0778 181.544 63.8435C183.872 63.6155 185.462 62.7157 187.331 61.7271C191.091 59.7386 195.647 58.2015 198.788 55.6255C201.772 53.178 202.982 49.7336 203.457 46.507C203.859 43.7771 204.117 40.3971 202.994 37.7488C201.526 34.286 196.286 32.1182 192.388 30.544C187.689 28.6457 182.668 26.4344 177.382 25.6245C172.971 24.9487 168.07 24.8673 163.584 25.163C159.787 25.4132 155.995 26.185 152.456 27.2343C148.016 28.5505 142.79 29.6315 139.001 31.8836C133.158 35.3563 127.946 39.5478 128.917 45.5839C129.833 51.2811 137.399 54.6485 143.356 57.2916C148.16 59.4229 152.803 60.3484 158.273 60.6351C164.179 60.9446 170.166 61.1192 176.084 61.1192C178.651 61.1192 181.238 60.7741 183.796 60.6351C187.152 60.4527 192.346 61.0036 195.267 59.4756C197.032 58.5523 198.645 57.2694 200.309 56.2334C200.759 55.9535 201.047 55.437 201.502 55.2653" stroke="#FD4525" stroke-width="1.22571" stroke-linecap="round"/>
<path d="M93 95.0004C101.238 94.5552 109.287 92.6138 117.579 92.4804C123.255 92.389 128.885 91.6641 134.54 91.2515C143.441 90.6019 152.375 90.3871 161.29 89.9759C181.703 89.0344 203.252 88.0004 223 88.0004" stroke="#FD4525" stroke-width="1.22571" stroke-linecap="round"/>
<path d="M149 95.0004C157.822 93.8286 166.784 93.7464 175.625 93.2951C185.408 92.7958 195.213 93.082 205 93.082" stroke="#FD4525" stroke-width="1.22571" stroke-linecap="round"/>
</svg>
