<svg width="300" height="150" viewBox="0 0 300 150" fill="none" xmlns="http://www.w3.org/2000/svg">
<path d="M101.48 58.04L96.76 67.14V72H93.96V67.14L89.22 58.04H92.38L95.38 64.42L98.36 58.04H101.48ZM109.575 72.14C108.268 72.14 107.068 71.8333 105.975 71.22C104.882 70.6067 104.015 69.76 103.375 68.68C102.735 67.5867 102.415 66.3533 102.415 64.98C102.415 63.62 102.735 62.4 103.375 61.32C104.015 60.2267 104.882 59.3733 105.975 58.76C107.068 58.1467 108.268 57.84 109.575 57.84C110.895 57.84 112.095 58.1467 113.175 58.76C114.268 59.3733 115.128 60.2267 115.755 61.32C116.395 62.4 116.715 63.62 116.715 64.98C116.715 66.3533 116.395 67.5867 115.755 68.68C115.128 69.76 114.268 70.6067 113.175 71.22C112.082 71.8333 110.882 72.14 109.575 72.14ZM109.575 69.64C110.415 69.64 111.155 69.4533 111.795 69.08C112.435 68.6933 112.935 68.1467 113.295 67.44C113.655 66.7333 113.835 65.9133 113.835 64.98C113.835 64.0467 113.655 63.2333 113.295 62.54C112.935 61.8333 112.435 61.2933 111.795 60.92C111.155 60.5467 110.415 60.36 109.575 60.36C108.735 60.36 107.988 60.5467 107.335 60.92C106.695 61.2933 106.195 61.8333 105.835 62.54C105.475 63.2333 105.295 64.0467 105.295 64.98C105.295 65.9133 105.475 66.7333 105.835 67.44C106.195 68.1467 106.695 68.6933 107.335 69.08C107.988 69.4533 108.735 69.64 109.575 69.64ZM121.558 58.04V66.68C121.558 67.6267 121.805 68.3533 122.298 68.86C122.791 69.3533 123.485 69.6 124.378 69.6C125.285 69.6 125.985 69.3533 126.478 68.86C126.971 68.3533 127.218 67.6267 127.218 66.68V58.04H130.038V66.66C130.038 67.8467 129.778 68.8533 129.258 69.68C128.751 70.4933 128.065 71.1067 127.198 71.52C126.345 71.9333 125.391 72.14 124.338 72.14C123.298 72.14 122.351 71.9333 121.498 71.52C120.658 71.1067 119.991 70.4933 119.498 69.68C119.005 68.8533 118.758 67.8467 118.758 66.66V58.04H121.558ZM136.829 65C136.829 63.6267 137.136 62.4 137.749 61.32C138.376 60.2267 139.222 59.38 140.289 58.78C141.369 58.1667 142.576 57.86 143.909 57.86C145.469 57.86 146.836 58.26 148.009 59.06C149.182 59.86 150.002 60.9667 150.469 62.38H147.249C146.929 61.7133 146.476 61.2133 145.889 60.88C145.316 60.5467 144.649 60.38 143.889 60.38C143.076 60.38 142.349 60.5733 141.709 60.96C141.082 61.3333 140.589 61.8667 140.229 62.56C139.882 63.2533 139.709 64.0667 139.709 65C139.709 65.92 139.882 66.7333 140.229 67.44C140.589 68.1333 141.082 68.6733 141.709 69.06C142.349 69.4333 143.076 69.62 143.889 69.62C144.649 69.62 145.316 69.4533 145.889 69.12C146.476 68.7733 146.929 68.2667 147.249 67.6H150.469C150.002 69.0267 149.182 70.14 148.009 70.94C146.849 71.7267 145.482 72.12 143.909 72.12C142.576 72.12 141.369 71.82 140.289 71.22C139.222 70.6067 138.376 69.76 137.749 68.68C137.136 67.6 136.829 66.3733 136.829 65ZM161.42 69.34H155.86L154.94 72H152L157.02 58.02H160.28L165.3 72H162.34L161.42 69.34ZM160.66 67.1L158.64 61.26L156.62 67.1H160.66ZM179.117 72H176.317L169.977 62.42V72H167.177V58.02H169.977L176.317 67.62V58.02H179.117V72ZM96.86 93.14C95.5533 93.14 94.3533 92.8333 93.26 92.22C92.1667 91.6067 91.3 90.76 90.66 89.68C90.02 88.5867 89.7 87.3533 89.7 85.98C89.7 84.62 90.02 83.4 90.66 82.32C91.3 81.2267 92.1667 80.3733 93.26 79.76C94.3533 79.1467 95.5533 78.84 96.86 78.84C98.18 78.84 99.38 79.1467 100.46 79.76C101.553 80.3733 102.413 81.2267 103.04 82.32C103.68 83.4 104 84.62 104 85.98C104 87.3533 103.68 88.5867 103.04 89.68C102.413 90.76 101.553 91.6067 100.46 92.22C99.3667 92.8333 98.1667 93.14 96.86 93.14ZM96.86 90.64C97.7 90.64 98.44 90.4533 99.08 90.08C99.72 89.6933 100.22 89.1467 100.58 88.44C100.94 87.7333 101.12 86.9133 101.12 85.98C101.12 85.0467 100.94 84.2333 100.58 83.54C100.22 82.8333 99.72 82.2933 99.08 81.92C98.44 81.5467 97.7 81.36 96.86 81.36C96.02 81.36 95.2733 81.5467 94.62 81.92C93.98 82.2933 93.48 82.8333 93.12 83.54C92.76 84.2333 92.58 85.0467 92.58 85.98C92.58 86.9133 92.76 87.7333 93.12 88.44C93.48 89.1467 93.98 89.6933 94.62 90.08C95.2733 90.4533 96.02 90.64 96.86 90.64ZM124.743 79.04L120.843 93H117.543L114.923 83.06L112.183 93L108.903 93.02L105.143 79.04H108.143L110.603 89.88L113.443 79.04H116.563L119.243 89.82L121.723 79.04H124.743ZM138.511 93H135.711L129.371 83.42V93H126.571V79.02H129.371L135.711 88.62V79.02H138.511V93ZM154.604 90.34H149.044L148.124 93H145.184L150.204 79.02H153.464L158.484 93H155.524L154.604 90.34ZM153.844 88.1L151.824 82.26L149.804 88.1H153.844ZM172.326 93L169.246 87.56H167.926V93H165.126V79.04H170.366C171.446 79.04 172.366 79.2333 173.126 79.62C173.886 79.9933 174.453 80.5067 174.826 81.16C175.213 81.8 175.406 82.52 175.406 83.32C175.406 84.24 175.139 85.0733 174.606 85.82C174.073 86.5533 173.279 87.06 172.226 87.34L175.566 93H172.326ZM167.926 85.46H170.266C171.026 85.46 171.593 85.28 171.966 84.92C172.339 84.5467 172.526 84.0333 172.526 83.38C172.526 82.74 172.339 82.2467 171.966 81.9C171.593 81.54 171.026 81.36 170.266 81.36H167.926V85.46ZM180.739 81.3V84.8H185.439V87.02H180.739V90.72H186.039V93H177.939V79.02H186.039V81.3H180.739ZM193.403 93.14C192.43 93.14 191.55 92.9733 190.763 92.64C189.99 92.3067 189.376 91.8267 188.923 91.2C188.47 90.5733 188.236 89.8333 188.223 88.98H191.223C191.263 89.5533 191.463 90.0067 191.823 90.34C192.196 90.6733 192.703 90.84 193.343 90.84C193.996 90.84 194.51 90.6867 194.883 90.38C195.256 90.06 195.443 89.6467 195.443 89.14C195.443 88.7267 195.316 88.3867 195.063 88.12C194.81 87.8533 194.49 87.6467 194.103 87.5C193.73 87.34 193.21 87.1667 192.543 86.98C191.636 86.7133 190.896 86.4533 190.323 86.2C189.763 85.9333 189.276 85.54 188.863 85.02C188.463 84.4867 188.263 83.78 188.263 82.9C188.263 82.0733 188.47 81.3533 188.883 80.74C189.296 80.1267 189.876 79.66 190.623 79.34C191.37 79.0067 192.223 78.84 193.183 78.84C194.623 78.84 195.79 79.1933 196.683 79.9C197.59 80.5933 198.09 81.5667 198.183 82.82H195.103C195.076 82.34 194.87 81.9467 194.483 81.64C194.11 81.32 193.61 81.16 192.983 81.16C192.436 81.16 191.996 81.3 191.663 81.58C191.343 81.86 191.183 82.2667 191.183 82.8C191.183 83.1733 191.303 83.4867 191.543 83.74C191.796 83.98 192.103 84.18 192.463 84.34C192.836 84.4867 193.356 84.66 194.023 84.86C194.93 85.1267 195.67 85.3933 196.243 85.66C196.816 85.9267 197.31 86.3267 197.723 86.86C198.136 87.3933 198.343 88.0933 198.343 88.96C198.343 89.7067 198.15 90.4 197.763 91.04C197.376 91.68 196.81 92.1933 196.063 92.58C195.316 92.9533 194.43 93.14 193.403 93.14ZM210.271 79.04V81.3H206.551V93H203.751V81.3H200.031V79.04H210.271Z" fill="#FD4525"/>
</svg>
