<svg width="300" height="150" viewBox="0 0 300 150" fill="none" xmlns="http://www.w3.org/2000/svg">
<mask id="path-1-outside-1_686_343" maskUnits="userSpaceOnUse" x="38" y="57" width="224" height="37" fill="black">
<rect fill="white" x="38" y="57" width="224" height="37"/>
<path d="M63.6334 72.14C62.3268 72.14 61.1268 71.8333 60.0334 71.22C58.9401 70.6067 58.0734 69.76 57.4334 68.68C56.7934 67.5867 56.4734 66.3533 56.4734 64.98C56.4734 63.62 56.7934 62.4 57.4334 61.32C58.0734 60.2267 58.9401 59.3733 60.0334 58.76C61.1268 58.1467 62.3268 57.84 63.6334 57.84C64.9534 57.84 66.1534 58.1467 67.2334 58.76C68.3268 59.3733 69.1868 60.2267 69.8134 61.32C70.4534 62.4 70.7734 63.62 70.7734 64.98C70.7734 66.3533 70.4534 67.5867 69.8134 68.68C69.1868 69.76 68.3268 70.6067 67.2334 71.22C66.1401 71.8333 64.9401 72.14 63.6334 72.14ZM63.6334 69.64C64.4734 69.64 65.2134 69.4533 65.8534 69.08C66.4934 68.6933 66.9934 68.1467 67.3534 67.44C67.7134 66.7333 67.8934 65.9133 67.8934 64.98C67.8934 64.0467 67.7134 63.2333 67.3534 62.54C66.9934 61.8333 66.4934 61.2933 65.8534 60.92C65.2134 60.5467 64.4734 60.36 63.6334 60.36C62.7934 60.36 62.0468 60.5467 61.3934 60.92C60.7534 61.2933 60.2534 61.8333 59.8934 62.54C59.5334 63.2333 59.3534 64.0467 59.3534 64.98C59.3534 65.9133 59.5334 66.7333 59.8934 67.44C60.2534 68.1467 60.7534 68.6933 61.3934 69.08C62.0468 69.4533 62.7934 69.64 63.6334 69.64ZM91.5166 58.04L87.6166 72H84.3166L81.6966 62.06L78.9566 72L75.6766 72.02L71.9166 58.04H74.9166L77.3766 68.88L80.2166 58.04H83.3366L86.0166 68.82L88.4966 58.04H91.5166ZM105.285 72H102.485L96.1448 62.42V72H93.3448V58.02H96.1448L102.485 67.62V58.02H105.285V72ZM124.398 58.04V72H121.598V66.06H115.618V72H112.818V58.04H115.618V63.78H121.598V58.04H124.398ZM129.953 60.3V63.8H134.653V66.02H129.953V69.72H135.253V72H127.153V58.02H135.253V60.3H129.953ZM140.598 69.78H145.198V72H137.798V58.04H140.598V69.78ZM157.158 62.36C157.158 63.1067 156.978 63.8067 156.618 64.46C156.271 65.1133 155.718 65.64 154.958 66.04C154.211 66.44 153.264 66.64 152.118 66.64H149.778V72H146.978V58.04H152.118C153.198 58.04 154.118 58.2267 154.878 58.6C155.638 58.9733 156.204 59.4867 156.578 60.14C156.964 60.7933 157.158 61.5333 157.158 62.36ZM151.998 64.38C152.771 64.38 153.344 64.2067 153.718 63.86C154.091 63.5 154.278 63 154.278 62.36C154.278 61 153.518 60.32 151.998 60.32H149.778V64.38H151.998ZM163.966 72.14C162.992 72.14 162.112 71.9733 161.326 71.64C160.552 71.3067 159.939 70.8267 159.486 70.2C159.032 69.5733 158.799 68.8333 158.786 67.98H161.786C161.826 68.5533 162.026 69.0067 162.386 69.34C162.759 69.6733 163.266 69.84 163.906 69.84C164.559 69.84 165.072 69.6867 165.446 69.38C165.819 69.06 166.006 68.6467 166.006 68.14C166.006 67.7267 165.879 67.3867 165.626 67.12C165.372 66.8533 165.052 66.6467 164.666 66.5C164.292 66.34 163.772 66.1667 163.106 65.98C162.199 65.7133 161.459 65.4533 160.886 65.2C160.326 64.9333 159.839 64.54 159.426 64.02C159.026 63.4867 158.826 62.78 158.826 61.9C158.826 61.0733 159.032 60.3533 159.446 59.74C159.859 59.1267 160.439 58.66 161.186 58.34C161.932 58.0067 162.786 57.84 163.746 57.84C165.186 57.84 166.352 58.1933 167.246 58.9C168.152 59.5933 168.652 60.5667 168.746 61.82H165.666C165.639 61.34 165.432 60.9467 165.046 60.64C164.672 60.32 164.172 60.16 163.546 60.16C162.999 60.16 162.559 60.3 162.226 60.58C161.906 60.86 161.746 61.2667 161.746 61.8C161.746 62.1733 161.866 62.4867 162.106 62.74C162.359 62.98 162.666 63.18 163.026 63.34C163.399 63.4867 163.919 63.66 164.586 63.86C165.492 64.1267 166.232 64.3933 166.806 64.66C167.379 64.9267 167.872 65.3267 168.286 65.86C168.699 66.3933 168.906 67.0933 168.906 67.96C168.906 68.7067 168.712 69.4 168.326 70.04C167.939 70.68 167.372 71.1933 166.626 71.58C165.879 71.9533 164.992 72.14 163.966 72.14ZM186.279 62.36C186.279 63.1067 186.099 63.8067 185.739 64.46C185.392 65.1133 184.839 65.64 184.079 66.04C183.332 66.44 182.385 66.64 181.239 66.64H178.899V72H176.099V58.04H181.239C182.319 58.04 183.239 58.2267 183.999 58.6C184.759 58.9733 185.325 59.4867 185.699 60.14C186.085 60.7933 186.279 61.5333 186.279 62.36ZM181.119 64.38C181.892 64.38 182.465 64.2067 182.839 63.86C183.212 63.5 183.399 63 183.399 62.36C183.399 61 182.639 60.32 181.119 60.32H178.899V64.38H181.119ZM191.067 60.3V63.8H195.767V66.02H191.067V69.72H196.367V72H188.267V58.02H196.367V60.3H191.067ZM205.391 72.14C204.085 72.14 202.885 71.8333 201.791 71.22C200.698 70.6067 199.831 69.76 199.191 68.68C198.551 67.5867 198.231 66.3533 198.231 64.98C198.231 63.62 198.551 62.4 199.191 61.32C199.831 60.2267 200.698 59.3733 201.791 58.76C202.885 58.1467 204.085 57.84 205.391 57.84C206.711 57.84 207.911 58.1467 208.991 58.76C210.085 59.3733 210.945 60.2267 211.571 61.32C212.211 62.4 212.531 63.62 212.531 64.98C212.531 66.3533 212.211 67.5867 211.571 68.68C210.945 69.76 210.085 70.6067 208.991 71.22C207.898 71.8333 206.698 72.14 205.391 72.14ZM205.391 69.64C206.231 69.64 206.971 69.4533 207.611 69.08C208.251 68.6933 208.751 68.1467 209.111 67.44C209.471 66.7333 209.651 65.9133 209.651 64.98C209.651 64.0467 209.471 63.2333 209.111 62.54C208.751 61.8333 208.251 61.2933 207.611 60.92C206.971 60.5467 206.231 60.36 205.391 60.36C204.551 60.36 203.805 60.5467 203.151 60.92C202.511 61.2933 202.011 61.8333 201.651 62.54C201.291 63.2333 201.111 64.0467 201.111 64.98C201.111 65.9133 201.291 66.7333 201.651 67.44C202.011 68.1467 202.511 68.6933 203.151 69.08C203.805 69.4533 204.551 69.64 205.391 69.64ZM224.794 62.36C224.794 63.1067 224.614 63.8067 224.254 64.46C223.908 65.1133 223.354 65.64 222.594 66.04C221.848 66.44 220.901 66.64 219.754 66.64H217.414V72H214.614V58.04H219.754C220.834 58.04 221.754 58.2267 222.514 58.6C223.274 58.9733 223.841 59.4867 224.214 60.14C224.601 60.7933 224.794 61.5333 224.794 62.36ZM219.634 64.38C220.408 64.38 220.981 64.2067 221.354 63.86C221.728 63.5 221.914 63 221.914 62.36C221.914 61 221.154 60.32 219.634 60.32H217.414V64.38H219.634ZM229.582 69.78H234.182V72H226.782V58.04H229.582V69.78ZM238.762 60.3V63.8H243.462V66.02H238.762V69.72H244.062V72H235.962V58.02H244.062V60.3H238.762ZM58.2548 79.04L54.3548 93H51.0548L48.4348 83.06L45.6948 93L42.4148 93.02L38.6548 79.04H41.6548L44.1148 89.88L46.9548 79.04H50.0748L52.7548 89.82L55.2348 79.04H58.2548ZM71.6631 79.04V93H68.8631V87.06H62.8831V93H60.0831V79.04H62.8831V84.78H68.8631V79.04H71.6631ZM80.8991 93.14C79.5924 93.14 78.3924 92.8333 77.2991 92.22C76.2057 91.6067 75.3391 90.76 74.6991 89.68C74.0591 88.5867 73.7391 87.3533 73.7391 85.98C73.7391 84.62 74.0591 83.4 74.6991 82.32C75.3391 81.2267 76.2057 80.3733 77.2991 79.76C78.3924 79.1467 79.5924 78.84 80.8991 78.84C82.2191 78.84 83.4191 79.1467 84.4991 79.76C85.5924 80.3733 86.4524 81.2267 87.0791 82.32C87.7191 83.4 88.0391 84.62 88.0391 85.98C88.0391 87.3533 87.7191 88.5867 87.0791 89.68C86.4524 90.76 85.5924 91.6067 84.4991 92.22C83.4057 92.8333 82.2057 93.14 80.8991 93.14ZM80.8991 90.64C81.7391 90.64 82.4791 90.4533 83.1191 90.08C83.7591 89.6933 84.2591 89.1467 84.6191 88.44C84.9791 87.7333 85.1591 86.9133 85.1591 85.98C85.1591 85.0467 84.9791 84.2333 84.6191 83.54C84.2591 82.8333 83.7591 82.2933 83.1191 81.92C82.4791 81.5467 81.7391 81.36 80.8991 81.36C80.0591 81.36 79.3124 81.5467 78.6591 81.92C78.0191 82.2933 77.5191 82.8333 77.1591 83.54C76.7991 84.2333 76.6191 85.0467 76.6191 85.98C76.6191 86.9133 76.7991 87.7333 77.1591 88.44C77.5191 89.1467 78.0191 89.6933 78.6591 90.08C79.3124 90.4533 80.0591 90.64 80.8991 90.64ZM103.448 90.34H97.8878L96.9678 93H94.0278L99.0478 79.02H102.308L107.328 93H104.368L103.448 90.34ZM102.688 88.1L100.668 82.26L98.6478 88.1H102.688ZM116.404 93L113.324 87.56H112.004V93H109.204V79.04H114.444C115.524 79.04 116.444 79.2333 117.204 79.62C117.964 79.9933 118.531 80.5067 118.904 81.16C119.291 81.8 119.484 82.52 119.484 83.32C119.484 84.24 119.218 85.0733 118.684 85.82C118.151 86.5533 117.358 87.06 116.304 87.34L119.644 93H116.404ZM112.004 85.46H114.344C115.104 85.46 115.671 85.28 116.044 84.92C116.418 84.5467 116.604 84.0333 116.604 83.38C116.604 82.74 116.418 82.2467 116.044 81.9C115.671 81.54 115.104 81.36 114.344 81.36H112.004V85.46ZM124.817 81.3V84.8H129.517V87.02H124.817V90.72H130.117V93H122.017V79.02H130.117V81.3H124.817ZM146.927 79.04V81.3H143.207V93H140.407V81.3H136.687V79.04H146.927ZM151.77 79.04V93H148.97V79.04H151.77ZM161.736 93L158.656 87.56H157.336V93H154.536V79.04H159.776C160.856 79.04 161.776 79.2333 162.536 79.62C163.296 79.9933 163.863 80.5067 164.236 81.16C164.623 81.8 164.816 82.52 164.816 83.32C164.816 84.24 164.55 85.0733 164.016 85.82C163.483 86.5533 162.69 87.06 161.636 87.34L164.976 93H161.736ZM157.336 85.46H159.676C160.436 85.46 161.003 85.28 161.376 84.92C161.75 84.5467 161.936 84.0333 161.936 83.38C161.936 82.74 161.75 82.2467 161.376 81.9C161.003 81.54 160.436 81.36 159.676 81.36H157.336V85.46ZM170.149 81.3V84.8H174.849V87.02H170.149V90.72H175.449V93H167.349V79.02H175.449V81.3H170.149ZM182.873 79.04C184.34 79.04 185.627 79.3267 186.733 79.9C187.853 80.4733 188.713 81.2933 189.313 82.36C189.927 83.4133 190.233 84.64 190.233 86.04C190.233 87.44 189.927 88.6667 189.313 89.72C188.713 90.76 187.853 91.5667 186.733 92.14C185.627 92.7133 184.34 93 182.873 93H177.993V79.04H182.873ZM182.773 90.62C184.24 90.62 185.373 90.22 186.173 89.42C186.973 88.62 187.373 87.4933 187.373 86.04C187.373 84.5867 186.973 83.4533 186.173 82.64C185.373 81.8133 184.24 81.4 182.773 81.4H180.793V90.62H182.773ZM203.575 93.14C202.268 93.14 201.068 92.8333 199.975 92.22C198.882 91.6067 198.015 90.76 197.375 89.68C196.735 88.5867 196.415 87.3533 196.415 85.98C196.415 84.62 196.735 83.4 197.375 82.32C198.015 81.2267 198.882 80.3733 199.975 79.76C201.068 79.1467 202.268 78.84 203.575 78.84C204.895 78.84 206.095 79.1467 207.175 79.76C208.268 80.3733 209.128 81.2267 209.755 82.32C210.395 83.4 210.715 84.62 210.715 85.98C210.715 87.3533 210.395 88.5867 209.755 89.68C209.128 90.76 208.268 91.6067 207.175 92.22C206.082 92.8333 204.882 93.14 203.575 93.14ZM203.575 90.64C204.415 90.64 205.155 90.4533 205.795 90.08C206.435 89.6933 206.935 89.1467 207.295 88.44C207.655 87.7333 207.835 86.9133 207.835 85.98C207.835 85.0467 207.655 84.2333 207.295 83.54C206.935 82.8333 206.435 82.2933 205.795 81.92C205.155 81.5467 204.415 81.36 203.575 81.36C202.735 81.36 201.988 81.5467 201.335 81.92C200.695 82.2933 200.195 82.8333 199.835 83.54C199.475 84.2333 199.295 85.0467 199.295 85.98C199.295 86.9133 199.475 87.7333 199.835 88.44C200.195 89.1467 200.695 89.6933 201.335 90.08C201.988 90.4533 202.735 90.64 203.575 90.64ZM221.418 79.04V81.3H215.598V84.88H220.058V87.1H215.598V93H212.798V79.04H221.418ZM230.969 90.78H235.569V93H228.169V79.04H230.969V90.78ZM240.149 79.04V93H237.349V79.04H240.149ZM251.535 79.04V81.3H245.715V84.88H250.175V87.1H245.715V93H242.915V79.04H251.535ZM256.321 81.3V84.8H261.021V87.02H256.321V90.72H261.621V93H253.521V79.02H261.621V81.3H256.321Z"/>
</mask>
<path d="M63.6334 72.14C62.3268 72.14 61.1268 71.8333 60.0334 71.22C58.9401 70.6067 58.0734 69.76 57.4334 68.68C56.7934 67.5867 56.4734 66.3533 56.4734 64.98C56.4734 63.62 56.7934 62.4 57.4334 61.32C58.0734 60.2267 58.9401 59.3733 60.0334 58.76C61.1268 58.1467 62.3268 57.84 63.6334 57.84C64.9534 57.84 66.1534 58.1467 67.2334 58.76C68.3268 59.3733 69.1868 60.2267 69.8134 61.32C70.4534 62.4 70.7734 63.62 70.7734 64.98C70.7734 66.3533 70.4534 67.5867 69.8134 68.68C69.1868 69.76 68.3268 70.6067 67.2334 71.22C66.1401 71.8333 64.9401 72.14 63.6334 72.14ZM63.6334 69.64C64.4734 69.64 65.2134 69.4533 65.8534 69.08C66.4934 68.6933 66.9934 68.1467 67.3534 67.44C67.7134 66.7333 67.8934 65.9133 67.8934 64.98C67.8934 64.0467 67.7134 63.2333 67.3534 62.54C66.9934 61.8333 66.4934 61.2933 65.8534 60.92C65.2134 60.5467 64.4734 60.36 63.6334 60.36C62.7934 60.36 62.0468 60.5467 61.3934 60.92C60.7534 61.2933 60.2534 61.8333 59.8934 62.54C59.5334 63.2333 59.3534 64.0467 59.3534 64.98C59.3534 65.9133 59.5334 66.7333 59.8934 67.44C60.2534 68.1467 60.7534 68.6933 61.3934 69.08C62.0468 69.4533 62.7934 69.64 63.6334 69.64ZM91.5166 58.04L87.6166 72H84.3166L81.6966 62.06L78.9566 72L75.6766 72.02L71.9166 58.04H74.9166L77.3766 68.88L80.2166 58.04H83.3366L86.0166 68.82L88.4966 58.04H91.5166ZM105.285 72H102.485L96.1448 62.42V72H93.3448V58.02H96.1448L102.485 67.62V58.02H105.285V72ZM124.398 58.04V72H121.598V66.06H115.618V72H112.818V58.04H115.618V63.78H121.598V58.04H124.398ZM129.953 60.3V63.8H134.653V66.02H129.953V69.72H135.253V72H127.153V58.02H135.253V60.3H129.953ZM140.598 69.78H145.198V72H137.798V58.04H140.598V69.78ZM157.158 62.36C157.158 63.1067 156.978 63.8067 156.618 64.46C156.271 65.1133 155.718 65.64 154.958 66.04C154.211 66.44 153.264 66.64 152.118 66.64H149.778V72H146.978V58.04H152.118C153.198 58.04 154.118 58.2267 154.878 58.6C155.638 58.9733 156.204 59.4867 156.578 60.14C156.964 60.7933 157.158 61.5333 157.158 62.36ZM151.998 64.38C152.771 64.38 153.344 64.2067 153.718 63.86C154.091 63.5 154.278 63 154.278 62.36C154.278 61 153.518 60.32 151.998 60.32H149.778V64.38H151.998ZM163.966 72.14C162.992 72.14 162.112 71.9733 161.326 71.64C160.552 71.3067 159.939 70.8267 159.486 70.2C159.032 69.5733 158.799 68.8333 158.786 67.98H161.786C161.826 68.5533 162.026 69.0067 162.386 69.34C162.759 69.6733 163.266 69.84 163.906 69.84C164.559 69.84 165.072 69.6867 165.446 69.38C165.819 69.06 166.006 68.6467 166.006 68.14C166.006 67.7267 165.879 67.3867 165.626 67.12C165.372 66.8533 165.052 66.6467 164.666 66.5C164.292 66.34 163.772 66.1667 163.106 65.98C162.199 65.7133 161.459 65.4533 160.886 65.2C160.326 64.9333 159.839 64.54 159.426 64.02C159.026 63.4867 158.826 62.78 158.826 61.9C158.826 61.0733 159.032 60.3533 159.446 59.74C159.859 59.1267 160.439 58.66 161.186 58.34C161.932 58.0067 162.786 57.84 163.746 57.84C165.186 57.84 166.352 58.1933 167.246 58.9C168.152 59.5933 168.652 60.5667 168.746 61.82H165.666C165.639 61.34 165.432 60.9467 165.046 60.64C164.672 60.32 164.172 60.16 163.546 60.16C162.999 60.16 162.559 60.3 162.226 60.58C161.906 60.86 161.746 61.2667 161.746 61.8C161.746 62.1733 161.866 62.4867 162.106 62.74C162.359 62.98 162.666 63.18 163.026 63.34C163.399 63.4867 163.919 63.66 164.586 63.86C165.492 64.1267 166.232 64.3933 166.806 64.66C167.379 64.9267 167.872 65.3267 168.286 65.86C168.699 66.3933 168.906 67.0933 168.906 67.96C168.906 68.7067 168.712 69.4 168.326 70.04C167.939 70.68 167.372 71.1933 166.626 71.58C165.879 71.9533 164.992 72.14 163.966 72.14ZM186.279 62.36C186.279 63.1067 186.099 63.8067 185.739 64.46C185.392 65.1133 184.839 65.64 184.079 66.04C183.332 66.44 182.385 66.64 181.239 66.64H178.899V72H176.099V58.04H181.239C182.319 58.04 183.239 58.2267 183.999 58.6C184.759 58.9733 185.325 59.4867 185.699 60.14C186.085 60.7933 186.279 61.5333 186.279 62.36ZM181.119 64.38C181.892 64.38 182.465 64.2067 182.839 63.86C183.212 63.5 183.399 63 183.399 62.36C183.399 61 182.639 60.32 181.119 60.32H178.899V64.38H181.119ZM191.067 60.3V63.8H195.767V66.02H191.067V69.72H196.367V72H188.267V58.02H196.367V60.3H191.067ZM205.391 72.14C204.085 72.14 202.885 71.8333 201.791 71.22C200.698 70.6067 199.831 69.76 199.191 68.68C198.551 67.5867 198.231 66.3533 198.231 64.98C198.231 63.62 198.551 62.4 199.191 61.32C199.831 60.2267 200.698 59.3733 201.791 58.76C202.885 58.1467 204.085 57.84 205.391 57.84C206.711 57.84 207.911 58.1467 208.991 58.76C210.085 59.3733 210.945 60.2267 211.571 61.32C212.211 62.4 212.531 63.62 212.531 64.98C212.531 66.3533 212.211 67.5867 211.571 68.68C210.945 69.76 210.085 70.6067 208.991 71.22C207.898 71.8333 206.698 72.14 205.391 72.14ZM205.391 69.64C206.231 69.64 206.971 69.4533 207.611 69.08C208.251 68.6933 208.751 68.1467 209.111 67.44C209.471 66.7333 209.651 65.9133 209.651 64.98C209.651 64.0467 209.471 63.2333 209.111 62.54C208.751 61.8333 208.251 61.2933 207.611 60.92C206.971 60.5467 206.231 60.36 205.391 60.36C204.551 60.36 203.805 60.5467 203.151 60.92C202.511 61.2933 202.011 61.8333 201.651 62.54C201.291 63.2333 201.111 64.0467 201.111 64.98C201.111 65.9133 201.291 66.7333 201.651 67.44C202.011 68.1467 202.511 68.6933 203.151 69.08C203.805 69.4533 204.551 69.64 205.391 69.64ZM224.794 62.36C224.794 63.1067 224.614 63.8067 224.254 64.46C223.908 65.1133 223.354 65.64 222.594 66.04C221.848 66.44 220.901 66.64 219.754 66.64H217.414V72H214.614V58.04H219.754C220.834 58.04 221.754 58.2267 222.514 58.6C223.274 58.9733 223.841 59.4867 224.214 60.14C224.601 60.7933 224.794 61.5333 224.794 62.36ZM219.634 64.38C220.408 64.38 220.981 64.2067 221.354 63.86C221.728 63.5 221.914 63 221.914 62.36C221.914 61 221.154 60.32 219.634 60.32H217.414V64.38H219.634ZM229.582 69.78H234.182V72H226.782V58.04H229.582V69.78ZM238.762 60.3V63.8H243.462V66.02H238.762V69.72H244.062V72H235.962V58.02H244.062V60.3H238.762ZM58.2548 79.04L54.3548 93H51.0548L48.4348 83.06L45.6948 93L42.4148 93.02L38.6548 79.04H41.6548L44.1148 89.88L46.9548 79.04H50.0748L52.7548 89.82L55.2348 79.04H58.2548ZM71.6631 79.04V93H68.8631V87.06H62.8831V93H60.0831V79.04H62.8831V84.78H68.8631V79.04H71.6631ZM80.8991 93.14C79.5924 93.14 78.3924 92.8333 77.2991 92.22C76.2057 91.6067 75.3391 90.76 74.6991 89.68C74.0591 88.5867 73.7391 87.3533 73.7391 85.98C73.7391 84.62 74.0591 83.4 74.6991 82.32C75.3391 81.2267 76.2057 80.3733 77.2991 79.76C78.3924 79.1467 79.5924 78.84 80.8991 78.84C82.2191 78.84 83.4191 79.1467 84.4991 79.76C85.5924 80.3733 86.4524 81.2267 87.0791 82.32C87.7191 83.4 88.0391 84.62 88.0391 85.98C88.0391 87.3533 87.7191 88.5867 87.0791 89.68C86.4524 90.76 85.5924 91.6067 84.4991 92.22C83.4057 92.8333 82.2057 93.14 80.8991 93.14ZM80.8991 90.64C81.7391 90.64 82.4791 90.4533 83.1191 90.08C83.7591 89.6933 84.2591 89.1467 84.6191 88.44C84.9791 87.7333 85.1591 86.9133 85.1591 85.98C85.1591 85.0467 84.9791 84.2333 84.6191 83.54C84.2591 82.8333 83.7591 82.2933 83.1191 81.92C82.4791 81.5467 81.7391 81.36 80.8991 81.36C80.0591 81.36 79.3124 81.5467 78.6591 81.92C78.0191 82.2933 77.5191 82.8333 77.1591 83.54C76.7991 84.2333 76.6191 85.0467 76.6191 85.98C76.6191 86.9133 76.7991 87.7333 77.1591 88.44C77.5191 89.1467 78.0191 89.6933 78.6591 90.08C79.3124 90.4533 80.0591 90.64 80.8991 90.64ZM103.448 90.34H97.8878L96.9678 93H94.0278L99.0478 79.02H102.308L107.328 93H104.368L103.448 90.34ZM102.688 88.1L100.668 82.26L98.6478 88.1H102.688ZM116.404 93L113.324 87.56H112.004V93H109.204V79.04H114.444C115.524 79.04 116.444 79.2333 117.204 79.62C117.964 79.9933 118.531 80.5067 118.904 81.16C119.291 81.8 119.484 82.52 119.484 83.32C119.484 84.24 119.218 85.0733 118.684 85.82C118.151 86.5533 117.358 87.06 116.304 87.34L119.644 93H116.404ZM112.004 85.46H114.344C115.104 85.46 115.671 85.28 116.044 84.92C116.418 84.5467 116.604 84.0333 116.604 83.38C116.604 82.74 116.418 82.2467 116.044 81.9C115.671 81.54 115.104 81.36 114.344 81.36H112.004V85.46ZM124.817 81.3V84.8H129.517V87.02H124.817V90.72H130.117V93H122.017V79.02H130.117V81.3H124.817ZM146.927 79.04V81.3H143.207V93H140.407V81.3H136.687V79.04H146.927ZM151.77 79.04V93H148.97V79.04H151.77ZM161.736 93L158.656 87.56H157.336V93H154.536V79.04H159.776C160.856 79.04 161.776 79.2333 162.536 79.62C163.296 79.9933 163.863 80.5067 164.236 81.16C164.623 81.8 164.816 82.52 164.816 83.32C164.816 84.24 164.55 85.0733 164.016 85.82C163.483 86.5533 162.69 87.06 161.636 87.34L164.976 93H161.736ZM157.336 85.46H159.676C160.436 85.46 161.003 85.28 161.376 84.92C161.75 84.5467 161.936 84.0333 161.936 83.38C161.936 82.74 161.75 82.2467 161.376 81.9C161.003 81.54 160.436 81.36 159.676 81.36H157.336V85.46ZM170.149 81.3V84.8H174.849V87.02H170.149V90.72H175.449V93H167.349V79.02H175.449V81.3H170.149ZM182.873 79.04C184.34 79.04 185.627 79.3267 186.733 79.9C187.853 80.4733 188.713 81.2933 189.313 82.36C189.927 83.4133 190.233 84.64 190.233 86.04C190.233 87.44 189.927 88.6667 189.313 89.72C188.713 90.76 187.853 91.5667 186.733 92.14C185.627 92.7133 184.34 93 182.873 93H177.993V79.04H182.873ZM182.773 90.62C184.24 90.62 185.373 90.22 186.173 89.42C186.973 88.62 187.373 87.4933 187.373 86.04C187.373 84.5867 186.973 83.4533 186.173 82.64C185.373 81.8133 184.24 81.4 182.773 81.4H180.793V90.62H182.773ZM203.575 93.14C202.268 93.14 201.068 92.8333 199.975 92.22C198.882 91.6067 198.015 90.76 197.375 89.68C196.735 88.5867 196.415 87.3533 196.415 85.98C196.415 84.62 196.735 83.4 197.375 82.32C198.015 81.2267 198.882 80.3733 199.975 79.76C201.068 79.1467 202.268 78.84 203.575 78.84C204.895 78.84 206.095 79.1467 207.175 79.76C208.268 80.3733 209.128 81.2267 209.755 82.32C210.395 83.4 210.715 84.62 210.715 85.98C210.715 87.3533 210.395 88.5867 209.755 89.68C209.128 90.76 208.268 91.6067 207.175 92.22C206.082 92.8333 204.882 93.14 203.575 93.14ZM203.575 90.64C204.415 90.64 205.155 90.4533 205.795 90.08C206.435 89.6933 206.935 89.1467 207.295 88.44C207.655 87.7333 207.835 86.9133 207.835 85.98C207.835 85.0467 207.655 84.2333 207.295 83.54C206.935 82.8333 206.435 82.2933 205.795 81.92C205.155 81.5467 204.415 81.36 203.575 81.36C202.735 81.36 201.988 81.5467 201.335 81.92C200.695 82.2933 200.195 82.8333 199.835 83.54C199.475 84.2333 199.295 85.0467 199.295 85.98C199.295 86.9133 199.475 87.7333 199.835 88.44C200.195 89.1467 200.695 89.6933 201.335 90.08C201.988 90.4533 202.735 90.64 203.575 90.64ZM221.418 79.04V81.3H215.598V84.88H220.058V87.1H215.598V93H212.798V79.04H221.418ZM230.969 90.78H235.569V93H228.169V79.04H230.969V90.78ZM240.149 79.04V93H237.349V79.04H240.149ZM251.535 79.04V81.3H245.715V84.88H250.175V87.1H245.715V93H242.915V79.04H251.535ZM256.321 81.3V84.8H261.021V87.02H256.321V90.72H261.621V93H253.521V79.02H261.621V81.3H256.321Z" fill="#FD4525"/>
<path d="M60.0334 71.22L60.1115 71.0808L60.0334 71.22ZM57.4334 68.68L57.2957 68.7606L57.2961 68.7614L57.4334 68.68ZM57.4334 61.32L57.5708 61.4014L57.5712 61.4006L57.4334 61.32ZM60.0334 58.76L59.9553 58.6208L60.0334 58.76ZM67.2334 58.76L67.1546 58.8988L67.1553 58.8992L67.2334 58.76ZM69.8134 61.32L69.6749 61.3994L69.6761 61.4014L69.8134 61.32ZM69.8134 68.68L69.6757 68.5994L69.6754 68.5999L69.8134 68.68ZM67.2334 71.22L67.1553 71.0808L67.2334 71.22ZM65.8534 69.08L65.9339 69.2179L65.936 69.2166L65.8534 69.08ZM67.3534 67.44L67.4957 67.5125L67.3534 67.44ZM67.3534 62.54L67.2112 62.6125L67.2118 62.6136L67.3534 62.54ZM65.8534 60.92L65.773 61.0579L65.8534 60.92ZM61.3934 60.92L61.3142 60.7814L61.313 60.7821L61.3934 60.92ZM59.8934 62.54L60.0351 62.6136L60.0357 62.6125L59.8934 62.54ZM59.8934 67.44L60.0357 67.3675L59.8934 67.44ZM61.3934 69.08L61.3109 69.2167L61.3142 69.2186L61.3934 69.08ZM63.6334 71.9804C62.3529 71.9804 61.18 71.6802 60.1115 71.0808L59.9553 71.3592C61.0736 71.9865 62.3006 72.2996 63.6334 72.2996V71.9804ZM60.1115 71.0808C59.0427 70.4812 58.1965 69.6545 57.5708 68.5986L57.2961 68.7614C57.9504 69.8655 58.8375 70.7321 59.9553 71.3592L60.1115 71.0808ZM57.5712 68.5994C56.9467 67.5325 56.6331 66.3274 56.6331 64.98H56.3138C56.3138 66.3792 56.6402 67.6408 57.2957 68.7606L57.5712 68.5994ZM56.6331 64.98C56.6331 63.6462 56.9466 62.4547 57.5708 61.4014L57.2961 61.2386C56.6403 62.3453 56.3138 63.5938 56.3138 64.98H56.6331ZM57.5712 61.4006C58.197 60.3315 59.0432 59.4985 60.1115 58.8992L59.9553 58.6208C58.837 59.2481 57.9499 60.1218 57.2957 61.2394L57.5712 61.4006ZM60.1115 58.8992C61.18 58.2998 62.3529 57.9996 63.6334 57.9996V57.6804C62.3006 57.6804 61.0736 57.9935 59.9553 58.6208L60.1115 58.8992ZM63.6334 57.9996C64.9276 57.9996 66.1002 58.3 67.1546 58.8988L67.3123 58.6212C66.2067 57.9934 64.9793 57.6804 63.6334 57.6804V57.9996ZM67.1553 58.8992C68.2234 59.4983 69.0626 60.3309 69.6749 61.3994L69.9519 61.2406C69.311 60.1224 68.4302 59.2483 67.3115 58.6208L67.1553 58.8992ZM69.6761 61.4014C70.3003 62.4547 70.6138 63.6462 70.6138 64.98H70.9331C70.9331 63.5938 70.6066 62.3453 69.9508 61.2386L69.6761 61.4014ZM70.6138 64.98C70.6138 66.3274 70.3002 67.5325 69.6757 68.5994L69.9512 68.7606C70.6067 67.6408 70.9331 66.3792 70.9331 64.98H70.6138ZM69.6754 68.5999C69.0631 69.6551 68.2239 70.4814 67.1553 71.0808L67.3115 71.3592C68.4297 70.732 69.3104 69.8649 69.9515 68.7601L69.6754 68.5999ZM67.1553 71.0808C66.0869 71.6802 64.914 71.9804 63.6334 71.9804V72.2996C64.9663 72.2996 66.1933 71.9865 67.3115 71.3592L67.1553 71.0808ZM63.6334 69.7996C64.4978 69.7996 65.2663 69.6073 65.9339 69.2179L65.773 68.9421C65.1605 69.2994 64.449 69.4804 63.6334 69.4804V69.7996ZM65.936 69.2166C66.603 68.8136 67.123 68.244 67.4957 67.5125L67.2112 67.3675C66.8639 68.0494 66.3838 68.5731 65.7709 68.9434L65.936 69.2166ZM67.4957 67.5125C67.869 66.7797 68.0531 65.9341 68.0531 64.98H67.7338C67.7338 65.8926 67.5579 66.687 67.2112 67.3675L67.4957 67.5125ZM68.0531 64.98C68.0531 64.026 67.869 63.1865 67.4951 62.4664L67.2118 62.6136C67.5579 63.2801 67.7338 64.0673 67.7338 64.98H68.0531ZM67.4957 62.4675C67.1228 61.7356 66.6022 61.172 65.9339 60.7821L65.773 61.0579C66.3847 61.4147 66.8641 61.9311 67.2112 62.6125L67.4957 62.4675ZM65.9339 60.7821C65.2663 60.3927 64.4978 60.2004 63.6334 60.2004V60.5196C64.449 60.5196 65.1605 60.7006 65.773 61.0579L65.9339 60.7821ZM63.6334 60.2004C62.769 60.2004 61.9944 60.3927 61.3142 60.7814L61.4726 61.0586C62.0991 60.7006 62.8179 60.5196 63.6334 60.5196V60.2004ZM61.313 60.7821C60.6447 61.172 60.1241 61.7356 59.7512 62.4675L60.0357 62.6125C60.3828 61.9311 60.8622 61.4147 61.4739 61.0579L61.313 60.7821ZM59.7518 62.4664C59.3779 63.1865 59.1938 64.026 59.1938 64.98H59.5131C59.5131 64.0673 59.689 63.2801 60.0351 62.6136L59.7518 62.4664ZM59.1938 64.98C59.1938 65.9341 59.3779 66.7797 59.7512 67.5125L60.0357 67.3675C59.689 66.687 59.5131 65.8926 59.5131 64.98H59.1938ZM59.7512 67.5125C60.1239 68.244 60.6438 68.8136 61.3109 69.2166L61.476 68.9434C60.863 68.5731 60.383 68.0494 60.0357 67.3675L59.7512 67.5125ZM61.3142 69.2186C61.9944 69.6073 62.769 69.7996 63.6334 69.7996V69.4804C62.8179 69.4804 62.0991 69.2994 61.4726 68.9414L61.3142 69.2186ZM91.5166 58.04L91.6703 58.0829L91.7269 57.8804H91.5166V58.04ZM87.6166 72V72.1596H87.7377L87.7703 72.0429L87.6166 72ZM84.3166 72L84.1622 72.0407L84.1936 72.1596H84.3166V72ZM81.6966 62.06L81.8509 62.0193L81.7 61.4468L81.5427 62.0176L81.6966 62.06ZM78.9566 72L78.9575 72.1596L79.0783 72.1589L79.1104 72.0424L78.9566 72ZM75.6766 72.02L75.5224 72.0615L75.5544 72.1804L75.6775 72.1796L75.6766 72.02ZM71.9166 58.04V57.8804H71.7083L71.7624 58.0815L71.9166 58.04ZM74.9166 58.04L75.0722 58.0047L75.044 57.8804H74.9166V58.04ZM77.3766 68.88L77.2209 68.9153L77.531 68.9205L77.3766 68.88ZM80.2166 58.04V57.8804H80.0934L80.0621 57.9995L80.2166 58.04ZM83.3366 58.04L83.4915 58.0015L83.4614 57.8804H83.3366V58.04ZM86.0166 68.82L85.8617 68.8585L86.1721 68.8558L86.0166 68.82ZM88.4966 58.04V57.8804H88.3695L88.341 58.0042L88.4966 58.04ZM91.3628 57.9971L87.4628 71.9571L87.7703 72.0429L91.6703 58.0829L91.3628 57.9971ZM87.6166 71.8404H84.3166V72.1596H87.6166V71.8404ZM84.4709 71.9593L81.8509 62.0193L81.5422 62.1007L84.1622 72.0407L84.4709 71.9593ZM81.5427 62.0176L78.8027 71.9576L79.1104 72.0424L81.8504 62.1024L81.5427 62.0176ZM78.9556 71.8404L75.6756 71.8604L75.6775 72.1796L78.9575 72.1596L78.9556 71.8404ZM75.8307 71.9785L72.0707 57.9985L71.7624 58.0815L75.5224 72.0615L75.8307 71.9785ZM71.9166 58.1996H74.9166V57.8804H71.9166V58.1996ZM74.7609 58.0753L77.2209 68.9153L77.5322 68.8447L75.0722 58.0047L74.7609 58.0753ZM77.531 68.9205L80.371 58.0805L80.0621 57.9995L77.2222 68.8395L77.531 68.9205ZM80.2166 58.1996H83.3366V57.8804H80.2166V58.1996ZM83.1817 58.0785L85.8617 68.8585L86.1715 68.7815L83.4915 58.0015L83.1817 58.0785ZM86.1721 68.8558L88.6521 58.0758L88.341 58.0042L85.861 68.7842L86.1721 68.8558ZM88.4966 58.1996H91.5166V57.8804H88.4966V58.1996ZM105.285 72V72.1596H105.444V72H105.285ZM102.485 72L102.352 72.0881L102.399 72.1596H102.485V72ZM96.1448 62.42L96.278 62.3319L95.9852 61.8896V62.42H96.1448ZM96.1448 72V72.1596H96.3045V72H96.1448ZM93.3448 72H93.1852V72.1596H93.3448V72ZM93.3448 58.02V57.8604H93.1852V58.02H93.3448ZM96.1448 58.02L96.278 57.932L96.2307 57.8604H96.1448V58.02ZM102.485 67.62L102.352 67.708L102.644 68.1514V67.62H102.485ZM102.485 58.02V57.8604H102.325V58.02H102.485ZM105.285 58.02H105.444V57.8604H105.285V58.02ZM105.285 71.8404H102.485V72.1596H105.285V71.8404ZM102.618 71.9119L96.278 62.3319L96.0117 62.5081L102.352 72.0881L102.618 71.9119ZM95.9852 62.42V72H96.3045V62.42H95.9852ZM96.1448 71.8404H93.3448V72.1596H96.1448V71.8404ZM93.5045 72V58.02H93.1852V72H93.5045ZM93.3448 58.1796H96.1448V57.8604H93.3448V58.1796ZM96.0116 58.108L102.352 67.708L102.618 67.532L96.278 57.932L96.0116 58.108ZM102.644 67.62V58.02H102.325V67.62H102.644ZM102.485 58.1796H105.285V57.8604H102.485V58.1796ZM105.125 58.02V72H105.444V58.02H105.125ZM124.397 58.04H124.557V57.8804H124.397V58.04ZM124.397 72V72.1596H124.557V72H124.397ZM121.598 72H121.438V72.1596H121.598V72ZM121.598 66.06H121.757V65.9004H121.598V66.06ZM115.618 66.06V65.9004H115.458V66.06H115.618ZM115.618 72V72.1596H115.777V72H115.618ZM112.817 72H112.658V72.1596H112.817V72ZM112.817 58.04V57.8804H112.658V58.04H112.817ZM115.618 58.04H115.777V57.8804H115.618V58.04ZM115.618 63.78H115.458V63.9396H115.618V63.78ZM121.598 63.78V63.9396H121.757V63.78H121.598ZM121.598 58.04V57.8804H121.438V58.04H121.598ZM124.238 58.04V72H124.557V58.04H124.238ZM124.397 71.8404H121.598V72.1596H124.397V71.8404ZM121.757 72V66.06H121.438V72H121.757ZM121.598 65.9004H115.618V66.2196H121.598V65.9004ZM115.458 66.06V72H115.777V66.06H115.458ZM115.618 71.8404H112.817V72.1596H115.618V71.8404ZM112.977 72V58.04H112.658V72H112.977ZM112.817 58.1996H115.618V57.8804H112.817V58.1996ZM115.458 58.04V63.78H115.777V58.04H115.458ZM115.618 63.9396H121.598V63.6204H115.618V63.9396ZM121.757 63.78V58.04H121.438V63.78H121.757ZM121.598 58.1996H124.397V57.8804H121.598V58.1996ZM129.953 60.3V60.1404H129.794V60.3H129.953ZM129.953 63.8H129.794V63.9596H129.953V63.8ZM134.653 63.8H134.813V63.6404H134.653V63.8ZM134.653 66.02V66.1796H134.813V66.02H134.653ZM129.953 66.02V65.8604H129.794V66.02H129.953ZM129.953 69.72H129.794V69.8796H129.953V69.72ZM135.253 69.72H135.413V69.5604H135.253V69.72ZM135.253 72V72.1596H135.413V72H135.253ZM127.153 72H126.994V72.1596H127.153V72ZM127.153 58.02V57.8604H126.994V58.02H127.153ZM135.253 58.02H135.413V57.8604H135.253V58.02ZM135.253 60.3V60.4596H135.413V60.3H135.253ZM129.794 60.3V63.8H130.113V60.3H129.794ZM129.953 63.9596H134.653V63.6404H129.953V63.9596ZM134.494 63.8V66.02H134.813V63.8H134.494ZM134.653 65.8604H129.953V66.1796H134.653V65.8604ZM129.794 66.02V69.72H130.113V66.02H129.794ZM129.953 69.8796H135.253V69.5604H129.953V69.8796ZM135.094 69.72V72H135.413V69.72H135.094ZM135.253 71.8404H127.153V72.1596H135.253V71.8404ZM127.313 72V58.02H126.994V72H127.313ZM127.153 58.1796H135.253V57.8604H127.153V58.1796ZM135.094 58.02V60.3H135.413V58.02H135.094ZM135.253 60.1404H129.953V60.4596H135.253V60.1404ZM140.598 69.78H140.438V69.9396H140.598V69.78ZM145.198 69.78H145.358V69.6204H145.198V69.78ZM145.198 72V72.1596H145.358V72H145.198ZM137.798 72H137.638V72.1596H137.798V72ZM137.798 58.04V57.8804H137.638V58.04H137.798ZM140.598 58.04H140.758V57.8804H140.598V58.04ZM140.598 69.9396H145.198V69.6204H140.598V69.9396ZM145.038 69.78V72H145.358V69.78H145.038ZM145.198 71.8404H137.798V72.1596H145.198V71.8404ZM137.958 72V58.04H137.638V72H137.958ZM137.798 58.1996H140.598V57.8804H137.798V58.1996ZM140.438 58.04V69.78H140.758V58.04H140.438ZM156.618 64.46L156.478 64.383L156.477 64.3852L156.618 64.46ZM154.958 66.04L154.883 65.8987L154.882 65.8993L154.958 66.04ZM149.778 66.64V66.4804H149.618V66.64H149.778ZM149.778 72V72.1596H149.937V72H149.778ZM146.978 72H146.818V72.1596H146.978V72ZM146.978 58.04V57.8804H146.818V58.04H146.978ZM154.878 58.6L154.807 58.7433L154.878 58.6ZM156.578 60.14L156.439 60.2192L156.44 60.2213L156.578 60.14ZM153.718 63.86L153.826 63.977L153.828 63.9749L153.718 63.86ZM149.778 60.32V60.1604H149.618V60.32H149.778ZM149.778 64.38H149.618V64.5396H149.778V64.38ZM156.998 62.36C156.998 63.0798 156.825 63.7532 156.478 64.383L156.757 64.537C157.13 63.8601 157.317 63.1336 157.317 62.36H156.998ZM156.477 64.3852C156.147 65.0058 155.62 65.5112 154.883 65.8987L155.032 66.1813C155.816 65.7688 156.395 65.2208 156.759 64.5348L156.477 64.3852ZM154.882 65.8993C154.166 66.2833 153.247 66.4804 152.118 66.4804V66.7996C153.282 66.7996 154.256 66.5967 155.033 66.1807L154.882 65.8993ZM152.118 66.4804H149.778V66.7996H152.118V66.4804ZM149.618 66.64V72H149.937V66.64H149.618ZM149.778 71.8404H146.978V72.1596H149.778V71.8404ZM147.137 72V58.04H146.818V72H147.137ZM146.978 58.1996H152.118V57.8804H146.978V58.1996ZM152.118 58.1996C153.18 58.1996 154.074 58.3832 154.807 58.7433L154.948 58.4567C154.161 58.0701 153.216 57.8804 152.118 57.8804V58.1996ZM154.807 58.7433C155.542 59.1044 156.083 59.5969 156.439 60.2192L156.716 60.0608C156.325 59.3764 155.733 58.8423 154.948 58.4567L154.807 58.7433ZM156.44 60.2213C156.811 60.8479 156.998 61.5593 156.998 62.36H157.317C157.317 61.5074 157.118 60.7388 156.715 60.0587L156.44 60.2213ZM151.998 64.5396C152.791 64.5396 153.411 64.3623 153.826 63.977L153.609 63.743C153.277 64.051 152.751 64.2204 151.998 64.2204V64.5396ZM153.828 63.9749C154.24 63.5781 154.437 63.0325 154.437 62.36H154.118C154.118 62.9675 153.942 63.4219 153.607 63.7451L153.828 63.9749ZM154.437 62.36C154.437 61.6505 154.238 61.0905 153.814 60.711C153.393 60.3346 152.778 60.1604 151.998 60.1604V60.4796C152.737 60.4796 153.262 60.6454 153.601 60.949C153.937 61.2495 154.118 61.7095 154.118 62.36H154.437ZM151.998 60.1604H149.778V60.4796H151.998V60.1604ZM149.618 60.32V64.38H149.937V60.32H149.618ZM149.778 64.5396H151.998V64.2204H149.778V64.5396ZM161.326 71.64L161.262 71.7866L161.263 71.787L161.326 71.64ZM159.486 70.2L159.356 70.2936L159.486 70.2ZM158.786 67.98V67.8204H158.623L158.626 67.9825L158.786 67.98ZM161.786 67.98L161.945 67.9689L161.935 67.8204H161.786V67.98ZM162.386 69.34L162.277 69.4571L162.279 69.4591L162.386 69.34ZM165.446 69.38L165.547 69.5034L165.55 69.5012L165.446 69.38ZM165.626 67.12L165.51 67.2299L165.626 67.12ZM164.666 66.5L164.603 66.6468L164.609 66.6492L164.666 66.5ZM163.106 65.98L163.061 66.1332L163.063 66.1337L163.106 65.98ZM160.886 65.2L160.817 65.3442L160.821 65.346L160.886 65.2ZM159.426 64.02L159.298 64.1158L159.301 64.1193L159.426 64.02ZM159.446 59.74L159.578 59.8292L159.446 59.74ZM161.186 58.34L161.249 58.4867L161.251 58.4858L161.186 58.34ZM167.246 58.9L167.147 59.0252L167.149 59.0268L167.246 58.9ZM168.746 61.82V61.9796H168.918L168.905 61.8081L168.746 61.82ZM165.666 61.82L165.506 61.8289L165.515 61.9796H165.666V61.82ZM165.046 60.64L164.942 60.7613L164.946 60.7651L165.046 60.64ZM162.226 60.58L162.123 60.4577L162.121 60.4599L162.226 60.58ZM162.106 62.74L161.99 62.8499L161.996 62.8559L162.106 62.74ZM163.026 63.34L162.961 63.486L162.967 63.4886L163.026 63.34ZM164.586 63.86L164.54 64.0129L164.541 64.0131L164.586 63.86ZM168.286 65.86L168.159 65.9578L168.286 65.86ZM168.326 70.04L168.189 69.9575V69.9575L168.326 70.04ZM166.626 71.58L166.697 71.7228L166.699 71.7217L166.626 71.58ZM163.966 71.9804C163.011 71.9804 162.152 71.8169 161.388 71.493L161.263 71.787C162.072 72.1297 162.974 72.2996 163.966 72.2996V71.9804ZM161.389 71.4934C160.639 71.1704 160.05 70.7077 159.615 70.1064L159.356 70.2936C159.828 70.9456 160.465 71.4429 161.262 71.7866L161.389 71.4934ZM159.615 70.1064C159.183 69.509 158.958 68.8016 158.945 67.9775L158.626 67.9825C158.64 68.865 158.882 69.6376 159.356 70.2936L159.615 70.1064ZM158.786 68.1396H161.786V67.8204H158.786V68.1396ZM161.626 67.9911C161.669 68.5975 161.882 69.0915 162.277 69.4571L162.494 69.2229C162.169 68.9218 161.983 68.5091 161.945 67.9689L161.626 67.9911ZM162.279 69.4591C162.689 69.8252 163.238 69.9996 163.906 69.9996V69.6804C163.294 69.6804 162.829 69.5215 162.492 69.2209L162.279 69.4591ZM163.906 69.9996C164.583 69.9996 165.136 69.8406 165.547 69.5033L165.344 69.2567C165.008 69.5328 164.535 69.6804 163.906 69.6804V69.9996ZM165.55 69.5012C165.959 69.1498 166.165 68.6916 166.165 68.14H165.846C165.846 68.6017 165.678 68.9702 165.342 69.2588L165.55 69.5012ZM166.165 68.14C166.165 67.6912 166.026 67.3101 165.741 67.0101L165.51 67.2299C165.731 67.4632 165.846 67.7621 165.846 68.14H166.165ZM165.741 67.0101C165.47 66.724 165.129 66.5049 164.722 66.3508L164.609 66.6492C164.976 66.7885 165.275 66.9827 165.51 67.2299L165.741 67.0101ZM164.729 66.3533C164.346 66.1893 163.818 66.0137 163.149 65.8263L163.063 66.1337C163.726 66.3196 164.239 66.4907 164.603 66.6467L164.729 66.3533ZM163.151 65.8269C162.248 65.5613 161.515 65.3035 160.95 65.054L160.821 65.346C161.403 65.6032 162.15 65.8654 163.061 66.1331L163.151 65.8269ZM160.954 65.0559C160.418 64.8004 159.95 64.423 159.551 63.9207L159.301 64.1193C159.728 64.657 160.234 65.0663 160.817 65.3441L160.954 65.0559ZM159.553 63.9242C159.18 63.4262 158.985 62.7565 158.985 61.9H158.666C158.666 62.8035 158.871 63.5471 159.298 64.1158L159.553 63.9242ZM158.985 61.9C158.985 61.1012 159.184 60.4131 159.578 59.8292L159.313 59.6508C158.88 60.2935 158.666 61.0454 158.666 61.9H158.985ZM159.578 59.8292C159.973 59.2438 160.527 58.7959 161.249 58.4867L161.123 58.1933C160.351 58.5241 159.745 59.0095 159.313 59.6508L159.578 59.8292ZM161.251 58.4858C161.974 58.163 162.804 57.9996 163.746 57.9996V57.6804C162.767 57.6804 161.891 57.8503 161.121 58.1942L161.251 58.4858ZM163.746 57.9996C165.159 57.9996 166.288 58.3462 167.147 59.0252L167.345 58.7748C166.416 58.0405 165.212 57.6804 163.746 57.6804V57.9996ZM167.149 59.0268C168.015 59.6895 168.496 60.6188 168.586 61.8319L168.905 61.8081C168.808 60.5145 168.289 59.4972 167.343 58.7732L167.149 59.0268ZM168.746 61.6604H165.666V61.9796H168.746V61.6604ZM165.825 61.8111C165.796 61.2842 165.566 60.8491 165.145 60.5149L164.946 60.7651C165.298 61.0442 165.482 61.3958 165.506 61.8289L165.825 61.8111ZM165.15 60.5188C164.74 60.1678 164.2 60.0004 163.546 60.0004V60.3196C164.145 60.3196 164.605 60.4722 164.942 60.7612L165.15 60.5188ZM163.546 60.0004C162.971 60.0004 162.492 60.1479 162.123 60.4578L162.328 60.7022C162.626 60.4521 163.027 60.3196 163.546 60.3196V60.0004ZM162.121 60.4599C161.757 60.7776 161.586 61.2333 161.586 61.8H161.905C161.905 61.3001 162.054 60.9424 162.331 60.7001L162.121 60.4599ZM161.586 61.8C161.586 62.211 161.72 62.5646 161.99 62.8498L162.222 62.6302C162.012 62.4087 161.905 62.1356 161.905 61.8H161.586ZM161.996 62.8559C162.264 63.1099 162.586 63.3194 162.961 63.4859L163.09 63.1941C162.745 63.0406 162.454 62.8501 162.215 62.6241L161.996 62.8559ZM162.967 63.4886C163.347 63.6376 163.871 63.8124 164.54 64.0129L164.631 63.7071C163.966 63.5076 163.451 63.3357 163.084 63.1914L162.967 63.4886ZM164.541 64.0131C165.443 64.2785 166.175 64.5426 166.738 64.8047L166.873 64.5153C166.29 64.244 165.542 63.9748 164.631 63.7069L164.541 64.0131ZM166.738 64.8047C167.287 65.0599 167.761 65.4432 168.159 65.9578L168.412 65.7622C167.984 65.2102 167.471 64.7934 166.873 64.5153L166.738 64.8047ZM168.159 65.9578C168.546 66.456 168.746 67.1186 168.746 67.96H169.065C169.065 67.0681 168.852 66.3306 168.412 65.7622L168.159 65.9578ZM168.746 67.96C168.746 68.6775 168.561 69.3423 168.189 69.9575L168.462 70.1225C168.864 69.4577 169.065 68.7358 169.065 67.96H168.746ZM168.189 69.9575C167.819 70.5692 167.276 71.0634 166.552 71.4383L166.699 71.7217C167.468 71.3233 168.059 70.7908 168.462 70.1225L168.189 69.9575ZM166.554 71.4372C165.834 71.7972 164.973 71.9804 163.966 71.9804V72.2996C165.011 72.2996 165.924 72.1094 166.697 71.7228L166.554 71.4372ZM185.739 64.46L185.599 64.383L185.598 64.3852L185.739 64.46ZM184.079 66.04L184.004 65.8987L184.003 65.8993L184.079 66.04ZM178.899 66.64V66.4804H178.739V66.64H178.899ZM178.899 72V72.1596H179.058V72H178.899ZM176.099 72H175.939V72.1596H176.099V72ZM176.099 58.04V57.8804H175.939V58.04H176.099ZM183.999 58.6L183.928 58.7433L183.999 58.6ZM185.699 60.14L185.56 60.2192L185.561 60.2213L185.699 60.14ZM182.839 63.86L182.947 63.977L182.95 63.9749L182.839 63.86ZM178.899 60.32V60.1604H178.739V60.32H178.899ZM178.899 64.38H178.739V64.5396H178.899V64.38ZM186.119 62.36C186.119 63.0798 185.946 63.7532 185.599 64.383L185.879 64.537C186.252 63.8601 186.438 63.1336 186.438 62.36H186.119ZM185.598 64.3852C185.268 65.0058 184.741 65.5112 184.004 65.8987L184.153 66.1813C184.937 65.7688 185.516 65.2208 185.88 64.5348L185.598 64.3852ZM184.003 65.8993C183.287 66.2833 182.368 66.4804 181.239 66.4804V66.7996C182.403 66.7996 183.378 66.5967 184.154 66.1807L184.003 65.8993ZM181.239 66.4804H178.899V66.7996H181.239V66.4804ZM178.739 66.64V72H179.058V66.64H178.739ZM178.899 71.8404H176.099V72.1596H178.899V71.8404ZM176.258 72V58.04H175.939V72H176.258ZM176.099 58.1996H181.239V57.8804H176.099V58.1996ZM181.239 58.1996C182.301 58.1996 183.195 58.3832 183.928 58.7433L184.069 58.4567C183.282 58.0701 182.337 57.8804 181.239 57.8804V58.1996ZM183.928 58.7433C184.663 59.1044 185.205 59.5969 185.56 60.2192L185.837 60.0608C185.446 59.3764 184.854 58.8423 184.069 58.4567L183.928 58.7433ZM185.561 60.2213C185.932 60.8479 186.119 61.5593 186.119 62.36H186.438C186.438 61.5074 186.239 60.7388 185.836 60.0587L185.561 60.2213ZM181.119 64.5396C181.912 64.5396 182.532 64.3623 182.947 63.977L182.73 63.743C182.398 64.051 181.872 64.2204 181.119 64.2204V64.5396ZM182.95 63.9749C183.361 63.5781 183.558 63.0325 183.558 62.36H183.239C183.239 62.9675 183.063 63.4219 182.728 63.7451L182.95 63.9749ZM183.558 62.36C183.558 61.6505 183.359 61.0905 182.935 60.711C182.514 60.3346 181.899 60.1604 181.119 60.1604V60.4796C181.858 60.4796 182.383 60.6454 182.722 60.949C183.058 61.2495 183.239 61.7095 183.239 62.36H183.558ZM181.119 60.1604H178.899V60.4796H181.119V60.1604ZM178.739 60.32V64.38H179.058V60.32H178.739ZM178.899 64.5396H181.119V64.2204H178.899V64.5396ZM191.067 60.3V60.1404H190.907V60.3H191.067ZM191.067 63.8H190.907V63.9596H191.067V63.8ZM195.767 63.8H195.926V63.6404H195.767V63.8ZM195.767 66.02V66.1796H195.926V66.02H195.767ZM191.067 66.02V65.8604H190.907V66.02H191.067ZM191.067 69.72H190.907V69.8796H191.067V69.72ZM196.367 69.72H196.526V69.5604H196.367V69.72ZM196.367 72V72.1596H196.526V72H196.367ZM188.267 72H188.107V72.1596H188.267V72ZM188.267 58.02V57.8604H188.107V58.02H188.267ZM196.367 58.02H196.526V57.8604H196.367V58.02ZM196.367 60.3V60.4596H196.526V60.3H196.367ZM190.907 60.3V63.8H191.226V60.3H190.907ZM191.067 63.9596H195.767V63.6404H191.067V63.9596ZM195.607 63.8V66.02H195.926V63.8H195.607ZM195.767 65.8604H191.067V66.1796H195.767V65.8604ZM190.907 66.02V69.72H191.226V66.02H190.907ZM191.067 69.8796H196.367V69.5604H191.067V69.8796ZM196.207 69.72V72H196.526V69.72H196.207ZM196.367 71.8404H188.267V72.1596H196.367V71.8404ZM188.426 72V58.02H188.107V72H188.426ZM188.267 58.1796H196.367V57.8604H188.267V58.1796ZM196.207 58.02V60.3H196.526V58.02H196.207ZM196.367 60.1404H191.067V60.4596H196.367V60.1404ZM201.791 71.22L201.869 71.0808L201.791 71.22ZM199.191 68.68L199.053 68.7606L199.054 68.7614L199.191 68.68ZM199.191 61.32L199.329 61.4014L199.329 61.4006L199.191 61.32ZM201.791 58.76L201.713 58.6208L201.791 58.76ZM208.991 58.76L208.912 58.8988L208.913 58.8992L208.991 58.76ZM211.571 61.32L211.433 61.3994L211.434 61.4014L211.571 61.32ZM211.571 68.68L211.433 68.5994L211.433 68.5999L211.571 68.68ZM208.991 71.22L208.913 71.0808L208.991 71.22ZM207.611 69.08L207.692 69.2179L207.694 69.2166L207.611 69.08ZM209.111 67.44L209.253 67.5125L209.111 67.44ZM209.111 62.54L208.969 62.6125L208.97 62.6136L209.111 62.54ZM207.611 60.92L207.531 61.0579L207.611 60.92ZM203.151 60.92L203.072 60.7814L203.071 60.7821L203.151 60.92ZM201.651 62.54L201.793 62.6136L201.793 62.6125L201.651 62.54ZM201.651 67.44L201.793 67.3675L201.651 67.44ZM203.151 69.08L203.069 69.2167L203.072 69.2186L203.151 69.08ZM205.391 71.9804C204.111 71.9804 202.938 71.6802 201.869 71.0808L201.713 71.3592C202.831 71.9865 204.058 72.2996 205.391 72.2996V71.9804ZM201.869 71.0808C200.801 70.4812 199.954 69.6545 199.329 68.5986L199.054 68.7614C199.708 69.8655 200.595 70.7321 201.713 71.3592L201.869 71.0808ZM199.329 68.5994C198.705 67.5325 198.391 66.3274 198.391 64.98H198.072C198.072 66.3792 198.398 67.6408 199.053 68.7606L199.329 68.5994ZM198.391 64.98C198.391 63.6462 198.704 62.4547 199.329 61.4014L199.054 61.2386C198.398 62.3453 198.072 63.5938 198.072 64.98H198.391ZM199.329 61.4006C199.955 60.3315 200.801 59.4985 201.869 58.8992L201.713 58.6208C200.595 59.2481 199.708 60.1218 199.053 61.2394L199.329 61.4006ZM201.869 58.8992C202.938 58.2998 204.111 57.9996 205.391 57.9996V57.6804C204.058 57.6804 202.831 57.9935 201.713 58.6208L201.869 58.8992ZM205.391 57.9996C206.685 57.9996 207.858 58.3 208.912 58.8988L209.07 58.6212C207.965 57.9934 206.737 57.6804 205.391 57.6804V57.9996ZM208.913 58.8992C209.981 59.4983 210.82 60.3309 211.433 61.3994L211.71 61.2406C211.069 60.1224 210.188 59.2483 209.069 58.6208L208.913 58.8992ZM211.434 61.4014C212.058 62.4547 212.372 63.6462 212.372 64.98H212.691C212.691 63.5938 212.364 62.3453 211.709 61.2386L211.434 61.4014ZM212.372 64.98C212.372 66.3274 212.058 67.5325 211.433 68.5994L211.709 68.7606C212.365 67.6408 212.691 66.3792 212.691 64.98H212.372ZM211.433 68.5999C210.821 69.6551 209.982 70.4814 208.913 71.0808L209.069 71.3592C210.188 70.732 211.068 69.8649 211.709 68.7601L211.433 68.5999ZM208.913 71.0808C207.845 71.6802 206.672 71.9804 205.391 71.9804V72.2996C206.724 72.2996 207.951 71.9865 209.069 71.3592L208.913 71.0808ZM205.391 69.7996C206.256 69.7996 207.024 69.6073 207.692 69.2179L207.531 68.9421C206.918 69.2994 206.207 69.4804 205.391 69.4804V69.7996ZM207.694 69.2166C208.361 68.8136 208.881 68.244 209.253 67.5125L208.969 67.3675C208.622 68.0494 208.142 68.5731 207.529 68.9434L207.694 69.2166ZM209.253 67.5125C209.627 66.7797 209.811 65.9341 209.811 64.98H209.492C209.492 65.8926 209.316 66.687 208.969 67.3675L209.253 67.5125ZM209.811 64.98C209.811 64.026 209.627 63.1865 209.253 62.4664L208.97 62.6136C209.316 63.2801 209.492 64.0673 209.492 64.98H209.811ZM209.253 62.4675C208.881 61.7356 208.36 61.172 207.692 60.7821L207.531 61.0579C208.142 61.4147 208.622 61.9311 208.969 62.6125L209.253 62.4675ZM207.692 60.7821C207.024 60.3927 206.256 60.2004 205.391 60.2004V60.5196C206.207 60.5196 206.918 60.7006 207.531 61.0579L207.692 60.7821ZM205.391 60.2004C204.527 60.2004 203.752 60.3927 203.072 60.7814L203.23 61.0586C203.857 60.7006 204.576 60.5196 205.391 60.5196V60.2004ZM203.071 60.7821C202.402 61.172 201.882 61.7356 201.509 62.4675L201.793 62.6125C202.141 61.9311 202.62 61.4147 203.232 61.0579L203.071 60.7821ZM201.51 62.4664C201.136 63.1865 200.952 64.026 200.952 64.98H201.271C201.271 64.0673 201.447 63.2801 201.793 62.6136L201.51 62.4664ZM200.952 64.98C200.952 65.9341 201.136 66.7797 201.509 67.5125L201.793 67.3675C201.447 66.687 201.271 65.8926 201.271 64.98H200.952ZM201.509 67.5125C201.882 68.244 202.402 68.8136 203.069 69.2166L203.234 68.9434C202.621 68.5731 202.141 68.0494 201.793 67.3675L201.509 67.5125ZM203.072 69.2186C203.752 69.6073 204.527 69.7996 205.391 69.7996V69.4804C204.576 69.4804 203.857 69.2994 203.23 68.9414L203.072 69.2186ZM224.254 64.46L224.115 64.383L224.113 64.3852L224.254 64.46ZM222.594 66.04L222.52 65.8987L222.519 65.8993L222.594 66.04ZM217.414 66.64V66.4804H217.255V66.64H217.414ZM217.414 72V72.1596H217.574V72H217.414ZM214.614 72H214.455V72.1596H214.614V72ZM214.614 58.04V57.8804H214.455V58.04H214.614ZM222.514 58.6L222.444 58.7433L222.514 58.6ZM224.214 60.14L224.076 60.2192L224.077 60.2213L224.214 60.14ZM221.354 63.86L221.463 63.977L221.465 63.9749L221.354 63.86ZM217.414 60.32V60.1604H217.255V60.32H217.414ZM217.414 64.38H217.255V64.5396H217.414V64.38ZM224.635 62.36C224.635 63.0798 224.462 63.7532 224.115 64.383L224.394 64.537C224.767 63.8601 224.954 63.1336 224.954 62.36H224.635ZM224.113 64.3852C223.784 65.0058 223.256 65.5112 222.52 65.8987L222.669 66.1813C223.452 65.7688 224.031 65.2208 224.395 64.5348L224.113 64.3852ZM222.519 65.8993C221.802 66.2833 220.884 66.4804 219.754 66.4804V66.7996C220.918 66.7996 221.893 66.5967 222.67 66.1807L222.519 65.8993ZM219.754 66.4804H217.414V66.7996H219.754V66.4804ZM217.255 66.64V72H217.574V66.64H217.255ZM217.414 71.8404H214.614V72.1596H217.414V71.8404ZM214.774 72V58.04H214.455V72H214.774ZM214.614 58.1996H219.754V57.8804H214.614V58.1996ZM219.754 58.1996C220.816 58.1996 221.711 58.3832 222.444 58.7433L222.585 58.4567C221.798 58.0701 220.852 57.8804 219.754 57.8804V58.1996ZM222.444 58.7433C223.179 59.1044 223.72 59.5969 224.076 60.2192L224.353 60.0608C223.962 59.3764 223.37 58.8423 222.585 58.4567L222.444 58.7433ZM224.077 60.2213C224.448 60.8479 224.635 61.5593 224.635 62.36H224.954C224.954 61.5074 224.754 60.7388 224.352 60.0587L224.077 60.2213ZM219.634 64.5396C220.428 64.5396 221.048 64.3623 221.463 63.977L221.246 63.743C220.914 64.051 220.388 64.2204 219.634 64.2204V64.5396ZM221.465 63.9749C221.877 63.5781 222.074 63.0325 222.074 62.36H221.755C221.755 62.9675 221.579 63.4219 221.244 63.7451L221.465 63.9749ZM222.074 62.36C222.074 61.6505 221.875 61.0905 221.451 60.711C221.03 60.3346 220.415 60.1604 219.634 60.1604V60.4796C220.374 60.4796 220.899 60.6454 221.238 60.949C221.574 61.2495 221.755 61.7095 221.755 62.36H222.074ZM219.634 60.1604H217.414V60.4796H219.634V60.1604ZM217.255 60.32V64.38H217.574V60.32H217.255ZM217.414 64.5396H219.634V64.2204H217.414V64.5396ZM229.582 69.78H229.423V69.9396H229.582V69.78ZM234.182 69.78H234.342V69.6204H234.182V69.78ZM234.182 72V72.1596H234.342V72H234.182ZM226.782 72H226.623V72.1596H226.782V72ZM226.782 58.04V57.8804H226.623V58.04H226.782ZM229.582 58.04H229.742V57.8804H229.582V58.04ZM229.582 69.9396H234.182V69.6204H229.582V69.9396ZM234.023 69.78V72H234.342V69.78H234.023ZM234.182 71.8404H226.782V72.1596H234.182V71.8404ZM226.942 72V58.04H226.623V72H226.942ZM226.782 58.1996H229.582V57.8804H226.782V58.1996ZM229.423 58.04V69.78H229.742V58.04H229.423ZM238.762 60.3V60.1404H238.602V60.3H238.762ZM238.762 63.8H238.602V63.9596H238.762V63.8ZM243.462 63.8H243.622V63.6404H243.462V63.8ZM243.462 66.02V66.1796H243.622V66.02H243.462ZM238.762 66.02V65.8604H238.602V66.02H238.762ZM238.762 69.72H238.602V69.8796H238.762V69.72ZM244.062 69.72H244.222V69.5604H244.062V69.72ZM244.062 72V72.1596H244.222V72H244.062ZM235.962 72H235.802V72.1596H235.962V72ZM235.962 58.02V57.8604H235.802V58.02H235.962ZM244.062 58.02H244.222V57.8604H244.062V58.02ZM244.062 60.3V60.4596H244.222V60.3H244.062ZM238.602 60.3V63.8H238.922V60.3H238.602ZM238.762 63.9596H243.462V63.6404H238.762V63.9596ZM243.302 63.8V66.02H243.622V63.8H243.302ZM243.462 65.8604H238.762V66.1796H243.462V65.8604ZM238.602 66.02V69.72H238.922V66.02H238.602ZM238.762 69.8796H244.062V69.5604H238.762V69.8796ZM243.902 69.72V72H244.222V69.72H243.902ZM244.062 71.8404H235.962V72.1596H244.062V71.8404ZM236.122 72V58.02H235.802V72H236.122ZM235.962 58.1796H244.062V57.8604H235.962V58.1796ZM243.902 58.02V60.3H244.222V58.02H243.902ZM244.062 60.1404H238.762V60.4596H244.062V60.1404ZM58.2548 79.04L58.4086 79.0829L58.4652 78.8804H58.2548V79.04ZM54.3548 93V93.1596H54.476L54.5086 93.0429L54.3548 93ZM51.0548 93L50.9005 93.0407L50.9318 93.1596H51.0548V93ZM48.4348 83.06L48.5892 83.0193L48.4383 82.4468L48.281 83.0176L48.4348 83.06ZM45.6948 93L45.6958 93.1596L45.8166 93.1589L45.8487 93.0424L45.6948 93ZM42.4148 93.02L42.2607 93.0615L42.2927 93.1804L42.4158 93.1796L42.4148 93.02ZM38.6548 79.04V78.8804H38.4466L38.5007 79.0815L38.6548 79.04ZM41.6548 79.04L41.8105 79.0047L41.7823 78.8804H41.6548V79.04ZM44.1148 89.88L43.9592 89.9153L44.2693 89.9205L44.1148 89.88ZM46.9548 79.04V78.8804H46.8317L46.8004 78.9995L46.9548 79.04ZM50.0748 79.04L50.2298 79.0015L50.1996 78.8804H50.0748V79.04ZM52.7548 89.82L52.5999 89.8585L52.9104 89.8558L52.7548 89.82ZM55.2348 79.04V78.8804H55.1078L55.0793 79.0042L55.2348 79.04ZM58.1011 78.9971L54.2011 92.9571L54.5086 93.0429L58.4086 79.0829L58.1011 78.9971ZM54.3548 92.8404H51.0548V93.1596H54.3548V92.8404ZM51.2092 92.9593L48.5892 83.0193L48.2805 83.1007L50.9005 93.0407L51.2092 92.9593ZM48.281 83.0176L45.541 92.9576L45.8487 93.0424L48.5887 83.1024L48.281 83.0176ZM45.6939 92.8404L42.4139 92.8604L42.4158 93.1796L45.6958 93.1596L45.6939 92.8404ZM42.569 92.9785L38.809 78.9985L38.5007 79.0815L42.2607 93.0615L42.569 92.9785ZM38.6548 79.1996H41.6548V78.8804H38.6548V79.1996ZM41.4992 79.0753L43.9592 89.9153L44.2705 89.8447L41.8105 79.0047L41.4992 79.0753ZM44.2693 89.9205L47.1093 79.0805L46.8004 78.9995L43.9604 89.8395L44.2693 89.9205ZM46.9548 79.1996H50.0748V78.8804H46.9548V79.1996ZM49.9199 79.0785L52.5999 89.8585L52.9098 89.7815L50.2298 79.0015L49.9199 79.0785ZM52.9104 89.8558L55.3904 79.0758L55.0793 79.0042L52.5993 89.7842L52.9104 89.8558ZM55.2348 79.1996H58.2548V78.8804H55.2348V79.1996ZM71.6631 79.04H71.8228V78.8804H71.6631V79.04ZM71.6631 93V93.1596H71.8228V93H71.6631ZM68.8631 93H68.7035V93.1596H68.8631V93ZM68.8631 87.06H69.0227V86.9004H68.8631V87.06ZM62.8831 87.06V86.9004H62.7235V87.06H62.8831ZM62.8831 93V93.1596H63.0427V93H62.8831ZM60.0831 93H59.9235V93.1596H60.0831V93ZM60.0831 79.04V78.8804H59.9235V79.04H60.0831ZM62.8831 79.04H63.0427V78.8804H62.8831V79.04ZM62.8831 84.78H62.7235V84.9396H62.8831V84.78ZM68.8631 84.78V84.9396H69.0227V84.78H68.8631ZM68.8631 79.04V78.8804H68.7035V79.04H68.8631ZM71.5035 79.04V93H71.8228V79.04H71.5035ZM71.6631 92.8404H68.8631V93.1596H71.6631V92.8404ZM69.0227 93V87.06H68.7035V93H69.0227ZM68.8631 86.9004H62.8831V87.2196H68.8631V86.9004ZM62.7235 87.06V93H63.0427V87.06H62.7235ZM62.8831 92.8404H60.0831V93.1596H62.8831V92.8404ZM60.2427 93V79.04H59.9235V93H60.2427ZM60.0831 79.1996H62.8831V78.8804H60.0831V79.1996ZM62.7235 79.04V84.78H63.0427V79.04H62.7235ZM62.8831 84.9396H68.8631V84.6204H62.8831V84.9396ZM69.0227 84.78V79.04H68.7035V84.78H69.0227ZM68.8631 79.1996H71.6631V78.8804H68.8631V79.1996ZM77.2991 92.22L77.3772 92.0808L77.2991 92.22ZM74.6991 89.68L74.5613 89.7606L74.5617 89.7614L74.6991 89.68ZM74.6991 82.32L74.8364 82.4014L74.8368 82.4006L74.6991 82.32ZM77.2991 79.76L77.221 79.6208L77.2991 79.76ZM84.4991 79.76L84.4202 79.8988L84.421 79.8992L84.4991 79.76ZM87.0791 82.32L86.9406 82.3994L86.9417 82.4014L87.0791 82.32ZM87.0791 89.68L86.9413 89.5994L86.941 89.5999L87.0791 89.68ZM84.4991 92.22L84.421 92.0808L84.4991 92.22ZM83.1191 90.08L83.1995 90.2179L83.2016 90.2166L83.1191 90.08ZM84.6191 88.44L84.7613 88.5125V88.5125L84.6191 88.44ZM84.6191 83.54L84.4768 83.6125L84.4774 83.6136L84.6191 83.54ZM83.1191 81.92L83.0386 82.0579L83.1191 81.92ZM78.6591 81.92L78.5799 81.7814L78.5786 81.7821L78.6591 81.92ZM77.1591 83.54L77.3007 83.6136L77.3013 83.6125L77.1591 83.54ZM77.1591 88.44L77.3013 88.3675L77.1591 88.44ZM78.6591 90.08L78.5765 90.2167L78.5799 90.2186L78.6591 90.08ZM80.8991 92.9804C79.6185 92.9804 78.4456 92.6802 77.3772 92.0808L77.221 92.3592C78.3392 92.9865 79.5662 93.2996 80.8991 93.2996V92.9804ZM77.3772 92.0808C76.3083 91.4812 75.4621 90.6545 74.8364 89.5986L74.5617 89.7614C75.216 90.8655 76.1031 91.7321 77.221 92.3592L77.3772 92.0808ZM74.8368 89.5994C74.2123 88.5325 73.8987 87.3274 73.8987 85.98H73.5794C73.5794 87.3792 73.9058 88.6408 74.5613 89.7606L74.8368 89.5994ZM73.8987 85.98C73.8987 84.6462 74.2122 83.4547 74.8364 82.4014L74.5617 82.2386C73.9059 83.3453 73.5794 84.5938 73.5794 85.98H73.8987ZM74.8368 82.4006C75.4627 81.3315 76.3088 80.4985 77.3772 79.8992L77.221 79.6208C76.1026 80.2481 75.2155 81.1218 74.5613 82.2394L74.8368 82.4006ZM77.3772 79.8992C78.4456 79.2998 79.6185 78.9996 80.8991 78.9996V78.6804C79.5662 78.6804 78.3392 78.9935 77.221 79.6208L77.3772 79.8992ZM80.8991 78.9996C82.1932 78.9996 83.3658 79.3 84.4202 79.8988L84.5779 79.6212C83.4723 78.9934 82.2449 78.6804 80.8991 78.6804V78.9996ZM84.421 79.8992C85.489 80.4983 86.3282 81.3309 86.9406 82.3994L87.2176 82.2406C86.5766 81.1224 85.6958 80.2483 84.5772 79.6208L84.421 79.8992ZM86.9417 82.4014C87.5659 83.4547 87.8794 84.6462 87.8794 85.98H88.1987C88.1987 84.5938 87.8722 83.3453 87.2164 82.2386L86.9417 82.4014ZM87.8794 85.98C87.8794 87.3274 87.5658 88.5325 86.9413 89.5994L87.2168 89.7606C87.8723 88.6408 88.1987 87.3792 88.1987 85.98H87.8794ZM86.941 89.5999C86.3287 90.6551 85.4895 91.4814 84.421 92.0808L84.5772 92.3592C85.6953 91.732 86.5761 90.8649 87.2171 89.7601L86.941 89.5999ZM84.421 92.0808C83.3525 92.6802 82.1796 92.9804 80.8991 92.9804V93.2996C82.2319 93.2996 83.4589 92.9865 84.5772 92.3592L84.421 92.0808ZM80.8991 90.7996C81.7635 90.7996 82.532 90.6073 83.1995 90.2179L83.0386 89.9421C82.4262 90.2994 81.7147 90.4804 80.8991 90.4804V90.7996ZM83.2016 90.2166C83.8687 89.8136 84.3886 89.244 84.7613 88.5125L84.4768 88.3675C84.1295 89.0494 83.6495 89.5731 83.0365 89.9434L83.2016 90.2166ZM84.7613 88.5125C85.1346 87.7797 85.3187 86.9341 85.3187 85.98H84.9994C84.9994 86.8926 84.8235 87.687 84.4768 88.3675L84.7613 88.5125ZM85.3187 85.98C85.3187 85.026 85.1346 84.1865 84.7607 83.4664L84.4774 83.6136C84.8235 84.2801 84.9994 85.0673 84.9994 85.98H85.3187ZM84.7613 83.4675C84.3884 82.7356 83.8678 82.172 83.1995 81.7821L83.0386 82.0579C83.6503 82.4147 84.1297 82.9311 84.4768 83.6125L84.7613 83.4675ZM83.1995 81.7821C82.532 81.3927 81.7635 81.2004 80.8991 81.2004V81.5196C81.7147 81.5196 82.4262 81.7006 83.0386 82.0579L83.1995 81.7821ZM80.8991 81.2004C80.0346 81.2004 79.26 81.3927 78.5799 81.7814L78.7383 82.0586C79.3648 81.7006 80.0835 81.5196 80.8991 81.5196V81.2004ZM78.5786 81.7821C77.9103 82.172 77.3897 82.7356 77.0168 83.4675L77.3013 83.6125C77.6484 82.9311 78.1278 82.4147 78.7395 82.0579L78.5786 81.7821ZM77.0174 83.4664C76.6435 84.1865 76.4594 85.026 76.4594 85.98H76.7787C76.7787 85.0673 76.9546 84.2801 77.3007 83.6136L77.0174 83.4664ZM76.4594 85.98C76.4594 86.9341 76.6435 87.7797 77.0168 88.5125L77.3013 88.3675C76.9546 87.687 76.7787 86.8926 76.7787 85.98H76.4594ZM77.0168 88.5125C77.3895 89.244 77.9095 89.8136 78.5765 90.2166L78.7416 89.9434C78.1287 89.5731 77.6486 89.0494 77.3013 88.3675L77.0168 88.5125ZM78.5799 90.2186C79.26 90.6073 80.0346 90.7996 80.8991 90.7996V90.4804C80.0835 90.4804 79.3648 90.2994 78.7383 89.9414L78.5799 90.2186ZM103.448 90.34L103.599 90.2878L103.562 90.1804H103.448V90.34ZM97.8878 90.34V90.1804H97.7741L97.737 90.2878L97.8878 90.34ZM96.9678 93V93.1596H97.0815L97.1187 93.0522L96.9678 93ZM94.0278 93L93.8776 92.9461L93.8009 93.1596H94.0278V93ZM99.0478 79.02V78.8604H98.9355L98.8976 78.9661L99.0478 79.02ZM102.308 79.02L102.458 78.9661L102.42 78.8604H102.308V79.02ZM107.328 93V93.1596H107.555L107.478 92.9461L107.328 93ZM104.368 93L104.217 93.0522L104.254 93.1596H104.368V93ZM102.688 88.1V88.2596H102.912L102.839 88.0478L102.688 88.1ZM100.668 82.26L100.819 82.2078L100.668 81.7717L100.517 82.2078L100.668 82.26ZM98.6478 88.1L98.497 88.0478L98.4237 88.2596H98.6478V88.1ZM103.448 90.1804H97.8878V90.4996H103.448V90.1804ZM97.737 90.2878L96.817 92.9478L97.1187 93.0522L98.0387 90.3922L97.737 90.2878ZM96.9678 92.8404H94.0278V93.1596H96.9678V92.8404ZM94.178 93.0539L99.198 79.0739L98.8976 78.9661L93.8776 92.9461L94.178 93.0539ZM99.0478 79.1796H102.308V78.8604H99.0478V79.1796ZM102.158 79.0739L107.178 93.0539L107.478 92.9461L102.458 78.9661L102.158 79.0739ZM107.328 92.8404H104.368V93.1596H107.328V92.8404ZM104.519 92.9478L103.599 90.2878L103.297 90.3922L104.217 93.0522L104.519 92.9478ZM102.839 88.0478L100.819 82.2078L100.517 82.3122L102.537 88.1522L102.839 88.0478ZM100.517 82.2078L98.497 88.0478L98.7987 88.1522L100.819 82.3122L100.517 82.2078ZM98.6478 88.2596H102.688V87.9404H98.6478V88.2596ZM116.404 93L116.265 93.0786L116.311 93.1596H116.404V93ZM113.324 87.56L113.463 87.4814L113.417 87.4004H113.324V87.56ZM112.004 87.56V87.4004H111.845V87.56H112.004ZM112.004 93V93.1596H112.164V93H112.004ZM109.204 93H109.045V93.1596H109.204V93ZM109.204 79.04V78.8804H109.045V79.04H109.204ZM117.204 79.62L117.132 79.7623L117.134 79.7633L117.204 79.62ZM118.904 81.16L118.766 81.2392L118.768 81.2425L118.904 81.16ZM118.684 85.82L118.813 85.9139L118.814 85.9128L118.684 85.82ZM116.304 87.34L116.263 87.1857L116.06 87.2398L116.167 87.4211L116.304 87.34ZM119.644 93V93.1596H119.924L119.782 92.9189L119.644 93ZM112.004 85.46H111.845V85.6196H112.004V85.46ZM116.044 84.92L116.155 85.0349L116.157 85.0329L116.044 84.92ZM116.044 81.9L115.933 82.0149L115.936 82.017L116.044 81.9ZM112.004 81.36V81.2004H111.845V81.36H112.004ZM116.543 92.9214L113.463 87.4814L113.185 87.6386L116.265 93.0786L116.543 92.9214ZM113.324 87.4004H112.004V87.7196H113.324V87.4004ZM111.845 87.56V93H112.164V87.56H111.845ZM112.004 92.8404H109.204V93.1596H112.004V92.8404ZM109.364 93V79.04H109.045V93H109.364ZM109.204 79.1996H114.444V78.8804H109.204V79.1996ZM114.444 79.1996C115.506 79.1996 116.399 79.3896 117.132 79.7623L117.277 79.4777C116.489 79.077 115.543 78.8804 114.444 78.8804V79.1996ZM117.134 79.7633C117.869 80.1244 118.41 80.6169 118.766 81.2392L119.043 81.0808C118.652 80.3964 118.06 79.8623 117.275 79.4767L117.134 79.7633ZM118.768 81.2425C119.138 81.8559 119.325 82.547 119.325 83.32H119.644C119.644 82.493 119.444 81.7441 119.041 81.0775L118.768 81.2425ZM119.325 83.32C119.325 84.2068 119.068 85.0077 118.554 85.7272L118.814 85.9128C119.367 85.139 119.644 84.2732 119.644 83.32H119.325ZM118.555 85.7261C118.047 86.4241 117.289 86.9132 116.263 87.1857L116.345 87.4943C117.427 87.2068 118.254 86.6825 118.813 85.9139L118.555 85.7261ZM116.167 87.4211L119.507 93.0811L119.782 92.9189L116.442 87.2589L116.167 87.4211ZM119.644 92.8404H116.404V93.1596H119.644V92.8404ZM112.004 85.6196H114.344V85.3004H112.004V85.6196ZM114.344 85.6196C115.126 85.6196 115.741 85.4346 116.155 85.0349L115.933 84.8051C115.601 85.1254 115.082 85.3004 114.344 85.3004V85.6196ZM116.157 85.0329C116.567 84.6228 116.764 84.065 116.764 83.38H116.445C116.445 84.0017 116.268 84.4705 115.931 84.8071L116.157 85.0329ZM116.764 83.38C116.764 82.7077 116.567 82.1673 116.153 81.783L115.936 82.017C116.268 82.3261 116.445 82.7722 116.445 83.38H116.764ZM116.155 81.7851C115.741 81.3854 115.126 81.2004 114.344 81.2004V81.5196C115.082 81.5196 115.601 81.6946 115.933 82.0149L116.155 81.7851ZM114.344 81.2004H112.004V81.5196H114.344V81.2004ZM111.845 81.36V85.46H112.164V81.36H111.845ZM124.817 81.3V81.1404H124.657V81.3H124.817ZM124.817 84.8H124.657V84.9596H124.817V84.8ZM129.517 84.8H129.676V84.6404H129.517V84.8ZM129.517 87.02V87.1796H129.676V87.02H129.517ZM124.817 87.02V86.8604H124.657V87.02H124.817ZM124.817 90.72H124.657V90.8796H124.817V90.72ZM130.117 90.72H130.276V90.5604H130.117V90.72ZM130.117 93V93.1596H130.276V93H130.117ZM122.017 93H121.857V93.1596H122.017V93ZM122.017 79.02V78.8604H121.857V79.02H122.017ZM130.117 79.02H130.276V78.8604H130.117V79.02ZM130.117 81.3V81.4596H130.276V81.3H130.117ZM124.657 81.3V84.8H124.976V81.3H124.657ZM124.817 84.9596H129.517V84.6404H124.817V84.9596ZM129.357 84.8V87.02H129.676V84.8H129.357ZM129.517 86.8604H124.817V87.1796H129.517V86.8604ZM124.657 87.02V90.72H124.976V87.02H124.657ZM124.817 90.8796H130.117V90.5604H124.817V90.8796ZM129.957 90.72V93H130.276V90.72H129.957ZM130.117 92.8404H122.017V93.1596H130.117V92.8404ZM122.176 93V79.02H121.857V93H122.176ZM122.017 79.1796H130.117V78.8604H122.017V79.1796ZM129.957 79.02V81.3H130.276V79.02H129.957ZM130.117 81.1404H124.817V81.4596H130.117V81.1404ZM146.927 79.04H147.087V78.8804H146.927V79.04ZM146.927 81.3V81.4596H147.087V81.3H146.927ZM143.207 81.3V81.1404H143.047V81.3H143.207ZM143.207 93V93.1596H143.367V93H143.207ZM140.407 93H140.247V93.1596H140.407V93ZM140.407 81.3H140.566V81.1404H140.407V81.3ZM136.687 81.3H136.527V81.4596H136.687V81.3ZM136.687 79.04V78.8804H136.527V79.04H136.687ZM146.767 79.04V81.3H147.087V79.04H146.767ZM146.927 81.1404H143.207V81.4596H146.927V81.1404ZM143.047 81.3V93H143.367V81.3H143.047ZM143.207 92.8404H140.407V93.1596H143.207V92.8404ZM140.566 93V81.3H140.247V93H140.566ZM140.407 81.1404H136.687V81.4596H140.407V81.1404ZM136.846 81.3V79.04H136.527V81.3H136.846ZM136.687 79.1996H146.927V78.8804H136.687V79.1996ZM151.77 79.04H151.929V78.8804H151.77V79.04ZM151.77 93V93.1596H151.929V93H151.77ZM148.97 93H148.81V93.1596H148.97V93ZM148.97 79.04V78.8804H148.81V79.04H148.97ZM151.61 79.04V93H151.929V79.04H151.61ZM151.77 92.8404H148.97V93.1596H151.77V92.8404ZM149.129 93V79.04H148.81V93H149.129ZM148.97 79.1996H151.77V78.8804H148.97V79.1996ZM161.736 93L161.597 93.0786L161.643 93.1596H161.736V93ZM158.656 87.56L158.795 87.4814L158.749 87.4004H158.656V87.56ZM157.336 87.56V87.4004H157.177V87.56H157.336ZM157.336 93V93.1596H157.496V93H157.336ZM154.536 93H154.377V93.1596H154.536V93ZM154.536 79.04V78.8804H154.377V79.04H154.536ZM162.536 79.62L162.464 79.7623L162.466 79.7633L162.536 79.62ZM164.236 81.16L164.098 81.2392L164.1 81.2425L164.236 81.16ZM164.016 85.82L164.145 85.9139L164.146 85.9128L164.016 85.82ZM161.636 87.34L161.595 87.1857L161.392 87.2398L161.499 87.4211L161.636 87.34ZM164.976 93V93.1596H165.256L165.114 92.9189L164.976 93ZM157.336 85.46H157.177V85.6196H157.336V85.46ZM161.376 84.92L161.487 85.0349L161.489 85.0329L161.376 84.92ZM161.376 81.9L161.265 82.0149L161.268 82.017L161.376 81.9ZM157.336 81.36V81.2004H157.177V81.36H157.336ZM161.875 92.9214L158.795 87.4814L158.517 87.6386L161.597 93.0786L161.875 92.9214ZM158.656 87.4004H157.336V87.7196H158.656V87.4004ZM157.177 87.56V93H157.496V87.56H157.177ZM157.336 92.8404H154.536V93.1596H157.336V92.8404ZM154.696 93V79.04H154.377V93H154.696ZM154.536 79.1996H159.776V78.8804H154.536V79.1996ZM159.776 79.1996C160.838 79.1996 161.731 79.3896 162.464 79.7623L162.609 79.4777C161.821 79.077 160.875 78.8804 159.776 78.8804V79.1996ZM162.466 79.7633C163.201 80.1244 163.742 80.6169 164.098 81.2392L164.375 81.0808C163.984 80.3964 163.392 79.8623 162.607 79.4767L162.466 79.7633ZM164.1 81.2425C164.47 81.8559 164.657 82.547 164.657 83.32H164.976C164.976 82.493 164.776 81.7441 164.373 81.0775L164.1 81.2425ZM164.657 83.32C164.657 84.2068 164.4 85.0077 163.886 85.7272L164.146 85.9128C164.699 85.139 164.976 84.2732 164.976 83.32H164.657ZM163.887 85.7261C163.38 86.4241 162.621 86.9132 161.595 87.1857L161.677 87.4943C162.759 87.2068 163.586 86.6825 164.145 85.9139L163.887 85.7261ZM161.499 87.4211L164.839 93.0811L165.114 92.9189L161.774 87.2589L161.499 87.4211ZM164.976 92.8404H161.736V93.1596H164.976V92.8404ZM157.336 85.6196H159.676V85.3004H157.336V85.6196ZM159.676 85.6196C160.459 85.6196 161.073 85.4346 161.487 85.0349L161.265 84.8051C160.933 85.1254 160.414 85.3004 159.676 85.3004V85.6196ZM161.489 85.0329C161.899 84.6228 162.096 84.065 162.096 83.38H161.777C161.777 84.0017 161.6 84.4705 161.263 84.8071L161.489 85.0329ZM162.096 83.38C162.096 82.7077 161.899 82.1673 161.485 81.783L161.268 82.017C161.601 82.3261 161.777 82.7722 161.777 83.38H162.096ZM161.487 81.7851C161.073 81.3854 160.459 81.2004 159.676 81.2004V81.5196C160.414 81.5196 160.933 81.6946 161.265 82.0149L161.487 81.7851ZM159.676 81.2004H157.336V81.5196H159.676V81.2004ZM157.177 81.36V85.46H157.496V81.36H157.177ZM170.149 81.3V81.1404H169.989V81.3H170.149ZM170.149 84.8H169.989V84.9596H170.149V84.8ZM174.849 84.8H175.008V84.6404H174.849V84.8ZM174.849 87.02V87.1796H175.008V87.02H174.849ZM170.149 87.02V86.8604H169.989V87.02H170.149ZM170.149 90.72H169.989V90.8796H170.149V90.72ZM175.449 90.72H175.608V90.5604H175.449V90.72ZM175.449 93V93.1596H175.608V93H175.449ZM167.349 93H167.189V93.1596H167.349V93ZM167.349 79.02V78.8604H167.189V79.02H167.349ZM175.449 79.02H175.608V78.8604H175.449V79.02ZM175.449 81.3V81.4596H175.608V81.3H175.449ZM169.989 81.3V84.8H170.308V81.3H169.989ZM170.149 84.9596H174.849V84.6404H170.149V84.9596ZM174.689 84.8V87.02H175.008V84.8H174.689ZM174.849 86.8604H170.149V87.1796H174.849V86.8604ZM169.989 87.02V90.72H170.308V87.02H169.989ZM170.149 90.8796H175.449V90.5604H170.149V90.8796ZM175.289 90.72V93H175.608V90.72H175.289ZM175.449 92.8404H167.349V93.1596H175.449V92.8404ZM167.508 93V79.02H167.189V93H167.508ZM167.349 79.1796H175.449V78.8604H167.349V79.1796ZM175.289 79.02V81.3H175.608V79.02H175.289ZM175.449 81.1404H170.149V81.4596H175.449V81.1404ZM186.733 79.9L186.66 80.0417L186.661 80.0421L186.733 79.9ZM189.313 82.36L189.174 82.4383L189.175 82.4403L189.313 82.36ZM189.313 89.72L189.175 89.6397L189.175 89.6402L189.313 89.72ZM186.733 92.14L186.661 91.9979L186.66 91.9983L186.733 92.14ZM177.993 93H177.834V93.1596H177.993V93ZM177.993 79.04V78.8804H177.834V79.04H177.993ZM186.173 89.42L186.06 89.3071L186.173 89.42ZM186.173 82.64L186.059 82.751L186.059 82.7519L186.173 82.64ZM180.793 81.4V81.2404H180.634V81.4H180.793ZM180.793 90.62H180.634V90.7796H180.793V90.62ZM182.873 79.1996C184.319 79.1996 185.58 79.4821 186.66 80.0417L186.807 79.7583C185.674 79.1713 184.361 78.8804 182.873 78.8804V79.1996ZM186.661 80.0421C187.753 80.6016 188.59 81.3997 189.174 82.4383L189.452 82.2817C188.837 81.1869 187.953 80.3451 186.806 79.7579L186.661 80.0421ZM189.175 82.4403C189.772 83.4658 190.074 84.664 190.074 86.04H190.393C190.393 84.616 190.081 83.3608 189.451 82.2797L189.175 82.4403ZM190.074 86.04C190.074 87.416 189.772 88.6142 189.175 89.6397L189.451 89.8003C190.081 88.7192 190.393 87.464 190.393 86.04H190.074ZM189.175 89.6402C188.591 90.6523 187.755 91.4379 186.661 91.9979L186.806 92.2821C187.952 91.6954 188.835 90.8677 189.452 89.7998L189.175 89.6402ZM186.66 91.9983C185.58 92.5579 184.319 92.8404 182.873 92.8404V93.1596C184.361 93.1596 185.674 92.8687 186.807 92.2817L186.66 91.9983ZM182.873 92.8404H177.993V93.1596H182.873V92.8404ZM178.153 93V79.04H177.834V93H178.153ZM177.993 79.1996H182.873V78.8804H177.993V79.1996ZM182.773 90.7796C184.269 90.7796 185.448 90.3709 186.286 89.5329L186.06 89.3071C185.298 90.0691 184.211 90.4604 182.773 90.4604V90.7796ZM186.286 89.5329C187.124 88.6951 187.533 87.5231 187.533 86.04H187.214C187.214 87.4636 186.823 88.5449 186.06 89.3071L186.286 89.5329ZM187.533 86.04C187.533 84.5568 187.124 83.3788 186.287 82.5281L186.059 82.7519C186.823 83.5278 187.214 84.6165 187.214 86.04H187.533ZM186.288 82.529C185.45 81.6633 184.271 81.2404 182.773 81.2404V81.5596C184.209 81.5596 185.296 81.9634 186.059 82.751L186.288 82.529ZM182.773 81.2404H180.793V81.5596H182.773V81.2404ZM180.634 81.4V90.62H180.953V81.4H180.634ZM180.793 90.7796H182.773V90.4604H180.793V90.7796ZM199.975 92.22L200.053 92.0808L199.975 92.22ZM197.375 89.68L197.237 89.7606L197.238 89.7614L197.375 89.68ZM197.375 82.32L197.512 82.4014L197.513 82.4006L197.375 82.32ZM199.975 79.76L199.897 79.6208L199.975 79.76ZM207.175 79.76L207.096 79.8988L207.097 79.8992L207.175 79.76ZM209.755 82.32L209.616 82.3994L209.618 82.4014L209.755 82.32ZM209.755 89.68L209.617 89.5994L209.617 89.5999L209.755 89.68ZM207.175 92.22L207.097 92.0808L207.175 92.22ZM205.795 90.08L205.875 90.2179L205.877 90.2166L205.795 90.08ZM207.295 88.44L207.437 88.5125V88.5125L207.295 88.44ZM207.295 83.54L207.153 83.6125L207.153 83.6136L207.295 83.54ZM205.795 81.92L205.714 82.0579L205.795 81.92ZM201.335 81.92L201.256 81.7814L201.254 81.7821L201.335 81.92ZM199.835 83.54L199.977 83.6136L199.977 83.6125L199.835 83.54ZM199.835 88.44L199.977 88.3675L199.835 88.44ZM201.335 90.08L201.252 90.2167L201.256 90.2186L201.335 90.08ZM203.575 92.9804C202.294 92.9804 201.121 92.6802 200.053 92.0808L199.897 92.3592C201.015 92.9865 202.242 93.2996 203.575 93.2996V92.9804ZM200.053 92.0808C198.984 91.4812 198.138 90.6545 197.512 89.5986L197.238 89.7614C197.892 90.8655 198.779 91.7321 199.897 92.3592L200.053 92.0808ZM197.513 89.5994C196.888 88.5325 196.574 87.3274 196.574 85.98H196.255C196.255 87.3792 196.582 88.6408 197.237 89.7606L197.513 89.5994ZM196.574 85.98C196.574 84.6462 196.888 83.4547 197.512 82.4014L197.238 82.2386C196.582 83.3453 196.255 84.5938 196.255 85.98H196.574ZM197.513 82.4006C198.138 81.3315 198.985 80.4985 200.053 79.8992L199.897 79.6208C198.778 80.2481 197.891 81.1218 197.237 82.2394L197.513 82.4006ZM200.053 79.8992C201.121 79.2998 202.294 78.9996 203.575 78.9996V78.6804C202.242 78.6804 201.015 78.9935 199.897 79.6208L200.053 79.8992ZM203.575 78.9996C204.869 78.9996 206.042 79.3 207.096 79.8988L207.254 79.6212C206.148 78.9934 204.921 78.6804 203.575 78.6804V78.9996ZM207.097 79.8992C208.165 80.4983 209.004 81.3309 209.616 82.3994L209.893 82.2406C209.252 81.1224 208.372 80.2483 207.253 79.6208L207.097 79.8992ZM209.618 82.4014C210.242 83.4547 210.555 84.6462 210.555 85.98H210.874C210.874 84.5938 210.548 83.3453 209.892 82.2386L209.618 82.4014ZM210.555 85.98C210.555 87.3274 210.242 88.5325 209.617 89.5994L209.893 89.7606C210.548 88.6408 210.874 87.3792 210.874 85.98H210.555ZM209.617 89.5999C209.005 90.6551 208.165 91.4814 207.097 92.0808L207.253 92.3592C208.371 91.732 209.252 90.8649 209.893 89.7601L209.617 89.5999ZM207.097 92.0808C206.028 92.6802 204.855 92.9804 203.575 92.9804V93.2996C204.908 93.2996 206.135 92.9865 207.253 92.3592L207.097 92.0808ZM203.575 90.7996C204.439 90.7996 205.208 90.6073 205.875 90.2179L205.714 89.9421C205.102 90.2994 204.39 90.4804 203.575 90.4804V90.7996ZM205.877 90.2166C206.544 89.8136 207.064 89.244 207.437 88.5125L207.153 88.3675C206.805 89.0494 206.325 89.5731 205.712 89.9434L205.877 90.2166ZM207.437 88.5125C207.81 87.7797 207.994 86.9341 207.994 85.98H207.675C207.675 86.8926 207.499 87.687 207.153 88.3675L207.437 88.5125ZM207.994 85.98C207.994 85.026 207.81 84.1865 207.437 83.4664L207.153 83.6136C207.499 84.2801 207.675 85.0673 207.675 85.98H207.994ZM207.437 83.4675C207.064 82.7356 206.544 82.172 205.875 81.7821L205.714 82.0579C206.326 82.4147 206.805 82.9311 207.153 83.6125L207.437 83.4675ZM205.875 81.7821C205.208 81.3927 204.439 81.2004 203.575 81.2004V81.5196C204.39 81.5196 205.102 81.7006 205.714 82.0579L205.875 81.7821ZM203.575 81.2004C202.71 81.2004 201.936 81.3927 201.256 81.7814L201.414 82.0586C202.041 81.7006 202.759 81.5196 203.575 81.5196V81.2004ZM201.254 81.7821C200.586 82.172 200.065 82.7356 199.693 83.4675L199.977 83.6125C200.324 82.9311 200.804 82.4147 201.415 82.0579L201.254 81.7821ZM199.693 83.4664C199.319 84.1865 199.135 85.026 199.135 85.98H199.454C199.454 85.0673 199.63 84.2801 199.977 83.6136L199.693 83.4664ZM199.135 85.98C199.135 86.9341 199.319 87.7797 199.693 88.5125L199.977 88.3675C199.63 87.687 199.454 86.8926 199.454 85.98H199.135ZM199.693 88.5125C200.065 89.244 200.585 89.8136 201.252 90.2166L201.417 89.9434C200.804 89.5731 200.324 89.0494 199.977 88.3675L199.693 88.5125ZM201.256 90.2186C201.936 90.6073 202.71 90.7996 203.575 90.7996V90.4804C202.759 90.4804 202.041 90.2994 201.414 89.9414L201.256 90.2186ZM221.418 79.04H221.578V78.8804H221.418V79.04ZM221.418 81.3V81.4596H221.578V81.3H221.418ZM215.598 81.3V81.1404H215.438V81.3H215.598ZM215.598 84.88H215.438V85.0396H215.598V84.88ZM220.058 84.88H220.218V84.7204H220.058V84.88ZM220.058 87.1V87.2596H220.218V87.1H220.058ZM215.598 87.1V86.9404H215.438V87.1H215.598ZM215.598 93V93.1596H215.758V93H215.598ZM212.798 93H212.638V93.1596H212.798V93ZM212.798 79.04V78.8804H212.638V79.04H212.798ZM221.258 79.04V81.3H221.578V79.04H221.258ZM221.418 81.1404H215.598V81.4596H221.418V81.1404ZM215.438 81.3V84.88H215.758V81.3H215.438ZM215.598 85.0396H220.058V84.7204H215.598V85.0396ZM219.898 84.88V87.1H220.218V84.88H219.898ZM220.058 86.9404H215.598V87.2596H220.058V86.9404ZM215.438 87.1V93H215.758V87.1H215.438ZM215.598 92.8404H212.798V93.1596H215.598V92.8404ZM212.958 93V79.04H212.638V93H212.958ZM212.798 79.1996H221.418V78.8804H212.798V79.1996ZM230.969 90.78H230.809V90.9396H230.969V90.78ZM235.569 90.78H235.729V90.6204H235.569V90.78ZM235.569 93V93.1596H235.729V93H235.569ZM228.169 93H228.009V93.1596H228.169V93ZM228.169 79.04V78.8804H228.009V79.04H228.169ZM230.969 79.04H231.129V78.8804H230.969V79.04ZM230.969 90.9396H235.569V90.6204H230.969V90.9396ZM235.409 90.78V93H235.729V90.78H235.409ZM235.569 92.8404H228.169V93.1596H235.569V92.8404ZM228.329 93V79.04H228.009V93H228.329ZM228.169 79.1996H230.969V78.8804H228.169V79.1996ZM230.809 79.04V90.78H231.129V79.04H230.809ZM240.149 79.04H240.308V78.8804H240.149V79.04ZM240.149 93V93.1596H240.308V93H240.149ZM237.349 93H237.189V93.1596H237.349V93ZM237.349 79.04V78.8804H237.189V79.04H237.349ZM239.989 79.04V93H240.308V79.04H239.989ZM240.149 92.8404H237.349V93.1596H240.149V92.8404ZM237.508 93V79.04H237.189V93H237.508ZM237.349 79.1996H240.149V78.8804H237.349V79.1996ZM251.535 79.04H251.695V78.8804H251.535V79.04ZM251.535 81.3V81.4596H251.695V81.3H251.535ZM245.715 81.3V81.1404H245.556V81.3H245.715ZM245.715 84.88H245.556V85.0396H245.715V84.88ZM250.175 84.88H250.335V84.7204H250.175V84.88ZM250.175 87.1V87.2596H250.335V87.1H250.175ZM245.715 87.1V86.9404H245.556V87.1H245.715ZM245.715 93V93.1596H245.875V93H245.715ZM242.915 93H242.756V93.1596H242.915V93ZM242.915 79.04V78.8804H242.756V79.04H242.915ZM251.376 79.04V81.3H251.695V79.04H251.376ZM251.535 81.1404H245.715V81.4596H251.535V81.1404ZM245.556 81.3V84.88H245.875V81.3H245.556ZM245.715 85.0396H250.175V84.7204H245.715V85.0396ZM250.016 84.88V87.1H250.335V84.88H250.016ZM250.175 86.9404H245.715V87.2596H250.175V86.9404ZM245.556 87.1V93H245.875V87.1H245.556ZM245.715 92.8404H242.915V93.1596H245.715V92.8404ZM243.075 93V79.04H242.756V93H243.075ZM242.915 79.1996H251.535V78.8804H242.915V79.1996ZM256.321 81.3V81.1404H256.161V81.3H256.321ZM256.321 84.8H256.161V84.9596H256.321V84.8ZM261.021 84.8H261.18V84.6404H261.021V84.8ZM261.021 87.02V87.1796H261.18V87.02H261.021ZM256.321 87.02V86.8604H256.161V87.02H256.321ZM256.321 90.72H256.161V90.8796H256.321V90.72ZM261.621 90.72H261.78V90.5604H261.621V90.72ZM261.621 93V93.1596H261.78V93H261.621ZM253.521 93H253.361V93.1596H253.521V93ZM253.521 79.02V78.8604H253.361V79.02H253.521ZM261.621 79.02H261.78V78.8604H261.621V79.02ZM261.621 81.3V81.4596H261.78V81.3H261.621ZM256.161 81.3V84.8H256.48V81.3H256.161ZM256.321 84.9596H261.021V84.6404H256.321V84.9596ZM260.861 84.8V87.02H261.18V84.8H260.861ZM261.021 86.8604H256.321V87.1796H261.021V86.8604ZM256.161 87.02V90.72H256.48V87.02H256.161ZM256.321 90.8796H261.621V90.5604H256.321V90.8796ZM261.461 90.72V93H261.78V90.72H261.461ZM261.621 92.8404H253.521V93.1596H261.621V92.8404ZM253.68 93V79.02H253.361V93H253.68ZM253.521 79.1796H261.621V78.8604H253.521V79.1796ZM261.461 79.02V81.3H261.78V79.02H261.461ZM261.621 81.1404H256.321V81.4596H261.621V81.1404Z" fill="#FD4525" mask="url(#path-1-outside-1_686_343)"/>
</svg>
