<svg width="300" height="150" viewBox="0 0 300 150" fill="none" xmlns="http://www.w3.org/2000/svg">
<path d="M88.672 36.93L82.692 48.448V55H79.728V48.448L73.722 36.93H77.024L81.21 45.796L85.396 36.93H88.672ZM99.2662 55.182C97.5849 55.182 96.0336 54.792 94.6122 54.012C93.2082 53.2147 92.0902 52.114 91.2582 50.71C90.4436 49.2887 90.0362 47.694 90.0362 45.926C90.0362 44.158 90.4436 42.572 91.2582 41.168C92.0902 39.764 93.2082 38.672 94.6122 37.892C96.0336 37.0947 97.5849 36.696 99.2662 36.696C100.965 36.696 102.516 37.0947 103.92 37.892C105.342 38.672 106.46 39.764 107.274 41.168C108.089 42.572 108.496 44.158 108.496 45.926C108.496 47.694 108.089 49.2887 107.274 50.71C106.46 52.114 105.342 53.2147 103.92 54.012C102.516 54.792 100.965 55.182 99.2662 55.182ZM99.2662 52.608C100.462 52.608 101.528 52.3393 102.464 51.802C103.4 51.2473 104.128 50.4673 104.648 49.462C105.186 48.4393 105.454 47.2607 105.454 45.926C105.454 44.5913 105.186 43.4213 104.648 42.416C104.128 41.4107 103.4 40.6393 102.464 40.102C101.528 39.5647 100.462 39.296 99.2662 39.296C98.0702 39.296 97.0042 39.5647 96.0682 40.102C95.1322 40.6393 94.3956 41.4107 93.8582 42.416C93.3382 43.4213 93.0782 44.5913 93.0782 45.926C93.0782 47.2607 93.3382 48.4393 93.8582 49.462C94.3956 50.4673 95.1322 51.2473 96.0682 51.802C97.0042 52.3393 98.0702 52.608 99.2662 52.608ZM114.351 36.93V48.448C114.351 49.8173 114.706 50.8487 115.417 51.542C116.145 52.2353 117.15 52.582 118.433 52.582C119.733 52.582 120.738 52.2353 121.449 51.542C122.177 50.8487 122.541 49.8173 122.541 48.448V36.93H125.505V48.396C125.505 49.8693 125.184 51.1173 124.543 52.14C123.902 53.1627 123.044 53.9253 121.969 54.428C120.894 54.9307 119.707 55.182 118.407 55.182C117.107 55.182 115.92 54.9307 114.845 54.428C113.788 53.9253 112.947 53.1627 112.323 52.14C111.699 51.1173 111.387 49.8693 111.387 48.396V36.93H114.351ZM135.13 45.926C135.13 44.158 135.537 42.572 136.352 41.168C137.184 39.764 138.302 38.672 139.706 37.892C141.127 37.0947 142.679 36.696 144.36 36.696C146.284 36.696 147.991 37.1727 149.482 38.126C150.99 39.062 152.082 40.3967 152.758 42.13H149.196C148.728 41.1767 148.078 40.466 147.246 39.998C146.414 39.53 145.452 39.296 144.36 39.296C143.164 39.296 142.098 39.5647 141.162 40.102C140.226 40.6393 139.489 41.4107 138.952 42.416C138.432 43.4213 138.172 44.5913 138.172 45.926C138.172 47.2607 138.432 48.4307 138.952 49.436C139.489 50.4413 140.226 51.2213 141.162 51.776C142.098 52.3133 143.164 52.582 144.36 52.582C145.452 52.582 146.414 52.348 147.246 51.88C148.078 51.412 148.728 50.7013 149.196 49.748H152.758C152.082 51.4813 150.99 52.816 149.482 53.752C147.991 54.688 146.284 55.156 144.36 55.156C142.661 55.156 141.11 54.766 139.706 53.986C138.302 53.1887 137.184 52.088 136.352 50.684C135.537 49.28 135.13 47.694 135.13 45.926ZM167.121 51.308H159.555L158.255 55H155.161L161.635 36.904H165.067L171.541 55H168.421L167.121 51.308ZM166.289 48.89L163.351 40.492L160.387 48.89H166.289ZM189.202 55H186.238L177.32 41.506V55H174.356V36.904H177.32L186.238 50.372V36.904H189.202V55ZM208.09 55.182C206.409 55.182 204.858 54.792 203.436 54.012C202.032 53.2147 200.914 52.114 200.082 50.71C199.268 49.2887 198.86 47.694 198.86 45.926C198.86 44.158 199.268 42.572 200.082 41.168C200.914 39.764 202.032 38.672 203.436 37.892C204.858 37.0947 206.409 36.696 208.09 36.696C209.789 36.696 211.34 37.0947 212.744 37.892C214.166 38.672 215.284 39.764 216.098 41.168C216.913 42.572 217.32 44.158 217.32 45.926C217.32 47.694 216.913 49.2887 216.098 50.71C215.284 52.114 214.166 53.2147 212.744 54.012C211.34 54.792 209.789 55.182 208.09 55.182ZM208.09 52.608C209.286 52.608 210.352 52.3393 211.288 51.802C212.224 51.2473 212.952 50.4673 213.472 49.462C214.01 48.4393 214.278 47.2607 214.278 45.926C214.278 44.5913 214.01 43.4213 213.472 42.416C212.952 41.4107 212.224 40.6393 211.288 40.102C210.352 39.5647 209.286 39.296 208.09 39.296C206.894 39.296 205.828 39.5647 204.892 40.102C203.956 40.6393 203.22 41.4107 202.682 42.416C202.162 43.4213 201.902 44.5913 201.902 45.926C201.902 47.2607 202.162 48.4393 202.682 49.462C203.22 50.4673 203.956 51.2473 204.892 51.802C205.828 52.3393 206.894 52.608 208.09 52.608ZM243.767 36.93L238.411 55H235.057L231.261 41.324L227.231 55L223.903 55.026L218.781 36.93H221.927L225.671 51.646L229.727 36.93H233.055L236.825 51.568L240.595 36.93H243.767ZM261.058 55H258.094L249.176 41.506V55H246.212V36.904H249.176L258.094 50.372V36.904H261.058V55ZM57.5608 80.308H49.9948L48.6948 84H45.6008L52.0748 65.904H55.5068L61.9808 84H58.8608L57.5608 80.308ZM56.7288 77.89L53.7908 69.492L50.8268 77.89H56.7288ZM80.9356 84L76.7756 76.772H74.5136V84H71.5496V65.93H77.7896C79.1763 65.93 80.3463 66.1727 81.2996 66.658C82.2703 67.1433 82.9896 67.7933 83.4576 68.608C83.9429 69.4227 84.1856 70.3327 84.1856 71.338C84.1856 72.5167 83.8389 73.5913 83.1456 74.562C82.4696 75.5153 81.4209 76.1653 79.9996 76.512L84.4716 84H80.9356ZM74.5136 74.406H77.7896C78.8989 74.406 79.7309 74.1287 80.2856 73.574C80.8576 73.0193 81.1436 72.274 81.1436 71.338C81.1436 70.402 80.8663 69.674 80.3116 69.154C79.7569 68.6167 78.9163 68.348 77.7896 68.348H74.5136V74.406ZM90.9413 68.322V73.626H97.1813V76.044H90.9413V81.582H97.9613V84H87.9773V65.904H97.9613V68.322H90.9413ZM107.566 84.182C106.353 84.182 105.261 83.974 104.29 83.558C103.319 83.1247 102.557 82.518 102.002 81.738C101.447 80.958 101.17 80.048 101.17 79.008H104.342C104.411 79.788 104.715 80.4293 105.252 80.932C105.807 81.4347 106.578 81.686 107.566 81.686C108.589 81.686 109.386 81.4433 109.958 80.958C110.53 80.4553 110.816 79.814 110.816 79.034C110.816 78.4273 110.634 77.9333 110.27 77.552C109.923 77.1707 109.481 76.876 108.944 76.668C108.424 76.46 107.696 76.2347 106.76 75.992C105.581 75.68 104.619 75.368 103.874 75.056C103.146 74.7267 102.522 74.224 102.002 73.548C101.482 72.872 101.222 71.9707 101.222 70.844C101.222 69.804 101.482 68.894 102.002 68.114C102.522 67.334 103.25 66.736 104.186 66.32C105.122 65.904 106.205 65.696 107.436 65.696C109.187 65.696 110.617 66.138 111.726 67.022C112.853 67.8887 113.477 69.0847 113.598 70.61H110.322C110.27 69.9513 109.958 69.388 109.386 68.92C108.814 68.452 108.06 68.218 107.124 68.218C106.275 68.218 105.581 68.4347 105.044 68.868C104.507 69.3013 104.238 69.9253 104.238 70.74C104.238 71.2947 104.403 71.754 104.732 72.118C105.079 72.4647 105.512 72.742 106.032 72.95C106.552 73.158 107.263 73.3833 108.164 73.626C109.36 73.9553 110.331 74.2847 111.076 74.614C111.839 74.9433 112.48 75.4547 113 76.148C113.537 76.824 113.806 77.734 113.806 78.878C113.806 79.7967 113.555 80.6633 113.052 81.478C112.567 82.2927 111.847 82.9513 110.894 83.454C109.958 83.9393 108.849 84.182 107.566 84.182ZM128.978 65.93V68.348H124.168V84H121.204V68.348H116.368V65.93H128.978ZM149.627 80.308H142.061L140.761 84H137.667L144.141 65.904H147.573L154.047 84H150.927L149.627 80.308ZM148.795 77.89L145.857 69.492L142.893 77.89H148.795ZM171.708 84H168.744L159.826 70.506V84H156.862V65.904H159.826L168.744 79.372V65.904H171.708V84ZM181.502 65.93C183.426 65.93 185.108 66.3027 186.546 67.048C188.002 67.776 189.12 68.8333 189.9 70.22C190.698 71.5893 191.096 73.1927 191.096 75.03C191.096 76.8673 190.698 78.462 189.9 79.814C189.12 81.166 188.002 82.206 186.546 82.934C185.108 83.6447 183.426 84 181.502 84H175.6V65.93H181.502ZM181.502 81.582C183.617 81.582 185.238 81.01 186.364 79.866C187.491 78.722 188.054 77.11 188.054 75.03C188.054 72.9327 187.491 71.2947 186.364 70.116C185.238 68.9373 183.617 68.348 181.502 68.348H178.564V81.582H181.502ZM218.176 65.93V68.348H210.506V73.678H216.486V76.096H210.506V84H207.542V65.93H218.176ZM223.887 65.93V84H220.923V65.93H223.887ZM242.624 84H239.66L230.742 70.506V84H227.778V65.904H230.742L239.66 79.372V65.904H242.624V84ZM252.418 65.93C254.342 65.93 256.024 66.3027 257.462 67.048C258.918 67.776 260.036 68.8333 260.816 70.22C261.614 71.5893 262.012 73.1927 262.012 75.03C262.012 76.8673 261.614 78.462 260.816 79.814C260.036 81.166 258.918 82.206 257.462 82.934C256.024 83.6447 254.342 84 252.418 84H246.516V65.93H252.418ZM252.418 81.582C254.533 81.582 256.154 81.01 257.28 79.866C258.407 78.722 258.97 77.11 258.97 75.03C258.97 72.9327 258.407 71.2947 257.28 70.116C256.154 68.9373 254.533 68.348 252.418 68.348H249.48V81.582H252.418ZM153.57 94.93L147.59 106.448V113H144.626V106.448L138.62 94.93H141.922L146.108 103.796L150.294 94.93H153.57ZM164.165 113.182C162.483 113.182 160.932 112.792 159.511 112.012C158.107 111.215 156.989 110.114 156.157 108.71C155.342 107.289 154.935 105.694 154.935 103.926C154.935 102.158 155.342 100.572 156.157 99.168C156.989 97.764 158.107 96.672 159.511 95.892C160.932 95.0947 162.483 94.696 164.165 94.696C165.863 94.696 167.415 95.0947 168.819 95.892C170.24 96.672 171.358 97.764 172.173 99.168C172.987 100.572 173.395 102.158 173.395 103.926C173.395 105.694 172.987 107.289 172.173 108.71C171.358 110.114 170.24 111.215 168.819 112.012C167.415 112.792 165.863 113.182 164.165 113.182ZM164.165 110.608C165.361 110.608 166.427 110.339 167.363 109.802C168.299 109.247 169.027 108.467 169.547 107.462C170.084 106.439 170.353 105.261 170.353 103.926C170.353 102.591 170.084 101.421 169.547 100.416C169.027 99.4107 168.299 98.6393 167.363 98.102C166.427 97.5647 165.361 97.296 164.165 97.296C162.969 97.296 161.903 97.5647 160.967 98.102C160.031 98.6393 159.294 99.4107 158.757 100.416C158.237 101.421 157.977 102.591 157.977 103.926C157.977 105.261 158.237 106.439 158.757 107.462C159.294 108.467 160.031 109.247 160.967 109.802C161.903 110.339 162.969 110.608 164.165 110.608ZM179.249 94.93V106.448C179.249 107.817 179.605 108.849 180.315 109.542C181.043 110.235 182.049 110.582 183.331 110.582C184.631 110.582 185.637 110.235 186.347 109.542C187.075 108.849 187.439 107.817 187.439 106.448V94.93H190.403V106.396C190.403 107.869 190.083 109.117 189.441 110.14C188.8 111.163 187.942 111.925 186.867 112.428C185.793 112.931 184.605 113.182 183.305 113.182C182.005 113.182 180.818 112.931 179.743 112.428C178.686 111.925 177.845 111.163 177.221 110.14C176.597 109.117 176.285 107.869 176.285 106.396V94.93H179.249ZM203.649 113L199.489 105.772H197.227V113H194.263V94.93H200.503C201.889 94.93 203.059 95.1727 204.013 95.658C204.983 96.1433 205.703 96.7933 206.171 97.608C206.656 98.4227 206.899 99.3327 206.899 100.338C206.899 101.517 206.552 102.591 205.859 103.562C205.183 104.515 204.134 105.165 202.713 105.512L207.185 113H203.649ZM197.227 103.406H200.503C201.612 103.406 202.444 103.129 202.999 102.574C203.571 102.019 203.857 101.274 203.857 100.338C203.857 99.402 203.579 98.674 203.025 98.154C202.47 97.6167 201.629 97.348 200.503 97.348H197.227V103.406ZM216.644 113.182C215.431 113.182 214.339 112.974 213.368 112.558C212.398 112.125 211.635 111.518 211.08 110.738C210.526 109.958 210.248 109.048 210.248 108.008H213.42C213.49 108.788 213.793 109.429 214.33 109.932C214.885 110.435 215.656 110.686 216.644 110.686C217.667 110.686 218.464 110.443 219.036 109.958C219.608 109.455 219.894 108.814 219.894 108.034C219.894 107.427 219.712 106.933 219.348 106.552C219.002 106.171 218.56 105.876 218.022 105.668C217.502 105.46 216.774 105.235 215.838 104.992C214.66 104.68 213.698 104.368 212.952 104.056C212.224 103.727 211.6 103.224 211.08 102.548C210.56 101.872 210.3 100.971 210.3 99.844C210.3 98.804 210.56 97.894 211.08 97.114C211.6 96.334 212.328 95.736 213.264 95.32C214.2 94.904 215.284 94.696 216.514 94.696C218.265 94.696 219.695 95.138 220.804 96.022C221.931 96.8887 222.555 98.0847 222.676 99.61H219.4C219.348 98.9513 219.036 98.388 218.464 97.92C217.892 97.452 217.138 97.218 216.202 97.218C215.353 97.218 214.66 97.4347 214.122 97.868C213.585 98.3013 213.316 98.9253 213.316 99.74C213.316 100.295 213.481 100.754 213.81 101.118C214.157 101.465 214.59 101.742 215.11 101.95C215.63 102.158 216.341 102.383 217.242 102.626C218.438 102.955 219.409 103.285 220.154 103.614C220.917 103.943 221.558 104.455 222.078 105.148C222.616 105.824 222.884 106.734 222.884 107.878C222.884 108.797 222.633 109.663 222.13 110.478C221.645 111.293 220.926 111.951 219.972 112.454C219.036 112.939 217.927 113.182 216.644 113.182ZM229.346 97.322V102.626H235.586V105.044H229.346V110.582H236.366V113H226.382V94.904H236.366V97.322H229.346ZM242.98 110.608H249.09V113H240.016V94.93H242.98V110.608ZM262.203 94.93V97.348H254.533V102.678H260.513V105.096H254.533V113H251.569V94.93H262.203Z" fill="#FD4525"/>
</svg>
