<svg width="300" height="150" viewBox="0 0 300 150" fill="none" xmlns="http://www.w3.org/2000/svg">
<path d="M40.8234 51.6934C41.3821 51.6934 41.8855 51.8458 42.3334 52.1506C42.7813 52.4507 43.1438 52.8825 43.4208 53.4458C43.7025 54.0046 43.8757 54.6626 43.9403 55.4199H46.5031V50.7653H47.8053V63.2052H46.5031V56.4865H43.9542C43.908 57.2808 43.7464 57.9734 43.4693 58.5645C43.1923 59.1555 42.8252 59.6104 42.368 59.929C41.9109 60.2476 41.396 60.4069 40.8234 60.4069C40.2046 60.4069 39.6575 60.2291 39.1818 59.8736C38.7062 59.5134 38.3345 59.0055 38.0667 58.3498C37.8035 57.6894 37.6742 56.9206 37.6788 56.0432C37.6742 55.1705 37.8035 54.4063 38.0667 53.7506C38.3345 53.0903 38.7062 52.5823 39.1818 52.2268C39.6621 51.8712 40.2093 51.6934 40.8234 51.6934ZM40.8234 52.8709C40.4494 52.8709 40.1192 53.0002 39.8329 53.2588C39.5466 53.5174 39.3227 53.8868 39.1611 54.367C39.0041 54.8427 38.9256 55.4014 38.9256 56.0432C38.9256 56.6897 39.0041 57.2531 39.1611 57.7333C39.3227 58.2135 39.5466 58.5829 39.8329 58.8415C40.1192 59.1001 40.4494 59.2294 40.8234 59.2294C41.1974 59.2294 41.5276 59.1001 41.8139 58.8415C42.1002 58.5829 42.3218 58.2135 42.4788 57.7333C42.6404 57.2531 42.7213 56.6897 42.7213 56.0432C42.7213 55.4014 42.6404 54.8427 42.4788 54.367C42.3218 53.8868 42.1002 53.5174 41.8139 53.2588C41.5276 53.0002 41.1974 52.8709 40.8234 52.8709ZM56.0755 54.5056H51.6425V55.8355C52.8893 55.8308 53.9283 55.8054 54.7594 55.7593C55.5906 55.7131 56.4403 55.623 57.3084 55.4891L57.4331 56.4865C56.5188 56.6389 55.616 56.7428 54.7248 56.7982C53.8382 56.849 52.7184 56.8744 51.3655 56.8744H50.3542V53.5497H54.7871V52.3722H50.3127V51.361H56.0755V54.5056ZM60.0097 60.8364H53.1941V62.0277H60.4253V63.0528H51.8919V59.8667H58.666V58.8138H51.8503V57.7887H60.0097V60.8364ZM60.0097 57.2762H58.6937V50.7653H60.0097V57.2762ZM69.8868 52.9679C69.8868 53.4897 70.0069 53.9976 70.247 54.4917C70.4871 54.9858 70.8334 55.4268 71.286 55.8147C71.7385 56.2026 72.2695 56.5004 72.8791 56.7082L72.2003 57.7333C71.5169 57.4932 70.9189 57.1399 70.4063 56.6736C69.8984 56.2026 69.5082 55.6554 69.2357 55.032C68.9633 55.7246 68.5593 56.3318 68.0236 56.8536C67.4926 57.3708 66.8623 57.7564 66.1327 58.0104L65.4539 56.9714C66.0773 56.759 66.6222 56.4473 67.0885 56.0363C67.5549 55.6207 67.9128 55.1474 68.1621 54.6164C68.4161 54.0854 68.5431 53.5405 68.5431 52.9818V52.6354H65.8556V51.5688H72.5466V52.6354H69.8868V52.9679ZM75.7882 63.1775H74.4721V59.8805H67.3794V58.8138H75.7882V63.1775ZM75.7882 58.1904H74.4721V55.0043H72.1726V53.9237H74.4721V50.7653H75.7882V58.1904ZM89.0454 59.1047H83.9752V63.1775H82.6869V59.1047H77.686V58.0658H89.0454V59.1047ZM80.4012 52.8848H86.3025V51.264H87.6186V56.6528H79.099V51.264H80.4012V52.8848ZM86.3025 55.6V53.9376H80.4012V55.6H86.3025ZM100.308 63.2052H99.0057V56.4311H96.5398V55.3506H99.0057V50.7653H100.308V63.2052ZM96.332 52.9402H91.8576V55.3506H95.8056V56.4034H91.8576V59.174C93.0073 59.1694 93.9632 59.144 94.7251 59.0978C95.487 59.0516 96.2535 58.9616 97.0247 58.8277L97.1632 59.8944C96.309 60.0329 95.457 60.1275 94.6074 60.1783C93.7623 60.2291 92.7257 60.2592 91.4974 60.2684H90.5277V51.8735H96.332V52.9402ZM116.031 58.1212H114.715V56.6112H111.584V55.5307H114.715V54.0207H111.709C111.312 55.0089 110.661 55.8539 109.756 56.5558C108.85 57.2577 107.719 57.8026 106.362 58.1904L105.835 57.1653C107.299 56.7451 108.449 56.1541 109.285 55.3922C110.125 54.6302 110.605 53.7483 110.725 52.7463H106.472V51.6657H112.152C112.152 52.1044 112.108 52.5431 112.02 52.9818H114.715V50.7791H116.031V58.1212ZM111.944 58.2597C112.775 58.2597 113.505 58.3567 114.133 58.5506C114.761 58.7446 115.246 59.0239 115.588 59.3887C115.934 59.7535 116.109 60.1853 116.114 60.684C116.109 61.1827 115.934 61.6167 115.588 61.9861C115.246 62.3509 114.761 62.6303 114.133 62.8242C113.505 63.0228 112.775 63.1221 111.944 63.1221C111.099 63.1221 110.36 63.0228 109.728 62.8242C109.1 62.6303 108.615 62.3509 108.273 61.9861C107.932 61.6167 107.761 61.1827 107.761 60.684C107.761 60.1853 107.932 59.7535 108.273 59.3887C108.615 59.0239 109.1 58.7446 109.728 58.5506C110.36 58.3567 111.099 58.2597 111.944 58.2597ZM111.944 59.2987C111.353 59.2987 110.841 59.3541 110.407 59.4649C109.977 59.5711 109.645 59.7281 109.409 59.9359C109.178 60.1437 109.063 60.3931 109.063 60.684C109.063 60.9703 109.178 61.2173 109.409 61.4251C109.645 61.6329 109.977 61.7922 110.407 61.903C110.841 62.0139 111.353 62.0693 111.944 62.0693C112.526 62.0693 113.029 62.0139 113.454 61.903C113.884 61.7922 114.214 61.6329 114.445 61.4251C114.676 61.2173 114.793 60.9703 114.798 60.684C114.793 60.2453 114.537 59.9059 114.029 59.6658C113.521 59.421 112.826 59.2987 111.944 59.2987ZM121.697 53.245C121.687 54.0069 121.886 54.688 122.292 55.2883C122.703 55.8886 123.294 56.3388 124.066 56.6389L123.373 57.6502C122.828 57.4378 122.362 57.1399 121.974 56.7567C121.591 56.3688 121.293 55.9163 121.08 55.3991C120.849 55.9855 120.528 56.5027 120.117 56.9506C119.707 57.3939 119.212 57.7379 118.635 57.9827L117.915 56.9575C118.455 56.7313 118.912 56.4265 119.286 56.0432C119.665 55.6554 119.949 55.2213 120.138 54.7411C120.328 54.2608 120.422 53.7621 120.422 53.245V52.8294H118.22V51.7627H123.816V52.8294H121.697V53.245ZM128.526 58.3428H127.279V55.0597H125.866V57.9549H124.606V51.0008H125.866V53.9792H127.279V50.7791H128.526V58.3428ZM124.37 58.606C125.229 58.606 125.975 58.6961 126.608 58.8762C127.245 59.0563 127.734 59.3172 128.076 59.6589C128.418 60.0006 128.591 60.4069 128.595 60.8779C128.591 61.3489 128.415 61.7553 128.069 62.097C127.727 62.4433 127.24 62.7065 126.608 62.8866C125.975 63.0667 125.229 63.1544 124.37 63.1498C123.511 63.1544 122.766 63.0667 122.133 62.8866C121.5 62.7065 121.013 62.4433 120.672 62.097C120.335 61.7553 120.168 61.3489 120.173 60.8779C120.168 60.4069 120.335 60.0006 120.672 59.6589C121.013 59.3172 121.5 59.0563 122.133 58.8762C122.766 58.6961 123.511 58.606 124.37 58.606ZM124.37 59.6173C123.775 59.6173 123.257 59.6681 122.819 59.7697C122.385 59.8713 122.05 60.0167 121.814 60.206C121.584 60.3954 121.47 60.6193 121.475 60.8779C121.47 61.1411 121.584 61.3674 121.814 61.5567C122.045 61.746 122.378 61.8915 122.812 61.9931C123.251 62.09 123.77 62.1385 124.37 62.1385C125.275 62.1385 125.984 62.03 126.497 61.813C127.014 61.5913 127.275 61.2796 127.279 60.8779C127.275 60.6147 127.155 60.3884 126.919 60.1991C126.688 60.0098 126.354 59.8667 125.915 59.7697C125.481 59.6681 124.966 59.6173 124.37 59.6173ZM139.872 55.7939H141.867V56.8883H139.872V63.1775H138.57V50.7653H139.872V55.7939ZM137.489 53.7852H130.133V52.7047H133.195V50.9315H134.511V52.7047H137.489V53.7852ZM133.86 54.6995C134.446 54.6995 134.972 54.8219 135.439 55.0666C135.905 55.3114 136.272 55.6531 136.54 56.0917C136.808 56.5304 136.944 57.0268 136.949 57.5809C136.944 58.1397 136.808 58.6384 136.54 59.077C136.272 59.5157 135.905 59.8574 135.439 60.1022C134.972 60.3469 134.446 60.4716 133.86 60.4762C133.269 60.4716 132.738 60.3469 132.267 60.1022C131.8 59.8574 131.433 59.5157 131.165 59.077C130.902 58.6384 130.77 58.1397 130.77 57.5809C130.77 57.0268 130.902 56.5304 131.165 56.0917C131.433 55.6531 131.8 55.3114 132.267 55.0666C132.738 54.8219 133.269 54.6995 133.86 54.6995ZM133.86 55.78C133.513 55.78 133.199 55.8562 132.918 56.0086C132.636 56.161 132.417 56.3734 132.26 56.6458C132.103 56.9183 132.026 57.23 132.031 57.5809C132.026 57.9365 132.103 58.2505 132.26 58.5229C132.417 58.7954 132.634 59.0055 132.911 59.1532C133.192 59.301 133.509 59.3726 133.86 59.3679C134.206 59.3726 134.518 59.301 134.795 59.1532C135.076 59.0055 135.296 58.7954 135.453 58.5229C135.61 58.2505 135.688 57.9365 135.688 57.5809C135.688 57.23 135.61 56.9183 135.453 56.6458C135.296 56.3734 135.076 56.161 134.795 56.0086C134.518 55.8562 134.206 55.78 133.86 55.78ZM148.71 53.6883H151.508V50.7653H152.81V63.2052H151.508V58.1627H148.71V60.0744H142.947V51.9566H148.71V53.6883ZM144.249 59.0216H147.422V52.9818H144.249V59.0216ZM151.508 57.0961V54.7688H148.71V57.0961H151.508ZM162.757 54.4225C162.757 55.1105 162.895 55.7916 163.172 56.4658C163.454 57.1399 163.842 57.7425 164.336 58.2736C164.835 58.8 165.398 59.1971 166.026 59.4649L165.306 60.49C164.581 60.1714 163.939 59.6912 163.38 59.0493C162.821 58.4029 162.397 57.6617 162.106 56.8259C161.815 57.7171 161.388 58.516 160.824 59.2225C160.266 59.929 159.631 60.4577 158.92 60.8086L158.158 59.7697C158.767 59.4834 159.321 59.0563 159.82 58.4883C160.319 57.9157 160.709 57.2715 160.991 56.5558C161.277 55.8355 161.422 55.1243 161.427 54.4225V53.1064H158.587V52.012H165.583V53.1064H162.757V54.4225ZM168.464 63.1775H167.148V50.7653H168.464V63.1775ZM180.793 63.2052H179.491V58.2874H177.067V57.2207H179.491V55.7108H177.067V54.6302H179.491V50.7653H180.793V63.2052ZM174.85 54.7549C174.85 55.406 174.982 56.0525 175.245 56.6943C175.508 57.3362 175.88 57.9111 176.36 58.419C176.845 58.927 177.399 59.3172 178.023 59.5896L177.275 60.6009C176.577 60.2915 175.963 59.8297 175.432 59.2156C174.906 58.6014 174.502 57.8972 174.22 57.103C173.943 57.9434 173.539 58.6892 173.008 59.3402C172.477 59.9867 171.863 60.4716 171.166 60.7948L170.445 59.7835C171.059 59.5019 171.602 59.0978 172.073 58.5714C172.544 58.0404 172.906 57.4424 173.16 56.7775C173.419 56.1125 173.548 55.4383 173.548 54.7549V53.9376H170.791V52.8848H173.562V51.0146H174.878V52.8848H177.566V53.9376H174.85V54.7549ZM192.374 55.7108H194.3V56.8052H192.374V63.1636H191.058V50.7653H192.374V55.7108ZM189.133 52.0675C189.123 53.9607 188.664 55.66 187.754 57.1653C186.845 58.6707 185.411 59.9082 183.453 60.8779L182.719 59.8528C184.27 59.077 185.469 58.1304 186.314 57.013C187.163 55.8955 187.655 54.6118 187.789 53.1618H183.342V52.0675H189.133ZM205.008 55.4476H196.461V51.2086H197.763V54.3947H205.008V55.4476ZM206.31 58.0658H194.951V57.013H206.31V58.0658ZM205.091 62.8866H196.364V59.2433H197.68V61.8061H205.091V62.8866ZM41.7654 71.9237C41.7608 72.6533 41.8901 73.3737 42.1533 74.0848C42.4165 74.7913 42.7836 75.4262 43.2546 75.9896C43.7302 76.5483 44.2728 76.9754 44.8823 77.271L44.065 78.3238C43.4 77.9775 42.8113 77.4765 42.2987 76.8208C41.7908 76.1651 41.3983 75.417 41.1212 74.5766C40.8396 75.4724 40.4332 76.2713 39.9022 76.9731C39.3758 77.6704 38.7639 78.1991 38.0667 78.5593L37.2494 77.4926C37.8727 77.1925 38.4269 76.7492 38.9117 76.1627C39.4012 75.5763 39.7798 74.9114 40.0476 74.1679C40.3155 73.4245 40.4494 72.6764 40.4494 71.9237V69.8043H41.7654V71.9237ZM47.1265 73.7108H49.1213V74.8329H47.1265V81.1775H45.8105V68.7653H47.1265V73.7108ZM59.4694 71.8683H61.2842V72.9766H59.4694V76.1627H58.1534V68.7791H59.4694V71.8683ZM59.4694 81.0251H51.5179V76.7446H59.4694V81.0251ZM52.8062 79.9584H58.195V77.7697H52.8062V79.9584ZM55.8677 72.935H51.5456V74.4865C52.7138 74.4819 53.7066 74.4542 54.5239 74.4034C55.3413 74.3526 56.1771 74.2557 57.0313 74.1125L57.1698 75.1653C56.2602 75.3316 55.362 75.4424 54.4755 75.4978C53.5935 75.5532 52.5106 75.5809 51.2269 75.5809H50.2295V71.9376H54.5794V70.483H50.2157V69.4302H55.8677V72.935ZM73.3085 74.9021H61.9768V73.8493H73.3085V74.9021ZM71.9648 72.9489H63.4591V69.1255H71.8401V70.1921H64.7751V71.896H71.9648V72.9489ZM71.8678 78.8918H64.6366V80H72.2141V81.039H63.3482V77.9221H70.5656V76.8969H63.3344V75.8857H71.8678V78.8918ZM84.5155 81.2052H83.1995V68.7653H84.5155V81.2052ZM77.88 69.6934C78.4941 69.6934 79.0436 69.8735 79.5285 70.2337C80.0133 70.5893 80.392 71.0972 80.6644 71.7575C80.9415 72.4132 81.08 73.1751 81.08 74.0432C81.08 74.916 80.9415 75.6825 80.6644 76.3428C80.392 77.0032 80.0133 77.5134 79.5285 77.8736C79.0436 78.2291 78.4941 78.4069 77.88 78.4069C77.2566 78.4069 76.7025 78.2291 76.2176 77.8736C75.7328 77.5134 75.3518 77.0055 75.0747 76.3498C74.8023 75.6894 74.6661 74.9206 74.6661 74.0432C74.6661 73.1705 74.8023 72.4063 75.0747 71.7506C75.3518 71.0903 75.7328 70.5823 76.2176 70.2268C76.7025 69.8712 77.2566 69.6934 77.88 69.6934ZM77.88 70.8709C77.4967 70.8709 77.1573 71.0002 76.8618 71.2588C76.5709 71.5174 76.3446 71.8868 76.183 72.367C76.0214 72.8427 75.9406 73.4014 75.9406 74.0432C75.9406 74.6897 76.0214 75.2531 76.183 75.7333C76.3446 76.2135 76.5709 76.5829 76.8618 76.8415C77.1573 77.1001 77.4967 77.2294 77.88 77.2294C78.2586 77.2294 78.5934 77.1001 78.8843 76.8415C79.1752 76.5829 79.4015 76.2135 79.5631 75.7333C79.7247 75.2531 79.8055 74.6897 79.8055 74.0432C79.8055 73.4014 79.7247 72.8427 79.5631 72.367C79.4015 71.8868 79.1752 71.5174 78.8843 71.2588C78.5934 71.0002 78.2586 70.8709 77.88 70.8709ZM99.7122 71.4943H101.513V72.5887H99.7122V75.0684H98.3961V68.7653H99.7122V71.4943ZM96.2489 74.6666H90.4446V69.5688H96.2489V74.6666ZM91.7329 73.6138H94.9606V70.6216H91.7329V73.6138ZM92.4948 79.7645C93.3906 79.7229 94.1756 79.589 94.8498 79.3628L95.0437 80.4017C94.5265 80.5772 94.0071 80.695 93.4853 80.755C92.9635 80.815 92.4163 80.845 91.8437 80.845H91.2065V76.1489H92.4948V79.7645ZM100.876 77.2571H94.6143V76.2874H97.1217V75.2484H98.41V76.2874H100.876V77.2571ZM97.745 77.6589C98.2022 77.6635 98.6062 77.7374 98.9572 77.8805C99.3127 78.019 99.5898 78.2199 99.7883 78.4831C99.9869 78.7417 100.086 79.0488 100.086 79.4043C100.086 79.7599 99.9869 80.0693 99.7883 80.3325C99.5898 80.5957 99.3127 80.7965 98.9572 80.9351C98.6062 81.0782 98.2022 81.1498 97.745 81.1498C97.2787 81.1498 96.8677 81.0782 96.5121 80.9351C96.1566 80.7965 95.8818 80.5957 95.6879 80.3325C95.4939 80.0693 95.3993 79.7599 95.4039 79.4043C95.3993 79.0488 95.4939 78.7417 95.6879 78.4831C95.8818 78.2199 96.1566 78.019 96.5121 77.8805C96.8677 77.7374 97.2787 77.6635 97.745 77.6589ZM97.745 78.5731C97.3941 78.5824 97.1101 78.6609 96.8931 78.8086C96.6761 78.9518 96.5675 79.1504 96.5675 79.4043C96.5675 79.6629 96.6761 79.8684 96.8931 80.0208C97.1101 80.1732 97.3941 80.2494 97.745 80.2494C98.0914 80.2494 98.3707 80.1732 98.5831 80.0208C98.8002 79.8684 98.9087 79.6629 98.9087 79.4043C98.9087 79.155 98.8002 78.9564 98.5831 78.8086C98.3707 78.6609 98.0914 78.5824 97.745 78.5731ZM113.537 76.3013H102.22V75.2484H113.537V76.3013ZM112.263 80.9143H103.646V77.3125H104.976V79.8476H112.263V80.9143ZM107.872 69.1809C108.763 69.1763 109.541 69.2732 110.206 69.4718C110.875 69.6703 111.392 69.9566 111.757 70.3307C112.122 70.7047 112.304 71.148 112.304 71.6605C112.304 72.1777 112.122 72.6256 111.757 73.0043C111.397 73.3783 110.882 73.6669 110.213 73.8701C109.543 74.0733 108.763 74.1772 107.872 74.1818C106.976 74.1772 106.193 74.0733 105.523 73.8701C104.859 73.6669 104.344 73.3783 103.979 73.0043C103.619 72.6256 103.439 72.1777 103.439 71.6605C103.439 71.148 103.619 70.7047 103.979 70.3307C104.344 69.9566 104.859 69.6703 105.523 69.4718C106.193 69.2732 106.976 69.1763 107.872 69.1809ZM107.872 70.2337C107.244 70.2337 106.696 70.2914 106.23 70.4069C105.768 70.5223 105.413 70.6885 105.163 70.9056C104.914 71.118 104.792 71.3696 104.796 71.6605C104.792 71.9607 104.912 72.2193 105.156 72.4363C105.406 72.6533 105.761 72.8196 106.223 72.935C106.689 73.0458 107.239 73.1012 107.872 73.1012C108.504 73.1012 109.051 73.0458 109.513 72.935C109.975 72.8196 110.328 72.6533 110.573 72.4363C110.822 72.2193 110.947 71.9607 110.947 71.6605C110.947 71.3696 110.822 71.118 110.573 70.9056C110.323 70.6885 109.968 70.5223 109.506 70.4069C109.044 70.2914 108.5 70.2337 107.872 70.2337ZM129.302 79.626H117.943V78.5316H120.658V75.29C120.141 75.0037 119.739 74.6412 119.453 74.2026C119.166 73.7639 119.023 73.2721 119.023 72.7272C119.023 72.0854 119.217 71.5197 119.605 71.0302C119.997 70.5408 120.54 70.1621 121.233 69.8943C121.925 69.6219 122.713 69.4856 123.595 69.4856C124.481 69.4856 125.271 69.6219 125.963 69.8943C126.661 70.1621 127.203 70.5408 127.591 71.0302C127.984 71.5197 128.18 72.0854 128.18 72.7272C128.18 73.2675 128.041 73.7546 127.764 74.1887C127.487 74.6181 127.095 74.976 126.587 75.2623V78.5316H129.302V79.626ZM123.595 70.5385C122.948 70.5385 122.376 70.6285 121.877 70.8086C121.378 70.9841 120.99 71.238 120.713 71.5705C120.436 71.8984 120.298 72.2839 120.298 72.7272C120.298 73.1659 120.436 73.5515 120.713 73.8839C120.99 74.2164 121.378 74.475 121.877 74.6597C122.376 74.8398 122.948 74.9298 123.595 74.9298C124.236 74.9298 124.807 74.8398 125.305 74.6597C125.809 74.475 126.201 74.2164 126.483 73.8839C126.765 73.5515 126.905 73.1659 126.905 72.7272C126.905 72.2885 126.765 71.903 126.483 71.5705C126.206 71.238 125.816 70.9841 125.312 70.8086C124.814 70.6285 124.241 70.5385 123.595 70.5385ZM125.257 78.5316V75.7679C124.754 75.8926 124.199 75.9549 123.595 75.9549C123.013 75.9549 122.468 75.8949 121.96 75.7749V78.5316H125.257ZM140.509 70.3584H136.734C136.785 70.7601 136.997 71.1364 137.371 71.4874C137.75 71.8383 138.249 72.1315 138.867 72.367C139.491 72.6025 140.181 72.7549 140.938 72.8242L140.467 73.8632C139.752 73.7893 139.084 73.6415 138.466 73.4199C137.852 73.1982 137.318 72.9165 136.866 72.5748C136.418 72.2285 136.083 71.8383 135.861 71.4043C135.64 71.8429 135.303 72.2331 134.85 72.5748C134.402 72.9165 133.871 73.1982 133.257 73.4199C132.643 73.6369 131.976 73.7847 131.255 73.8632L130.798 72.8242C131.542 72.7549 132.22 72.6025 132.834 72.367C133.453 72.1315 133.952 71.8383 134.331 71.4874C134.709 71.1364 134.924 70.7601 134.975 70.3584H131.241V69.2917H140.509V70.3584ZM140.135 81.0251H131.56V76.7861H140.135V81.0251ZM132.862 79.9584H138.86V77.8251H132.862V79.9584ZM141.52 75.5809H130.202V74.5281H141.52V75.5809ZM143.584 82.8676H142.407L143.141 79.0441H144.693L143.584 82.8676ZM160.236 71.148H150.137V70.0952H154.556V68.7099H155.858V70.0952H160.236V71.148ZM160.914 77.7697H158.047V81.1914H156.717V77.7697H153.725V81.1914H152.409V77.7697H149.555V76.703H160.914V77.7697ZM155.207 71.7852C156.066 71.7852 156.805 71.866 157.423 72.0276C158.042 72.1846 158.515 72.4201 158.843 72.7341C159.171 73.0435 159.335 73.4199 159.335 73.8632C159.335 74.3018 159.171 74.6782 158.843 74.9922C158.515 75.3016 158.042 75.5371 157.423 75.6987C156.805 75.8603 156.066 75.9411 155.207 75.9411C154.343 75.9411 153.602 75.8603 152.984 75.6987C152.365 75.5371 151.891 75.3016 151.564 74.9922C151.236 74.6782 151.074 74.3018 151.079 73.8632C151.074 73.4199 151.236 73.0435 151.564 72.7341C151.891 72.4201 152.365 72.1846 152.984 72.0276C153.602 71.866 154.343 71.7852 155.207 71.7852ZM155.207 72.7826C154.306 72.7919 153.618 72.8865 153.143 73.0666C152.672 73.2467 152.436 73.5122 152.436 73.8632C152.436 74.2095 152.674 74.475 153.15 74.6597C153.625 74.8398 154.311 74.9298 155.207 74.9298C156.094 74.9298 156.775 74.8398 157.25 74.6597C157.73 74.475 157.973 74.2095 157.978 73.8632C157.973 73.5122 157.733 73.2467 157.257 73.0666C156.786 72.8865 156.103 72.7919 155.207 72.7826ZM166.331 70.5523C166.326 71.1249 166.446 71.6721 166.691 72.1939C166.94 72.7111 167.298 73.1682 167.765 73.5653C168.231 73.9624 168.778 74.2649 169.406 74.4727L168.741 75.5117C168.03 75.2623 167.409 74.8952 166.878 74.4103C166.352 73.9209 165.948 73.3506 165.666 72.6995C165.384 73.406 164.976 74.0225 164.44 74.5489C163.909 75.0707 163.279 75.4609 162.549 75.7194L161.884 74.6943C162.517 74.4681 163.066 74.1425 163.533 73.7177C164.004 73.2929 164.364 72.808 164.613 72.2631C164.862 71.7136 164.987 71.1434 164.987 70.5523V69.361H166.331V70.5523ZM172.107 81.1775H170.791V77.8805H163.699V76.8138H172.107V81.1775ZM172.107 76.2182H170.791V68.7653H172.107V76.2182ZM185.392 76.3013H174.075V75.2484H185.392V76.3013ZM184.118 80.9143H175.501V77.3125H176.831V79.8476H184.118V80.9143ZM179.727 69.1809C180.618 69.1763 181.396 69.2732 182.061 69.4718C182.73 69.6703 183.248 69.9566 183.612 70.3307C183.977 70.7047 184.16 71.148 184.16 71.6605C184.16 72.1777 183.977 72.6256 183.612 73.0043C183.252 73.3783 182.737 73.6669 182.068 73.8701C181.398 74.0733 180.618 74.1772 179.727 74.1818C178.831 74.1772 178.048 74.0733 177.379 73.8701C176.714 73.6669 176.199 73.3783 175.834 73.0043C175.474 72.6256 175.294 72.1777 175.294 71.6605C175.294 71.148 175.474 70.7047 175.834 70.3307C176.199 69.9566 176.714 69.6703 177.379 69.4718C178.048 69.2732 178.831 69.1763 179.727 69.1809ZM179.727 70.2337C179.099 70.2337 178.551 70.2914 178.085 70.4069C177.623 70.5223 177.268 70.6885 177.018 70.9056C176.769 71.118 176.647 71.3696 176.651 71.6605C176.647 71.9607 176.767 72.2193 177.011 72.4363C177.261 72.6533 177.616 72.8196 178.078 72.935C178.544 73.0458 179.094 73.1012 179.727 73.1012C180.359 73.1012 180.906 73.0458 181.368 72.935C181.83 72.8196 182.183 72.6533 182.428 72.4363C182.677 72.2193 182.802 71.9607 182.802 71.6605C182.802 71.3696 182.677 71.118 182.428 70.9056C182.179 70.6885 181.823 70.5223 181.361 70.4069C180.899 70.2914 180.355 70.2337 179.727 70.2337ZM200.118 75.1792H198.788V68.7653H200.118V75.1792ZM200.118 78.8225H193.205V80H200.548V81.0528H191.917V77.8667H198.816V76.7861H191.876V75.7472H200.118V78.8225ZM197.084 70.6216H195.893V73.5584C196.516 73.5168 197.103 73.4614 197.652 73.3922L197.708 74.348C195.685 74.6528 193.169 74.8052 190.158 74.8052L190.005 73.7523C190.31 73.7523 190.814 73.7477 191.515 73.7385V70.6216H190.338V69.5826H197.084V70.6216ZM192.776 73.7108C193.612 73.6831 194.231 73.6577 194.632 73.6346V70.6216H192.776V73.7108ZM208.416 69.8597C208.411 70.3999 208.608 70.9217 209.005 71.425C209.406 71.9237 209.949 72.3486 210.632 72.6995C211.316 73.0458 212.059 73.2721 212.863 73.3783L212.35 74.4588C211.676 74.3526 211.037 74.1679 210.432 73.9047C209.827 73.6415 209.291 73.316 208.825 72.9281C208.358 72.5402 207.993 72.1061 207.73 71.6259C207.462 72.1061 207.095 72.5402 206.629 72.9281C206.167 73.316 205.636 73.6415 205.036 73.9047C204.436 74.1633 203.798 74.348 203.124 74.4588L202.598 73.3783C203.401 73.2721 204.142 73.0458 204.821 72.6995C205.5 72.3532 206.038 71.9307 206.435 71.432C206.837 70.9286 207.04 70.4045 207.045 69.8597V69.1809H208.416V69.8597ZM213.375 76.7584H208.333V81.1775H207.045V76.7584H202.058V75.6779H213.375V76.7584ZM218.764 70.9679C218.764 71.4897 218.884 71.9976 219.124 72.4917C219.364 72.9858 219.711 73.4268 220.163 73.8147C220.616 74.2026 221.147 74.5004 221.756 74.7082L221.078 75.7333C220.394 75.4932 219.796 75.1399 219.284 74.6736C218.776 74.2026 218.385 73.6554 218.113 73.032C217.841 73.7246 217.437 74.3318 216.901 74.8536C216.37 75.3708 215.74 75.7564 215.01 76.0104L214.331 74.9714C214.955 74.759 215.499 74.4473 215.966 74.0363C216.432 73.6207 216.79 73.1474 217.039 72.6164C217.293 72.0854 217.42 71.5405 217.42 70.9818V70.6354H214.733V69.5688H221.424V70.6354H218.764V70.9679ZM224.665 81.1775H223.349V77.8805H216.257V76.8138H224.665V81.1775ZM224.665 76.1904H223.349V73.0043H221.05V71.9237H223.349V68.7653H224.665V76.1904ZM236.856 81.2052H235.54V68.7653H236.856V81.2052ZM230.22 69.6934C230.835 69.6934 231.384 69.8735 231.869 70.2337C232.354 70.5893 232.732 71.0972 233.005 71.7575C233.282 72.4132 233.421 73.1751 233.421 74.0432C233.421 74.916 233.282 75.6825 233.005 76.3428C232.732 77.0032 232.354 77.5134 231.869 77.8736C231.384 78.2291 230.835 78.4069 230.22 78.4069C229.597 78.4069 229.043 78.2291 228.558 77.8736C228.073 77.5134 227.692 77.0055 227.415 76.3498C227.143 75.6894 227.007 74.9206 227.007 74.0432C227.007 73.1705 227.143 72.4063 227.415 71.7506C227.692 71.0903 228.073 70.5823 228.558 70.2268C229.043 69.8712 229.597 69.6934 230.22 69.6934ZM230.22 70.8709C229.837 70.8709 229.498 71.0002 229.202 71.2588C228.911 71.5174 228.685 71.8868 228.524 72.367C228.362 72.8427 228.281 73.4014 228.281 74.0432C228.281 74.6897 228.362 75.2531 228.524 75.7333C228.685 76.2135 228.911 76.5829 229.202 76.8415C229.498 77.1001 229.837 77.2294 230.22 77.2294C230.599 77.2294 230.934 77.1001 231.225 76.8415C231.516 76.5829 231.742 76.2135 231.904 75.7333C232.065 75.2531 232.146 74.6897 232.146 74.0432C232.146 73.4014 232.065 72.8427 231.904 72.367C231.742 71.8868 231.516 71.5174 231.225 71.2588C230.934 71.0002 230.599 70.8709 230.22 70.8709ZM243.408 72.4225C243.408 73.1105 243.547 73.7916 243.824 74.4658C244.106 75.1399 244.494 75.7425 244.988 76.2736C245.486 76.8 246.05 77.1971 246.678 77.4649L245.957 78.49C245.232 78.1714 244.591 77.6912 244.032 77.0493C243.473 76.4029 243.048 75.6617 242.757 74.8259C242.466 75.7171 242.039 76.516 241.476 77.2225C240.917 77.929 240.282 78.4577 239.571 78.8086L238.809 77.7697C239.419 77.4834 239.973 77.0563 240.472 76.4883C240.97 75.9157 241.361 75.2715 241.642 74.5558C241.929 73.8355 242.074 73.1243 242.079 72.4225V71.1064H239.239V70.012H246.234V71.1064H243.408V72.4225ZM249.116 81.1775H247.8V68.7653H249.116V81.1775ZM257.386 75.6502H251.582V69.8597H257.386V75.6502ZM252.87 74.6112H256.098V70.9263H252.87V74.6112ZM260.849 72.464H262.65V73.5722H260.849V77.8528H259.533V68.7514H260.849V72.464ZM261.376 80.9143H252.981V76.9801H254.297V79.8476H261.376V80.9143ZM40.7126 95.7281H46.4061V94.4675H47.7083V99.0251H39.3966V94.4675H40.7126V95.7281ZM46.4061 97.9584V96.7394H40.7126V97.9584H46.4061ZM47.7083 93.8995H46.3923V86.7791H47.7083V93.8995ZM38.6762 92.1264C39.9968 92.1264 41.2251 92.1033 42.3611 92.0571C43.5016 92.0109 44.5822 91.9186 45.6027 91.78L45.6858 92.722C44.6745 92.8929 43.5894 93.0153 42.4303 93.0891V94.8138H41.1282V93.1584C40.2924 93.1907 39.1287 93.2069 37.6372 93.2069L37.471 92.1264H38.6762ZM42.3334 87.6519C42.3334 88.049 42.4534 88.423 42.6935 88.774C42.9383 89.1249 43.2846 89.4297 43.7325 89.6883C44.185 89.9468 44.7161 90.1408 45.3256 90.2701L44.7438 91.2536C44.028 91.0966 43.407 90.845 42.8806 90.4986C42.3542 90.1477 41.9547 89.7252 41.6823 89.2311C41.4098 89.7667 41.0081 90.2285 40.4771 90.6164C39.9461 90.9997 39.3134 91.2813 38.5792 91.4614L37.9836 90.4363C38.5977 90.2978 39.131 90.0923 39.5836 89.8199C40.0361 89.5428 40.3824 89.2196 40.6225 88.8501C40.8673 88.4761 40.9896 88.0767 40.9896 87.6519V87.07H42.3334V87.6519ZM60.3837 99.1775H59.137V86.7653H60.3837V99.1775ZM57.7655 98.568H56.5188V92.8052H54.0945C53.3187 94.3105 52.0951 95.5527 50.4235 96.5316L49.6754 95.5896C50.9684 94.8231 51.9496 93.9226 52.6192 92.8883C53.2933 91.8539 53.6858 90.6857 53.7967 89.3835H50.2572V88.303H55.1058C55.0965 89.5774 54.9118 90.7272 54.5516 91.7523H56.5188V87.0839H57.7655V98.568ZM75.1094 91.7108H77.0349V92.8052H75.1094V99.1636H73.7933V86.7653H75.1094V91.7108ZM71.8678 88.0675C71.8586 89.9607 71.3991 91.66 70.4894 93.1653C69.5798 94.6707 68.146 95.9082 66.1881 96.8779L65.4539 95.8528C67.0054 95.077 68.2037 94.1304 69.0487 93.013C69.8984 91.8955 70.3901 90.6118 70.5241 89.1618H66.0773V88.0675H71.8678ZM87.9787 93.1792H86.6766V86.7653H87.9787V93.1792ZM87.9926 96.8225H81.1492V98.0277H88.4082V99.0528H79.8748V95.8667H86.6904V94.7584H79.8332V93.7472H87.9926V96.8225ZM82.299 88.4969C82.299 89.0002 82.426 89.4828 82.68 89.9445C82.934 90.4017 83.2941 90.808 83.7605 91.1636C84.2315 91.5145 84.7833 91.78 85.4159 91.9601L84.7787 92.9714C84.0537 92.7544 83.4234 92.4242 82.8878 91.9809C82.3521 91.533 81.9435 91.0089 81.6618 90.4086C81.3801 91.0735 80.9622 91.6531 80.4081 92.1471C79.8586 92.6366 79.2052 92.9991 78.4479 93.2346L77.8384 92.1956C78.471 92.0017 79.0228 91.7177 79.4938 91.3437C79.9648 90.965 80.3273 90.531 80.5813 90.0415C80.8352 89.5474 80.9645 89.0325 80.9692 88.4969H78.1847V87.4302H85.0281V88.4969H82.299ZM99.7814 87.8597C99.7768 88.3999 99.973 88.9217 100.37 89.425C100.772 89.9237 101.314 90.3486 101.998 90.6995C102.681 91.0458 103.425 91.2721 104.228 91.3783L103.716 92.4588C103.041 92.3526 102.402 92.1679 101.797 91.9047C101.192 91.6415 100.656 91.316 100.19 90.9281C99.7237 90.5402 99.3589 90.1061 99.0957 89.6259C98.8279 90.1061 98.4608 90.5402 97.9944 90.9281C97.5326 91.316 97.0016 91.6415 96.4013 91.9047C95.801 92.1633 95.1638 92.348 94.4896 92.4588L93.9632 91.3783C94.7667 91.2721 95.5078 91.0458 96.1866 90.6995C96.8654 90.3532 97.4033 89.9307 97.8005 89.432C98.2022 88.9286 98.4054 88.4045 98.41 87.8597V87.1809H99.7814V87.8597ZM104.741 94.7584H99.6983V99.1775H98.41V94.7584H93.4229V93.6779H104.741V94.7584ZM111.792 95.4788H113.731V94.0381H114.95V99.0251H110.559V94.0381H111.792V95.4788ZM113.731 98V96.4762H111.792V98H113.731ZM118.552 94.9662C118.552 95.4141 118.635 95.8459 118.801 96.2615C118.968 96.677 119.219 97.0488 119.556 97.3766C119.898 97.6999 120.316 97.9492 120.81 98.1247L120.131 99.1221C119.586 98.9143 119.127 98.6188 118.753 98.2355C118.384 97.8569 118.097 97.4113 117.894 96.8987C117.682 97.3974 117.388 97.8384 117.014 98.2216C116.645 98.6049 116.202 98.9051 115.685 99.1221L115.02 98.1247C115.5 97.9261 115.906 97.6606 116.239 97.3281C116.576 96.991 116.827 96.6193 116.994 96.213C117.165 95.802 117.25 95.3864 117.25 94.9662V93.9549H118.552V94.9662ZM112.582 87.2917C113.122 87.2917 113.616 87.3887 114.064 87.5826C114.512 87.7719 114.881 88.0421 115.172 88.393C115.468 88.7439 115.661 89.148 115.754 89.6051H118.178V86.7653H119.494V93.3454H118.178V90.6857H115.761C115.673 91.1567 115.481 91.5699 115.186 91.9255C114.895 92.2811 114.523 92.5558 114.071 92.7497C113.623 92.9437 113.126 93.0407 112.582 93.0407C111.954 93.0407 111.392 92.9206 110.898 92.6805C110.404 92.4357 110.019 92.0963 109.742 91.6623C109.465 91.2236 109.326 90.7226 109.326 90.1592C109.326 89.6051 109.465 89.111 109.742 88.677C110.019 88.2383 110.404 87.8989 110.898 87.6588C111.392 87.4141 111.954 87.2917 112.582 87.2917ZM112.582 88.3861C112.194 88.3861 111.847 88.4623 111.543 88.6146C111.242 88.7624 111.007 88.9702 110.836 89.238C110.67 89.5059 110.587 89.8129 110.587 90.1592C110.587 90.5102 110.67 90.8219 110.836 91.0943C111.007 91.3668 111.242 91.5815 111.543 91.7385C111.847 91.8909 112.194 91.9694 112.582 91.974C112.96 91.9694 113.297 91.8909 113.593 91.7385C113.893 91.5815 114.126 91.3668 114.292 91.0943C114.463 90.8219 114.549 90.5102 114.549 90.1592C114.549 89.8129 114.463 89.5059 114.292 89.238C114.126 88.9702 113.893 88.7624 113.593 88.6146C113.297 88.4623 112.96 88.3861 112.582 88.3861ZM131.449 91.4476H122.902V87.2086H124.204V90.3947H131.449V91.4476ZM132.751 94.0658H121.392V93.013H132.751V94.0658ZM131.532 98.8866H122.805V95.2433H124.121V97.8061H131.532V98.8866ZM147.477 95.1186H146.161V91.2813H143.626V90.2008H146.161V86.7791H147.477V95.1186ZM143.543 87.735C143.543 89.3419 143.06 90.7111 142.095 91.8424C141.13 92.9691 139.729 93.821 137.891 94.3982L137.309 93.3593C138.759 92.9206 139.895 92.3111 140.717 91.5307C141.539 90.7503 142.012 89.8406 142.137 88.8017H137.946V87.735H143.543ZM144.041 94.606C144.041 95.1555 144.219 95.6704 144.575 96.1506C144.93 96.6263 145.418 97.0326 146.036 97.3697C146.655 97.7022 147.352 97.9354 148.128 98.0693L147.588 99.1082C146.637 98.942 145.789 98.628 145.046 98.1662C144.307 97.7045 143.753 97.1365 143.383 96.4623C143.009 97.1365 142.448 97.7045 141.7 98.1662C140.957 98.6326 140.103 98.9559 139.138 99.1359L138.625 98.0831C139.401 97.9584 140.1 97.7299 140.724 97.3974C141.347 97.0603 141.837 96.6493 142.192 96.1645C142.552 95.6796 142.735 95.1602 142.739 94.606V94.0935H144.041V94.606ZM159.668 99.2052H158.352V86.7653H159.668V99.2052ZM153.032 87.6934C153.646 87.6934 154.196 87.8735 154.681 88.2337C155.165 88.5893 155.544 89.0972 155.816 89.7575C156.094 90.4132 156.232 91.1751 156.232 92.0432C156.232 92.916 156.094 93.6825 155.816 94.3428C155.544 95.0032 155.165 95.5134 154.681 95.8736C154.196 96.2291 153.646 96.4069 153.032 96.4069C152.409 96.4069 151.855 96.2291 151.37 95.8736C150.885 95.5134 150.504 95.0055 150.227 94.3498C149.954 93.6894 149.818 92.9206 149.818 92.0432C149.818 91.1705 149.954 90.4063 150.227 89.7506C150.504 89.0903 150.885 88.5823 151.37 88.2268C151.855 87.8712 152.409 87.6934 153.032 87.6934ZM153.032 88.8709C152.649 88.8709 152.309 89.0002 152.014 89.2588C151.723 89.5174 151.497 89.8868 151.335 90.367C151.173 90.8427 151.093 91.4014 151.093 92.0432C151.093 92.6897 151.173 93.2531 151.335 93.7333C151.497 94.2135 151.723 94.5829 152.014 94.8415C152.309 95.1001 152.649 95.2294 153.032 95.2294C153.411 95.2294 153.745 95.1001 154.036 94.8415C154.327 94.5829 154.554 94.2135 154.715 93.7333C154.877 93.2531 154.958 92.6897 154.958 92.0432C154.958 91.4014 154.877 90.8427 154.715 90.367C154.554 89.8868 154.327 89.5174 154.036 89.2588C153.745 89.0002 153.411 88.8709 153.032 88.8709ZM172.509 93.0961H169.891V95.3957C171.202 95.331 172.334 95.2479 173.285 95.1463L173.382 96.116C172.177 96.3007 170.942 96.4208 169.676 96.4762C168.416 96.5316 166.973 96.5639 165.347 96.5731L165.181 95.4788C166.492 95.4788 167.624 95.4649 168.575 95.4372V93.0961H166.081V87.9151H172.454V88.9818H167.384V92.0155H172.509V93.0961ZM175.377 99.2052H174.061V86.7653H175.377V99.2052ZM181.777 94.9524C181.777 95.5157 181.918 96.056 182.199 96.5731C182.481 97.0903 182.894 97.5151 183.439 97.8476C183.804 97.6075 184.111 97.3235 184.36 96.9957C184.614 96.6678 184.804 96.3261 184.928 95.9705C185.053 95.615 185.115 95.2756 185.115 94.9524V94.2874H186.404V94.9524C186.404 95.391 186.498 95.8135 186.688 96.2199C186.877 96.6216 187.159 96.9818 187.533 97.3004C187.907 97.6144 188.362 97.8569 188.897 98.0277L188.218 99.0113C187.623 98.7989 187.115 98.4941 186.695 98.097C186.279 97.7045 185.96 97.245 185.739 96.7186C185.536 97.2496 185.24 97.7253 184.852 98.1455C184.469 98.5657 184.003 98.8912 183.453 99.1221C182.89 98.9051 182.414 98.5934 182.026 98.187C181.638 97.7807 181.34 97.3097 181.133 96.774C180.902 97.2773 180.581 97.7229 180.17 98.1108C179.759 98.4987 179.269 98.7989 178.701 99.0113L178.064 98.0277C178.572 97.8476 179.011 97.596 179.38 97.2727C179.75 96.9449 180.029 96.5801 180.218 96.1783C180.412 95.772 180.512 95.3633 180.516 94.9524V94.2874H181.777V94.9524ZM180.807 87.4441C181.334 87.4441 181.821 87.5434 182.269 87.7419C182.717 87.9359 183.088 88.2129 183.384 88.5731C183.684 88.9286 183.88 89.3373 183.973 89.7991H186.404V86.7653H187.72V93.8026H186.404V90.8796H183.993C183.91 91.3552 183.719 91.7777 183.418 92.1471C183.123 92.5119 182.749 92.7959 182.296 92.9991C181.844 93.2023 181.347 93.3039 180.807 93.3039C180.188 93.3039 179.632 93.1792 179.138 92.9298C178.648 92.6805 178.263 92.3342 177.981 91.8909C177.704 91.4476 177.566 90.9442 177.566 90.3809C177.566 89.8175 177.704 89.3142 177.981 88.8709C178.263 88.423 178.648 88.0744 179.138 87.825C179.632 87.5711 180.188 87.4441 180.807 87.4441ZM180.807 88.5523C180.424 88.5523 180.08 88.6285 179.775 88.7809C179.475 88.9333 179.239 89.148 179.069 89.425C178.902 89.7021 178.822 90.0207 178.826 90.3809C178.822 90.7318 178.905 91.0458 179.076 91.3229C179.246 91.6 179.482 91.817 179.782 91.974C180.087 92.131 180.428 92.2095 180.807 92.2095C181.177 92.2095 181.511 92.131 181.811 91.974C182.112 91.817 182.347 91.6 182.518 91.3229C182.689 91.0458 182.774 90.7318 182.774 90.3809C182.774 90.0207 182.689 89.7021 182.518 89.425C182.347 89.148 182.112 88.9333 181.811 88.7809C181.516 88.6285 181.181 88.5523 180.807 88.5523ZM192.333 95.5203H198.165V94.2043H199.481V99.0251H191.031V94.2043H192.333V95.5203ZM198.165 97.9723V96.5454H192.333V97.9723H198.165ZM200.949 93.4285H189.631V92.3342H200.949V93.4285ZM195.962 87.4302C195.962 87.8966 196.158 88.3514 196.551 88.7947C196.948 89.2334 197.479 89.6098 198.144 89.9237C198.814 90.2331 199.541 90.4363 200.326 90.5333L199.855 91.5722C198.839 91.4291 197.922 91.1313 197.105 90.6787C196.292 90.2262 195.687 89.6744 195.29 89.0233C194.893 89.679 194.286 90.2331 193.469 90.6857C192.656 91.1336 191.746 91.4291 190.74 91.5722L190.241 90.5333C191.035 90.4317 191.767 90.2285 192.437 89.9237C193.106 89.619 193.637 89.2473 194.03 88.8086C194.422 88.3699 194.618 87.9105 194.618 87.4302V86.9038H195.962V87.4302ZM212.198 99.1775H210.882V86.7653H212.198V99.1775ZM203.955 94.8831C205.987 94.8692 207.89 94.6799 209.663 94.3151L209.843 95.4234C208.79 95.6358 207.76 95.7882 206.754 95.8805C205.747 95.9729 204.727 96.019 203.692 96.019H202.653V87.9705H203.955V94.8831ZM223.82 91.5722H225.815V92.6528H223.82V99.2052H222.504V86.7653H223.82V91.5722ZM220.482 89.0233H215.994V95.0216C217.093 95.017 218.058 94.9847 218.889 94.9247C219.725 94.8646 220.565 94.7584 221.41 94.606L221.576 95.7143C220.722 95.8667 219.882 95.9729 219.055 96.0329C218.233 96.0883 217.282 96.116 216.201 96.116H215.675H214.678V87.9566H220.482V89.0233ZM227.824 98.097C227.648 98.097 227.482 98.0531 227.325 97.9654C227.173 97.8776 227.053 97.7576 226.965 97.6052C226.877 97.4528 226.836 97.2889 226.84 97.1134C226.836 96.9379 226.877 96.774 226.965 96.6216C227.053 96.4693 227.173 96.3492 227.325 96.2615C227.482 96.1737 227.648 96.1299 227.824 96.1299C227.995 96.1299 228.156 96.1737 228.309 96.2615C228.461 96.3492 228.581 96.4693 228.669 96.6216C228.761 96.774 228.807 96.9379 228.807 97.1134C228.807 97.2889 228.761 97.4528 228.669 97.6052C228.581 97.7576 228.461 97.8776 228.309 97.9654C228.156 98.0531 227.995 98.097 227.824 98.097Z" fill="#FD4525"/>
</svg>
