<svg width="300" height="150" viewBox="0 0 300 150" fill="none" xmlns="http://www.w3.org/2000/svg">
<path d="M88.5938 74.0469H86.4219V81.3125H84.9375V67.3281H86.4219V72.8281H88.5938V74.0469ZM77.5156 76.5625C79.651 76.5625 81.724 76.3542 83.7344 75.9375L83.9062 77.1875C82.7917 77.4115 81.6849 77.5703 80.5859 77.6641C79.4922 77.7526 78.3646 77.7969 77.2031 77.7969H76.0469V68.6875H77.5156V76.5625ZM96.4375 75.0938H89.8906V68.5625H96.4375V75.0938ZM91.3438 73.9219H94.9844V69.7656H91.3438V73.9219ZM100.344 71.5H102.375V72.75H100.344V77.5781H98.8594V67.3125H100.344V71.5ZM100.938 81.0312H91.4688V76.5938H92.9531V79.8281H100.938V81.0312ZM107.734 68.3281C108.464 68.3229 109.117 68.4609 109.695 68.7422C110.273 69.0234 110.724 69.4193 111.047 69.9297C111.375 70.4349 111.542 71.0104 111.547 71.6562C111.542 72.3021 111.375 72.8802 111.047 73.3906C110.724 73.8958 110.273 74.2917 109.695 74.5781C109.117 74.8594 108.464 75 107.734 75C107.005 75 106.349 74.8594 105.766 74.5781C105.188 74.2917 104.734 73.8958 104.406 73.3906C104.078 72.8802 103.917 72.3021 103.922 71.6562C103.917 71.0104 104.078 70.4349 104.406 69.9297C104.734 69.4193 105.188 69.0234 105.766 68.7422C106.349 68.4609 107.005 68.3229 107.734 68.3281ZM107.734 69.6094C107.281 69.6094 106.875 69.6953 106.516 69.8672C106.161 70.0339 105.883 70.2734 105.68 70.5859C105.482 70.8932 105.385 71.25 105.391 71.6562C105.385 72.0625 105.482 72.4219 105.68 72.7344C105.883 73.0417 106.161 73.2812 106.516 73.4531C106.875 73.6198 107.281 73.7031 107.734 73.7031C108.188 73.7031 108.591 73.6198 108.945 73.4531C109.305 73.2812 109.586 73.0417 109.789 72.7344C109.992 72.4219 110.094 72.0625 110.094 71.6562C110.094 71.25 109.992 70.8932 109.789 70.5859C109.586 70.2734 109.305 70.0339 108.945 69.8672C108.591 69.6953 108.188 69.6094 107.734 69.6094ZM114.75 81.3594H113.266V67.3281H114.75V81.3594ZM103.25 77.1094C104.979 77.1094 106.594 77.0807 108.094 77.0234C109.599 76.9609 111.031 76.8333 112.391 76.6406L112.5 77.7188C111.104 77.9896 109.685 78.1615 108.242 78.2344C106.805 78.3073 105.203 78.3438 103.438 78.3438L103.25 77.1094ZM132.953 70.0156H121.562V68.8281H126.547V67.2656H128.016V68.8281H132.953V70.0156ZM133.719 77.4844H130.484V81.3438H128.984V77.4844H125.609V81.3438H124.125V77.4844H120.906V76.2812H133.719V77.4844ZM127.281 70.7344C128.25 70.7344 129.083 70.8255 129.781 71.0078C130.479 71.1849 131.013 71.4505 131.383 71.8047C131.753 72.1536 131.938 72.5781 131.938 73.0781C131.938 73.5729 131.753 73.9974 131.383 74.3516C131.013 74.7005 130.479 74.9661 129.781 75.1484C129.083 75.3307 128.25 75.4219 127.281 75.4219C126.307 75.4219 125.471 75.3307 124.773 75.1484C124.076 74.9661 123.542 74.7005 123.172 74.3516C122.802 73.9974 122.62 73.5729 122.625 73.0781C122.62 72.5781 122.802 72.1536 123.172 71.8047C123.542 71.4505 124.076 71.1849 124.773 71.0078C125.471 70.8255 126.307 70.7344 127.281 70.7344ZM127.281 71.8594C126.266 71.8698 125.49 71.9766 124.953 72.1797C124.422 72.3828 124.156 72.6823 124.156 73.0781C124.156 73.4688 124.424 73.7682 124.961 73.9766C125.497 74.1797 126.271 74.2812 127.281 74.2812C128.281 74.2812 129.049 74.1797 129.586 73.9766C130.128 73.7682 130.401 73.4688 130.406 73.0781C130.401 72.6823 130.13 72.3828 129.594 72.1797C129.062 71.9766 128.292 71.8698 127.281 71.8594ZM139.828 69.3438C139.823 69.9896 139.958 70.6068 140.234 71.1953C140.516 71.7786 140.919 72.2943 141.445 72.7422C141.971 73.1901 142.589 73.5312 143.297 73.7656L142.547 74.9375C141.745 74.6562 141.044 74.2422 140.445 73.6953C139.852 73.1432 139.396 72.5 139.078 71.7656C138.76 72.5625 138.299 73.2578 137.695 73.8516C137.096 74.4401 136.385 74.8802 135.562 75.1719L134.812 74.0156C135.526 73.7604 136.146 73.3932 136.672 72.9141C137.203 72.4349 137.609 71.888 137.891 71.2734C138.172 70.6536 138.312 70.0104 138.312 69.3438V68H139.828V69.3438ZM146.344 81.3281H144.859V77.6094H136.859V76.4062H146.344V81.3281ZM146.344 75.7344H144.859V67.3281H146.344V75.7344ZM154.938 67.5625C155.99 67.5625 156.888 67.6562 157.633 67.8438C158.383 68.026 158.953 68.2969 159.344 68.6562C159.74 69.0156 159.938 69.4531 159.938 69.9688C159.938 70.4844 159.74 70.9245 159.344 71.2891C158.953 71.6484 158.383 71.9219 157.633 72.1094C156.888 72.2969 155.99 72.3906 154.938 72.3906C153.885 72.3906 152.984 72.2969 152.234 72.1094C151.49 71.9219 150.919 71.6484 150.523 71.2891C150.133 70.9245 149.938 70.4844 149.938 69.9688C149.938 69.4531 150.133 69.0156 150.523 68.6562C150.919 68.2969 151.49 68.026 152.234 67.8438C152.984 67.6562 153.885 67.5625 154.938 67.5625ZM154.938 68.6562C153.823 68.6562 152.966 68.7708 152.367 69C151.768 69.2292 151.474 69.5521 151.484 69.9688C151.479 70.3958 151.771 70.7214 152.359 70.9453C152.953 71.1693 153.812 71.2812 154.938 71.2812C156.057 71.2812 156.914 71.1693 157.508 70.9453C158.107 70.7214 158.406 70.3958 158.406 69.9688C158.406 69.5521 158.104 69.2292 157.5 69C156.901 68.7708 156.047 68.6562 154.938 68.6562ZM161.328 74.4375H148.562V73.25H161.328V74.4375ZM159.719 78.7969H151.562V80.0469H160.109V81.1875H150.109V77.7188H158.25V76.625H150.094V75.5156H159.719V78.7969ZM179.109 79.5469H166.297V78.3281H171.906V75H173.375V78.3281H179.109V79.5469ZM173.406 69.2812C173.406 70 173.643 70.6979 174.117 71.375C174.596 72.0469 175.229 72.6198 176.016 73.0938C176.807 73.5677 177.651 73.8802 178.547 74.0312L177.906 75.25C177.146 75.099 176.419 74.849 175.727 74.5C175.039 74.1458 174.424 73.7109 173.883 73.1953C173.346 72.6797 172.927 72.1068 172.625 71.4766C172.323 72.1068 171.904 72.6823 171.367 73.2031C170.836 73.7188 170.227 74.1536 169.539 74.5078C168.857 74.8568 168.141 75.1042 167.391 75.25L166.734 74.0312C167.625 73.8802 168.461 73.5677 169.242 73.0938C170.029 72.6198 170.659 72.0469 171.133 71.375C171.607 70.6979 171.844 70 171.844 69.2812V68.2188H173.406V69.2812ZM192.922 76.4531H189.672V81.3281H188.172V76.4531H184.828V81.3281H183.297V76.4531H180.109V75.2344H192.922V76.4531ZM186.484 67.8594C187.464 67.8594 188.328 67.987 189.078 68.2422C189.833 68.4922 190.419 68.8516 190.836 69.3203C191.258 69.7891 191.469 70.3333 191.469 70.9531C191.469 71.5625 191.258 72.099 190.836 72.5625C190.419 73.0208 189.833 73.375 189.078 73.625C188.328 73.8698 187.464 73.9896 186.484 73.9844C185.5 73.9896 184.63 73.8698 183.875 73.625C183.125 73.375 182.542 73.0208 182.125 72.5625C181.708 72.099 181.5 71.5625 181.5 70.9531C181.5 70.3333 181.708 69.7891 182.125 69.3203C182.542 68.8516 183.125 68.4922 183.875 68.2422C184.63 67.987 185.5 67.8594 186.484 67.8594ZM186.484 69.0469C185.792 69.0521 185.185 69.1328 184.664 69.2891C184.143 69.4453 183.74 69.6667 183.453 69.9531C183.167 70.2344 183.026 70.5677 183.031 70.9531C183.026 71.3281 183.167 71.6562 183.453 71.9375C183.74 72.2188 184.143 72.4349 184.664 72.5859C185.19 72.737 185.797 72.8125 186.484 72.8125C187.172 72.8125 187.776 72.737 188.297 72.5859C188.823 72.4349 189.229 72.2188 189.516 71.9375C189.807 71.6562 189.953 71.3281 189.953 70.9531C189.953 70.5677 189.81 70.2318 189.523 69.9453C189.237 69.6589 188.831 69.4401 188.305 69.2891C187.784 69.1328 187.177 69.0521 186.484 69.0469ZM204.859 73H207.109V74.2344H204.859V81.3281H203.391V67.3281H204.859V73ZM202.172 70.7344H193.875V69.5156H197.328V67.5156H198.812V69.5156H202.172V70.7344ZM198.078 71.7656C198.74 71.7656 199.333 71.9036 199.859 72.1797C200.385 72.4557 200.799 72.8411 201.102 73.3359C201.404 73.8307 201.557 74.3906 201.562 75.0156C201.557 75.6458 201.404 76.2083 201.102 76.7031C200.799 77.1979 200.385 77.5833 199.859 77.8594C199.333 78.1354 198.74 78.276 198.078 78.2812C197.411 78.276 196.812 78.1354 196.281 77.8594C195.755 77.5833 195.341 77.1979 195.039 76.7031C194.742 76.2083 194.594 75.6458 194.594 75.0156C194.594 74.3906 194.742 73.8307 195.039 73.3359C195.341 72.8411 195.755 72.4557 196.281 72.1797C196.812 71.9036 197.411 71.7656 198.078 71.7656ZM198.078 72.9844C197.688 72.9844 197.333 73.0703 197.016 73.2422C196.698 73.4141 196.451 73.6536 196.273 73.9609C196.096 74.2682 196.01 74.6198 196.016 75.0156C196.01 75.4167 196.096 75.7708 196.273 76.0781C196.451 76.3854 196.695 76.6224 197.008 76.7891C197.326 76.9557 197.682 77.0365 198.078 77.0312C198.469 77.0365 198.82 76.9557 199.133 76.7891C199.451 76.6224 199.698 76.3854 199.875 76.0781C200.052 75.7708 200.141 75.4167 200.141 75.0156C200.141 74.6198 200.052 74.2682 199.875 73.9609C199.698 73.6536 199.451 73.4141 199.133 73.2422C198.82 73.0703 198.469 72.9844 198.078 72.9844ZM218.688 72.75H220.938V73.9688H218.688V81.3594H217.203V67.3281H218.688V72.75ZM214.922 69.875H209.859V76.6406C211.099 76.6354 212.188 76.599 213.125 76.5312C214.068 76.4635 215.016 76.3438 215.969 76.1719L216.156 77.4219C215.193 77.5938 214.245 77.7135 213.312 77.7812C212.385 77.8438 211.312 77.875 210.094 77.875H209.5H208.375V68.6719H214.922V69.875ZM223.203 80.1094C223.005 80.1094 222.818 80.0599 222.641 79.9609C222.469 79.862 222.333 79.7266 222.234 79.5547C222.135 79.3828 222.089 79.1979 222.094 79C222.089 78.8021 222.135 78.6172 222.234 78.4453C222.333 78.2734 222.469 78.138 222.641 78.0391C222.818 77.9401 223.005 77.8906 223.203 77.8906C223.396 77.8906 223.578 77.9401 223.75 78.0391C223.922 78.138 224.057 78.2734 224.156 78.4453C224.26 78.6172 224.312 78.8021 224.312 79C224.312 79.1979 224.26 79.3828 224.156 79.5547C224.057 79.7266 223.922 79.862 223.75 79.9609C223.578 80.0599 223.396 80.1094 223.203 80.1094Z" fill="#FD4525"/>
</svg>
