<svg width="300" height="150" viewBox="0 0 300 150" fill="none" xmlns="http://www.w3.org/2000/svg">
<mask id="path-1-outside-1_686_361" maskUnits="userSpaceOnUse" x="41" y="69" width="218" height="12" fill="black">
<rect fill="white" x="41" y="69" width="218" height="12"/>
<path d="M49.8635 69.801V71.7914H47.1612V80H44.6769V71.7914H41.9746V69.801H49.8635ZM55.9338 80.1017C54.9749 80.1017 54.0936 79.8789 53.2896 79.4334C52.4954 78.9878 51.861 78.368 51.3864 77.5737C50.9215 76.7698 50.689 75.8691 50.689 74.8714C50.689 73.8738 50.9215 72.9779 51.3864 72.1837C51.861 71.3894 52.4954 70.7696 53.2896 70.324C54.0936 69.8785 54.9749 69.6557 55.9338 69.6557C56.8927 69.6557 57.7693 69.8785 58.5635 70.324C59.3674 70.7696 59.997 71.3894 60.4522 72.1837C60.9171 72.9779 61.1496 73.8738 61.1496 74.8714C61.1496 75.8691 60.9171 76.7698 60.4522 77.5737C59.9873 78.368 59.3577 78.9878 58.5635 79.4334C57.7693 79.8789 56.8927 80.1017 55.9338 80.1017ZM55.9338 77.8353C56.7474 77.8353 57.3964 77.5641 57.8806 77.0217C58.3746 76.4793 58.6216 75.7625 58.6216 74.8714C58.6216 73.9707 58.3746 73.2539 57.8806 72.7212C57.3964 72.1788 56.7474 71.9076 55.9338 71.9076C55.1105 71.9076 54.4519 72.174 53.958 72.7067C53.4737 73.2394 53.2315 73.961 53.2315 74.8714C53.2315 75.7722 53.4737 76.4938 53.958 77.0362C54.4519 77.5689 55.1105 77.8353 55.9338 77.8353ZM70.434 80.1017C69.4751 80.1017 68.5937 79.8789 67.7898 79.4334C66.9955 78.9878 66.3611 78.368 65.8865 77.5737C65.4216 76.7698 65.1892 75.8691 65.1892 74.8714C65.1892 73.8738 65.4216 72.9779 65.8865 72.1837C66.3611 71.3894 66.9955 70.7696 67.7898 70.324C68.5937 69.8785 69.4751 69.6557 70.434 69.6557C71.3928 69.6557 72.2694 69.8785 73.0636 70.324C73.8675 70.7696 74.4971 71.3894 74.9523 72.1837C75.4172 72.9779 75.6497 73.8738 75.6497 74.8714C75.6497 75.8691 75.4172 76.7698 74.9523 77.5737C74.4874 78.368 73.8578 78.9878 73.0636 79.4334C72.2694 79.8789 71.3928 80.1017 70.434 80.1017ZM70.434 77.8353C71.2475 77.8353 71.8965 77.5641 72.3808 77.0217C72.8747 76.4793 73.1217 75.7625 73.1217 74.8714C73.1217 73.9707 72.8747 73.2539 72.3808 72.7212C71.8965 72.1788 71.2475 71.9076 70.434 71.9076C69.6107 71.9076 68.952 72.174 68.4581 72.7067C67.9738 73.2394 67.7317 73.961 67.7317 74.8714C67.7317 75.7722 67.9738 76.4938 68.4581 77.0362C68.952 77.5689 69.6107 77.8353 70.434 77.8353ZM91.0663 69.801L88.4076 80H85.4002L83.773 73.2878L82.0877 80H79.0803L76.4943 69.801H79.153L80.6204 77.2251L82.4364 69.801H85.1678L86.9112 77.2251L88.3931 69.801H91.0663ZM101.436 80H98.9518L94.7967 73.7092V80H92.3123V69.801H94.7967L98.9518 76.1209V69.801H101.436V80ZM115.062 69.801L111.532 76.6294V80H109.047V76.6294L105.517 69.801H108.335L110.311 74.0724L112.273 69.801H115.062ZM120.886 80.1017C119.928 80.1017 119.046 79.8789 118.242 79.4334C117.448 78.9878 116.814 78.368 116.339 77.5737C115.874 76.7698 115.642 75.8691 115.642 74.8714C115.642 73.8738 115.874 72.9779 116.339 72.1837C116.814 71.3894 117.448 70.7696 118.242 70.324C119.046 69.8785 119.928 69.6557 120.886 69.6557C121.845 69.6557 122.722 69.8785 123.516 70.324C124.32 70.7696 124.95 71.3894 125.405 72.1837C125.87 72.9779 126.102 73.8738 126.102 74.8714C126.102 75.8691 125.87 76.7698 125.405 77.5737C124.94 78.368 124.31 78.9878 123.516 79.4334C122.722 79.8789 121.845 80.1017 120.886 80.1017ZM120.886 77.8353C121.7 77.8353 122.349 77.5641 122.833 77.0217C123.327 76.4793 123.574 75.7625 123.574 74.8714C123.574 73.9707 123.327 73.2539 122.833 72.7212C122.349 72.1788 121.7 71.9076 120.886 71.9076C120.063 71.9076 119.405 72.174 118.911 72.7067C118.426 73.2394 118.184 73.961 118.184 74.8714C118.184 75.7722 118.426 76.4938 118.911 77.0362C119.405 77.5689 120.063 77.8353 120.886 77.8353ZM129.925 69.801V75.903C129.925 76.5132 130.075 76.9829 130.375 77.3122C130.676 77.6415 131.116 77.8062 131.698 77.8062C132.279 77.8062 132.724 77.6415 133.034 77.3122C133.344 76.9829 133.499 76.5132 133.499 75.903V69.801H135.983V75.8884C135.983 76.7989 135.79 77.5689 135.402 78.1985C135.015 78.828 134.492 79.3026 133.833 79.6223C133.184 79.9419 132.458 80.1017 131.654 80.1017C130.85 80.1017 130.128 79.9467 129.489 79.6368C128.86 79.3172 128.361 78.8426 127.993 78.213C127.625 77.5737 127.441 76.7989 127.441 75.8884V69.801H129.925ZM142.929 80L140.808 76.1499H140.212V80H137.728V69.801H141.898C142.702 69.801 143.384 69.9414 143.946 70.2223C144.518 70.5032 144.944 70.8906 145.225 71.3846C145.506 71.8689 145.646 72.4113 145.646 73.0118C145.646 73.6898 145.452 74.2951 145.065 74.8279C144.687 75.3606 144.125 75.7383 143.38 75.9611L145.733 80H142.929ZM140.212 74.392H141.752C142.208 74.392 142.547 74.2806 142.769 74.0578C143.002 73.8351 143.118 73.5203 143.118 73.1135C143.118 72.7261 143.002 72.421 142.769 72.1982C142.547 71.9754 142.208 71.864 141.752 71.864H140.212V74.392ZM158.057 73.0844C158.057 73.6753 157.922 74.2177 157.65 74.7116C157.379 75.1959 156.963 75.5882 156.401 75.8884C155.839 76.1887 155.142 76.3388 154.309 76.3388H152.769V80H150.284V69.801H154.309C155.122 69.801 155.81 69.9414 156.372 70.2223C156.934 70.5032 157.355 70.8906 157.636 71.3846C157.917 71.8786 158.057 72.4452 158.057 73.0844ZM154.12 74.3629C154.595 74.3629 154.948 74.2516 155.18 74.0288C155.413 73.806 155.529 73.4912 155.529 73.0844C155.529 72.6776 155.413 72.3629 155.18 72.1401C154.948 71.9173 154.595 71.8059 154.12 71.8059H152.769V74.3629H154.12ZM161.835 71.7914V73.8544H165.162V75.7722H161.835V78.0096H165.598V80H159.351V69.801H165.598V71.7914H161.835ZM173.56 78.1985H169.753L169.143 80H166.542L170.233 69.801H173.109L176.799 80H174.17L173.56 78.1985ZM172.92 76.2807L171.656 72.5469L170.407 76.2807H172.92ZM177.501 74.886C177.501 73.8787 177.719 72.9827 178.155 72.1982C178.591 71.404 179.196 70.7889 179.971 70.3531C180.756 69.9075 181.642 69.6848 182.63 69.6848C183.841 69.6848 184.877 70.0044 185.739 70.6436C186.601 71.2829 187.177 72.1546 187.468 73.2588H184.736C184.533 72.8326 184.242 72.5081 183.865 72.2854C183.497 72.0626 183.075 71.9512 182.601 71.9512C181.836 71.9512 181.216 72.2176 180.741 72.7503C180.267 73.283 180.029 73.9949 180.029 74.886C180.029 75.777 180.267 76.4889 180.741 77.0217C181.216 77.5544 181.836 77.8207 182.601 77.8207C183.075 77.8207 183.497 77.7093 183.865 77.4866C184.242 77.2638 184.533 76.9393 184.736 76.5132H187.468C187.177 77.6173 186.601 78.489 185.739 79.1283C184.877 79.7579 183.841 80.0726 182.63 80.0726C181.642 80.0726 180.756 79.8547 179.971 79.4189C179.196 78.9733 178.591 78.3583 178.155 77.5737C177.719 76.7892 177.501 75.8933 177.501 74.886ZM191.474 71.7914V73.8544H194.801V75.7722H191.474V78.0096H195.236V80H188.989V69.801H195.236V71.7914H191.474ZM203.489 69.801V71.7914H199.334V73.9416H202.443V75.8739H199.334V80H196.849V69.801H203.489ZM207.235 69.801V75.903C207.235 76.5132 207.386 76.9829 207.686 77.3122C207.986 77.6415 208.427 77.8062 209.008 77.8062C209.589 77.8062 210.035 77.6415 210.345 77.3122C210.654 76.9829 210.809 76.5132 210.809 75.903V69.801H213.294V75.8884C213.294 76.7989 213.1 77.5689 212.713 78.1985C212.325 78.828 211.802 79.3026 211.144 79.6223C210.495 79.9419 209.768 80.1017 208.964 80.1017C208.16 80.1017 207.439 79.9467 206.8 79.6368C206.17 79.3172 205.671 78.8426 205.303 78.213C204.935 77.5737 204.751 76.7989 204.751 75.8884V69.801H207.235ZM217.523 78.0822H220.777V80H215.038V69.801H217.523V78.0822ZM230.242 80L228.121 76.1499H227.525V80H225.041V69.801H229.211C230.014 69.801 230.697 69.9414 231.259 70.2223C231.831 70.5032 232.257 70.8906 232.538 71.3846C232.818 71.8689 232.959 72.4113 232.959 73.0118C232.959 73.6898 232.765 74.2951 232.378 74.8279C232 75.3606 231.438 75.7383 230.692 75.9611L233.046 80H230.242ZM227.525 74.392H229.065C229.521 74.392 229.86 74.2806 230.082 74.0578C230.315 73.8351 230.431 73.5203 230.431 73.1135C230.431 72.7261 230.315 72.421 230.082 72.1982C229.86 71.9754 229.521 71.864 229.065 71.864H227.525V74.392ZM237.003 71.7914V73.8544H240.33V75.7722H237.003V78.0096H240.766V80H234.518V69.801H240.766V71.7914H237.003ZM246.069 80.1017C245.323 80.1017 244.655 79.9806 244.064 79.7385C243.473 79.4963 242.998 79.138 242.64 78.6634C242.291 78.1888 242.107 77.6173 242.088 76.949H244.732C244.771 77.3268 244.902 77.6173 245.124 77.8207C245.347 78.0144 245.638 78.1113 245.996 78.1113C246.364 78.1113 246.655 78.029 246.868 77.8643C247.081 77.69 247.188 77.4527 247.188 77.1524C247.188 76.9006 247.1 76.6923 246.926 76.5277C246.761 76.363 246.553 76.2274 246.301 76.1209C246.059 76.0143 245.71 75.8933 245.255 75.7577C244.597 75.5543 244.059 75.3509 243.643 75.1475C243.226 74.9441 242.868 74.6438 242.567 74.2467C242.267 73.8496 242.117 73.3314 242.117 72.6922C242.117 71.743 242.461 71.002 243.149 70.4693C243.836 69.9269 244.732 69.6557 245.836 69.6557C246.96 69.6557 247.866 69.9269 248.553 70.4693C249.241 71.002 249.609 71.7478 249.657 72.7067H246.97C246.95 72.3774 246.829 72.1207 246.606 71.9367C246.384 71.743 246.098 71.6461 245.749 71.6461C245.449 71.6461 245.207 71.7284 245.023 71.8931C244.839 72.0481 244.747 72.2757 244.747 72.5759C244.747 72.9052 244.902 73.1619 245.212 73.3459C245.522 73.53 246.006 73.7285 246.665 73.9416C247.323 74.1644 247.856 74.3775 248.263 74.5809C248.679 74.7843 249.038 75.0797 249.338 75.4671C249.638 75.8545 249.788 76.3533 249.788 76.9635C249.788 77.5447 249.638 78.0726 249.338 78.5472C249.047 79.0217 248.621 79.3995 248.059 79.6804C247.497 79.9613 246.834 80.1017 246.069 80.1017ZM258.654 69.801V71.7914H255.952V80H253.467V71.7914H250.765V69.801H258.654Z"/>
</mask>
<path d="M49.8635 69.801V71.7914H47.1612V80H44.6769V71.7914H41.9746V69.801H49.8635ZM55.9338 80.1017C54.9749 80.1017 54.0936 79.8789 53.2896 79.4334C52.4954 78.9878 51.861 78.368 51.3864 77.5737C50.9215 76.7698 50.689 75.8691 50.689 74.8714C50.689 73.8738 50.9215 72.9779 51.3864 72.1837C51.861 71.3894 52.4954 70.7696 53.2896 70.324C54.0936 69.8785 54.9749 69.6557 55.9338 69.6557C56.8927 69.6557 57.7693 69.8785 58.5635 70.324C59.3674 70.7696 59.997 71.3894 60.4522 72.1837C60.9171 72.9779 61.1496 73.8738 61.1496 74.8714C61.1496 75.8691 60.9171 76.7698 60.4522 77.5737C59.9873 78.368 59.3577 78.9878 58.5635 79.4334C57.7693 79.8789 56.8927 80.1017 55.9338 80.1017ZM55.9338 77.8353C56.7474 77.8353 57.3964 77.5641 57.8806 77.0217C58.3746 76.4793 58.6216 75.7625 58.6216 74.8714C58.6216 73.9707 58.3746 73.2539 57.8806 72.7212C57.3964 72.1788 56.7474 71.9076 55.9338 71.9076C55.1105 71.9076 54.4519 72.174 53.958 72.7067C53.4737 73.2394 53.2315 73.961 53.2315 74.8714C53.2315 75.7722 53.4737 76.4938 53.958 77.0362C54.4519 77.5689 55.1105 77.8353 55.9338 77.8353ZM70.434 80.1017C69.4751 80.1017 68.5937 79.8789 67.7898 79.4334C66.9955 78.9878 66.3611 78.368 65.8865 77.5737C65.4216 76.7698 65.1892 75.8691 65.1892 74.8714C65.1892 73.8738 65.4216 72.9779 65.8865 72.1837C66.3611 71.3894 66.9955 70.7696 67.7898 70.324C68.5937 69.8785 69.4751 69.6557 70.434 69.6557C71.3928 69.6557 72.2694 69.8785 73.0636 70.324C73.8675 70.7696 74.4971 71.3894 74.9523 72.1837C75.4172 72.9779 75.6497 73.8738 75.6497 74.8714C75.6497 75.8691 75.4172 76.7698 74.9523 77.5737C74.4874 78.368 73.8578 78.9878 73.0636 79.4334C72.2694 79.8789 71.3928 80.1017 70.434 80.1017ZM70.434 77.8353C71.2475 77.8353 71.8965 77.5641 72.3808 77.0217C72.8747 76.4793 73.1217 75.7625 73.1217 74.8714C73.1217 73.9707 72.8747 73.2539 72.3808 72.7212C71.8965 72.1788 71.2475 71.9076 70.434 71.9076C69.6107 71.9076 68.952 72.174 68.4581 72.7067C67.9738 73.2394 67.7317 73.961 67.7317 74.8714C67.7317 75.7722 67.9738 76.4938 68.4581 77.0362C68.952 77.5689 69.6107 77.8353 70.434 77.8353ZM91.0663 69.801L88.4076 80H85.4002L83.773 73.2878L82.0877 80H79.0803L76.4943 69.801H79.153L80.6204 77.2251L82.4364 69.801H85.1678L86.9112 77.2251L88.3931 69.801H91.0663ZM101.436 80H98.9518L94.7967 73.7092V80H92.3123V69.801H94.7967L98.9518 76.1209V69.801H101.436V80ZM115.062 69.801L111.532 76.6294V80H109.047V76.6294L105.517 69.801H108.335L110.311 74.0724L112.273 69.801H115.062ZM120.886 80.1017C119.928 80.1017 119.046 79.8789 118.242 79.4334C117.448 78.9878 116.814 78.368 116.339 77.5737C115.874 76.7698 115.642 75.8691 115.642 74.8714C115.642 73.8738 115.874 72.9779 116.339 72.1837C116.814 71.3894 117.448 70.7696 118.242 70.324C119.046 69.8785 119.928 69.6557 120.886 69.6557C121.845 69.6557 122.722 69.8785 123.516 70.324C124.32 70.7696 124.95 71.3894 125.405 72.1837C125.87 72.9779 126.102 73.8738 126.102 74.8714C126.102 75.8691 125.87 76.7698 125.405 77.5737C124.94 78.368 124.31 78.9878 123.516 79.4334C122.722 79.8789 121.845 80.1017 120.886 80.1017ZM120.886 77.8353C121.7 77.8353 122.349 77.5641 122.833 77.0217C123.327 76.4793 123.574 75.7625 123.574 74.8714C123.574 73.9707 123.327 73.2539 122.833 72.7212C122.349 72.1788 121.7 71.9076 120.886 71.9076C120.063 71.9076 119.405 72.174 118.911 72.7067C118.426 73.2394 118.184 73.961 118.184 74.8714C118.184 75.7722 118.426 76.4938 118.911 77.0362C119.405 77.5689 120.063 77.8353 120.886 77.8353ZM129.925 69.801V75.903C129.925 76.5132 130.075 76.9829 130.375 77.3122C130.676 77.6415 131.116 77.8062 131.698 77.8062C132.279 77.8062 132.724 77.6415 133.034 77.3122C133.344 76.9829 133.499 76.5132 133.499 75.903V69.801H135.983V75.8884C135.983 76.7989 135.79 77.5689 135.402 78.1985C135.015 78.828 134.492 79.3026 133.833 79.6223C133.184 79.9419 132.458 80.1017 131.654 80.1017C130.85 80.1017 130.128 79.9467 129.489 79.6368C128.86 79.3172 128.361 78.8426 127.993 78.213C127.625 77.5737 127.441 76.7989 127.441 75.8884V69.801H129.925ZM142.929 80L140.808 76.1499H140.212V80H137.728V69.801H141.898C142.702 69.801 143.384 69.9414 143.946 70.2223C144.518 70.5032 144.944 70.8906 145.225 71.3846C145.506 71.8689 145.646 72.4113 145.646 73.0118C145.646 73.6898 145.452 74.2951 145.065 74.8279C144.687 75.3606 144.125 75.7383 143.38 75.9611L145.733 80H142.929ZM140.212 74.392H141.752C142.208 74.392 142.547 74.2806 142.769 74.0578C143.002 73.8351 143.118 73.5203 143.118 73.1135C143.118 72.7261 143.002 72.421 142.769 72.1982C142.547 71.9754 142.208 71.864 141.752 71.864H140.212V74.392ZM158.057 73.0844C158.057 73.6753 157.922 74.2177 157.65 74.7116C157.379 75.1959 156.963 75.5882 156.401 75.8884C155.839 76.1887 155.142 76.3388 154.309 76.3388H152.769V80H150.284V69.801H154.309C155.122 69.801 155.81 69.9414 156.372 70.2223C156.934 70.5032 157.355 70.8906 157.636 71.3846C157.917 71.8786 158.057 72.4452 158.057 73.0844ZM154.12 74.3629C154.595 74.3629 154.948 74.2516 155.18 74.0288C155.413 73.806 155.529 73.4912 155.529 73.0844C155.529 72.6776 155.413 72.3629 155.18 72.1401C154.948 71.9173 154.595 71.8059 154.12 71.8059H152.769V74.3629H154.12ZM161.835 71.7914V73.8544H165.162V75.7722H161.835V78.0096H165.598V80H159.351V69.801H165.598V71.7914H161.835ZM173.56 78.1985H169.753L169.143 80H166.542L170.233 69.801H173.109L176.799 80H174.17L173.56 78.1985ZM172.92 76.2807L171.656 72.5469L170.407 76.2807H172.92ZM177.501 74.886C177.501 73.8787 177.719 72.9827 178.155 72.1982C178.591 71.404 179.196 70.7889 179.971 70.3531C180.756 69.9075 181.642 69.6848 182.63 69.6848C183.841 69.6848 184.877 70.0044 185.739 70.6436C186.601 71.2829 187.177 72.1546 187.468 73.2588H184.736C184.533 72.8326 184.242 72.5081 183.865 72.2854C183.497 72.0626 183.075 71.9512 182.601 71.9512C181.836 71.9512 181.216 72.2176 180.741 72.7503C180.267 73.283 180.029 73.9949 180.029 74.886C180.029 75.777 180.267 76.4889 180.741 77.0217C181.216 77.5544 181.836 77.8207 182.601 77.8207C183.075 77.8207 183.497 77.7093 183.865 77.4866C184.242 77.2638 184.533 76.9393 184.736 76.5132H187.468C187.177 77.6173 186.601 78.489 185.739 79.1283C184.877 79.7579 183.841 80.0726 182.63 80.0726C181.642 80.0726 180.756 79.8547 179.971 79.4189C179.196 78.9733 178.591 78.3583 178.155 77.5737C177.719 76.7892 177.501 75.8933 177.501 74.886ZM191.474 71.7914V73.8544H194.801V75.7722H191.474V78.0096H195.236V80H188.989V69.801H195.236V71.7914H191.474ZM203.489 69.801V71.7914H199.334V73.9416H202.443V75.8739H199.334V80H196.849V69.801H203.489ZM207.235 69.801V75.903C207.235 76.5132 207.386 76.9829 207.686 77.3122C207.986 77.6415 208.427 77.8062 209.008 77.8062C209.589 77.8062 210.035 77.6415 210.345 77.3122C210.654 76.9829 210.809 76.5132 210.809 75.903V69.801H213.294V75.8884C213.294 76.7989 213.1 77.5689 212.713 78.1985C212.325 78.828 211.802 79.3026 211.144 79.6223C210.495 79.9419 209.768 80.1017 208.964 80.1017C208.16 80.1017 207.439 79.9467 206.8 79.6368C206.17 79.3172 205.671 78.8426 205.303 78.213C204.935 77.5737 204.751 76.7989 204.751 75.8884V69.801H207.235ZM217.523 78.0822H220.777V80H215.038V69.801H217.523V78.0822ZM230.242 80L228.121 76.1499H227.525V80H225.041V69.801H229.211C230.014 69.801 230.697 69.9414 231.259 70.2223C231.831 70.5032 232.257 70.8906 232.538 71.3846C232.818 71.8689 232.959 72.4113 232.959 73.0118C232.959 73.6898 232.765 74.2951 232.378 74.8279C232 75.3606 231.438 75.7383 230.692 75.9611L233.046 80H230.242ZM227.525 74.392H229.065C229.521 74.392 229.86 74.2806 230.082 74.0578C230.315 73.8351 230.431 73.5203 230.431 73.1135C230.431 72.7261 230.315 72.421 230.082 72.1982C229.86 71.9754 229.521 71.864 229.065 71.864H227.525V74.392ZM237.003 71.7914V73.8544H240.33V75.7722H237.003V78.0096H240.766V80H234.518V69.801H240.766V71.7914H237.003ZM246.069 80.1017C245.323 80.1017 244.655 79.9806 244.064 79.7385C243.473 79.4963 242.998 79.138 242.64 78.6634C242.291 78.1888 242.107 77.6173 242.088 76.949H244.732C244.771 77.3268 244.902 77.6173 245.124 77.8207C245.347 78.0144 245.638 78.1113 245.996 78.1113C246.364 78.1113 246.655 78.029 246.868 77.8643C247.081 77.69 247.188 77.4527 247.188 77.1524C247.188 76.9006 247.1 76.6923 246.926 76.5277C246.761 76.363 246.553 76.2274 246.301 76.1209C246.059 76.0143 245.71 75.8933 245.255 75.7577C244.597 75.5543 244.059 75.3509 243.643 75.1475C243.226 74.9441 242.868 74.6438 242.567 74.2467C242.267 73.8496 242.117 73.3314 242.117 72.6922C242.117 71.743 242.461 71.002 243.149 70.4693C243.836 69.9269 244.732 69.6557 245.836 69.6557C246.96 69.6557 247.866 69.9269 248.553 70.4693C249.241 71.002 249.609 71.7478 249.657 72.7067H246.97C246.95 72.3774 246.829 72.1207 246.606 71.9367C246.384 71.743 246.098 71.6461 245.749 71.6461C245.449 71.6461 245.207 71.7284 245.023 71.8931C244.839 72.0481 244.747 72.2757 244.747 72.5759C244.747 72.9052 244.902 73.1619 245.212 73.3459C245.522 73.53 246.006 73.7285 246.665 73.9416C247.323 74.1644 247.856 74.3775 248.263 74.5809C248.679 74.7843 249.038 75.0797 249.338 75.4671C249.638 75.8545 249.788 76.3533 249.788 76.9635C249.788 77.5447 249.638 78.0726 249.338 78.5472C249.047 79.0217 248.621 79.3995 248.059 79.6804C247.497 79.9613 246.834 80.1017 246.069 80.1017ZM258.654 69.801V71.7914H255.952V80H253.467V71.7914H250.765V69.801H258.654Z" fill="#FD4525"/>
<path d="M49.8635 69.801H49.991V69.6735H49.8635V69.801ZM49.8635 71.7914V71.9189H49.991V71.7914H49.8635ZM47.1612 71.7914V71.6639H47.0337V71.7914H47.1612ZM47.1612 80V80.1275H47.2887V80H47.1612ZM44.6769 80H44.5493V80.1275H44.6769V80ZM44.6769 71.7914H44.8044V71.6639H44.6769V71.7914ZM41.9746 71.7914H41.847V71.9189H41.9746V71.7914ZM41.9746 69.801V69.6735H41.847V69.801H41.9746ZM49.736 69.801V71.7914H49.991V69.801H49.736ZM49.8635 71.6639H47.1612V71.9189H49.8635V71.6639ZM47.0337 71.7914V80H47.2887V71.7914H47.0337ZM47.1612 79.8725H44.6769V80.1275H47.1612V79.8725ZM44.8044 80V71.7914H44.5493V80H44.8044ZM44.6769 71.6639H41.9746V71.9189H44.6769V71.6639ZM42.1021 71.7914V69.801H41.847V71.7914H42.1021ZM41.9746 69.9285H49.8635V69.6735H41.9746V69.9285ZM53.2896 79.4334L53.2273 79.5446L53.2278 79.5449L53.2896 79.4334ZM51.3864 77.5737L51.276 77.6376L51.2769 77.6391L51.3864 77.5737ZM51.3864 72.1837L51.2769 72.1183L51.2764 72.1192L51.3864 72.1837ZM53.2896 70.324L53.2278 70.2125L53.2273 70.2128L53.2896 70.324ZM58.5635 70.324L58.5011 70.4352L58.5017 70.4356L58.5635 70.324ZM60.4522 72.1837L60.3416 72.2471L60.3421 72.2481L60.4522 72.1837ZM60.4522 77.5737L60.5622 77.6382L60.5626 77.6376L60.4522 77.5737ZM58.5635 79.4334L58.6259 79.5446L58.5635 79.4334ZM57.8806 77.0217L57.7864 76.9358L57.7855 76.9367L57.8806 77.0217ZM57.8806 72.7212L57.7855 72.8062L57.7871 72.8079L57.8806 72.7212ZM53.958 72.7067L53.8644 72.62L53.8636 72.6209L53.958 72.7067ZM53.958 77.0362L53.8628 77.1211L53.8645 77.1229L53.958 77.0362ZM55.9338 79.9742C54.9956 79.9742 54.1356 79.7565 53.3515 79.3219L53.2278 79.5449C54.0515 80.0014 54.9543 80.2292 55.9338 80.2292V79.9742ZM53.352 79.3222C52.5775 78.8877 51.9592 78.2838 51.4959 77.5083L51.2769 77.6391C51.7628 78.4522 52.4133 79.088 53.2273 79.5446L53.352 79.3222ZM51.4968 77.5099C51.0439 76.7268 50.8166 75.8484 50.8166 74.8714H50.5615C50.5615 75.8898 50.7991 76.8128 51.276 77.6376L51.4968 77.5099ZM50.8166 74.8714C50.8166 73.8945 51.0439 73.0211 51.4965 72.2481L51.2764 72.1192C50.7991 72.9346 50.5615 73.8531 50.5615 74.8714H50.8166ZM51.4959 72.2491C51.9592 71.4736 52.5775 70.8697 53.352 70.4352L53.2273 70.2128C52.4133 70.6694 51.7628 71.3052 51.2769 72.1183L51.4959 72.2491ZM53.3515 70.4356C54.1356 70.001 54.9956 69.7832 55.9338 69.7832V69.5282C54.9543 69.5282 54.0515 69.756 53.2278 70.2125L53.3515 70.4356ZM55.9338 69.7832C56.8721 69.7832 57.727 70.001 58.5011 70.4352L58.6259 70.2128C57.8116 69.756 56.9134 69.5282 55.9338 69.5282V69.7832ZM58.5017 70.4356C59.2853 70.8699 59.898 71.4731 60.3416 72.2471L60.5628 72.1203C60.096 71.3058 59.4495 70.6693 58.6253 70.2125L58.5017 70.4356ZM60.3421 72.2481C60.7947 73.0211 61.022 73.8945 61.022 74.8714H61.2771C61.2771 73.8531 61.0395 72.9346 60.5622 72.1193L60.3421 72.2481ZM61.022 74.8714C61.022 75.8484 60.7947 76.7268 60.3418 77.5099L60.5626 77.6376C61.0395 76.8128 61.2771 75.8898 61.2771 74.8714H61.022ZM60.3421 77.5093C59.8886 78.2842 59.2753 78.8878 58.5011 79.3222L58.6259 79.5446C59.4401 79.0878 60.086 78.4517 60.5622 77.6382L60.3421 77.5093ZM58.5011 79.3222C57.727 79.7565 56.8721 79.9742 55.9338 79.9742V80.2292C56.9134 80.2292 57.8116 80.0014 58.6259 79.5446L58.5011 79.3222ZM55.9338 77.9628C56.7789 77.9628 57.4643 77.6795 57.9758 77.1066L57.7855 76.9367C57.3285 77.4486 56.7159 77.7077 55.9338 77.7077V77.9628ZM57.9749 77.1075C58.4947 76.5368 58.7491 75.7871 58.7491 74.8714H58.4941C58.4941 75.7379 58.2546 76.4217 57.7864 76.9358L57.9749 77.1075ZM58.7491 74.8714C58.7491 73.9466 58.4949 73.1961 57.9741 72.6345L57.7871 72.8079C58.2543 73.3117 58.4941 73.9948 58.4941 74.8714H58.7491ZM57.9758 72.6363C57.4643 72.0634 56.7789 71.7801 55.9338 71.7801V72.0351C56.7159 72.0351 57.3285 72.2942 57.7855 72.8061L57.9758 72.6363ZM55.9338 71.7801C55.0803 71.7801 54.3859 72.0577 53.8645 72.62L54.0515 72.7934C54.518 72.2903 55.1408 72.0351 55.9338 72.0351V71.7801ZM53.8636 72.6209C53.3528 73.1828 53.104 73.938 53.104 74.8714H53.359C53.359 73.984 53.5946 73.296 54.0523 72.7925L53.8636 72.6209ZM53.104 74.8714C53.104 75.7957 53.353 76.5501 53.8628 77.1211L54.0531 76.9513C53.5943 76.4375 53.359 75.7487 53.359 74.8714H53.104ZM53.8645 77.1229C54.3859 77.6852 55.0803 77.9628 55.9338 77.9628V77.7077C55.1408 77.7077 54.518 77.4526 54.0515 76.9495L53.8645 77.1229ZM67.7898 79.4334L67.7274 79.5446L67.728 79.5449L67.7898 79.4334ZM65.8865 77.5737L65.7761 77.6376L65.7771 77.6391L65.8865 77.5737ZM65.8865 72.1837L65.7771 72.1183L65.7765 72.1192L65.8865 72.1837ZM67.7898 70.324L67.728 70.2125L67.7274 70.2128L67.7898 70.324ZM73.0636 70.324L73.0012 70.4352L73.0018 70.4356L73.0636 70.324ZM74.9523 72.1837L74.8417 72.2471L74.8423 72.2481L74.9523 72.1837ZM74.9523 77.5737L75.0624 77.6382L75.0627 77.6376L74.9523 77.5737ZM73.0636 79.4334L73.126 79.5446L73.0636 79.4334ZM72.3808 77.0217L72.2865 76.9358L72.2857 76.9367L72.3808 77.0217ZM72.3808 72.7212L72.2856 72.8062L72.2873 72.8079L72.3808 72.7212ZM68.4581 72.7067L68.3646 72.62L68.3637 72.6209L68.4581 72.7067ZM68.4581 77.0362L68.3629 77.1211L68.3646 77.1229L68.4581 77.0362ZM70.434 79.9742C69.4957 79.9742 68.6357 79.7565 67.8516 79.3219L67.728 79.5449C68.5516 80.0014 69.4544 80.2292 70.434 80.2292V79.9742ZM67.8521 79.3222C67.0777 78.8877 66.4594 78.2838 65.996 77.5083L65.7771 77.6391C66.2629 78.4522 66.9134 79.088 67.7274 79.5446L67.8521 79.3222ZM65.9969 77.5099C65.5441 76.7268 65.3167 75.8484 65.3167 74.8714H65.0616C65.0616 75.8898 65.2992 76.8128 65.7761 77.6376L65.9969 77.5099ZM65.3167 74.8714C65.3167 73.8945 65.5441 73.0211 65.9966 72.2481L65.7765 72.1192C65.2992 72.9346 65.0616 73.8531 65.0616 74.8714H65.3167ZM65.996 72.2491C66.4594 71.4736 67.0777 70.8697 67.8521 70.4352L67.7274 70.2128C66.9134 70.6694 66.2629 71.3052 65.7771 72.1183L65.996 72.2491ZM67.8516 70.4356C68.6357 70.001 69.4957 69.7832 70.434 69.7832V69.5282C69.4544 69.5282 68.5516 69.756 67.728 70.2125L67.8516 70.4356ZM70.434 69.7832C71.3722 69.7832 72.2271 70.001 73.0012 70.4352L73.126 70.2128C72.3117 69.756 71.4135 69.5282 70.434 69.5282V69.7832ZM73.0018 70.4356C73.7854 70.8699 74.3981 71.4731 74.8417 72.2471L75.0629 72.1203C74.5961 71.3058 73.9496 70.6693 73.1254 70.2125L73.0018 70.4356ZM74.8423 72.2481C75.2948 73.0211 75.5222 73.8945 75.5222 74.8714H75.7772C75.7772 73.8531 75.5397 72.9346 75.0624 72.1193L74.8423 72.2481ZM75.5222 74.8714C75.5222 75.8484 75.2948 76.7268 74.8419 77.5099L75.0627 77.6376C75.5397 76.8128 75.7772 75.8898 75.7772 74.8714H75.5222ZM74.8423 77.5093C74.3887 78.2842 73.7755 78.8878 73.0012 79.3222L73.126 79.5446C73.9402 79.0878 74.5861 78.4517 75.0624 77.6382L74.8423 77.5093ZM73.0012 79.3222C72.2271 79.7565 71.3722 79.9742 70.434 79.9742V80.2292C71.4135 80.2292 72.3117 80.0014 73.126 79.5446L73.0012 79.3222ZM70.434 77.9628C71.2791 77.9628 71.9644 77.6795 72.4759 77.1066L72.2857 76.9367C71.8286 77.4486 71.216 77.7077 70.434 77.7077V77.9628ZM72.475 77.1075C72.9948 76.5368 73.2492 75.7871 73.2492 74.8714H72.9942C72.9942 75.7379 72.7547 76.4217 72.2865 76.9358L72.475 77.1075ZM73.2492 74.8714C73.2492 73.9466 72.995 73.1961 72.4743 72.6345L72.2873 72.8079C72.7544 73.3117 72.9942 73.9948 72.9942 74.8714H73.2492ZM72.4759 72.6363C71.9644 72.0634 71.2791 71.7801 70.434 71.7801V72.0351C71.216 72.0351 71.8286 72.2942 72.2857 72.8061L72.4759 72.6363ZM70.434 71.7801C69.5804 71.7801 68.886 72.0577 68.3646 72.62L68.5516 72.7934C69.0181 72.2903 69.6409 72.0351 70.434 72.0351V71.7801ZM68.3637 72.6209C67.8529 73.1828 67.6041 73.938 67.6041 74.8714H67.8592C67.8592 73.984 68.0947 73.296 68.5524 72.7925L68.3637 72.6209ZM67.6041 74.8714C67.6041 75.7957 67.8531 76.5501 68.363 77.1211L68.5532 76.9513C68.0944 76.4375 67.8592 75.7487 67.8592 74.8714H67.6041ZM68.3646 77.1229C68.886 77.6852 69.5804 77.9628 70.434 77.9628V77.7077C69.6409 77.7077 69.0181 77.4526 68.5516 76.9495L68.3646 77.1229ZM91.0663 69.801L91.1897 69.8332L91.2314 69.6735H91.0663V69.801ZM88.4076 80V80.1275H88.5062L88.531 80.0322L88.4076 80ZM85.4002 80L85.2763 80.03L85.2999 80.1275H85.4002V80ZM83.773 73.2878L83.897 73.2578L83.6494 73.2568L83.773 73.2878ZM82.0877 80V80.1275H82.1872L82.2114 80.0311L82.0877 80ZM79.0803 80L78.9567 80.0313L78.9811 80.1275H79.0803V80ZM76.4943 69.801V69.6735H76.3304L76.3707 69.8323L76.4943 69.801ZM79.153 69.801L79.2781 69.7763L79.2578 69.6735H79.153V69.801ZM80.6204 77.2251L80.4953 77.2498L80.7442 77.2554L80.6204 77.2251ZM82.4364 69.801V69.6735H82.3363L82.3126 69.7707L82.4364 69.801ZM85.1678 69.801L85.2919 69.7718L85.2688 69.6735H85.1678V69.801ZM86.9112 77.2251L86.7871 77.2542L87.0362 77.25L86.9112 77.2251ZM88.3931 69.801V69.6735H88.2885L88.2681 69.776L88.3931 69.801ZM90.943 69.7688L88.2842 79.9678L88.531 80.0322L91.1897 69.8332L90.943 69.7688ZM88.4076 79.8725H85.4002V80.1275H88.4076V79.8725ZM85.5242 79.97L83.897 73.2578L83.6491 73.3179L85.2763 80.03L85.5242 79.97ZM83.6494 73.2568L81.9641 79.9689L82.2114 80.0311L83.8967 73.3189L83.6494 73.2568ZM82.0877 79.8725H79.0803V80.1275H82.0877V79.8725ZM79.2039 79.9687L76.6179 69.7697L76.3707 69.8323L78.9567 80.0313L79.2039 79.9687ZM76.4943 69.9285H79.153V69.6735H76.4943V69.9285ZM79.0279 69.8257L80.4953 77.2498L80.7454 77.2003L79.2781 69.7763L79.0279 69.8257ZM80.7442 77.2554L82.5603 69.8313L82.3126 69.7707L80.4965 77.1948L80.7442 77.2554ZM82.4364 69.9285H85.1678V69.6735H82.4364V69.9285ZM85.0436 69.8301L86.7871 77.2542L87.0353 77.1959L85.2919 69.7718L85.0436 69.8301ZM87.0362 77.25L88.5182 69.826L88.2681 69.776L86.7861 77.2001L87.0362 77.25ZM88.3931 69.9285H91.0663V69.6735H88.3931V69.9285ZM101.436 80V80.1275H101.564V80H101.436ZM98.9518 80L98.8454 80.0703L98.8832 80.1275H98.9518V80ZM94.7967 73.7092L94.9031 73.6389L94.6691 73.2847V73.7092H94.7967ZM94.7967 80V80.1275H94.9242V80H94.7967ZM92.3123 80H92.1848V80.1275H92.3123V80ZM92.3123 69.801V69.6735H92.1848V69.801H92.3123ZM94.7967 69.801L94.9032 69.7309L94.8654 69.6735H94.7967V69.801ZM98.9518 76.1209L98.8453 76.1909L99.0793 76.5469V76.1209H98.9518ZM98.9518 69.801V69.6735H98.8243V69.801H98.9518ZM101.436 69.801H101.564V69.6735H101.436V69.801ZM101.436 79.8725H98.9518V80.1275H101.436V79.8725ZM99.0582 79.9297L94.9031 73.6389L94.6903 73.7794L98.8454 80.0703L99.0582 79.9297ZM94.6691 73.7092V80H94.9242V73.7092H94.6691ZM94.7967 79.8725H92.3123V80.1275H94.7967V79.8725ZM92.4398 80V69.801H92.1848V80H92.4398ZM92.3123 69.9285H94.7967V69.6735H92.3123V69.9285ZM94.6901 69.871L98.8453 76.1909L99.0584 76.0508L94.9032 69.7309L94.6901 69.871ZM99.0793 76.1209V69.801H98.8243V76.1209H99.0793ZM98.9518 69.9285H101.436V69.6735H98.9518V69.9285ZM101.309 69.801V80H101.564V69.801H101.309ZM115.062 69.801L115.175 69.8596L115.271 69.6735H115.062V69.801ZM111.532 76.6294L111.418 76.5708L111.404 76.5984V76.6294H111.532ZM111.532 80V80.1275H111.659V80H111.532ZM109.047 80H108.92V80.1275H109.047V80ZM109.047 76.6294H109.175V76.5984L109.16 76.5708L109.047 76.6294ZM105.517 69.801V69.6735H105.307L105.403 69.8596L105.517 69.801ZM108.335 69.801L108.451 69.7475L108.417 69.6735H108.335V69.801ZM110.311 74.0724L110.195 74.1259L110.312 74.377L110.427 74.1256L110.311 74.0724ZM112.273 69.801V69.6735H112.191L112.157 69.7478L112.273 69.801ZM114.949 69.7424L111.418 76.5708L111.645 76.688L115.175 69.8596L114.949 69.7424ZM111.404 76.6294V80H111.659V76.6294H111.404ZM111.532 79.8725H109.047V80.1275H111.532V79.8725ZM109.175 80V76.6294H108.92V80H109.175ZM109.16 76.5708L105.63 69.7424L105.403 69.8596L108.934 76.688L109.16 76.5708ZM105.517 69.9285H108.335V69.6735H105.517V69.9285ZM108.22 69.8545L110.195 74.1259L110.427 74.0188L108.451 69.7475L108.22 69.8545ZM110.427 74.1256L112.388 69.8542L112.157 69.7478L110.195 74.0192L110.427 74.1256ZM112.273 69.9285H115.062V69.6735H112.273V69.9285ZM118.242 79.4334L118.18 79.5446L118.18 79.5449L118.242 79.4334ZM116.339 77.5737L116.229 77.6376L116.23 77.6391L116.339 77.5737ZM116.339 72.1837L116.23 72.1183L116.229 72.1192L116.339 72.1837ZM118.242 70.324L118.18 70.2125L118.18 70.2128L118.242 70.324ZM123.516 70.324L123.454 70.4352L123.454 70.4356L123.516 70.324ZM125.405 72.1837L125.294 72.2471L125.295 72.2481L125.405 72.1837ZM125.405 77.5737L125.515 77.6382L125.515 77.6376L125.405 77.5737ZM123.516 79.4334L123.578 79.5446L123.516 79.4334ZM122.833 77.0217L122.739 76.9358L122.738 76.9367L122.833 77.0217ZM122.833 72.7212L122.738 72.8062L122.74 72.8079L122.833 72.7212ZM118.911 72.7067L118.817 72.62L118.816 72.6209L118.911 72.7067ZM118.911 77.0362L118.815 77.1211L118.817 77.1229L118.911 77.0362ZM120.886 79.9742C119.948 79.9742 119.088 79.7565 118.304 79.3219L118.18 79.5449C119.004 80.0014 119.907 80.2292 120.886 80.2292V79.9742ZM118.305 79.3222C117.53 78.8877 116.912 78.2838 116.448 77.5083L116.23 77.6391C116.715 78.4522 117.366 79.088 118.18 79.5446L118.305 79.3222ZM116.449 77.5099C115.997 76.7268 115.769 75.8484 115.769 74.8714H115.514C115.514 75.8898 115.752 76.8128 116.229 77.6376L116.449 77.5099ZM115.769 74.8714C115.769 73.8945 115.997 73.0211 116.449 72.2481L116.229 72.1192C115.752 72.9346 115.514 73.8531 115.514 74.8714H115.769ZM116.448 72.2491C116.912 71.4736 117.53 70.8697 118.305 70.4352L118.18 70.2128C117.366 70.6694 116.715 71.3052 116.23 72.1183L116.448 72.2491ZM118.304 70.4356C119.088 70.001 119.948 69.7832 120.886 69.7832V69.5282C119.907 69.5282 119.004 69.756 118.18 70.2125L118.304 70.4356ZM120.886 69.7832C121.825 69.7832 122.68 70.001 123.454 70.4352L123.578 70.2128C122.764 69.756 121.866 69.5282 120.886 69.5282V69.7832ZM123.454 70.4356C124.238 70.8699 124.851 71.4731 125.294 72.2471L125.515 72.1203C125.049 71.3058 124.402 70.6693 123.578 70.2125L123.454 70.4356ZM125.295 72.2481C125.747 73.0211 125.975 73.8945 125.975 74.8714H126.23C126.23 73.8531 125.992 72.9346 125.515 72.1193L125.295 72.2481ZM125.975 74.8714C125.975 75.8484 125.747 76.7268 125.294 77.5099L125.515 77.6376C125.992 76.8128 126.23 75.8898 126.23 74.8714H125.975ZM125.295 77.5093C124.841 78.2842 124.228 78.8878 123.454 79.3222L123.578 79.5446C124.393 79.0878 125.039 78.4517 125.515 77.6382L125.295 77.5093ZM123.454 79.3222C122.68 79.7565 121.825 79.9742 120.886 79.9742V80.2292C121.866 80.2292 122.764 80.0014 123.578 79.5446L123.454 79.3222ZM120.886 77.9628C121.732 77.9628 122.417 77.6795 122.928 77.1066L122.738 76.9367C122.281 77.4486 121.669 77.7077 120.886 77.7077V77.9628ZM122.928 77.1075C123.447 76.5368 123.702 75.7871 123.702 74.8714H123.447C123.447 75.7379 123.207 76.4217 122.739 76.9358L122.928 77.1075ZM123.702 74.8714C123.702 73.9466 123.448 73.1961 122.927 72.6345L122.74 72.8079C123.207 73.3117 123.447 73.9948 123.447 74.8714H123.702ZM122.928 72.6363C122.417 72.0634 121.732 71.7801 120.886 71.7801V72.0351C121.669 72.0351 122.281 72.2942 122.738 72.8061L122.928 72.6363ZM120.886 71.7801C120.033 71.7801 119.338 72.0577 118.817 72.62L119.004 72.7934C119.471 72.2903 120.093 72.0351 120.886 72.0351V71.7801ZM118.816 72.6209C118.305 73.1828 118.057 73.938 118.057 74.8714H118.312C118.312 73.984 118.547 73.296 119.005 72.7925L118.816 72.6209ZM118.057 74.8714C118.057 75.7957 118.306 76.5501 118.815 77.1211L119.006 76.9513C118.547 76.4375 118.312 75.7487 118.312 74.8714H118.057ZM118.817 77.1229C119.338 77.6852 120.033 77.9628 120.886 77.9628V77.7077C120.093 77.7077 119.471 77.4526 119.004 76.9495L118.817 77.1229ZM129.925 69.801H130.053V69.6735H129.925V69.801ZM130.375 77.3122L130.281 77.3981L130.375 77.3122ZM133.034 77.3122L133.127 77.3996L133.034 77.3122ZM133.499 69.801V69.6735H133.372V69.801H133.499ZM135.983 69.801H136.111V69.6735H135.983V69.801ZM135.402 78.1985L135.511 78.2653L135.402 78.1985ZM133.833 79.6223L133.778 79.5075L133.777 79.5079L133.833 79.6223ZM129.489 79.6368L129.431 79.7505L129.434 79.7515L129.489 79.6368ZM127.993 78.213L127.882 78.2766L127.883 78.2774L127.993 78.213ZM127.441 69.801V69.6735H127.313V69.801H127.441ZM129.798 69.801V75.903H130.053V69.801H129.798ZM129.798 75.903C129.798 76.5331 129.953 77.0379 130.281 77.3981L130.47 77.2263C130.198 76.928 130.053 76.4932 130.053 75.903H129.798ZM130.281 77.3981C130.612 77.7614 131.092 77.9337 131.698 77.9337V77.6787C131.141 77.6787 130.739 77.5217 130.47 77.2263L130.281 77.3981ZM131.698 77.9337C132.303 77.9337 132.787 77.7613 133.127 77.3996L132.941 77.2248C132.662 77.5217 132.254 77.6787 131.698 77.6787V77.9337ZM133.127 77.3996C133.466 77.0394 133.627 76.5341 133.627 75.903H133.372C133.372 76.4922 133.222 76.9264 132.941 77.2248L133.127 77.3996ZM133.627 75.903V69.801H133.372V75.903H133.627ZM133.499 69.9285H135.983V69.6735H133.499V69.9285ZM135.856 69.801V75.8884H136.111V69.801H135.856ZM135.856 75.8884C135.856 76.7807 135.666 77.5264 135.294 78.1316L135.511 78.2653C135.913 77.6114 136.111 76.817 136.111 75.8884H135.856ZM135.294 78.1316C134.919 78.7407 134.414 79.1986 133.778 79.5075L133.889 79.737C134.57 79.4066 135.111 78.9153 135.511 78.2653L135.294 78.1316ZM133.777 79.5079C133.147 79.8179 132.441 79.9742 131.654 79.9742V80.2292C132.475 80.2292 133.221 80.0658 133.89 79.7367L133.777 79.5079ZM131.654 79.9742C130.867 79.9742 130.165 79.8225 129.545 79.522L129.434 79.7515C130.092 80.0709 130.833 80.2292 131.654 80.2292V79.9742ZM129.547 79.5231C128.94 79.2149 128.459 78.7578 128.103 78.1486L127.883 78.2774C128.263 78.9273 128.779 79.4194 129.432 79.7505L129.547 79.5231ZM128.103 78.1494C127.749 77.5335 127.568 76.7817 127.568 75.8884H127.313C127.313 76.816 127.501 77.614 127.882 78.2766L128.103 78.1494ZM127.568 75.8884V69.801H127.313V75.8884H127.568ZM127.441 69.9285H129.925V69.6735H127.441V69.9285ZM142.929 80L142.818 80.0615L142.854 80.1275H142.929V80ZM140.808 76.1499L140.92 76.0884L140.883 76.0224H140.808V76.1499ZM140.212 76.1499V76.0224H140.085V76.1499H140.212ZM140.212 80V80.1275H140.34V80H140.212ZM137.728 80H137.601V80.1275H137.728V80ZM137.728 69.801V69.6735H137.601V69.801H137.728ZM143.946 70.2223L143.889 70.3364L143.89 70.3368L143.946 70.2223ZM145.225 71.3846L145.114 71.4476L145.114 71.4486L145.225 71.3846ZM145.065 74.8279L144.962 74.7528L144.961 74.7541L145.065 74.8279ZM143.38 75.9611L143.343 75.8389L143.188 75.8853L143.269 76.0253L143.38 75.9611ZM145.733 80V80.1275H145.955L145.843 79.9358L145.733 80ZM140.212 74.392H140.085V74.5195H140.212V74.392ZM142.769 74.0578L142.681 73.9658L142.679 73.9677L142.769 74.0578ZM142.769 72.1982L142.679 72.2884L142.681 72.2903L142.769 72.1982ZM140.212 71.864V71.7365H140.085V71.864H140.212ZM143.041 79.9385L140.92 76.0884L140.696 76.2115L142.818 80.0615L143.041 79.9385ZM140.808 76.0224H140.212V76.2775H140.808V76.0224ZM140.085 76.1499V80H140.34V76.1499H140.085ZM140.212 79.8725H137.728V80.1275H140.212V79.8725ZM137.856 80V69.801H137.601V80H137.856ZM137.728 69.9285H141.898V69.6735H137.728V69.9285ZM141.898 69.9285C142.687 69.9285 143.349 70.0665 143.889 70.3364L144.003 70.1083C143.42 69.8164 142.716 69.6735 141.898 69.6735V69.9285ZM143.89 70.3368C144.441 70.6078 144.847 70.9785 145.114 71.4476L145.336 71.3216C145.041 70.8028 144.594 70.3986 144.002 70.1079L143.89 70.3368ZM145.114 71.4486C145.383 71.912 145.519 72.4321 145.519 73.0118H145.774C145.774 72.3905 145.628 71.8258 145.335 71.3206L145.114 71.4486ZM145.519 73.0118C145.519 73.6637 145.333 74.2426 144.962 74.7529L145.168 74.9029C145.572 74.3477 145.774 73.7159 145.774 73.0118H145.519ZM144.961 74.7541C144.603 75.2594 144.067 75.6227 143.343 75.8389L143.416 76.0833C144.184 75.854 144.772 75.4618 145.169 74.9016L144.961 74.7541ZM143.269 76.0253L145.623 80.0642L145.843 79.9358L143.49 75.8969L143.269 76.0253ZM145.733 79.8725H142.929V80.1275H145.733V79.8725ZM140.212 74.5195H141.752V74.2645H140.212V74.5195ZM141.752 74.5195C142.226 74.5195 142.604 74.4036 142.86 74.148L142.679 73.9677C142.489 74.1576 142.189 74.2645 141.752 74.2645V74.5195ZM142.858 74.1499C143.121 73.8971 143.246 73.5453 143.246 73.1135H142.991C142.991 73.4952 142.882 73.773 142.681 73.9658L142.858 74.1499ZM143.246 73.1135C143.246 72.6989 143.12 72.3578 142.858 72.1061L142.681 72.2903C142.884 72.4842 142.991 72.7532 142.991 73.1135H143.246ZM142.86 72.108C142.604 71.8525 142.226 71.7365 141.752 71.7365V71.9916C142.189 71.9916 142.489 72.0984 142.679 72.2884L142.86 72.108ZM141.752 71.7365H140.212V71.9916H141.752V71.7365ZM140.085 71.864V74.392H140.34V71.864H140.085ZM157.65 74.7116L157.762 74.7739L157.762 74.773L157.65 74.7116ZM156.401 75.8884L156.341 75.776L156.401 75.8884ZM152.769 76.3388V76.2113H152.641V76.3388H152.769ZM152.769 80V80.1275H152.896V80H152.769ZM150.284 80H150.157V80.1275H150.284V80ZM150.284 69.801V69.6735H150.157V69.801H150.284ZM156.372 70.2223L156.429 70.1083L156.372 70.2223ZM157.636 71.3846L157.747 71.3216L157.636 71.3846ZM155.18 72.1401L155.092 72.2321L155.18 72.1401ZM152.769 71.8059V71.6784H152.641V71.8059H152.769ZM152.769 74.3629H152.641V74.4905H152.769V74.3629ZM157.93 73.0844C157.93 73.6549 157.799 74.176 157.539 74.6503L157.762 74.773C158.044 74.2593 158.185 73.6956 158.185 73.0844H157.93ZM157.539 74.6493C157.281 75.1093 156.884 75.4855 156.341 75.776L156.461 76.0009C157.041 75.6909 157.477 75.2825 157.762 74.7739L157.539 74.6493ZM156.341 75.776C155.802 76.0638 155.127 76.2113 154.309 76.2113V76.4663C155.156 76.4663 155.876 76.3136 156.461 76.0009L156.341 75.776ZM154.309 76.2113H152.769V76.4663H154.309V76.2113ZM152.641 76.3388V80H152.896V76.3388H152.641ZM152.769 79.8725H150.284V80.1275H152.769V79.8725ZM150.412 80V69.801H150.157V80H150.412ZM150.284 69.9285H154.309V69.6735H150.284V69.9285ZM154.309 69.9285C155.108 69.9285 155.775 70.0666 156.315 70.3364L156.429 70.1083C155.845 69.8163 155.137 69.6735 154.309 69.6735V69.9285ZM156.315 70.3364C156.856 70.6072 157.258 70.9779 157.525 71.4476L157.747 71.3216C157.452 70.8033 157.011 70.3992 156.429 70.1083L156.315 70.3364ZM157.525 71.4476C157.794 71.9201 157.93 72.4645 157.93 73.0844H158.185C158.185 72.4259 158.04 71.8371 157.747 71.3216L157.525 71.4476ZM154.12 74.4905C154.612 74.4905 155.003 74.3752 155.269 74.1209L155.092 73.9367C154.893 74.1279 154.577 74.2354 154.12 74.2354V74.4905ZM155.269 74.1209C155.533 73.8681 155.657 73.5163 155.657 73.0844H155.402C155.402 73.4662 155.293 73.744 155.092 73.9367L155.269 74.1209ZM155.657 73.0844C155.657 72.6526 155.533 72.3008 155.269 72.048L155.092 72.2321C155.293 72.4249 155.402 72.7027 155.402 73.0844H155.657ZM155.269 72.048C155.003 71.7937 154.612 71.6784 154.12 71.6784V71.9334C154.577 71.9334 154.893 72.0409 155.092 72.2321L155.269 72.048ZM154.12 71.6784H152.769V71.9334H154.12V71.6784ZM152.641 71.8059V74.3629H152.896V71.8059H152.641ZM152.769 74.4905H154.12V74.2354H152.769V74.4905ZM161.835 71.7914V71.6639H161.707V71.7914H161.835ZM161.835 73.8544H161.707V73.982H161.835V73.8544ZM165.162 73.8544H165.289V73.7269H165.162V73.8544ZM165.162 75.7722V75.8997H165.289V75.7722H165.162ZM161.835 75.7722V75.6447H161.707V75.7722H161.835ZM161.835 78.0096H161.707V78.1371H161.835V78.0096ZM165.598 78.0096H165.725V77.8821H165.598V78.0096ZM165.598 80V80.1275H165.725V80H165.598ZM159.351 80H159.223V80.1275H159.351V80ZM159.351 69.801V69.6735H159.223V69.801H159.351ZM165.598 69.801H165.725V69.6735H165.598V69.801ZM165.598 71.7914V71.9189H165.725V71.7914H165.598ZM161.707 71.7914V73.8544H161.962V71.7914H161.707ZM161.835 73.982H165.162V73.7269H161.835V73.982ZM165.034 73.8544V75.7722H165.289V73.8544H165.034ZM165.162 75.6447H161.835V75.8997H165.162V75.6447ZM161.707 75.7722V78.0096H161.962V75.7722H161.707ZM161.835 78.1371H165.598V77.8821H161.835V78.1371ZM165.47 78.0096V80H165.725V78.0096H165.47ZM165.598 79.8725H159.351V80.1275H165.598V79.8725ZM159.478 80V69.801H159.223V80H159.478ZM159.351 69.9285H165.598V69.6735H159.351V69.9285ZM165.47 69.801V71.7914H165.725V69.801H165.47ZM165.598 71.6639H161.835V71.9189H165.598V71.6639ZM173.56 78.1985L173.68 78.1576L173.651 78.071H173.56V78.1985ZM169.753 78.1985V78.071H169.662L169.632 78.1576L169.753 78.1985ZM169.143 80V80.1275H169.234L169.264 80.0409L169.143 80ZM166.542 80L166.422 79.9566L166.361 80.1275H166.542V80ZM170.233 69.801V69.6735H170.143L170.113 69.7576L170.233 69.801ZM173.109 69.801L173.229 69.7576L173.199 69.6735H173.109V69.801ZM176.799 80V80.1275H176.981L176.919 79.9566L176.799 80ZM174.17 80L174.049 80.0409L174.078 80.1275H174.17V80ZM172.92 76.2807V76.4082H173.098L173.041 76.2398L172.92 76.2807ZM171.656 72.5469L171.777 72.506L171.656 72.1471L171.535 72.5064L171.656 72.5469ZM170.407 76.2807L170.286 76.2402L170.23 76.4082H170.407V76.2807ZM173.56 78.071H169.753V78.326H173.56V78.071ZM169.632 78.1576L169.022 79.9591L169.264 80.0409L169.874 78.2394L169.632 78.1576ZM169.143 79.8725H166.542V80.1275H169.143V79.8725ZM166.662 80.0434L170.352 69.8444L170.113 69.7576L166.422 79.9566L166.662 80.0434ZM170.233 69.9285H173.109V69.6735H170.233V69.9285ZM172.989 69.8444L176.68 80.0434L176.919 79.9566L173.229 69.7576L172.989 69.8444ZM176.799 79.8725H174.17V80.1275H176.799V79.8725ZM174.291 79.9591L173.68 78.1576L173.439 78.2394L174.049 80.0409L174.291 79.9591ZM173.041 76.2398L171.777 72.506L171.536 72.5878L172.8 76.3216L173.041 76.2398ZM171.535 72.5064L170.286 76.2402L170.528 76.3212L171.777 72.5873L171.535 72.5064ZM170.407 76.4082H172.92V76.1532H170.407V76.4082ZM178.155 72.1982L178.267 72.2601L178.267 72.2595L178.155 72.1982ZM179.971 70.3531L180.034 70.4642L180.034 70.464L179.971 70.3531ZM185.739 70.6436L185.815 70.5412L185.739 70.6436ZM187.468 73.2588V73.3863H187.633L187.591 73.2263L187.468 73.2588ZM184.736 73.2588L184.621 73.3137L184.656 73.3863H184.736V73.2588ZM183.865 72.2854L183.799 72.3945L183.8 72.3952L183.865 72.2854ZM180.741 72.7503L180.836 72.8351L180.741 72.7503ZM183.865 77.4866L183.8 77.3767L183.799 77.3775L183.865 77.4866ZM184.736 76.5132V76.3856H184.656L184.621 76.4582L184.736 76.5132ZM187.468 76.5132L187.591 76.5456L187.633 76.3856H187.468V76.5132ZM185.739 79.1283L185.814 79.2313L185.815 79.2307L185.739 79.1283ZM179.971 79.4189L179.908 79.5294L179.909 79.5303L179.971 79.4189ZM178.155 77.5737L178.267 77.5118L178.155 77.5737ZM177.629 74.886C177.629 73.8976 177.842 73.0235 178.267 72.2601L178.044 72.1363C177.596 72.942 177.374 73.8597 177.374 74.886H177.629ZM178.267 72.2595C178.691 71.4858 179.28 70.8882 180.034 70.4642L179.909 70.2419C179.113 70.6897 178.49 71.3222 178.043 72.1368L178.267 72.2595ZM180.034 70.464C180.798 70.0303 181.662 69.8123 182.63 69.8123V69.5573C181.622 69.5573 180.714 69.7847 179.908 70.2422L180.034 70.464ZM182.63 69.8123C183.817 69.8123 184.826 70.1252 185.663 70.7461L185.815 70.5412C184.928 69.8836 183.864 69.5573 182.63 69.5573V69.8123ZM185.663 70.7461C186.5 71.3669 187.061 72.2132 187.344 73.2912L187.591 73.2263C187.294 72.0961 186.702 71.1989 185.815 70.5412L185.663 70.7461ZM187.468 73.1313H184.736V73.3863H187.468V73.1313ZM184.852 73.2039C184.638 72.7566 184.331 72.4122 183.93 72.1755L183.8 72.3952C184.154 72.6041 184.428 72.9086 184.621 73.3137L184.852 73.2039ZM183.931 72.1763C183.541 71.9402 183.096 71.8237 182.601 71.8237V72.0787C183.055 72.0787 183.453 72.185 183.799 72.3945L183.931 72.1763ZM182.601 71.8237C181.802 71.8237 181.147 72.1034 180.646 72.6655L180.836 72.8351C181.285 72.3317 181.869 72.0787 182.601 72.0787V71.8237ZM180.646 72.6655C180.146 73.2269 179.902 73.9717 179.902 74.886H180.157C180.157 74.0181 180.387 73.3391 180.836 72.8351L180.646 72.6655ZM179.902 74.886C179.902 75.8002 180.146 76.545 180.646 77.1065L180.836 76.9368C180.387 76.4329 180.157 75.7539 180.157 74.886H179.902ZM180.646 77.1065C181.147 77.6685 181.802 77.9482 182.601 77.9482V77.6932C181.869 77.6932 181.285 77.4402 180.836 76.9368L180.646 77.1065ZM182.601 77.9482C183.096 77.9482 183.541 77.8317 183.931 77.5957L183.799 77.3775C183.453 77.587 183.055 77.6932 182.601 77.6932V77.9482ZM183.93 77.5964C184.331 77.3597 184.638 77.0153 184.852 76.5681L184.621 76.4582C184.428 76.8633 184.154 77.1679 183.8 77.3767L183.93 77.5964ZM184.736 76.6407H187.468V76.3856H184.736V76.6407ZM187.344 76.4807C187.061 77.5588 186.5 78.405 185.663 79.0259L185.815 79.2307C186.702 78.573 187.294 77.6759 187.591 76.5456L187.344 76.4807ZM185.664 79.0253C184.826 79.6368 183.817 79.9451 182.63 79.9451V80.2002C183.864 80.2002 184.927 79.8789 185.814 79.2313L185.664 79.0253ZM182.63 79.9451C181.661 79.9451 180.797 79.7317 180.033 79.3074L179.909 79.5303C180.715 79.9777 181.622 80.2002 182.63 80.2002V79.9451ZM180.035 79.3083C179.28 78.8744 178.691 78.2762 178.267 77.5118L178.044 77.6357C178.491 78.4404 179.113 79.0723 179.908 79.5294L180.035 79.3083ZM178.267 77.5118C177.842 76.7484 177.629 75.8743 177.629 74.886H177.374C177.374 75.9122 177.596 76.83 178.044 77.6357L178.267 77.5118ZM191.474 71.7914V71.6639H191.346V71.7914H191.474ZM191.474 73.8544H191.346V73.982H191.474V73.8544ZM194.801 73.8544H194.928V73.7269H194.801V73.8544ZM194.801 75.7722V75.8997H194.928V75.7722H194.801ZM191.474 75.7722V75.6447H191.346V75.7722H191.474ZM191.474 78.0096H191.346V78.1371H191.474V78.0096ZM195.236 78.0096H195.364V77.8821H195.236V78.0096ZM195.236 80V80.1275H195.364V80H195.236ZM188.989 80H188.862V80.1275H188.989V80ZM188.989 69.801V69.6735H188.862V69.801H188.989ZM195.236 69.801H195.364V69.6735H195.236V69.801ZM195.236 71.7914V71.9189H195.364V71.7914H195.236ZM191.346 71.7914V73.8544H191.601V71.7914H191.346ZM191.474 73.982H194.801V73.7269H191.474V73.982ZM194.673 73.8544V75.7722H194.928V73.8544H194.673ZM194.801 75.6447H191.474V75.8997H194.801V75.6447ZM191.346 75.7722V78.0096H191.601V75.7722H191.346ZM191.474 78.1371H195.236V77.8821H191.474V78.1371ZM195.109 78.0096V80H195.364V78.0096H195.109ZM195.236 79.8725H188.989V80.1275H195.236V79.8725ZM189.117 80V69.801H188.862V80H189.117ZM188.989 69.9285H195.236V69.6735H188.989V69.9285ZM195.109 69.801V71.7914H195.364V69.801H195.109ZM195.236 71.6639H191.474V71.9189H195.236V71.6639ZM203.489 69.801H203.616V69.6735H203.489V69.801ZM203.489 71.7914V71.9189H203.616V71.7914H203.489ZM199.334 71.7914V71.6639H199.206V71.7914H199.334ZM199.334 73.9416H199.206V74.0691H199.334V73.9416ZM202.443 73.9416H202.57V73.8141H202.443V73.9416ZM202.443 75.8739V76.0014H202.57V75.8739H202.443ZM199.334 75.8739V75.7464H199.206V75.8739H199.334ZM199.334 80V80.1275H199.461V80H199.334ZM196.849 80H196.722V80.1275H196.849V80ZM196.849 69.801V69.6735H196.722V69.801H196.849ZM203.361 69.801V71.7914H203.616V69.801H203.361ZM203.489 71.6639H199.334V71.9189H203.489V71.6639ZM199.206 71.7914V73.9416H199.461V71.7914H199.206ZM199.334 74.0691H202.443V73.8141H199.334V74.0691ZM202.315 73.9416V75.8739H202.57V73.9416H202.315ZM202.443 75.7464H199.334V76.0014H202.443V75.7464ZM199.206 75.8739V80H199.461V75.8739H199.206ZM199.334 79.8725H196.849V80.1275H199.334V79.8725ZM196.977 80V69.801H196.722V80H196.977ZM196.849 69.9285H203.489V69.6735H196.849V69.9285ZM207.235 69.801H207.363V69.6735H207.235V69.801ZM207.686 77.3122L207.592 77.3981L207.686 77.3122ZM210.345 77.3122L210.437 77.3996L210.345 77.3122ZM210.809 69.801V69.6735H210.682V69.801H210.809ZM213.294 69.801H213.421V69.6735H213.294V69.801ZM212.713 78.1985L212.821 78.2653L212.713 78.1985ZM211.144 79.6223L211.088 79.5075L211.087 79.5079L211.144 79.6223ZM206.8 79.6368L206.742 79.7505L206.744 79.7515L206.8 79.6368ZM205.303 78.213L205.193 78.2766L205.193 78.2774L205.303 78.213ZM204.751 69.801V69.6735H204.624V69.801H204.751ZM207.108 69.801V75.903H207.363V69.801H207.108ZM207.108 75.903C207.108 76.5331 207.263 77.0379 207.592 77.3981L207.78 77.2263C207.508 76.928 207.363 76.4932 207.363 75.903H207.108ZM207.592 77.3981C207.923 77.7614 208.402 77.9337 209.008 77.9337V77.6787C208.451 77.6787 208.049 77.5217 207.78 77.2263L207.592 77.3981ZM209.008 77.9337C209.614 77.9337 210.097 77.7613 210.437 77.3996L210.252 77.2248C209.972 77.5217 209.564 77.6787 209.008 77.6787V77.9337ZM210.437 77.3996C210.776 77.0394 210.937 76.5341 210.937 75.903H210.682C210.682 76.4922 210.533 76.9264 210.252 77.2248L210.437 77.3996ZM210.937 75.903V69.801H210.682V75.903H210.937ZM210.809 69.9285H213.294V69.6735H210.809V69.9285ZM213.166 69.801V75.8884H213.421V69.801H213.166ZM213.166 75.8884C213.166 76.7807 212.977 77.5264 212.604 78.1316L212.821 78.2653C213.224 77.6114 213.421 76.817 213.421 75.8884H213.166ZM212.604 78.1316C212.229 78.7407 211.724 79.1986 211.088 79.5075L211.199 79.737C211.88 79.4066 212.421 78.9153 212.821 78.2653L212.604 78.1316ZM211.087 79.5079C210.458 79.8179 209.751 79.9742 208.964 79.9742V80.2292C209.786 80.2292 210.532 80.0658 211.2 79.7367L211.087 79.5079ZM208.964 79.9742C208.177 79.9742 207.475 79.8225 206.855 79.522L206.744 79.7515C207.403 80.0709 208.144 80.2292 208.964 80.2292V79.9742ZM206.857 79.5231C206.25 79.2149 205.769 78.7578 205.413 78.1486L205.193 78.2774C205.573 78.9273 206.09 79.4194 206.742 79.7505L206.857 79.5231ZM205.414 78.1494C205.059 77.5335 204.879 76.7817 204.879 75.8884H204.624C204.624 76.816 204.811 77.614 205.193 78.2766L205.414 78.1494ZM204.879 75.8884V69.801H204.624V75.8884H204.879ZM204.751 69.9285H207.235V69.6735H204.751V69.9285ZM217.523 78.0822H217.395V78.2098H217.523V78.0822ZM220.777 78.0822H220.905V77.9547H220.777V78.0822ZM220.777 80V80.1275H220.905V80H220.777ZM215.038 80H214.911V80.1275H215.038V80ZM215.038 69.801V69.6735H214.911V69.801H215.038ZM217.523 69.801H217.65V69.6735H217.523V69.801ZM217.523 78.2098H220.777V77.9547H217.523V78.2098ZM220.65 78.0822V80H220.905V78.0822H220.65ZM220.777 79.8725H215.038V80.1275H220.777V79.8725ZM215.166 80V69.801H214.911V80H215.166ZM215.038 69.9285H217.523V69.6735H215.038V69.9285ZM217.395 69.801V78.0822H217.65V69.801H217.395ZM230.242 80L230.13 80.0615L230.167 80.1275H230.242V80ZM228.121 76.1499L228.233 76.0884L228.196 76.0224H228.121V76.1499ZM227.525 76.1499V76.0224H227.398V76.1499H227.525ZM227.525 80V80.1275H227.653V80H227.525ZM225.041 80H224.913V80.1275H225.041V80ZM225.041 69.801V69.6735H224.913V69.801H225.041ZM231.259 70.2223L231.202 70.3364L231.203 70.3368L231.259 70.2223ZM232.538 71.3846L232.427 71.4476L232.427 71.4486L232.538 71.3846ZM232.378 74.8279L232.275 74.7528L232.274 74.7541L232.378 74.8279ZM230.692 75.9611L230.656 75.8389L230.501 75.8853L230.582 76.0253L230.692 75.9611ZM233.046 80V80.1275H233.268L233.156 79.9358L233.046 80ZM227.525 74.392H227.398V74.5195H227.525V74.392ZM230.082 74.0578L229.994 73.9658L229.992 73.9677L230.082 74.0578ZM230.082 72.1982L229.992 72.2884L229.994 72.2903L230.082 72.1982ZM227.525 71.864V71.7365H227.398V71.864H227.525ZM230.354 79.9385L228.233 76.0884L228.009 76.2115L230.13 80.0615L230.354 79.9385ZM228.121 76.0224H227.525V76.2775H228.121V76.0224ZM227.398 76.1499V80H227.653V76.1499H227.398ZM227.525 79.8725H225.041V80.1275H227.525V79.8725ZM225.168 80V69.801H224.913V80H225.168ZM225.041 69.9285H229.211V69.6735H225.041V69.9285ZM229.211 69.9285C230 69.9285 230.662 70.0665 231.202 70.3364L231.316 70.1083C230.732 69.8164 230.029 69.6735 229.211 69.6735V69.9285ZM231.203 70.3368C231.754 70.6078 232.16 70.9785 232.427 71.4476L232.648 71.3216C232.353 70.8028 231.907 70.3986 231.315 70.1079L231.203 70.3368ZM232.427 71.4486C232.696 71.912 232.831 72.4321 232.831 73.0118H233.086C233.086 72.3905 232.941 71.8258 232.648 71.3206L232.427 71.4486ZM232.831 73.0118C232.831 73.6637 232.646 74.2426 232.275 74.7529L232.481 74.9029C232.885 74.3477 233.086 73.7159 233.086 73.0118H232.831ZM232.274 74.7541C231.915 75.2594 231.38 75.6227 230.656 75.8389L230.729 76.0833C231.497 75.854 232.085 75.4618 232.482 74.9016L232.274 74.7541ZM230.582 76.0253L232.936 80.0642L233.156 79.9358L230.803 75.8969L230.582 76.0253ZM233.046 79.8725H230.242V80.1275H233.046V79.8725ZM227.525 74.5195H229.065V74.2645H227.525V74.5195ZM229.065 74.5195C229.539 74.5195 229.917 74.4036 230.172 74.148L229.992 73.9677C229.802 74.1576 229.502 74.2645 229.065 74.2645V74.5195ZM230.171 74.1499C230.434 73.8971 230.558 73.5453 230.558 73.1135H230.303C230.303 73.4952 230.195 73.773 229.994 73.9658L230.171 74.1499ZM230.558 73.1135C230.558 72.6989 230.433 72.3578 230.171 72.1061L229.994 72.2903C230.196 72.4842 230.303 72.7532 230.303 73.1135H230.558ZM230.172 72.108C229.917 71.8525 229.539 71.7365 229.065 71.7365V71.9916C229.502 71.9916 229.802 72.0984 229.992 72.2884L230.172 72.108ZM229.065 71.7365H227.525V71.9916H229.065V71.7365ZM227.398 71.864V74.392H227.653V71.864H227.398ZM237.003 71.7914V71.6639H236.875V71.7914H237.003ZM237.003 73.8544H236.875V73.982H237.003V73.8544ZM240.33 73.8544H240.457V73.7269H240.33V73.8544ZM240.33 75.7722V75.8997H240.457V75.7722H240.33ZM237.003 75.7722V75.6447H236.875V75.7722H237.003ZM237.003 78.0096H236.875V78.1371H237.003V78.0096ZM240.766 78.0096H240.893V77.8821H240.766V78.0096ZM240.766 80V80.1275H240.893V80H240.766ZM234.518 80H234.391V80.1275H234.518V80ZM234.518 69.801V69.6735H234.391V69.801H234.518ZM240.766 69.801H240.893V69.6735H240.766V69.801ZM240.766 71.7914V71.9189H240.893V71.7914H240.766ZM236.875 71.7914V73.8544H237.13V71.7914H236.875ZM237.003 73.982H240.33V73.7269H237.003V73.982ZM240.202 73.8544V75.7722H240.457V73.8544H240.202ZM240.33 75.6447H237.003V75.8997H240.33V75.6447ZM236.875 75.7722V78.0096H237.13V75.7722H236.875ZM237.003 78.1371H240.766V77.8821H237.003V78.1371ZM240.638 78.0096V80H240.893V78.0096H240.638ZM240.766 79.8725H234.518V80.1275H240.766V79.8725ZM234.646 80V69.801H234.391V80H234.646ZM234.518 69.9285H240.766V69.6735H234.518V69.9285ZM240.638 69.801V71.7914H240.893V69.801H240.638ZM240.766 71.6639H237.003V71.9189H240.766V71.6639ZM244.064 79.7385L244.016 79.8565L244.064 79.7385ZM242.64 78.6634L242.537 78.7389L242.538 78.7402L242.64 78.6634ZM242.088 76.949V76.8215H241.957L241.961 76.9527L242.088 76.949ZM244.732 76.949L244.859 76.936L244.847 76.8215H244.732V76.949ZM245.124 77.8207L245.038 77.9149L245.041 77.9169L245.124 77.8207ZM246.868 77.8643L246.946 77.9653L246.949 77.963L246.868 77.8643ZM246.926 76.5277L246.836 76.6179L246.838 76.6204L246.926 76.5277ZM246.301 76.1209L246.25 76.2376L246.252 76.2383L246.301 76.1209ZM245.255 75.7577L245.218 75.8795L245.219 75.8799L245.255 75.7577ZM242.567 74.2467L242.669 74.1698L242.567 74.2467ZM243.149 70.4693L243.227 70.5701L243.228 70.5694L243.149 70.4693ZM248.553 70.4693L248.474 70.5694L248.475 70.5701L248.553 70.4693ZM249.657 72.7067V72.8342H249.792L249.785 72.7003L249.657 72.7067ZM246.97 72.7067L246.842 72.7142L246.849 72.8342H246.97V72.7067ZM246.606 71.9367L246.523 72.0329L246.525 72.035L246.606 71.9367ZM245.023 71.8931L245.105 71.9907L245.108 71.9881L245.023 71.8931ZM245.212 73.3459L245.277 73.2363L245.212 73.3459ZM246.665 73.9416L246.705 73.8208L246.704 73.8203L246.665 73.9416ZM248.263 74.5809L248.206 74.6949L248.207 74.6955L248.263 74.5809ZM249.338 75.4671L249.237 75.5452L249.338 75.4671ZM249.338 78.5472L249.23 78.479L249.229 78.4806L249.338 78.5472ZM248.059 79.6804L248.002 79.5663L248.059 79.6804ZM246.069 79.9742C245.337 79.9742 244.685 79.8554 244.112 79.6205L244.016 79.8565C244.624 80.1059 245.309 80.2292 246.069 80.2292V79.9742ZM244.112 79.6205C243.541 79.3864 243.085 79.0415 242.742 78.5865L242.538 78.7402C242.912 79.2344 243.405 79.6063 244.016 79.8565L244.112 79.6205ZM242.743 78.5879C242.412 78.1369 242.234 77.5914 242.215 76.9453L241.961 76.9527C241.981 77.6433 242.171 78.2407 242.537 78.7389L242.743 78.5879ZM242.088 77.0765H244.732V76.8215H242.088V77.0765ZM244.605 76.962C244.646 77.3626 244.787 77.6853 245.039 77.9149L245.21 77.7266C245.016 77.5493 244.895 77.2909 244.859 76.936L244.605 76.962ZM245.041 77.9169C245.292 78.1349 245.614 78.2388 245.996 78.2388V77.9838C245.662 77.9838 245.403 77.8939 245.208 77.7245L245.041 77.9169ZM245.996 78.2388C246.382 78.2388 246.704 78.1525 246.946 77.9652L246.79 77.7634C246.606 77.9055 246.346 77.9838 245.996 77.9838V78.2388ZM246.949 77.963C247.194 77.762 247.315 77.487 247.315 77.1524H247.06C247.06 77.4184 246.968 77.6179 246.787 77.7656L246.949 77.963ZM247.315 77.1524C247.315 76.8675 247.215 76.6251 247.014 76.435L246.838 76.6204C246.986 76.7596 247.06 76.9337 247.06 77.1524H247.315ZM247.016 76.4375C246.838 76.2594 246.615 76.1153 246.351 76.0035L246.252 76.2383C246.491 76.3396 246.685 76.4666 246.836 76.6179L247.016 76.4375ZM246.353 76.0042C246.103 75.8944 245.749 75.7716 245.292 75.6355L245.219 75.8799C245.672 76.015 246.015 76.1343 246.25 76.2376L246.353 76.0042ZM245.293 75.6358C244.638 75.4335 244.107 75.2324 243.699 75.0329L243.587 75.2621C244.011 75.4694 244.555 75.675 245.218 75.8795L245.293 75.6358ZM243.699 75.0329C243.301 74.8389 242.958 74.5522 242.669 74.1698L242.466 74.3236C242.777 74.7355 243.151 75.0492 243.587 75.2621L243.699 75.0329ZM242.669 74.1698C242.39 73.8004 242.245 73.3116 242.245 72.6922H241.99C241.99 73.3512 242.145 73.8988 242.466 74.3236L242.669 74.1698ZM242.245 72.6922C242.245 71.7783 242.573 71.0762 243.227 70.5701L243.071 70.3685C242.349 70.9278 241.99 71.7077 241.99 72.6922H242.245ZM243.228 70.5694C243.887 70.049 244.753 69.7832 245.836 69.7832V69.5282C244.711 69.5282 243.785 69.8048 243.07 70.3692L243.228 70.5694ZM245.836 69.7832C246.939 69.7832 247.815 70.0493 248.474 70.5694L248.632 70.3692C247.916 69.8046 246.98 69.5282 245.836 69.5282V69.7832ZM248.475 70.5701C249.13 71.0775 249.483 71.787 249.53 72.7131L249.785 72.7003C249.735 71.7086 249.352 70.9265 248.631 70.3685L248.475 70.5701ZM249.657 72.5792H246.97V72.8342H249.657V72.5792ZM247.097 72.6992C247.076 72.34 246.942 72.0483 246.688 71.8384L246.525 72.035C246.717 72.1932 246.825 72.4147 246.842 72.7142L247.097 72.6992ZM246.69 71.8405C246.44 71.623 246.123 71.5186 245.749 71.5186V71.7736C246.073 71.7736 246.327 71.8629 246.523 72.0329L246.69 71.8405ZM245.749 71.5186C245.425 71.5186 245.15 71.6082 244.938 71.7981L245.108 71.9881C245.264 71.8487 245.473 71.7736 245.749 71.7736V71.5186ZM244.941 71.7956C244.721 71.9806 244.619 72.2482 244.619 72.5759H244.874C244.874 72.3032 244.957 72.1155 245.105 71.9906L244.941 71.7956ZM244.619 72.5759C244.619 72.9552 244.802 73.2512 245.147 73.4556L245.277 73.2363C245.001 73.0726 244.874 72.8553 244.874 72.5759H244.619ZM245.147 73.4556C245.469 73.6471 245.964 73.8491 246.625 74.0629L246.704 73.8203C246.048 73.608 245.574 73.4129 245.277 73.2363L245.147 73.4556ZM246.624 74.0624C247.279 74.2842 247.806 74.4951 248.206 74.6949L248.32 74.4668C247.906 74.2598 247.367 74.0446 246.705 73.8208L246.624 74.0624ZM248.207 74.6955C248.605 74.8898 248.948 75.1723 249.237 75.5452L249.439 75.389C249.127 74.9871 248.754 74.6787 248.319 74.4663L248.207 74.6955ZM249.237 75.5452C249.516 75.9053 249.661 76.3746 249.661 76.9635H249.916C249.916 76.3321 249.76 75.8038 249.439 75.389L249.237 75.5452ZM249.661 76.9635C249.661 77.5214 249.517 78.0255 249.23 78.479L249.446 78.6153C249.759 78.1196 249.916 77.5679 249.916 76.9635H249.661ZM249.229 78.4806C248.952 78.9323 248.545 79.2947 248.002 79.5663L248.116 79.7944C248.697 79.5043 249.142 79.1112 249.447 78.6137L249.229 78.4806ZM248.002 79.5663C247.462 79.8366 246.818 79.9742 246.069 79.9742V80.2292C246.85 80.2292 247.533 80.0859 248.116 79.7944L248.002 79.5663ZM258.654 69.801H258.781V69.6735H258.654V69.801ZM258.654 71.7914V71.9189H258.781V71.7914H258.654ZM255.952 71.7914V71.6639H255.824V71.7914H255.952ZM255.952 80V80.1275H256.079V80H255.952ZM253.467 80H253.34V80.1275H253.467V80ZM253.467 71.7914H253.595V71.6639H253.467V71.7914ZM250.765 71.7914H250.637V71.9189H250.765V71.7914ZM250.765 69.801V69.6735H250.637V69.801H250.765ZM258.526 69.801V71.7914H258.781V69.801H258.526ZM258.654 71.6639H255.952V71.9189H258.654V71.6639ZM255.824 71.7914V80H256.079V71.7914H255.824ZM255.952 79.8725H253.467V80.1275H255.952V79.8725ZM253.595 80V71.7914H253.34V80H253.595ZM253.467 71.6639H250.765V71.9189H253.467V71.6639ZM250.892 71.7914V69.801H250.637V71.7914H250.892ZM250.765 69.9285H258.654V69.6735H250.765V69.9285Z" fill="white" mask="url(#path-1-outside-1_686_361)"/>
</svg>
