<svg width="300" height="150" viewBox="0 0 300 150" fill="none" xmlns="http://www.w3.org/2000/svg">
<path d="M67.963 63.0251H59.679V58.9108H61.2444V57.3177C60.464 57.3454 59.3465 57.3639 57.892 57.3731L57.7257 56.2787C59.4112 56.2787 60.8911 56.2603 62.1656 56.2233C63.44 56.1864 64.6707 56.094 65.8574 55.9463L65.9405 56.8744C64.9154 57.0499 63.7933 57.1746 62.5742 57.2484V58.9108H67.963V63.0251ZM60.9673 61.9584H66.6609V59.9636H60.9673V61.9584ZM67.963 58.2736H66.647V50.7791H67.963V58.2736ZM62.5881 51.6934C62.5881 52.1044 62.7082 52.4923 62.9483 52.8571C63.1884 53.2173 63.5301 53.5313 63.9734 53.7991C64.4213 54.0623 64.9477 54.2608 65.5526 54.3947L64.9847 55.3783C64.2689 55.2167 63.6502 54.9581 63.1284 54.6025C62.6066 54.2424 62.2094 53.8083 61.937 53.3004C61.6692 53.8499 61.2698 54.3232 60.7387 54.7203C60.2077 55.1128 59.5774 55.4014 58.8478 55.5861L58.2383 54.5748C58.857 54.4363 59.3927 54.2239 59.8452 53.9376C60.2977 53.6467 60.6441 53.3096 60.8842 52.9263C61.1243 52.5385 61.2444 52.1275 61.2444 51.6934V51.0978H62.5881V51.6934ZM76.0808 59.4788H78.0202V58.0381H79.2393V63.0251H74.8479V58.0381H76.0808V59.4788ZM78.0202 62V60.4762H76.0808V62H78.0202ZM82.8411 58.9662C82.8411 59.4141 82.9242 59.8459 83.0904 60.2615C83.2566 60.677 83.5083 61.0488 83.8454 61.3766C84.1871 61.6999 84.605 61.9492 85.0991 62.1247L84.4203 63.1221C83.8754 62.9143 83.416 62.6188 83.0419 62.2355C82.6725 61.8569 82.3862 61.4113 82.183 60.8987C81.9706 61.3974 81.6774 61.8384 81.3034 62.2216C80.934 62.6049 80.4907 62.9051 79.9735 63.1221L79.3086 62.1247C79.7888 61.9261 80.1952 61.6606 80.5276 61.3281C80.8647 60.991 81.1164 60.6193 81.2826 60.213C81.4535 59.802 81.5389 59.3864 81.5389 58.9662V57.9549H82.8411V58.9662ZM76.8705 51.2917C77.4107 51.2917 77.9048 51.3887 78.3527 51.5826C78.8006 51.7719 79.17 52.0421 79.4609 52.393C79.7565 52.7439 79.9504 53.148 80.0428 53.6051H82.467V50.7653H83.7831V57.3454H82.467V54.6857H80.0497C79.962 55.1567 79.7703 55.5699 79.4748 55.9255C79.1839 56.2811 78.8122 56.5558 78.3596 56.7497C77.9117 56.9437 77.4153 57.0407 76.8705 57.0407C76.2425 57.0407 75.6814 56.9206 75.1873 56.6805C74.6932 56.4357 74.3077 56.0963 74.0306 55.6623C73.7535 55.2236 73.615 54.7226 73.615 54.1592C73.615 53.6051 73.7535 53.111 74.0306 52.677C74.3077 52.2383 74.6932 51.8989 75.1873 51.6588C75.6814 51.4141 76.2425 51.2917 76.8705 51.2917ZM76.8705 52.3861C76.4826 52.3861 76.1362 52.4623 75.8315 52.6146C75.5313 52.7624 75.2958 52.9702 75.125 53.238C74.9588 53.5059 74.8756 53.8129 74.8756 54.1592C74.8756 54.5102 74.9588 54.8219 75.125 55.0943C75.2958 55.3668 75.5313 55.5815 75.8315 55.7385C76.1362 55.8909 76.4826 55.9694 76.8705 55.974C77.2491 55.9694 77.5862 55.8909 77.8817 55.7385C78.1819 55.5815 78.4151 55.3668 78.5813 55.0943C78.7521 54.8219 78.8376 54.5102 78.8376 54.1592C78.8376 53.8129 78.7521 53.5059 78.5813 53.238C78.4151 52.9702 78.1819 52.7624 77.8817 52.6146C77.5862 52.4623 77.2491 52.3861 76.8705 52.3861ZM95.9736 63.2052H94.6576V50.7653H95.9736V63.2052ZM89.3381 51.6934C89.9522 51.6934 90.5017 51.8735 90.9866 52.2337C91.4714 52.5893 91.8501 53.0972 92.1225 53.7575C92.3996 54.4132 92.5381 55.1751 92.5381 56.0432C92.5381 56.916 92.3996 57.6825 92.1225 58.3428C91.8501 59.0032 91.4714 59.5134 90.9866 59.8736C90.5017 60.2291 89.9522 60.4069 89.3381 60.4069C88.7147 60.4069 88.1606 60.2291 87.6757 59.8736C87.1909 59.5134 86.8099 59.0055 86.5329 58.3498C86.2604 57.6894 86.1242 56.9206 86.1242 56.0432C86.1242 55.1705 86.2604 54.4063 86.5329 53.7506C86.8099 53.0903 87.1909 52.5823 87.6757 52.2268C88.1606 51.8712 88.7147 51.6934 89.3381 51.6934ZM89.3381 52.8709C88.9548 52.8709 88.6154 53.0002 88.3199 53.2588C88.029 53.5174 87.8027 53.8868 87.6411 54.367C87.4795 54.8427 87.3987 55.4014 87.3987 56.0432C87.3987 56.6897 87.4795 57.2531 87.6411 57.7333C87.8027 58.2135 88.029 58.5829 88.3199 58.8415C88.6154 59.1001 88.9548 59.2294 89.3381 59.2294C89.7167 59.2294 90.0515 59.1001 90.3424 58.8415C90.6333 58.5829 90.8596 58.2135 91.0212 57.7333C91.1828 57.2531 91.2636 56.6897 91.2636 56.0432C91.2636 55.4014 91.1828 54.8427 91.0212 54.367C90.8596 53.8868 90.6333 53.5174 90.3424 53.2588C90.0515 53.0002 89.7167 52.8709 89.3381 52.8709ZM111.697 63.1775H110.381V50.7653H111.697V63.1775ZM106.086 54.7549C106.086 55.4106 106.222 56.0594 106.495 56.7013C106.767 57.3385 107.148 57.9111 107.638 58.419C108.132 58.9223 108.695 59.3079 109.328 59.5757L108.607 60.587C107.896 60.2776 107.266 59.8182 106.717 59.2086C106.172 58.5991 105.754 57.8995 105.463 57.1099C105.177 57.9503 104.761 58.6938 104.216 59.3402C103.676 59.9867 103.048 60.4716 102.332 60.7948L101.598 59.7835C102.231 59.5019 102.789 59.0978 103.274 58.5714C103.759 58.045 104.133 57.4493 104.396 56.7844C104.664 56.1194 104.798 55.443 104.798 54.7549V53.9376H101.972V52.8848H104.784V51.0146H106.086V52.8848H108.871V53.9376H106.086V54.7549ZM117.113 51.167C117.64 51.167 118.122 51.2571 118.561 51.4372C118.999 51.6172 119.364 51.8689 119.655 52.1921H122.71V50.7653H124.012V57.0822H122.71V55.78H119.683C119.392 56.1171 119.025 56.378 118.582 56.5627C118.138 56.7428 117.649 56.8329 117.113 56.8329C116.49 56.8329 115.931 56.7151 115.437 56.4796C114.943 56.2395 114.555 55.9047 114.273 55.4753C113.996 55.0412 113.858 54.5471 113.858 53.993C113.858 53.4481 113.996 52.961 114.273 52.5315C114.555 52.1021 114.943 51.7673 115.437 51.5272C115.931 51.2871 116.49 51.167 117.113 51.167ZM117.113 52.2475C116.73 52.2429 116.386 52.3145 116.081 52.4623C115.781 52.61 115.545 52.8178 115.375 53.0856C115.204 53.3489 115.118 53.6513 115.118 53.993C115.118 54.344 115.204 54.6533 115.375 54.9212C115.545 55.189 115.781 55.3991 116.081 55.5515C116.381 55.6992 116.725 55.7754 117.113 55.78C117.492 55.7754 117.829 55.6992 118.124 55.5515C118.425 55.3991 118.658 55.189 118.824 54.9212C118.995 54.6533 119.08 54.344 119.08 53.993C119.08 53.6513 118.995 53.3489 118.824 53.0856C118.658 52.8178 118.425 52.61 118.124 52.4623C117.824 52.3145 117.487 52.2429 117.113 52.2475ZM124.012 60.7809H117.238V61.9723H124.455V63.0251H115.922V59.7974H122.71V58.7169H115.894V57.6917H124.012V60.7809ZM120.23 53.2311C120.304 53.4897 120.341 53.7437 120.341 53.993C120.341 54.2562 120.306 54.5056 120.237 54.7411H122.71V53.2311H120.23ZM135.607 55.7939H137.602V56.8883H135.607V63.1775H134.305V50.7653H135.607V55.7939ZM133.224 53.7852H125.868V52.7047H128.93V50.9315H130.246V52.7047H133.224V53.7852ZM129.595 54.6995C130.181 54.6995 130.708 54.8219 131.174 55.0666C131.64 55.3114 132.007 55.6531 132.275 56.0917C132.543 56.5304 132.679 57.0268 132.684 57.5809C132.679 58.1397 132.543 58.6384 132.275 59.077C132.007 59.5157 131.64 59.8574 131.174 60.1022C130.708 60.3469 130.181 60.4716 129.595 60.4762C129.004 60.4716 128.473 60.3469 128.002 60.1022C127.535 59.8574 127.168 59.5157 126.9 59.077C126.637 58.6384 126.505 58.1397 126.505 57.5809C126.505 57.0268 126.637 56.5304 126.9 56.0917C127.168 55.6531 127.535 55.3114 128.002 55.0666C128.473 54.8219 129.004 54.6995 129.595 54.6995ZM129.595 55.78C129.248 55.78 128.934 55.8562 128.653 56.0086C128.371 56.161 128.152 56.3734 127.995 56.6458C127.838 56.9183 127.761 57.23 127.766 57.5809C127.761 57.9365 127.838 58.2505 127.995 58.5229C128.152 58.7954 128.369 59.0055 128.646 59.1532C128.927 59.301 129.244 59.3726 129.595 59.3679C129.941 59.3726 130.253 59.301 130.53 59.1532C130.811 59.0055 131.031 58.7954 131.188 58.5229C131.345 58.2505 131.423 57.9365 131.423 57.5809C131.423 57.23 131.345 56.9183 131.188 56.6458C131.031 56.3734 130.811 56.161 130.53 56.0086C130.253 55.8562 129.941 55.78 129.595 55.78ZM148.864 63.1775H147.617V50.7653H148.864V63.1775ZM146.246 62.568H144.999V56.8052H142.575C141.799 58.3105 140.575 59.5527 138.904 60.5316L138.156 59.5896C139.449 58.8231 140.43 57.9226 141.099 56.8883C141.774 55.8539 142.166 54.6857 142.277 53.3835H138.738V52.303H143.586C143.577 53.5774 143.392 54.7272 143.032 55.7523H144.999V51.0839H146.246V62.568ZM158.215 52.109C158.215 52.6493 158.335 53.1618 158.575 53.6467C158.82 54.1269 159.168 54.5494 159.621 54.9142C160.073 55.279 160.607 55.5538 161.221 55.7385L160.542 56.7636C159.854 56.542 159.258 56.2118 158.755 55.7731C158.252 55.3298 157.864 54.808 157.591 54.2077C157.319 54.8911 156.915 55.4845 156.379 55.9878C155.848 56.4865 155.213 56.8652 154.474 57.1238L153.823 56.071C154.456 55.8632 155.006 55.563 155.472 55.1705C155.938 54.7734 156.294 54.3116 156.539 53.7852C156.788 53.2588 156.913 52.7001 156.913 52.109V51.1947H158.215V52.109ZM163.673 53.3835H165.474V54.4779H163.673V57.2207H162.357V50.7653H163.673V53.3835ZM163.673 60.8225H156.968V62H164.102V63.0528H155.68V59.8528H162.371V58.7861H155.652V57.7472H163.673V60.8225ZM169.505 51.6934C170.119 51.6934 170.666 51.8712 171.146 52.2268C171.631 52.5823 172.008 53.0903 172.275 53.7506C172.548 54.4063 172.686 55.1705 172.691 56.0432C172.686 56.9206 172.548 57.6894 172.275 58.3498C172.008 59.0055 171.631 59.5134 171.146 59.8736C170.666 60.2291 170.119 60.4069 169.505 60.4069C168.886 60.4069 168.337 60.2291 167.856 59.8736C167.376 59.5134 167 59.0055 166.727 58.3498C166.46 57.6894 166.328 56.9206 166.333 56.0432C166.328 55.1705 166.46 54.4063 166.727 53.7506C167 53.0949 167.376 52.5893 167.856 52.2337C168.337 51.8735 168.886 51.6934 169.505 51.6934ZM169.505 52.8709C169.126 52.8709 168.791 53.0002 168.501 53.2588C168.214 53.5174 167.99 53.8868 167.829 54.367C167.672 54.8427 167.593 55.4014 167.593 56.0432C167.593 56.6897 167.672 57.2531 167.829 57.7333C167.99 58.2135 168.214 58.5829 168.501 58.8415C168.791 59.1001 169.126 59.2294 169.505 59.2294C169.888 59.2294 170.225 59.1001 170.516 58.8415C170.807 58.5829 171.031 58.2135 171.188 57.7333C171.35 57.2531 171.43 56.6897 171.43 56.0432C171.43 55.4014 171.35 54.8427 171.188 54.367C171.031 53.8868 170.807 53.5174 170.516 53.2588C170.225 53.0002 169.888 52.8709 169.505 52.8709ZM175.85 55.6277H177.844V56.7359H175.85V63.1775H174.534V50.7653H175.85V55.6277ZM188.109 55.7108H190.035V56.8052H188.109V63.1636H186.793V50.7653H188.109V55.7108ZM184.868 52.0675C184.859 53.9607 184.399 55.66 183.489 57.1653C182.58 58.6707 181.146 59.9082 179.188 60.8779L178.454 59.8528C180.005 59.077 181.204 58.1304 182.049 57.013C182.898 55.8955 183.39 54.6118 183.524 53.1618H179.077V52.0675H184.868ZM197.031 52.8709H199.732V50.7791H201.048V59.8251H199.732V56.6112H197.031V57.6917H191.268V51.8181H197.031V52.8709ZM192.57 56.6528H195.742V52.8848H192.57V56.6528ZM201.325 62.9143H192.944V58.9939H194.274V61.8476H201.325V62.9143ZM199.732 55.5307V53.9515H197.031V55.5307H199.732ZM207.434 53.9237C207.434 54.6764 207.566 55.4129 207.829 56.1333C208.097 56.8536 208.471 57.4932 208.951 58.0519C209.431 58.6107 209.983 59.0309 210.607 59.3125L209.803 60.3654C209.106 60.019 208.496 59.5134 207.974 58.8485C207.457 58.1835 207.06 57.4193 206.783 56.5558C206.506 57.4655 206.102 58.2759 205.571 58.987C205.04 59.6935 204.424 60.2314 203.722 60.6009L202.89 59.5342C203.518 59.234 204.075 58.7907 204.56 58.2043C205.049 57.6132 205.428 56.9437 205.696 56.1956C205.968 55.443 206.104 54.6857 206.104 53.9237V51.8043H207.434V53.9237ZM213.308 63.2052H212.006V55.9601H209.235V54.8935H212.006V50.7653H213.308V63.2052ZM222.977 52.1921C222.977 52.7509 223.097 53.2773 223.337 53.7714C223.577 54.2608 223.926 54.6903 224.383 55.0597C224.84 55.4291 225.383 55.7108 226.011 55.9047L225.291 56.9298C224.612 56.6943 224.021 56.3549 223.517 55.9116C223.019 55.4637 222.633 54.935 222.361 54.3255C222.088 55.0274 221.684 55.6369 221.149 56.1541C220.618 56.6666 219.98 57.0545 219.237 57.3177L218.558 56.2649C219.2 56.0525 219.754 55.7431 220.22 55.3367C220.691 54.9304 221.052 54.4594 221.301 53.9237C221.55 53.3881 221.675 52.8201 221.675 52.2198V51.2501H222.977V52.1921ZM228.435 53.4112H230.236V54.4917H228.435V57.3731H227.119V50.7653H228.435V53.4112ZM223.725 60.9056H221.024V62.0693C221.684 62.0646 222.227 62.0462 222.652 62.0139C223.076 61.9861 223.513 61.9307 223.961 61.8476L224.085 62.845C223.559 62.9466 223.049 63.0113 222.555 63.039C222.061 63.0667 221.352 63.0805 220.428 63.0805H219.749V59.9498H222.451V58.9524H219.722V57.9688H223.725V60.9056ZM228.435 63.0805H224.446V57.9688H228.435V63.0805ZM225.609 62.1108H227.285V58.9524H225.609V62.1108ZM234.988 51.6519C235.634 51.6473 236.214 51.7696 236.726 52.019C237.239 52.2683 237.638 52.6193 237.924 53.0718C238.215 53.5197 238.363 54.03 238.368 54.6025C238.363 55.1751 238.215 55.6877 237.924 56.1402C237.638 56.5881 237.239 56.9391 236.726 57.193C236.214 57.4424 235.634 57.5671 234.988 57.5671C234.341 57.5671 233.759 57.4424 233.242 57.193C232.73 56.9391 232.328 56.5881 232.037 56.1402C231.746 55.6877 231.603 55.1751 231.608 54.6025C231.603 54.03 231.746 53.5197 232.037 53.0718C232.328 52.6193 232.73 52.2683 233.242 52.019C233.759 51.7696 234.341 51.6473 234.988 51.6519ZM234.988 52.7878C234.586 52.7878 234.226 52.864 233.907 53.0164C233.593 53.1641 233.346 53.3766 233.166 53.6536C232.991 53.9261 232.905 54.2424 232.91 54.6025C232.905 54.9627 232.991 55.2813 233.166 55.5584C233.346 55.8308 233.593 56.0432 233.907 56.1956C234.226 56.3434 234.586 56.4173 234.988 56.4173C235.389 56.4173 235.747 56.3434 236.061 56.1956C236.38 56.0432 236.629 55.8308 236.809 55.5584C236.989 55.2813 237.079 54.9627 237.079 54.6025C237.079 54.2424 236.989 53.9261 236.809 53.6536C236.629 53.3766 236.38 53.1641 236.061 53.0164C235.747 52.864 235.389 52.7878 234.988 52.7878ZM241.208 63.2052H239.892V50.7653H241.208V63.2052ZM231.012 59.4372C232.545 59.4372 233.976 59.4118 235.306 59.361C236.641 59.3056 237.911 59.1925 239.116 59.0216L239.213 59.9775C237.975 60.2176 236.717 60.37 235.438 60.4346C234.163 60.4993 232.743 60.5316 231.178 60.5316L231.012 59.4372ZM61.3344 71.6883H63.1353V72.7826H61.3344V75.7749H60.0184V68.7653H61.3344V71.6883ZM57.9127 69.541C57.9081 70.5939 57.6749 71.5428 57.2132 72.3878C56.756 73.2329 56.0911 73.9555 55.2183 74.5558C54.3456 75.1561 53.2905 75.6225 52.053 75.9549L51.5265 74.9021C52.5055 74.6435 53.3505 74.3041 54.0616 73.8839C54.7774 73.4591 55.3407 72.972 55.7517 72.4225C56.1627 71.8683 56.4074 71.268 56.4859 70.6216H52.1084V69.541H57.9127ZM61.3344 81.0113H53.3828V76.3013H61.3344V81.0113ZM54.6989 79.9584H60.0322V77.3957H54.6989V79.9584ZM74.1899 76.1489H72.8739V73.0043H70.5605V71.9237H72.8739V68.7653H74.1899V76.1489ZM70.034 76.4952C70.8975 76.4952 71.6433 76.5876 72.2713 76.7723C72.9039 76.957 73.3888 77.2248 73.7258 77.5757C74.0629 77.9267 74.2315 78.3469 74.2315 78.8364C74.2315 79.3258 74.0629 79.7437 73.7258 80.09C73.3888 80.441 72.9062 80.7088 72.2782 80.8935C71.6502 81.0782 70.9022 81.1729 70.034 81.1775C69.1659 81.1729 68.4156 81.0782 67.7829 80.8935C67.1549 80.7088 66.6724 80.441 66.3353 80.09C65.9982 79.7437 65.832 79.3258 65.8366 78.8364C65.832 78.3469 65.9982 77.9267 66.3353 77.5757C66.6724 77.2248 67.1549 76.957 67.7829 76.7723C68.4156 76.5876 69.1659 76.4952 70.034 76.4952ZM70.034 77.5203C69.1197 77.5203 68.4086 77.6358 67.9007 77.8667C67.3928 78.0929 67.1388 78.4161 67.1388 78.8364C67.1388 79.1134 67.2542 79.3512 67.4851 79.5498C67.716 79.7437 68.0485 79.8915 68.4825 79.9931C68.9166 80.0947 69.4337 80.1431 70.034 80.1385C70.6343 80.1431 71.1515 80.0947 71.5856 79.9931C72.0196 79.8915 72.3521 79.7437 72.583 79.5498C72.8139 79.3512 72.9293 79.1134 72.9293 78.8364C72.9293 78.4161 72.6753 78.0929 72.1674 77.8667C71.6594 77.6358 70.9483 77.5203 70.034 77.5203ZM68.2886 70.954C68.2886 71.4805 68.4086 71.9907 68.6487 72.4848C68.8889 72.9789 69.2352 73.4199 69.6877 73.8077C70.1402 74.191 70.6713 74.4865 71.2808 74.6943L70.602 75.7333C69.9186 75.4932 69.3229 75.1399 68.815 74.6736C68.3117 74.2026 67.9215 73.6554 67.6444 73.032C67.372 73.7385 66.9679 74.3572 66.4323 74.8883C65.8966 75.4147 65.264 75.8118 64.5344 76.0796L63.8418 75.0268C64.4698 74.8098 65.017 74.4935 65.4834 74.0779C65.9544 73.6577 66.3145 73.1774 66.5639 72.6372C66.8179 72.0969 66.9448 71.5405 66.9448 70.9679V70.6908H64.2574V69.6242H70.9483V70.6908H68.2886V70.954ZM83.0142 70.8571C83.0142 71.6421 82.9934 72.4063 82.9519 73.1497C82.9103 73.8932 82.811 74.7497 82.654 75.7194L81.3519 75.6225C81.4904 74.7359 81.5828 73.944 81.6289 73.2467C81.6751 72.5448 81.7005 71.8499 81.7051 71.1618H76.6696V70.0952H83.0142V70.8571ZM79.8281 77.361C81.3103 77.3056 82.6125 77.2063 83.7346 77.0632L83.8038 78.0467C81.8737 78.3515 79.5094 78.5039 76.7111 78.5039H76.1293L75.9769 77.4372C77.1083 77.428 77.9579 77.4164 78.5259 77.4026V73.6415H79.8281V77.361ZM85.771 73.8909H87.6688V75.013H85.771V81.1775H84.4411V68.7653H85.771V73.8909ZM103.42 74.722H101.494V81.1636H100.178V68.7653H101.494V73.6415H103.42V74.722ZM93.5979 76.9524C95.4911 76.9524 97.3289 76.7677 99.1113 76.3982L99.2637 77.5065C98.2755 77.705 97.2943 77.8459 96.3199 77.929C95.3502 78.0075 94.3505 78.0467 93.3208 78.0467H92.2957V69.9705H93.5979V76.9524ZM111.87 72.4225C111.87 73.0735 112.004 73.7339 112.272 74.4034C112.539 75.073 112.913 75.6779 113.394 76.2182C113.879 76.7584 114.428 77.174 115.042 77.4649L114.294 78.49C113.611 78.1576 113.001 77.6658 112.466 77.0147C111.934 76.3636 111.526 75.6248 111.24 74.7982C110.953 75.6941 110.531 76.4998 109.972 77.2156C109.418 77.9267 108.79 78.4577 108.088 78.8086L107.312 77.7697C107.926 77.4742 108.481 77.0401 108.975 76.4675C109.473 75.8949 109.863 75.2531 110.145 74.542C110.427 73.8262 110.568 73.1197 110.568 72.4225V71.1064H107.769V70.012H114.571V71.1064H111.87V72.4225ZM117.217 73.6831H119.212V74.7913H117.217V81.1775H115.901V68.7653H117.217V73.6831ZM130.1 77.8667H128.784V68.7791H130.1V77.8667ZM130.474 80.9143H121.982V77.0078H123.312V79.8476H130.474V80.9143ZM124.324 70.6908C124.319 71.2958 124.439 71.873 124.684 72.4225C124.933 72.972 125.289 73.4568 125.75 73.877C126.212 74.2972 126.757 74.6158 127.385 74.8329L126.706 75.8857C125.995 75.6225 125.379 75.2392 124.857 74.7359C124.34 74.228 123.94 73.6323 123.659 72.9489C123.382 73.6785 122.978 74.318 122.447 74.8675C121.92 75.417 121.299 75.8303 120.583 76.1073L119.877 75.0684C120.514 74.8329 121.066 74.4912 121.532 74.0432C122.003 73.5953 122.361 73.0805 122.606 72.4986C122.855 71.9168 122.98 71.3142 122.98 70.6908V69.4579H124.324V70.6908ZM137.719 68.9731C138.652 68.9731 139.449 69.0562 140.109 69.2224C140.774 69.384 141.28 69.6242 141.626 69.9428C141.977 70.2614 142.152 70.6493 142.152 71.1064C142.152 71.5636 141.977 71.9538 141.626 72.277C141.28 72.5956 140.774 72.838 140.109 73.0043C139.449 73.1705 138.652 73.2536 137.719 73.2536C136.787 73.2536 135.988 73.1705 135.323 73.0043C134.663 72.838 134.157 72.5956 133.806 72.277C133.46 71.9538 133.286 71.5636 133.286 71.1064C133.286 70.6493 133.46 70.2614 133.806 69.9428C134.157 69.6242 134.663 69.384 135.323 69.2224C135.988 69.0562 136.787 68.9731 137.719 68.9731ZM137.719 69.9428C136.731 69.9428 135.972 70.0444 135.441 70.2475C134.91 70.4507 134.649 70.737 134.658 71.1064C134.653 71.4851 134.912 71.7737 135.434 71.9722C135.96 72.1708 136.722 72.2701 137.719 72.2701C138.712 72.2701 139.472 72.1708 139.998 71.9722C140.529 71.7737 140.795 71.4851 140.795 71.1064C140.795 70.737 140.527 70.4507 139.991 70.2475C139.46 70.0444 138.703 69.9428 137.719 69.9428ZM143.385 75.0684H132.067V74.0155H143.385V75.0684ZM141.958 78.9333H134.727V80.0416H142.305V81.0528H133.439V77.9775H140.656V77.0078H133.425V76.0242H141.958V78.9333ZM158.069 74.9991H156.767V68.7653H158.069V74.9991ZM153.152 78.7671H150.492V79.9861C151.189 79.9815 151.755 79.9654 152.189 79.9377C152.627 79.9053 153.078 79.843 153.539 79.7506L153.664 80.7342C153.128 80.8404 152.602 80.9074 152.085 80.9351C151.568 80.9674 150.847 80.9836 149.924 80.9836H149.259V77.8528H151.877V76.7584H149.203V75.7749H153.152V78.7671ZM158.928 77.2848H153.595V76.2874H155.631V75.2207H156.92V76.2874H158.928V77.2848ZM156.255 77.7143C156.67 77.7143 157.042 77.7858 157.37 77.929C157.702 78.0675 157.963 78.2661 158.152 78.5247C158.342 78.7833 158.439 79.0811 158.443 79.4182C158.439 79.7691 158.342 80.0762 158.152 80.3394C157.963 80.6072 157.702 80.8104 157.37 80.9489C157.042 81.0875 156.67 81.1544 156.255 81.1498C155.839 81.1544 155.465 81.0851 155.133 80.942C154.8 80.8035 154.539 80.6026 154.35 80.3394C154.165 80.0762 154.075 79.7691 154.08 79.4182C154.075 79.0811 154.165 78.7856 154.35 78.5316C154.539 78.273 154.8 78.0721 155.133 77.929C155.465 77.7858 155.839 77.7143 156.255 77.7143ZM156.255 78.6563C155.936 78.6563 155.68 78.7255 155.486 78.8641C155.292 79.0026 155.197 79.1873 155.202 79.4182C155.197 79.6768 155.292 79.8776 155.486 80.0208C155.68 80.1639 155.936 80.2355 156.255 80.2355C156.569 80.2355 156.823 80.1639 157.017 80.0208C157.21 79.8776 157.307 79.6768 157.307 79.4182C157.307 79.1873 157.208 79.0026 157.01 78.8641C156.816 78.7255 156.564 78.6563 156.255 78.6563ZM151.309 69.1809C151.928 69.1855 152.482 69.3079 152.971 69.548C153.466 69.7835 153.853 70.1136 154.135 70.5385C154.417 70.9587 154.56 71.4343 154.565 71.9653C154.56 72.501 154.417 72.9789 154.135 73.3991C153.853 73.8193 153.466 74.1471 152.971 74.3826C152.482 74.6181 151.928 74.7359 151.309 74.7359C150.686 74.7359 150.125 74.6181 149.626 74.3826C149.132 74.1471 148.744 73.8193 148.462 73.3991C148.181 72.9789 148.04 72.501 148.04 71.9653C148.04 71.4343 148.181 70.9587 148.462 70.5385C148.744 70.1136 149.132 69.7835 149.626 69.548C150.125 69.3079 150.686 69.1855 151.309 69.1809ZM151.309 70.2891C150.93 70.2845 150.589 70.3514 150.284 70.49C149.984 70.6285 149.748 70.8271 149.577 71.0856C149.407 71.3396 149.324 71.6328 149.328 71.9653C149.324 72.3024 149.404 72.6002 149.571 72.8588C149.741 73.1174 149.977 73.3183 150.277 73.4614C150.582 73.6 150.926 73.6692 151.309 73.6692C151.688 73.6692 152.027 73.5976 152.327 73.4545C152.627 73.3114 152.863 73.1128 153.034 72.8588C153.205 72.6002 153.29 72.3024 153.29 71.9653C153.29 71.6328 153.205 71.3396 153.034 71.0856C152.863 70.8271 152.625 70.6285 152.32 70.49C152.02 70.3514 151.683 70.2845 151.309 70.2891ZM163.417 69.6934C163.975 69.6934 164.479 69.8458 164.927 70.1506C165.374 70.4507 165.737 70.8825 166.014 71.4458C166.296 72.0046 166.469 72.6626 166.533 73.4199H169.096V68.7653H170.398V81.2052H169.096V74.4865H166.547C166.501 75.2808 166.34 75.9734 166.062 76.5645C165.785 77.1555 165.418 77.6104 164.961 77.929C164.504 78.2476 163.989 78.4069 163.417 78.4069C162.798 78.4069 162.251 78.2291 161.775 77.8736C161.299 77.5134 160.928 77.0055 160.66 76.3498C160.397 75.6894 160.267 74.9206 160.272 74.0432C160.267 73.1705 160.397 72.4063 160.66 71.7506C160.928 71.0903 161.299 70.5823 161.775 70.2268C162.255 69.8712 162.802 69.6934 163.417 69.6934ZM163.417 70.8709C163.043 70.8709 162.712 71.0002 162.426 71.2588C162.14 71.5174 161.916 71.8868 161.754 72.367C161.597 72.8427 161.519 73.4014 161.519 74.0432C161.519 74.6897 161.597 75.2531 161.754 75.7333C161.916 76.2135 162.14 76.5829 162.426 76.8415C162.712 77.1001 163.043 77.2294 163.417 77.2294C163.791 77.2294 164.121 77.1001 164.407 76.8415C164.693 76.5829 164.915 76.2135 165.072 75.7333C165.234 75.2531 165.314 74.6897 165.314 74.0432C165.314 73.4014 165.234 72.8427 165.072 72.367C164.915 71.8868 164.693 71.5174 164.407 71.2588C164.121 71.0002 163.791 70.8709 163.417 70.8709ZM181.979 73.7108H183.905V74.8052H181.979V81.1636H180.663V68.7653H181.979V73.7108ZM178.738 70.0675C178.729 71.9607 178.269 73.66 177.36 75.1653C176.45 76.6707 175.016 77.9082 173.058 78.8779L172.324 77.8528C173.876 77.077 175.074 76.1304 175.919 75.013C176.768 73.8955 177.26 72.6118 177.394 71.1618H172.947V70.0675H178.738ZM194.613 73.4476H186.066V69.2086H187.368V72.3947H194.613V73.4476ZM195.916 76.0658H184.556V75.013H195.916V76.0658ZM194.696 80.8866H185.969V77.2433H187.285V79.8061H194.696V80.8866ZM210.572 81.2052H209.256V68.7653H210.572V81.2052ZM203.936 69.6934C204.55 69.6934 205.1 69.8735 205.585 70.2337C206.07 70.5893 206.448 71.0972 206.721 71.7575C206.998 72.4132 207.136 73.1751 207.136 74.0432C207.136 74.916 206.998 75.6825 206.721 76.3428C206.448 77.0032 206.07 77.5134 205.585 77.8736C205.1 78.2291 204.55 78.4069 203.936 78.4069C203.313 78.4069 202.759 78.2291 202.274 77.8736C201.789 77.5134 201.408 77.0055 201.131 76.3498C200.859 75.6894 200.722 74.9206 200.722 74.0432C200.722 73.1705 200.859 72.4063 201.131 71.7506C201.408 71.0903 201.789 70.5823 202.274 70.2268C202.759 69.8712 203.313 69.6934 203.936 69.6934ZM203.936 70.8709C203.553 70.8709 203.214 71.0002 202.918 71.2588C202.627 71.5174 202.401 71.8868 202.239 72.367C202.078 72.8427 201.997 73.4014 201.997 74.0432C201.997 74.6897 202.078 75.2531 202.239 75.7333C202.401 76.2135 202.627 76.5829 202.918 76.8415C203.214 77.1001 203.553 77.2294 203.936 77.2294C204.315 77.2294 204.65 77.1001 204.941 76.8415C205.232 76.5829 205.458 76.2135 205.619 75.7333C205.781 75.2531 205.862 74.6897 205.862 74.0432C205.862 73.4014 205.781 72.8427 205.619 72.367C205.458 71.8868 205.232 71.5174 204.941 71.2588C204.65 71.0002 204.315 70.8709 203.936 70.8709ZM223.885 74.9021H212.553V73.8493H223.885V74.9021ZM222.541 72.9489H214.035V69.1255H222.416V70.1921H215.351V71.896H222.541V72.9489ZM222.444 78.8918H215.213V80H222.79V81.039H213.924V77.9221H221.142V76.8969H213.91V75.8857H222.444V78.8918ZM235.493 81.1775H234.233V68.7653H235.493V81.1775ZM232.972 80.568H231.711V74.5835H230.312C230.275 75.387 230.141 76.0842 229.911 76.6753C229.68 77.2664 229.368 77.7212 228.975 78.0398C228.583 78.3538 228.133 78.5085 227.625 78.5039C227.089 78.5085 226.618 78.333 226.212 77.9775C225.81 77.6219 225.498 77.114 225.277 76.4537C225.06 75.7887 224.951 75.013 224.951 74.1264C224.951 73.2398 225.06 72.4663 225.277 71.806C225.498 71.1457 225.81 70.64 226.212 70.2891C226.618 69.9335 227.089 69.7581 227.625 69.7627C228.124 69.7581 228.567 69.9082 228.955 70.2129C229.343 70.5131 229.652 70.9471 229.883 71.5151C230.118 72.0784 230.259 72.7457 230.305 73.5168H231.711V69.0008H232.972V80.568ZM227.625 70.9956C227.325 70.9956 227.066 71.1203 226.849 71.3696C226.632 71.6144 226.463 71.9722 226.343 72.4432C226.228 72.9096 226.17 73.4707 226.17 74.1264C226.17 74.7821 226.228 75.3454 226.343 75.8164C226.463 76.2828 226.632 76.6407 226.849 76.89C227.066 77.1348 227.325 77.2571 227.625 77.2571C227.93 77.2571 228.193 77.1348 228.414 76.89C228.636 76.6407 228.807 76.2828 228.927 75.8164C229.047 75.3454 229.107 74.7821 229.107 74.1264C229.107 73.4707 229.047 72.9096 228.927 72.4432C228.807 71.9722 228.636 71.6144 228.414 71.3696C228.193 71.1203 227.93 70.9956 227.625 70.9956ZM247.739 81.1775H246.492V68.7653H247.739V81.1775ZM245.121 80.568H243.874V74.8052H241.45C240.674 76.3105 239.451 77.5527 237.779 78.5316L237.031 77.5896C238.324 76.8231 239.305 75.9226 239.975 74.8883C240.649 73.8539 241.041 72.6857 241.152 71.3835H237.613V70.303H242.461C242.452 71.5774 242.267 72.7272 241.907 73.7523H243.874V69.0839H245.121V80.568ZM60.4478 99.1775H59.1872V86.7653H60.4478V99.1775ZM57.9266 98.5541H56.6798V92.2372H54.7543V91.1567H56.6798V87.0285H57.9266V98.5541ZM53.5352 90.2285C53.5352 90.9489 53.6322 91.6484 53.8261 92.3272C54.0247 93.0014 54.3179 93.6132 54.7058 94.1627C55.0983 94.7122 55.5762 95.1509 56.1396 95.4788L55.3499 96.4485C54.7727 96.1022 54.2786 95.6312 53.8677 95.0355C53.4567 94.4398 53.1404 93.7587 52.9188 92.9922C52.6925 93.8233 52.3669 94.5645 51.9421 95.2156C51.5173 95.862 51.0094 96.37 50.4183 96.7394L49.6148 95.7558C50.1828 95.4095 50.6653 94.9454 51.0625 94.3636C51.4642 93.7818 51.7667 93.1353 51.9698 92.4242C52.173 91.7085 52.2746 90.9766 52.2746 90.2285V89.2311H49.9889V88.1644H55.6686V89.2311H53.5352V90.2285ZM72.7076 99.1775H71.447V92.7636H69.8401V98.5403H68.6349V87.0146H69.8401V91.6831H71.447V86.7653H72.7076V99.1775ZM67.1249 89.3281H63.7864V95.077C64.5991 95.0678 65.3102 95.0401 65.9197 94.9939C66.5339 94.9477 67.1572 94.8646 67.7899 94.7446L67.8868 95.8251C67.1896 95.9682 66.5015 96.0652 65.8227 96.116C65.144 96.1622 64.3035 96.1899 63.3015 96.1991H62.4703V88.2614H67.1249V89.3281ZM85.674 97.6952H74.3146V96.587H79.3155V94.4121H75.6999V90.464H82.9865V88.7185H75.6722V87.638H84.2887V91.5168H77.0021V93.3316H84.5796V94.4121H80.6177V96.587H85.674V97.6952ZM97.2689 91.8077H94.8446V93.3731C96.0221 93.3223 97.0934 93.2438 98.0585 93.1376L98.1555 94.1073C96.0544 94.3936 93.427 94.5368 90.2731 94.5368L90.0931 93.4839C91.4045 93.4747 92.5543 93.4562 93.5424 93.4285V91.8077H91.2013V87.5549H97.158V88.6216H92.5173V90.7411H97.2689V91.8077ZM100.33 96.0744H99.0143V86.7653H100.33V96.0744ZM100.718 98.9143H92.1433V95.4095H93.4593V97.8476H100.718V98.9143ZM116.441 89.148H106.343V88.0952H110.762V86.7099H112.064V88.0952H116.441V89.148ZM117.12 95.7697H114.253V99.1914H112.923V95.7697H109.93V99.1914H108.614V95.7697H105.761V94.703H117.12V95.7697ZM111.413 89.7852C112.272 89.7852 113.01 89.866 113.629 90.0276C114.248 90.1846 114.721 90.4201 115.049 90.7341C115.377 91.0435 115.541 91.4199 115.541 91.8632C115.541 92.3018 115.377 92.6782 115.049 92.9922C114.721 93.3016 114.248 93.5371 113.629 93.6987C113.01 93.8603 112.272 93.9411 111.413 93.9411C110.549 93.9411 109.808 93.8603 109.189 93.6987C108.571 93.5371 108.097 93.3016 107.769 92.9922C107.442 92.6782 107.28 92.3018 107.285 91.8632C107.28 91.4199 107.442 91.0435 107.769 90.7341C108.097 90.4201 108.571 90.1846 109.189 90.0276C109.808 89.866 110.549 89.7852 111.413 89.7852ZM111.413 90.7826C110.512 90.7919 109.824 90.8865 109.349 91.0666C108.878 91.2467 108.642 91.5122 108.642 91.8632C108.642 92.2095 108.88 92.475 109.356 92.6597C109.831 92.8398 110.517 92.9298 111.413 92.9298C112.299 92.9298 112.98 92.8398 113.456 92.6597C113.936 92.475 114.179 92.2095 114.183 91.8632C114.179 91.5122 113.939 91.2467 113.463 91.0666C112.992 90.8865 112.309 90.7919 111.413 90.7826ZM122.537 88.5523C122.532 89.1249 122.652 89.6721 122.897 90.1939C123.146 90.7111 123.504 91.1682 123.97 91.5653C124.437 91.9624 124.984 92.2649 125.612 92.4727L124.947 93.5117C124.236 93.2623 123.615 92.8952 123.084 92.4103C122.557 91.9209 122.153 91.3506 121.872 90.6995C121.59 91.406 121.181 92.0225 120.646 92.5489C120.115 93.0707 119.484 93.4609 118.755 93.7194L118.09 92.6943C118.722 92.4681 119.272 92.1425 119.738 91.7177C120.209 91.2929 120.569 90.808 120.819 90.2631C121.068 89.7136 121.193 89.1434 121.193 88.5523V87.361H122.537V88.5523ZM128.313 99.1775H126.997V95.8805H119.905V94.8138H128.313V99.1775ZM128.313 94.2182H126.997V86.7653H128.313V94.2182ZM140.559 99.2052H139.243V86.7653H140.559V99.2052ZM133.924 87.6934C134.538 87.6934 135.087 87.8735 135.572 88.2337C136.057 88.5893 136.436 89.0972 136.708 89.7575C136.985 90.4132 137.124 91.1751 137.124 92.0432C137.124 92.916 136.985 93.6825 136.708 94.3428C136.436 95.0032 136.057 95.5134 135.572 95.8736C135.087 96.2291 134.538 96.4069 133.924 96.4069C133.3 96.4069 132.746 96.2291 132.261 95.8736C131.776 95.5134 131.396 95.0055 131.118 94.3498C130.846 93.6894 130.71 92.9206 130.71 92.0432C130.71 91.1705 130.846 90.4063 131.118 89.7506C131.396 89.0903 131.776 88.5823 132.261 88.2268C132.746 87.8712 133.3 87.6934 133.924 87.6934ZM133.924 88.8709C133.54 88.8709 133.201 89.0002 132.905 89.2588C132.615 89.5174 132.388 89.8868 132.227 90.367C132.065 90.8427 131.984 91.4014 131.984 92.0432C131.984 92.6897 132.065 93.2531 132.227 93.7333C132.388 94.2135 132.615 94.5829 132.905 94.8415C133.201 95.1001 133.54 95.2294 133.924 95.2294C134.302 95.2294 134.637 95.1001 134.928 94.8415C135.219 94.5829 135.445 94.2135 135.607 93.7333C135.768 93.2531 135.849 92.6897 135.849 92.0432C135.849 91.4014 135.768 90.8427 135.607 90.367C135.445 89.8868 135.219 89.5174 134.928 89.2588C134.637 89.0002 134.302 88.8709 133.924 88.8709ZM156.324 93.1792H154.994V86.7653H156.324V93.1792ZM156.324 96.8225H149.411V98H156.753V99.0528H148.123V95.8667H155.022V94.7861H148.081V93.7472H156.324V96.8225ZM153.29 88.6216H152.099V91.5584C152.722 91.5168 153.309 91.4614 153.858 91.3922L153.913 92.348C151.891 92.6528 149.374 92.8052 146.364 92.8052L146.211 91.7523C146.516 91.7523 147.019 91.7477 147.721 91.7385V88.6216H146.544V87.5826H153.29V88.6216ZM148.982 91.7108C149.818 91.6831 150.436 91.6577 150.838 91.6346V88.6216H148.982V91.7108ZM169.623 97.626H158.263V96.5316H160.978V93.29C160.461 93.0037 160.06 92.6412 159.773 92.2026C159.487 91.7639 159.344 91.2721 159.344 90.7272C159.344 90.0854 159.538 89.5197 159.926 89.0302C160.318 88.5408 160.861 88.1621 161.553 87.8943C162.246 87.6219 163.033 87.4856 163.915 87.4856C164.802 87.4856 165.591 87.6219 166.284 87.8943C166.981 88.1621 167.524 88.5408 167.912 89.0302C168.304 89.5197 168.501 90.0854 168.501 90.7272C168.501 91.2675 168.362 91.7546 168.085 92.1887C167.808 92.6181 167.415 92.976 166.907 93.2623V96.5316H169.623V97.626ZM163.915 88.5385C163.269 88.5385 162.696 88.6285 162.197 88.8086C161.699 88.9841 161.311 89.238 161.034 89.5705C160.757 89.8984 160.618 90.2839 160.618 90.7272C160.618 91.1659 160.757 91.5515 161.034 91.8839C161.311 92.2164 161.699 92.475 162.197 92.6597C162.696 92.8398 163.269 92.9298 163.915 92.9298C164.557 92.9298 165.127 92.8398 165.626 92.6597C166.129 92.475 166.522 92.2164 166.804 91.8839C167.085 91.5515 167.226 91.1659 167.226 90.7272C167.226 90.2885 167.085 89.903 166.804 89.5705C166.527 89.238 166.136 88.9841 165.633 88.8086C165.134 88.6285 164.562 88.5385 163.915 88.5385ZM165.578 96.5316V93.7679C165.074 93.8926 164.52 93.9549 163.915 93.9549C163.333 93.9549 162.789 93.8949 162.281 93.7749V96.5316H165.578ZM180.276 90.7688H182.076V91.8632H180.276V96.0606H178.96V86.7791H180.276V90.7688ZM177.934 89.2865H170.537V88.2198H173.585V86.7653H174.901V88.2198H177.934V89.2865ZM174.236 89.8822C174.827 89.8822 175.349 89.9792 175.801 90.1731C176.258 90.367 176.611 90.6418 176.861 90.9974C177.115 91.3483 177.242 91.757 177.242 92.2233C177.242 92.6897 177.115 93.0984 176.861 93.4493C176.611 93.8003 176.258 94.0727 175.801 94.2666C175.349 94.456 174.827 94.5506 174.236 94.5506C173.64 94.5506 173.114 94.456 172.656 94.2666C172.199 94.0727 171.844 93.8003 171.59 93.4493C171.34 93.0984 171.216 92.6897 171.216 92.2233C171.216 91.757 171.34 91.3483 171.59 90.9974C171.844 90.6418 172.199 90.367 172.656 90.1731C173.114 89.9792 173.64 89.8822 174.236 89.8822ZM174.236 90.8935C173.885 90.8935 173.575 90.9489 173.308 91.0597C173.044 91.1659 172.841 91.3206 172.698 91.5238C172.555 91.7223 172.486 91.9555 172.49 92.2233C172.486 92.4865 172.555 92.7174 172.698 92.916C172.841 93.1099 173.044 93.26 173.308 93.3662C173.575 93.4724 173.885 93.5255 174.236 93.5255C174.587 93.5255 174.894 93.4724 175.157 93.3662C175.425 93.26 175.633 93.1099 175.78 92.916C175.928 92.7174 176.004 92.4865 176.009 92.2233C176.004 91.9555 175.928 91.7223 175.78 91.5238C175.633 91.3206 175.425 91.1659 175.157 91.0597C174.894 90.9489 174.587 90.8935 174.236 90.8935ZM180.802 98.9143H172.407V95.3264H173.723V97.8476H180.802V98.9143ZM190.804 89.9237C190.799 90.6718 190.935 91.4083 191.212 92.1333C191.494 92.8536 191.884 93.4955 192.383 94.0588C192.886 94.6222 193.454 95.0447 194.087 95.3264L193.297 96.3654C192.591 96.0283 191.965 95.5319 191.42 94.8762C190.875 94.2158 190.455 93.4586 190.16 92.6043C189.869 93.5232 189.444 94.3359 188.885 95.0424C188.331 95.7489 187.687 96.2822 186.953 96.6424L186.149 95.5342C186.791 95.2479 187.364 94.8138 187.867 94.232C188.375 93.6502 188.77 92.9829 189.051 92.2303C189.333 91.473 189.474 90.7041 189.474 89.9237V87.8043H190.804V89.9237ZM196.525 99.2052H195.209V86.7653H196.525V99.2052ZM208.854 93.9965H207.538V90.8796H205.211V89.7852H207.538V86.7653H208.854V93.9965ZM208.854 99.0251H200.667V94.5783H208.854V99.0251ZM201.969 97.9584H207.566V95.6173H201.969V97.9584ZM202.953 88.8848C202.953 89.402 203.073 89.9076 203.313 90.4017C203.553 90.8958 203.899 91.3367 204.352 91.7246C204.804 92.1125 205.335 92.4127 205.945 92.6251L205.266 93.664C204.583 93.4239 203.987 93.0684 203.479 92.5974C202.971 92.1217 202.579 91.5722 202.302 90.9489C202.029 91.6415 201.625 92.2487 201.09 92.7705C200.559 93.2877 199.928 93.6733 199.199 93.9272L198.52 92.8883C199.143 92.6759 199.688 92.3642 200.154 91.9532C200.621 91.5422 200.979 91.0712 201.228 90.5402C201.482 90.0046 201.609 89.4528 201.609 88.8848V88.5939H198.922V87.5133H205.613V88.5939H202.953V88.8848ZM221.059 93.4285H219.742V86.7653H221.059V93.4285ZM214.229 95.4234H219.756V94.0242H221.059V99.0251H212.941V94.0242H214.229V95.4234ZM219.756 97.9446V96.4623H214.229V97.9446H219.756ZM214.326 87.3333C214.954 87.3333 215.517 87.4556 216.016 87.7004C216.519 87.9451 216.912 88.2868 217.194 88.7255C217.48 89.1595 217.623 89.6559 217.623 90.2147C217.623 90.7734 217.48 91.2721 217.194 91.7108C216.912 92.1448 216.519 92.4842 216.016 92.729C215.517 92.9691 214.954 93.0868 214.326 93.0822C213.698 93.0868 213.132 92.9691 212.629 92.729C212.126 92.4842 211.731 92.1448 211.445 91.7108C211.158 91.2721 211.015 90.7734 211.015 90.2147C211.015 89.6559 211.158 89.1595 211.445 88.7255C211.731 88.2868 212.126 87.9451 212.629 87.7004C213.132 87.4556 213.698 87.3333 214.326 87.3333ZM214.326 88.4415C213.938 88.4369 213.589 88.5108 213.28 88.6631C212.975 88.8109 212.735 89.021 212.56 89.2934C212.389 89.5613 212.303 89.8683 212.303 90.2147C212.303 90.5656 212.389 90.8773 212.56 91.1497C212.735 91.4176 212.975 91.6277 213.28 91.78C213.589 91.9278 213.938 92.0017 214.326 92.0017C214.709 92.0017 215.053 91.9278 215.358 91.78C215.663 91.6277 215.901 91.4176 216.071 91.1497C216.247 90.8773 216.335 90.5656 216.335 90.2147C216.335 89.8683 216.247 89.5613 216.071 89.2934C215.901 89.021 215.663 88.8109 215.358 88.6631C215.053 88.5108 214.709 88.4369 214.326 88.4415ZM233.332 99.1775H232.016V86.7653H233.332V99.1775ZM225.09 94.8831C227.122 94.8692 229.024 94.6799 230.797 94.3151L230.977 95.4234C229.924 95.6358 228.895 95.7882 227.888 95.8805C226.881 95.9729 225.861 96.019 224.827 96.019H223.788V87.9705H225.09V94.8831ZM244.955 91.5722H246.95V92.6528H244.955V99.2052H243.639V86.7653H244.955V91.5722ZM241.616 89.0233H237.128V95.0216C238.227 95.017 239.192 94.9847 240.023 94.9247C240.859 94.8646 241.699 94.7584 242.544 94.606L242.711 95.7143C241.856 95.8667 241.016 95.9729 240.189 96.0329C239.367 96.0883 238.416 96.116 237.336 96.116H236.809H235.812V87.9566H241.616V89.0233ZM248.958 98.097C248.783 98.097 248.617 98.0531 248.46 97.9654C248.307 97.8776 248.187 97.7576 248.099 97.6052C248.012 97.4528 247.97 97.2889 247.975 97.1134C247.97 96.9379 248.012 96.774 248.099 96.6216C248.187 96.4693 248.307 96.3492 248.46 96.2615C248.617 96.1737 248.783 96.1299 248.958 96.1299C249.129 96.1299 249.291 96.1737 249.443 96.2615C249.596 96.3492 249.716 96.4693 249.803 96.6216C249.896 96.774 249.942 96.9379 249.942 97.1134C249.942 97.2889 249.896 97.4528 249.803 97.6052C249.716 97.7576 249.596 97.8776 249.443 97.9654C249.291 98.0531 249.129 98.097 248.958 98.097Z" fill="#FD4525"/>
</svg>
