<svg width="300" height="150" viewBox="0 0 300 150" fill="none" xmlns="http://www.w3.org/2000/svg">
<path d="M45.5869 69.8591V71.5008H41.3591V74.1014H44.599V75.7141H41.3591V80H39.3252V69.8591H45.5869ZM50.6032 80.1308C49.8284 80.1308 49.131 79.9613 48.5111 79.6223C47.8913 79.2736 47.4021 78.7844 47.0438 78.1549C46.6951 77.5253 46.5207 76.7989 46.5207 75.9756C46.5207 75.1523 46.6999 74.4259 47.0583 73.7963C47.4263 73.1668 47.9252 72.6825 48.5547 72.3435C49.1843 71.9948 49.8865 71.8205 50.6614 71.8205C51.4362 71.8205 52.1384 71.9948 52.768 72.3435C53.3976 72.6825 53.8915 73.1668 54.2499 73.7963C54.6179 74.4259 54.802 75.1523 54.802 75.9756C54.802 76.7989 54.6131 77.5253 54.2354 78.1549C53.8673 78.7844 53.3637 79.2736 52.7244 79.6223C52.0948 79.9613 51.3878 80.1308 50.6032 80.1308ZM50.6032 78.3583C50.9713 78.3583 51.3151 78.2711 51.6348 78.0968C51.9641 77.9127 52.2256 77.6415 52.4193 77.2832C52.613 76.9248 52.7099 76.4889 52.7099 75.9756C52.7099 75.2104 52.5065 74.6245 52.0997 74.2177C51.7026 73.8012 51.2134 73.5929 50.6323 73.5929C50.0512 73.5929 49.562 73.8012 49.1649 74.2177C48.7775 74.6245 48.5838 75.2104 48.5838 75.9756C48.5838 76.7408 48.7726 77.3316 49.1504 77.7481C49.5378 78.1549 50.0221 78.3583 50.6032 78.3583ZM58.328 73.2007C58.5895 72.7745 58.9285 72.4403 59.345 72.1982C59.7711 71.9561 60.2554 71.835 60.7978 71.835V73.9707H60.2603C59.621 73.9707 59.1367 74.1208 58.8074 74.4211C58.4878 74.7213 58.328 75.2443 58.328 75.9901V80H56.294V71.9512H58.328V73.2007ZM73.3298 71.9512L68.3465 83.8065H66.1818L67.9252 79.7966L64.6999 71.9512H66.9808L69.0584 77.5737L71.165 71.9512H73.3298ZM78.0002 80.1308C77.2254 80.1308 76.528 79.9613 75.9081 79.6223C75.2883 79.2736 74.7991 78.7844 74.4408 78.1549C74.0921 77.5253 73.9177 76.7989 73.9177 75.9756C73.9177 75.1523 74.0969 74.4259 74.4553 73.7963C74.8233 73.1668 75.3222 72.6825 75.9517 72.3435C76.5813 71.9948 77.2835 71.8205 78.0584 71.8205C78.8332 71.8205 79.5354 71.9948 80.165 72.3435C80.7946 72.6825 81.2885 73.1668 81.6469 73.7963C82.0149 74.4259 82.199 75.1523 82.199 75.9756C82.199 76.7989 82.0101 77.5253 81.6324 78.1549C81.2643 78.7844 80.7607 79.2736 80.1214 79.6223C79.4918 79.9613 78.7848 80.1308 78.0002 80.1308ZM78.0002 78.3583C78.3683 78.3583 78.7121 78.2711 79.0318 78.0968C79.3611 77.9127 79.6226 77.6415 79.8163 77.2832C80.01 76.9248 80.1069 76.4889 80.1069 75.9756C80.1069 75.2104 79.9035 74.6245 79.4967 74.2177C79.0996 73.8012 78.6104 73.5929 78.0293 73.5929C77.4482 73.5929 76.959 73.8012 76.5619 74.2177C76.1745 74.6245 75.9808 75.2104 75.9808 75.9756C75.9808 76.7408 76.1696 77.3316 76.5474 77.7481C76.9348 78.1549 77.4191 78.3583 78.0002 78.3583ZM91.2894 71.9512V80H89.2409V78.983C88.9794 79.3317 88.6355 79.6077 88.2093 79.8111C87.7929 80.0048 87.3376 80.1017 86.8437 80.1017C86.2141 80.1017 85.6572 79.9709 85.1729 79.7094C84.6886 79.4382 84.306 79.046 84.0251 78.5326C83.7539 78.0096 83.6183 77.3897 83.6183 76.673V71.9512H85.6523V76.3824C85.6523 77.0217 85.8121 77.5156 86.1318 77.8643C86.4514 78.2033 86.8873 78.3728 87.4393 78.3728C88.0011 78.3728 88.4418 78.2033 88.7614 77.8643C89.0811 77.5156 89.2409 77.0217 89.2409 76.3824V71.9512H91.2894ZM95.3302 73.2007C95.5918 72.7745 95.9308 72.4403 96.3472 72.1982C96.7734 71.9561 97.2577 71.835 97.8001 71.835V73.9707H97.2625C96.6233 73.9707 96.139 74.1208 95.8097 74.4211C95.4901 74.7213 95.3302 75.2443 95.3302 75.9901V80H93.2963V71.9512H95.3302V73.2007ZM107.165 71.835C107.775 71.835 108.317 71.9706 108.792 72.2418C109.267 72.5033 109.635 72.8956 109.896 73.4186C110.167 73.9319 110.303 74.5518 110.303 75.2782V80H108.269V75.5543C108.269 74.915 108.109 74.4259 107.79 74.0869C107.47 73.7382 107.034 73.5639 106.482 73.5639C105.92 73.5639 105.475 73.7382 105.145 74.0869C104.826 74.4259 104.666 74.915 104.666 75.5543V80H102.632V69.2489H104.666V72.9537C104.927 72.605 105.276 72.3338 105.712 72.1401C106.148 71.9367 106.632 71.835 107.165 71.835ZM111.714 75.9465C111.714 75.133 111.874 74.4114 112.194 73.7818C112.523 73.1522 112.964 72.668 113.516 72.329C114.077 71.99 114.702 71.8205 115.39 71.8205C115.99 71.8205 116.513 71.9415 116.959 72.1837C117.414 72.4258 117.777 72.7309 118.049 73.099V71.9512H120.097V80H118.049V78.8232C117.787 79.2009 117.424 79.5157 116.959 79.7675C116.504 80.0097 115.976 80.1308 115.375 80.1308C114.697 80.1308 114.077 79.9564 113.516 79.6077C112.964 79.259 112.523 78.7699 112.194 78.1404C111.874 77.5011 111.714 76.7698 111.714 75.9465ZM118.049 75.9756C118.049 75.4816 117.952 75.0603 117.758 74.7116C117.564 74.3533 117.303 74.0821 116.974 73.898C116.644 73.7043 116.291 73.6075 115.913 73.6075C115.535 73.6075 115.187 73.6995 114.867 73.8835C114.547 74.0675 114.286 74.3387 114.082 74.6971C113.889 75.0458 113.792 75.4623 113.792 75.9465C113.792 76.4308 113.889 76.857 114.082 77.2251C114.286 77.5834 114.547 77.8595 114.867 78.0532C115.196 78.2469 115.545 78.3438 115.913 78.3438C116.291 78.3438 116.644 78.2517 116.974 78.0677C117.303 77.874 117.564 77.6028 117.758 77.2541C117.952 76.8957 118.049 76.4696 118.049 75.9756ZM124.118 73.1135C124.379 72.7454 124.738 72.4403 125.193 72.1982C125.658 71.9464 126.186 71.8205 126.776 71.8205C127.464 71.8205 128.084 71.99 128.636 72.329C129.198 72.668 129.638 73.1522 129.958 73.7818C130.287 74.4017 130.452 75.1233 130.452 75.9465C130.452 76.7698 130.287 77.5011 129.958 78.1404C129.638 78.7699 129.198 79.259 128.636 79.6077C128.084 79.9564 127.464 80.1308 126.776 80.1308C126.186 80.1308 125.663 80.0097 125.207 79.7675C124.762 79.5254 124.399 79.2203 124.118 78.8522V83.8355H122.084V71.9512H124.118V73.1135ZM128.375 75.9465C128.375 75.4623 128.273 75.0458 128.069 74.6971C127.876 74.3387 127.614 74.0675 127.285 73.8835C126.965 73.6995 126.617 73.6075 126.239 73.6075C125.871 73.6075 125.522 73.7043 125.193 73.898C124.873 74.0821 124.612 74.3533 124.408 74.7116C124.215 75.07 124.118 75.4913 124.118 75.9756C124.118 76.4599 124.215 76.8812 124.408 77.2396C124.612 77.598 124.873 77.874 125.193 78.0677C125.522 78.2517 125.871 78.3438 126.239 78.3438C126.617 78.3438 126.965 78.2469 127.285 78.0532C127.614 77.8595 127.876 77.5834 128.069 77.2251C128.273 76.8667 128.375 76.4405 128.375 75.9465ZM133.964 73.1135C134.226 72.7454 134.584 72.4403 135.039 72.1982C135.504 71.9464 136.032 71.8205 136.623 71.8205C137.311 71.8205 137.93 71.99 138.482 72.329C139.044 72.668 139.485 73.1522 139.805 73.7818C140.134 74.4017 140.299 75.1233 140.299 75.9465C140.299 76.7698 140.134 77.5011 139.805 78.1404C139.485 78.7699 139.044 79.259 138.482 79.6077C137.93 79.9564 137.311 80.1308 136.623 80.1308C136.032 80.1308 135.509 80.0097 135.054 79.7675C134.608 79.5254 134.245 79.2203 133.964 78.8522V83.8355H131.93V71.9512H133.964V73.1135ZM138.221 75.9465C138.221 75.4623 138.119 75.0458 137.916 74.6971C137.722 74.3387 137.461 74.0675 137.131 73.8835C136.812 73.6995 136.463 73.6075 136.085 73.6075C135.717 73.6075 135.369 73.7043 135.039 73.898C134.72 74.0821 134.458 74.3533 134.255 74.7116C134.061 75.07 133.964 75.4913 133.964 75.9756C133.964 76.4599 134.061 76.8812 134.255 77.2396C134.458 77.598 134.72 77.874 135.039 78.0677C135.369 78.2517 135.717 78.3438 136.085 78.3438C136.463 78.3438 136.812 78.2469 137.131 78.0532C137.461 77.8595 137.722 77.5834 137.916 77.2251C138.119 76.8667 138.221 76.4405 138.221 75.9465ZM142.808 70.9923C142.45 70.9923 142.149 70.8809 141.907 70.6582C141.675 70.4257 141.559 70.14 141.559 69.801C141.559 69.462 141.675 69.1811 141.907 68.9583C142.149 68.7259 142.45 68.6097 142.808 68.6097C143.166 68.6097 143.462 68.7259 143.694 68.9583C143.937 69.1811 144.058 69.462 144.058 69.801C144.058 70.14 143.937 70.4257 143.694 70.6582C143.462 70.8809 143.166 70.9923 142.808 70.9923ZM143.811 71.9512V80H141.777V71.9512H143.811ZM150.28 71.835C151.239 71.835 152.014 72.1401 152.605 72.7503C153.196 73.3508 153.491 74.1934 153.491 75.2782V80H151.457V75.5543C151.457 74.915 151.297 74.4259 150.978 74.0869C150.658 73.7382 150.222 73.5639 149.67 73.5639C149.108 73.5639 148.663 73.7382 148.334 74.0869C148.014 74.4259 147.854 74.915 147.854 75.5543V80H145.82V71.9512H147.854V72.9537C148.125 72.605 148.469 72.3338 148.886 72.1401C149.312 71.9367 149.777 71.835 150.28 71.835ZM162.908 75.8013C162.908 76.0918 162.888 76.3533 162.85 76.5858H156.965C157.014 77.1669 157.217 77.6222 157.576 77.9515C157.934 78.2808 158.375 78.4455 158.898 78.4455C159.653 78.4455 160.191 78.121 160.51 77.472H162.704C162.472 78.2469 162.026 78.8861 161.368 79.3898C160.709 79.8838 159.9 80.1308 158.941 80.1308C158.166 80.1308 157.469 79.9613 156.849 79.6223C156.239 79.2736 155.76 78.7844 155.411 78.1549C155.072 77.5253 154.902 76.7989 154.902 75.9756C154.902 75.1426 155.072 74.4114 155.411 73.7818C155.75 73.1522 156.225 72.668 156.835 72.329C157.445 71.99 158.147 71.8205 158.941 71.8205C159.707 71.8205 160.389 71.9851 160.99 72.3144C161.6 72.6437 162.07 73.1135 162.399 73.7237C162.738 74.3242 162.908 75.0167 162.908 75.8013ZM160.801 75.2201C160.791 74.6971 160.602 74.2806 160.234 73.9707C159.866 73.651 159.416 73.4912 158.883 73.4912C158.38 73.4912 157.953 73.6462 157.605 73.9561C157.266 74.2564 157.057 74.6777 156.98 75.2201H160.801ZM167.472 80.1308C166.814 80.1308 166.223 80.0145 165.7 79.7821C165.177 79.5399 164.76 79.2155 164.45 78.8087C164.15 78.4019 163.985 77.9515 163.956 77.4575H166.005C166.044 77.7675 166.194 78.0241 166.455 78.2275C166.726 78.4309 167.061 78.5326 167.458 78.5326C167.845 78.5326 168.145 78.4551 168.359 78.3002C168.581 78.1452 168.693 77.9466 168.693 77.7045C168.693 77.443 168.557 77.2493 168.286 77.1234C168.024 76.9878 167.603 76.8425 167.022 76.6875C166.421 76.5422 165.927 76.3921 165.54 76.2371C165.162 76.0821 164.833 75.8448 164.552 75.5252C164.281 75.2056 164.145 74.7746 164.145 74.2322C164.145 73.7866 164.271 73.3798 164.523 73.0118C164.785 72.6437 165.153 72.3532 165.627 72.1401C166.111 71.927 166.678 71.8205 167.327 71.8205C168.286 71.8205 169.051 72.0626 169.623 72.5469C170.194 73.0215 170.509 73.6656 170.567 74.4792H168.62C168.591 74.1595 168.455 73.9077 168.213 73.7237C167.981 73.53 167.666 73.4331 167.269 73.4331C166.901 73.4331 166.615 73.5009 166.412 73.6365C166.218 73.7721 166.121 73.961 166.121 74.2031C166.121 74.4743 166.257 74.6826 166.528 74.8279C166.799 74.9635 167.22 75.1039 167.792 75.2492C168.373 75.3945 168.853 75.5446 169.23 75.6996C169.608 75.8545 169.932 76.0967 170.204 76.426C170.485 76.7456 170.63 77.1718 170.64 77.7045C170.64 78.1694 170.509 78.5859 170.247 78.9539C169.995 79.322 169.627 79.6126 169.143 79.8257C168.668 80.0291 168.112 80.1308 167.472 80.1308ZM175.389 80.1308C174.731 80.1308 174.14 80.0145 173.617 79.7821C173.094 79.5399 172.677 79.2155 172.367 78.8087C172.067 78.4019 171.902 77.9515 171.873 77.4575H173.922C173.961 77.7675 174.111 78.0241 174.372 78.2275C174.643 78.4309 174.978 78.5326 175.375 78.5326C175.762 78.5326 176.062 78.4551 176.275 78.3002C176.498 78.1452 176.61 77.9466 176.61 77.7045C176.61 77.443 176.474 77.2493 176.203 77.1234C175.941 76.9878 175.52 76.8425 174.939 76.6875C174.338 76.5422 173.844 76.3921 173.457 76.2371C173.079 76.0821 172.75 75.8448 172.469 75.5252C172.198 75.2056 172.062 74.7746 172.062 74.2322C172.062 73.7866 172.188 73.3798 172.44 73.0118C172.701 72.6437 173.069 72.3532 173.544 72.1401C174.028 71.927 174.595 71.8205 175.244 71.8205C176.203 71.8205 176.968 72.0626 177.539 72.5469C178.111 73.0215 178.426 73.6656 178.484 74.4792H176.537C176.508 74.1595 176.372 73.9077 176.13 73.7237C175.898 73.53 175.583 73.4331 175.186 73.4331C174.818 73.4331 174.532 73.5009 174.329 73.6365C174.135 73.7721 174.038 73.961 174.038 74.2031C174.038 74.4743 174.174 74.6826 174.445 74.8279C174.716 74.9635 175.137 75.1039 175.709 75.2492C176.29 75.3945 176.769 75.5446 177.147 75.6996C177.525 75.8545 177.849 76.0967 178.121 76.426C178.401 76.7456 178.547 77.1718 178.556 77.7045C178.556 78.1694 178.426 78.5859 178.164 78.9539C177.912 79.322 177.544 79.6126 177.06 79.8257C176.585 80.0291 176.028 80.1308 175.389 80.1308ZM186.056 73.622V77.5156C186.056 77.7868 186.119 77.9854 186.245 78.1113C186.381 78.2275 186.603 78.2856 186.913 78.2856H187.858V80H186.579C184.865 80 184.008 79.167 184.008 77.5011V73.622H183.049V71.9512H184.008V69.9608H186.056V71.9512H187.858V73.622H186.056ZM193.853 71.835C194.464 71.835 195.006 71.9706 195.481 72.2418C195.955 72.5033 196.323 72.8956 196.585 73.4186C196.856 73.9319 196.992 74.5518 196.992 75.2782V80H194.958V75.5543C194.958 74.915 194.798 74.4259 194.478 74.0869C194.159 73.7382 193.723 73.5639 193.171 73.5639C192.609 73.5639 192.163 73.7382 191.834 74.0869C191.514 74.4259 191.355 74.915 191.355 75.5543V80H189.321V69.2489H191.355V72.9537C191.616 72.605 191.965 72.3338 192.401 72.1401C192.836 71.9367 193.321 71.835 193.853 71.835ZM199.957 70.9923C199.599 70.9923 199.299 70.8809 199.057 70.6582C198.824 70.4257 198.708 70.14 198.708 69.801C198.708 69.462 198.824 69.1811 199.057 68.9583C199.299 68.7259 199.599 68.6097 199.957 68.6097C200.316 68.6097 200.611 68.7259 200.844 68.9583C201.086 69.1811 201.207 69.462 201.207 69.801C201.207 70.14 201.086 70.4257 200.844 70.6582C200.611 70.8809 200.316 70.9923 199.957 70.9923ZM200.96 71.9512V80H198.926V71.9512H200.96ZM206.049 80.1308C205.391 80.1308 204.8 80.0145 204.277 79.7821C203.754 79.5399 203.337 79.2155 203.027 78.8087C202.727 78.4019 202.563 77.9515 202.534 77.4575H204.582C204.621 77.7675 204.771 78.0241 205.032 78.2275C205.304 78.4309 205.638 78.5326 206.035 78.5326C206.422 78.5326 206.723 78.4551 206.936 78.3002C207.158 78.1452 207.27 77.9466 207.27 77.7045C207.27 77.443 207.134 77.2493 206.863 77.1234C206.602 76.9878 206.18 76.8425 205.599 76.6875C204.999 76.5422 204.505 76.3921 204.117 76.2371C203.739 76.0821 203.41 75.8448 203.129 75.5252C202.858 75.2056 202.722 74.7746 202.722 74.2322C202.722 73.7866 202.848 73.3798 203.1 73.0118C203.362 72.6437 203.73 72.3532 204.204 72.1401C204.689 71.927 205.255 71.8205 205.904 71.8205C206.863 71.8205 207.628 72.0626 208.2 72.5469C208.771 73.0215 209.086 73.6656 209.144 74.4792H207.197C207.168 74.1595 207.033 73.9077 206.79 73.7237C206.558 73.53 206.243 73.4331 205.846 73.4331C205.478 73.4331 205.192 73.5009 204.989 73.6365C204.795 73.7721 204.698 73.961 204.698 74.2031C204.698 74.4743 204.834 74.6826 205.105 74.8279C205.376 74.9635 205.798 75.1039 206.369 75.2492C206.95 75.3945 207.43 75.5446 207.807 75.6996C208.185 75.8545 208.51 76.0967 208.781 76.426C209.062 76.7456 209.207 77.1718 209.217 77.7045C209.217 78.1694 209.086 78.5859 208.824 78.9539C208.573 79.322 208.204 79.6126 207.72 79.8257C207.246 80.0291 206.689 80.1308 206.049 80.1308ZM224.344 71.835C225.332 71.835 226.126 72.1401 226.726 72.7503C227.337 73.3508 227.642 74.1934 227.642 75.2782V80H225.608V75.5543C225.608 74.9247 225.448 74.4453 225.128 74.116C224.809 73.777 224.373 73.6075 223.821 73.6075C223.269 73.6075 222.828 73.777 222.499 74.116C222.179 74.4453 222.019 74.9247 222.019 75.5543V80H219.985V75.5543C219.985 74.9247 219.825 74.4453 219.506 74.116C219.186 73.777 218.75 73.6075 218.198 73.6075C217.636 73.6075 217.191 73.777 216.862 74.116C216.542 74.4453 216.382 74.9247 216.382 75.5543V80H214.348V71.9512H216.382V72.9246C216.644 72.5856 216.978 72.3193 217.385 72.1256C217.801 71.9318 218.256 71.835 218.75 71.835C219.38 71.835 219.942 71.9706 220.436 72.2418C220.93 72.5033 221.312 72.881 221.583 73.375C221.845 72.9101 222.223 72.5372 222.717 72.2563C223.22 71.9754 223.763 71.835 224.344 71.835ZM233.146 80.1308C232.371 80.1308 231.674 79.9613 231.054 79.6223C230.434 79.2736 229.945 78.7844 229.586 78.1549C229.238 77.5253 229.063 76.7989 229.063 75.9756C229.063 75.1523 229.243 74.4259 229.601 73.7963C229.969 73.1668 230.468 72.6825 231.097 72.3435C231.727 71.9948 232.429 71.8205 233.204 71.8205C233.979 71.8205 234.681 71.9948 235.311 72.3435C235.94 72.6825 236.434 73.1668 236.793 73.7963C237.161 74.4259 237.345 75.1523 237.345 75.9756C237.345 76.7989 237.156 77.5253 236.778 78.1549C236.41 78.7844 235.906 79.2736 235.267 79.6223C234.637 79.9613 233.93 80.1308 233.146 80.1308ZM233.146 78.3583C233.514 78.3583 233.858 78.2711 234.177 78.0968C234.507 77.9127 234.768 77.6415 234.962 77.2832C235.156 76.9248 235.253 76.4889 235.253 75.9756C235.253 75.2104 235.049 74.6245 234.642 74.2177C234.245 73.8012 233.756 73.5929 233.175 73.5929C232.594 73.5929 232.105 73.8012 231.708 74.2177C231.32 74.6245 231.126 75.2104 231.126 75.9756C231.126 76.7408 231.315 77.3316 231.693 77.7481C232.08 78.1549 232.565 78.3583 233.146 78.3583ZM243.297 71.835C244.256 71.835 245.031 72.1401 245.621 72.7503C246.212 73.3508 246.508 74.1934 246.508 75.2782V80H244.474V75.5543C244.474 74.915 244.314 74.4259 243.994 74.0869C243.675 73.7382 243.239 73.5639 242.687 73.5639C242.125 73.5639 241.679 73.7382 241.35 74.0869C241.03 74.4259 240.871 74.915 240.871 75.5543V80H238.837V71.9512H240.871V72.9537C241.142 72.605 241.486 72.3338 241.902 72.1401C242.328 71.9367 242.793 71.835 243.297 71.835ZM250.81 73.622V77.5156C250.81 77.7868 250.873 77.9854 250.999 78.1113C251.135 78.2275 251.357 78.2856 251.667 78.2856H252.612V80H251.333C249.619 80 248.762 79.167 248.762 77.5011V73.622H247.803V71.9512H248.762V69.9608H250.81V71.9512H252.612V73.622H250.81ZM258.607 71.835C259.218 71.835 259.76 71.9706 260.235 72.2418C260.709 72.5033 261.077 72.8956 261.339 73.4186C261.61 73.9319 261.746 74.5518 261.746 75.2782V80H259.712V75.5543C259.712 74.915 259.552 74.4259 259.232 74.0869C258.913 73.7382 258.477 73.5639 257.925 73.5639C257.363 73.5639 256.917 73.7382 256.588 74.0869C256.268 74.4259 256.109 74.915 256.109 75.5543V80H254.075V69.2489H256.109V72.9537C256.37 72.605 256.719 72.3338 257.155 72.1401C257.59 71.9367 258.075 71.835 258.607 71.835Z" fill="#FD4525"/>
</svg>
