<svg width="300" height="150" viewBox="0 0 300 150" fill="none" xmlns="http://www.w3.org/2000/svg">
<path d="M35.0542 72L32.6425 67.8594H31.0443V72H29.7222V61.8736H32.9912C33.7563 61.8736 34.4004 62.0044 34.9234 62.2659C35.4562 62.5274 35.8533 62.8809 36.1148 63.3265C36.3763 63.772 36.507 64.2805 36.507 64.852C36.507 65.5493 36.3037 66.1644 35.8969 66.6971C35.4997 67.2298 34.8992 67.5833 34.0953 67.7577L36.6378 72H35.0542ZM31.0443 66.7988H32.9912C33.7079 66.7988 34.2454 66.6245 34.6038 66.2758C34.9622 65.9174 35.1414 65.4428 35.1414 64.852C35.1414 64.2515 34.9622 63.7866 34.6038 63.4572C34.2551 63.1279 33.7176 62.9633 32.9912 62.9633H31.0443V66.7988ZM39.8834 62.9487V66.3339H43.5737V67.4235H39.8834V70.9104H44.0095V72H38.5614V61.8591H44.0095V62.9487H39.8834ZM45.5161 66.9296C45.5161 65.9416 45.7388 65.0554 46.1844 64.2708C46.6299 63.4766 47.2353 62.8567 48.0005 62.4112C48.7753 61.9657 49.6325 61.7429 50.572 61.7429C51.6762 61.7429 52.6399 62.0092 53.4632 62.5419C54.2864 63.0747 54.887 63.8301 55.2647 64.8084H53.6811C53.4002 64.1982 52.9934 63.7284 52.4607 63.3991C51.9377 63.0698 51.3081 62.9052 50.572 62.9052C49.8649 62.9052 49.2305 63.0698 48.6688 63.3991C48.107 63.7284 47.6663 64.1982 47.3467 64.8084C47.027 65.4089 46.8672 66.116 46.8672 66.9296C46.8672 67.7335 47.027 68.4405 47.3467 69.0507C47.6663 69.6512 48.107 70.1161 48.6688 70.4455C49.2305 70.7748 49.8649 70.9394 50.572 70.9394C51.3081 70.9394 51.9377 70.7796 52.4607 70.46C52.9934 70.1307 53.4002 69.6609 53.6811 69.0507H55.2647C54.887 70.0193 54.2864 70.7699 53.4632 71.3026C52.6399 71.8257 51.6762 72.0872 50.572 72.0872C49.6325 72.0872 48.7753 71.8692 48.0005 71.4334C47.2353 70.9878 46.6299 70.3728 46.1844 69.5883C45.7388 68.8037 45.5161 67.9175 45.5161 66.9296ZM58.5548 62.9487V66.3339H62.2451V67.4235H58.5548V70.9104H62.6809V72H57.2327V61.8591H62.6809V62.9487H58.5548ZM66.0035 61.8736V72H64.6814V61.8736H66.0035ZM76.6252 61.8736L72.8042 72H71.2787L67.4577 61.8736H68.867L72.0487 70.6053L75.2305 61.8736H76.6252ZM79.397 62.9487V66.3339H83.0872V67.4235H79.397V70.9104H83.5231V72H78.0749V61.8591H83.5231V62.9487H79.397ZM95.3826 69.7481H90.966L90.1524 72H88.7577L92.4188 61.9318H93.9443L97.591 72H96.1962L95.3826 69.7481ZM95.0049 68.673L93.1743 63.5589L91.3437 68.673H95.0049ZM110.731 64.8084C110.45 64.2176 110.043 63.7623 109.511 63.4427C108.978 63.1134 108.358 62.9487 107.651 62.9487C106.944 62.9487 106.305 63.1134 105.733 63.4427C105.171 63.7623 104.726 64.2273 104.397 64.8375C104.077 65.438 103.917 66.1353 103.917 66.9296C103.917 67.7238 104.077 68.4211 104.397 69.0217C104.726 69.6222 105.171 70.0871 105.733 70.4164C106.305 70.736 106.944 70.8958 107.651 70.8958C108.639 70.8958 109.452 70.6004 110.092 70.0096C110.731 69.4188 111.104 68.6197 111.21 67.6124H107.172V66.5373H112.62V67.5543C112.542 68.3872 112.281 69.1524 111.835 69.8498C111.39 70.5375 110.804 71.0847 110.077 71.4915C109.351 71.8886 108.542 72.0872 107.651 72.0872C106.711 72.0872 105.854 71.8692 105.079 71.4334C104.305 70.9878 103.69 70.3728 103.234 69.5883C102.789 68.8037 102.566 67.9175 102.566 66.9296C102.566 65.9416 102.789 65.0554 103.234 64.2708C103.69 63.4766 104.305 62.8616 105.079 62.4257C105.854 61.9802 106.711 61.7574 107.651 61.7574C108.726 61.7574 109.675 62.0238 110.499 62.5565C111.331 63.0892 111.937 63.8398 112.315 64.8084H110.731ZM115.69 61.8736V72H114.368V61.8736H115.69ZM123.667 61.8736V62.9487H119.265V66.3629H122.839V67.4381H119.265V72H117.943V61.8736H123.667ZM131.497 61.8736V62.9487H128.736V72H127.414V62.9487H124.639V61.8736H131.497ZM142.722 61.8736V62.9487H138.32V66.3629H141.894V67.4381H138.32V72H136.998V61.8736H142.722ZM149.651 72L147.239 67.8594H145.641V72H144.319V61.8736H147.588C148.353 61.8736 148.997 62.0044 149.52 62.2659C150.053 62.5274 150.45 62.8809 150.711 63.3265C150.973 63.772 151.103 64.2805 151.103 64.852C151.103 65.5493 150.9 66.1644 150.493 66.6971C150.096 67.2298 149.496 67.5833 148.692 67.7577L151.234 72H149.651ZM145.641 66.7988H147.588C148.304 66.7988 148.842 66.6245 149.2 66.2758C149.559 65.9174 149.738 65.4428 149.738 64.852C149.738 64.2515 149.559 63.7866 149.2 63.4572C148.851 63.1279 148.314 62.9633 147.588 62.9633H145.641V66.7988ZM157.749 72.1017C156.809 72.1017 155.952 71.8838 155.177 71.4479C154.402 71.0024 153.787 70.3873 153.332 69.6028C152.887 68.8086 152.664 67.9175 152.664 66.9296C152.664 65.9416 152.887 65.0554 153.332 64.2708C153.787 63.4766 154.402 62.8616 155.177 62.4257C155.952 61.9802 156.809 61.7574 157.749 61.7574C158.698 61.7574 159.56 61.9802 160.335 62.4257C161.11 62.8616 161.72 63.4718 162.165 64.2563C162.611 65.0408 162.834 65.9319 162.834 66.9296C162.834 67.9272 162.611 68.8183 162.165 69.6028C161.72 70.3873 161.11 71.0024 160.335 71.4479C159.56 71.8838 158.698 72.1017 157.749 72.1017ZM157.749 70.9539C158.456 70.9539 159.09 70.7893 159.652 70.46C160.223 70.1307 160.669 69.6609 160.989 69.0507C161.318 68.4405 161.483 67.7335 161.483 66.9296C161.483 66.116 161.318 65.4089 160.989 64.8084C160.669 64.1982 160.228 63.7284 159.666 63.3991C159.105 63.0698 158.465 62.9052 157.749 62.9052C157.032 62.9052 156.393 63.0698 155.831 63.3991C155.269 63.7284 154.824 64.1982 154.494 64.8084C154.175 65.4089 154.015 66.116 154.015 66.9296C154.015 67.7335 154.175 68.4405 154.494 69.0507C154.824 69.6609 155.269 70.1307 155.831 70.46C156.402 70.7893 157.042 70.9539 157.749 70.9539ZM174.851 61.9463V72H173.529V64.5033L170.187 72H169.257L165.901 64.4888V72H164.579V61.9463H166.003L169.722 70.2566L173.441 61.9463H174.851ZM185.557 72.1017C184.618 72.1017 183.76 71.8838 182.986 71.4479C182.211 71.0024 181.596 70.3873 181.141 69.6028C180.695 68.8086 180.472 67.9175 180.472 66.9296C180.472 65.9416 180.695 65.0554 181.141 64.2708C181.596 63.4766 182.211 62.8616 182.986 62.4257C183.76 61.9802 184.618 61.7574 185.557 61.7574C186.506 61.7574 187.368 61.9802 188.143 62.4257C188.918 62.8616 189.528 63.4718 189.974 64.2563C190.419 65.0408 190.642 65.9319 190.642 66.9296C190.642 67.9272 190.419 68.8183 189.974 69.6028C189.528 70.3873 188.918 71.0024 188.143 71.4479C187.368 71.8838 186.506 72.1017 185.557 72.1017ZM185.557 70.9539C186.264 70.9539 186.899 70.7893 187.46 70.46C188.032 70.1307 188.477 69.6609 188.797 69.0507C189.126 68.4405 189.291 67.7335 189.291 66.9296C189.291 66.116 189.126 65.4089 188.797 64.8084C188.477 64.1982 188.037 63.7284 187.475 63.3991C186.913 63.0698 186.274 62.9052 185.557 62.9052C184.84 62.9052 184.201 63.0698 183.639 63.3991C183.078 63.7284 182.632 64.1982 182.303 64.8084C181.983 65.4089 181.823 66.116 181.823 66.9296C181.823 67.7335 181.983 68.4405 182.303 69.0507C182.632 69.6609 183.078 70.1307 183.639 70.46C184.211 70.7893 184.85 70.9539 185.557 70.9539ZM205.114 61.8736L202.18 72H200.698L198.344 63.8495L195.903 72L194.436 72.0145L191.603 61.8736H193.012L195.221 70.46L197.661 61.8736H199.143L201.468 70.4309L203.691 61.8736H205.114ZM214.523 72H213.201L207.883 63.9367V72H206.561V61.8591H207.883L213.201 69.9079V61.8591H214.523V72ZM226.883 61.8736V62.9487H224.122V72H222.8V62.9487H220.025V61.8736H226.883ZM236.312 61.8736V72H234.99V67.409H229.832V72H228.51V61.8736H229.832V66.3194H234.99V61.8736H236.312ZM244.555 69.7481H240.138L239.325 72H237.93L241.591 61.9318H243.117L246.763 72H245.369L244.555 69.7481ZM244.177 68.673L242.347 63.5589L240.516 68.673H244.177ZM254.592 61.8736V62.9487H251.831V72H250.509V62.9487H247.734V61.8736H254.592ZM261.415 61.8736V72H260.093V61.8736H261.415ZM266.879 72.1017C266.21 72.1017 265.61 71.9855 265.077 71.753C264.554 71.5109 264.143 71.1816 263.842 70.7651C263.542 70.3389 263.387 69.8498 263.377 69.2977H264.787C264.835 69.7723 265.029 70.1743 265.368 70.5036C265.716 70.8232 266.22 70.983 266.879 70.983C267.508 70.983 268.002 70.828 268.361 70.5181C268.729 70.1985 268.913 69.7917 268.913 69.2977C268.913 68.9103 268.806 68.5955 268.593 68.3533C268.38 68.1112 268.114 67.9272 267.794 67.8013C267.474 67.6754 267.043 67.5398 266.501 67.3945C265.833 67.2201 265.295 67.0458 264.888 66.8714C264.491 66.6971 264.147 66.4259 263.857 66.0578C263.576 65.6801 263.435 65.1764 263.435 64.5469C263.435 63.9948 263.576 63.5057 263.857 63.0795C264.138 62.6533 264.53 62.324 265.034 62.0916C265.547 61.8591 266.133 61.7429 266.792 61.7429C267.741 61.7429 268.516 61.9802 269.116 62.4548C269.726 62.9294 270.07 63.5589 270.148 64.3435H268.695C268.646 63.9561 268.443 63.6171 268.085 63.3265C267.726 63.0262 267.252 62.8761 266.661 62.8761C266.109 62.8761 265.658 63.0214 265.31 63.312C264.961 63.5928 264.787 63.99 264.787 64.5033C264.787 64.8714 264.888 65.1716 265.092 65.4041C265.305 65.6365 265.561 65.8157 265.862 65.9416C266.172 66.0578 266.603 66.1934 267.155 66.3484C267.823 66.5324 268.361 66.7165 268.767 66.9005C269.174 67.0748 269.523 67.3509 269.813 67.7286C270.104 68.0967 270.249 68.6003 270.249 69.2396C270.249 69.7336 270.119 70.1985 269.857 70.6343C269.596 71.0702 269.208 71.4237 268.695 71.6949C268.181 71.9661 267.576 72.1017 266.879 72.1017ZM28.5543 81.8375C28.5543 82.6801 28.2638 83.3823 27.6826 83.9441C27.1112 84.4962 26.2346 84.7722 25.053 84.7722H23.1062V89H21.7841V78.8736H25.053C26.1959 78.8736 27.0628 79.1497 27.6536 79.7018C28.2541 80.2538 28.5543 80.9657 28.5543 81.8375ZM25.053 83.6826C25.7891 83.6826 26.3315 83.5228 26.6802 83.2031C27.0289 82.8835 27.2032 82.4283 27.2032 81.8375C27.2032 80.588 26.4865 79.9633 25.053 79.9633H23.1062V83.6826H25.053ZM35.5295 89L33.1178 84.8594H31.5196V89H30.1975V78.8736H33.4665C34.2316 78.8736 34.8757 79.0044 35.3987 79.2659C35.9315 79.5274 36.3286 79.8809 36.5901 80.3265C36.8516 80.772 36.9824 81.2805 36.9824 81.852C36.9824 82.5493 36.779 83.1644 36.3722 83.6971C35.975 84.2298 35.3745 84.5833 34.5706 84.7577L37.1131 89H35.5295ZM31.5196 83.7988H33.4665C34.1832 83.7988 34.7208 83.6245 35.0791 83.2758C35.4375 82.9174 35.6167 82.4428 35.6167 81.852C35.6167 81.2515 35.4375 80.7866 35.0791 80.4572C34.7304 80.1279 34.1929 79.9633 33.4665 79.9633H31.5196V83.7988ZM43.6277 89.1017C42.6882 89.1017 41.831 88.8838 41.0561 88.4479C40.2813 88.0024 39.6662 87.3873 39.211 86.6028C38.7655 85.8086 38.5427 84.9175 38.5427 83.9296C38.5427 82.9416 38.7655 82.0554 39.211 81.2708C39.6662 80.4766 40.2813 79.8616 41.0561 79.4257C41.831 78.9802 42.6882 78.7574 43.6277 78.7574C44.5769 78.7574 45.4389 78.9802 46.2137 79.4257C46.9886 79.8616 47.5988 80.4718 48.0443 81.2563C48.4899 82.0408 48.7126 82.9319 48.7126 83.9296C48.7126 84.9272 48.4899 85.8183 48.0443 86.6028C47.5988 87.3873 46.9886 88.0024 46.2137 88.4479C45.4389 88.8838 44.5769 89.1017 43.6277 89.1017ZM43.6277 87.9539C44.3347 87.9539 44.9691 87.7893 45.5309 87.46C46.1024 87.1307 46.5479 86.6609 46.8675 86.0507C47.1968 85.4405 47.3615 84.7335 47.3615 83.9296C47.3615 83.116 47.1968 82.4089 46.8675 81.8084C46.5479 81.1982 46.1072 80.7284 45.5454 80.3991C44.9837 80.0698 44.3444 79.9052 43.6277 79.9052C42.9109 79.9052 42.2717 80.0698 41.7099 80.3991C41.1481 80.7284 40.7026 81.1982 40.3733 81.8084C40.0537 82.4089 39.8938 83.116 39.8938 83.9296C39.8938 84.7335 40.0537 85.4405 40.3733 86.0507C40.7026 86.6609 41.1481 87.1307 41.7099 87.46C42.2814 87.7893 42.9206 87.9539 43.6277 87.9539ZM58.8264 78.8736L55.0054 89H53.4799L49.6589 78.8736H51.0682L54.2499 87.6053L57.4317 78.8736H58.8264ZM61.5982 78.8736V89H60.2761V78.8736H61.5982ZM67.0041 78.8736C68.1083 78.8736 69.0623 79.0819 69.8662 79.4984C70.6798 79.9052 71.2997 80.4911 71.7259 81.2563C72.1617 82.0215 72.3797 82.9222 72.3797 83.9586C72.3797 84.995 72.1617 85.8957 71.7259 86.6609C71.2997 87.4164 70.6798 87.9975 69.8662 88.4043C69.0623 88.8014 68.1083 89 67.0041 89H63.8514V78.8736H67.0041ZM67.0041 87.9104C68.3117 87.9104 69.3093 87.5665 69.997 86.8788C70.6847 86.1815 71.0285 85.2081 71.0285 83.9586C71.0285 82.6995 70.6798 81.7164 69.9825 81.0093C69.2948 80.3023 68.302 79.9487 67.0041 79.9487H65.1735V87.9104H67.0041ZM75.4456 79.9487V83.3339H79.1359V84.4235H75.4456V87.9104H79.5717V89H74.1236V78.8591H79.5717V79.9487H75.4456ZM84.7249 78.8736C85.8291 78.8736 86.7831 79.0819 87.587 79.4984C88.4006 79.9052 89.0205 80.4911 89.4467 81.2563C89.8825 82.0215 90.1005 82.9222 90.1005 83.9586C90.1005 84.995 89.8825 85.8957 89.4467 86.6609C89.0205 87.4164 88.4006 87.9975 87.587 88.4043C86.7831 88.8014 85.8291 89 84.7249 89H81.5722V78.8736H84.7249ZM84.7249 87.9104C86.0325 87.9104 87.0301 87.5665 87.7178 86.8788C88.4055 86.1815 88.7493 85.2081 88.7493 83.9586C88.7493 82.6995 88.4006 81.7164 87.7033 81.0093C87.0156 80.3023 86.0228 79.9487 84.7249 79.9487H82.8943V87.9104H84.7249ZM101.95 78.8736V79.9487H99.19V89H97.8679V79.9487H95.0929V78.8736H101.95ZM108.169 89.1017C107.229 89.1017 106.372 88.8838 105.597 88.4479C104.822 88.0024 104.207 87.3873 103.752 86.6028C103.307 85.8086 103.084 84.9175 103.084 83.9296C103.084 82.9416 103.307 82.0554 103.752 81.2708C104.207 80.4766 104.822 79.8616 105.597 79.4257C106.372 78.9802 107.229 78.7574 108.169 78.7574C109.118 78.7574 109.98 78.9802 110.755 79.4257C111.53 79.8616 112.14 80.4718 112.585 81.2563C113.031 82.0408 113.254 82.9319 113.254 83.9296C113.254 84.9272 113.031 85.8183 112.585 86.6028C112.14 87.3873 111.53 88.0024 110.755 88.4479C109.98 88.8838 109.118 89.1017 108.169 89.1017ZM108.169 87.9539C108.876 87.9539 109.51 87.7893 110.072 87.46C110.644 87.1307 111.089 86.6609 111.409 86.0507C111.738 85.4405 111.903 84.7335 111.903 83.9296C111.903 83.116 111.738 82.4089 111.409 81.8084C111.089 81.1982 110.648 80.7284 110.087 80.3991C109.525 80.0698 108.886 79.9052 108.169 79.9052C107.452 79.9052 106.813 80.0698 106.251 80.3991C105.689 80.7284 105.244 81.1982 104.914 81.8084C104.595 82.4089 104.435 83.116 104.435 83.9296C104.435 84.7335 104.595 85.4405 104.914 86.0507C105.244 86.6609 105.689 87.1307 106.251 87.46C106.823 87.7893 107.462 87.9539 108.169 87.9539ZM120.165 78.8736V85.2807C120.165 86.1815 120.383 86.8498 120.819 87.2856C121.265 87.7215 121.88 87.9394 122.664 87.9394C123.439 87.9394 124.045 87.7215 124.48 87.2856C124.926 86.8498 125.149 86.1815 125.149 85.2807V78.8736H126.471V85.2662C126.471 86.1088 126.301 86.8207 125.962 87.4019C125.623 87.9733 125.163 88.3995 124.582 88.6804C124.011 88.9613 123.367 89.1017 122.65 89.1017C121.933 89.1017 121.284 88.9613 120.703 88.6804C120.132 88.3995 119.676 87.9733 119.337 87.4019C119.008 86.8207 118.843 86.1088 118.843 85.2662V78.8736H120.165ZM131.887 89.1017C131.219 89.1017 130.618 88.9855 130.086 88.753C129.563 88.5109 129.151 88.1816 128.851 87.7651C128.55 87.3389 128.395 86.8498 128.386 86.2977H129.795C129.843 86.7723 130.037 87.1743 130.376 87.5036C130.725 87.8232 131.229 87.983 131.887 87.983C132.517 87.983 133.011 87.828 133.369 87.5181C133.737 87.1985 133.921 86.7917 133.921 86.2977C133.921 85.9103 133.815 85.5955 133.602 85.3533C133.388 85.1112 133.122 84.9272 132.802 84.8013C132.483 84.6754 132.052 84.5398 131.509 84.3945C130.841 84.2201 130.304 84.0458 129.897 83.8714C129.5 83.6971 129.156 83.4259 128.865 83.0578C128.584 82.6801 128.444 82.1764 128.444 81.5469C128.444 80.9948 128.584 80.5057 128.865 80.0795C129.146 79.6533 129.538 79.324 130.042 79.0916C130.555 78.8591 131.141 78.7429 131.8 78.7429C132.749 78.7429 133.524 78.9802 134.125 79.4548C134.735 79.9294 135.079 80.5589 135.156 81.3435H133.703C133.655 80.9561 133.451 80.6171 133.093 80.3265C132.735 80.0262 132.26 79.8761 131.669 79.8761C131.117 79.8761 130.667 80.0214 130.318 80.312C129.969 80.5928 129.795 80.99 129.795 81.5033C129.795 81.8714 129.897 82.1716 130.1 82.4041C130.313 82.6365 130.57 82.8157 130.87 82.9416C131.18 83.0578 131.611 83.1934 132.163 83.3484C132.832 83.5324 133.369 83.7165 133.776 83.9005C134.183 84.0748 134.531 84.3509 134.822 84.7286C135.112 85.0967 135.258 85.6003 135.258 86.2396C135.258 86.7336 135.127 87.1985 134.865 87.6343C134.604 88.0702 134.217 88.4237 133.703 88.6949C133.19 88.9661 132.585 89.1017 131.887 89.1017ZM138.525 79.9487V83.3339H142.216V84.4235H138.525V87.9104H142.652V89H137.203V78.8591H142.652V79.9487H138.525ZM149.984 89L147.572 84.8594H145.974V89H144.652V78.8736H147.921C148.686 78.8736 149.33 79.0044 149.853 79.2659C150.386 79.5274 150.783 79.8809 151.045 80.3265C151.306 80.772 151.437 81.2805 151.437 81.852C151.437 82.5493 151.233 83.1644 150.827 83.6971C150.43 84.2298 149.829 84.5833 149.025 84.7577L151.568 89H149.984ZM145.974 83.7988H147.921C148.638 83.7988 149.175 83.6245 149.534 83.2758C149.892 82.9174 150.071 82.4428 150.071 81.852C150.071 81.2515 149.892 80.7866 149.534 80.4572C149.185 80.1279 148.647 79.9633 147.921 79.9633H145.974V83.7988ZM156.702 89.1017C156.034 89.1017 155.433 88.9855 154.9 88.753C154.377 88.5109 153.966 88.1816 153.665 87.7651C153.365 87.3389 153.21 86.8498 153.201 86.2977H154.61C154.658 86.7723 154.852 87.1743 155.191 87.5036C155.54 87.8232 156.043 87.983 156.702 87.983C157.332 87.983 157.825 87.828 158.184 87.5181C158.552 87.1985 158.736 86.7917 158.736 86.2977C158.736 85.9103 158.629 85.5955 158.416 85.3533C158.203 85.1112 157.937 84.9272 157.617 84.8013C157.298 84.6754 156.867 84.5398 156.324 84.3945C155.656 84.2201 155.118 84.0458 154.712 83.8714C154.314 83.6971 153.971 83.4259 153.68 83.0578C153.399 82.6801 153.259 82.1764 153.259 81.5469C153.259 80.9948 153.399 80.5057 153.68 80.0795C153.961 79.6533 154.353 79.324 154.857 79.0916C155.37 78.8591 155.956 78.7429 156.615 78.7429C157.564 78.7429 158.339 78.9802 158.939 79.4548C159.55 79.9294 159.893 80.5589 159.971 81.3435H158.518C158.47 80.9561 158.266 80.6171 157.908 80.3265C157.549 80.0262 157.075 79.8761 156.484 79.8761C155.932 79.8761 155.482 80.0214 155.133 80.312C154.784 80.5928 154.61 80.99 154.61 81.5033C154.61 81.8714 154.712 82.1716 154.915 82.4041C155.128 82.6365 155.385 82.8157 155.685 82.9416C155.995 83.0578 156.426 83.1934 156.978 83.3484C157.646 83.5324 158.184 83.7165 158.591 83.9005C158.997 84.0748 159.346 84.3509 159.637 84.7286C159.927 85.0967 160.073 85.6003 160.073 86.2396C160.073 86.7336 159.942 87.1985 159.68 87.6343C159.419 88.0702 159.031 88.4237 158.518 88.6949C158.005 88.9661 157.399 89.1017 156.702 89.1017ZM170.482 89.1017C169.543 89.1017 168.686 88.8838 167.911 88.4479C167.136 88.0024 166.521 87.3873 166.066 86.6028C165.62 85.8086 165.397 84.9175 165.397 83.9296C165.397 82.9416 165.62 82.0554 166.066 81.2708C166.521 80.4766 167.136 79.8616 167.911 79.4257C168.686 78.9802 169.543 78.7574 170.482 78.7574C171.432 78.7574 172.294 78.9802 173.069 79.4257C173.843 79.8616 174.454 80.4718 174.899 81.2563C175.345 82.0408 175.567 82.9319 175.567 83.9296C175.567 84.9272 175.345 85.8183 174.899 86.6028C174.454 87.3873 173.843 88.0024 173.069 88.4479C172.294 88.8838 171.432 89.1017 170.482 89.1017ZM170.482 87.9539C171.19 87.9539 171.824 87.7893 172.386 87.46C172.957 87.1307 173.403 86.6609 173.722 86.0507C174.052 85.4405 174.216 84.7335 174.216 83.9296C174.216 83.116 174.052 82.4089 173.722 81.8084C173.403 81.1982 172.962 80.7284 172.4 80.3991C171.838 80.0698 171.199 79.9052 170.482 79.9052C169.766 79.9052 169.126 80.0698 168.565 80.3991C168.003 80.7284 167.557 81.1982 167.228 81.8084C166.908 82.4089 166.749 83.116 166.749 83.9296C166.749 84.7335 166.908 85.4405 167.228 86.0507C167.557 86.6609 168.003 87.1307 168.565 87.46C169.136 87.7893 169.775 87.9539 170.482 87.9539ZM185.274 89H183.952L178.635 80.9367V89H177.313V78.8591H178.635L183.952 86.9079V78.8591H185.274V89ZM187.034 83.9296C187.034 82.9416 187.257 82.0554 187.702 81.2708C188.148 80.4766 188.753 79.8567 189.519 79.4112C190.293 78.9657 191.151 78.7429 192.09 78.7429C193.194 78.7429 194.158 79.0092 194.981 79.5419C195.805 80.0747 196.405 80.8301 196.783 81.8084H195.199C194.918 81.1982 194.511 80.7284 193.979 80.3991C193.456 80.0698 192.826 79.9052 192.09 79.9052C191.383 79.9052 190.749 80.0698 190.187 80.3991C189.625 80.7284 189.184 81.1982 188.865 81.8084C188.545 82.4089 188.385 83.116 188.385 83.9296C188.385 84.7335 188.545 85.4405 188.865 86.0507C189.184 86.6512 189.625 87.1161 190.187 87.4455C190.749 87.7748 191.383 87.9394 192.09 87.9394C192.826 87.9394 193.456 87.7796 193.979 87.46C194.511 87.1307 194.918 86.6609 195.199 86.0507H196.783C196.405 87.0193 195.805 87.7699 194.981 88.3026C194.158 88.8257 193.194 89.0872 192.09 89.0872C191.151 89.0872 190.293 88.8692 189.519 88.4334C188.753 87.9878 188.148 87.3728 187.702 86.5883C187.257 85.8037 187.034 84.9175 187.034 83.9296ZM200.073 79.9487V83.3339H203.763V84.4235H200.073V87.9104H204.199V89H198.751V78.8591H204.199V79.9487H200.073ZM216.059 86.7481H211.642L210.828 89H209.434L213.095 78.9318H214.62L218.267 89H216.872L216.059 86.7481ZM215.681 85.673L213.85 80.5589L212.02 85.673H215.681ZM234.008 78.9463V89H232.685V81.5033L229.344 89H228.414L225.058 81.4888V89H223.736V78.9463H225.16L228.879 87.2566L232.598 78.9463H234.008ZM240.841 89.1017C239.901 89.1017 239.044 88.8838 238.269 88.4479C237.494 88.0024 236.879 87.3873 236.424 86.6028C235.978 85.8086 235.756 84.9175 235.756 83.9296C235.756 82.9416 235.978 82.0554 236.424 81.2708C236.879 80.4766 237.494 79.8616 238.269 79.4257C239.044 78.9802 239.901 78.7574 240.841 78.7574C241.79 78.7574 242.652 78.9802 243.427 79.4257C244.202 79.8616 244.812 80.4718 245.257 81.2563C245.703 82.0408 245.926 82.9319 245.926 83.9296C245.926 84.9272 245.703 85.8183 245.257 86.6028C244.812 87.3873 244.202 88.0024 243.427 88.4479C242.652 88.8838 241.79 89.1017 240.841 89.1017ZM240.841 87.9539C241.548 87.9539 242.182 87.7893 242.744 87.46C243.315 87.1307 243.761 86.6609 244.081 86.0507C244.41 85.4405 244.574 84.7335 244.574 83.9296C244.574 83.116 244.41 82.4089 244.081 81.8084C243.761 81.1982 243.32 80.7284 242.758 80.3991C242.197 80.0698 241.557 79.9052 240.841 79.9052C240.124 79.9052 239.485 80.0698 238.923 80.3991C238.361 80.7284 237.916 81.1982 237.586 81.8084C237.267 82.4089 237.107 83.116 237.107 83.9296C237.107 84.7335 237.267 85.4405 237.586 86.0507C237.916 86.6609 238.361 87.1307 238.923 87.46C239.494 87.7893 240.134 87.9539 240.841 87.9539ZM255.633 89H254.311L248.993 80.9367V89H247.671V78.8591H248.993L254.311 86.9079V78.8591H255.633V89ZM264.119 78.8736V79.9487H261.359V89H260.037V79.9487H257.262V78.8736H264.119ZM273.548 78.8736V89H272.226V84.409H267.069V89H265.746V78.8736H267.069V83.3194H272.226V78.8736H273.548ZM277.52 78.8736L277.36 86.1379H276.256L276.096 78.8736H277.52ZM276.866 89.0872C276.615 89.0872 276.401 89 276.227 88.8257C276.053 88.6513 275.966 88.4382 275.966 88.1864C275.966 87.9346 276.053 87.7215 276.227 87.5472C276.401 87.3728 276.615 87.2856 276.866 87.2856C277.108 87.2856 277.312 87.3728 277.477 87.5472C277.651 87.7215 277.738 87.9346 277.738 88.1864C277.738 88.4382 277.651 88.6513 277.477 88.8257C277.312 89 277.108 89.0872 276.866 89.0872Z" fill="#FD4525"/>
</svg>
