<svg width="300" height="150" viewBox="0 0 300 150" fill="none" xmlns="http://www.w3.org/2000/svg">
<path d="M80.015 44.9237C80.0104 45.6533 80.1397 46.3737 80.4029 47.0848C80.6661 47.7913 81.0332 48.4262 81.5042 48.9896C81.9798 49.5483 82.5224 49.9754 83.1319 50.271L82.3146 51.3238C81.6497 50.9775 81.0609 50.4765 80.5484 49.8208C80.0404 49.1651 79.6479 48.417 79.3709 47.5766C79.0892 48.4724 78.6828 49.2713 78.1518 49.9731C77.6254 50.6704 77.0136 51.1991 76.3163 51.5593L75.499 50.4926C76.1224 50.1925 76.6765 49.7492 77.1613 49.1627C77.6508 48.5763 78.0294 47.9114 78.2973 47.1679C78.5651 46.4245 78.699 45.6764 78.699 44.9237V42.8043H80.015V44.9237ZM85.3761 46.7108H87.3709V47.8329H85.3761V54.1775H84.0601V41.7653H85.3761V46.7108ZM97.719 44.8683H99.5338V45.9766H97.719V49.1627H96.403V41.7791H97.719V44.8683ZM97.719 54.0251H89.7675V49.7446H97.719V54.0251ZM91.0558 52.9584H96.4446V50.7697H91.0558V52.9584ZM94.1173 45.935H89.7952V47.4865C90.9634 47.4819 91.9562 47.4542 92.7736 47.4034C93.5909 47.3526 94.4267 47.2557 95.2809 47.1125L95.4195 48.1653C94.5098 48.3316 93.6117 48.4424 92.7251 48.4978C91.8431 48.5532 90.7603 48.5809 89.4766 48.5809H88.4792V44.9376H92.829V43.483H88.4653V42.4302H94.1173V45.935ZM111.558 47.9021H100.226V46.8493H111.558V47.9021ZM110.214 45.9489H101.709V42.1255H110.09V43.1921H103.025V44.896H110.214V45.9489ZM110.117 51.8918H102.886V53H110.464V54.039H101.598V50.9221H108.815V49.8969H101.584V48.8857H110.117V51.8918ZM123.167 54.1775H121.906V41.7653H123.167V54.1775ZM120.646 53.568H119.385V47.5835H117.986C117.949 48.387 117.815 49.0842 117.584 49.6753C117.353 50.2664 117.042 50.7212 116.649 51.0398C116.257 51.3538 115.806 51.5085 115.298 51.5039C114.763 51.5085 114.292 51.333 113.885 50.9775C113.484 50.6219 113.172 50.114 112.95 49.4537C112.733 48.7887 112.625 48.013 112.625 47.1264C112.625 46.2398 112.733 45.4663 112.95 44.806C113.172 44.1457 113.484 43.64 113.885 43.2891C114.292 42.9335 114.763 42.7581 115.298 42.7627C115.797 42.7581 116.24 42.9082 116.628 43.2129C117.016 43.5131 117.326 43.9471 117.556 44.5151C117.792 45.0784 117.933 45.7457 117.979 46.5168H119.385V42.0008H120.646V53.568ZM115.298 43.9956C114.998 43.9956 114.74 44.1203 114.523 44.3696C114.306 44.6144 114.137 44.9722 114.017 45.4432C113.902 45.9096 113.844 46.4707 113.844 47.1264C113.844 47.7821 113.902 48.3454 114.017 48.8164C114.137 49.2828 114.306 49.6407 114.523 49.89C114.74 50.1348 114.998 50.2571 115.298 50.2571C115.603 50.2571 115.866 50.1348 116.088 49.89C116.31 49.6407 116.481 49.2828 116.601 48.8164C116.721 48.3454 116.781 47.7821 116.781 47.1264C116.781 46.4707 116.721 45.9096 116.601 45.4432C116.481 44.9722 116.31 44.6144 116.088 44.3696C115.866 44.1203 115.603 43.9956 115.298 43.9956ZM135.413 54.1775H134.166V41.7653H135.413V54.1775ZM132.795 53.568H131.548V47.8052H129.124C128.348 49.3105 127.124 50.5527 125.453 51.5316L124.705 50.5896C125.997 49.8231 126.979 48.9226 127.648 47.8883C128.322 46.8539 128.715 45.6857 128.826 44.3835H125.286V43.303H130.135C130.126 44.5774 129.941 45.7272 129.581 46.7523H131.548V42.0839H132.795V53.568ZM145.068 44.3558C145.068 44.8914 145.193 45.4063 145.442 45.9004C145.696 46.3945 146.056 46.8331 146.523 47.2164C146.994 47.5951 147.543 47.8837 148.171 48.0822L147.493 49.1073C146.786 48.8718 146.167 48.5232 145.636 48.0614C145.11 47.5951 144.706 47.0479 144.424 46.4199C144.142 47.1033 143.732 47.699 143.191 48.2069C142.656 48.7148 142.021 49.0981 141.286 49.3567L140.608 48.3177C141.24 48.1053 141.792 47.7959 142.263 47.3896C142.734 46.9832 143.097 46.5191 143.351 45.9974C143.605 45.4709 143.734 44.9237 143.738 44.3558V43.8155H140.954V42.7488H147.797V43.8155H145.068V44.3558ZM150.762 50.8389H149.446V41.7791H150.762V50.8389ZM151.136 53.9143H142.644V49.9801H143.974V52.8476H151.136V53.9143ZM163.077 49.1489H161.761V46.0043H159.448V44.9237H161.761V41.7653H163.077V49.1489ZM158.921 49.4952C159.785 49.4952 160.53 49.5876 161.158 49.7723C161.791 49.957 162.276 50.2248 162.613 50.5757C162.95 50.9267 163.119 51.3469 163.119 51.8364C163.119 52.3258 162.95 52.7437 162.613 53.09C162.276 53.441 161.793 53.7088 161.165 53.8935C160.537 54.0782 159.789 54.1729 158.921 54.1775C158.053 54.1729 157.303 54.0782 156.67 53.8935C156.042 53.7088 155.56 53.441 155.223 53.09C154.885 52.7437 154.719 52.3258 154.724 51.8364C154.719 51.3469 154.885 50.9267 155.223 50.5757C155.56 50.2248 156.042 49.957 156.67 49.7723C157.303 49.5876 158.053 49.4952 158.921 49.4952ZM158.921 50.5203C158.007 50.5203 157.296 50.6358 156.788 50.8667C156.28 51.0929 156.026 51.4161 156.026 51.8364C156.026 52.1134 156.141 52.3512 156.372 52.5498C156.603 52.7437 156.936 52.8915 157.37 52.9931C157.804 53.0947 158.321 53.1431 158.921 53.1385C159.522 53.1431 160.039 53.0947 160.473 52.9931C160.907 52.8915 161.239 52.7437 161.47 52.5498C161.701 52.3512 161.816 52.1134 161.816 51.8364C161.816 51.4161 161.563 51.0929 161.055 50.8667C160.547 50.6358 159.836 50.5203 158.921 50.5203ZM157.176 43.954C157.176 44.4805 157.296 44.9907 157.536 45.4848C157.776 45.9789 158.122 46.4199 158.575 46.8077C159.027 47.191 159.558 47.4865 160.168 47.6943L159.489 48.7333C158.806 48.4932 158.21 48.1399 157.702 47.6736C157.199 47.2026 156.809 46.6554 156.532 46.032C156.259 46.7385 155.855 47.3572 155.319 47.8883C154.784 48.4147 154.151 48.8118 153.422 49.0796L152.729 48.0268C153.357 47.8098 153.904 47.4935 154.371 47.0779C154.842 46.6577 155.202 46.1774 155.451 45.6372C155.705 45.0969 155.832 44.5405 155.832 43.9679V43.6908H153.145V42.6242H159.836V43.6908H157.176V43.954ZM174.741 45.7688H176.542V46.8632H174.741V51.0606H173.425V41.7791H174.741V45.7688ZM172.4 44.2865H165.003V43.2198H168.05V41.7653H169.366V43.2198H172.4V44.2865ZM168.701 44.8822C169.292 44.8822 169.814 44.9792 170.267 45.1731C170.724 45.367 171.077 45.6418 171.327 45.9974C171.581 46.3483 171.707 46.757 171.707 47.2233C171.707 47.6897 171.581 48.0984 171.327 48.4493C171.077 48.8003 170.724 49.0727 170.267 49.2666C169.814 49.456 169.292 49.5506 168.701 49.5506C168.106 49.5506 167.579 49.456 167.122 49.2666C166.665 49.0727 166.309 48.8003 166.055 48.4493C165.806 48.0984 165.681 47.6897 165.681 47.2233C165.681 46.757 165.806 46.3483 166.055 45.9974C166.309 45.6418 166.665 45.367 167.122 45.1731C167.579 44.9792 168.106 44.8822 168.701 44.8822ZM168.701 45.8935C168.35 45.8935 168.041 45.9489 167.773 46.0597C167.51 46.1659 167.307 46.3206 167.164 46.5238C167.021 46.7223 166.951 46.9555 166.956 47.2233C166.951 47.4865 167.021 47.7174 167.164 47.916C167.307 48.1099 167.51 48.26 167.773 48.3662C168.041 48.4724 168.35 48.5255 168.701 48.5255C169.052 48.5255 169.359 48.4724 169.623 48.3662C169.89 48.26 170.098 48.1099 170.246 47.916C170.394 47.7174 170.47 47.4865 170.475 47.2233C170.47 46.9555 170.394 46.7223 170.246 46.5238C170.098 46.3206 169.89 46.1659 169.623 46.0597C169.359 45.9489 169.052 45.8935 168.701 45.8935ZM175.268 53.9143H166.873V50.3264H168.189V52.8476H175.268V53.9143ZM191.296 49.5922H190.049V46.129H188.608V49.1627H187.375V42.0008H188.608V45.0484H190.049V41.7653H191.296V49.5922ZM186.918 44.2173H180.643V43.1783H183.15V41.8623H184.452V43.1783H186.918V44.2173ZM183.787 44.7991C184.309 44.7991 184.773 44.8891 185.179 45.0692C185.59 45.2447 185.909 45.494 186.135 45.8173C186.362 46.1359 186.475 46.5076 186.475 46.9324C186.475 47.3572 186.362 47.7313 186.135 48.0545C185.909 48.3731 185.59 48.6225 185.179 48.8026C184.773 48.978 184.309 49.0658 183.787 49.0658C183.275 49.0658 182.815 48.978 182.409 48.8026C182.007 48.6225 181.693 48.3731 181.467 48.0545C181.241 47.7313 181.127 47.3572 181.127 46.9324C181.127 46.5076 181.241 46.1359 181.467 45.8173C181.693 45.494 182.007 45.2447 182.409 45.0692C182.815 44.8891 183.275 44.7991 183.787 44.7991ZM183.787 45.7688C183.496 45.7688 183.238 45.8173 183.011 45.9142C182.79 46.0112 182.617 46.1474 182.492 46.3229C182.367 46.4984 182.305 46.7015 182.305 46.9324C182.305 47.1633 182.367 47.3688 182.492 47.5489C182.617 47.729 182.792 47.8675 183.018 47.9645C183.245 48.0614 183.501 48.1099 183.787 48.1099C184.083 48.1099 184.344 48.0614 184.57 47.9645C184.796 47.8675 184.972 47.7313 185.096 47.5558C185.221 47.3757 185.283 47.1679 185.283 46.9324C185.283 46.5815 185.147 46.2998 184.875 46.0874C184.602 45.875 184.24 45.7688 183.787 45.7688ZM187.14 49.7723C188.017 49.7723 188.77 49.8577 189.398 50.0285C190.03 50.1994 190.515 50.4511 190.852 50.7835C191.189 51.1114 191.36 51.5085 191.365 51.9749C191.36 52.432 191.189 52.8245 190.852 53.1524C190.515 53.4802 190.03 53.7296 189.398 53.9004C188.765 54.0713 188.012 54.1544 187.14 54.1498C186.267 54.1544 185.514 54.0713 184.882 53.9004C184.249 53.7296 183.766 53.4802 183.434 53.1524C183.102 52.8245 182.938 52.432 182.942 51.9749C182.938 51.5085 183.102 51.1114 183.434 50.7835C183.766 50.4511 184.247 50.1994 184.875 50.0285C185.507 49.8577 186.262 49.7723 187.14 49.7723ZM187.14 50.7835C186.211 50.7835 185.496 50.8874 184.992 51.0952C184.489 51.2984 184.24 51.5916 184.244 51.9749C184.235 52.3489 184.484 52.6375 184.992 52.8407C185.505 53.0439 186.221 53.1431 187.14 53.1385C188.063 53.1431 188.777 53.0439 189.28 52.8407C189.783 52.6375 190.04 52.3489 190.049 51.9749C190.044 51.587 189.79 51.2915 189.287 51.0883C188.788 50.8851 188.072 50.7835 187.14 50.7835ZM204.29 49.1627H192.972V48.0961H197.973V46.7523H194.454V42.0562H195.756V43.3999H201.505V42.0562H202.821V46.7523H199.275V48.0961H204.29V49.1627ZM202.904 54.1775H201.574V51.3238H194.232V50.271H202.904V54.1775ZM201.505 45.6995V44.3835H195.756V45.6995H201.505ZM212.144 43.8571C212.144 44.6421 212.123 45.4063 212.082 46.1497C212.04 46.8932 211.941 47.7497 211.784 48.7194L210.482 48.6225C210.62 47.7359 210.713 46.944 210.759 46.2467C210.805 45.5448 210.83 44.8499 210.835 44.1618H205.8V43.0952H212.144V43.8571ZM208.958 50.361C210.44 50.3056 211.742 50.2063 212.865 50.0632L212.934 51.0467C211.004 51.3515 208.639 51.5039 205.841 51.5039H205.259L205.107 50.4372C206.238 50.428 207.088 50.4164 207.656 50.4026V46.6415H208.958V50.361ZM214.901 46.8909H216.799V48.013H214.901V54.1775H213.571V41.7653H214.901V46.8909ZM225.36 43.6216C225.36 44.2034 225.48 44.7552 225.72 45.277C225.96 45.7942 226.306 46.249 226.759 46.6415C227.211 47.034 227.747 47.3295 228.366 47.5281L227.646 48.5532C226.971 48.3085 226.385 47.9575 225.886 47.5004C225.392 47.0386 225.009 46.4937 224.736 45.8657C224.464 46.5815 224.06 47.2049 223.524 47.7359C222.993 48.2623 222.358 48.6594 221.62 48.9272L220.913 47.8744C221.564 47.6528 222.125 47.3318 222.596 46.9116C223.067 46.4914 223.427 46.0043 223.677 45.4502C223.926 44.8914 224.053 44.3004 224.058 43.677V42.4579H225.36V43.6216ZM231.303 49.0935H229.987V45.367H227.368V44.2865H229.987V41.7653H231.303V49.0935ZM227.147 49.4398C228.015 49.4398 228.763 49.5322 229.391 49.7169C230.019 49.9016 230.502 50.1717 230.839 50.5273C231.176 50.8828 231.344 51.3099 231.344 51.8086C231.344 52.3027 231.176 52.7253 230.839 53.0762C230.502 53.4317 230.017 53.6996 229.384 53.8797C228.756 54.0644 228.01 54.1544 227.147 54.1498C226.279 54.1544 225.528 54.0644 224.896 53.8797C224.268 53.6996 223.785 53.4317 223.448 53.0762C223.111 52.7253 222.945 52.3027 222.949 51.8086C222.945 51.3099 223.111 50.8828 223.448 50.5273C223.785 50.1717 224.268 49.9016 224.896 49.7169C225.528 49.5322 226.279 49.4398 227.147 49.4398ZM227.147 50.4649C226.237 50.4649 225.526 50.5827 225.014 50.8182C224.506 51.049 224.252 51.3792 224.252 51.8086C224.252 52.2242 224.506 52.5452 225.014 52.7714C225.526 52.9977 226.237 53.1108 227.147 53.1108C228.057 53.1108 228.765 52.9977 229.273 52.7714C229.786 52.5452 230.042 52.2242 230.042 51.8086C230.042 51.3792 229.786 51.049 229.273 50.8182C228.765 50.5827 228.057 50.4649 227.147 50.4649ZM238.008 44.1618C238.008 44.5543 238.125 44.9237 238.361 45.2701C238.596 45.6118 238.933 45.9096 239.372 46.1636C239.815 46.4176 240.335 46.6092 240.93 46.7385L240.39 47.7636C239.684 47.6066 239.072 47.3572 238.555 47.0155C238.042 46.6738 237.647 46.2629 237.37 45.7826C237.102 46.3044 236.705 46.7523 236.179 47.1264C235.653 47.4958 235.025 47.7636 234.295 47.9298L233.741 46.9047C234.341 46.78 234.863 46.5815 235.306 46.309C235.754 46.032 236.096 45.7087 236.331 45.3393C236.571 44.9653 236.692 44.5728 236.692 44.1618H234.018V43.1229H236.692V41.793H238.008V43.1229H240.667V44.1618H238.008ZM243.535 54.1775H242.233V41.7791H243.535V54.1775ZM233.201 48.6917C234.826 48.6917 236.294 48.671 237.606 48.6294C238.922 48.5832 240.178 48.4839 241.374 48.3316L241.471 49.2874C240.413 49.4629 239.264 49.5876 238.021 49.6614V53.8035H236.705V49.7307C235.796 49.7677 234.687 49.7861 233.381 49.7861L233.201 48.6917ZM255.227 44.6883H257.028V45.7826H255.227V48.7749H253.911V41.7653H255.227V44.6883ZM251.805 42.541C251.8 43.5939 251.567 44.5428 251.105 45.3878C250.648 46.2329 249.983 46.9555 249.111 47.5558C248.238 48.1561 247.183 48.6225 245.945 48.9549L245.419 47.9021C246.398 47.6435 247.243 47.3041 247.954 46.8839C248.67 46.4591 249.233 45.972 249.644 45.4225C250.055 44.8683 250.3 44.268 250.378 43.6216H246.001V42.541H251.805ZM255.227 54.0113H247.275V49.3013H255.227V54.0113ZM248.591 52.9584H253.925V50.3957H248.591V52.9584ZM263.386 41.9731C264.319 41.9731 265.115 42.0562 265.776 42.2224C266.441 42.384 266.946 42.6242 267.293 42.9428C267.644 43.2614 267.819 43.6493 267.819 44.1064C267.819 44.5636 267.644 44.9538 267.293 45.277C266.946 45.5956 266.441 45.838 265.776 46.0043C265.115 46.1705 264.319 46.2536 263.386 46.2536C262.453 46.2536 261.654 46.1705 260.99 46.0043C260.329 45.838 259.824 45.5956 259.473 45.277C259.126 44.9538 258.953 44.5636 258.953 44.1064C258.953 43.6493 259.126 43.2614 259.473 42.9428C259.824 42.6242 260.329 42.384 260.99 42.2224C261.654 42.0562 262.453 41.9731 263.386 41.9731ZM263.386 42.9428C262.398 42.9428 261.638 43.0444 261.107 43.2475C260.576 43.4507 260.315 43.737 260.325 44.1064C260.32 44.4851 260.579 44.7737 261.1 44.9722C261.627 45.1708 262.389 45.2701 263.386 45.2701C264.379 45.2701 265.138 45.1708 265.665 44.9722C266.196 44.7737 266.461 44.4851 266.461 44.1064C266.461 43.737 266.194 43.4507 265.658 43.2475C265.127 43.0444 264.37 42.9428 263.386 42.9428ZM269.052 48.0684H257.734V47.0155H269.052V48.0684ZM267.625 51.9333H260.394V53.0416H267.971V54.0528H259.106V50.9775H266.323V50.0078H259.092V49.0242H267.625V51.9333ZM38.4424 66.4147H29.7289V60.8458H31.045V65.3342H38.4424V66.4147ZM39.7307 70.5429H28.3713V69.4346H39.7307V70.5429ZM50.9377 72.1775H49.6079V59.7653H50.9377V72.1775ZM44.51 61.0952C44.5008 62.7621 44.2791 64.2836 43.8451 65.6597C43.411 67.0311 42.6722 68.271 41.6286 69.3792L40.6035 68.6173C41.4624 67.7215 42.0996 66.7472 42.5152 65.6943C42.9308 64.6369 43.1755 63.464 43.2494 62.1757H41.1022V61.0952H44.51ZM47.9871 61.0952C47.9871 62.9053 47.7978 64.5699 47.4191 66.0891C47.0451 67.6037 46.3524 68.9729 45.3412 70.1965L44.2329 69.49C45.0826 68.4834 45.6967 67.3752 46.0754 66.1653C46.4586 64.9509 46.678 63.621 46.7334 62.1757H44.9394V61.0952H47.9871ZM63.5578 72.1775H62.311V59.7653H63.5578V72.1775ZM60.9396 71.568H59.6928V65.8052H57.2685C56.4928 67.3105 55.2691 68.5527 53.5975 69.5316L52.8495 68.5896C54.1424 67.8231 55.1236 66.9226 55.7932 65.8883C56.4674 64.8539 56.8599 63.6857 56.9707 62.3835H53.4313V61.303H58.2798C58.2706 62.5774 58.0859 63.7272 57.7257 64.7523H59.6928V60.0839H60.9396V71.568ZM74.7509 62.8822H68.5864V61.8155H71.0245V60.1255H72.3266V61.8155H74.7509V62.8822ZM71.6756 63.6302C72.1974 63.6302 72.6614 63.7526 73.0678 63.9974C73.4741 64.2375 73.7927 64.5746 74.0236 65.0086C74.2545 65.4381 74.3723 65.9298 74.3769 66.4839C74.3723 67.0427 74.2545 67.5414 74.0236 67.9801C73.7927 68.4141 73.4741 68.7535 73.0678 68.9983C72.6614 69.243 72.1974 69.3654 71.6756 69.3654C71.163 69.3654 70.7012 69.243 70.2903 68.9983C69.8793 68.7535 69.5584 68.4118 69.3275 67.9731C69.0966 67.5345 68.9835 67.0381 68.9881 66.4839C68.9835 65.9345 69.0966 65.4427 69.3275 65.0086C69.5584 64.5746 69.8793 64.2375 70.2903 63.9974C70.7012 63.7526 71.163 63.6302 71.6756 63.6302ZM71.6756 64.7246C71.38 64.7246 71.1168 64.8008 70.8859 64.9532C70.6551 65.101 70.475 65.3088 70.3457 65.5766C70.2164 65.8444 70.1517 66.1469 70.1517 66.4839C70.1517 66.8303 70.2164 67.1373 70.3457 67.4052C70.475 67.6684 70.6551 67.8739 70.8859 68.0216C71.1168 68.1694 71.38 68.2433 71.6756 68.2433C71.9711 68.2433 72.2343 68.1694 72.4652 68.0216C72.7007 67.8739 72.8831 67.6684 73.0124 67.4052C73.1463 67.1373 73.2132 66.8303 73.2132 66.4839C73.2132 66.1469 73.1463 65.8444 73.0124 65.5766C72.8831 65.3088 72.7007 65.101 72.4652 64.9532C72.2297 64.8008 71.9665 64.7246 71.6756 64.7246ZM79.2393 72.1775H77.9925V66.013H76.5656V71.5957H75.3189V60.0423H76.5656V64.9324H77.9925V59.7653H79.2393V72.1775ZM92.1917 67.8277H87.1493V72.1636H85.861V67.8277H80.8739V66.761H92.1917V67.8277ZM91.1251 61.5523H87.2878C87.2924 62.0556 87.4864 62.5359 87.8696 62.993C88.2575 63.4455 88.777 63.8311 89.4281 64.1497C90.0792 64.4637 90.7926 64.6738 91.5684 64.78L91.0835 65.819C90.4047 65.7128 89.7652 65.535 89.1649 65.2857C88.5646 65.0317 88.0382 64.7177 87.5856 64.3437C87.1331 63.965 86.7822 63.5425 86.5328 63.0761C86.1588 63.778 85.5654 64.3714 84.7527 64.8562C83.9446 65.3365 83.0303 65.6574 82.0098 65.819L81.5111 64.78C82.2777 64.6738 82.9842 64.4637 83.6306 64.1497C84.2817 63.8311 84.8012 63.4455 85.1891 62.993C85.577 62.5359 85.7778 62.0556 85.7917 61.5523H81.9267V60.4995H91.1251V61.5523ZM103.177 64.4476H94.6299V60.2086H95.932V63.3947H103.177V64.4476ZM104.479 67.0658H93.1199V66.013H104.479V67.0658ZM103.26 71.8866H94.5329V68.2433H95.8489V70.8061H103.26V71.8866ZM118.734 64.5307H115.16V65.9714H120.175V67.0381H108.857V65.9714H113.858V64.5307H110.297V60.2778H118.734V64.5307ZM111.586 63.4779H117.432V61.3168H111.586V63.4779ZM118.789 72.1775H117.459V69.2545H110.117V68.2156H118.789V72.1775ZM132.476 70.7091H121.117V69.6286H124.164V66.8718H122.114V65.8052H123.97V61.9402H122.086V60.8597H131.437V61.9402H129.539V65.8052H131.395V66.8718H129.359V69.6286H132.476V70.7091ZM128.251 65.8052V61.9402H125.272V65.8052H128.251ZM128.043 69.6286V66.8718H125.48V69.6286H128.043ZM147.188 66.1515H145.872V62.9653H143.254V61.8986H145.872V59.7653H147.188V66.1515ZM147.188 69.8225H140.386V70.9723H147.617V72.0251H139.098V68.8251H145.886V67.7723H139.07V66.7333H147.188V69.8225ZM141.203 61.2475C141.203 61.774 141.323 62.2796 141.564 62.7644C141.808 63.2447 142.157 63.6718 142.609 64.0458C143.062 64.4152 143.595 64.6969 144.209 64.8909L143.517 65.916C142.843 65.6805 142.252 65.3388 141.744 64.8909C141.24 64.443 140.85 63.9212 140.573 63.3255C140.301 63.9997 139.901 64.5861 139.375 65.0848C138.848 65.5835 138.225 65.9575 137.505 66.2069L136.798 65.1541C137.435 64.9509 137.985 64.6531 138.447 64.2606C138.913 63.8681 139.271 63.4132 139.52 62.896C139.77 62.3789 139.897 61.8294 139.901 61.2475V60.167H141.203V61.2475ZM159.766 72.1775H158.52V59.7653H159.766V72.1775ZM157.231 71.568H155.984V67.3428H153.865V66.2623H155.984V64.2398H154.066C153.433 66.447 152.013 68.2109 149.806 69.5316L149.03 68.5896C150.323 67.8231 151.304 66.9226 151.974 65.8883C152.648 64.8539 153.043 63.6857 153.158 62.3835H149.64V61.303H154.461C154.461 61.9494 154.41 62.5682 154.308 63.1592H155.984V60.0839H157.231V71.568ZM169.297 62.9237C169.297 63.6764 169.429 64.4129 169.692 65.1333C169.96 65.8536 170.334 66.4932 170.814 67.0519C171.294 67.6107 171.846 68.0309 172.469 68.3125L171.666 69.3654C170.969 69.019 170.359 68.5134 169.837 67.8485C169.32 67.1835 168.923 66.4193 168.646 65.5558C168.369 66.4655 167.965 67.2759 167.434 67.987C166.903 68.6935 166.286 69.2314 165.584 69.6009L164.753 68.5342C165.381 68.234 165.938 67.7907 166.423 67.2043C166.912 66.6132 167.291 65.9437 167.559 65.1956C167.831 64.443 167.967 63.6857 167.967 62.9237V60.8043H169.297V62.9237ZM175.171 72.2052H173.869V64.9601H171.098V63.8935H173.869V59.7653H175.171V72.2052ZM187.361 72.2052H186.045V59.7653H187.361V72.2052ZM179.091 63.9904H182.43V60.8043H183.732V69.2268H177.775V60.8043H179.091V63.9904ZM182.43 68.1463V65.0294H179.091V68.1463H182.43ZM195.645 61.5246C195.645 62.1803 195.855 62.8175 196.276 63.4363C196.7 64.0551 197.261 64.5838 197.959 65.0225C198.656 65.4565 199.399 65.7451 200.189 65.8883L199.58 66.9827C198.919 66.8395 198.287 66.604 197.682 66.2762C197.077 65.9483 196.537 65.5489 196.061 65.0779C195.59 64.6023 195.223 64.0782 194.96 63.5056C194.692 64.0735 194.322 64.5953 193.851 65.071C193.385 65.542 192.849 65.9414 192.244 66.2692C191.64 66.5971 191.005 66.8349 190.34 66.9827L189.758 65.8883C190.538 65.7405 191.275 65.4496 191.967 65.0155C192.66 64.5769 193.214 64.0505 193.63 63.4363C194.05 62.8175 194.26 62.1803 194.26 61.5246V60.5826H195.645V61.5246ZM200.702 70.5429H189.342V69.4485H200.702V70.5429ZM212.948 66.4701H201.588V65.4588H212.948V66.4701ZM211.548 70.0719H204.262V71.097H211.936V72.0251H202.946V69.1991H210.246V68.2848H202.932V67.3428H211.548V70.0719ZM211.521 62.7714H204.345V63.7134H211.729V64.6415H203.043V61.8986H210.205V61.012H203.015V60.0839H211.521V62.7714ZM227.978 72.1775H226.717V59.7653H227.978V72.1775ZM225.457 71.5541H224.21V65.2372H222.284V64.1567H224.21V60.0285H225.457V71.5541ZM221.065 63.2285C221.065 63.9489 221.162 64.6484 221.356 65.3272C221.555 66.0014 221.848 66.6132 222.236 67.1627C222.628 67.7122 223.106 68.1509 223.67 68.4788L222.88 69.4485C222.303 69.1022 221.809 68.6312 221.398 68.0355C220.987 67.4398 220.671 66.7587 220.449 65.9922C220.223 66.8233 219.897 67.5645 219.472 68.2156C219.048 68.862 218.54 69.37 217.949 69.7394L217.145 68.7558C217.713 68.4095 218.196 67.9454 218.593 67.3636C218.994 66.7818 219.297 66.1353 219.5 65.4242C219.703 64.7085 219.805 63.9766 219.805 63.2285V62.2311H217.519V61.1644H223.199V62.2311H221.065V63.2285ZM235.182 67.5645C236.077 67.5645 236.853 67.6568 237.509 67.8415C238.169 68.0216 238.677 68.2848 239.033 68.6312C239.388 68.9729 239.568 69.3838 239.573 69.8641C239.568 70.3397 239.386 70.7506 239.026 71.097C238.67 71.4433 238.162 71.7065 237.502 71.8866C236.846 72.0667 236.073 72.1544 235.182 72.1498C234.3 72.1544 233.528 72.0644 232.868 71.8797C232.212 71.6996 231.707 71.4364 231.351 71.09C230.996 70.7483 230.818 70.3397 230.818 69.8641C230.818 69.3838 230.996 68.9729 231.351 68.6312C231.707 68.2848 232.212 68.0216 232.868 67.8415C233.524 67.6568 234.295 67.5645 235.182 67.5645ZM235.182 68.5619C234.558 68.5619 234.016 68.615 233.554 68.7212C233.092 68.8228 232.739 68.9729 232.494 69.1714C232.249 69.3654 232.129 69.5962 232.134 69.8641C232.129 70.1273 232.249 70.3558 232.494 70.5498C232.739 70.7391 233.09 70.8846 233.547 70.9861C234.009 71.0877 234.554 71.1385 235.182 71.1385C235.81 71.1385 236.354 71.0877 236.816 70.9861C237.283 70.8846 237.64 70.7391 237.89 70.5498C238.139 70.3558 238.266 70.1273 238.271 69.8641C238.266 69.5962 238.139 69.3654 237.89 69.1714C237.64 68.9729 237.283 68.8228 236.816 68.7212C236.354 68.615 235.81 68.5619 235.182 68.5619ZM239.476 61.4138C239.476 62.0833 239.455 62.6582 239.414 63.1385C239.377 63.6187 239.282 64.1428 239.13 64.7108L237.841 64.5722C237.989 64.0089 238.081 63.5033 238.118 63.0554C238.155 62.6028 238.174 62.0603 238.174 61.4276H230.915V60.3748H239.476V61.4138ZM240.889 66.5394H229.599V65.4727H234.129V63.1454H235.417V65.4727H240.889V66.5394ZM251.514 64.7939H253.509V65.8883H251.514V72.1775H250.212V59.7653H251.514V64.7939ZM249.131 62.7852H241.776V61.7047H244.837V59.9315H246.153V61.7047H249.131V62.7852ZM245.502 63.6995C246.088 63.6995 246.615 63.8219 247.081 64.0666C247.548 64.3114 247.915 64.6531 248.183 65.0917C248.45 65.5304 248.587 66.0268 248.591 66.5809C248.587 67.1397 248.45 67.6384 248.183 68.077C247.915 68.5157 247.548 68.8574 247.081 69.1022C246.615 69.3469 246.088 69.4716 245.502 69.4762C244.911 69.4716 244.38 69.3469 243.909 69.1022C243.442 68.8574 243.075 68.5157 242.808 68.077C242.544 67.6384 242.413 67.1397 242.413 66.5809C242.413 66.0268 242.544 65.5304 242.808 65.0917C243.075 64.6531 243.442 64.3114 243.909 64.0666C244.38 63.8219 244.911 63.6995 245.502 63.6995ZM245.502 64.78C245.156 64.78 244.842 64.8562 244.56 65.0086C244.278 65.161 244.059 65.3734 243.902 65.6458C243.745 65.9183 243.669 66.23 243.673 66.5809C243.669 66.9365 243.745 67.2505 243.902 67.5229C244.059 67.7954 244.276 68.0055 244.553 68.1532C244.835 68.301 245.151 68.3726 245.502 68.3679C245.848 68.3726 246.16 68.301 246.437 68.1532C246.719 68.0055 246.938 67.7954 247.095 67.5229C247.252 67.2505 247.331 66.9365 247.331 66.5809C247.331 66.23 247.252 65.9183 247.095 65.6458C246.938 65.3734 246.719 65.161 246.437 65.0086C246.16 64.8562 245.848 64.78 245.502 64.78ZM257.471 60.6934C258.034 60.6934 258.54 60.8481 258.988 61.1575C259.44 61.4669 259.805 61.9033 260.082 62.4666H263.151V59.7653H264.453V72.2052H263.151V67.4398H260.165C259.902 68.0632 259.535 68.548 259.064 68.8944C258.598 69.2361 258.067 69.4069 257.471 69.4069C256.852 69.4069 256.305 69.2291 255.829 68.8736C255.354 68.5134 254.982 68.0055 254.714 67.3498C254.451 66.6894 254.322 65.9206 254.326 65.0432C254.322 64.1705 254.451 63.4063 254.714 62.7506C254.982 62.0903 255.354 61.5823 255.829 61.2268C256.31 60.8712 256.857 60.6934 257.471 60.6934ZM257.471 61.8709C257.097 61.8709 256.767 62.0002 256.48 62.2588C256.194 62.5174 255.97 62.8868 255.809 63.367C255.652 63.8427 255.573 64.4014 255.573 65.0432C255.573 65.6897 255.652 66.2531 255.809 66.7333C255.97 67.2135 256.194 67.5829 256.48 67.8415C256.767 68.1001 257.097 68.2294 257.471 68.2294C257.845 68.2294 258.175 68.1001 258.461 67.8415C258.748 67.5829 258.969 67.2135 259.126 66.7333C259.288 66.2531 259.369 65.6897 259.369 65.0432C259.369 64.4014 259.288 63.8427 259.126 63.367C258.969 62.8868 258.748 62.5174 258.461 62.2588C258.175 62.0002 257.845 61.8709 257.471 61.8709ZM260.456 63.5471C260.562 64.0458 260.615 64.5445 260.615 65.0432C260.615 65.5096 260.574 65.9483 260.491 66.3593H263.151V63.5471H260.456ZM267.487 73.8676H266.309L267.043 70.0441H268.595L267.487 73.8676ZM71.5786 83.722H69.653V90.1636H68.337V77.7653H69.653V82.6415H71.5786V83.722ZM61.7569 85.9524C63.6501 85.9524 65.4879 85.7677 67.2703 85.3982L67.4227 86.5065C66.4345 86.705 65.4533 86.8459 64.479 86.929C63.5093 87.0075 62.5095 87.0467 61.4798 87.0467H60.4547V78.9705H61.7569V85.9524ZM78.5328 84.6502H72.7284V78.8597H78.5328V84.6502ZM74.0167 83.6112H77.2444V79.9263H74.0167V83.6112ZM81.996 81.464H83.7969V82.5722H81.996V86.8528H80.68V77.7514H81.996V81.464ZM82.5224 89.9143H74.1275V85.9801H75.4436V88.8476H82.5224V89.9143ZM88.5484 78.6519C89.1949 78.6473 89.7744 78.7696 90.287 79.019C90.7995 79.2683 91.1989 79.6193 91.4852 80.0718C91.7761 80.5197 91.9239 81.03 91.9285 81.6025C91.9239 82.1751 91.7761 82.6877 91.4852 83.1402C91.1989 83.5881 90.7995 83.9391 90.287 84.193C89.7744 84.4424 89.1949 84.5671 88.5484 84.5671C87.9019 84.5671 87.3201 84.4424 86.8029 84.193C86.2904 83.9391 85.8886 83.5881 85.5977 83.1402C85.3068 82.6877 85.1637 82.1751 85.1683 81.6025C85.1637 81.03 85.3068 80.5197 85.5977 80.0718C85.8886 79.6193 86.2904 79.2683 86.8029 79.019C87.3201 78.7696 87.9019 78.6473 88.5484 78.6519ZM88.5484 79.7878C88.1467 79.7878 87.7865 79.864 87.4679 80.0164C87.1539 80.1641 86.9068 80.3766 86.7268 80.6536C86.5513 80.9261 86.4659 81.2424 86.4705 81.6025C86.4659 81.9627 86.5513 82.2813 86.7268 82.5584C86.9068 82.8308 87.1539 83.0432 87.4679 83.1956C87.7865 83.3434 88.1467 83.4173 88.5484 83.4173C88.9501 83.4173 89.308 83.3434 89.622 83.1956C89.9406 83.0432 90.19 82.8308 90.3701 82.5584C90.5502 82.2813 90.6402 81.9627 90.6402 81.6025C90.6402 81.2424 90.5502 80.9261 90.3701 80.6536C90.19 80.3766 89.9406 80.1641 89.622 80.0164C89.308 79.864 88.9501 79.7878 88.5484 79.7878ZM94.7684 90.2052H93.4523V77.7653H94.7684V90.2052ZM84.5726 86.4372C86.1057 86.4372 87.5371 86.4118 88.867 86.361C90.2015 86.3056 91.4714 86.1925 92.6766 86.0216L92.7735 86.9775C91.536 87.2176 90.2777 87.37 88.9986 87.4346C87.7242 87.4993 86.3042 87.5316 84.7389 87.5316L84.5726 86.4372ZM104.784 80.9237C104.779 81.6718 104.916 82.4083 105.193 83.1333C105.474 83.8536 105.865 84.4955 106.363 85.0588C106.867 85.6222 107.435 86.0447 108.067 86.3264L107.278 87.3654C106.571 87.0283 105.945 86.5319 105.4 85.8762C104.856 85.2158 104.435 84.4586 104.14 83.6043C103.849 84.5232 103.424 85.3359 102.865 86.0424C102.311 86.7489 101.667 87.2822 100.933 87.6424L100.129 86.5342C100.771 86.2479 101.344 85.8138 101.847 85.232C102.355 84.6502 102.75 83.9829 103.032 83.2303C103.313 82.473 103.454 81.7041 103.454 80.9237V78.8043H104.784V80.9237ZM110.505 90.2052H109.189V77.7653H110.505V90.2052ZM122.239 81.4363H124.04V82.5307H122.239V86.7835H120.909V77.7653H122.239V81.4363ZM118.872 78.7073C118.872 79.7786 118.639 80.7552 118.173 81.6372C117.706 82.5191 117.035 83.2811 116.157 83.9229C115.285 84.5601 114.241 85.0612 113.027 85.4259L112.472 84.3731C113.437 84.0822 114.276 83.7105 114.987 83.258C115.702 82.8054 116.268 82.286 116.684 81.6995C117.104 81.1131 117.356 80.4805 117.439 79.8017H112.999V78.7073H118.872ZM122.751 89.9143H114.356V85.8554H115.686V88.8476H122.751V89.9143ZM139.569 88.5983H128.209V87.5177H133.183V84.5671H134.485V87.5177H139.569V88.5983ZM134.512 79.4969C134.512 80.1341 134.722 80.7529 135.143 81.3532C135.568 81.9489 136.129 82.4568 136.826 82.877C137.528 83.2972 138.276 83.5743 139.07 83.7082L138.502 84.7887C137.828 84.6548 137.184 84.4332 136.57 84.1238C135.96 83.8098 135.415 83.4242 134.935 82.9671C134.459 82.5099 134.088 82.002 133.82 81.4432C133.552 82.002 133.18 82.5122 132.705 82.974C132.234 83.4311 131.693 83.8167 131.084 84.1307C130.479 84.4401 129.844 84.6594 129.179 84.7887L128.597 83.7082C129.387 83.5743 130.128 83.2972 130.821 82.877C131.518 82.4568 132.077 81.9489 132.497 81.3532C132.917 80.7529 133.127 80.1341 133.127 79.4969V78.5549H134.512V79.4969ZM151.815 85.8554H148.933V90.1775H147.603V85.8554H144.639V90.1775H143.281V85.8554H140.455V84.7749H151.815V85.8554ZM146.107 78.2363C146.975 78.2363 147.742 78.3494 148.407 78.5757C149.076 78.7973 149.596 79.1159 149.965 79.5315C150.339 79.9471 150.526 80.4297 150.526 80.9792C150.526 81.5194 150.339 81.995 149.965 82.406C149.596 82.8124 149.076 83.1264 148.407 83.348C147.742 83.565 146.975 83.6712 146.107 83.6666C145.235 83.6712 144.463 83.565 143.794 83.348C143.129 83.1264 142.612 82.8124 142.242 82.406C141.873 81.995 141.688 81.5194 141.688 80.9792C141.688 80.4297 141.873 79.9471 142.242 79.5315C142.612 79.1159 143.129 78.7973 143.794 78.5757C144.463 78.3494 145.235 78.2363 146.107 78.2363ZM146.107 79.2891C145.493 79.2937 144.955 79.3653 144.493 79.5038C144.032 79.6424 143.674 79.8386 143.42 80.0926C143.166 80.3419 143.041 80.6375 143.046 80.9792C143.041 81.3116 143.166 81.6025 143.42 81.8519C143.674 82.1012 144.032 82.2929 144.493 82.4268C144.96 82.5607 145.498 82.6277 146.107 82.6277C146.717 82.6277 147.252 82.5607 147.714 82.4268C148.181 82.2929 148.541 82.1012 148.795 81.8519C149.053 81.6025 149.183 81.3116 149.183 80.9792C149.183 80.6375 149.056 80.3396 148.802 80.0856C148.548 79.8317 148.188 79.6377 147.721 79.5038C147.259 79.3653 146.721 79.2937 146.107 79.2891ZM164.075 84.4701H152.715V83.4588H164.075V84.4701ZM162.675 88.0719H155.389V89.097H163.063V90.0251H154.073V87.1991H161.373V86.2848H154.059V85.3428H162.675V88.0719ZM162.648 80.7714H155.472V81.7134H162.855V82.6415H154.17V79.8986H161.332V79.012H154.142V78.0839H162.648V80.7714ZM179.77 85.329H168.424V84.29H173.439V83.2095H169.907V78.0978H178.385V79.1367H171.236V80.148H178.066V81.1315H171.236V82.1844H178.468V83.2095H174.755V84.29H179.77V85.329ZM174.104 86.1463C175.009 86.1417 175.78 86.2179 176.417 86.3749C177.059 86.5273 177.546 86.7535 177.879 87.0537C178.216 87.3538 178.385 87.7209 178.385 88.155C178.385 88.8107 178.013 89.3094 177.269 89.6511C176.531 89.9928 175.475 90.159 174.104 90.1498C172.719 90.159 171.654 89.9928 170.911 89.6511C170.167 89.3094 169.796 88.8107 169.796 88.155C169.796 87.7209 169.962 87.3538 170.294 87.0537C170.632 86.7535 171.121 86.5273 171.763 86.3749C172.409 86.2179 173.19 86.1417 174.104 86.1463ZM174.104 87.1299C173.125 87.1299 172.379 87.2176 171.867 87.3931C171.359 87.5685 171.107 87.8225 171.112 88.155C171.107 88.4874 171.359 88.7391 171.867 88.91C172.379 89.0808 173.125 89.1616 174.104 89.1524C175.069 89.1616 175.803 89.0808 176.307 88.91C176.815 88.7391 177.069 88.4874 177.069 88.155C177.069 87.8225 176.815 87.5685 176.307 87.3931C175.799 87.2176 175.064 87.1299 174.104 87.1299ZM186.849 80.8822H180.684V79.8155H183.122V78.1255H184.424V79.8155H186.849V80.8822ZM183.773 81.6302C184.295 81.6302 184.759 81.7526 185.166 81.9974C185.572 82.2375 185.891 82.5746 186.121 83.0086C186.352 83.4381 186.47 83.9298 186.475 84.4839C186.47 85.0427 186.352 85.5414 186.121 85.9801C185.891 86.4141 185.572 86.7535 185.166 86.9983C184.759 87.243 184.295 87.3654 183.773 87.3654C183.261 87.3654 182.799 87.243 182.388 86.9983C181.977 86.7535 181.656 86.4118 181.425 85.9731C181.194 85.5345 181.081 85.0381 181.086 84.4839C181.081 83.9345 181.194 83.4427 181.425 83.0086C181.656 82.5746 181.977 82.2375 182.388 81.9974C182.799 81.7526 183.261 81.6302 183.773 81.6302ZM183.773 82.7246C183.478 82.7246 183.215 82.8008 182.984 82.9532C182.753 83.101 182.573 83.3088 182.443 83.5766C182.314 83.8444 182.25 84.1469 182.25 84.4839C182.25 84.8303 182.314 85.1373 182.443 85.4052C182.573 85.6684 182.753 85.8739 182.984 86.0216C183.215 86.1694 183.478 86.2433 183.773 86.2433C184.069 86.2433 184.332 86.1694 184.563 86.0216C184.798 85.8739 184.981 85.6684 185.11 85.4052C185.244 85.1373 185.311 84.8303 185.311 84.4839C185.311 84.1469 185.244 83.8444 185.11 83.5766C184.981 83.3088 184.798 83.101 184.563 82.9532C184.327 82.8008 184.064 82.7246 183.773 82.7246ZM191.337 90.1775H190.09V84.013H188.663V89.5957H187.417V78.0423H188.663V82.9324H190.09V77.7653H191.337V90.1775ZM207.753 85.3844H196.435V84.3039H201.436V83.1056C200.66 83.0594 199.988 82.9324 199.42 82.7246C198.852 82.5122 198.416 82.2259 198.111 81.8657C197.806 81.5056 197.654 81.0854 197.654 80.6051C197.654 80.0972 197.834 79.6562 198.194 79.2822C198.559 78.9082 199.074 78.6219 199.739 78.4233C200.408 78.2201 201.191 78.1162 202.087 78.1116C202.978 78.1162 203.756 78.2201 204.421 78.4233C205.091 78.6219 205.608 78.9082 205.973 79.2822C206.337 79.6562 206.52 80.0972 206.52 80.6051C206.52 81.0854 206.365 81.5056 206.056 81.8657C205.751 82.2259 205.315 82.5122 204.747 82.7246C204.179 82.9324 203.509 83.0594 202.738 83.1056V84.3039H207.753V85.3844ZM206.478 89.9143H197.862V86.3125H199.192V88.8476H206.478V89.9143ZM202.087 79.1783C201.459 79.1783 200.912 79.236 200.445 79.3514C199.984 79.4669 199.628 79.6331 199.379 79.8501C199.129 80.0626 199.007 80.3142 199.012 80.6051C199.007 80.9145 199.127 81.1777 199.372 81.3947C199.621 81.6118 199.977 81.778 200.438 81.8935C200.905 82.0043 201.454 82.0597 202.087 82.0597C203.047 82.0597 203.8 81.935 204.345 81.6857C204.89 81.4317 205.162 81.0715 205.162 80.6051C205.162 80.3142 205.038 80.0626 204.788 79.8501C204.539 79.6331 204.183 79.4669 203.722 79.3514C203.26 79.236 202.715 79.1783 202.087 79.1783ZM219.043 86.8667H217.727V82.1982H215.358V81.1315H217.727V77.7791H219.043V86.8667ZM219.375 89.9143H210.98V86.0493H212.297V88.8476H219.375V89.9143ZM213.142 80.2865C213.142 80.8037 213.262 81.3093 213.502 81.8034C213.742 82.2975 214.088 82.7385 214.541 83.1264C214.993 83.5142 215.524 83.8098 216.134 84.013L215.455 85.0658C214.772 84.8257 214.176 84.4701 213.668 83.9991C213.16 83.5235 212.768 82.974 212.49 82.3506C212.218 83.0432 211.814 83.6505 211.278 84.1723C210.743 84.6941 210.112 85.0842 209.387 85.3428L208.709 84.2762C209.332 84.0637 209.877 83.7544 210.343 83.348C210.81 82.937 211.168 82.466 211.417 81.935C211.671 81.404 211.798 80.8545 211.798 80.2865V79.8017H209.11V78.7211H215.801V79.8017H213.142V80.2865ZM230.707 81.7688H232.508V82.8632H230.707V87.0606H229.391V77.7791H230.707V81.7688ZM228.366 80.2865H220.968V79.2198H224.016V77.7653H225.332V79.2198H228.366V80.2865ZM224.667 80.8822C225.258 80.8822 225.78 80.9792 226.233 81.1731C226.69 81.367 227.043 81.6418 227.292 81.9974C227.546 82.3483 227.673 82.757 227.673 83.2233C227.673 83.6897 227.546 84.0984 227.292 84.4493C227.043 84.8003 226.69 85.0727 226.233 85.2666C225.78 85.456 225.258 85.5506 224.667 85.5506C224.071 85.5506 223.545 85.456 223.088 85.2666C222.631 85.0727 222.275 84.8003 222.021 84.4493C221.772 84.0984 221.647 83.6897 221.647 83.2233C221.647 82.757 221.772 82.3483 222.021 81.9974C222.275 81.6418 222.631 81.367 223.088 81.1731C223.545 80.9792 224.071 80.8822 224.667 80.8822ZM224.667 81.8935C224.316 81.8935 224.007 81.9489 223.739 82.0597C223.476 82.1659 223.273 82.3206 223.129 82.5238C222.986 82.7223 222.917 82.9555 222.922 83.2233C222.917 83.4865 222.986 83.7174 223.129 83.916C223.273 84.1099 223.476 84.26 223.739 84.3662C224.007 84.4724 224.316 84.5255 224.667 84.5255C225.018 84.5255 225.325 84.4724 225.588 84.3662C225.856 84.26 226.064 84.1099 226.212 83.916C226.36 83.7174 226.436 83.4865 226.44 83.2233C226.436 82.9555 226.36 82.7223 226.212 82.5238C226.064 82.3206 225.856 82.1659 225.588 82.0597C225.325 81.9489 225.018 81.8935 224.667 81.8935ZM231.233 89.9143H222.839V86.3264H224.155V88.8476H231.233V89.9143ZM247.358 80.148H237.259V79.0952H241.679V77.7099H242.981V79.0952H247.358V80.148ZM248.037 86.7697H245.169V90.1914H243.84V86.7697H240.847V90.1914H239.531V86.7697H236.678V85.703H248.037V86.7697ZM242.33 80.7852C243.189 80.7852 243.927 80.866 244.546 81.0276C245.165 81.1846 245.638 81.4201 245.966 81.7341C246.294 82.0435 246.458 82.4199 246.458 82.8632C246.458 83.3018 246.294 83.6782 245.966 83.9922C245.638 84.3016 245.165 84.5371 244.546 84.6987C243.927 84.8603 243.189 84.9411 242.33 84.9411C241.466 84.9411 240.725 84.8603 240.106 84.6987C239.487 84.5371 239.014 84.3016 238.686 83.9922C238.358 83.6782 238.197 83.3018 238.201 82.8632C238.197 82.4199 238.358 82.0435 238.686 81.7341C239.014 81.4201 239.487 81.1846 240.106 81.0276C240.725 80.866 241.466 80.7852 242.33 80.7852ZM242.33 81.7826C241.429 81.7919 240.741 81.8865 240.266 82.0666C239.795 82.2467 239.559 82.5122 239.559 82.8632C239.559 83.2095 239.797 83.475 240.272 83.6597C240.748 83.8398 241.434 83.9298 242.33 83.9298C243.216 83.9298 243.897 83.8398 244.373 83.6597C244.853 83.475 245.096 83.2095 245.1 82.8632C245.096 82.5122 244.855 82.2467 244.38 82.0666C243.909 81.8865 243.225 81.7919 242.33 81.7826ZM253.454 79.5523C253.449 80.1249 253.569 80.6721 253.814 81.1939C254.063 81.7111 254.421 82.1682 254.887 82.5653C255.354 82.9624 255.901 83.2649 256.529 83.4727L255.864 84.5117C255.153 84.2623 254.532 83.8952 254.001 83.4103C253.474 82.9209 253.07 82.3506 252.789 81.6995C252.507 82.406 252.098 83.0225 251.563 83.5489C251.032 84.0707 250.401 84.4609 249.672 84.7194L249.007 83.6943C249.639 83.4681 250.189 83.1425 250.655 82.7177C251.126 82.2929 251.486 81.808 251.736 81.2631C251.985 80.7136 252.11 80.1434 252.11 79.5523V78.361H253.454V79.5523ZM259.23 90.1775H257.914V86.8805H250.821V85.8138H259.23V90.1775ZM259.23 85.2182H257.914V77.7653H259.23V85.2182ZM266.849 77.9731C267.782 77.9731 268.579 78.0562 269.239 78.2224C269.904 78.384 270.41 78.6242 270.756 78.9428C271.107 79.2614 271.282 79.6493 271.282 80.1064C271.282 80.5636 271.107 80.9538 270.756 81.277C270.41 81.5956 269.904 81.838 269.239 82.0043C268.579 82.1705 267.782 82.2536 266.849 82.2536C265.917 82.2536 265.118 82.1705 264.453 82.0043C263.792 81.838 263.287 81.5956 262.936 81.277C262.59 80.9538 262.416 80.5636 262.416 80.1064C262.416 79.6493 262.59 79.2614 262.936 78.9428C263.287 78.6242 263.792 78.384 264.453 78.2224C265.118 78.0562 265.917 77.9731 266.849 77.9731ZM266.849 78.9428C265.861 78.9428 265.102 79.0444 264.571 79.2475C264.039 79.4507 263.779 79.737 263.788 80.1064C263.783 80.4851 264.042 80.7737 264.564 80.9722C265.09 81.1708 265.852 81.2701 266.849 81.2701C267.842 81.2701 268.602 81.1708 269.128 80.9722C269.659 80.7737 269.925 80.4851 269.925 80.1064C269.925 79.737 269.657 79.4507 269.121 79.2475C268.59 79.0444 267.833 78.9428 266.849 78.9428ZM272.515 84.0684H261.197V83.0155H272.515V84.0684ZM271.088 87.9333H263.857V89.0416H271.435V90.0528H262.569V86.9775H269.786V86.0078H262.555V85.0242H271.088V87.9333ZM118.817 100.919H110.187V96.3748H111.503V99.8519H118.817V100.919ZM120.105 103.717H115.021V108.177H113.719V103.717H108.746V102.636H120.105V103.717ZM127.364 99.5056H122.931V100.835C124.178 100.831 125.217 100.805 126.048 100.759C126.879 100.713 127.729 100.623 128.597 100.489L128.722 101.487C127.808 101.639 126.905 101.743 126.014 101.798C125.127 101.849 124.007 101.874 122.654 101.874H121.643V98.5497H126.076V97.3722H121.601V96.361H127.364V99.5056ZM131.299 105.836H124.483V107.028H131.714V108.053H123.181V104.867H129.955V103.814H123.139V102.789H131.299V105.836ZM131.299 102.276H129.982V95.7653H131.299V102.276ZM143.087 96.8597C143.083 97.3999 143.279 97.9217 143.676 98.425C144.078 98.9237 144.62 99.3486 145.304 99.6995C145.987 100.046 146.731 100.272 147.534 100.378L147.022 101.459C146.347 101.353 145.708 101.168 145.103 100.905C144.498 100.642 143.962 100.316 143.496 99.9281C143.03 99.5402 142.665 99.1061 142.402 98.6259C142.134 99.1061 141.767 99.5402 141.3 99.9281C140.839 100.316 140.308 100.642 139.707 100.905C139.107 101.163 138.47 101.348 137.796 101.459L137.269 100.378C138.073 100.272 138.814 100.046 139.493 99.6995C140.171 99.3532 140.709 98.9307 141.106 98.432C141.508 97.9286 141.711 97.4045 141.716 96.8597V96.1809H143.087V96.8597ZM148.047 103.758H143.004V108.177H141.716V103.758H136.729V102.678H148.047V103.758ZM156.76 103.966C156.76 104.525 156.899 105.063 157.176 105.58C157.457 106.093 157.868 106.511 158.409 106.834C158.773 106.598 159.083 106.319 159.337 105.996C159.595 105.672 159.789 105.335 159.919 104.984C160.048 104.633 160.113 104.294 160.113 103.966V103.371H161.401V103.966C161.401 104.4 161.496 104.82 161.685 105.227C161.874 105.629 162.154 105.986 162.523 106.3C162.892 106.614 163.34 106.857 163.867 107.028L163.216 107.997C162.615 107.79 162.105 107.489 161.685 107.097C161.269 106.709 160.948 106.254 160.722 105.732C160.514 106.259 160.219 106.73 159.836 107.145C159.457 107.561 158.995 107.882 158.45 108.108C157.878 107.891 157.395 107.58 157.003 107.173C156.615 106.767 156.319 106.298 156.116 105.767C155.885 106.27 155.564 106.716 155.153 107.104C154.742 107.492 154.253 107.79 153.685 107.997L153.02 107.028C153.532 106.843 153.973 106.589 154.343 106.266C154.717 105.943 154.999 105.582 155.188 105.185C155.382 104.784 155.481 104.377 155.486 103.966V103.371H156.76V103.966ZM162.745 102.844H161.429V95.7791H162.745V102.844ZM156.012 96.4579C156.64 96.4579 157.203 96.5826 157.702 96.832C158.205 97.0813 158.598 97.4299 158.88 97.8779C159.166 98.3211 159.309 98.8268 159.309 99.3947C159.309 99.9581 159.166 100.461 158.88 100.905C158.598 101.343 158.205 101.687 157.702 101.937C157.203 102.181 156.64 102.304 156.012 102.304C155.384 102.304 154.818 102.181 154.315 101.937C153.812 101.687 153.417 101.343 153.131 100.905C152.844 100.461 152.701 99.9581 152.701 99.3947C152.701 98.8268 152.844 98.3211 153.131 97.8779C153.417 97.4299 153.812 97.0813 154.315 96.832C154.818 96.5826 155.384 96.4579 156.012 96.4579ZM156.012 97.58C155.624 97.5754 155.276 97.6493 154.966 97.8017C154.661 97.9494 154.421 98.1618 154.246 98.4389C154.075 98.716 153.99 99.0346 153.99 99.3947C153.99 99.7503 154.075 100.067 154.246 100.344C154.421 100.616 154.661 100.829 154.966 100.981C155.276 101.133 155.624 101.209 156.012 101.209C156.395 101.209 156.739 101.133 157.044 100.981C157.349 100.829 157.587 100.616 157.758 100.344C157.933 100.067 158.021 99.7503 158.021 99.3947C158.021 99.0346 157.933 98.716 157.758 98.4389C157.587 98.1618 157.349 97.9494 157.044 97.8017C156.739 97.6493 156.395 97.5754 156.012 97.58ZM174.769 102.539H171.015V105.573H176.071V106.654H164.712V105.573H169.713V102.539H166.125V96.7211H174.658V97.7878H167.441V101.487H174.769V102.539ZM188.317 103.606H176.958V102.539H181.986V101.362H178.412V98.2034H185.574V97.0952H178.385V96.0562H186.89V99.1731H179.714V100.337H187.14V101.362H183.289V102.539H188.317V103.606ZM186.96 108.081H185.63V105.532H178.232V104.479H186.96V108.081ZM204.026 102.567H192.695V101.487H197.696V100.226H194.108V96.1947H202.627V97.2753H195.424V99.1592H202.752V100.226H198.998V101.487H204.026V102.567ZM195.438 104.534H201.27V103.274H202.586V108.025H194.135V103.274H195.438V104.534ZM201.27 106.945V105.573H195.438V106.945H201.27ZM214.998 98.1757C214.998 98.873 214.989 99.4802 214.97 99.9974C214.956 100.51 214.915 101.103 214.845 101.777C214.781 102.452 214.675 103.181 214.527 103.966L213.197 103.828C213.345 103.084 213.453 102.385 213.523 101.729C213.596 101.069 213.64 100.482 213.654 99.9696C213.673 99.4571 213.682 98.8591 213.682 98.1757V98.0233H206.146V96.9566H214.998V98.1757ZM216.272 106.501H204.954V105.407H209.263V101.029H210.565V105.407H216.272V106.501ZM221.536 99.4225C221.536 100.074 221.67 100.734 221.938 101.403C222.206 102.073 222.58 102.678 223.06 103.218C223.545 103.758 224.095 104.174 224.709 104.465L223.961 105.49C223.277 105.158 222.668 104.666 222.132 104.015C221.601 103.364 221.192 102.625 220.906 101.798C220.62 102.694 220.197 103.5 219.639 104.216C219.084 104.927 218.456 105.458 217.755 105.809L216.979 104.77C217.593 104.474 218.147 104.04 218.641 103.468C219.14 102.895 219.53 102.253 219.812 101.542C220.093 100.826 220.234 100.12 220.234 99.4225V98.1064H217.436V97.012H224.238V98.1064H221.536V99.4225ZM226.884 100.683H228.878V101.791H226.884V108.177H225.568V95.7653H226.884V100.683ZM242.69 98.8822H244.491V99.9904H242.69V102.997H241.374V95.7653H242.69V98.8822ZM236.054 104.714H241.374V103.509H242.69V108.025H234.752V103.509H236.054V104.714ZM241.374 106.972V105.739H236.054V106.972H241.374ZM240.349 98.0372H232.951V96.9843H235.999V95.6545H237.315V96.9843H240.349V98.0372ZM236.65 98.5497C237.241 98.5497 237.763 98.6398 238.215 98.8199C238.672 98.9953 239.026 99.247 239.275 99.5748C239.529 99.9027 239.656 100.286 239.656 100.725C239.656 101.159 239.529 101.542 239.275 101.874C239.026 102.202 238.672 102.456 238.215 102.636C237.763 102.816 237.241 102.904 236.65 102.9C236.05 102.904 235.521 102.816 235.064 102.636C234.611 102.456 234.258 102.202 234.004 101.874C233.755 101.542 233.63 101.159 233.63 100.725C233.63 100.286 233.755 99.9027 234.004 99.5748C234.253 99.247 234.607 98.9953 235.064 98.8199C235.521 98.6398 236.05 98.5497 236.65 98.5497ZM236.65 99.5333C236.304 99.5287 235.997 99.5771 235.729 99.6787C235.466 99.7757 235.26 99.9165 235.112 100.101C234.969 100.281 234.9 100.489 234.904 100.725C234.9 100.965 234.969 101.177 235.112 101.362C235.26 101.542 235.466 101.683 235.729 101.784C235.992 101.881 236.299 101.93 236.65 101.93C236.996 101.93 237.303 101.881 237.571 101.784C237.839 101.683 238.047 101.542 238.195 101.362C238.342 101.177 238.419 100.965 238.423 100.725C238.419 100.485 238.342 100.274 238.195 100.094C238.047 99.9142 237.839 99.7757 237.571 99.6787C237.303 99.5771 236.996 99.5287 236.65 99.5333ZM255.504 108.177H254.188V95.7653H255.504V108.177ZM247.261 103.883C249.293 103.869 251.196 103.68 252.969 103.315L253.149 104.423C252.096 104.636 251.066 104.788 250.06 104.881C249.053 104.973 248.032 105.019 246.998 105.019H245.959V96.9705H247.261V103.883ZM267.126 100.572H269.121V101.653H267.126V108.205H265.81V95.7653H267.126V100.572ZM263.788 98.0233H259.299V104.022C260.398 104.017 261.364 103.985 262.195 103.925C263.031 103.865 263.871 103.758 264.716 103.606L264.882 104.714C264.028 104.867 263.188 104.973 262.361 105.033C261.539 105.088 260.588 105.116 259.507 105.116H258.981H257.983V96.9566H263.788V98.0233ZM271.13 107.097C270.954 107.097 270.788 107.053 270.631 106.965C270.479 106.878 270.359 106.758 270.271 106.605C270.183 106.453 270.142 106.289 270.146 106.113C270.142 105.938 270.183 105.774 270.271 105.622C270.359 105.469 270.479 105.349 270.631 105.261C270.788 105.174 270.954 105.13 271.13 105.13C271.301 105.13 271.462 105.174 271.615 105.261C271.767 105.349 271.887 105.469 271.975 105.622C272.067 105.774 272.113 105.938 272.113 106.113C272.113 106.289 272.067 106.453 271.975 106.605C271.887 106.758 271.767 106.878 271.615 106.965C271.462 107.053 271.301 107.097 271.13 107.097Z" fill="#FD4525"/>
</svg>
