<svg width="300" height="150" viewBox="0 0 300 150" fill="none" xmlns="http://www.w3.org/2000/svg">
<path d="M97.384 69.88V71.368H94.424V81H92.6V71.368H89.624V69.88H97.384ZM104.303 81.112C103.269 81.112 102.314 80.872 101.439 80.392C100.575 79.9013 99.8873 79.224 99.3753 78.36C98.8739 77.4853 98.6233 76.504 98.6233 75.416C98.6233 74.328 98.8739 73.352 99.3753 72.488C99.8873 71.624 100.575 70.952 101.439 70.472C102.314 69.9813 103.269 69.736 104.303 69.736C105.349 69.736 106.303 69.9813 107.167 70.472C108.042 70.952 108.73 71.624 109.231 72.488C109.733 73.352 109.983 74.328 109.983 75.416C109.983 76.504 109.733 77.4853 109.231 78.36C108.73 79.224 108.042 79.9013 107.167 80.392C106.303 80.872 105.349 81.112 104.303 81.112ZM104.303 79.528C105.039 79.528 105.695 79.3627 106.271 79.032C106.847 78.6907 107.295 78.2107 107.615 77.592C107.946 76.9627 108.111 76.2373 108.111 75.416C108.111 74.5947 107.946 73.8747 107.615 73.256C107.295 72.6373 106.847 72.1627 106.271 71.832C105.695 71.5013 105.039 71.336 104.303 71.336C103.567 71.336 102.911 71.5013 102.335 71.832C101.759 72.1627 101.306 72.6373 100.975 73.256C100.655 73.8747 100.495 74.5947 100.495 75.416C100.495 76.2373 100.655 76.9627 100.975 77.592C101.306 78.2107 101.759 78.6907 102.335 79.032C102.911 79.3627 103.567 79.528 104.303 79.528ZM121.006 81.112C119.972 81.112 119.017 80.872 118.142 80.392C117.278 79.9013 116.59 79.224 116.078 78.36C115.577 77.4853 115.326 76.504 115.326 75.416C115.326 74.328 115.577 73.352 116.078 72.488C116.59 71.624 117.278 70.952 118.142 70.472C119.017 69.9813 119.972 69.736 121.006 69.736C122.052 69.736 123.006 69.9813 123.87 70.472C124.745 70.952 125.433 71.624 125.934 72.488C126.436 73.352 126.686 74.328 126.686 75.416C126.686 76.504 126.436 77.4853 125.934 78.36C125.433 79.224 124.745 79.9013 123.87 80.392C123.006 80.872 122.052 81.112 121.006 81.112ZM121.006 79.528C121.742 79.528 122.398 79.3627 122.974 79.032C123.55 78.6907 123.998 78.2107 124.318 77.592C124.649 76.9627 124.814 76.2373 124.814 75.416C124.814 74.5947 124.649 73.8747 124.318 73.256C123.998 72.6373 123.55 72.1627 122.974 71.832C122.398 71.5013 121.742 71.336 121.006 71.336C120.27 71.336 119.614 71.5013 119.038 71.832C118.462 72.1627 118.009 72.6373 117.678 73.256C117.358 73.8747 117.198 74.5947 117.198 75.416C117.198 76.2373 117.358 76.9627 117.678 77.592C118.009 78.2107 118.462 78.6907 119.038 79.032C119.614 79.3627 120.27 79.528 121.006 79.528ZM142.961 69.88L139.665 81H137.601L135.265 72.584L132.785 81L130.737 81.016L127.585 69.88H129.521L131.825 78.936L134.321 69.88H136.369L138.689 78.888L141.009 69.88H142.961ZM153.602 81H151.778L146.29 72.696V81H144.466V69.864H146.29L151.778 78.152V69.864H153.602V81ZM166.857 78.728H162.201L161.401 81H159.497L163.481 69.864H165.593L169.577 81H167.657L166.857 78.728ZM166.345 77.24L164.537 72.072L162.713 77.24H166.345ZM181.242 81L178.682 76.552H177.29V81H175.466V69.88H179.306C180.159 69.88 180.879 70.0293 181.466 70.328C182.063 70.6267 182.506 71.0267 182.794 71.528C183.092 72.0293 183.242 72.5893 183.242 73.208C183.242 73.9333 183.028 74.5947 182.602 75.192C182.186 75.7787 181.54 76.1787 180.666 76.392L183.418 81H181.242ZM177.29 75.096H179.306C179.988 75.096 180.5 74.9253 180.842 74.584C181.194 74.2427 181.37 73.784 181.37 73.208C181.37 72.632 181.199 72.184 180.858 71.864C180.516 71.5333 179.999 71.368 179.306 71.368H177.29V75.096ZM187.399 71.352V74.616H191.239V76.104H187.399V79.512H191.719V81H185.575V69.864H191.719V71.352H187.399ZM197.63 81.112C196.883 81.112 196.211 80.984 195.614 80.728C195.016 80.4613 194.547 80.088 194.206 79.608C193.864 79.128 193.694 78.568 193.694 77.928H195.646C195.688 78.408 195.875 78.8027 196.206 79.112C196.547 79.4213 197.022 79.576 197.63 79.576C198.259 79.576 198.75 79.4267 199.102 79.128C199.454 78.8187 199.63 78.424 199.63 77.944C199.63 77.5707 199.518 77.2667 199.294 77.032C199.08 76.7973 198.808 76.616 198.478 76.488C198.158 76.36 197.71 76.2213 197.134 76.072C196.408 75.88 195.816 75.688 195.358 75.496C194.91 75.2933 194.526 74.984 194.206 74.568C193.886 74.152 193.726 73.5973 193.726 72.904C193.726 72.264 193.886 71.704 194.206 71.224C194.526 70.744 194.974 70.376 195.55 70.12C196.126 69.864 196.792 69.736 197.55 69.736C198.627 69.736 199.507 70.008 200.19 70.552C200.883 71.0853 201.267 71.8213 201.342 72.76H199.326C199.294 72.3547 199.102 72.008 198.75 71.72C198.398 71.432 197.934 71.288 197.358 71.288C196.835 71.288 196.408 71.4213 196.078 71.688C195.747 71.9547 195.582 72.3387 195.582 72.84C195.582 73.1813 195.683 73.464 195.886 73.688C196.099 73.9013 196.366 74.072 196.686 74.2C197.006 74.328 197.443 74.4667 197.998 74.616C198.734 74.8187 199.331 75.0213 199.79 75.224C200.259 75.4267 200.654 75.7413 200.974 76.168C201.304 76.584 201.47 77.144 201.47 77.848C201.47 78.4133 201.315 78.9467 201.006 79.448C200.707 79.9493 200.264 80.3547 199.678 80.664C199.102 80.9627 198.419 81.112 197.63 81.112ZM210.806 69.88V71.368H207.846V81H206.022V71.368H203.046V69.88H210.806Z" fill="#FD4525"/>
</svg>
