<svg width="300" height="150" viewBox="0 0 300 150" fill="none" xmlns="http://www.w3.org/2000/svg">
<path d="M94.1094 81.3594H92.625V67.3281H94.1094V81.3594ZM86.625 68.375C87.3177 68.375 87.9375 68.5781 88.4844 68.9844C89.0312 69.3854 89.4583 69.9583 89.7656 70.7031C90.0781 71.4427 90.2344 72.3021 90.2344 73.2812C90.2344 74.2656 90.0781 75.1302 89.7656 75.875C89.4583 76.6198 89.0312 77.1953 88.4844 77.6016C87.9375 78.0026 87.3177 78.2031 86.625 78.2031C85.9219 78.2031 85.2969 78.0026 84.75 77.6016C84.2031 77.1953 83.7734 76.6224 83.4609 75.8828C83.1536 75.138 83 74.2708 83 73.2812C83 72.2969 83.1536 71.4349 83.4609 70.6953C83.7734 69.9505 84.2031 69.3776 84.75 68.9766C85.2969 68.5755 85.9219 68.375 86.625 68.375ZM86.625 69.7031C86.1927 69.7031 85.8099 69.849 85.4766 70.1406C85.1484 70.4323 84.8932 70.849 84.7109 71.3906C84.5286 71.9271 84.4375 72.5573 84.4375 73.2812C84.4375 74.0104 84.5286 74.6458 84.7109 75.1875C84.8932 75.7292 85.1484 76.1458 85.4766 76.4375C85.8099 76.7292 86.1927 76.875 86.625 76.875C87.0521 76.875 87.4297 76.7292 87.7578 76.4375C88.0859 76.1458 88.3411 75.7292 88.5234 75.1875C88.7057 74.6458 88.7969 74.0104 88.7969 73.2812C88.7969 72.5573 88.7057 71.9271 88.5234 71.3906C88.3411 70.849 88.0859 70.4323 87.7578 70.1406C87.4297 69.849 87.0521 69.7031 86.625 69.7031ZM108.016 77.6875H106.531V72.4062H103.469V75.3594H97.0156V68.2656H98.5V70.6406H102V68.2656H103.469V71.2031H106.531V67.3438H108.016V77.6875ZM108.328 81.0312H98.875V76.6719H100.375V79.8281H108.328V81.0312ZM102 74.1562V71.7812H98.5V74.1562H102ZM120.922 69.2969H116.141V72.7031H116.375C117.625 72.7031 118.688 72.6693 119.562 72.6016C120.438 72.5286 121.312 72.4062 122.188 72.2344L122.359 73.4062C121.448 73.6042 120.521 73.7344 119.578 73.7969C118.641 73.8594 117.375 73.8906 115.781 73.8906H114.672V68.1094H120.922V69.2969ZM125.078 70.1875H127.109V71.4062H125.078V74.3594H123.594V67.3281H125.078V70.1875ZM125.078 78.5938H117.516V79.9531H125.562V81.1562H116.062V77.4531H123.609V76.2031H116.031V75.0156H125.078V78.5938ZM132.469 68.3281C133.198 68.3229 133.852 68.4609 134.43 68.7422C135.008 69.0234 135.458 69.4193 135.781 69.9297C136.109 70.4349 136.276 71.0104 136.281 71.6562C136.276 72.3021 136.109 72.8802 135.781 73.3906C135.458 73.8958 135.008 74.2917 134.43 74.5781C133.852 74.8594 133.198 75 132.469 75C131.74 75 131.083 74.8594 130.5 74.5781C129.922 74.2917 129.469 73.8958 129.141 73.3906C128.812 72.8802 128.651 72.3021 128.656 71.6562C128.651 71.0104 128.812 70.4349 129.141 69.9297C129.469 69.4193 129.922 69.0234 130.5 68.7422C131.083 68.4609 131.74 68.3229 132.469 68.3281ZM132.469 69.6094C132.016 69.6094 131.609 69.6953 131.25 69.8672C130.896 70.0339 130.617 70.2734 130.414 70.5859C130.216 70.8932 130.12 71.25 130.125 71.6562C130.12 72.0625 130.216 72.4219 130.414 72.7344C130.617 73.0417 130.896 73.2812 131.25 73.4531C131.609 73.6198 132.016 73.7031 132.469 73.7031C132.922 73.7031 133.326 73.6198 133.68 73.4531C134.039 73.2812 134.32 73.0417 134.523 72.7344C134.727 72.4219 134.828 72.0625 134.828 71.6562C134.828 71.25 134.727 70.8932 134.523 70.5859C134.32 70.2734 134.039 70.0339 133.68 69.8672C133.326 69.6953 132.922 69.6094 132.469 69.6094ZM139.484 81.3594H138V67.3281H139.484V81.3594ZM127.984 77.1094C129.714 77.1094 131.328 77.0807 132.828 77.0234C134.333 76.9609 135.766 76.8333 137.125 76.6406L137.234 77.7188C135.839 77.9896 134.419 78.1615 132.977 78.2344C131.539 78.3073 129.938 78.3438 128.172 78.3438L127.984 77.1094ZM157.688 70.0156H146.297V68.8281H151.281V67.2656H152.75V68.8281H157.688V70.0156ZM158.453 77.4844H155.219V81.3438H153.719V77.4844H150.344V81.3438H148.859V77.4844H145.641V76.2812H158.453V77.4844ZM152.016 70.7344C152.984 70.7344 153.818 70.8255 154.516 71.0078C155.214 71.1849 155.747 71.4505 156.117 71.8047C156.487 72.1536 156.672 72.5781 156.672 73.0781C156.672 73.5729 156.487 73.9974 156.117 74.3516C155.747 74.7005 155.214 74.9661 154.516 75.1484C153.818 75.3307 152.984 75.4219 152.016 75.4219C151.042 75.4219 150.206 75.3307 149.508 75.1484C148.81 74.9661 148.276 74.7005 147.906 74.3516C147.536 73.9974 147.354 73.5729 147.359 73.0781C147.354 72.5781 147.536 72.1536 147.906 71.8047C148.276 71.4505 148.81 71.1849 149.508 71.0078C150.206 70.8255 151.042 70.7344 152.016 70.7344ZM152.016 71.8594C151 71.8698 150.224 71.9766 149.688 72.1797C149.156 72.3828 148.891 72.6823 148.891 73.0781C148.891 73.4688 149.159 73.7682 149.695 73.9766C150.232 74.1797 151.005 74.2812 152.016 74.2812C153.016 74.2812 153.784 74.1797 154.32 73.9766C154.862 73.7682 155.135 73.4688 155.141 73.0781C155.135 72.6823 154.865 72.3828 154.328 72.1797C153.797 71.9766 153.026 71.8698 152.016 71.8594ZM164.562 69.3438C164.557 69.9896 164.693 70.6068 164.969 71.1953C165.25 71.7786 165.654 72.2943 166.18 72.7422C166.706 73.1901 167.323 73.5312 168.031 73.7656L167.281 74.9375C166.479 74.6562 165.779 74.2422 165.18 73.6953C164.586 73.1432 164.13 72.5 163.812 71.7656C163.495 72.5625 163.034 73.2578 162.43 73.8516C161.831 74.4401 161.12 74.8802 160.297 75.1719L159.547 74.0156C160.26 73.7604 160.88 73.3932 161.406 72.9141C161.938 72.4349 162.344 71.888 162.625 71.2734C162.906 70.6536 163.047 70.0104 163.047 69.3438V68H164.562V69.3438ZM171.078 81.3281H169.594V77.6094H161.594V76.4062H171.078V81.3281ZM171.078 75.7344H169.594V67.3281H171.078V75.7344ZM179.672 67.5625C180.724 67.5625 181.622 67.6562 182.367 67.8438C183.117 68.026 183.688 68.2969 184.078 68.6562C184.474 69.0156 184.672 69.4531 184.672 69.9688C184.672 70.4844 184.474 70.9245 184.078 71.2891C183.688 71.6484 183.117 71.9219 182.367 72.1094C181.622 72.2969 180.724 72.3906 179.672 72.3906C178.62 72.3906 177.719 72.2969 176.969 72.1094C176.224 71.9219 175.654 71.6484 175.258 71.2891C174.867 70.9245 174.672 70.4844 174.672 69.9688C174.672 69.4531 174.867 69.0156 175.258 68.6562C175.654 68.2969 176.224 68.026 176.969 67.8438C177.719 67.6562 178.62 67.5625 179.672 67.5625ZM179.672 68.6562C178.557 68.6562 177.701 68.7708 177.102 69C176.503 69.2292 176.208 69.5521 176.219 69.9688C176.214 70.3958 176.505 70.7214 177.094 70.9453C177.688 71.1693 178.547 71.2812 179.672 71.2812C180.792 71.2812 181.648 71.1693 182.242 70.9453C182.841 70.7214 183.141 70.3958 183.141 69.9688C183.141 69.5521 182.839 69.2292 182.234 69C181.635 68.7708 180.781 68.6562 179.672 68.6562ZM186.062 74.4375H173.297V73.25H186.062V74.4375ZM184.453 78.7969H176.297V80.0469H184.844V81.1875H174.844V77.7188H182.984V76.625H174.828V75.5156H184.453V78.7969ZM195.625 67.9688C196.323 67.9688 196.948 68.0911 197.5 68.3359C198.052 68.5807 198.484 68.9245 198.797 69.3672C199.109 69.8047 199.266 70.3073 199.266 70.875C199.266 71.4375 199.109 71.9401 198.797 72.3828C198.484 72.8255 198.052 73.1693 197.5 73.4141C196.948 73.6536 196.323 73.7708 195.625 73.7656C194.927 73.7708 194.305 73.6536 193.758 73.4141C193.211 73.1693 192.784 72.8281 192.477 72.3906C192.169 71.9479 192.016 71.4427 192.016 70.875C192.016 70.3073 192.169 69.8021 192.477 69.3594C192.784 68.9167 193.211 68.5755 193.758 68.3359C194.305 68.0911 194.927 67.9688 195.625 67.9688ZM195.625 69.1719C195.203 69.1719 194.826 69.2422 194.492 69.3828C194.164 69.5234 193.906 69.724 193.719 69.9844C193.536 70.2396 193.448 70.5365 193.453 70.875C193.448 71.2083 193.536 71.5026 193.719 71.7578C193.906 72.013 194.167 72.2109 194.5 72.3516C194.833 72.487 195.208 72.5521 195.625 72.5469C196.052 72.5521 196.435 72.487 196.773 72.3516C197.112 72.2109 197.375 72.013 197.562 71.7578C197.75 71.5026 197.844 71.2083 197.844 70.875C197.844 70.5365 197.75 70.2396 197.562 69.9844C197.375 69.724 197.112 69.5234 196.773 69.3828C196.44 69.2422 196.057 69.1719 195.625 69.1719ZM202.672 81.3281H201.203V67.3438H202.672V81.3281ZM191.016 74.8594C192.672 74.8594 194.279 74.8255 195.836 74.7578C197.398 74.6849 198.865 74.5469 200.234 74.3438L200.344 75.4531C199.198 75.6719 197.901 75.8333 196.453 75.9375V80.8906H194.969V76.0156C194.083 76.0573 192.833 76.0833 191.219 76.0938L191.016 74.8594ZM211.781 70.8438H204.828V69.6406H207.578V67.7344H209.047V69.6406H211.781V70.8438ZM208.312 71.6875C208.901 71.6875 209.424 71.8255 209.883 72.1016C210.341 72.3724 210.701 72.7526 210.961 73.2422C211.221 73.7266 211.354 74.2812 211.359 74.9062C211.354 75.5365 211.221 76.099 210.961 76.5938C210.701 77.0833 210.341 77.4661 209.883 77.7422C209.424 78.0182 208.901 78.1562 208.312 78.1562C207.734 78.1562 207.214 78.0182 206.75 77.7422C206.286 77.4661 205.924 77.0807 205.664 76.5859C205.404 76.0911 205.276 75.5312 205.281 74.9062C205.276 74.2865 205.404 73.7318 205.664 73.2422C205.924 72.7526 206.286 72.3724 206.75 72.1016C207.214 71.8255 207.734 71.6875 208.312 71.6875ZM208.312 72.9219C207.979 72.9219 207.682 73.0078 207.422 73.1797C207.161 73.3464 206.958 73.5807 206.812 73.8828C206.667 74.1849 206.594 74.526 206.594 74.9062C206.594 75.2969 206.667 75.6432 206.812 75.9453C206.958 76.2422 207.161 76.474 207.422 76.6406C207.682 76.8073 207.979 76.8906 208.312 76.8906C208.646 76.8906 208.943 76.8073 209.203 76.6406C209.469 76.474 209.674 76.2422 209.82 75.9453C209.971 75.6432 210.047 75.2969 210.047 74.9062C210.047 74.526 209.971 74.1849 209.82 73.8828C209.674 73.5807 209.469 73.3464 209.203 73.1797C208.938 73.0078 208.641 72.9219 208.312 72.9219ZM216.844 81.3281H215.438V74.375H213.828V80.6719H212.422V67.6406H213.828V73.1562H215.438V67.3281H216.844V81.3281Z" fill="#FD4525"/>
</svg>
